<svg width="406" height="1022" fill="none" xmlns="http://www.w3.org/2000/svg"><g opacity=".5" clip-path="url('#clip0_520_11266')" fill-rule="evenodd" clip-rule="evenodd"><path d="m353.677 312.123 41.573-24.012.5.866-41.573 24.012-.5-.866Z" fill="#DDEBF6"/><path d="m395.75 288.111 41.815 24.142-.008 48.298-1-.001.008-47.72-41.315-23.853.5-.866ZM395.742 336.986l-41.572 24.011-.501-.866 41.573-24.011.5.866Z" fill="#DDEBF6"/><path d="m396 288.544-.008 48.009h-1l.008-48.009h1Z" fill="#DDEBF6"/><path d="m436.807 360.984-41.565-23.998.5-.866 41.565 23.998-.5.866ZM437.102 504.04l-41.314-23.853-.5.866 41.815 24.141 41.822-24.155-.5-.866-41.323 23.867Z" fill="#DDEBF6"/><path d="m394.976 432.282 41.893-24.116.499.867-41.391 23.827.06 47.759-1 .001-.061-48.338Z" fill="#DDEBF6"/><path d="m437.361 457.041-41.573 24.012-.5-.866 41.572-24.012.501.866ZM395.764 624.213l41.634 24.038-.5.866-41.634-24.038.5-.866ZM395.755 673.088l-41.533 23.942-.499-.866 41.533-23.942.499.866Z" fill="#DDEBF6"/><path d="m396.014 624.646-.008 48.009h-1l.008-48.009h1Z" fill="#DDEBF6"/><path d="m395.607 720.058-41.384-23.894-.5.866 41.884 24.182 42.533-24.519-42.384-24.471-.5.866 40.883 23.604-40.532 23.366ZM353.646 504.158l41.642-23.972.499.867-41.642 23.971-.499-.866ZM395.78 529.061l-41.573 24.012-.501-.866 41.573-24.011.501.865Z" fill="#DDEBF6"/><path d="m396.038 480.62-.008 48.009-1-.001.008-48.008h1Z" fill="#DDEBF6"/><path d="m436.095 552.626-40.815-23.565.5-.866 42.314 24.431-42.322 24.444-.5-.866 40.823-23.578ZM354.395 504.59l.062 48.049-1 .001-.062-48.048 1-.002ZM312.572 529.035 271 553.047l-.501-.866 41.573-24.012.5.866Z" fill="#DDEBF6"/><path d="m353.707 553.073-41.634-24.038.5-.866 41.634 24.038-.5.866ZM187.362 792.169l41.643-23.971.498.867-41.642 23.971-.499-.867Z" fill="#DDEBF6"/><path d="m229.504 768.198 41.565 23.998-.5.866-41.565-23.998.5-.866ZM229.496 817.073l-41.573 24.011-.5-.866 41.573-24.011.5.866Z" fill="#DDEBF6"/><path d="m229.754 768.631-.008 48.009h-1l.008-48.009h1Z" fill="#DDEBF6"/><path d="m228.996 817.073.5-.866 40.815 23.565.008-47.143h1l-.008 48.874-42.315-24.43ZM228.754 768.632l-.061-48.049 1-.001.061 48.048-1 .002ZM271.085 696.178l41.565 23.997-.5.866-41.565-23.997.5-.866Z" fill="#DDEBF6"/><path d="m311.892 768.329-41.323 23.867.5.866 41.823-24.156.008-48.297-1-.001-.008 47.721ZM271.077 745.053l-41.573 24.011-.5-.866 41.573-24.011.5.866Z" fill="#DDEBF6"/><path d="m271.335 696.611-.008 48.009h-1l.008-48.009h1Z" fill="#DDEBF6"/><path d="m312.142 769.05-41.565-23.997.5-.866 41.565 23.997-.5.866ZM354.223 697.03l-41.573 24.011-.5-.865 41.573-24.012.5.866ZM270.524 648.129l41.603-23.902.498.867-41.602 23.902-.499-.867Z" fill="#DDEBF6"/><path d="m312.626 624.227 41.565 23.997-.5.867-41.565-23.998.5-.866Z" fill="#DDEBF6"/><path d="m354.441 648.657.032 47.94h-1l-.032-47.939 1-.001Z" fill="#DDEBF6"/><path d="m353.723 697.03-41.565-23.997.5-.866 41.565 23.997-.5.866ZM395.764 625.079l-41.573 24.012-.5-.866 41.573-24.012.5.866ZM270.257 504.316l42.073-24.3 41.815 24.142-.5.866-41.315-23.853-41.073 23.722-.008 47.432 41.565 23.997.062 48.337-1 .002-.061-47.761-41.566-23.998.008-48.586ZM354.207 552.207l41.564 23.997-.5.866-41.564-23.997.5-.866Z" fill="#DDEBF6"/><path d="m396.021 576.637-.008 48.009h-1l.008-48.009h1ZM354.199 601.082l-41.573 24.011-.5-.866 41.573-24.011.5.866Z" fill="#DDEBF6"/><path d="m354.457 552.64-.008 48.009h-1l.008-48.009h1Z" fill="#DDEBF6"/><path d="m395.264 625.079-41.565-23.997.5-.866 41.565 23.997-.5.866ZM271.084 697.044l-41.642 23.972-.499-.867 41.643-23.971.498.866Z" fill="#DDEBF6"/><path d="m187.136 648.287 42.072-24.3 41.815 24.142-.5.866-41.314-23.853-41.073 23.723-.008 47.431 41.315 23.853-.5.866-41.815-24.141.008-48.587Z" fill="#DDEBF6"/><path d="m271.274 648.561.061 48.049-1 .002-.061-48.049 1-.002ZM229.451 673.006l-41.573 24.012-.5-.866 41.573-24.012.5.866Z" fill="#DDEBF6"/><path d="m229.709 624.565-.008 48.009-1-.001.008-48.008h1Z" fill="#DDEBF6"/><path d="m270.585 697.044-41.634-24.037.5-.866 41.634 24.037-.5.866ZM145.781 864.189l41.642-23.971.499.867-41.642 23.971-.499-.867Z" fill="#DDEBF6"/><path d="m187.923 840.218 41.565 23.998-.5.866-41.565-23.998.5-.866ZM103.966 840.625l.008-48.009 1 .001-.008 48.008h-1ZM146.297 768.172l41.565 23.998-.5.866-41.565-23.998.5-.866Z" fill="#DDEBF6"/><path d="m188.112 792.602.061 48.049-1 .001-.061-48.049 1-.001Z" fill="#DDEBF6"/><path d="m187.423 841.084-41.634-24.037.5-.866 41.634 24.037-.5.866ZM312.83 480.594l-.008 48.008h-1l.008-48.009 1 .001Z" fill="#DDEBF6"/><path d="m311.876 624.661-.061-48.049 1-.002.061 48.049-1 .002Z" fill="#AEC4E3"/><path d="m353.941 648.08-41.315-23.853-.5.866 41.815 24.142 42.073-24.3.008-48.586-41.815-24.142-.5.866 41.315 23.853-.008 47.432-41.073 23.722Z" fill="#AEC4E3"/><path d="m354.199 601.082-41.573 24.011-.5-.866 41.573-24.011.5.866Z" fill="#AEC4E3"/><path d="m354.457 552.64-.008 48.009h-1l.008-48.009h1Z" fill="#AEC4E3"/><path d="m395.264 625.079-41.565-23.997.5-.866 41.565 23.997-.5.866ZM395.735 384.995l-41.573 24.011-.5-.866 41.572-24.011.501.866Z" fill="#AEC4E3"/><path d="m395.993 336.553-.008 48.009h-1l.008-48.009h1Z" fill="#AEC4E3"/><path d="m436.869 409.032-41.635-24.037.5-.866 41.635 24.037-.5.866ZM395.25 288.111l41.573-24.011.5.866-41.572 24.011-.501-.866ZM312.089 432.152l41.573-24.012.5.866-41.573 24.012-.5-.866Z" fill="#AEC4E3"/><path d="m353.662 409.006.5-.866 41.315 23.854 41.392-23.828.499.867-41.892 24.115-41.814-24.142ZM354.154 457.015l-41.573 24.011-.501-.866 41.573-24.011.501.866Z" fill="#AEC4E3"/><path d="m354.412 408.573-.008 48.009h-1l.008-48.009h1Z" fill="#AEC4E3"/><path d="m395.288 481.053-41.634-24.038.5-.866 41.634 24.037-.5.867ZM270.508 505.038l-41.565-23.998.5-.866 41.565 23.998-.5.866ZM228.882 432.125l41.643-23.971.498.866-41.642 23.972-.499-.867Z" fill="#AEC4E3"/><path d="m228.693 480.608-.061-48.049 1-.001.061 48.049-1 .001ZM271.024 408.154l41.565 23.998-.5.866-41.565-23.998.5-.866Z" fill="#AEC4E3"/><path d="m312.839 432.585-.008 48.008h-1l.008-48.009 1 .001ZM271.016 457.029l-41.573 24.011-.5-.866 41.573-24.011.5.866Z" fill="#AEC4E3"/><path d="m271.274 408.587-.008 48.009h-1l.008-48.009h1Z" fill="#AEC4E3"/><path d="m312.081 481.026-41.565-23.997.5-.866 41.565 23.997-.5.866ZM187.362 793.035l-41.565-23.997.5-.866 41.565 23.997-.5.866ZM145.805 720.163l41.573-24.011.5.866-41.573 24.011-.5-.866Z" fill="#AEC4E3"/><path d="m145.547 768.605.008-48.009h1l-.008 48.009h-1ZM104.216 841.058l-41.565-23.997.5-.866 41.565 23.997-.5.866ZM62.66 768.186l41.572-24.012.5.866-41.573 24.012-.5-.866Z" fill="#AEC4E3"/><path d="m62.402 816.628.008-48.009h1l-.008 48.009h-1ZM104.732 744.175l41.565 23.997-.5.866-41.565-23.997.5-.866Z" fill="#AEC4E3"/><path d="m145.539 816.325-41.323 23.867.5.866 41.823-24.156.008-48.297h-1l-.008 47.72ZM104.724 793.049 63.151 817.06l-.5-.865 41.573-24.012.5.866Z" fill="#AEC4E3"/><path d="m104.982 744.607-.008 48.009h-1l.008-48.009h1Z" fill="#AEC4E3"/><path d="m145.789 817.047-41.565-23.998.5-.866 41.565 23.998-.5.866ZM62.644 864.204l41.572-24.012.501.866-41.573 24.012-.5-.866Z" fill="#AEC4E3"/><path d="m103.966 839.759 42.565 24.575.062 49.204-42.635-24.615.008-49.164Zm.992 48.586 40.633 23.46-.06-46.894-40.565-23.42-.008 46.854ZM187.878 696.152l41.815 24.141.061 48.337-1 .002-.061-47.761-41.315-23.853.5-.866Z" fill="#AEC4E3"/><path d="m187.12 744.305-41.323 23.867.5.866 41.823-24.156.008-48.297h-1l-.008 47.72ZM187.386 648.143l41.573-24.011.5.866-41.573 24.011-.5-.866Z" fill="#AEC4E3"/><path d="m229.459 624.132 41.565 23.997-.5.866-41.565-23.997.5-.866ZM229.451 673.006l-41.573 24.012-.5-.866 41.573-24.012.5.866Z" fill="#AEC4E3"/><path d="m229.709 624.565-.008 48.008h-1l.008-48.009 1 .001Z" fill="#AEC4E3"/><path d="m228.951 673.006.5-.866 40.883 23.604-.06-47.181 1-.002.062 48.917-42.385-24.472Z" fill="#AEC4E3"/><path d="m312.625 625.094-41.602 23.902-.498-.867 41.602-23.903.498.868ZM271 552.181l41.565 23.997-.5.866-41.565-23.997.5-.866ZM270.992 601.056l-41.533 23.942-.5-.867 41.533-23.942.5.867Z" fill="#AEC4E3"/><path d="m271.25 552.614-.008 48.009-1-.001.008-48.008h1Z" fill="#AEC4E3"/><path d="m312.126 625.093-41.634-24.038.5-.866 41.634 24.038-.5.866ZM270.25 552.613l.008-48.008h1l-.008 48.009-1-.001ZM353.396 504.88l-41.315-23.854.5-.866 41.814 24.142.062 48.337-1 .001-.061-47.76Z" fill="#AEC4E3"/><path d="M312.573 529.035 271 553.047l-.5-.866 41.573-24.012.5.866Z" fill="#AEC4E3"/><path d="m312.83 480.593-.008 48.009h-1l.008-48.009h1Z" fill="#AEC4E3"/><path d="m353.707 553.073-41.634-24.038.5-.866 41.634 24.038-.5.866ZM187.386 649.009l-41.565-23.998.5-.866 41.565 23.998-.5.866ZM145.761 576.096l41.602-23.902.498.867-41.602 23.902-.498-.867Z" fill="#AEC4E3"/><path d="m145.571 624.579-.061-48.049 1-.001.061 48.049-1 .001ZM187.862 552.194l41.565 23.998-.5.866-41.565-23.998.5-.866Z" fill="#AEC4E3"/><path d="m229.677 576.625.032 47.939-1 .001-.032-47.94h1ZM187.894 601l-41.573 24.011-.5-.866 41.573-24.011.5.866Z" fill="#AEC4E3"/><path d="m188.112 552.627.032 47.94h-1l-.032-47.939 1-.001Z" fill="#AEC4E3"/><path d="M228.959 624.998 187.394 601l.5-.866 41.565 23.997-.5.867ZM353.662 409.006l-41.565-23.997.5-.866 41.565 23.997-.5.866Z" fill="#AEC4E3"/><path d="m353.411 408.573.008-48.009h1l-.008 48.009h-1Z" fill="#AEC4E3"/></g><defs><clipPath id="clip0_520_11266"><path fill="#fff" transform="rotate(-60 717.75 414.393)" d="M0 0h957v385H0z"/></clipPath></defs></svg>