<svg width="813" height="889" fill="none" xmlns="http://www.w3.org/2000/svg"><g opacity=".5" clip-path="url('#clip0_520_11729')" fill-rule="evenodd" clip-rule="evenodd"><path opacity=".5" d="m167.628 11.188 41.565-23.997.5.866-41.565 23.997-.5-.866Z" fill="#DDEBF6"/><path d="m208.89 323.657-.008-48.009h1l.008 48.008-1 .001Z" fill="#DDEBF6"/><path d="m209.132 275.215 41.815-24.142 41.823 24.155-.5.866-41.323-23.867-41.315 23.854-.5-.866ZM251.455 299.659l.008 48.009h-1l-.008-48.009h1Z" fill="#DDEBF6"/><path d="m209.632 275.215 41.573 24.011-.5.866-41.573-24.011.5-.866Z" fill="#DDEBF6"/><path d="m292.77 276.094-41.565 23.998-.5-.866 41.565-23.998.5.866ZM416.808 347.367l-41.315 23.853.5.866 41.815-24.142-.008-48.297h-1l.008 47.72Z" fill="#DDEBF6"/><path d="m333.6 347.97.062-48.338 1 .001-.061 47.76 41.391 23.827-.499.866L333.6 347.97Z" fill="#DDEBF6"/><path d="m376.235 323.644.008 48.009h-1l-.008-48.009h1Z" fill="#DDEBF6"/><path d="m334.412 299.2 41.573 24.011-.5.866-41.573-24.011.5-.866Z" fill="#DDEBF6"/><path d="m417.55 300.08-41.565 23.997-.5-.866 41.565-23.997.5.866ZM375.977 276.068l-41.565 23.998-.5-.866 41.565-23.998.5.866ZM292.02 275.661l.061-48.049 1 .001-.061 48.049-1-.001Z" fill="#DDEBF6"/><path d="m333.913 300.066-41.642-23.971.498-.867 41.643 23.971-.499.867Z" fill="#DDEBF6"/><path d="m334.654 251.624.008 48.009h-1l-.008-48.009h1Z" fill="#DDEBF6"/><path d="m292.831 227.18 41.573 24.011-.5.866-41.573-24.011.5-.866Z" fill="#DDEBF6"/><path d="m375.969 228.059-41.565 23.998-.5-.866 41.565-23.998.5.866ZM459.184 276.042 417.55 300.08l-.5-.866 41.634-24.038.5.866Z" fill="#DDEBF6"/><path d="m375.227 275.635-.008-48.009h1l.008 48.009h-1Z" fill="#DDEBF6"/><path d="m417.05 300.08-41.573-24.012.5-.866 41.573 24.012-.5.866Z" fill="#DDEBF6"/><path d="m416.792 251.926.008 47.721h1l-.008-48.298-41.823-24.156-.5.866 41.323 23.867ZM334.396 204.048l-41.565 23.998-.5-.866 41.565-23.998.5.866Z" fill="#DDEBF6"/><path d="m250.439 203.93.061-48.338 1 .001-.06 47.759 41.391 23.827-.499.867-41.893-24.116Z" fill="#DDEBF6"/><path d="m293.073 179.604.008 48.009h-1l-.008-48.009h1Z" fill="#DDEBF6"/><path d="m251.25 155.159 41.573 24.012-.5.866-41.573-24.012.5-.866Z" fill="#DDEBF6"/><path d="m334.388 156.039-41.565 23.998-.5-.866 41.565-23.998.5.866ZM416.853 203.3l-41.384 23.893.5.866 41.884-24.181-.008-48.298h-1l.008 47.72Z" fill="#DDEBF6"/><path d="m333.646 203.615-.008-48.009h1l.008 48.009h-1Z" fill="#DDEBF6"/><path d="m375.469 228.059-41.573-24.011.5-.866 41.573 24.011-.5.866Z" fill="#DDEBF6"/><path d="m376.211 179.617.008 48.009h-1l-.008-48.008 1-.001Z" fill="#DDEBF6"/><path d="m334.388 155.173 41.573 24.012-.5.866-41.573-24.012.5-.866Z" fill="#DDEBF6"/><path d="m417.595 156.013-41.634 24.038-.5-.866 41.634-24.038.5.866ZM292.815 132.028l-41.565 23.997-.5-.866 41.565-23.997.5.866Z" fill="#DDEBF6"/><path d="m208.858 131.91.061-48.338h1l-.061 47.76 41.392 23.827-.499.867-41.893-24.116Z" fill="#DDEBF6"/><path d="m209.169 83.14 41.565-23.998.5.866-41.565 23.997-.5-.866Z" fill="#DDEBF6"/><path d="m251.234 59.142 41.573 24.011-.5.866-41.573-24.011.5-.866ZM251.492 107.583l.008 48.009h-1l-.008-48.008 1-.001Z" fill="#DDEBF6"/><path d="m209.67 83.14 41.573 24.011-.501.866-41.572-24.012.5-.866Z" fill="#DDEBF6"/><path d="m292.807 84.019-41.565 23.998-.5-.866 41.565-23.998.5.866ZM251.476 11.566l.008 48.009h-1l-.008-48.01h1ZM167.277 59.89l.101-48.27 1 .002-.1 47.69 41.391 23.827-.499.867-41.893-24.116Z" fill="#DDEBF6"/><path d="m209.693-12.81 41.533 23.943-.499.866-41.533-23.942.499-.867ZM209.912 35.563l.008 48.01h-1l-.008-48.01h1Z" fill="#DDEBF6"/><path d="m168.128 11.188 41.533 23.942-.499.866-41.533-23.942.499-.866Z" fill="#DDEBF6"/><path d="m251.227 11.999-41.565 23.997-.5-.866 41.565-23.997.5.866ZM376.022 132.002l-41.634 24.037-.5-.866 41.634-24.037.5.866ZM292.065 131.595l-.008-48.009h1l.008 48.009h-1Z" fill="#DDEBF6"/><path d="m333.888 156.039-41.573-24.011.5-.866 41.573 24.011-.5.866Z" fill="#DDEBF6"/><path d="m334.63 107.597.008 48.009h-1l-.008-48.009h1Z" fill="#DDEBF6"/><path d="m292.807 83.153 41.573 24.011-.5.866-41.573-24.011.5-.866Z" fill="#DDEBF6"/><path d="M376.014 83.993 334.38 108.03l-.5-.866 41.634-24.037.5.866ZM334.441 59.981 292.807 84.02l-.5-.866 41.634-24.038.5.866ZM250.726 11.133l41.634-24.038.5.866L251.226 12l-.5-.866Z" fill="#DDEBF6"/><path d="m293.049 35.577.008 48.009h-1l-.008-48.009h1Z" fill="#DDEBF6"/><path d="m251.226 11.133 41.573 24.011-.5.866L250.726 12l.5-.866ZM333.691 59.549l-.008-48.01h1l.008 48.01h-1Z" fill="#DDEBF6"/><path d="m375.514 83.993-41.573-24.011.501-.867 41.573 24.012-.501.866Z" fill="#DDEBF6"/><path d="m416.829 59.274-41.315 23.853.5.866 41.815-24.142-.008-48.586-41.823-24.156-.5.866 41.323 23.867.008 47.432Z" fill="#DDEBF6"/><path d="m376.256 35.55.008 48.01h-1l-.008-48.009h1Z" fill="#DDEBF6"/><path d="m292.299 35.144 41.884-24.182 41.823 24.156-.5.866-41.323-23.867-41.384 23.893-.5-.866Z" fill="#DDEBF6"/><path d="m417.571 11.986-41.565 23.998-.5-.866 41.565-23.998.5.867ZM459.16 132.016l-41.565 23.997-.5-.866 41.565-23.997.5.866ZM375.272 131.569l-.008-48.01h1l.008 48.01h-1Z" fill="#DDEBF6"/><path d="m376.014 83.127 41.573 24.011-.5.866-41.573-24.011.5-.866ZM500.211 443.254l41.635-24.037.5.866-41.635 24.037-.5-.866ZM542.535 467.699l-.032 47.939h-1l.032-47.94 1 .001Z" fill="#DDEBF6"/><path d="m500.712 443.254 41.573 24.011-.501.866-41.572-24.011.5-.866Z" fill="#DDEBF6"/><path d="m583.137 491.312-41.385 23.893.5.866 41.884-24.182.033-49.094-42.385 24.47.5.866 40.884-23.604-.031 46.785ZM375.182 419.701l.061-48.049 1 .002-.061 48.048-1-.001ZM417.816 395.664l.008 48.009h-1l-.008-48.009h1Z" fill="#DDEBF6"/><path d="m375.993 371.22 41.573 24.011-.5.866-41.573-24.011.5-.866Z" fill="#DDEBF6"/><path d="m458.381 372.533-40.815 23.564-.5-.866 42.315-24.43.008 48.875h-1l-.008-47.143ZM375.931 419.269l41.642 23.971-.499.867-41.642-23.972.499-.866ZM376.19 467.711l.008 48.008-1 .001-.008-48.009h1Z" fill="#DDEBF6"/><path d="m417.574 444.106-41.635 24.038-.5-.866 41.635-24.038.5.866ZM541.465 707.713l.062-48.049 1 .001-.062 48.049-1-.001Z" fill="#DDEBF6"/><path d="m541.776 659.232 41.565-23.998.5.866-41.565 23.998-.5-.866ZM584.1 683.676l.007 48.009h-1l-.007-48.009h1Z" fill="#DDEBF6"/><path d="m542.277 659.232 41.572 24.011-.5.866-41.573-24.011.501-.866Z" fill="#DDEBF6"/><path d="m583.85 684.109-.5-.866 40.815-23.565-40.823-23.578.5-.866 42.322 24.444-42.314 24.431ZM541.777 660.098l-41.642-23.972.499-.866 41.642 23.971-.499.867ZM500.196 587.211l41.565-23.997.5.866-41.565 23.997-.5-.866Z" fill="#DDEBF6"/><path d="m583.083 587.947.008 47.72h1l-.008-48.297-41.822-24.156-.501.866 41.323 23.867ZM542.518 611.656l.008 48.008-1 .001-.008-48.009h1Z" fill="#DDEBF6"/><path d="m500.696 587.211 41.572 24.012-.5.866-41.573-24.012.501-.866Z" fill="#DDEBF6"/><path d="m583.833 588.091-41.564 23.998-.5-.866 41.564-23.998.5.866ZM542.502 515.638l.008 48.009h-1l-.008-48.009h1ZM458.303 563.672l.102-47.98 1 .002-.102 47.98-1-.002Z" fill="#DDEBF6"/><path d="m458.655 515.26 41.565-23.997.5.866-41.565 23.997-.5-.866Z" fill="#DDEBF6"/><path d="m500.719 491.263 41.533 23.942-.499.866-41.533-23.942.499-.866Z" fill="#DDEBF6"/><path d="m542.252 516.071-41.564 23.997-.501-.866 41.565-23.997.5.866ZM500.962 443.687l.008 48.009h-1l-.008-48.009h1ZM333.625 491.997l-.008-48.586 41.815-24.142.5.866-41.315 23.853.008 47.432 41.073 23.722 41.564-23.997 41.892 24.115-.499.867-41.392-23.828-41.565 23.998-42.073-24.3ZM417.074 443.24l41.565-23.997.5.866-41.565 23.997-.5-.866Z" fill="#DDEBF6"/><path d="m459.139 419.243 41.573 24.011-.5.866-41.573-24.011.5-.866ZM459.397 467.684l.008 48.009h-1l-.008-48.008 1-.001Z" fill="#DDEBF6"/><path d="m417.574 443.24 41.573 24.012-.5.866-41.573-24.012.5-.866Z" fill="#DDEBF6"/><path d="m500.711 444.12-41.565 23.998-.5-.866 41.565-23.998.5.866ZM500.945 587.645l-.061 48.049-1-.001.062-48.049.999.001Z" fill="#DDEBF6"/><path d="m416.747 635.968-.008-48.586 41.815-24.142.5.866-41.315 23.853.008 47.432 41.073 23.722 41.314-23.853.5.866-41.815 24.142-42.072-24.3Z" fill="#DDEBF6"/><path d="m459.053 563.24 41.642 23.971-.499.867-41.642-23.972.499-.866ZM459.311 611.682l.008 48.009h-1l-.008-48.009h1Z" fill="#DDEBF6"/><path d="m417.489 587.238 41.572 24.011-.5.866-41.573-24.012.501-.865Z" fill="#DDEBF6"/><path d="m500.696 588.077-41.634 24.038-.5-.866 41.634-24.038.5.866ZM583.046 779.733l.061-48.049 1 .001-.061 48.049-1-.001Z" fill="#DDEBF6"/><path d="m583.357 731.252 41.565-23.998.5.866-41.565 23.998-.5-.866ZM541.731 804.164l-41.573-24.011.5-.866 41.573 24.011-.5.866ZM500.15 731.278l41.565-23.998.5.866-41.565 23.998-.5-.866Z" fill="#DDEBF6"/><path d="m542.215 707.28 41.642 23.971-.499.867-41.642-23.971.499-.867Z" fill="#DDEBF6"/><path d="m583.857 732.118-41.634 24.037-.5-.866 41.634-24.037.5.866ZM334.367 443.266l41.573 24.012-.5.866-41.573-24.012.5-.866Z" fill="#DDEBF6"/><path d="m458.655 516.127-41.642-23.972.499-.866 41.642 23.971-.499.867Z" fill="#AEC4E3"/><path d="m499.97 491.407-41.315 23.853.5.866 41.815-24.142-.008-48.586-42.073-24.3-41.815 24.142.5.866 41.315-23.853 41.073 23.723.008 47.431Z" fill="#AEC4E3"/><path d="m459.397 467.684.008 48.009h-1l-.008-48.008 1-.001Z" fill="#AEC4E3"/><path d="m417.574 443.24 41.573 24.012-.5.866-41.573-24.012.5-.866Z" fill="#AEC4E3"/><path d="m500.711 444.12-41.565 23.998-.5-.866 41.565-23.998.5.866ZM293.028 323.67l.008 48.009h-1l-.008-48.009h1Z" fill="#AEC4E3"/><path d="m251.205 299.226 41.573 24.011-.5.866-41.573-24.011.5-.866Z" fill="#AEC4E3"/><path d="m334.412 300.066-41.634 24.037-.5-.866 41.634-24.037.5.866ZM208.882 275.648l-.008-48.009h1l.008 48.008-1 .001Z" fill="#AEC4E3"/><path d="m250.947 251.073-41.323-23.867-.5.866 41.823 24.155 41.884-24.181-.5-.866-41.384 23.893ZM375.977 276.068l-41.565 23.998-.5-.866 41.565-23.998.5.866Z" fill="#AEC4E3"/><path d="m334.654 251.624.008 48.009h-1l-.008-48.009h1Z" fill="#AEC4E3"/><path d="m292.831 227.18 41.573 24.011-.5.866-41.573-24.011.5-.866Z" fill="#AEC4E3"/><path d="m334.404 252.057-.5-.866 40.815-23.565-40.823-23.578.5-.866 42.323 24.445-42.315 24.43ZM251.189 204.074l-41.565 23.998-.5-.866 41.565-23.998.5.866Z" fill="#AEC4E3"/><path d="m209.124 228.072-41.573-24.012.5-.866 41.573 24.012-.5.866Z" fill="#AEC4E3"/><path d="m209.866 179.918.008 47.721h-1l-.008-48.298 41.884-24.182.5.866-41.384 23.893ZM334.396 204.048l-41.565 23.998-.5-.866 41.565-23.998.5.866Z" fill="#AEC4E3"/><path d="m334.638 155.606.008 48.009h-1l-.008-48.009h1ZM250.439 203.641l.061-48.049 1 .001-.061 48.049-1-.001Z" fill="#AEC4E3"/><path d="m292.332 228.046-41.642-23.972.498-.866 41.643 23.971-.499.867Z" fill="#AEC4E3"/><path d="m293.073 179.604.008 48.008-1 .001-.008-48.009h1Z" fill="#AEC4E3"/><path d="m251.25 155.159 41.573 24.012-.5.866-41.573-24.012.5-.866Z" fill="#AEC4E3"/><path d="m334.388 156.039-41.565 23.998-.5-.866 41.565-23.998.5.866ZM168.285 107.61l.008 48.008-1 .001-.008-48.009h1Z" fill="#AEC4E3"/><path d="m126.462 83.165 41.573 24.012-.5.866-41.573-24.012.5-.866Z" fill="#AEC4E3"/><path d="m209.669 84.005-41.634 24.038-.5-.866 41.634-24.038.5.866ZM168.027 60.034 126.462 84.03l-.5-.866 41.565-23.997.5.866Z" fill="#AEC4E3"/><path d="m84.18 59.945-.009-48.297h1l.008 47.72 41.283 23.797-.5.866-41.783-24.086Z" fill="#AEC4E3"/><path d="m84.421 11.214 41.565-23.997.5.866L84.921 12.08l-.5-.866Z" fill="#AEC4E3"/><path d="m126.486-12.784 41.642 23.972-.499.867-41.642-23.972.499-.867ZM126.744 35.66l-.032 47.939-1-.001.032-47.94 1 .001Z" fill="#AEC4E3"/><path d="m84.922 11.214 41.573 24.012-.501.866L84.421 12.08l.5-.866ZM208.858 131.62l.061-48.049 1 .002-.061 48.049-1-.002Z" fill="#AEC4E3"/><path d="m250.751 156.026-41.643-23.972.499-.866 41.643 23.971-.499.867Z" fill="#AEC4E3"/><path d="m251.492 107.583.008 48.009h-1l-.008-48.008 1-.001Z" fill="#AEC4E3"/><path d="m209.669 83.14 41.573 24.011-.5.865-41.573-24.01.5-.867Z" fill="#AEC4E3"/><path d="m292.807 84.019-41.565 23.998-.5-.867 41.565-23.997.5.866ZM251.234 60.008l-41.565 23.997-.5-.866 41.565-23.997.5.866ZM167.277 59.6l.101-47.98 1 .002-.101 47.98-1-.002Z" fill="#AEC4E3"/><path d="m209.17 84.005-41.642-23.97.499-.867 41.642 23.97-.499.867ZM209.693-12.81l41.533 23.943-.5.866-41.533-23.942.5-.867Z" fill="#AEC4E3"/><path d="m209.912 35.563.008 48.01h-1l-.008-48.01h1Z" fill="#AEC4E3"/><path d="m251.226 11.999-41.565 23.997-.5-.866 41.565-23.997.5.866Z" fill="#AEC4E3"/><path d="m250.484 59.575-.008-48.01h1l.008 48.01h-1Z" fill="#AEC4E3"/><path d="m292.307 84.019-41.573-24.011.5-.866 41.573 24.011-.5.866Z" fill="#AEC4E3"/><path d="m293.049 35.577.008 48.009h-1l-.008-48.009h1Z" fill="#AEC4E3"/><path d="m251.226 11.133 41.573 24.011-.5.866L250.726 12l.5-.866Z" fill="#AEC4E3"/><path d="m292.807 84.019-.5-.866 41.384-23.893-.008-46.854-40.884 23.604-.5-.866 42.384-24.47.008 49.163-41.884 24.182ZM334.63 107.597l.008 48.009h-1l-.008-48.009h1Z" fill="#AEC4E3"/><path d="m292.807 83.153 41.573 24.011-.5.866-41.573-24.011.5-.866Z" fill="#AEC4E3"/><path d="M376.014 83.993 334.38 108.03l-.5-.866 41.634-24.037.5.866ZM292.044 419.688l-.008-48.009h1l.008 48.009h-1Z" fill="#AEC4E3"/><path d="m292.786 372.112-.5-.866 41.315-23.853.061-47.761 1 .001-.062 48.337-41.814 24.142ZM334.609 395.69l.008 48.009h-1l-.008-48.008 1-.001Z" fill="#AEC4E3"/><path d="m292.786 371.246 41.573 24.011-.5.866-41.573-24.011.5-.866Z" fill="#AEC4E3"/><path d="m375.993 372.086-41.634 24.037-.5-.866 41.634-24.037.5.866ZM334.374 492.141l-41.564 23.998-.5-.866 41.564-23.998.5.866ZM250.417 491.734l.062-48.049 1 .001-.062 48.049-1-.001Z" fill="#AEC4E3"/><path d="m292.31 516.139-41.642-23.971.499-.867 41.642 23.971-.499.867ZM250.729 443.252l41.565-23.997.5.866-41.565 23.997-.5-.866Z" fill="#AEC4E3"/><path d="m292.794 419.255 41.573 24.011-.501.866-41.572-24.011.5-.866ZM293.052 467.697l.008 48.009h-1l-.008-48.009h1Z" fill="#AEC4E3"/><path d="m251.229 443.253 41.573 24.011-.501.866-41.572-24.012.5-.865Z" fill="#AEC4E3"/><path d="m334.367 444.132-41.565 23.998-.5-.866 41.565-23.998.5.866ZM542.215 708.146l-41.565 23.998-.5-.866 41.565-23.998.5.866ZM458.327 707.7l-.008-48.009h1l.008 48.008-1 .001Z" fill="#AEC4E3"/><path d="m500.15 732.144-41.573-24.012.5-.865 41.573 24.011-.5.866ZM542.231 804.164l-41.565 23.998-.5-.866 41.565-23.998.5.866ZM458.343 803.717l-.008-48.009h1l.008 48.009h-1Z" fill="#AEC4E3"/><path d="m500.166 828.162-41.573-24.012.5-.866 41.573 24.012-.5.866ZM458.585 755.275l41.565-23.997.5.866-41.565 23.997-.5-.866Z" fill="#AEC4E3"/><path d="m541.473 756.011.008 47.72h1l-.008-48.297-41.823-24.156-.5.866 41.323 23.867ZM500.908 779.72l.008 48.008-1 .001-.008-48.009h1Z" fill="#AEC4E3"/><path d="m459.085 755.275 41.573 24.012-.5.866-41.573-24.012.5-.866Z" fill="#AEC4E3"/><path d="m542.223 756.155-41.565 23.998-.5-.866 41.565-23.998.5.866ZM541.489 851.74l-.008-48.009h1l.008 48.009h-1Z" fill="#AEC4E3"/><path d="m540.981 803.731 42.564-24.575 42.644 24.548-42.635 24.616-42.573-24.589Zm42.573 23.434 40.633-23.46-40.641-23.394-40.565 23.42 40.573 23.434ZM458.569 659.258l41.815-24.142 41.892 24.115-.499.867-41.393-23.828-41.315 23.854-.5-.866Z" fill="#AEC4E3"/><path d="m499.893 683.991.007 47.72h1l-.008-48.298-41.822-24.155-.5.866 41.323 23.867ZM416.747 635.679l-.008-48.008 1-.001.008 48.009h-1Z" fill="#AEC4E3"/><path d="m416.988 587.237 41.565-23.997.5.866-41.565 23.997-.5-.866ZM459.311 611.682l.008 48.009h-1l-.008-48.009h1Z" fill="#AEC4E3"/><path d="m417.489 587.237 41.572 24.012-.5.866-41.573-24.012.501-.866Z" fill="#AEC4E3"/><path d="m459.062 612.115-.5-.866 40.883-23.604-40.891-23.539.499-.866 42.394 24.404-42.385 24.471Z" fill="#AEC4E3"/><path d="m459.405 515.694-.102 47.98-1-.002.102-47.98 1 .002ZM375.448 515.287l41.565-23.998.5.866-41.565 23.998-.5-.866ZM417.77 539.731l-.032 47.94-1-.001.032-47.939h1Z" fill="#AEC4E3"/><path d="m375.947 515.287 41.573 24.011-.5.866-41.573-24.011.5-.866Z" fill="#AEC4E3"/><path d="m459.155 516.126-41.634 24.038-.5-.866 41.634-24.038.5.866ZM375.447 516.152l-41.572-24.011.5-.866 41.573 24.012-.501.865ZM375.682 420.279l-41.315 23.853-.5-.866 41.814-24.141 41.892 24.115-.499.866-41.392-23.827Z" fill="#AEC4E3"/><path d="m376.189 467.711.008 48.008-1 .001-.008-48.009h1Z" fill="#AEC4E3"/><path d="m334.367 443.266 41.573 24.012-.5.866-41.573-24.012.5-.866Z" fill="#AEC4E3"/><path d="m417.574 444.106-41.635 24.038-.5-.866 41.635-24.038.5.866ZM417.497 636.112l-41.565 23.998-.5-.866 41.565-23.998.5.866ZM333.54 635.704l.101-47.979 1 .002-.101 47.98-1-.003Z" fill="#AEC4E3"/><path d="m375.432 660.11-41.642-23.971.499-.867 41.642 23.972-.499.866ZM333.891 587.293l41.565-23.998.5.866-41.565 23.998-.5-.866Z" fill="#AEC4E3"/><path d="m375.955 563.295 41.533 23.942-.499.867-41.533-23.942.499-.867ZM376.174 611.668l.008 48.009h-1l-.008-48.009h1Z" fill="#AEC4E3"/><path d="m334.391 587.293 41.532 23.942-.499.866-41.533-23.942.5-.866Z" fill="#AEC4E3"/><path d="m417.488 588.104-41.565 23.997-.5-.866 41.565-23.998.5.867ZM292.786 372.112l-41.565 23.998-.5-.866 41.565-23.998.5.866Z" fill="#AEC4E3"/><path d="m292.286 372.112-41.573-24.011.5-.866 41.573 24.011-.5.866ZM292.065 131.883l-.008-48.297h1l.008 47.72 41.323 23.867-.5.866-41.823-24.156ZM125.72 131.896l-.008-48.298h1l.008 47.721 41.073 23.722 41.315-23.853.5.866-41.815 24.142-42.073-24.3ZM292.019 275.95l.062-48.338 1 .001-.061 47.76 41.391 23.826-.499.867-41.893-24.116Z" fill="#AEC4E3"/></g><defs><clipPath id="clip0_520_11729"><path fill="#fff" transform="rotate(-120 496.172 305.723)" d="M0 0h957v385H0z"/></clipPath></defs></svg>