<svg width="297" height="910" fill="none" xmlns="http://www.w3.org/2000/svg"><g opacity=".5" clip-path="url('#clip0_520_12209')" fill-rule="evenodd" clip-rule="evenodd"><path opacity=".5" d="M91.711 39.419h45.502v1H91.711v-1Z" fill="#fff"/><path d="m-22.552 316.365 22.75-39.539.867.499-22.75 39.539-.867-.499Z" fill="#fff"/><path d="M.632 276.576h45.79l22.896 39.789-.867.499-22.607-39.288H.632v-1ZM23.816 316.864l-22.75 39.538-.868-.498 22.751-39.539.867.499Z" fill="#fff"/><path d="m1.065 276.826 22.751 39.539-.867.499L.2 277.325l.866-.499Z" fill="#fff"/><path d="M68.884 317.114H23.383v-1h45.501v1ZM136.924 434.731H91.711v1h45.791l22.895-39.79-.867-.498-22.606 39.288Z" fill="#fff"/><path d="m68.307 395.692 22.971-39.789.866.5-22.682 39.289 22.682 39.289-.866.5-22.97-39.789Z" fill="#fff"/><path d="m114.895 395.941-22.75 39.539-.867-.499 22.751-39.539.866.499Z" fill="#fff"/><path d="m92.145 355.904 22.75 39.538-.866.499-22.751-39.539.867-.498Z" fill="#fff"/><path d="M159.964 396.192h-45.502v-1h45.502v1ZM137.213 356.653H91.711v-1h45.502v1ZM68.451 316.364l22.827-39.538.866.499-22.827 39.539-.866-.5Z" fill="#fff"/><path d="m91.278 356.403-22.827-39.539.866-.5 22.827 39.539-.866.5Z" fill="#fff"/><path d="m114.895 316.864-22.75 39.538-.867-.498 22.751-39.539.866.499Z" fill="#fff"/><path d="m92.145 276.826 22.75 39.539-.866.499-22.751-39.539.867-.499Z" fill="#fff"/><path d="M159.964 317.114h-45.502v-1h45.502v1ZM205.541 396.192h-45.577v-1h45.577v1Z" fill="#fff"/><path d="m136.78 355.904 22.75-39.539.867.499-22.751 39.538-.866-.498Z" fill="#fff"/><path d="m159.53 395.941-22.75-39.539.866-.498 22.751 39.538-.867.499Z" fill="#fff"/><path d="m182.138 356.153-22.607 39.289.866.499 22.895-39.788-22.895-39.788-.866.499 22.607 39.289ZM137.213 277.575H91.711v-1h45.502v1Z" fill="#fff"/><path d="m68.307 237.537 22.971-39.789.866.5-22.682 39.289 22.682 39.288-.866.5-22.97-39.788Z" fill="#fff"/><path d="m114.895 237.786-22.75 39.539-.867-.499 22.751-39.539.866.499Z" fill="#fff"/><path d="m92.145 197.749 22.75 39.538-.866.499-22.751-39.539.867-.498Z" fill="#fff"/><path d="M159.964 238.037h-45.502v-1h45.502v1ZM205.252 316.114h-45.288v1h45.867l22.895-39.789-.867-.499-22.607 39.288Z" fill="#fff"/><path d="m136.78 276.826 22.75-39.539.867.499-22.751 39.539-.866-.499Z" fill="#fff"/><path d="m159.53 316.864-22.75-39.539.866-.499 22.751 39.539-.867.499Z" fill="#fff"/><path d="m183.148 277.325-22.751 39.539-.866-.499 22.75-39.539.867.499Z" fill="#fff"/><path d="m160.397 237.287 22.751 39.539-.867.499-22.75-39.539.866-.499Z" fill="#fff"/><path d="M228.292 277.575h-45.577v-1h45.577v1ZM137.213 198.498H91.711v-1h45.502v1Z" fill="#fff"/><path d="m68.307 158.459 22.971-39.788.866.5-22.682 39.288 22.682 39.289-.866.5-22.97-39.789Z" fill="#fff"/><path d="M91.711 118.42h45.502v1H91.711v-1Z" fill="#fff"/><path d="m137.646 118.671 22.751 39.539-.867.498-22.75-39.538.866-.499ZM114.895 158.709l-22.75 39.538-.867-.498 22.751-39.539.866.499Z" fill="#fff"/><path d="m92.145 118.671 22.75 39.539-.866.498-22.751-39.538.867-.499Z" fill="#fff"/><path d="M159.964 158.959h-45.502v-1h45.502v1ZM160.397 79.631l-22.751 39.539-.866-.499 22.75-39.539.867.5ZM68.307 79.381 91.278 39.67l.866.5-22.682 39.213 22.682 39.288-.866.5-22.971-39.789Z" fill="#fff"/><path d="m137.646 39.67 22.751 39.462-.866.5-22.751-39.463.866-.5ZM114.895 79.631l-22.75 39.539-.867-.499 22.751-39.539.866.5Z" fill="#fff"/><path d="m92.144 39.67 22.751 39.462-.866.5-22.75-39.463.865-.5Z" fill="#fff"/><path d="M159.964 79.882h-45.502v-1h45.502v1ZM205.541 238.037h-45.577v-1h45.577v1ZM136.78 197.749l22.75-39.539.867.499-22.751 39.538-.866-.498Z" fill="#fff"/><path d="m159.53 237.786-22.75-39.539.866-.498 22.751 39.538-.867.499Z" fill="#fff"/><path d="m183.148 198.247-22.751 39.539-.866-.499 22.75-39.538.867.498Z" fill="#fff"/><path d="m160.397 158.21 22.751 39.539-.867.498-22.75-39.538.866-.499Z" fill="#fff"/><path d="M228.292 198.498h-45.577v-1h45.577v1ZM205.541 158.959h-45.577v-1h45.577v1ZM159.964 78.882h45.577v1h-45.577v-1Z" fill="#fff"/><path d="m183.148 119.17-22.751 39.538-.867-.498 22.751-39.539.867.499Z" fill="#fff"/><path d="m160.397 79.132 22.751 39.539-.867.499-22.751-39.539.867-.499ZM205.108 158.21l22.751-39.539.867.499-22.751 39.538-.867-.498Z" fill="#fff"/><path d="m227.859 198.247-22.751-39.538.867-.499 22.751 39.539-.867.498Z" fill="#fff"/><path d="M273.505 197.498h-45.213v1h45.791l23.039-40.039-22.895-39.788-.866.499 22.607 39.289-22.463 39.039Z" fill="#fff"/><path d="m251.477 158.709-22.751 39.538-.867-.498 22.751-39.539.867.499Z" fill="#fff"/><path d="M182.715 118.42h45.866l22.895 39.79-.866.498-22.607-39.288h-45.288v-1Z" fill="#fff"/><path d="M296.545 158.959h-45.502v-1h45.502v1ZM273.794 277.575h-45.502v-1h45.502v1ZM205.108 237.287l22.751-39.538.867.498-22.751 39.539-.867-.499Z" fill="#fff"/><path d="m228.726 197.749 22.751 39.538-.867.499-22.751-39.539.867-.498ZM159.964 553.347h45.577v1h-45.577v-1ZM183.148 593.635l-22.751 39.463-.866-.499 22.75-39.463.867.499Z" fill="#fff"/><path d="m160.397 553.598 22.751 39.538-.867.499-22.75-39.539.866-.498Z" fill="#fff"/><path d="M205.253 632.348h-45.289v1h45.866l23.328-40.462h-46.443v1h44.712l-22.174 38.462ZM68.451 474.519l22.827-39.538.866.5-22.827 39.538-.866-.5ZM114.895 475.019l-22.75 39.538-.867-.498 22.751-39.539.866.499Z" fill="#fff"/><path d="m92.145 434.981 22.75 39.539-.866.499-22.751-39.539.867-.499Z" fill="#fff"/><path d="M159.099 475.269h-44.637v-1h46.366l-23.182 40.288-.867-.498 22.32-38.79ZM69.317 474.519l22.827 39.539-.866.5-22.827-39.539.866-.5ZM46.567 514.557l-22.751 39.539-.867-.499L45.7 514.059l.867.498Z" fill="#fff"/><path d="M91.711 514.808H46.133v-1h45.578v1ZM68.451 790.753l22.827-39.538.866.5-22.827 39.538-.866-.5Z" fill="#fff"/><path d="M91.711 750.965h45.502v1H91.711v-1ZM114.895 791.253l-22.75 39.539-.867-.499 22.751-39.539.866.499Z" fill="#fff"/><path d="m92.145 751.215 22.75 39.539-.866.499-22.751-39.539.867-.499Z" fill="#fff"/><path d="M114.462 791.503v-1h44.637l-22.319-38.789.866-.499 23.182 40.288h-46.366ZM91.278 751.715l-22.827-39.539.866-.5 22.827 39.539-.866.5ZM91.711 671.887h45.502v1H91.711v-1Z" fill="#fff"/><path d="m159.387 711.926-22.607 39.289.866.499 22.895-39.788-22.895-39.788-.866.499 22.607 39.289ZM114.895 712.175l-22.75 39.539-.867-.499 22.751-39.538.866.498Z" fill="#fff"/><path d="m92.145 672.138 22.75 39.539-.866.498-22.751-39.538.867-.499Z" fill="#fff"/><path d="M159.964 712.426h-45.502v-1h45.502v1ZM160.397 633.098l-22.751 39.539-.866-.499 22.75-39.539.867.499ZM68.452 632.598l22.826-39.463.866.501-22.827 39.463-.865-.501Z" fill="#fff"/><path d="M91.711 592.886h45.502v1H91.711v-1Z" fill="#fff"/><path d="m137.646 593.136 22.751 39.463-.866.499-22.751-39.463.866-.499Z" fill="#fff"/><path d="M159.964 633.348h-45.502v-1h45.502v1ZM160.397 554.096l-22.751 39.539-.866-.499 22.75-39.538.867.498ZM.055 514.308l23.038-40.039h45.791v1H23.672L1.209 514.308l22.463 39.039h45.501l22.971 39.789-.866.5-22.682-39.289H23.093L.055 514.308ZM91.711 513.808h45.502v1H91.711v-1Z" fill="#fff"/><path d="m137.646 514.059 22.751 39.538-.867.499-22.75-39.539.866-.498ZM114.895 554.096l-22.75 39.539-.867-.499 22.751-39.538.866.498Z" fill="#fff"/><path d="m92.145 514.059 22.75 39.538-.866.499-22.751-39.539.867-.498Z" fill="#fff"/><path d="M159.964 554.347h-45.502v-1h45.502v1ZM92.144 672.637l-22.827 39.539-.866-.5 22.827-39.539.866.5Z" fill="#fff"/><path d="m.055 672.387 23.038-40.039h45.791v1H23.672L1.209 672.387l22.463 39.039h45.212v1h-45.79L.053 672.387Z" fill="#fff"/><path d="m69.317 632.598 22.827 39.539-.866.5-22.827-39.539.866-.5ZM46.567 672.637l-22.751 39.538-.867-.498L45.7 672.138l.867.499Z" fill="#fff"/><path d="m23.816 632.599 22.75 39.539-.866.499-22.75-39.539.866-.499Z" fill="#fff"/><path d="M91.711 672.887H46.133v-1h45.578v1ZM68.451 869.831l22.827-39.539.866.5-22.827 39.539-.866-.5Z" fill="#fff"/><path d="M91.711 830.042h45.502v1H91.711v-1ZM22.95 870.33.197 830.792l.867-.499 22.751 39.539-.867.498ZM23.383 790.503h45.501v1H23.383v-1Z" fill="#fff"/><path d="m69.317 790.753 22.827 39.539-.866.5-22.827-39.539.866-.5Z" fill="#fff"/><path d="M91.711 831.042H46.133v-1h45.578v1ZM23.816 474.52l22.75 39.539-.866.498-22.75-39.538.866-.499Z" fill="#fff"/><path d="m91.278 593.636-22.827-39.539.866-.5 22.827 39.539-.866.5Z" fill="#676C8F"/><path d="M136.924 592.886H91.711v1h45.791l23.039-40.039-23.039-40.039h-45.79v1h45.212l22.463 39.039-22.463 39.039Z" fill="#676C8F"/><path d="m114.895 554.096-22.75 39.539-.867-.498 22.751-39.539.866.498Z" fill="#676C8F"/><path d="m92.145 514.059 22.75 39.539-.866.498-22.751-39.538.867-.499Z" fill="#676C8F"/><path d="M159.964 554.347h-45.502v-1h45.502v1ZM46.567 356.402l-22.75 39.539-.867-.499 22.75-39.538.867.498Z" fill="#676C8F"/><path d="m23.816 316.365 22.751 39.539-.867.499-22.75-39.539.866-.499Z" fill="#676C8F"/><path d="M91.711 356.653H46.133v-1h45.578v1ZM.198 276.826l22.751-39.539.867.499-22.75 39.539-.868-.499Z" fill="#676C8F"/><path d="m46.423 276.575-22.607-39.288-.866.499 22.895 39.789H91.71v-1H46.423ZM137.213 356.653H91.711v-1h45.502v1Z" fill="#676C8F"/><path d="m114.895 316.864-22.75 39.539-.867-.499 22.751-39.539.866.499Z" fill="#676C8F"/><path d="m92.145 276.826 22.75 39.539-.866.499-22.751-39.539.867-.499Z" fill="#676C8F"/><path d="M114.462 317.114v-1h44.637l-22.319-38.789.866-.499 23.182 40.288h-46.366ZM68.885 238.037H23.383v-1h45.502v1Z" fill="#676C8F"/><path d="M22.95 237.786.197 198.247l.867-.498 22.751 39.538-.867.499Z" fill="#676C8F"/><path d="m46.423 198.498-22.607 39.288-.866-.499 22.895-39.789H91.71v1H46.423ZM137.213 277.575H91.711v-1h45.502v1Z" fill="#676C8F"/><path d="m160.397 237.786-22.751 39.539-.866-.499 22.75-39.539.867.499ZM68.451 237.287l22.827-39.539.866.5-22.827 39.539-.866-.5Z" fill="#676C8F"/><path d="m91.278 277.325-22.827-39.538.866-.5 22.827 39.538-.866.5Z" fill="#676C8F"/><path d="m114.895 237.786-22.75 39.539-.867-.499 22.751-39.539.866.499Z" fill="#676C8F"/><path d="m92.145 197.749 22.75 39.538-.866.499-22.751-39.539.867-.498Z" fill="#676C8F"/><path d="M159.964 238.037h-45.502v-1h45.502v1ZM46.567 119.17l-22.75 39.539-.867-.499 22.75-39.539.867.499Z" fill="#676C8F"/><path d="m23.816 79.132 22.751 39.539-.867.499-22.75-39.539.866-.499Z" fill="#676C8F"/><path d="M91.711 119.42H46.133v-1h45.578v1ZM68.885 79.882H23.383v-1h45.502v1Z" fill="#676C8F"/><path d="M.055 39.92 22.949.13l.867.499L1.21 39.919l22.607 39.213-.866.5L.055 39.919Z" fill="#676C8F"/><path d="M23.383-.12h45.502v1H23.383v-1Z" fill="#676C8F"/><path d="M69.317.13 92.144 39.67l-.866.5L68.451.63l.866-.5ZM46.567 40.169 23.816 79.632l-.866-.5L45.7 39.67l.867.5Z" fill="#676C8F"/><path d="M23.816.131 46.567 39.67l-.867.498L22.95.63l.866-.499ZM68.451 158.209l22.827-39.539.866.5-22.827 39.539-.866-.5Z" fill="#676C8F"/><path d="m91.278 198.248-22.827-39.539.866-.5 22.827 39.539-.866.5Z" fill="#676C8F"/><path d="m114.895 158.709-22.75 39.538-.867-.498 22.751-39.539.866.499Z" fill="#676C8F"/><path d="m92.145 118.671 22.75 39.539-.866.499-22.751-39.539.867-.499Z" fill="#676C8F"/><path d="M159.964 158.959h-45.502v-1h45.502v1ZM137.213 119.42H91.711v-1h45.502v1ZM68.452 79.131 91.278 39.67l.866.5-22.827 39.463-.865-.5Z" fill="#676C8F"/><path d="M91.278 119.17 68.451 79.632l.866-.5 22.827 39.538-.866.5ZM137.646 39.67l22.751 39.462-.866.5-22.751-39.463.866-.5Z" fill="#676C8F"/><path d="m114.895 79.631-22.75 39.539-.867-.499 22.751-39.539.866.5Z" fill="#676C8F"/><path d="M159.964 79.882h-45.502v-1h45.502v1Z" fill="#676C8F"/><path d="m136.78 118.671 22.75-39.539.867.5-22.751 39.538-.866-.499Z" fill="#676C8F"/><path d="m159.53 158.709-22.75-39.539.866-.499 22.751 39.539-.867.499Z" fill="#676C8F"/><path d="m183.148 119.17-22.751 39.539-.866-.499 22.75-39.539.867.499Z" fill="#676C8F"/><path d="m160.397 79.132 22.751 39.539-.867.499-22.75-39.539.866-.499Z" fill="#676C8F"/><path d="M159.964 158.959v-1h45.288l22.176-38.539h-44.713v-1h46.442l-23.326 40.539h-45.867ZM183.148 198.247l-22.751 39.539-.866-.499 22.75-39.538.867.498Z" fill="#676C8F"/><path d="m160.397 158.21 22.751 39.539-.867.498-22.75-39.538.866-.499Z" fill="#676C8F"/><path d="M228.292 198.498h-45.577v-1h45.577v1ZM.198 434.981l22.751-39.539.867.499-22.75 39.539-.868-.499Z" fill="#676C8F"/><path d="M23.383 396.192v-1h45.213l22.682-39.289.866.5-22.97 39.789H23.382ZM46.567 435.48l-22.75 39.539-.867-.499 22.75-39.539.867.499Z" fill="#676C8F"/><path d="m23.816 395.442 22.751 39.539-.867.499-22.75-39.539.866-.499Z" fill="#676C8F"/><path d="M91.711 435.731H46.133v-1h45.578v1ZM.632 514.808H-44.87v-1H.632v1ZM-44.87 434.731H.632v1H-44.87v-1Z" fill="#676C8F"/><path d="m1.065 434.981 22.751 39.539-.867.499L.2 435.48l.866-.499Z" fill="#676C8F"/><path d="M23.383 475.27H-22.12v-1h45.502v1ZM68.885 791.504H23.383v-1h45.502v1ZM.198 751.215l22.751-39.538.867.498-22.75 39.539-.868-.499Z" fill="#676C8F"/><path d="M22.95 791.253.197 751.714l.867-.499 22.751 39.539-.867.499ZM23.383 870.581H-22.12v-1h45.502v1Z" fill="#676C8F"/><path d="M-22.12 790.504h45.503v1H-22.12v-1Z" fill="#676C8F"/><path d="m45.557 830.542-22.608 39.29.867.499 22.895-39.789-22.895-39.788-.866.499 22.607 39.289ZM1.065 830.792l-22.75 39.539-.867-.499 22.75-39.539.867.499Z" fill="#676C8F"/><path d="m-21.686 790.754 22.751 39.539-.867.499-22.75-39.539.866-.499Z" fill="#676C8F"/><path d="M46.134 831.042H.632v-1h45.502v1ZM.198 909.37l22.751-39.538.867.498-22.75 39.539-.868-.499Z" fill="#676C8F"/><path d="M22.518 869.581h46.655l23.404 40.539H45.844l-23.326-40.539Zm23.905 39.539h44.422l-22.25-38.539H24.248l22.176 38.539ZM23.383 711.426h45.79l22.971 39.789-.866.5-22.682-39.289H23.383v-1Z" fill="#676C8F"/><path d="m45.557 751.465-22.608 39.289.867.499 22.895-39.788-22.895-39.788-.866.498 22.607 39.29ZM.198 672.138l22.751-39.539.867.499-22.75 39.539-.868-.499Z" fill="#676C8F"/><path d="M23.383 632.349h45.502v1H23.383v-1ZM46.567 672.637l-22.75 39.538-.867-.498 22.75-39.539.867.499Z" fill="#676C8F"/><path d="m23.816 632.599 22.751 39.539-.867.499-22.75-39.539.866-.499Z" fill="#676C8F"/><path d="M46.133 672.887v-1h44.712l-22.394-38.789.866-.5 23.26 40.289H46.133Z" fill="#676C8F"/><path d="m92.144 593.636-22.827 39.463-.865-.501 22.826-39.463.866.501ZM23.383 553.347h45.502v1H23.383v-1ZM46.567 593.635l-22.751 39.463-.866-.499 22.75-39.463.867.499Z" fill="#676C8F"/><path d="m23.816 553.598 22.751 39.539-.867.498-22.75-39.539.866-.498Z" fill="#676C8F"/><path d="M91.711 593.886H46.133v-1h45.578v1ZM22.95 554.096.197 514.558l.867-.499 22.751 39.539-.867.498ZM68.596 475.269H23.383v-1h45.79l22.971 39.789-.866.5-22.682-39.289Z" fill="#676C8F"/><path d="m46.567 514.558-22.75 39.538-.867-.498 22.75-39.539.867.499Z" fill="#676C8F"/><path d="m23.816 474.52 22.751 39.539-.867.499-22.75-39.539.866-.499Z" fill="#676C8F"/><path d="M91.711 514.808H46.133v-1h45.578v1ZM.632 672.887H-44.87v-1H.632v1ZM-44.87 592.886H.632v1H-44.87v-1Z" fill="#676C8F"/><path d="m1.065 593.136 22.751 39.463-.866.499L.199 593.635l.866-.499Z" fill="#676C8F"/><path d="M23.383 633.349H-22.12v-1h45.502v1ZM23.383 396.192H-22.12v-1h45.502v1Z" fill="#676C8F"/><path d="M22.95 395.941.197 356.402l.867-.498 22.751 39.538-.867.499ZM136.636 197.998l22.895-39.788.866.499-22.607 39.289 22.607 39.289-.866.499-22.895-39.788ZM.055 118.92l22.894-39.788.867.5L1.21 118.92l22.463 39.039h45.212v1h-45.79L.053 118.92ZM68.307 316.614l22.971-39.788.866.5-22.682 39.288 22.682 39.289-.866.5-22.97-39.789Z" fill="#676C8F"/></g><defs><clipPath id="clip0_520_12209"><path fill="#fff" transform="rotate(-90 421 489)" d="M0 0h910v365H0z"/></clipPath></defs></svg>