<svg width="65" height="64" fill="none" xmlns="http://www.w3.org/2000/svg"><g clip-path="url('#clip0_1675_9643')" fill="#42C79C"><path d="M50.05 24.318c0-2.401-1.4-4.892-3.333-6.144.308-1.759-.206-3.47-1.458-4.728a5.8 5.8 0 0 0-4.514-1.68 4.296 4.296 0 0 0-1.003-1.837C38.419 8.483 36.084 7.75 32.8 7.75c-2.52 0-4.95.533-7.225 1.583a1.25 1.25 0 0 0 1.049 2.27 14.58 14.58 0 0 1 4.926-1.3V47.75h-3.574c-.513-4.565-3.693-9.149-6.528-13.231-.273-.394-.544-.783-.808-1.168a14.666 14.666 0 0 1-2.59-8.35c0-2.156.455-4.234 1.352-6.177a1.25 1.25 0 1 0-2.27-1.048A17.105 17.105 0 0 0 15.552 25c0 3.51 1.048 6.887 3.03 9.768.267.388.54.78.814 1.176 2.656 3.824 5.636 8.119 6.093 12.046a2.5 2.5 0 0 0-1.437 2.26V54a2.5 2.5 0 0 0 1.25 2.162v4.088A3.754 3.754 0 0 0 29.05 64h7.5a3.754 3.754 0 0 0 3.75-3.75v-4.088A2.5 2.5 0 0 0 41.55 54v-3.75c0-1-.592-1.862-1.442-2.262.162-1.466.674-3.038 1.577-4.85.097-.04.194-.085.29-.133 1.673-.841 3.057-2.795 2.772-5.424a5.536 5.536 0 0 0 3.479-3.958c.319-1.42.07-2.882-.685-4.17 1.593-1.228 2.509-3.064 2.509-5.135Zm-11 25.932V54h-12.5v-3.75h12.5Zm-2.5 11.25h-7.5c-.688 0-1.25-.56-1.25-1.25V56.5h10v3.75c0 .69-.56 1.25-1.25 1.25Zm8.64-33.522a1.25 1.25 0 0 0-.374 1.982c.857.915 1.21 2.05.972 3.115-.22.981-.9 1.763-1.866 2.145-.763.302-1.942.495-2.728.279-1.253-.336-1.422-.794-1.76-1.705-.284-.771-.674-1.827-1.846-2.635a1.25 1.25 0 1 0-1.42 2.058c.498.343.659.73.922 1.443.403 1.09.955 2.583 3.449 3.251.46.127.947.18 1.434.18.104 0 .207-.003.31-.008.075 1.394-.635 2.289-1.43 2.688-.744.374-1.902.443-2.714-.593a1.25 1.25 0 0 0-1.968 1.543c.701.893 1.627 1.47 2.634 1.699-.65 1.54-1.039 2.96-1.185 4.33h-3.57V27.303c3.947-.067 5.023-2.037 5.811-3.484.396-.725.661-1.183 1.127-1.446a1.25 1.25 0 0 0-1.23-2.176c-1.112.628-1.633 1.584-2.092 2.427-.672 1.233-1.163 2.133-3.615 2.18V10.296c1.838.14 3.183.595 3.846 1.32.246.269.397.576.459.928-1.235.796-1.764 1.823-2.137 2.833a1.25 1.25 0 0 0 2.344.868c.274-.74.564-1.346 1.534-1.817 1.167-.4 2.523-.09 3.39.782.48.481 1.195 1.535.592 3.181a1.25 1.25 0 0 0 .728 1.598c1.462.558 2.744 2.58 2.744 4.329 0 1.585-.883 2.954-2.36 3.66ZM32.8 5.25c.691 0 1.25-.56 1.25-1.25V1.25a1.25 1.25 0 0 0-2.5 0V4c0 .69.56 1.25 1.25 1.25ZM21.219 7.439a1.25 1.25 0 1 0 2.165-1.25l-1.375-2.382a1.25 1.25 0 1 0-2.166 1.25l1.376 2.382ZM11.606 14.208l2.381 1.375a1.25 1.25 0 1 0 1.25-2.165l-2.381-1.375a1.25 1.25 0 1 0-1.25 2.165ZM13.05 25c0-.69-.559-1.25-1.25-1.25H9.05a1.25 1.25 0 1 0 0 2.5h2.75c.691 0 1.25-.56 1.25-1.25ZM13.987 34.418l-2.381 1.375a1.25 1.25 0 1 0 1.25 2.165l2.381-1.375a1.25 1.25 0 1 0-1.25-2.165ZM42.676 7.896a1.25 1.25 0 0 0 1.707-.458l1.376-2.38a1.25 1.25 0 1 0-2.165-1.251l-1.376 2.382a1.25 1.25 0 0 0 .458 1.707ZM50.99 15.75c.212 0 .427-.054.623-.167l2.382-1.375a1.25 1.25 0 1 0-1.25-2.165l-2.381 1.375a1.25 1.25 0 0 0 .626 2.333ZM56.55 23.75H53.8a1.25 1.25 0 0 0 0 2.5h2.75a1.25 1.25 0 0 0 0-2.5ZM53.995 35.793l-2.381-1.375a1.25 1.25 0 0 0-1.25 2.165l2.381 1.375a1.25 1.25 0 1 0 1.25-2.165Z"/><path d="M21.488 12.437a1.25 1.25 0 1 0-.002 2.499 1.25 1.25 0 0 0 .003-2.5h-.001Z"/></g><defs><clipPath id="clip0_1675_9643"><path fill="#fff" transform="translate(.8)" d="M0 0h64v64H0z"/></clipPath></defs></svg>