<svg width="64" height="64" fill="none" xmlns="http://www.w3.org/2000/svg"><g clip-path="url('#clip0_1675_9610')" fill="#FF4A35"><path d="m35.028 30.796 1.185.53a1.25 1.25 0 0 0 1.022-2.282l-1.185-.53a1.25 1.25 0 1 0-1.022 2.282ZM27.278 31.436c.171 0 .345-.035.51-.11l1.185-.53a1.25 1.25 0 1 0-1.022-2.281l-1.184.53a1.25 1.25 0 0 0 .511 2.391Z"/><path d="M60.9 48.425a1.25 1.25 0 1 0-2.168 1.243l2.033 3.546c.78 1.36.948 2.93.475 4.423a5.472 5.472 0 0 1-2.936 3.343c-1.42.662-3 .697-4.447.1a5.473 5.473 0 0 1-3.084-3.207L42.578 35.56l6.362-2.967 4.196 7.316a1.25 1.25 0 1 0 2.168-1.243l-4.767-8.313a1.25 1.25 0 0 0-1.264-.615l.419-4.782a7.273 7.273 0 0 0-2.217-5.906l-.769-.738C45.166 11.485 39.04 6.567 32 6.567c-7.03 0-13.167 4.922-14.706 11.745l-.768.738a7.274 7.274 0 0 0-2.217 5.906l.418 4.782a1.25 1.25 0 0 0-1.264.615L1.067 51.971a8.052 8.052 0 0 0-.69 6.422 8.053 8.053 0 0 0 4.263 4.852c1.072.5 2.233.751 3.395.751h.003l-.003.003h47.93l-.002-.003h.002c1.162 0 2.324-.25 3.396-.75a8.053 8.053 0 0 0 4.262-4.854 8.052 8.052 0 0 0-.69-6.421L60.9 48.425ZM50.148 61.499H13.852a8.031 8.031 0 0 0 1.721-2.764l3.76-10.236 3.65-.57a5.713 5.713 0 0 0 1.21-.327A11.419 11.419 0 0 0 32 50.698a11.42 11.42 0 0 0 7.808-3.096c.382.15.786.262 1.208.328l3.651.57 3.76 10.235a8.035 8.035 0 0 0 1.721 2.764ZM23.711 28.783l-.23-2.615 1.486-3.945c.117-.311.195-.633.237-.959a12.556 12.556 0 0 1 3.133-1.437 23.536 23.536 0 0 0 11.81 5.353l.372.988-.23 2.615a12.25 12.25 0 0 0 .55 4.83l-.359.167a1.25 1.25 0 0 0-.645 1.564l.696 1.895a10.36 10.36 0 0 1-8.53 4.44 10.36 10.36 0 0 1-8.532-4.44l.697-1.895a1.25 1.25 0 0 0-.645-1.564l-.36-.168c.502-1.552.692-3.2.55-4.829Zm15.053 13.492a12.849 12.849 0 0 0 2.773-2.298l2.144 5.838-2.28-.355a3.123 3.123 0 0 1-1.211-.462l-.005-.003c-.861-.557-1.42-1.63-1.42-2.72Zm-11.13 1.152c1.377.492 2.85.753 4.366.753 1.517 0 2.989-.261 4.366-.753a5.573 5.573 0 0 0 1.329 2.706A8.912 8.912 0 0 1 32 48.198a8.913 8.913 0 0 1-5.695-2.065 5.573 5.573 0 0 0 1.33-2.706Zm-2.398-1.151c0 1.543-1.113 2.945-2.638 3.183l-2.279.356 2.144-5.838c.82.9 1.753 1.672 2.773 2.299ZM47.2 24.738l-.539 6.159-3.536 1.649a9.74 9.74 0 0 1-.346-3.545l.254-2.899a1.246 1.246 0 0 0-.076-.549l-1.585-4.21a1.784 1.784 0 0 1 .064-1.402c.25-.517.72-.872 1.285-.974a1.755 1.755 0 0 1 1.544.468l1.477 1.418a4.784 4.784 0 0 1 1.458 3.885Zm-15.2-15.671c5.007 0 9.459 2.983 11.459 7.392a4.328 4.328 0 0 0-1.178.047 4.233 4.233 0 0 0-3.095 2.345 4.295 4.295 0 0 0-.154 3.372l.087.23a21.077 21.077 0 0 1-9.631-4.938 1.25 1.25 0 0 0-1.134-.284 15.045 15.045 0 0 0-3.645 1.421 4.229 4.229 0 0 0-2.992-2.146 4.331 4.331 0 0 0-1.177-.047C22.54 12.052 27 9.067 32 9.067ZM18.257 20.853l1.476-1.418a1.76 1.76 0 0 1 1.544-.468 1.759 1.759 0 0 1 1.285.974c.212.437.235.947.064 1.4l-1.585 4.212a1.252 1.252 0 0 0-.076.55L21.22 29a9.74 9.74 0 0 1-.346 3.545l-3.536-1.65-.54-6.158a4.786 4.786 0 0 1 1.46-3.885ZM5.696 60.98a5.472 5.472 0 0 1-2.935-3.343 5.473 5.473 0 0 1 .474-4.423l11.825-20.62 6.363 2.966-8.196 22.313a5.472 5.472 0 0 1-3.083 3.207 5.472 5.472 0 0 1-4.448-.1Z"/><path d="M29.124 36.788a1.25 1.25 0 0 0 1.768 0 1.554 1.554 0 0 1 1.106-.458c.418 0 .81.163 1.106.458a1.246 1.246 0 0 0 1.768 0 1.25 1.25 0 0 0 0-1.768 4.038 4.038 0 0 0-2.874-1.19 4.038 4.038 0 0 0-2.874 1.19 1.25 1.25 0 0 0 0 1.768ZM55.922 17.288l2.024 1.17-4.537 2.582a1.25 1.25 0 1 0 1.237 2.173l6.431-3.662a1.25 1.25 0 0 0 .007-2.169l-1.854-1.07 4.057-1.932a1.25 1.25 0 0 0-1.075-2.257l-6.203 2.954a1.25 1.25 0 0 0-.087 2.211ZM48.456 13.712a1.248 1.248 0 0 0 1.756-.2L54.82 7.72a1.25 1.25 0 0 0-.8-2.015l-2.12-.304 3.047-3.303A1.25 1.25 0 0 0 53.108.404l-4.658 5.05a1.25 1.25 0 0 0 .742 2.085l2.314.331-3.25 4.086a1.25 1.25 0 0 0 .2 1.756ZM.713 14.38l4.056 1.932-1.853 1.07a1.25 1.25 0 0 0 .006 2.169l6.431 3.662a1.25 1.25 0 1 0 1.237-2.173l-4.536-2.583 2.024-1.169a1.25 1.25 0 0 0-.088-2.21l-6.202-2.955A1.25 1.25 0 1 0 .713 14.38ZM12.1 5.401l-2.119.304a1.25 1.25 0 0 0-.8 2.015l4.606 5.792a1.248 1.248 0 0 0 1.756.2c.54-.43.63-1.216.2-1.756l-3.25-4.086 2.315-.331a1.25 1.25 0 0 0 .741-2.085L10.892.404a1.25 1.25 0 1 0-1.838 1.694L12.1 5.401ZM57.031 45.409a1.25 1.25 0 1 0 0-2.5 1.25 1.25 0 0 0 0 2.5Z"/></g><defs><clipPath id="clip0_1675_9610"><path fill="#fff" d="M0 0h64v64H0z"/></clipPath></defs></svg>