<svg width="65" height="64" fill="none" xmlns="http://www.w3.org/2000/svg"><path d="M49.969 33.167c-1.476 0-2.87-.65-3.834-1.789a5.153 5.153 0 0 1-1.21-3.727h-7.96c-.69 0-1.25-.56-1.25-1.25v-8.43a1.25 1.25 0 0 1 1.475-1.23l.075.014a2.561 2.561 0 0 0 2.107-.554c.587-.49.924-1.209.924-1.973 0-.765-.336-1.484-.924-1.973a2.563 2.563 0 0 0-2.107-.554l-.075.014a1.25 1.25 0 0 1-1.475-1.23V1.25c0-.69.56-1.25 1.25-1.25h20.737a5.67 5.67 0 0 1 5.664 5.664v20.737c0 .69-.56 1.25-1.25 1.25h-7.1a5.059 5.059 0 0 1-1.132 3.664 5.058 5.058 0 0 1-3.915 1.852Zm-11.754-8.016h8.18a1.25 1.25 0 0 1 1.23 1.475l-.17.93c-.145.79.07 1.594.589 2.207.502.594 1.2.914 1.962.904a2.563 2.563 0 0 0 1.946-.938c.48-.585.678-1.348.542-2.093l-.185-1.01a1.25 1.25 0 0 1 1.23-1.475h7.327V5.664A3.168 3.168 0 0 0 57.702 2.5H38.215v6.681a5.055 5.055 0 0 1 2.758 1.153 5.055 5.055 0 0 1 1.823 3.894 5.056 5.056 0 0 1-1.823 3.893 5.056 5.056 0 0 1-2.758 1.154v5.876Z" fill="#FFA336"/><path d="M52.981 43.375c.69 0 1.25-.56 1.25-1.25v-4.526c0-.69-.56-1.25-1.25-1.25h-8.577a1.25 1.25 0 0 0-1.23 1.475l.185 1.01a2.563 2.563 0 0 1-.541 2.093c-.481.586-1.19.928-1.946.939a2.495 2.495 0 0 1-1.963-.904 2.662 2.662 0 0 1-.59-2.206l.171-.932a1.25 1.25 0 0 0-1.23-1.475h-8.18v-5.876a5.056 5.056 0 0 0 2.759-1.153 5.056 5.056 0 0 0 1.823-3.894 5.055 5.055 0 0 0-1.824-3.893 5.056 5.056 0 0 0-2.758-1.153v-7.931c0-.69-.56-1.25-1.25-1.25H7.094a5.67 5.67 0 0 0-5.664 5.664v41.473A5.67 5.67 0 0 0 7.094 64h41.473a5.67 5.67 0 0 0 5.664-5.664v-3.628a1.25 1.25 0 0 0-2.5 0v3.628a3.168 3.168 0 0 1-3.164 3.164H29.08v-8.063a1.25 1.25 0 0 0-1.474-1.23l-.076.014a2.562 2.562 0 0 1-2.107-.553 2.562 2.562 0 0 1-.924-1.974c0-.764.337-1.484.924-1.973a2.561 2.561 0 0 1 2.108-.554l.075.014a1.252 1.252 0 0 0 1.474-1.23V38.85h6.71A5.152 5.152 0 0 0 37 42.576a5.012 5.012 0 0 0 3.908 1.79 5.058 5.058 0 0 0 3.842-1.852 5.058 5.058 0 0 0 1.132-3.665h5.85v3.276c0 .69.559 1.25 1.25 1.25ZM3.93 16.863a3.168 3.168 0 0 1 3.164-3.165H26.58v7.986a1.25 1.25 0 0 0 1.475 1.23l.075-.014a2.563 2.563 0 0 1 2.108.553c.587.49.924 1.209.924 1.973 0 .765-.337 1.484-.924 1.974a2.562 2.562 0 0 1-2.107.554l-.076-.014a1.25 1.25 0 0 0-1.475 1.23v7.18h-5.363a5.058 5.058 0 0 0-4.87-3.647 5.058 5.058 0 0 0-4.87 3.646H3.93V16.863ZM23.822 45.8A5.056 5.056 0 0 0 22 49.695c0 1.508.665 2.928 1.823 3.894a5.055 5.055 0 0 0 2.758 1.152V61.5H7.094a3.168 3.168 0 0 1-3.164-3.164V38.849h8.6c.67 0 1.22-.527 1.25-1.195a2.56 2.56 0 0 1 2.567-2.45 2.56 2.56 0 0 1 2.568 2.45 1.25 1.25 0 0 0 1.249 1.195h6.417v5.799a5.056 5.056 0 0 0-2.759 1.153Z" fill="#FFA336"/><path d="M52.982 49.601a1.26 1.26 0 0 1-1.176-.829 1.26 1.26 0 0 1 .367-1.373 1.263 1.263 0 0 1 1.469-.108c.438.27.667.8.566 1.305a1.263 1.263 0 0 1-1.226 1.005Z" fill="#FFA336"/></svg>