<svg width="65" height="64" fill="none" xmlns="http://www.w3.org/2000/svg"><g clip-path="url('#clip0_1675_9678')" fill="#FFD530"><path d="M6.537 41.413a4.369 4.369 0 0 0-.957 6.082 4.377 4.377 0 0 0 3.537 1.804c.923 0 1.807-.287 2.556-.83l.03-.022 10.194-7.867a4.347 4.347 0 0 0 1.136-1.228l6.407-9.495 2.239 1.577a.499.499 0 0 1-.05.644l-6.489 6.49a4.335 4.335 0 0 0-1.278 3.086c0 1.165.454 2.26 1.278 3.085a4.334 4.334 0 0 0 3.085 1.278 4.335 4.335 0 0 0 3.086-1.278l6.813-6.812a9.162 9.162 0 0 0 2.697-6.522 9.154 9.154 0 0 0-2.238-6.024l7.054-7.055c.346-.345.651-.723.916-1.128l.128.002c1.993 0 3.983-.361 5.852-1.079 2.599-.998 4.92-2.663 6.711-4.815l3.602-4.327c.67-.805.986-1.822.891-2.864a3.893 3.893 0 0 0-1.395-2.655 3.923 3.923 0 0 0-5.52.504L54.14 5.188a5.477 5.477 0 0 0-1.603-3.705 5.504 5.504 0 0 0-7.776 0l-.893.893a5.464 5.464 0 0 0-1.604 4.133 7.056 7.056 0 0 0-1.47-.18 1.224 1.224 0 0 0-.128-.007h-5.97c-4.3 0-8.63.966-12.521 2.794a39.566 39.566 0 0 1-16.717 3.73c-.032 0-.065.003-.097 0a1.25 1.25 0 0 0-1.24 1.42l.431 3.146a21.34 21.34 0 0 0 11.72 16.299l-.217.335-9.517 7.367Zm14.409-3.437a1.04 1.04 0 0 0-.033.05 1.86 1.86 0 0 1-.499.541l-.03.023-10.19 7.864a1.847 1.847 0 0 1-1.078.345 1.865 1.865 0 0 1-1.063-3.397l9.7-7.51c.111-.086.207-.19.284-.309l6.476-10.002c.44.832 1.07 1.56 1.861 2.116l1.022.72-6.45 9.56Zm15.41-1.818-6.813 6.813c-.352.352-.82.546-1.317.546-.498 0-.966-.194-1.318-.546a1.853 1.853 0 0 1-.546-1.318c0-.497.194-.966.546-1.317l6.49-6.49a2.976 2.976 0 0 0 .876-2.119c0-.8-.311-1.553-.877-2.118a1.266 1.266 0 0 0-.164-.138l-5.42-3.819a3.53 3.53 0 0 1-1.487-2.588 3.53 3.53 0 0 1 1.024-2.804l1.302-1.303 7.293 7.293c.03.029.06.055.09.08l.32.321a6.677 6.677 0 0 1 1.966 4.753 6.676 6.676 0 0 1-1.965 4.754Zm.478-12.565-5.523-5.523a1.288 1.288 0 0 0-.09-.081l-.801-.8 7.04-7.04a4.535 4.535 0 0 1 4.385-1.169c-.233.072-.46.166-.68.282a3.892 3.892 0 0 0-1.915 2.309c-.309 1-.21 2.06.279 2.986a3.892 3.892 0 0 0 2.308 1.914c.559.173 1.125.313 1.695.424l-6.698 6.698ZM55.142 7.891l3.602-4.327a1.42 1.42 0 0 1 2.181 1.815l-3.603 4.327a13.906 13.906 0 0 1-5.686 4.081 13.92 13.92 0 0 1-9.06.295 1.409 1.409 0 0 1-.836-.693 1.408 1.408 0 0 1-.101-1.08 1.41 1.41 0 0 1 .693-.837 1.41 1.41 0 0 1 1.08-.1c.676.208 1.36.349 2.044.425.11.026.223.038.337.033a10.995 10.995 0 0 0 3.252-.221c.025-.006.05-.011.074-.018a11.012 11.012 0 0 0 6.023-3.7ZM44.757 6.263c0-.801.312-1.554.878-2.12l.893-.893a2.988 2.988 0 0 1 2.12-.876c.768 0 1.535.292 2.12.876.566.566.878 1.32.878 2.12 0 .801-.312 1.554-.878 2.12l-.893.893a2.98 2.98 0 0 1-1.484.807l-.112.022a2.996 2.996 0 0 1-2.614-.802l-.028-.03-.04-.037a2.979 2.979 0 0 1-.84-2.08ZM7.028 17.073l-.24-1.749a42.102 42.102 0 0 0 16.449-3.945A27.126 27.126 0 0 1 34.695 8.82h.556l-7.482 7.483-.006.006-2.181 2.182a6.026 6.026 0 0 0-1.719 3.492l-6.223 9.612A18.852 18.852 0 0 1 7.028 17.073ZM14.893 48.813 5.308 58.4a1.25 1.25 0 0 0 1.767 1.768l9.586-9.586a1.25 1.25 0 1 0-1.768-1.768ZM2.852 61.375c-.329 0-.651.133-.884.366a1.258 1.258 0 0 0-.366.884c0 .329.133.651.366.884.233.232.555.366.884.366.329 0 .65-.134.884-.366a1.26 1.26 0 0 0 .366-.884 1.26 1.26 0 0 0-.366-.884 1.26 1.26 0 0 0-.884-.366ZM25.467 48.813a1.25 1.25 0 0 0-1.767 0l-6.209 6.209a1.25 1.25 0 0 0 1.768 1.768l6.208-6.209a1.25 1.25 0 0 0 0-1.768ZM62.225 27.013l-11.263 2.59a1.25 1.25 0 0 0-.604 2.101l.848.848-29.18 29.18a1.25 1.25 0 0 0 1.768 1.768l30.064-30.064a1.25 1.25 0 0 0 0-1.768l-.136-.135 7.118-1.636-1.636 7.117-.135-.135a1.25 1.25 0 0 0-1.768 0L35.686 58.495a1.25 1.25 0 1 0 1.768 1.767l20.73-20.731.849.848a1.249 1.249 0 0 0 2.102-.604l2.589-11.264a1.25 1.25 0 0 0-1.499-1.498Z"/><path d="M33.332 61.366c-.33 0-.651.133-.885.365a1.262 1.262 0 0 0-.365.885c0 .329.132.65.365.884.234.232.556.366.885.366.329 0 .65-.134.884-.366.232-.234.366-.555.366-.884 0-.33-.134-.651-.366-.885a1.258 1.258 0 0 0-.884-.365Z"/></g><defs><clipPath id="clip0_1675_9678"><path fill="#fff" transform="translate(.602)" d="M0 0h64v64H0z"/></clipPath></defs></svg>