<svg width="65" height="64" fill="none" xmlns="http://www.w3.org/2000/svg"><path d="M55.949 41.5h-13.75v-6.25a3.754 3.754 0 0 0-3.75-3.75h-12.5a3.754 3.754 0 0 0-3.75 3.75v1.25H8.45a3.754 3.754 0 0 0-3.75 3.75v22.5c0 .69.56 1.25 1.25 1.25h52.5c.69 0 1.25-.56 1.25-1.25v-17.5a3.754 3.754 0 0 0-3.75-3.75Zm-16.25 20h-15v-3.126a1.25 1.25 0 0 0-2.5 0V61.5h-15V40.25c0-.69.56-1.25 1.25-1.25H22.2v8.125a1.25 1.25 0 1 0 2.5 0V35.25c0-.69.56-1.25 1.25-1.25h12.5c.69 0 1.25.56 1.25 1.25V61.5Zm17.5 0h-15V44h13.75c.69 0 1.25.56 1.25 1.25V61.5Z" fill="#0F90D1"/><path d="M52.827 50.25a3.749 3.749 0 0 0-3.738-3.75 3.73 3.73 0 0 0-2.84 1.312 1.25 1.25 0 0 0 1.9 1.623c.237-.276.58-.435.94-.435.683 0 1.238.56 1.238 1.25 0 .34-.133.657-.374.895a1.25 1.25 0 0 0 .174 1.924c.515.35.822.932.822 1.556a1.87 1.87 0 0 1-1.86 1.875c-.412 0-.801-.133-1.127-.383a1.25 1.25 0 0 0-1.525 1.981c.767.59 1.684.902 2.652.902 2.404 0 4.36-1.962 4.36-4.375a4.38 4.38 0 0 0-.981-2.765c.235-.497.36-1.043.36-1.61ZM17.199 51.5h-3.012c.275-.253.62-.524 1.023-.835 1.43-1.103 3.208-2.475 3.239-5.061.022-1.9-1.193-3.54-2.954-3.989-1.684-.429-3.326.338-4.183 1.953a1.25 1.25 0 0 0 2.209 1.172c.426-.803 1.032-.784 1.356-.702.541.138 1.082.667 1.072 1.537-.015 1.282-.866 2.03-2.266 3.111-1.281.989-2.734 2.11-2.734 4.064 0 .69.56 1.25 1.25 1.25h5a1.25 1.25 0 1 0 0-2.5ZM33.584 46.5h-.135v-8.75a1.25 1.25 0 0 0-1.875-1.082l-1.386.8a1.25 1.25 0 0 0 .76 2.325V46.5h-.135a1.25 1.25 0 1 0 0 2.5h2.771a1.25 1.25 0 0 0 0-2.5ZM23.781 18.389l-.626 4.777a3.243 3.243 0 0 0 4.6 3.515l4.394-2.14 4.514 2.152a3.225 3.225 0 0 0 1.837.28 3.214 3.214 0 0 0 2.137-1.252c.522-.689.744-1.54.625-2.398l-.677-4.845 3.336-3.518a3.21 3.21 0 0 0 .948-1.781 3.218 3.218 0 0 0-.54-2.42 3.216 3.216 0 0 0-2.09-1.327l-4.815-.853-2.387-4.391a3.224 3.224 0 0 0-1.319-1.307 3.212 3.212 0 0 0-2.462-.24 3.212 3.212 0 0 0-1.911 1.571l-2.3 4.316-4.836.899a3.215 3.215 0 0 0-1.736.864 3.214 3.214 0 0 0-.992 2.268 3.215 3.215 0 0 0 .904 2.307l3.396 3.523Zm-1.575-6.296a.728.728 0 0 1 .44-.205l5.448-1.012a1.25 1.25 0 0 0 .875-.641l2.582-4.847A.728.728 0 0 1 32.198 5a.729.729 0 0 1 .643.382l2.674 4.92c.182.334.506.567.88.633l5.411.959a.734.734 0 0 1 .478.303.734.734 0 0 1-.1.964 1.316 1.316 0 0 0-.054.054l-3.773 3.98a1.25 1.25 0 0 0-.33 1.033l.76 5.44a.73.73 0 0 1-.143.544.73.73 0 0 1-.486.285.735.735 0 0 1-.418-.061l-5.06-2.41a1.25 1.25 0 0 0-1.084.004l-4.935 2.403a.74.74 0 0 1-1.048-.812l.015-.09.71-5.415a1.25 1.25 0 0 0-.339-1.03l-3.813-3.954a.731.731 0 0 1 .02-1.04ZM12.637 2.333 17.57 5.18a1.25 1.25 0 1 0 1.25-2.165L13.887.168a1.25 1.25 0 1 0-1.25 2.165ZM9.03 17.318c.06 0 .12-.004.181-.013l5.639-.82a1.25 1.25 0 0 0-.36-2.474l-5.639.82a1.25 1.25 0 0 0 .179 2.487ZM17.617 24.924l-4.028 4.03a1.25 1.25 0 0 0 1.768 1.767l4.028-4.029a1.25 1.25 0 0 0-1.768-1.768ZM46.205 5.35c.212 0 .427-.055.623-.168l4.935-2.85a1.25 1.25 0 1 0-1.25-2.164l-4.935 2.849a1.25 1.25 0 0 0 .627 2.332ZM48.494 15.068a1.25 1.25 0 0 0 1.057 1.417l5.638.82a1.25 1.25 0 0 0 .36-2.474l-5.638-.82a1.25 1.25 0 0 0-1.417 1.057ZM45.01 24.924a1.25 1.25 0 0 0 0 1.768l4.03 4.03a1.246 1.246 0 0 0 1.767 0 1.25 1.25 0 0 0 0-1.769l-4.029-4.029a1.25 1.25 0 0 0-1.767 0ZM23.45 51.5a1.25 1.25 0 1 0 1.25 1.25c0-.691-.56-1.25-1.25-1.25Z" fill="#0F90D1"/></svg>