<svg width="65" height="64" fill="none" xmlns="http://www.w3.org/2000/svg"><mask id="mask0_1675_10454" style="mask-type:luminance" maskUnits="userSpaceOnUse" x="0" y="0" width="65" height="64"><path d="M.332 0h64v64h-64V0Z" fill="#fff"/></mask><g mask="url('#mask0_1675_10454')" fill="#42C79C"><path d="M28.586 51.448a1.25 1.25 0 1 1-.001 2.5 1.25 1.25 0 0 1 0-2.5Z"/><path fill-rule="evenodd" clip-rule="evenodd" d="M46.088 58.948c.69 0 1.25-.56 1.25-1.25v-.348c0-3.089.001-6.411-.528-9.545-.552-3.273-1.697-6.446-4.103-9.042m0 0-6.223-6.717 6.349-6.947a14.635 14.635 0 0 0 2.594-4.02M34.83 32.103c10.566 26.846 10.007 26.286 10.007 25.596Zm10.007 25.596v-.266.266Zm0-.266c0-3.153 0-6.288-.493-9.21l.493 9.21Zm-.493-9.21c-.504-2.985-1.508-5.64-3.472-7.76l3.472 7.76Zm-3.472-7.76Zm0 0-6.959-7.511 6.96 7.511Zm-6.959-7.511Zm0 0-.047-.05.047.05Zm-.004-1.794-.042.045a1.25 1.25 0 0 0 0 1.698m.042-1.743.006-.006-.006.006Zm.006-.006 7.071-7.739a12.132 12.132 0 0 0 2.151-3.339c1.702-3.868 1.7-8.586 1.7-13.398V6.3a1.25 1.25 0 1 1 2.5 0v.596c.004 4.628.008 9.822-1.911 14.185M18.48 58.846c.691 0 1.25-.56 1.25-1.25v-.463c0-3.06-.002-6.097.463-8.938.484-2.963 1.46-5.601 3.388-7.712m0 0 7.067-7.733.002-.002.054-.059a1.25 1.25 0 0 0-.004-1.695l-7.006-7.56c-1.341-1.448-2.233-3.142-2.823-5.018-1.14-3.617-1.14-7.787-1.14-12.005v-.214a1.25 1.25 0 0 0-2.5 0V6.594c-.001 4.08-.002 8.583 1.255 12.573.68 2.159 1.736 4.197 3.374 5.966l6.224 6.716-6.349 6.948c-2.366 2.59-3.479 5.747-4.01 8.995-.498 3.048-.496 6.275-.494 9.28v.524c0 .69.56 1.25 1.25 1.25"/><path fill-rule="evenodd" clip-rule="evenodd" d="M46.6 58.888a1.25 1.25 0 0 0 .585-1.728l-.006-.012c-2.475-4.926-6-8.146-8.934-10.153a27.97 27.97 0 0 0-3.78-2.177 25.469 25.469 0 0 0-1.443-.632 9.401 9.401 0 0 1-.128-.053 1.25 1.25 0 0 0-1.226.058c-.136.086-.4.208-.765.378-2.413 1.123-9.29 4.323-13.439 12.622A1.25 1.25 0 0 0 19.7 58.31c3.677-7.354 9.478-10.133 12.155-11.416.198-.095.379-.182.54-.261.255.106.593.252.997.444.887.421 2.097 1.063 3.44 1.982 2.682 1.835 5.875 4.757 8.113 9.213l1.117-.56-1.08.54m-.027.04-.001-.003-.003-.005-.006-.012m1.655.617a1.25 1.25 0 0 1-1.645-.597l1.645.597Zm-13.72-14.76h.002c-.017-.008-.02-.008-.002 0Z"/><path fill-rule="evenodd" clip-rule="evenodd" d="M32.332 52.75c0 .69.56 1.25 1.25 1.25h2.5a1.25 1.25 0 1 0 0-2.5h-2.5c-.69 0-1.25.56-1.25 1.25ZM33.335 40.246l-1.003-.746-1.003.746a1.25 1.25 0 0 0 2.006 0Zm2.746-8.118c-.026 2.28-.718 4.304-1.38 5.734a16.355 16.355 0 0 1-.921 1.716 12.433 12.433 0 0 1-.431.65l-.01.011-.002.005-.002.002-1.003-.746-1.003.746-.002-.002-.003-.005-.009-.012a4.773 4.773 0 0 1-.122-.173 12.6 12.6 0 0 1-.315-.486 16.393 16.393 0 0 1-.931-1.742c-.67-1.454-1.365-3.513-1.365-5.826a1.25 1.25 0 0 1 2.5 0c0 1.83.555 3.52 1.135 4.78l.115.243.1-.212c.576-1.242 1.131-2.911 1.149-4.722v-.034l.001-.055a1.25 1.25 0 0 1 2.5 0v.005l-.001.123ZM43.74 19.45a10.437 10.437 0 0 1-10.67-.96 12.942 12.942 0 0 0-14.006-.785l-.021.012a.124.124 0 0 1-.006.003l-.002.001-.053.031a1.25 1.25 0 0 0 1.282 2.147l.006-.004h.001l.037-.022a10.442 10.442 0 0 1 11.29.638l.736-1.01-.735 1.01a12.937 12.937 0 0 0 13.305 1.155 1.25 1.25 0 1 0-1.118-2.236h-.001l-.002.001a1.572 1.572 0 0 0-.042.02ZM13.582 30.75c.69 0 1.25-.56 1.25-1.25V6.199a1.25 1.25 0 1 0-2.5 0V29.5c0 .69.56 1.25 1.25 1.25ZM13.582 58.946c.69 0 1.25-.56 1.25-1.25V34.5a1.25 1.25 0 0 0-2.5 0v23.196c0 .69.56 1.25 1.25 1.25Z"/><path fill-rule="evenodd" clip-rule="evenodd" d="M9.832 32a3.75 3.75 0 1 0 7.5 0 3.75 3.75 0 1 0-7.5 0Zm3.75 1.25a1.25 1.25 0 1 1-.001-2.499 1.25 1.25 0 0 1 .001 2.499ZM51.082 30.75c.69 0 1.25-.56 1.25-1.25V6.199a1.25 1.25 0 1 0-2.5 0V29.5c0 .69.56 1.25 1.25 1.25ZM51.082 58.946c.69 0 1.25-.56 1.25-1.25V34.5a1.25 1.25 0 0 0-2.5 0v23.196c0 .69.56 1.25 1.25 1.25Z"/><path fill-rule="evenodd" clip-rule="evenodd" d="M47.332 32a3.75 3.75 0 1 0 7.5 0 3.75 3.75 0 1 0-7.5 0Zm3.75 1.25a1.25 1.25 0 1 1-.001-2.499 1.25 1.25 0 0 1 .001 2.499ZM9.832 62.75c0 .69.56 1.25 1.25 1.25h42.5c.69 0 1.25-.56 1.25-1.25v-2.5a3.75 3.75 0 0 0-3.75-3.75h-37.5a3.75 3.75 0 0 0-3.75 3.75v2.5Zm2.5-1.25v-1.25c0-.69.56-1.25 1.25-1.25h37.5c.69 0 1.25.56 1.25 1.25v1.25h-40ZM9.832 3.75a3.75 3.75 0 0 0 3.75 3.75h37.5a3.75 3.75 0 0 0 3.75-3.75v-2.5c0-.69-.56-1.25-1.25-1.25h-42.5c-.69 0-1.25.56-1.25 1.25v2.5ZM13.582 5c-.69 0-1.25-.56-1.25-1.25V2.5h40v1.25c0 .69-.56 1.25-1.25 1.25h-37.5Z"/></g></svg>