<svg width="64" height="64" fill="none" xmlns="http://www.w3.org/2000/svg"><g clip-path="url('#clip0_1675_10444')" fill="#FF4A35"><path d="m63.051 35.318-14.588-8.423v-2.394a1.25 1.25 0 1 0-2.5 0v2.377l-4.75 2.743v-3.265a5.879 5.879 0 0 0-4.141-5.608 6.846 6.846 0 0 0 1.802-4.634A6.881 6.881 0 0 0 32 9.241a6.881 6.881 0 0 0-6.873 6.873c0 1.784.684 3.41 1.802 4.634a5.879 5.879 0 0 0-4.141 5.608v3.265l-4.75-2.743V10.755L32 2.693l13.963 8.062v2.356a1.25 1.25 0 0 0 2.5 0v-3.078c0-.446-.238-.86-.625-1.082L32.625.167a1.25 1.25 0 0 0-1.25 0L16.162 8.951a1.25 1.25 0 0 0-.625 1.082v16.862L.95 35.318A1.25 1.25 0 0 0 .324 36.4v17.567c0 .446.238.859.625 1.082l15.213 8.783a1.249 1.249 0 0 0 1.25 0L32 55.41l14.588 8.422a1.249 1.249 0 0 0 1.25 0l15.213-8.783a1.25 1.25 0 0 0 .625-1.082V36.4c0-.446-.238-.86-.625-1.082ZM32.001 11.74a4.378 4.378 0 0 1 4.373 4.373A4.378 4.378 0 0 1 32 20.487a4.378 4.378 0 0 1-4.373-4.373A4.378 4.378 0 0 1 32 11.741Zm-6.713 14.615a3.372 3.372 0 0 1 3.37-3.368h6.685c1.858 0 3.37 1.51 3.37 3.368v4.708L32 34.94l-6.712-3.876v-4.708ZM2.824 37.122l13.963-8.062 13.963 8.062v16.123L26 55.988v-3.265a5.878 5.878 0 0 0-4.178-5.619 6.846 6.846 0 0 0 1.839-4.672 6.881 6.881 0 0 0-6.874-6.873 6.881 6.881 0 0 0-6.873 6.873c0 1.803.699 3.445 1.839 4.672a5.878 5.878 0 0 0-4.178 5.62v3.264l-4.75-2.743V37.122Zm13.963 9.683a4.378 4.378 0 0 1-4.373-4.373 4.378 4.378 0 0 1 4.373-4.373 4.378 4.378 0 0 1 4.374 4.373 4.378 4.378 0 0 1-4.374 4.373Zm0 14.502-6.712-3.876v-4.708a3.372 3.372 0 0 1 3.37-3.368h6.685c1.858 0 3.37 1.51 3.37 3.368v4.708l-6.713 3.876Zm30.426 0-6.712-3.876v-4.708a3.372 3.372 0 0 1 3.37-3.368h6.685c1.858 0 3.37 1.51 3.37 3.368v4.708l-6.713 3.876Zm0-14.502a4.378 4.378 0 0 1-4.373-4.373 4.378 4.378 0 0 1 4.373-4.373 4.378 4.378 0 0 1 4.374 4.373 4.378 4.378 0 0 1-4.374 4.373Zm13.963 6.44-4.75 2.743v-3.265a5.878 5.878 0 0 0-4.178-5.619 6.846 6.846 0 0 0 1.839-4.672 6.881 6.881 0 0 0-6.873-6.873 6.881 6.881 0 0 0-6.874 6.873c0 1.803.7 3.445 1.839 4.672a5.878 5.878 0 0 0-4.178 5.619v3.265l-4.75-2.743V37.122l13.962-8.062 13.963 8.062v16.123Z"/><path d="M47.21 20.066a1.25 1.25 0 1 0 .001-2.5 1.25 1.25 0 0 0 0 2.5Z"/></g><defs><clipPath id="clip0_1675_10444"><path fill="#fff" d="M0 0h64v64H0z"/></clipPath></defs></svg>