<svg width="65" height="64" fill="none" xmlns="http://www.w3.org/2000/svg"><g clip-path="url('#clip0_1675_10497')" fill="#FFA336"><path d="M32.287 63.967a1.25 1.25 0 1 0-.085-2.498 1.25 1.25 0 0 0 .085 2.498ZM39.975 9.663a1.256 1.256 0 1 0 0 2.512 1.256 1.256 0 0 0 0-2.512ZM20.589 4.996a1.256 1.256 0 1 0-1.035-2.288 1.256 1.256 0 0 0 1.035 2.288Z"/><path d="M39.424 42.503a13.202 13.202 0 0 0 5.618-7.811h.155c2.1 0 3.807-1.708 3.807-3.808 0-2.099-1.708-3.806-3.807-3.806H19.306a3.811 3.811 0 0 0-3.807 3.806c0 2.1 1.708 3.807 3.807 3.807h.202a13.2 13.2 0 0 0 5.602 7.8 16.895 16.895 0 0 0-8.405 4.597 16.899 16.899 0 0 0-4.982 12.028v3.63A1.253 1.253 0 0 0 12.975 64h13.647a1.252 1.252 0 1 0 0-2.505h-3.541v-5.152a1.253 1.253 0 0 0-2.505 0v5.152h-6.348v-2.378a14.41 14.41 0 0 1 4.249-10.257 14.408 14.408 0 0 1 7.068-3.898 6.997 6.997 0 0 0 6.707 4.924c3.106 0 5.794-2 6.706-4.92 6.47 1.456 11.318 7.248 11.318 14.152v2.378h-6.349v-5.153a1.252 1.252 0 1 0-2.505 0v5.152h-3.541a1.252 1.252 0 1 0 0 2.505L51.528 64c.692 0 1.252-.56 1.252-1.252v-3.63c0-8.126-5.727-14.939-13.356-16.615ZM21.758 33.23a1.252 1.252 0 0 0-1.235-1.044h-1.217a1.303 1.303 0 0 1-1.302-1.302c0-.718.584-1.302 1.302-1.302h25.891c.718 0 1.302.584 1.302 1.302 0 .718-.584 1.302-1.302 1.302h-1.17c-.61 0-1.132.441-1.234 1.044a10.631 10.631 0 0 1-10.518 8.876 10.631 10.631 0 0 1-10.517-8.876Zm10.494 14.15a4.503 4.503 0 0 1-4.166-2.754c.215-.01 8.117-.009 8.332 0a4.503 4.503 0 0 1-4.166 2.755ZM29.29 14.012a1.253 1.253 0 0 0 1.772 0l4.12-4.12a4.139 4.139 0 0 0 1.221-2.946A4.14 4.14 0 0 0 35.183 4a4.139 4.139 0 0 0-2.946-1.22c-.735 0-1.44.188-2.062.543a4.174 4.174 0 0 0-5.005.676 4.139 4.139 0 0 0-1.22 2.946 4.14 4.14 0 0 0 1.22 2.947l4.12 4.12Zm-2.349-8.241c.324-.324.75-.486 1.175-.486.425 0 .851.162 1.175.486a1.253 1.253 0 0 0 1.771 0 1.65 1.65 0 0 1 1.175-.487c.444 0 .86.173 1.175.487.313.314.486.731.486 1.175 0 .444-.173.86-.487 1.175l-3.235 3.235-3.235-3.236a1.65 1.65 0 0 1-.486-1.174c0-.444.172-.861.486-1.175ZM23.233 21.014h.298v.299a1.253 1.253 0 0 0 2.505 0v-.299h.298a1.252 1.252 0 1 0 0-2.505h-.298v-.298a1.253 1.253 0 0 0-2.505 0v.298h-.298a1.253 1.253 0 0 0 0 2.505ZM39.573 4.012h.3v.342a1.253 1.253 0 1 0 2.504 0v-.342h.3a1.252 1.252 0 1 0 0-2.505h-.3v-.255a1.253 1.253 0 0 0-2.505 0v.255h-.3a1.253 1.253 0 0 0 0 2.505ZM35.156 15.334l-3.543 3.542c-.49.49-.49 1.282 0 1.771l3.542 3.543a1.253 1.253 0 0 0 1.772 0l3.542-3.542c.49-.49.49-1.282 0-1.772l-3.542-3.542a1.252 1.252 0 0 0-1.771 0Zm2.657 4.428-1.772 1.771-1.771-1.771 1.771-1.771 1.772 1.771ZM17.034 23.108a1.253 1.253 0 0 0 2.382-.774c-.09-.28-2.285-6.857-8.469-8.467a1.253 1.253 0 0 0-.63 2.424c4.838 1.26 6.699 6.762 6.717 6.817ZM15.514 10.845c1.989.699 3.278 2.83 3.298 2.864a1.252 1.252 0 0 0 2.16-1.27c-.07-.12-1.754-2.948-4.628-3.958a1.253 1.253 0 0 0-.83 2.364ZM55.917 14.764a1.253 1.253 0 0 0-1.527-.897c-6.184 1.61-8.379 8.188-8.47 8.467a1.251 1.251 0 0 0 1.192 1.637c.527 0 1.017-.335 1.19-.863.02-.055 1.88-5.557 6.719-6.816.67-.175 1.07-.859.896-1.528ZM44.812 14.15a1.255 1.255 0 0 0 1.714-.44c.013-.023 1.304-2.165 3.3-2.865a1.252 1.252 0 1 0-.83-2.364c-2.876 1.01-4.559 3.838-4.63 3.959a1.251 1.251 0 0 0 .446 1.71Z"/><path d="M27.862 32.584a1.253 1.253 0 1 0 0-2.505 1.253 1.253 0 0 0 0 2.505ZM36.4 32.584a1.252 1.252 0 1 0 0-2.505 1.252 1.252 0 0 0 0 2.505ZM36.455 36.529a1.252 1.252 0 0 0-1.771 0 3.616 3.616 0 0 1-5.108 0 1.252 1.252 0 1 0-1.772 1.771 6.097 6.097 0 0 0 4.326 1.789 6.099 6.099 0 0 0 4.325-1.789c.49-.489.49-1.282 0-1.771Z"/></g><defs><clipPath id="clip0_1675_10497"><path fill="#fff" transform="translate(.668)" d="M0 0h64v64H0z"/></clipPath></defs></svg>