<svg width="16" height="16" fill="none" xmlns="http://www.w3.org/2000/svg"><path fill-rule="evenodd" clip-rule="evenodd" d="M2.22 4.443a.5.5 0 0 1 .67-.224L8 6.774l5.11-2.555a.5.5 0 1 1 .447.895L8.224 7.78a.5.5 0 0 1-.448 0L2.443 5.114a.5.5 0 0 1-.224-.671Z" fill="#EDE409"/><path fill-rule="evenodd" clip-rule="evenodd" d="M6.707 1.118a3.075 3.075 0 0 1 2.586 0l3.333 1.54c1.147.53 1.874 1.704 1.874 2.986v4.712c0 1.282-.727 2.456-1.874 2.986l-3.333 1.54c-.823.38-1.763.38-2.586 0l-3.333-1.54c-1.147-.53-1.874-1.704-1.874-2.986V5.644c0-1.282.727-2.456 1.874-2.986l3.333-1.54Zm2.166.908a2.075 2.075 0 0 0-1.746 0l-3.334 1.54c-.778.36-1.293 1.17-1.293 2.078v4.712c0 .908.515 1.719 1.293 2.078l3.334 1.54c.556.257 1.19.257 1.746 0l3.334-1.54c.778-.36 1.293-1.17 1.293-2.078V5.644c0-.908-.515-1.719-1.293-2.078l-3.334-1.54Z" fill="#EDE409"/><path fill-rule="evenodd" clip-rule="evenodd" d="M8 6.833a.5.5 0 0 1 .5.5v7.334a.5.5 0 0 1-1 0V7.333a.5.5 0 0 1 .5-.5Z" fill="#EDE409"/></svg>