<svg width="16" height="17" fill="none" xmlns="http://www.w3.org/2000/svg"><g clip-path="url('#clip0_901_2081')" fill-rule="evenodd" clip-rule="evenodd" fill="#FF4A35"><path d="M2.22 4.445a.5.5 0 0 1 .67-.224L8 6.776l5.11-2.555a.5.5 0 1 1 .448.895L8.224 7.782a.5.5 0 0 1-.447 0L2.444 5.116a.5.5 0 0 1-.224-.671Z"/><path d="M6.708 1.12a3.075 3.075 0 0 1 2.585 0l3.334 1.54c1.147.53 1.874 1.704 1.874 2.986v4.712c0 1.282-.727 2.456-1.874 2.986l-3.334 1.54c-.822.38-1.762.38-2.585 0l-3.333-1.54C2.227 12.814 1.5 11.64 1.5 10.358V5.646c0-1.282.726-2.456 1.874-2.986l3.333-1.54Zm2.166.908a2.075 2.075 0 0 0-1.747 0l-3.333 1.54c-.779.36-1.293 1.17-1.293 2.078v4.712c0 .908.514 1.718 1.293 2.078l3.333 1.54c.557.257 1.19.257 1.747 0l3.333-1.54c.78-.36 1.294-1.17 1.294-2.078V5.646c0-.908-.515-1.719-1.294-2.078l-3.333-1.54Z"/><path d="M8 6.835a.5.5 0 0 1 .5.5v7.333a.5.5 0 1 1-1 0V7.335a.5.5 0 0 1 .5-.5Z"/></g><defs><clipPath id="clip0_901_2081"><path fill="#fff" transform="translate(0 .002)" d="M0 0h16v16H0z"/></clipPath></defs></svg>