<svg width="16" height="16" fill="none" xmlns="http://www.w3.org/2000/svg"><path fill-rule="evenodd" clip-rule="evenodd" d="M4.167 4.667a3.833 3.833 0 0 1 7.666 0v4.666a3.833 3.833 0 0 1-7.667 0V4.667ZM8 1.833a2.833 2.833 0 0 0-2.833 2.834v4.666a2.833 2.833 0 1 0 5.666 0v-.166H8.666a.5.5 0 1 1 0-1h2.167V5.833H8.666a.5.5 0 0 1 0-1h2.167v-.166A2.833 2.833 0 0 0 8 1.833ZM2.667 7.5a.5.5 0 0 1 .5.5v1.333a4.833 4.833 0 0 0 9.666 0V8a.5.5 0 1 1 1 0v1.333a5.833 5.833 0 0 1-11.666 0V8a.5.5 0 0 1 .5-.5Z" fill="#42C79C"/></svg>