<svg width="16" height="17" fill="none" xmlns="http://www.w3.org/2000/svg"><g clip-path="url('#clip0_901_2093')"><path fill-rule="evenodd" clip-rule="evenodd" d="M4.167 4.669a3.833 3.833 0 1 1 7.667 0v4.666a3.833 3.833 0 1 1-7.667 0V4.67Zm3.834-2.834A2.833 2.833 0 0 0 5.167 4.67v4.666a2.833 2.833 0 0 0 5.667 0V9.17H8.667a.5.5 0 0 1 0-1h2.167V5.835H8.667a.5.5 0 1 1 0-1h2.167V4.67a2.833 2.833 0 0 0-2.833-2.834ZM2.667 7.502a.5.5 0 0 1 .5.5v1.333a4.833 4.833 0 1 0 9.667 0V8.002a.5.5 0 0 1 1 0v1.333a5.833 5.833 0 1 1-11.667 0V8.002a.5.5 0 0 1 .5-.5Z" fill="#FF4A35"/></g><defs><clipPath id="clip0_901_2093"><path fill="#fff" transform="translate(0 .002)" d="M0 0h16v16H0z"/></clipPath></defs></svg>