<svg width="957" height="385" fill="none" xmlns="http://www.w3.org/2000/svg"><g opacity=".5" clip-path="url('#clip0_520_12951')" fill-rule="evenodd" clip-rule="evenodd"><path opacity=".5" d="M41.48 216.538v-47.995h1v47.995h-1Z" fill="#DDEBF6"/><path d="m332.716 337.038-41.581-23.997.5-.867 41.581 23.998-.5.866Z" fill="#DDEBF6"/><path d="M290.885 312.607v-48.283l41.831-24.142.5.866-41.331 23.853v47.706h-1ZM333.216 288.177l41.581 23.997-.5.867-41.581-23.998.5-.866Z" fill="#DDEBF6"/><path d="m291.135 312.174 41.581-23.997.5.866-41.581 23.998-.5-.867Z" fill="#DDEBF6"/><path d="M333.466 240.615v47.995h-1v-47.995h1ZM457.208 168.831v47.707h1v-48.284l-41.83-24.142-.5.866 41.33 23.853Z" fill="#DDEBF6"/><path d="m416.128 241.193-41.831-24.223.501-.865 41.33 23.932 41.33-23.932.501.865-41.831 24.223Z" fill="#DDEBF6"/><path d="m416.378 192.107 41.58 23.998-.499.866-41.581-23.998.5-.866Z" fill="#DDEBF6"/><path d="m374.297 216.105 41.581-23.998.5.866-41.581 23.998-.5-.866Z" fill="#DDEBF6"/><path d="M416.628 144.545v47.995h-1v-47.995h1ZM375.047 168.543v47.995h-1v-47.995h1ZM332.716 241.048l-41.581-24.078.501-.865 41.581 24.077-.501.866Z" fill="#DDEBF6"/><path d="m374.797 216.97-41.581 24.078-.501-.866 41.581-24.077.501.865Z" fill="#DDEBF6"/><path d="m333.216 192.107 41.581 23.998-.5.866-41.581-23.998.5-.866Z" fill="#DDEBF6"/><path d="m291.135 216.105 41.581-23.998.5.866-41.581 23.998-.5-.866Z" fill="#DDEBF6"/><path d="M333.466 144.545v47.995h-1v-47.995h1ZM416.628 96.47v48.075h-1V96.47h1Z" fill="#DDEBF6"/><path d="m374.297 168.976-41.581-23.998.5-.866 41.581 23.997-.5.867Z" fill="#DDEBF6"/><path d="m416.378 144.978-41.581 23.998-.5-.867 41.581-23.997.5.866Z" fill="#DDEBF6"/><path d="m374.547 121.125 41.331 23.853.5-.866-41.831-24.142-41.831 24.142.5.866 41.331-23.853ZM291.885 168.543v47.995h-1v-47.995h1Z" fill="#DDEBF6"/><path d="m249.804 241.193-41.831-24.223.501-.865 41.33 23.932 41.331-23.932.501.865-41.832 24.223Z" fill="#DDEBF6"/><path d="m250.054 192.107 41.581 23.998-.5.866-41.58-23.998.499-.866Z" fill="#DDEBF6"/><path d="m207.973 216.105 41.581-23.998.5.866-41.581 23.998-.5-.866Z" fill="#DDEBF6"/><path d="M250.304 144.545v47.995h-1v-47.995h1ZM332.466 96.759v47.786h1V96.181L291.635 72.04l-.5.867 41.331 23.853Z" fill="#DDEBF6"/><path d="m291.135 168.976-41.58-23.998.499-.866 41.581 23.997-.5.867Z" fill="#DDEBF6"/><path d="m333.216 144.978-41.581 23.998-.5-.867 41.581-23.997.5.866Z" fill="#DDEBF6"/><path d="m291.635 120.114 41.581 23.998-.5.866-41.581-23.997.5-.867Z" fill="#DDEBF6"/><path d="m249.555 144.112 41.58-23.998.5.867-41.581 23.997-.499-.866Z" fill="#DDEBF6"/><path d="M291.885 72.472v48.075h-1V72.472h1ZM208.724 168.543v47.995h-1v-47.995h1Z" fill="#DDEBF6"/><path d="m166.643 241.193-41.832-24.223.501-.865 41.331 23.932 41.33-23.932.501.865-41.831 24.223Z" fill="#DDEBF6"/><path d="M124.562 216.538v-47.995h1v47.995h-1Z" fill="#DDEBF6"/><path d="m124.812 168.109 41.581-23.997.5.866-41.581 23.998-.5-.867ZM166.892 192.107l41.581 23.998-.5.866-41.581-23.998.5-.866Z" fill="#DDEBF6"/><path d="m124.812 216.105 41.581-23.998.5.866-41.581 23.998-.5-.866Z" fill="#DDEBF6"/><path d="M167.143 144.545v47.995h-1v-47.995h1ZM83.73 144.112l41.582 23.997-.5.867-41.581-23.998.5-.866ZM83.48 241.193 41.73 216.97l.502-.865 41.25 23.932 41.33-23.932.501.865-41.832 24.223Z" fill="#DDEBF6"/><path d="m41.73 168.11 41.5-23.998.501.866-41.501 23.998-.5-.866ZM83.73 192.107l41.582 23.998-.5.866-41.581-23.998.5-.866Z" fill="#DDEBF6"/><path d="m41.73 216.105 41.5-23.998.501.866L42.23 216.97l-.5-.865Z" fill="#DDEBF6"/><path d="M83.981 144.545v47.995h-1v-47.995h1ZM250.304 96.47v48.075h-1V96.47h1ZM207.973 168.976l-41.581-23.998.5-.866 41.581 23.997-.5.867Z" fill="#DDEBF6"/><path d="m250.054 144.978-41.581 23.998-.5-.867 41.581-23.997.5.866Z" fill="#DDEBF6"/><path d="m208.473 120.114 41.581 23.998-.5.866-41.581-23.997.5-.867Z" fill="#DDEBF6"/><path d="m166.392 144.112 41.581-23.998.5.867-41.581 23.997-.5-.866Z" fill="#DDEBF6"/><path d="M208.724 72.472v48.075h-1V72.472h1ZM167.143 96.47v48.075h-1V96.47h1ZM82.981 144.545V96.47h1v48.075h-1Z" fill="#DDEBF6"/><path d="m125.312 120.114 41.581 23.998-.5.866-41.581-23.997.5-.867Z" fill="#DDEBF6"/><path d="m83.23 144.112 41.582-23.998.5.867-41.581 23.997-.5-.866ZM166.393 96.903l-41.581-23.998.5-.866 41.581 23.998-.5.866Z" fill="#DDEBF6"/><path d="m208.473 72.905-41.581 23.998-.5-.866 41.581-23.998.5.866Z" fill="#DDEBF6"/><path d="M207.724 24.766v47.707h1V24.189L166.643-.097l-41.831 24.142.5.866 41.331-23.854 41.081 23.71Z" fill="#DDEBF6"/><path d="m166.892 48.042 41.581 23.998-.5.866-41.581-23.998.5-.866Z" fill="#DDEBF6"/><path d="M124.562 120.547V72.184l41.831-24.142.5.866-41.331 23.853v47.786h-1Z" fill="#DDEBF6"/><path d="M167.143.48v47.995h-1V.48h1ZM291.885 24.478v47.995h-1V24.478h1ZM249.554 96.903l-41.581-23.998.5-.866 41.581 23.998-.5.866Z" fill="#DDEBF6"/><path d="m207.973 72.04 41.581-23.998.5.866-41.581 23.998-.5-.866ZM581.951 144.545V96.47h1v48.075h-1ZM624.283 120.115l41.501 23.997-.501.866-41.501-23.997.501-.866Z" fill="#DDEBF6"/><path d="m582.201 144.112 41.581-23.998.5.867-41.581 23.997-.5-.866Z" fill="#DDEBF6"/><path d="M665.033 96.758v47.787h1V96.182l-42.501-24.576v48.941h1V73.339l40.501 23.42ZM499.039 241.048l-41.581-24.078.501-.865 41.581 24.077-.501.866ZM499.54 192.107l41.581 23.998-.5.866-41.581-23.998.5-.866Z" fill="#DDEBF6"/><path d="m457.459 216.105 41.581-23.998.5.866-41.581 23.998-.5-.866Z" fill="#DDEBF6"/><path d="M499.79 145.411v47.129h-1v-48.861l42.331 24.43-.5.867-40.831-23.565ZM499.039 240.182l41.581-24.077.501.865-41.581 24.078-.501-.866ZM541.12 264.179l41.581 23.998-.5.866-41.581-23.998.5-.866Z" fill="#DDEBF6"/><path d="M541.371 216.537v48.075h-1v-48.075h1ZM831.606 241.048l-41.581-24.078.502-.865 41.58 24.077-.501.866Z" fill="#DDEBF6"/><path d="M789.776 216.538v-47.995h1v47.995h-1ZM832.107 192.107l41.58 23.998-.499.866-41.581-23.998.5-.866Z" fill="#DDEBF6"/><path d="m790.026 216.105 41.581-23.998.499.866-41.58 23.998-.5-.866Z" fill="#DDEBF6"/><path d="M832.357 192.54h-1v-47.129l-40.831 23.565-.5-.867 42.331-24.43v48.861ZM790.526 216.97l-41.581 24.078-.501-.866 41.581-24.077.501.865ZM706.614 216.538v-47.995h1v47.995h-1Z" fill="#DDEBF6"/><path d="m748.695 145.122 41.331 23.854.5-.867-41.831-24.141-41.831 24.141.5.867 41.331-23.854ZM748.945 192.107l41.581 23.998-.5.866-41.581-23.998.5-.866Z" fill="#DDEBF6"/><path d="m706.864 216.105 41.581-23.998.5.866-41.581 23.998-.5-.866Z" fill="#DDEBF6"/><path d="M749.195 144.545v47.995h-1v-47.995h1ZM665.783 144.112l41.581 23.997-.5.867-41.581-23.998.5-.866ZM665.282 241.047l-41.501-24.077.502-.865 41.501 24.077-.502.865Z" fill="#DDEBF6"/><path d="M623.532 216.538v-47.995h1v47.995h-1Z" fill="#DDEBF6"/><path d="m623.782 168.109 41.501-23.997.501.866-41.501 23.997-.501-.866Z" fill="#DDEBF6"/><path d="M666.033 144.545v47.995h-1v-47.995h1ZM582.701 144.112l41.581 23.997-.5.867-41.581-23.998.5-.866ZM540.87 313.185l-42.081-24.286v-48.284h1v47.707l41.081 23.708 41.081-23.708v-47.995l41.831-24.222.501.865-41.332 23.933v47.996l-42.081 24.286ZM540.371 216.538v-47.995h1v47.995h-1Z" fill="#DDEBF6"/><path d="m540.62 168.109 41.581-23.997.5.866-41.581 23.998-.5-.867ZM582.701 192.107l41.581 23.998-.5.866-41.581-23.998.5-.866Z" fill="#DDEBF6"/><path d="m540.62 216.105 41.581-23.998.5.866-41.581 23.998-.5-.866Z" fill="#DDEBF6"/><path d="M582.951 144.545v47.995h-1v-47.995h1ZM707.364 216.105l41.581 24.077-.501.866-41.581-24.078.501-.865Z" fill="#DDEBF6"/><path d="m707.114 313.185-42.081-24.286v-48.284h1v47.707l41.081 23.708 41.081-23.708v-47.707h1v48.284l-42.081 24.286Z" fill="#DDEBF6"/><path d="m665.283 240.182 41.581-24.077.501.865-41.581 24.078-.501-.866ZM707.364 264.179l41.581 23.998-.5.866-41.581-23.998.5-.866Z" fill="#DDEBF6"/><path d="m665.283 288.177 41.581-23.998.5.866-41.581 23.998-.5-.866Z" fill="#DDEBF6"/><path d="M707.614 216.537v48.075h-1v-48.075h1ZM914.768 241.048l-41.581-24.078.501-.865 41.581 24.077-.501.866Z" fill="#DDEBF6"/><path d="m872.938 216.538-.001-47.995h1l.001 47.995h-1ZM915.269 289.043l-41.581 23.998-.5-.867 41.581-23.997.5.866ZM831.357 288.61v-47.995h1v47.995h-1Z" fill="#DDEBF6"/><path d="m831.606 240.182 41.581-24.077.501.865-41.581 24.078-.501-.866Z" fill="#DDEBF6"/><path d="m873.937 216.537.001 48.075h-1l-.001-48.075h1ZM499.04 288.177l41.581-23.998.5.866-41.581 23.998-.5-.866Z" fill="#DDEBF6"/><path d="m624.283 216.97-41.581 24.078-.501-.866 41.581-24.077.501.865Z" fill="#AEC4E3"/><path d="M623.533 168.831v47.707h1v-48.284l-42.081-24.286-42.081 24.286v48.284h1v-47.707l41.081-23.709 41.081 23.709Z" fill="#AEC4E3"/><path d="m582.701 192.107 41.581 23.998-.5.866-41.581-23.998.5-.866Z" fill="#AEC4E3"/><path d="m540.621 216.105 41.581-23.998.5.866-41.581 23.998-.5-.866Z" fill="#AEC4E3"/><path d="M582.952 144.545v47.995h-1v-47.995h1ZM374.797 264.179l41.581 23.998-.5.866-41.581-23.998.5-.866Z" fill="#AEC4E3"/><path d="m332.717 288.177 41.581-23.998.499.866-41.581 23.998-.499-.866Z" fill="#AEC4E3"/><path d="M375.047 216.538v48.075h-1v-48.075h1ZM291.135 313.041l-41.58-23.998.499-.866 41.581 23.997-.5.867Z" fill="#AEC4E3"/><path d="m290.885 264.324-41.331 23.853.5.866 41.831-24.142v-48.364h-1v47.787ZM375.047 168.543v47.995h-1v-47.995h1Z" fill="#AEC4E3"/><path d="m333.216 192.107 41.581 23.998-.499.866-41.581-23.998.499-.866Z" fill="#AEC4E3"/><path d="m291.136 216.105 41.58-23.998.5.866-41.581 23.998-.499-.866Z" fill="#AEC4E3"/><path d="M333.466 192.54h-1v-47.129l-40.831 23.565-.5-.867 42.331-24.43v48.861ZM250.305 240.615v47.995h-1v-47.995h1Z" fill="#AEC4E3"/><path d="m250.055 289.043-41.581 23.998-.5-.867 41.581-23.997.5.866Z" fill="#AEC4E3"/><path d="m208.724 264.324 41.331 23.853-.5.866-41.831-24.142v-48.364h1v47.787ZM291.885 168.543v47.995h-1v-47.995h1Z" fill="#AEC4E3"/><path d="m250.054 144.112 41.581 23.997-.5.867-41.58-23.998.499-.866ZM249.554 241.048l-41.581-24.078.501-.865 41.581 24.077-.501.866Z" fill="#AEC4E3"/><path d="m291.636 216.97-41.581 24.078-.501-.866 41.581-24.077.501.865Z" fill="#AEC4E3"/><path d="m250.054 192.107 41.581 23.998-.5.866-41.58-23.998.499-.866Z" fill="#AEC4E3"/><path d="m207.974 216.105 41.581-23.998.5.866-41.581 23.998-.5-.866Z" fill="#AEC4E3"/><path d="M250.305 144.545v47.995h-1v-47.995h1ZM125.312 264.179l41.581 23.998-.5.866-41.581-23.998.5-.866Z" fill="#AEC4E3"/><path d="m83.231 288.177 41.581-23.998.5.866-41.58 23.998-.5-.866Z" fill="#AEC4E3"/><path d="M125.562 216.538v48.075h-1v-48.075h1ZM83.981 240.615v47.995h-1v-47.995h1Z" fill="#AEC4E3"/><path d="M41.98 313.185.15 289.043l.5-.866 41.33 23.853 41.25-23.853.501.866-41.75 24.142Z" fill="#AEC4E3"/><path d="M-.1 288.61v-47.995h1v47.995h-1Z" fill="#AEC4E3"/><path d="m.148 240.182 41.581-24.077.502.865L.65 241.048l-.502-.866ZM42.23 264.18l41.501 23.997-.5.866-41.501-23.998.5-.865Z" fill="#AEC4E3"/><path d="m.15 288.177 41.58-23.998.5.866L.65 289.043l-.5-.866ZM166.392 241.048l-41.58-24.078.501-.865 41.581 24.077-.502.866Z" fill="#AEC4E3"/><path d="m208.474 216.97-41.581 24.078-.501-.866 41.581-24.077.501.865Z" fill="#AEC4E3"/><path d="m166.893 192.107 41.581 23.998-.5.866-41.581-23.998.5-.866Z" fill="#AEC4E3"/><path d="m124.812 216.105 41.581-23.998.5.866-41.581 23.998-.5-.866Z" fill="#AEC4E3"/><path d="M167.143 144.545v47.995h-1v-47.995h1ZM125.562 168.543v47.995h-1v-47.995h1ZM83.23 241.048l-41.5-24.078.501-.865 41.5 24.078-.5.865Z" fill="#AEC4E3"/><path d="m125.312 216.97-41.58 24.078-.501-.866 41.58-24.077.501.865ZM41.73 168.11l41.5-23.998.501.866-41.5 23.998-.501-.866Z" fill="#AEC4E3"/><path d="m83.731 192.107 41.581 23.998-.5.866-41.58-23.998.5-.866Z" fill="#AEC4E3"/><path d="M83.981 144.545v47.995h-1v-47.995h1Z" fill="#AEC4E3"/><path d="m124.812 168.976-41.58-23.998.5-.866 41.58 23.997-.5.867Z" fill="#AEC4E3"/><path d="m166.893 144.978-41.581 23.998-.5-.867 41.581-23.997.5.866Z" fill="#AEC4E3"/><path d="m125.312 120.114 41.581 23.998-.5.866-41.581-23.997.5-.867Z" fill="#AEC4E3"/><path d="m83.231 144.112 41.581-23.998.5.867-41.58 23.997-.5-.866Z" fill="#AEC4E3"/><path d="M167.143 144.545h-1V96.759l-40.581-23.42v47.208h-1v-48.94l42.581 24.574v48.364ZM208.474 120.114l41.581 23.998-.5.866-41.581-23.997.5-.867Z" fill="#AEC4E3"/><path d="m166.393 144.112 41.581-23.998.5.867-41.581 23.997-.5-.866Z" fill="#AEC4E3"/><path d="M208.724 72.472v48.075h-1V72.472h1ZM457.459 313.041l-41.581-23.998.5-.866 41.581 23.997-.5.867Z" fill="#AEC4E3"/><path d="M416.628 288.61h-1v-47.706l-41.332-23.933.502-.866 41.83 24.222v48.283ZM457.959 264.179l41.581 23.998-.5.866-41.581-23.998.5-.866Z" fill="#AEC4E3"/><path d="m415.878 288.177 41.581-23.998.5.866-41.581 23.998-.5-.866Z" fill="#AEC4E3"/><path d="M458.209 216.538v48.075h-1v-48.075h1ZM541.371 312.608v47.995h-1v-47.995h1ZM499.039 385.113l-41.58-24.078.501-.865 41.581 24.077-.502.866Z" fill="#AEC4E3"/><path d="m541.121 361.035-41.581 24.078-.501-.866 41.581-24.077.501.865ZM457.209 360.603v-47.995h1v47.995h-1Z" fill="#AEC4E3"/><path d="m457.459 312.174 41.581-23.997.5.866-41.581 23.998-.5-.867ZM499.54 336.172l41.581 23.998-.5.866-41.581-23.998.5-.866Z" fill="#AEC4E3"/><path d="m457.459 360.17 41.581-23.998.5.866-41.581 23.998-.5-.866Z" fill="#AEC4E3"/><path d="M499.79 288.61v47.995h-1V288.61h1ZM832.357 240.615v47.995h-1v-47.995h1ZM790.026 313.041l-41.581-23.998.5-.866 41.581 23.997-.5.867Z" fill="#AEC4E3"/><path d="m832.107 289.043-41.581 23.998-.5-.867 41.581-23.997.5.866ZM915.519 288.61v47.995h-1V288.61h1ZM873.188 361.036l-41.581-23.998.5-.866 41.581 23.998-.5.866Z" fill="#AEC4E3"/><path d="m915.269 337.038-41.581 23.998-.5-.866 41.581-23.998.5.866ZM831.357 336.605V288.61h1v47.995h-1Z" fill="#AEC4E3"/><path d="m873.438 265.19 41.331 23.853.5-.866-41.831-24.142-41.831 24.142.5.866 41.331-23.853ZM873.688 312.174l41.581 23.998-.5.866-41.581-23.997.5-.867Z" fill="#AEC4E3"/><path d="m831.607 336.172 41.581-23.998.5.867-41.581 23.997-.5-.866Z" fill="#AEC4E3"/><path d="M873.938 264.612v47.995h-1v-47.995h1ZM956.35 313.041l-41.581-23.998.5-.866 41.581 23.997-.5.867Z" fill="#AEC4E3"/><path d="M914.519 289.476v-49.149L957.1 215.67v49.231l-42.581 24.575Zm41.581-25.152v-46.919l-40.581 23.498v46.841l40.581-23.42ZM748.195 288.61v-48.283l41.831-24.222.501.865-41.332 23.933v47.707h-1Z" fill="#AEC4E3"/><path d="m790.276 265.19 41.331 23.853.5-.866-41.831-24.142-41.831 24.142.5.866 41.331-23.853ZM706.864 313.041l-41.58-23.998.499-.866 41.581 23.997-.5.867Z" fill="#AEC4E3"/><path d="M665.033 288.61v-47.995h1v47.995h-1ZM707.364 264.179l41.581 23.998-.5.866-41.58-23.998.499-.866Z" fill="#AEC4E3"/><path d="m665.284 288.177 41.58-23.998.5.866-41.581 23.998-.499-.866Z" fill="#AEC4E3"/><path d="M707.614 264.613h-1v-47.208l-40.83 23.643-.501-.865 42.331-24.513v48.943Z" fill="#AEC4E3"/><path d="m624.283 216.105 41.501 24.077-.502.865-41.501-24.077.502-.865ZM581.952 288.61v-47.995h1v47.995h-1ZM624.283 264.18l41.501 23.997-.501.866-41.501-23.998.501-.865Z" fill="#AEC4E3"/><path d="m582.201 288.177 41.581-23.998.5.866-41.581 23.998-.5-.866Z" fill="#AEC4E3"/><path d="M624.533 216.538v48.075h-1v-48.075h1ZM582.702 289.043l-41.581 23.998-.5-.867 41.581-23.997.5.866ZM499.79 240.903v47.707h-1v-48.283l41.83-24.222.501.865-41.331 23.933Z" fill="#AEC4E3"/><path d="m541.121 264.179 41.581 23.998-.5.866-41.581-23.998.5-.866Z" fill="#AEC4E3"/><path d="m499.04 288.177 41.581-23.998.5.866-41.581 23.998-.5-.866Z" fill="#AEC4E3"/><path d="M541.371 216.538v48.075h-1v-48.075h1ZM707.614 312.608v47.995h-1v-47.995h1ZM665.282 385.113l-41.501-24.078.502-.865 41.501 24.078-.502.865Z" fill="#AEC4E3"/><path d="m707.365 361.035-41.581 24.078-.501-.866 41.581-24.077.501.865ZM623.533 360.603v-47.995h1v47.995h-1Z" fill="#AEC4E3"/><path d="m623.782 312.175 41.501-23.998.501.866-41.501 23.998-.501-.866ZM665.783 336.172l41.581 23.998-.5.866-41.58-23.998.499-.866Z" fill="#AEC4E3"/><path d="m623.782 360.17 41.501-23.998.501.866-41.501 23.998-.501-.866Z" fill="#AEC4E3"/><path d="M666.033 288.61v47.995h-1V288.61h1ZM416.628 288.61v47.995h-1V288.61h1Z" fill="#AEC4E3"/><path d="m416.378 289.043-41.581 23.998-.5-.867 41.581-23.997.5.866ZM208.224 169.12l-41.831-24.142.5-.866 41.331 23.854 41.331-23.854.5.866-41.831 24.142ZM125.062 313.185l-41.831-24.142.5-.866 41.331 23.853 41.081-23.708v-47.707h1v48.284l-42.081 24.286ZM332.966 241.193l-41.831-24.223.501-.865 41.33 23.932 41.331-23.932.501.865-41.832 24.223Z" fill="#AEC4E3"/></g><defs><clipPath id="clip0_520_12951"><path fill="#fff" transform="rotate(180 478.5 192.5)" d="M0 0h957v385H0z"/></clipPath></defs></svg>