<svg width="122" height="55" fill="none" xmlns="http://www.w3.org/2000/svg"><path fill-rule="evenodd" clip-rule="evenodd" d="M25.116 45.545a4.686 4.686 0 0 1-.954-1.259l-.45.398c.257.49.582.921.978 1.292l.426-.43Zm2.396 1.261a6.083 6.083 0 0 1-1.55-.63l-.405.446c.463.273.992.489 1.587.645l.368-.46Zm-3.764-3.559a7.901 7.901 0 0 1-.29-1.823l-.468.329c.034.674.132 1.298.298 1.867l.46-.373Zm5.934 3.849c-.339-.01-.663-.033-.972-.069l-.343.466c.316.037.646.06.992.07.348.01.7.006 1.054-.012l.304-.467c-.348.017-.693.021-1.034.012Zm-6.209-7.04c.048-.7.153-1.445.312-2.233l-.46.254c-.163.802-.27 1.562-.318 2.278l.466-.298Zm11.038 6.423c-.779.199-1.562.359-2.337.467l-.276.464c.79-.11 1.588-.273 2.38-.476l.233-.455ZM24.163 36.236c.218-.796.483-1.628.794-2.492l-.353.148.025-.028c-.464-.256-.93-.55-1.4-.88l-.413.442c.473.33.944.627 1.412.887l.25-.28c-.299.84-.556 1.65-.768 2.428l.453-.225Zm-2.445-4.413c-.192-.16-.38-.33-.563-.507l-.426.43c.184.179.374.35.569.512.213.178.426.35.638.516l.417-.438a24.47 24.47 0 0 1-.635-.513Zm-1.253-1.243a11.84 11.84 0 0 1-.915-1.225l-.443.409c.288.44.596.854.924 1.237l.434-.421Zm18.262 14.468c-.83.344-1.694.668-2.574.953l-.202.447a35.28 35.28 0 0 0 2.62-.97l.156-.43ZM19.02 28.464a14.673 14.673 0 0 1-.682-1.436l-.455.388c.209.508.439.99.689 1.449l.448-.4Zm8.285 6.456a9.16 9.16 0 0 1-1.668-.555l-.39.453a9.306 9.306 0 0 0 1.697.565l.361-.463Zm-9.348-8.912a18.447 18.447 0 0 1-.463-1.621l-.462.364c.135.567.29 1.113.467 1.636l.458-.379ZM30.79 34.81a6.546 6.546 0 0 1-2.22.281l-.328.468a6.886 6.886 0 0 0 2.338-.299l.21-.45Zm-5.172-2.785c.175-.431.36-.87.556-1.314.2-.455.419-.89.653-1.301l-.387.068c-.25.44-.481.899-.69 1.377-.199.45-.387.894-.564 1.33l.431-.16Zm-8.36-8.776a23.084 23.084 0 0 1-.246-1.789l-.467.34c.062.62.145 1.222.249 1.803l.464-.354Zm25.959 19.635c-.801.439-1.72.914-2.717 1.382l-.127.417a49.69 49.69 0 0 0 2.763-1.405l.08-.394ZM16.919 20.215a28.535 28.535 0 0 1-.03-1.943l-.467.311c-.012.672-.002 1.325.03 1.96l.467-.328Zm18.208 11.598c-.883.964-1.747 1.69-2.604 2.21l-.044.372c.962-.585 1.922-1.394 2.877-2.437l-.23-.145ZM16.943 16.927c.041-.68.105-1.377.191-2.089l-.465.282a35.09 35.09 0 0 0-.193 2.107l.467-.3ZM28 27.666c.726-.92 1.533-1.7 2.372-2.345l-.058-.302a14.914 14.914 0 0 0-2.606 2.576l.292.07ZM46.076 41.19c-.235.152-.58.37-1.018.635l-.046.373a41.656 41.656 0 0 0 1.323-.833l.048-.032.025-.017.02-.013.004-.003.002-.001v-.06l-.002-.283-.005.003-.016.011-.068.046-.267.175ZM17.338 13.4c.117-.726.257-1.468.42-2.223l-.459.247a42.085 42.085 0 0 0-.424 2.244l.463-.268Zm20.226 15.194c-.323.5-.644.968-.962 1.404l.32.034c.333-.456.666-.941 1-1.457.322-.5.584-.968.79-1.407l-.418.127c-.189.403-.43.836-.73 1.3ZM18.118 9.652c.195-.77.414-1.552.658-2.347l-.45.21a49.676 49.676 0 0 0-.664 2.37l.456-.233Zm13.998 14.54c.838-.45 1.676-.77 2.462-.958l.24-.457a11 11 0 0 0-2.614 1.017l-.088.397Zm-12.82-18.49c.276-.808.577-1.627.904-2.458l-.435.168a58.24 58.24 0 0 0-.913 2.483l.444-.194Zm16.717 17.337c.669-.015 1.257.095 1.722.33l.396-.45c-.489-.248-1.107-.363-1.808-.347l-.31.467Zm2.486.987c.29.43.406.999.3 1.705l.464-.272c.116-.772-.011-1.385-.321-1.844l-.443.41ZM21.454.166c-.042-.06-.176-.017-.298.096L19.171 2.12c-.121.114-.186.255-.143.316.043.06.176.017.298-.096L20.783.976c-.11.25-.218.499-.324.747l.427-.15c.103-.241.208-.483.316-.726l.508.721c.042.061.176.018.297-.096.122-.114.186-.255.144-.316l-.697-.99Z" fill="#0F90D1"/><path d="M53.86 31.62c0 .093-.04.207-.12.34-.907 1.507-1.847 2.26-2.82 2.26-.76 0-1.14-.48-1.14-1.44 0-.853.193-1.607.58-2.26-.933.84-1.887 2-2.86 3.48-.08.12-.14.18-.18.18-.12 0-.18-.12-.18-.36 0-.067.013-.12.04-.16.28-.68.573-1.647.88-2.9.04-.213.107-.527.2-.94.04-.093.133-.187.28-.28a.763.763 0 0 1 .4-.14c.093 0 .14.04.14.12 0 .133-.313 1.147-.94 3.04.16-.213.66-.78 1.5-1.7.28-.32.693-.773 1.24-1.36a.489.489 0 0 1 .32-.14c.307 0 .46.153.46.46a.506.506 0 0 1-.08.24c-.747 1.227-1.12 2.2-1.12 2.92 0 .507.24.76.72.76.373 0 .773-.193 1.2-.58.28-.24.593-.6.94-1.08.28-.387.44-.58.48-.58.04 0 .06.04.06.12Zm4.526.22c0 .027-.013.053-.04.08-.186.32-.473.593-.86.82-.373.227-.74.34-1.1.34-.266 0-.513-.067-.74-.2-.613.973-1.246 1.46-1.9 1.46-.466 0-.7-.273-.7-.82 0-.76.334-1.653 1-2.68a2.452 2.452 0 0 1-.04-.44c0-.48.16-.947.48-1.4.32-.453.714-.68 1.18-.68.307 0 .554.18.74.54.147.307.22.627.22.96 0 .72-.28 1.633-.84 2.74.2.12.427.18.68.18.44 0 .854-.173 1.24-.52.387-.347.567-.52.54-.52.094 0 .14.047.14.14Zm-2.36-1.52c0-.293-.046-.593-.14-.9-.133-.427-.306-.64-.52-.64-.306 0-.546.187-.72.56a2.094 2.094 0 0 0-.18.96c.214-.253.427-.38.64-.38.2 0 .347.067.44.2v.1a.33.33 0 0 1 .02.1c0 .04-.066.06-.2.06-.24 0-.493.253-.76.76.174.507.48.92.92 1.24.334-.84.5-1.527.5-2.06Zm-.66 2.34c-.44-.293-.773-.633-1-1.02-.4.84-.6 1.447-.6 1.82 0 .267.1.4.3.4.187 0 .434-.16.74-.48.267-.253.454-.493.56-.72Zm11.17-9.58c0 .96-.84 2.3-2.52 4.02-1.08 1.093-2.36 2.2-3.84 3.32-.266.56-.486 1.1-.66 1.62l1.98-1.98c.987-.933 1.714-1.4 2.18-1.4.347 0 .52.253.52.76 0 .52-.36 1.027-1.08 1.52-.666.467-1.266.687-1.8.66.28 1.28.814 1.92 1.6 1.92.774 0 1.62-.607 2.54-1.82.08-.12.16-.18.24-.18.067 0 .1.033.1.1 0 .053-.026.12-.08.2-.32.467-.773.96-1.36 1.48-.706.64-1.26.96-1.66.96-.493 0-.986-.34-1.48-1.02-.453-.613-.713-1.187-.78-1.72l-.94 1.1c-.306.4-.506.86-.6 1.38-.146.067-.3.1-.46.1-.293 0-.44-.067-.44-.2 0-.307.28-1.1.84-2.38a40.83 40.83 0 0 1 2.82-5.36c1.627-2.6 2.954-3.9 3.98-3.9.6 0 .9.273.9.82Zm-.46.28c0-.28-.113-.42-.34-.42-.346 0-.88.307-1.6.92-1.266 1.053-2.34 2.653-3.22 4.8-.2.493-.3.78-.3.86.947-.587 2.034-1.52 3.26-2.8 1.467-1.493 2.2-2.613 2.2-3.36Zm-2.74 6.36c0-.267-.086-.4-.26-.4-.266 0-.993.62-2.18 1.86.054.107.174.16.36.16.4 0 .847-.173 1.34-.52.494-.36.74-.727.74-1.1Zm8.926 1.9c0 .093-.04.207-.12.34-.347.573-.92 1.147-1.72 1.72-.853.64-1.573.96-2.16.96-.12 0-.3-.007-.54-.02h-.52c-.053 0-.254-.047-.6-.14-.413 1.067-.974 2.187-1.68 3.36-1 1.627-1.813 2.44-2.44 2.44-.334 0-.5-.247-.5-.74 0-.653.6-1.867 1.8-3.64.853-1.173 1.713-2.353 2.58-3.54v-.12c0-.48-.007-.9-.02-1.26-.507.827-.827 1.24-.96 1.24-.08 0-.12-.047-.12-.14 0-.053.02-.107.06-.16.587-.827.88-1.567.88-2.22 0-.133-.04-.24-.12-.32-.067-.093-.1-.167-.1-.22 0-.053.207-.08.62-.08.453 0 .68.453.68 1.36 0 .133-.013.333-.04.6-.014.253-.02.44-.02.56a13.48 13.48 0 0 1 1.24-1.88c.693-.853 1.273-1.28 1.74-1.28.427 0 .64.313.64.94 0 .787-.28 1.7-.84 2.74-.547 1.04-1.147 1.767-1.8 2.18 1.16-.027 2.447-.927 3.86-2.7.053-.067.093-.1.12-.1.053 0 .08.04.08.12Zm-2.3-1.82c0-.413-.114-.62-.34-.62a.534.534 0 0 0-.2.04c-.48.213-.987.833-1.52 1.86-.4.76-.72 1.54-.96 2.34.133.2.367.453.7.76.587-.253 1.127-.887 1.62-1.9.466-.96.7-1.787.7-2.48Zm-3.78 3.64c-.014-.013-.027-.02-.04-.02-.053 0-.127.067-.22.2a213 213 0 0 1-1.44 2.12c-.28.4-.633 1.007-1.06 1.82-.493.947-.74 1.56-.74 1.84 0 .12.04.18.12.18.587 0 1.393-.96 2.42-2.88.267-.507.553-1.38.86-2.62a1.012 1.012 0 0 1-.02-.2c0-.16.04-.307.12-.44Zm10.063 1.02c0 .08-.02.12-.06.12a.907.907 0 0 1-.18-.1c-.107-.067-.3-.1-.58-.1-.133 0-.26.007-.38.02-.507 2-1.14 3.553-1.9 4.66-1.44 2.107-2.98 3.16-4.62 3.16-.64 0-1.174-.187-1.6-.56-.44-.373-.66-.873-.66-1.5 0-1.427 1.02-2.793 3.06-4.1 1.706-1.107 3.367-1.787 4.98-2.04.186-.827.4-2.053.64-3.68-.16.387-.447.9-.86 1.54-.413.627-.767 1.093-1.06 1.4-.347.36-.674.54-.98.54-.427 0-.64-.373-.64-1.12 0-.427.133-.94.4-1.54.306-.693.646-1.04 1.02-1.04.186 0 .28.053.28.16 0 .013-.167.32-.5.92-.334.587-.5 1.04-.5 1.36 0 .427.12.64.36.64.413 0 1.313-1.34 2.7-4.02.026-.2.193-.3.5-.3.24 0 .36.053.36.16 0 .173-.087.74-.26 1.7a63.88 63.88 0 0 1-.66 3.26h.08c.706-.027 1.06.127 1.06.46Zm-1.96-.08c-.88.147-1.927.527-3.14 1.14-1.213.613-2.14 1.227-2.78 1.84-1.013.96-1.52 1.913-1.52 2.86 0 .52.166.933.5 1.24.32.32.746.48 1.28.48.813 0 1.62-.347 2.42-1.04.64-.547 1.206-1.247 1.7-2.1.706-1.2 1.22-2.673 1.54-4.42Zm11.088-2.58c0 .053-.013.093-.04.12-.333.467-.707.9-1.12 1.3-.573.533-1.053.8-1.44.8-.626 0-.94-.693-.94-2.08 0-.213.007-.453.02-.72-.48.427-1.02 1.193-1.62 2.3-.2.373-.42.56-.66.56-.08 0-.14-.027-.18-.08a2.177 2.177 0 0 1-.06-.56c0-.387.087-1.093.26-2.12.093-.52.14-.853.14-1 0-.107-.02-.16-.06-.16-.227.2-.593.633-1.1 1.3a40.447 40.447 0 0 0-1.76 2.54c-.08.12-.147.18-.2.18-.106 0-.16-.12-.16-.36 0-.067.007-.12.02-.16.307-.72.62-1.733.94-3.04.027-.187.08-.453.16-.8.027-.093.114-.187.26-.28.16-.093.293-.14.4-.14.093 0 .14.04.14.12 0 .133-.313 1.147-.94 3.04.48-.64.973-1.3 1.48-1.98l.72-.96c.2-.24.407-.36.62-.36.213 0 .32.12.32.36 0 .173-.046.52-.14 1.04-.093.507-.2 1.253-.32 2.24.374-.533.954-1.313 1.74-2.34.214-.253.427-.38.64-.38.2 0 .3.127.3.38 0 .213-.033.533-.1.96-.067.413-.1.727-.1.94 0 .693.18 1.04.54 1.04.507 0 1.154-.56 1.94-1.68.08-.133.147-.2.2-.2.067 0 .1.06.1.18Zm-2.02-3.72c-1.68-.4-2.913-.38-3.7.06a.906.906 0 0 0-.36.38.985.985 0 0 0-.06.38c0 .16-.02.28-.06.36l-.08.06c-.133.093-.193 0-.18-.28a1.94 1.94 0 0 1 .2-.74c.133-.307.36-.54.68-.7.587-.347 1.36-.48 2.32-.4.24 0 1.047.113 2.42.34.84.147 1.394.147 1.66 0a.8.8 0 0 0 .34-.36.614.614 0 0 0 .04-.48.522.522 0 0 1 .02-.38l.04-.02c.107-.067.154.067.14.4 0 .333-.04.58-.12.74-.2.387-.413.653-.64.8-.333.187-.86.22-1.58.1-.08-.04-.24-.073-.48-.1-.106 0-.306-.053-.6-.16Zm7.917 3.54c0 .093-.04.207-.12.34a7.333 7.333 0 0 1-1.3 1.6c-.64.587-1.24.88-1.8.88-.747 0-1.12-.467-1.12-1.4 0-.213.1-.633.3-1.26-.467.68-.767 1.1-.9 1.26-.44.52-.834.78-1.18.78-.44 0-.66-.373-.66-1.12 0-.427.14-.94.42-1.54.306-.693.64-1.04 1-1.04.2 0 .3.053.3.16 0 .013-.173.32-.52.92-.334.587-.5 1.04-.5 1.36 0 .427.127.64.38.64.427 0 1.193-.973 2.3-2.92.093-.187.233-.447.42-.78.093-.107.193-.16.3-.16.12 0 .227.053.32.16.106.093.16.207.16.34 0-.013-.24.433-.72 1.34-.467.907-.7 1.607-.7 2.1 0 .467.22.7.66.7.373 0 .8-.213 1.28-.64.32-.28.68-.68 1.08-1.2.333-.427.513-.64.54-.64.04 0 .06.04.06.12Zm6.39-1.14c-.267.56-.554 1.12-.86 1.68-.307.547-.594.953-.86 1.22-.374.36-.727.593-1.06.7-.334.107-.614.1-.84-.02-.227-.107-.394-.32-.5-.64-.094-.333-.094-.76 0-1.28.04-.253.113-.427.22-.52a.51.51 0 0 1 .34-.14c.12 0 .226.04.32.12a.445.445 0 0 1 .18.24c-.214.547-.32.987-.32 1.32.013.333.106.533.28.6.186.067.44-.007.76-.22.32-.227.68-.62 1.08-1.18.146-.2.313-.48.5-.84.2-.36.4-.88.6-1.56.493-.253.846-.373 1.06-.36.213 0 .326.087.34.26.026.16-.02.387-.14.68-.12.28-.254.58-.4.9-.147.307-.287.607-.42.9-.12.28-.18.507-.18.68.04-.053.113-.147.22-.28.106-.147.24-.313.4-.5.16-.2.333-.413.52-.64.2-.227.406-.453.62-.68.266-.307.679-.76 1.239-1.36a.974.974 0 0 1 .18-.14.36.36 0 0 1 .18-.06c.307 0 .46.153.46.46a.499.499 0 0 1-.08.24c-.746 1.227-1.12 2.2-1.12 2.92 0 .507.24.76.72.76.374 0 .774-.193 1.2-.58.294-.253.607-.613.94-1.08.28-.387.44-.58.48-.58.04 0 .06.04.06.12 0 .093-.04.207-.12.34-.906 1.507-1.846 2.26-2.82 2.26-.76 0-1.14-.48-1.14-1.44 0-.427.04-.813.12-1.16.094-.36.234-.707.42-1.04-.266.253-.513.507-.74.76-.213.253-.46.553-.74.9-.12.16-.24.327-.36.5a4.61 4.61 0 0 1-.36.46c-.12.133-.24.233-.36.3-.12.067-.246.06-.38-.02-.146-.093-.193-.293-.14-.6.067-.307.16-.633.28-.98.134-.347.26-.66.38-.94.12-.28.16-.44.12-.48 0-.067-.046-.1-.14-.1-.093 0-.14.033-.14.1Zm10.03 1.36a.319.319 0 0 1-.04.12c-.334.52-.834 1-1.5 1.44-.707.467-1.354.7-1.94.7-.84 0-1.26-.527-1.26-1.58 0-.693.3-1.453.9-2.28.64-.88 1.3-1.32 1.98-1.32a.42.42 0 0 1 .34.18c.106.12.16.247.16.38 0 .413-.314.913-.94 1.5-.56.52-1.074.867-1.54 1.04-.094.333-.14.613-.14.84 0 .547.246.82.74.82.466 0 .993-.193 1.58-.58.506-.333.94-.713 1.3-1.14.093-.133.186-.2.28-.2.053 0 .08.027.08.08Zm-1.96-2.12c0-.16-.08-.24-.24-.24-.2 0-.494.307-.88.92-.334.52-.54.927-.62 1.22.346-.147.706-.407 1.08-.78.44-.427.66-.8.66-1.12Zm4.462.8c.04-.04.08-.107.12-.2.04-.093.08-.193.12-.3.054-.107.1-.207.14-.3.054-.107.1-.18.14-.22.094-.093.2-.14.32-.14.307 0 .46.153.46.46a.499.499 0 0 1-.08.24c-.746 1.227-1.12 2.2-1.12 2.92 0 .507.24.76.72.76.374 0 .774-.193 1.2-.58.294-.253.607-.613.94-1.08.28-.387.44-.58.48-.58.04 0 .06.04.06.12 0 .093-.04.207-.12.34-.906 1.507-1.846 2.26-2.82 2.26-.76 0-1.14-.48-1.14-1.44 0-.533.08-1.033.24-1.5a14.433 14.433 0 0 0-2.02.66c-.026.107-.06.213-.1.32-.04.093-.073.193-.1.3-.106.627-.226 1.053-.36 1.28-.133.227-.286.34-.46.34-.12 0-.18-.12-.18-.36 0-.053.014-.107.04-.16.147-.347.294-.753.44-1.22a24.122 24.122 0 0 0 .52-2.06c.027-.16.067-.347.12-.56.04-.093.134-.187.28-.28a.764.764 0 0 1 .4-.14c.094 0 .14.04.14.12 0 .067-.053.273-.16.62-.106.333-.26.82-.46 1.46a14.5 14.5 0 0 1 .68-.22c.267-.093.58-.193.94-.3.094-.013.227-.053.4-.12a6.94 6.94 0 0 1 .22-.44Zm7.963.32c.293.027.44.18.44.46 0 .027-.027.107-.08.24-.147.307-.287.573-.42.8-.12.227-.18.467-.18.72 0 .507.24.76.72.76.373 0 .773-.193 1.2-.58.293-.253.607-.613.94-1.08.28-.387.44-.58.48-.58.04 0 .06.04.06.12 0 .093-.04.207-.12.34-.907 1.507-1.847 2.26-2.82 2.26-.76 0-1.14-.48-1.14-1.44v-.26c0-.093.007-.18.02-.26a4.79 4.79 0 0 1 .22-.6 1.572 1.572 0 0 1-.46.08c-.227.307-.453.6-.68.88-.227.267-.373.433-.44.5-.373.36-.74.607-1.1.74-.36.12-.673.133-.94.04-.267-.093-.467-.293-.6-.6-.12-.307-.133-.72-.04-1.24.04-.253.113-.427.22-.52a.51.51 0 0 1 .34-.14c.12 0 .227.04.32.12a.448.448 0 0 1 .18.24c-.213.547-.32.987-.32 1.32.013.333.107.533.28.6.187.067.44-.007.76-.22.32-.227.68-.62 1.08-1.18.08-.107.2-.28.36-.52-.4-.013-.76-.107-1.08-.28-.307-.173-.513-.393-.62-.66-.107-.28-.087-.573.06-.88.147-.32.473-.627.98-.92.36-.2.667-.3.92-.3.253-.013.453.047.6.18.16.12.267.293.32.52.067.213.093.447.08.7-.013.253-.06.5-.14.74-.08.227-.193.42-.34.58h.2a.534.534 0 0 0 .2-.04c.187-.333.32-.52.4-.56a.565.565 0 0 1 .14-.08Zm-1-1.18c-.56-.187-.967-.213-1.22-.08-.24.12-.367.307-.38.56-.013.24.08.5.28.78.213.267.5.447.86.54.12-.187.227-.38.32-.58.107-.2.18-.38.22-.54.053-.173.073-.32.06-.44 0-.133-.047-.213-.14-.24Z" fill="#0F90D1"/></svg>