<svg width="279" height="63" fill="none" xmlns="http://www.w3.org/2000/svg"><path d="M170.976 45.192c0 .15-.064.33-.192.544-1.45 2.41-2.954 3.616-4.512 3.616-1.216 0-1.824-.768-1.824-2.304 0-1.365.31-2.57.928-3.616-1.493 1.344-3.018 3.2-4.576 5.568-.128.192-.224.288-.288.288-.192 0-.288-.192-.288-.576a.46.46 0 0 1 .064-.256c.448-1.088.918-2.635 1.408-4.64.064-.341.171-.843.32-1.504.064-.15.214-.299.448-.448.235-.15.448-.224.64-.224.15 0 .224.064.224.192 0 .213-.501 1.835-1.504 4.864.256-.341 1.056-1.248 2.4-2.72.448-.512 1.11-1.237 1.984-2.176.171-.15.342-.224.512-.224.491 0 .736.245.736.736a.802.802 0 0 1-.128.384c-1.194 1.963-1.792 3.52-1.792 4.672 0 .81.384 1.216 1.152 1.216.598 0 1.238-.31 1.92-.928.448-.384.95-.96 1.504-1.728.448-.619.704-.928.768-.928.064 0 .096.064.096.192Zm7.243.352c0 .043-.022.085-.064.128-.299.512-.758.95-1.376 1.312-.598.363-1.184.544-1.76.544-.427 0-.822-.107-1.184-.32-.982 1.557-1.995 2.336-3.04 2.336-.747 0-1.12-.437-1.12-1.312 0-1.216.533-2.645 1.6-4.288a3.898 3.898 0 0 1-.064-.704c0-.768.256-1.515.768-2.24.512-.725 1.141-1.088 1.888-1.088.49 0 .885.288 1.184.864.234.49.352 1.003.352 1.536 0 1.152-.448 2.613-1.344 4.384.32.192.682.288 1.088.288.704 0 1.365-.277 1.984-.832.618-.555.906-.832.864-.832.149 0 .224.075.224.224Zm-3.776-2.432c0-.47-.075-.95-.224-1.44-.214-.683-.491-1.024-.832-1.024-.491 0-.875.299-1.152.896-.214.47-.31.981-.288 1.536.341-.405.682-.608 1.024-.608.32 0 .554.107.704.32v.16a.537.537 0 0 1 .032.16c0 .064-.107.096-.32.096-.384 0-.79.405-1.216 1.216.277.81.768 1.472 1.472 1.984.533-1.344.8-2.443.8-3.296Zm-1.056 3.744c-.704-.47-1.238-1.013-1.6-1.632-.64 1.344-.96 2.315-.96 2.912 0 .427.16.64.48.64.298 0 .693-.256 1.184-.768.426-.405.725-.79.896-1.152Zm17.872-15.328c0 1.536-1.344 3.68-4.032 6.432-1.728 1.75-3.776 3.52-6.144 5.312-.426.896-.778 1.76-1.056 2.592l3.168-3.168c1.579-1.493 2.742-2.24 3.488-2.24.555 0 .832.405.832 1.216 0 .832-.576 1.643-1.728 2.432-1.066.747-2.026 1.099-2.88 1.056.448 2.048 1.302 3.072 2.56 3.072 1.238 0 2.592-.97 4.064-2.912.128-.192.256-.288.384-.288.107 0 .16.053.16.16 0 .085-.042.192-.128.32-.512.747-1.237 1.536-2.176 2.368-1.13 1.024-2.016 1.536-2.656 1.536-.789 0-1.578-.544-2.368-1.632-.725-.981-1.141-1.899-1.248-2.752a839.75 839.75 0 0 0-1.504 1.76c-.49.64-.81 1.376-.96 2.208-.234.107-.48.16-.736.16-.469 0-.704-.107-.704-.32 0-.49.448-1.76 1.344-3.808a65.393 65.393 0 0 1 4.512-8.576c2.603-4.16 4.726-6.24 6.368-6.24.96 0 1.44.437 1.44 1.312Zm-.736.448c0-.448-.181-.672-.544-.672-.554 0-1.408.49-2.56 1.472-2.026 1.685-3.744 4.245-5.152 7.68-.32.79-.48 1.248-.48 1.376 1.515-.939 3.254-2.432 5.216-4.48 2.347-2.39 3.52-4.181 3.52-5.376Zm-4.384 10.176c0-.427-.138-.64-.416-.64-.426 0-1.589.992-3.488 2.976.086.17.278.256.576.256.64 0 1.355-.277 2.144-.832.79-.576 1.184-1.163 1.184-1.76Zm14.28 3.04c0 .15-.064.33-.192.544-.554.917-1.472 1.835-2.752 2.752-1.365 1.024-2.517 1.536-3.456 1.536-.192 0-.48-.01-.864-.032h-.832c-.085 0-.405-.075-.96-.224-.661 1.707-1.557 3.499-2.688 5.376-1.6 2.603-2.901 3.904-3.904 3.904-.533 0-.8-.395-.8-1.184 0-1.045.96-2.987 2.88-5.824 1.366-1.877 2.742-3.765 4.128-5.664v-.192c0-.768-.01-1.44-.032-2.016-.81 1.323-1.322 1.984-1.536 1.984-.128 0-.192-.075-.192-.224 0-.085.032-.17.096-.256.939-1.323 1.408-2.507 1.408-3.552a.692.692 0 0 0-.192-.512c-.106-.15-.16-.267-.16-.352 0-.085.331-.128.992-.128.726 0 1.088.725 1.088 2.176 0 .213-.021.533-.064.96-.021.405-.032.704-.032.896a21.673 21.673 0 0 1 1.984-3.008c1.11-1.365 2.038-2.048 2.784-2.048.683 0 1.024.501 1.024 1.504 0 1.259-.448 2.72-1.344 4.384-.874 1.664-1.834 2.827-2.88 3.488 1.856-.043 3.915-1.483 6.176-4.32.086-.107.15-.16.192-.16.086 0 .128.064.128.192Zm-3.68-2.912c0-.661-.181-.992-.544-.992a.86.86 0 0 0-.32.064c-.768.341-1.578 1.333-2.432 2.976a20.953 20.953 0 0 0-1.536 3.744c.214.32.587.725 1.12 1.216.939-.405 1.803-1.419 2.592-3.04.747-1.536 1.12-2.859 1.12-3.968Zm-6.048 5.824c-.021-.021-.042-.032-.064-.032-.085 0-.202.107-.352.32-.512.768-1.28 1.899-2.304 3.392-.448.64-1.013 1.61-1.696 2.912-.789 1.515-1.184 2.496-1.184 2.944 0 .192.064.288.192.288.939 0 2.23-1.536 3.872-4.608.427-.81.886-2.208 1.376-4.192a1.654 1.654 0 0 1-.032-.32c0-.256.064-.49.192-.704Zm16.101 1.632c0 .128-.032.192-.096.192-.021 0-.117-.053-.288-.16-.17-.107-.48-.16-.928-.16-.213 0-.416.01-.608.032-.81 3.2-1.824 5.685-3.04 7.456-2.304 3.37-4.768 5.056-7.392 5.056-1.024 0-1.877-.299-2.56-.896-.704-.597-1.056-1.397-1.056-2.4 0-2.283 1.632-4.47 4.896-6.56 2.731-1.77 5.387-2.859 7.968-3.264.299-1.323.64-3.285 1.024-5.888-.256.619-.714 1.44-1.376 2.464-.661 1.003-1.226 1.75-1.696 2.24-.554.576-1.077.864-1.568.864-.682 0-1.024-.597-1.024-1.792 0-.683.214-1.504.64-2.464.491-1.11 1.035-1.664 1.632-1.664.299 0 .448.085.448.256 0 .021-.266.512-.8 1.472-.533.939-.8 1.664-.8 2.176 0 .683.192 1.024.576 1.024.662 0 2.102-2.144 4.32-6.432.043-.32.31-.48.8-.48.384 0 .576.085.576.256 0 .277-.138 1.184-.416 2.72-.32 1.813-.672 3.552-1.056 5.216h.128c1.131-.043 1.696.203 1.696.736Zm-3.136-.128c-1.408.235-3.082.843-5.024 1.824-1.941.981-3.424 1.963-4.448 2.944-1.621 1.536-2.432 3.061-2.432 4.576 0 .832.267 1.493.8 1.984.512.512 1.195.768 2.048.768 1.302 0 2.592-.555 3.872-1.664 1.024-.875 1.931-1.995 2.72-3.36 1.131-1.92 1.952-4.277 2.464-7.072Zm17.741-4.128c0 .085-.021.15-.064.192-.533.747-1.13 1.44-1.792 2.08-.917.853-1.685 1.28-2.304 1.28-1.002 0-1.504-1.11-1.504-3.328 0-.341.011-.725.032-1.152-.768.683-1.632 1.91-2.592 3.68-.32.597-.672.896-1.056.896-.128 0-.224-.043-.288-.128a3.482 3.482 0 0 1-.096-.896c0-.619.139-1.75.416-3.392.15-.832.224-1.365.224-1.6 0-.17-.032-.256-.096-.256-.362.32-.949 1.013-1.76 2.08A65.067 65.067 0 0 0 207.701 49c-.128.192-.234.288-.32.288-.17 0-.256-.192-.256-.576 0-.107.011-.192.032-.256.491-1.152.992-2.773 1.504-4.864.043-.299.128-.725.256-1.28.043-.15.182-.299.416-.448.256-.15.47-.224.64-.224.15 0 .224.064.224.192 0 .213-.501 1.835-1.504 4.864.768-1.024 1.558-2.08 2.368-3.168l1.152-1.536c.32-.384.651-.576.992-.576.342 0 .512.192.512.576 0 .277-.074.832-.224 1.664-.149.81-.32 2.005-.512 3.584.598-.853 1.526-2.101 2.784-3.744.342-.405.683-.608 1.024-.608.32 0 .48.203.48.608 0 .341-.053.853-.16 1.536-.106.661-.16 1.163-.16 1.504 0 1.11.288 1.664.864 1.664.811 0 1.846-.896 3.104-2.688.128-.213.235-.32.32-.32.107 0 .16.096.16.288Zm-3.232-5.952c-2.688-.64-4.661-.608-5.92.096-.234.128-.426.33-.576.608-.064.15-.096.352-.096.608s-.032.448-.096.576l-.128.096c-.213.15-.309 0-.288-.448.043-.47.15-.864.32-1.184.214-.49.576-.864 1.088-1.12.939-.555 2.176-.768 3.712-.64.384 0 1.675.181 3.872.544 1.344.235 2.23.235 2.656 0 .256-.15.438-.341.544-.576.128-.277.15-.533.064-.768-.064-.235-.053-.437.032-.608l.064-.032c.171-.107.246.107.224.64 0 .533-.064.928-.192 1.184-.32.619-.661 1.045-1.024 1.28-.533.299-1.376.352-2.528.16-.128-.064-.384-.117-.768-.16-.17 0-.49-.085-.96-.256Zm12.667 5.664c0 .15-.064.33-.192.544a11.708 11.708 0 0 1-2.08 2.56c-1.024.939-1.984 1.408-2.88 1.408-1.194 0-1.792-.747-1.792-2.24 0-.341.16-1.013.48-2.016-.746 1.088-1.226 1.76-1.44 2.016-.704.832-1.333 1.248-1.888 1.248-.704 0-1.056-.597-1.056-1.792 0-.683.224-1.504.672-2.464.491-1.11 1.024-1.664 1.6-1.664.32 0 .48.085.48.256 0 .021-.277.512-.832 1.472-.533.939-.8 1.664-.8 2.176 0 .683.203 1.024.608 1.024.683 0 1.91-1.557 3.68-4.672.15-.299.374-.715.672-1.248.15-.17.31-.256.48-.256.192 0 .363.085.512.256.171.15.256.33.256.544 0-.021-.384.693-1.152 2.144-.746 1.45-1.12 2.57-1.12 3.36 0 .747.352 1.12 1.056 1.12.598 0 1.28-.341 2.048-1.024.512-.448 1.088-1.088 1.728-1.92.534-.683.822-1.024.864-1.024.064 0 .096.064.096.192Zm10.223-1.824a52.542 52.542 0 0 1-1.376 2.688c-.49.875-.949 1.525-1.376 1.952-.597.576-1.162.95-1.696 1.12-.533.17-.981.16-1.344-.032-.362-.17-.629-.512-.8-1.024-.149-.533-.149-1.216 0-2.048.064-.405.182-.683.352-.832a.816.816 0 0 1 .544-.224c.192 0 .363.064.512.192.15.107.246.235.288.384-.341.875-.512 1.579-.512 2.112.022.533.171.853.448.96.299.107.704-.01 1.216-.352.512-.363 1.088-.992 1.728-1.888.235-.32.502-.768.8-1.344.32-.576.64-1.408.96-2.496.79-.405 1.355-.597 1.696-.576.342 0 .523.139.544.416.043.256-.032.619-.224 1.088-.192.448-.405.928-.64 1.44-.234.49-.458.97-.672 1.44-.192.448-.288.81-.288 1.088.064-.085.182-.235.352-.448.171-.235.384-.501.64-.8.256-.32.534-.661.832-1.024.32-.363.651-.725.992-1.088a92.444 92.444 0 0 1 1.984-2.176 1.53 1.53 0 0 1 .288-.224.576.576 0 0 1 .288-.096c.491 0 .736.245.736.736a.802.802 0 0 1-.128.384c-1.194 1.963-1.792 3.52-1.792 4.672 0 .81.384 1.216 1.152 1.216.598 0 1.238-.31 1.92-.928.47-.405.971-.981 1.504-1.728.448-.619.704-.928.768-.928.064 0 .096.064.096.192 0 .15-.064.33-.192.544-1.45 2.41-2.954 3.616-4.512 3.616-1.216 0-1.824-.768-1.824-2.304 0-.683.064-1.301.192-1.856.15-.576.374-1.13.672-1.664-.426.405-.821.81-1.184 1.216-.341.405-.736.885-1.184 1.44-.192.256-.384.523-.576.8a7.377 7.377 0 0 1-.576.736 2.293 2.293 0 0 1-.576.48c-.192.107-.394.096-.608-.032-.234-.15-.309-.47-.224-.96.107-.49.256-1.013.448-1.568.214-.555.416-1.056.608-1.504.192-.448.256-.704.192-.768 0-.107-.074-.16-.224-.16-.149 0-.224.053-.224.16Zm16.049 2.176a.485.485 0 0 1-.064.192c-.533.832-1.333 1.6-2.4 2.304-1.131.747-2.165 1.12-3.104 1.12-1.344 0-2.016-.843-2.016-2.528 0-1.11.48-2.325 1.44-3.648 1.024-1.408 2.08-2.112 3.168-2.112.213 0 .395.096.544.288.171.192.256.395.256.608 0 .661-.501 1.461-1.504 2.4-.896.832-1.717 1.387-2.464 1.664-.149.533-.224.981-.224 1.344 0 .875.395 1.312 1.184 1.312.747 0 1.589-.31 2.528-.928a9.591 9.591 0 0 0 2.08-1.824c.149-.213.299-.32.448-.32.085 0 .128.043.128.128Zm-3.136-3.392c0-.256-.128-.384-.384-.384-.32 0-.789.49-1.408 1.472-.533.832-.864 1.483-.992 1.952.555-.235 1.131-.65 1.728-1.248.704-.683 1.056-1.28 1.056-1.792Zm7.14 1.28c.064-.064.128-.17.192-.32s.128-.31.192-.48c.085-.17.16-.33.224-.48.085-.17.16-.288.224-.352a.704.704 0 0 1 .512-.224c.491 0 .736.245.736.736 0 .107-.043.235-.128.384-1.195 1.963-1.792 3.52-1.792 4.672 0 .81.384 1.216 1.152 1.216.597 0 1.237-.31 1.92-.928.469-.405.971-.981 1.504-1.728.448-.619.704-.928.768-.928.064 0 .096.064.096.192 0 .15-.064.33-.192.544-1.451 2.41-2.955 3.616-4.512 3.616-1.216 0-1.824-.768-1.824-2.304 0-.853.128-1.653.384-2.4-.512.128-1.035.277-1.568.448-.533.17-1.088.373-1.664.608-.043.17-.096.341-.16.512a3.2 3.2 0 0 0-.16.48c-.171 1.003-.363 1.685-.576 2.048-.213.363-.459.544-.736.544-.192 0-.288-.192-.288-.576 0-.085.021-.17.064-.256.235-.555.469-1.205.704-1.952.235-.768.469-1.664.704-2.688.043-.17.085-.373.128-.608.043-.256.107-.555.192-.896.064-.15.213-.299.448-.448.235-.15.448-.224.64-.224.149 0 .224.064.224.192 0 .107-.085.437-.256.992-.171.533-.416 1.312-.736 2.336.299-.107.661-.224 1.088-.352.427-.15.928-.31 1.504-.48.149-.021.363-.085.64-.192.107-.235.224-.47.352-.704Zm12.74.512c.47.043.704.288.704.736 0 .043-.042.17-.128.384-.234.49-.458.917-.672 1.28a2.428 2.428 0 0 0-.288 1.152c0 .81.384 1.216 1.152 1.216.598 0 1.238-.31 1.92-.928.47-.405.971-.981 1.504-1.728.448-.619.704-.928.768-.928.064 0 .096.064.096.192 0 .15-.064.33-.192.544-1.45 2.41-2.954 3.616-4.512 3.616-1.216 0-1.824-.768-1.824-2.304v-.416c0-.15.011-.288.032-.416.086-.299.203-.619.352-.96a2.52 2.52 0 0 1-.736.128c-.362.49-.725.96-1.088 1.408-.362.427-.597.693-.704.8-.597.576-1.184.97-1.76 1.184-.576.192-1.077.213-1.504.064-.426-.15-.746-.47-.96-.96-.192-.49-.213-1.152-.064-1.984.064-.405.182-.683.352-.832a.816.816 0 0 1 .544-.224c.192 0 .363.064.512.192.15.107.246.235.288.384-.341.875-.512 1.579-.512 2.112.022.533.171.853.448.96.299.107.704-.01 1.216-.352.512-.363 1.088-.992 1.728-1.888.128-.17.32-.448.576-.832a3.845 3.845 0 0 1-1.728-.448c-.49-.277-.821-.63-.992-1.056-.17-.448-.138-.917.096-1.408.235-.512.758-1.003 1.568-1.472.576-.32 1.067-.48 1.472-.48.406-.021.726.075.96.288.256.192.427.47.512.832.107.341.15.715.128 1.12-.021.405-.096.8-.224 1.184a2.663 2.663 0 0 1-.544.928h.32a.852.852 0 0 0 .32-.064c.299-.533.512-.832.64-.896.128-.085.203-.128.224-.128Zm-1.6-1.888c-.896-.299-1.546-.341-1.952-.128-.384.192-.586.49-.608.896-.021.384.128.8.448 1.248.342.427.8.715 1.376.864a7.82 7.82 0 0 0 .512-.928 3.86 3.86 0 0 0 .352-.864c.086-.277.118-.512.096-.704 0-.213-.074-.341-.224-.384ZM120 36l.449.22L120 36ZM.501 49.708a.5.5 0 0 0 .537.46l4.487-.342a.5.5 0 1 0-.076-.997l-3.989.305-.304-3.989a.5.5 0 0 0-.997.076L.5 49.709Zm.878.288c.62-.722 1.25-1.434 1.89-2.134l-.738-.675a92.503 92.503 0 0 0-1.91 2.158l.758.65Zm4.511-4.887a95.747 95.747 0 0 1 4.134-3.927l-.667-.745a96.748 96.748 0 0 0-4.177 3.968l.71.704Zm7.016-6.407a101.487 101.487 0 0 1 4.494-3.511l-.593-.805a102.588 102.588 0 0 0-4.539 3.546l.638.77Zm7.597-5.712a107.216 107.216 0 0 1 4.796-3.088l-.52-.855a108.382 108.382 0 0 0-4.84 3.117l.564.826Zm8.082-5.006a112.37 112.37 0 0 1 5.046-2.663l-.444-.896c-1.714.85-3.412 1.746-5.091 2.687l.489.872Zm8.483-4.297c1.74-.79 3.491-1.536 5.251-2.235l-.369-.93a117.131 117.131 0 0 0-5.296 2.255l.414.91Zm8.811-3.582c1.8-.648 3.608-1.248 5.416-1.8l-.293-.957a118.115 118.115 0 0 0-5.462 1.817l.339.94Zm9.072-2.854c1.852-.5 3.701-.952 5.545-1.354l-.213-.977c-1.86.406-3.726.86-5.593 1.366l.261.965Zm9.273-2.1c1.89-.346 3.771-.64 5.636-.88l-.128-.993c-1.882.244-3.78.54-5.688.889l.18.983Zm9.42-1.3c1.92-.178 3.82-.299 5.692-.363l-.034-1c-1.893.066-3.811.188-5.75.367l.092.996Zm9.49-.417c.957.007 1.906.029 2.846.066l.04-1a88.117 88.117 0 0 0-2.88-.066l-.007 1Zm2.846.066c1.037.04 2.055.088 3.054.142l.054-.999a210.785 210.785 0 0 0-3.068-.143l-.04 1Zm7.11.407c2.125.165 4.15.367 6.067.608l.125-.992a128.589 128.589 0 0 0-6.115-.613l-.078.997Zm10.079 1.2c2.143.369 4.118.8 5.916 1.3l.268-.963c-1.837-.511-3.846-.95-6.015-1.322l-.169.986Zm9.736 2.577c2.084.836 3.809 1.807 5.161 2.922l.636-.771c-1.452-1.198-3.274-2.216-5.425-3.079l-.372.928Zm7.676 5.865c.894 1.61 1.265 3.468 1.049 5.623l.995.1c.234-2.336-.166-4.401-1.17-6.208l-.874.485Zm.144 9.466a26.167 26.167 0 0 1-1.174 2.765l.898.44c.486-.992.892-1.949 1.219-2.87l-.943-.335Zm-1.174 2.765c-.437.892-.946 1.68-1.515 2.37l.771.636a13.008 13.008 0 0 0 1.642-2.566l-.898-.44Zm-4.332 4.787c-1.598.949-3.42 1.478-5.337 1.642l.085.996c2.045-.174 4.017-.741 5.762-1.778l-.51-.86Zm-9.12 1.516a20.059 20.059 0 0 1-5.46-1.627l-.417.91a21.068 21.068 0 0 0 5.734 1.707l.143-.99Zm-8.757-3.53c-1.594-1.138-2.97-2.49-4.006-3.994l-.823.567c1.11 1.612 2.573 3.045 4.249 4.24l.58-.813Zm-5.64-7.35a9.99 9.99 0 0 1-.071-5.51l-.966-.258a10.991 10.991 0 0 0 .08 6.053l.958-.285Zm1.446-8.918a17.264 17.264 0 0 1 1.726-2.283l-.748-.664c-.713.804-1.32 1.61-1.825 2.416l.847.531Zm1.726-2.283a76.54 76.54 0 0 1 2.016-2.185l-.721-.692c-.69.718-1.37 1.456-2.043 2.213l.748.664Zm4.835-4.963a62.872 62.872 0 0 1 4.52-3.838l-.609-.793a63.896 63.896 0 0 0-4.593 3.899l.681.732Zm7.733-6.135a49.891 49.891 0 0 1 5.114-2.973l-.449-.893a50.757 50.757 0 0 0-5.216 3.032l.551.834Zm8.71-4.59a41.49 41.49 0 0 1 5.625-1.79l-.234-.971a42.594 42.594 0 0 0-5.761 1.832l.37.93Zm9.492-2.518a39.018 39.018 0 0 1 5.887-.358l.015-1a40.022 40.022 0 0 0-6.038.367l.136.99Zm9.813-.106c1.912.217 3.848.573 5.806 1.075l.249-.969a43.799 43.799 0 0 0-5.942-1.1l-.113.994Zm9.581 2.215c.919.32 1.842.672 2.77 1.057l.384-.924a51.915 51.915 0 0 0-2.826-1.077l-.328.944Zm2.77 1.057c.934.387 1.842.795 2.723 1.221l.436-.9a53.466 53.466 0 0 0-2.775-1.245l-.384.924Zm6.231 3.085a53.438 53.438 0 0 1 4.975 3.275l.595-.803a54.355 54.355 0 0 0-5.068-3.337l-.502.865Zm8.077 5.753a57.15 57.15 0 0 1 4.315 4.12l.727-.687a58.158 58.158 0 0 0-4.39-4.192l-.652.759Zm6.946 7.103a58.847 58.847 0 0 1 3.554 4.788l.832-.554a59.8 59.8 0 0 0-3.614-4.87l-.772.636Zm5.635 8.176c.46.82.798 1.478 1.019 1.93a23.99 23.99 0 0 1 .307.648l.014.032a.019.019 0 0 1 .003.008l.001.001.459-.198.459-.198-.001-.002-.001-.003-.004-.01-.017-.037a21.864 21.864 0 0 0-.322-.682 39.598 39.598 0 0 0-1.046-1.979l-.871.49Z" fill="#0F90D1"/></svg>