<svg width="96" height="96" fill="none" xmlns="http://www.w3.org/2000/svg"><path d="M31.329 45.5c3.73 1.641 6.638 4.103 8.727 7.385 2.089 3.282 3.133 7.16 3.133 11.636 0 6.415-2.014 11.637-6.042 15.665-4.028 3.878-9.175 5.818-15.44 5.818-6.266 0-11.488-2.014-15.665-6.042C2.014 75.934 0 70.787 0 64.522c0-2.984.373-5.968 1.119-8.952.746-2.983 2.387-7.459 4.923-13.426L19.021 9.92h22.154L31.329 45.5Zm52.81 0c3.73 1.641 6.64 4.103 8.728 7.385C94.956 56.167 96 60.045 96 64.521c0 6.415-2.014 11.637-6.042 15.665-4.028 3.878-9.175 5.818-15.44 5.818-6.266 0-11.488-2.014-15.665-6.042-4.028-4.028-6.042-9.175-6.042-15.44 0-2.984.373-5.968 1.12-8.952.745-2.983 2.386-7.459 4.922-13.426L71.833 9.92h22.153L84.14 45.5Z" fill="#18263A"/></svg>