<svg width="195" height="62" fill="none" xmlns="http://www.w3.org/2000/svg"><path d="M30.576 6.099c-.896.747-2.016 1.952-3.36 3.616a112.95 112.95 0 0 0-2.496 3.264 49.735 49.735 0 0 0-2.016 3.04c-.17.32-.341.619-.512.896-.15.256-.288.501-.416.736a1.965 1.965 0 0 1-.192.352c-.064.128-.15.267-.256.416a.833.833 0 0 1-.256.032c-.597 0-.907-.256-.928-.768 0-.107.032-.213.096-.32.021-.021.107-.203.256-.544.17-.341.352-.747.544-1.216.213-.49.427-.992.64-1.504.235-.512.437-.96.608-1.344.192-.832.405-1.643.64-2.432.256-.79.501-1.525.736-2.208l.64-1.856c.192-.576.341-1.045.448-1.408.128-.47.16-.757.096-.864-.064-.107-.288.021-.672.384-.085.15-.747 1.035-1.984 2.656-.341.47-.672.917-.992 1.344a19.02 19.02 0 0 1-.896 1.184c-.299.363-.779.96-1.44 1.792-.64.832-1.472 1.888-2.496 3.168-1.707 1.877-3.584 3.392-5.632 4.544-2.517 1.365-4.821 1.824-6.912 1.376-.96-.213-1.717-.597-2.272-1.152-.661-.661-.885-1.45-.672-2.368.277-1.472 1.61-2.88 4-4.224 2.261-1.301 4.117-1.813 5.568-1.536.17.043.245.139.224.288-.043.15-.213.235-.512.256-2.539.384-4.693 1.301-6.464 2.752-1.067.896-1.707 1.856-1.92 2.88-.299 1.323.32 2.144 1.856 2.464 2.09.427 4.352-.139 6.784-1.696 1.856-1.173 3.68-2.773 5.472-4.8 1.792-2.005 3.04-3.445 3.744-4.32.363-.427.715-.853 1.056-1.28.341-.448.693-.907 1.056-1.376.192-.277.437-.608.736-.992.299-.405.65-.875 1.056-1.408.213-.448.533-.757.96-.928a3.439 3.439 0 0 1 1.216-.32c.384-.021.693 0 .928.064.235.043.267.064.096.064.192 0 .288.096.288.288 0 .064-.053.181-.16.352l-.384.64c-.107.192-.213.395-.32.608-.32.619-.597 1.227-.832 1.824a32.161 32.161 0 0 0-.672 1.888c-.192.64-.395 1.344-.608 2.112-.192.747-.416 1.6-.672 2.56a77.326 77.326 0 0 1 4.192-4.864c.47-.512.96-.992 1.472-1.44.512-.47 1.024-.875 1.536-1.216a7.474 7.474 0 0 1 1.472-.832c.49-.213.928-.32 1.312-.32.192 0 .288.096.288.288 0 .213-.064.47-.192.768a14.15 14.15 0 0 1-.384.896c-.15.32-.31.64-.48.96-.15.299-.256.555-.32.768-.299.81-.587 1.632-.864 2.464-.256.81-.533 1.632-.832 2.464-.704 2.304-1.045 3.947-1.024 4.928.021.79.31 1.184.864 1.184.299 0 .672-.192 1.12-.576.49-.363.768-.544.832-.544.085 0 .128.053.128.16.043.448-.235.832-.832 1.152-.512.32-.981.48-1.408.48-1.13 0-1.728-.725-1.792-2.176-.043-.939.15-2.208.576-3.808.17-.576.373-1.227.608-1.952.256-.747.544-1.568.864-2.464.128-.299.277-.661.448-1.088.17-.427.352-.95.544-1.568.128-.47.096-.779-.096-.928-.17-.17-.448-.075-.832.288Zm10.746 9.44a.492.492 0 0 1-.064.192c-.533.832-1.333 1.6-2.4 2.304-1.13.747-2.165 1.12-3.104 1.12-1.344 0-2.016-.843-2.016-2.528 0-1.11.48-2.325 1.44-3.648 1.024-1.408 2.08-2.112 3.168-2.112.214 0 .395.096.544.288.17.192.256.395.256.608 0 .661-.501 1.461-1.504 2.4-.896.832-1.717 1.387-2.464 1.664-.15.533-.224.981-.224 1.344 0 .875.395 1.312 1.184 1.312.747 0 1.59-.31 2.528-.928a9.6 9.6 0 0 0 2.08-1.824c.15-.213.299-.32.448-.32.086 0 .128.043.128.128Zm-3.136-3.392c0-.256-.128-.384-.384-.384-.32 0-.79.49-1.408 1.472-.533.832-.864 1.483-.992 1.952.555-.235 1.13-.65 1.728-1.248.704-.683 1.056-1.28 1.056-1.792Zm7.14 1.28c.064-.064.128-.17.192-.32s.128-.31.192-.48c.086-.17.16-.33.224-.48.086-.17.16-.288.224-.352.15-.15.32-.224.512-.224.49 0 .736.245.736.736 0 .107-.042.235-.128.384-1.194 1.963-1.792 3.52-1.792 4.672 0 .81.384 1.216 1.152 1.216.598 0 1.238-.31 1.92-.928.47-.405.97-.981 1.504-1.728.448-.619.704-.928.768-.928.064 0 .096.064.096.192 0 .15-.064.33-.192.544-1.45 2.41-2.954 3.616-4.512 3.616-1.216 0-1.824-.768-1.824-2.304 0-.853.128-1.653.384-2.4a25.18 25.18 0 0 0-1.568.448 22.99 22.99 0 0 0-1.664.608c-.042.17-.096.341-.16.512-.064.15-.117.31-.16.48-.17 1.003-.362 1.685-.576 2.048-.213.363-.458.544-.736.544-.192 0-.288-.192-.288-.576 0-.085.022-.17.064-.256.235-.555.47-1.205.704-1.952.235-.768.47-1.664.704-2.688a9.78 9.78 0 0 0 .128-.608c.043-.256.107-.555.192-.896.064-.15.214-.299.448-.448.235-.15.448-.224.64-.224.15 0 .224.064.224.192 0 .107-.085.437-.256.992-.17.533-.416 1.312-.736 2.336.299-.107.662-.224 1.088-.352.427-.15.928-.31 1.504-.48.15-.021.363-.085.64-.192.107-.235.224-.47.352-.704Zm12.74.512c.47.043.704.288.704.736 0 .043-.042.17-.128.384-.234.49-.458.917-.672 1.28a2.428 2.428 0 0 0-.288 1.152c0 .81.384 1.216 1.152 1.216.598 0 1.238-.31 1.92-.928.47-.405.971-.981 1.505-1.728.447-.619.703-.928.767-.928.064 0 .096.064.096.192 0 .15-.063.33-.191.544-1.451 2.41-2.955 3.616-4.512 3.616-1.216 0-1.825-.768-1.825-2.304v-.416c0-.15.011-.288.032-.416.086-.299.203-.619.352-.96a2.52 2.52 0 0 1-.736.128c-.362.49-.725.96-1.087 1.408-.363.427-.598.693-.705.8-.597.576-1.184.97-1.76 1.184-.575.192-1.077.213-1.503.064-.427-.15-.747-.47-.96-.96-.192-.49-.214-1.152-.064-1.984.064-.405.18-.683.352-.832a.815.815 0 0 1 .544-.224c.192 0 .362.064.512.192.149.107.245.235.288.384-.342.875-.513 1.579-.513 2.112.022.533.171.853.449.96.298.107.703-.01 1.215-.352.513-.363 1.089-.992 1.729-1.888.128-.17.32-.448.576-.832a3.845 3.845 0 0 1-1.728-.448c-.491-.277-.822-.63-.993-1.056-.17-.448-.138-.917.096-1.408.235-.512.758-1.003 1.569-1.472.575-.32 1.066-.48 1.471-.48.406-.021.726.075.96.288.257.192.427.47.513.832.106.341.149.715.127 1.12-.02.405-.096.8-.224 1.184-.128.363-.309.672-.544.928h.32a.855.855 0 0 0 .32-.064c.3-.533.513-.832.64-.896.129-.085.203-.128.224-.128Zm-1.6-1.888c-.895-.299-1.546-.341-1.952-.128-.384.192-.586.49-.608.896-.02.384.129.8.449 1.248.34.427.8.715 1.376.864.191-.299.362-.608.511-.928.171-.32.289-.608.352-.864.086-.277.118-.512.096-.704 0-.213-.074-.341-.223-.384Zm13.075 3.488a.49.49 0 0 1-.064.192c-.533.832-1.333 1.6-2.4 2.304-1.13.747-2.165 1.12-3.104 1.12-1.344 0-2.016-.843-2.016-2.528 0-1.11.48-2.325 1.44-3.648 1.024-1.408 2.08-2.112 3.168-2.112.213 0 .395.096.544.288.17.192.256.395.256.608 0 .661-.501 1.461-1.504 2.4-.896.832-1.717 1.387-2.464 1.664-.15.533-.224.981-.224 1.344 0 .875.395 1.312 1.184 1.312.747 0 1.59-.31 2.528-.928a9.598 9.598 0 0 0 2.08-1.824c.15-.213.299-.32.448-.32.085 0 .128.043.128.128Zm-3.136-3.392c0-.256-.128-.384-.384-.384-.32 0-.79.49-1.408 1.472-.533.832-.864 1.483-.992 1.952.555-.235 1.13-.65 1.728-1.248.704-.683 1.056-1.28 1.056-1.792Zm8.9 1.216a53.362 53.362 0 0 1-1.376 2.688c-.49.875-.95 1.525-1.376 1.952-.597.576-1.163.95-1.696 1.12-.533.17-.981.16-1.344-.032-.363-.17-.63-.512-.8-1.024-.15-.533-.15-1.216 0-2.048.064-.405.181-.683.352-.832a.815.815 0 0 1 .544-.224c.192 0 .363.064.512.192.15.107.245.235.288.384-.341.875-.512 1.579-.512 2.112.021.533.17.853.448.96.299.107.704-.01 1.216-.352.512-.363 1.088-.992 1.728-1.888.235-.32.501-.768.8-1.344.32-.576.64-1.408.96-2.496.79-.405 1.355-.597 1.696-.576.341 0 .523.139.544.416.043.256-.032.619-.224 1.088a63.46 63.46 0 0 1-.64 1.44c-.235.49-.459.97-.672 1.44-.192.448-.288.81-.288 1.088.064-.085.181-.235.352-.448.17-.235.384-.501.64-.8.256-.32.533-.661.832-1.024.32-.363.65-.725.992-1.088a91.773 91.773 0 0 1 1.984-2.176c.085-.085.181-.16.288-.224a.574.574 0 0 1 .288-.096c.49 0 .736.245.736.736 0 .107-.043.235-.128.384-1.195 1.963-1.792 3.52-1.792 4.672 0 .81.384 1.216 1.152 1.216.597 0 1.237-.31 1.92-.928.47-.405.97-.981 1.504-1.728.448-.619.704-.928.768-.928.064 0 .096.064.096.192 0 .15-.064.33-.192.544-1.45 2.41-2.955 3.616-4.512 3.616-1.216 0-1.824-.768-1.824-2.304 0-.683.064-1.301.192-1.856.15-.576.373-1.13.672-1.664-.427.405-.821.81-1.184 1.216-.341.405-.736.885-1.184 1.44-.192.256-.384.523-.576.8a7.377 7.377 0 0 1-.576.736 2.293 2.293 0 0 1-.576.48c-.192.107-.395.096-.608-.032-.235-.15-.31-.47-.224-.96.107-.49.256-1.013.448-1.568.213-.555.416-1.056.608-1.504.192-.448.256-.704.192-.768 0-.107-.075-.16-.224-.16-.15 0-.224.053-.224.16Zm21.6 1.856c0 .085-.065.203-.193.352-.746 1.088-1.781 2.08-3.104 2.976-.768.49-1.578.736-2.432.736-1.578 0-2.368-.843-2.368-2.528 0-1.045.576-2.197 1.728-3.456 1.174-1.259 2.272-1.888 3.296-1.888.683 0 1.024.267 1.024.8 0 .213-.16.587-.48 1.12-.298.512-.544.768-.736.768-.085 0-.128-.053-.128-.16 0-.085.032-.224.096-.416.086-.192.128-.341.128-.448 0-.448-.277-.672-.832-.672-.768 0-1.461.501-2.08 1.504-.576.917-.864 1.781-.864 2.592 0 1.323.576 1.984 1.728 1.984 1.45 0 2.966-.992 4.544-2.976.214-.256.395-.384.544-.384.086 0 .128.032.128.096Zm6.199.32a.503.503 0 0 1-.064.192c-.534.832-1.334 1.6-2.4 2.304-1.131.747-2.166 1.12-3.105 1.12-1.343 0-2.016-.843-2.016-2.528 0-1.11.48-2.325 1.44-3.648 1.025-1.408 2.08-2.112 3.169-2.112.213 0 .394.096.544.288.17.192.256.395.256.608 0 .661-.502 1.461-1.504 2.4-.897.832-1.718 1.387-2.465 1.664-.149.533-.224.981-.224 1.344 0 .875.395 1.312 1.184 1.312.747 0 1.59-.31 2.529-.928a9.615 9.615 0 0 0 2.08-1.824c.149-.213.298-.32.448-.32.085 0 .128.043.128.128Zm-3.136-3.392c0-.256-.129-.384-.385-.384-.32 0-.789.49-1.407 1.472-.534.832-.865 1.483-.993 1.952.555-.235 1.131-.65 1.728-1.248.704-.683 1.056-1.28 1.056-1.792Zm15.908-7.328c-.299.405-.822.757-1.568 1.056-.747.299-1.888.501-3.424.608-.875.043-1.696.352-2.464.928-.768.555-1.526 1.472-2.272 2.752-.363.619-.662 1.13-.896 1.536-.214.384-.395.736-.544 1.056-.15.299-.278.587-.384.864-.107.277-.214.608-.32.992a15.785 15.785 0 0 1 1.952-2.752c1.024-1.173 1.93-1.76 2.72-1.76.64 0 .959.459.959 1.376 0 1.323-.415 2.827-1.247 4.512a10.263 10.263 0 0 1-2.176 3.008c-1.067 1.003-2.155 1.504-3.264 1.504-.854 0-1.28-.16-1.28-.48 0-.128.064-.192.192-.192.064 0 .213.032.448.096.256.085.469.128.64.128.96 0 1.909-.544 2.848-1.632.704-.832 1.28-1.803 1.728-2.912.405-.96.608-2.016.608-3.168 0-.704-.16-1.056-.48-1.056-.704 0-1.643.97-2.816 2.912-1.11 1.813-1.664 3.168-1.664 4.064 0 .235.074.416.224.544.17.128.256.235.256.32 0 .085-.054.128-.16.128-.79 0-1.184-.576-1.184-1.728 0-.832.213-1.835.64-3.008a18.676 18.676 0 0 1 1.728-3.552 19.78 19.78 0 0 1 2.464-3.264c.917-1.003 1.877-1.728 2.88-2.176.512-.213.992-.384 1.44-.512a12.16 12.16 0 0 1 1.216-.288c.384-.085.725-.16 1.024-.224.298-.064.565-.15.8-.256.32-.128.586-.256.8-.384.234-.15.416-.235.544-.256.128-.021.192.064.192.256.021.17-.032.49-.16.96Zm2.597 9.12c.469.043.704.288.704.736 0 .043-.043.17-.128.384-.235.49-.459.917-.672 1.28a2.428 2.428 0 0 0-.288 1.152c0 .81.384 1.216 1.152 1.216.597 0 1.237-.31 1.92-.928.469-.405.97-.981 1.504-1.728.448-.619.704-.928.768-.928.064 0 .096.064.096.192 0 .15-.064.33-.192.544-1.451 2.41-2.955 3.616-4.512 3.616-1.216 0-1.824-.768-1.824-2.304v-.416c0-.15.01-.288.032-.416a7.51 7.51 0 0 1 .352-.96 2.52 2.52 0 0 1-.736.128c-.363.49-.726.96-1.088 1.408-.363.427-.598.693-.704.8-.598.576-1.184.97-1.76 1.184-.576.192-1.078.213-1.504.064-.427-.15-.747-.47-.96-.96-.192-.49-.214-1.152-.064-1.984.064-.405.181-.683.352-.832a.814.814 0 0 1 .544-.224c.192 0 .362.064.512.192a.715.715 0 0 1 .288.384c-.342.875-.512 1.579-.512 2.112.021.533.17.853.448.96.298.107.704-.01 1.216-.352.512-.363 1.088-.992 1.728-1.888.128-.17.32-.448.576-.832a3.845 3.845 0 0 1-1.728-.448c-.491-.277-.822-.63-.992-1.056-.171-.448-.139-.917.096-1.408.234-.512.757-1.003 1.568-1.472.576-.32 1.066-.48 1.472-.48.405-.021.725.075.96.288.256.192.426.47.512.832.106.341.149.715.128 1.12-.022.405-.096.8-.224 1.184-.128.363-.31.672-.544.928h.32a.86.86 0 0 0 .32-.064c.298-.533.512-.832.64-.896.128-.085.202-.128.224-.128Zm-1.6-1.888c-.896-.299-1.547-.341-1.952-.128-.384.192-.587.49-.608.896-.022.384.128.8.448 1.248.341.427.8.715 1.376.864.192-.299.362-.608.512-.928.17-.32.288-.608.352-.864.085-.277.117-.512.096-.704 0-.213-.075-.341-.224-.384Zm13.554 3.072c0 .15-.277.235-.832.256-1.472.107-3.69.235-6.656.384h-.16c-.426.021-.64-.053-.64-.224 0-.277.374-.544 1.12-.8.342-.128 1.014-.192 2.016-.192 1.664 0 3.104.085 4.32.256.555.085.832.192.832.32ZM85.68 39.363a53.362 53.362 0 0 1-1.376 2.688c-.49.875-.95 1.525-1.376 1.952-.597.576-1.163.95-1.696 1.12-.533.17-.981.16-1.344-.032-.363-.17-.63-.512-.8-1.024-.15-.533-.15-1.216 0-2.048.064-.405.181-.683.352-.832a.815.815 0 0 1 .544-.224c.192 0 .363.064.512.192.15.107.245.235.288.384-.341.875-.512 1.579-.512 2.112.021.533.17.853.448.96.299.107.704-.01 1.216-.352.512-.363 1.088-.992 1.728-1.888.235-.32.501-.768.8-1.344.32-.576.64-1.408.96-2.496.79-.405 1.355-.597 1.696-.576.341 0 .523.139.544.416.043.256-.032.619-.224 1.088a63.46 63.46 0 0 1-.64 1.44c-.235.49-.459.97-.672 1.44-.192.448-.288.81-.288 1.088.064-.085.181-.235.352-.448.17-.235.384-.501.64-.8.256-.32.533-.661.832-1.024.32-.363.65-.725.992-1.088a91.773 91.773 0 0 1 1.984-2.176c.085-.085.181-.16.288-.224a.574.574 0 0 1 .288-.096c.49 0 .736.245.736.736 0 .107-.043.235-.128.384-1.195 1.963-1.792 3.52-1.792 4.672 0 .81.384 1.216 1.152 1.216.597 0 1.237-.31 1.92-.928.47-.405.97-.981 1.504-1.728.448-.619.704-.928.768-.928.064 0 .096.064.096.192 0 .15-.064.33-.192.544-1.45 2.41-2.955 3.616-4.512 3.616-1.216 0-1.824-.768-1.824-2.304 0-.683.064-1.301.192-1.856.15-.576.373-1.13.672-1.664-.427.405-.821.81-1.184 1.216-.341.405-.736.885-1.184 1.44-.192.256-.384.523-.576.8a7.377 7.377 0 0 1-.576.736 2.293 2.293 0 0 1-.576.48c-.192.107-.395.096-.608-.032-.235-.15-.31-.47-.224-.96.107-.49.256-1.013.448-1.568.213-.555.416-1.056.608-1.504.192-.448.256-.704.192-.768 0-.107-.075-.16-.224-.16-.15 0-.224.053-.224.16Zm16.049 2.176a.503.503 0 0 1-.064.192c-.534.832-1.334 1.6-2.4 2.304-1.131.747-2.166 1.12-3.105 1.12-1.343 0-2.016-.843-2.016-2.528 0-1.11.48-2.325 1.44-3.648 1.025-1.408 2.08-2.112 3.168-2.112.214 0 .395.096.544.288.171.192.256.395.256.608 0 .661-.5 1.461-1.504 2.4-.895.832-1.717 1.387-2.463 1.664-.15.533-.224.981-.224 1.344 0 .875.394 1.312 1.183 1.312.747 0 1.59-.31 2.529-.928a9.601 9.601 0 0 0 2.08-1.824c.149-.213.298-.32.448-.32.085 0 .128.043.128.128Zm-3.136-3.392c0-.256-.129-.384-.385-.384-.32 0-.789.49-1.407 1.472-.534.832-.865 1.483-.993 1.952.555-.235 1.131-.65 1.728-1.248.704-.683 1.056-1.28 1.056-1.792Zm7.14 1.28c.064-.064.128-.17.192-.32s.128-.31.192-.48c.085-.17.16-.33.224-.48.085-.17.16-.288.224-.352a.704.704 0 0 1 .512-.224c.49 0 .735.245.735.736a.81.81 0 0 1-.127.384c-1.195 1.963-1.792 3.52-1.792 4.672 0 .81.384 1.216 1.152 1.216.597 0 1.237-.31 1.92-.928.469-.405.97-.981 1.504-1.728.448-.619.704-.928.768-.928.064 0 .096.064.096.192 0 .15-.064.33-.192.544-1.451 2.41-2.955 3.616-4.512 3.616-1.216 0-1.824-.768-1.824-2.304 0-.853.128-1.653.384-2.4-.512.128-1.035.277-1.568.448-.534.17-1.088.373-1.664.608-.043.17-.096.341-.16.512-.064.15-.118.31-.16.48-.171 1.003-.363 1.685-.576 2.048-.214.363-.459.544-.736.544-.192 0-.288-.192-.288-.576 0-.085.021-.17.064-.256.234-.555.469-1.205.704-1.952.234-.768.469-1.664.704-2.688.042-.17.085-.373.128-.608.042-.256.106-.555.192-.896.064-.15.213-.299.448-.448.234-.15.448-.224.64-.224.149 0 .224.064.224.192 0 .107-.086.437-.256.992-.171.533-.416 1.312-.736 2.336a22.26 22.26 0 0 1 1.088-.352c.426-.15.928-.31 1.504-.48.149-.021.362-.085.64-.192.106-.235.224-.47.352-.704Zm12.74.512c.469.043.704.288.704.736 0 .043-.043.17-.128.384-.235.49-.459.917-.672 1.28a2.428 2.428 0 0 0-.288 1.152c0 .81.384 1.216 1.152 1.216.597 0 1.237-.31 1.92-.928.469-.405.97-.981 1.504-1.728.448-.619.704-.928.768-.928.064 0 .096.064.096.192 0 .15-.064.33-.192.544-1.451 2.41-2.955 3.616-4.512 3.616-1.216 0-1.824-.768-1.824-2.304v-.416c0-.15.01-.288.032-.416a7.51 7.51 0 0 1 .352-.96 2.52 2.52 0 0 1-.736.128c-.363.49-.726.96-1.088 1.408-.363.427-.598.693-.704.8-.598.576-1.184.97-1.76 1.184-.576.192-1.078.213-1.504.064-.427-.15-.747-.47-.96-.96-.192-.49-.214-1.152-.064-1.984.064-.405.181-.683.352-.832a.814.814 0 0 1 .544-.224c.192 0 .362.064.512.192a.715.715 0 0 1 .288.384c-.342.875-.512 1.579-.512 2.112.021.533.17.853.448.96.298.107.704-.01 1.216-.352.512-.363 1.088-.992 1.728-1.888.128-.17.32-.448.576-.832a3.845 3.845 0 0 1-1.728-.448c-.491-.277-.822-.63-.992-1.056-.171-.448-.139-.917.096-1.408.234-.512.757-1.003 1.568-1.472.576-.32 1.066-.48 1.472-.48.405-.021.725.075.96.288.256.192.426.47.512.832.106.341.149.715.128 1.12-.022.405-.096.8-.224 1.184-.128.363-.31.672-.544.928h.32a.86.86 0 0 0 .32-.064c.298-.533.512-.832.64-.896.128-.085.202-.128.224-.128Zm-1.6-1.888c-.896-.299-1.547-.341-1.952-.128-.384.192-.587.49-.608.896-.022.384.128.8.448 1.248.341.427.8.715 1.376.864.192-.299.362-.608.512-.928.17-.32.288-.608.352-.864.085-.277.117-.512.096-.704 0-.213-.075-.341-.224-.384Zm13.074 3.488a.485.485 0 0 1-.064.192c-.533.832-1.333 1.6-2.4 2.304-1.13.747-2.165 1.12-3.104 1.12-1.344 0-2.016-.843-2.016-2.528 0-1.11.48-2.325 1.44-3.648 1.024-1.408 2.08-2.112 3.168-2.112.214 0 .395.096.544.288.171.192.256.395.256.608 0 .661-.501 1.461-1.504 2.4-.896.832-1.717 1.387-2.464 1.664-.149.533-.224.981-.224 1.344 0 .875.395 1.312 1.184 1.312.747 0 1.59-.31 2.528-.928a9.591 9.591 0 0 0 2.08-1.824c.15-.213.299-.32.448-.32.086 0 .128.043.128.128Zm-3.136-3.392c0-.256-.128-.384-.384-.384-.32 0-.789.49-1.408 1.472-.533.832-.864 1.483-.992 1.952.555-.235 1.131-.65 1.728-1.248.704-.683 1.056-1.28 1.056-1.792Zm8.9 1.216a52.542 52.542 0 0 1-1.376 2.688c-.49.875-.949 1.525-1.376 1.952-.597.576-1.162.95-1.696 1.12-.533.17-.981.16-1.344-.032-.362-.17-.629-.512-.8-1.024-.149-.533-.149-1.216 0-2.048.064-.405.182-.683.352-.832a.816.816 0 0 1 .544-.224c.192 0 .363.064.512.192.15.107.246.235.288.384-.341.875-.512 1.579-.512 2.112.022.533.171.853.448.96.299.107.704-.01 1.216-.352.512-.363 1.088-.992 1.728-1.888.235-.32.502-.768.8-1.344.32-.576.64-1.408.96-2.496.79-.405 1.355-.597 1.696-.576.342 0 .523.139.544.416.043.256-.032.619-.224 1.088-.192.448-.405.928-.64 1.44-.234.49-.458.97-.672 1.44-.192.448-.288.81-.288 1.088.064-.085.182-.235.352-.448.171-.235.384-.501.64-.8.256-.32.534-.661.832-1.024.32-.363.651-.725.992-1.088a92.444 92.444 0 0 1 1.984-2.176 1.53 1.53 0 0 1 .288-.224.576.576 0 0 1 .288-.096c.491 0 .736.245.736.736a.802.802 0 0 1-.128.384c-1.194 1.963-1.792 3.52-1.792 4.672 0 .81.384 1.216 1.152 1.216.598 0 1.238-.31 1.92-.928.47-.405.971-.981 1.504-1.728.448-.619.704-.928.768-.928.064 0 .096.064.096.192 0 .15-.064.33-.192.544-1.45 2.41-2.954 3.616-4.512 3.616-1.216 0-1.824-.768-1.824-2.304 0-.683.064-1.301.192-1.856.15-.576.374-1.13.672-1.664-.426.405-.821.81-1.184 1.216-.341.405-.736.885-1.184 1.44-.192.256-.384.523-.576.8a7.377 7.377 0 0 1-.576.736 2.293 2.293 0 0 1-.576.48c-.192.107-.394.096-.608-.032-.234-.15-.309-.47-.224-.96.107-.49.256-1.013.448-1.568.214-.555.416-1.056.608-1.504.192-.448.256-.704.192-.768 0-.107-.074-.16-.224-.16-.149 0-.224.053-.224.16Zm20.032 0a54.21 54.21 0 0 1-1.376 2.688c-.491.875-.95 1.525-1.376 1.952-.598.576-1.163.95-1.696 1.12-.534.17-.982.16-1.344-.032-.363-.17-.63-.512-.8-1.024-.15-.533-.15-1.216 0-2.048.064-.405.181-.683.352-.832a.814.814 0 0 1 .544-.224c.192 0 .362.064.512.192a.715.715 0 0 1 .288.384c-.342.875-.512 1.579-.512 2.112.021.533.17.853.448.96.298.107.704-.01 1.216-.352.512-.363 1.088-.992 1.728-1.888.234-.32.501-.768.8-1.344.32-.576.64-1.408.96-2.496.789-.405 1.354-.597 1.696-.576.341 0 .522.139.544.416.042.256-.032.619-.224 1.088-.192.448-.406.928-.64 1.44-.235.49-.459.97-.672 1.44-.192.448-.288.81-.288 1.088.064-.085.181-.235.352-.448.17-.235.384-.501.64-.8.256-.32.533-.661.832-1.024.32-.363.65-.725.992-1.088a90.244 90.244 0 0 1 1.984-2.176 1.47 1.47 0 0 1 .288-.224.57.57 0 0 1 .288-.096c.49 0 .736.245.736.736 0 .107-.043.235-.128.384-1.195 1.963-1.792 3.52-1.792 4.672 0 .81.384 1.216 1.152 1.216.597 0 1.237-.31 1.92-.928.469-.405.97-.981 1.504-1.728.448-.619.704-.928.768-.928.064 0 .096.064.096.192 0 .15-.064.33-.192.544-1.451 2.41-2.955 3.616-4.512 3.616-1.216 0-1.824-.768-1.824-2.304 0-.683.064-1.301.192-1.856.149-.576.373-1.13.672-1.664-.427.405-.822.81-1.184 1.216-.342.405-.736.885-1.184 1.44-.192.256-.384.523-.576.8a7.377 7.377 0 0 1-.576.736 2.293 2.293 0 0 1-.576.48c-.192.107-.395.096-.608-.032-.235-.15-.31-.47-.224-.96.106-.49.256-1.013.448-1.568.213-.555.416-1.056.608-1.504.192-.448.256-.704.192-.768 0-.107-.075-.16-.224-.16-.15 0-.224.053-.224.16Zm19.12 1.824c0 .15-.064.33-.192.544a11.737 11.737 0 0 1-2.08 2.56c-1.024.939-1.984 1.408-2.88 1.408-1.195 0-1.792-.747-1.792-2.24 0-.341.16-1.013.48-2.016-.747 1.088-1.227 1.76-1.44 2.016-.704.832-1.333 1.248-1.888 1.248-.704 0-1.056-.597-1.056-1.792 0-.683.224-1.504.672-2.464.491-1.11 1.024-1.664 1.6-1.664.32 0 .48.085.48.256 0 .021-.277.512-.832 1.472-.533.939-.8 1.664-.8 2.176 0 .683.203 1.024.608 1.024.683 0 1.909-1.557 3.68-4.672.149-.299.373-.715.672-1.248.149-.17.309-.256.48-.256.192 0 .363.085.512.256.171.15.256.33.256.544 0-.021-.384.693-1.152 2.144-.747 1.45-1.12 2.57-1.12 3.36 0 .747.352 1.12 1.056 1.12.597 0 1.28-.341 2.048-1.024.512-.448 1.088-1.088 1.728-1.92.533-.683.821-1.024.864-1.024.064 0 .096.064.096.192Zm10.369 0c0 .15-.064.33-.192.544-.555.917-1.472 1.835-2.752 2.752-1.366 1.024-2.518 1.536-3.456 1.536-.192 0-.48-.01-.864-.032h-.832c-.086 0-.406-.075-.96-.224-.662 1.707-1.558 3.499-2.688 5.376-1.601 2.603-2.902 3.904-3.905 3.904-.533 0-.8-.395-.8-1.184 0-1.045.96-2.987 2.88-5.824 1.366-1.877 2.742-3.765 4.129-5.664v-.192c0-.768-.011-1.44-.032-2.016-.811 1.323-1.323 1.984-1.536 1.984-.128 0-.192-.075-.192-.224 0-.085.032-.17.096-.256.938-1.323 1.408-2.507 1.408-3.552a.692.692 0 0 0-.192-.512c-.107-.15-.16-.267-.16-.352 0-.085.33-.128.992-.128.725 0 1.088.725 1.088 2.176 0 .213-.022.533-.064.96-.022.405-.032.704-.032.896a21.494 21.494 0 0 1 1.984-3.008c1.109-1.365 2.037-2.048 2.784-2.048.682 0 1.024.501 1.024 1.504 0 1.259-.448 2.72-1.344 4.384-.875 1.664-1.835 2.827-2.88 3.488 1.856-.043 3.914-1.483 6.176-4.32.085-.107.149-.16.192-.16.085 0 .128.064.128.192Zm-3.68-2.912c0-.661-.182-.992-.544-.992a.852.852 0 0 0-.32.064c-.768.341-1.579 1.333-2.432 2.976a20.953 20.953 0 0 0-1.536 3.744c.213.32.586.725 1.12 1.216.938-.405 1.802-1.419 2.592-3.04.746-1.536 1.12-2.859 1.12-3.968Zm-6.048 5.824c-.022-.021-.043-.032-.064-.032-.086 0-.203.107-.352.32-.512.768-1.28 1.899-2.304 3.392-.449.64-1.014 1.61-1.697 2.912-.789 1.515-1.184 2.496-1.184 2.944 0 .192.064.288.192.288.939 0 2.23-1.536 3.873-4.608.426-.81.885-2.208 1.376-4.192a1.579 1.579 0 0 1-.032-.32c0-.256.064-.49.192-.704Zm18.788-13.952-.192.288-.864 1.344c-2.304 3.627-3.968 6.432-4.992 8.416-.128.277-.33.704-.608 1.28-.128.277-.288.416-.48.416-.149 0-.224-.075-.224-.224 0-.363.928-2.347 2.784-5.952 1.728-3.35 2.859-5.45 3.392-6.304.022-.043.054-.064.096-.064.128 0 .342.107.64.32.299.213.448.373.448.48Zm-7.648 14.592c0 .512-.266.768-.8.768-.554 0-.832-.256-.832-.768s.278-.768.832-.768c.534 0 .8.256.8.768Z" fill="#0F90D1"/><path d="M49 60.995h80" stroke="#0F90D1" stroke-linecap="round"/></svg>