<svg width="65" height="64" fill="none" xmlns="http://www.w3.org/2000/svg"><g clip-path="url('#clip0_520_13254')" fill="#313552"><path d="M9.599 11.662H7.6a1.25 1.25 0 0 1 0-2.5h2a1.25 1.25 0 1 1-.001 2.5ZM16.961 11.662h-1.999a1.25 1.25 0 0 1 0-2.5h2a1.25 1.25 0 0 1 0 2.5ZM24.324 11.662h-1.999a1.25 1.25 0 0 1 0-2.5h2a1.25 1.25 0 0 1 0 2.5ZM57.733 11.662h-1.999a1.25 1.25 0 0 1 0-2.5h2a1.25 1.25 0 0 1 0 2.5ZM32.689 59.995c-.523 0-1-.34-1.176-.83a1.259 1.259 0 0 1 .368-1.373 1.26 1.26 0 0 1 1.467-.11c.438.273.668.801.567 1.306a1.264 1.264 0 0 1-1.226 1.007Z"/><path d="M58.85 4.005H6.483A5.822 5.822 0 0 0 .667 9.821V54.18a5.822 5.822 0 0 0 5.815 5.816h20.534a1.25 1.25 0 0 0 0-2.5H6.482a3.32 3.32 0 0 1-3.316-3.316v-37.36h59v37.36a3.32 3.32 0 0 1-3.315 3.316H38.317a1.25 1.25 0 0 0 0 2.5h20.534a5.822 5.822 0 0 0 5.816-5.816V9.82a5.822 5.822 0 0 0-5.816-5.816ZM3.167 14.318V9.821a3.32 3.32 0 0 1 3.316-3.316h52.369a3.32 3.32 0 0 1 3.315 3.316v4.498h-59Z"/><path d="M56.662 23.338H45.377a1.25 1.25 0 0 1 0-2.5h11.285a1.25 1.25 0 0 1 0 2.5ZM56.662 28.984H45.377a1.25 1.25 0 0 1 0-2.5h11.285a1.25 1.25 0 0 1 0 2.5ZM56.662 34.63H45.377a1.25 1.25 0 0 1 0-2.5h11.285a1.25 1.25 0 0 1 0 2.5ZM37.145 34.555H8.67c-.69 0-1.25-.56-1.25-1.25v-11.14c0-.691.56-1.25 1.25-1.25h28.474c.69 0 1.25.559 1.25 1.25v11.14c0 .69-.56 1.25-1.25 1.25Zm-27.224-2.5h25.974v-8.64H9.92v8.64ZM29.996 40.964H8.67a1.25 1.25 0 0 1 0-2.5h21.325a1.25 1.25 0 0 1 0 2.5ZM29.996 46.61H8.67a1.25 1.25 0 1 1 0-2.5h21.325a1.25 1.25 0 0 1 0 2.5ZM29.996 52.257H8.67a1.25 1.25 0 0 1 0-2.5h21.325a1.25 1.25 0 0 1 0 2.5ZM56.662 52.105H37.145c-.69 0-1.25-.56-1.25-1.25v-11.14c0-.69.56-1.25 1.25-1.25h19.517c.69 0 1.25.56 1.25 1.25v11.14c0 .69-.56 1.25-1.25 1.25Zm-18.267-2.5h17.017v-8.64H38.395v8.64Z"/></g><defs><clipPath id="clip0_520_13254"><path fill="#fff" transform="translate(.667)" d="M0 0h64v64H0z"/></clipPath></defs></svg>