<svg width="65" height="64" fill="none" xmlns="http://www.w3.org/2000/svg"><g clip-path="url('#clip0_520_13244')" fill="#E3DA00"><path d="M49.959 10h3.75a1.25 1.25 0 0 0 0-2.5h-3.75a1.25 1.25 0 0 0 0 2.5Z"/><path d="M59.334 0h-15c-2.758 0-5 2.243-5 5v6.25H4.084A3.754 3.754 0 0 0 .334 15v37a3.754 3.754 0 0 0 3.75 3.75h15.75v5.75h-6.25a1.25 1.25 0 0 0 0 2.5h30a1.25 1.25 0 0 0 0-2.5h-6.25v-5.75h15.75a3.754 3.754 0 0 0 3.75-3.75V40.75h2.5c2.756 0 5-2.243 5-5V5c0-2.757-2.244-5-5-5Zm-17.5 5c0-1.378 1.121-2.5 2.5-2.5h15c1.378 0 2.5 1.122 2.5 2.5v25.75h-20V5Zm-7 56.5h-12.5v-5.75h12.5v5.75Zm19.5-15.75H34.207a1.25 1.25 0 0 0 0 2.5h20.126V52c0 .69-.561 1.25-1.25 1.25h-49c-.69 0-1.25-.56-1.25-1.25v-3.75h20.125a1.25 1.25 0 0 0 0-2.5H2.834V15c0-.69.56-1.25 1.25-1.25h35.25v22c0 2.757 2.242 5 5 5h10v5Zm5-7.5h-15a2.503 2.503 0 0 1-2.5-2.5v-2.5h20v2.5c0 1.379-1.122 2.5-2.5 2.5Z"/><path d="M28.584 48.25a1.25 1.25 0 1 0 0-2.5 1.25 1.25 0 0 0 0 2.5Z"/></g><defs><clipPath id="clip0_520_13244"><path fill="#fff" transform="translate(.333)" d="M0 0h64v64H0z"/></clipPath></defs></svg>