<svg width="64" height="64" fill="none" xmlns="http://www.w3.org/2000/svg"><g clip-path="url('#clip0_520_13182')" fill="#FF4A35"><path d="M49.25 24.318c0-2.401-1.4-4.892-3.334-6.144.308-1.759-.205-3.47-1.458-4.728a5.799 5.799 0 0 0-4.514-1.68 4.296 4.296 0 0 0-1.003-1.837c-1.322-1.446-3.658-2.179-6.94-2.179-2.52 0-4.951.533-7.225 1.583a1.25 1.25 0 0 0 1.048 2.27 14.58 14.58 0 0 1 4.926-1.3V47.75h-3.574c-.512-4.565-3.693-9.149-6.528-13.231-.273-.394-.543-.783-.808-1.168a14.666 14.666 0 0 1-2.59-8.35c0-2.156.455-4.234 1.352-6.177a1.25 1.25 0 1 0-2.27-1.048A17.104 17.104 0 0 0 14.75 25c0 3.51 1.048 6.887 3.03 9.768.267.388.54.78.815 1.176 2.655 3.824 5.635 8.12 6.093 12.047a2.5 2.5 0 0 0-1.438 2.26V54a2.5 2.5 0 0 0 1.25 2.161v4.088A3.754 3.754 0 0 0 28.25 64h7.5a3.754 3.754 0 0 0 3.75-3.75v-4.088A2.5 2.5 0 0 0 40.75 54v-3.75c0-1-.592-1.862-1.442-2.261.162-1.466.674-3.038 1.577-4.85.097-.042.194-.086.29-.134 1.673-.841 3.058-2.794 2.772-5.424l.094-.036a5.536 5.536 0 0 0 3.385-3.922c.319-1.42.07-2.882-.685-4.17 1.593-1.228 2.51-3.064 2.51-5.135Zm-11 25.932V54h-12.5v-3.75h12.5Zm-2.5 11.25h-7.5c-.69 0-1.25-.56-1.25-1.25V56.5h10v3.75c0 .69-.56 1.25-1.25 1.25Zm8.64-33.522a1.25 1.25 0 0 0-.375 1.982c.857.915 1.211 2.05.972 3.115-.22.981-.9 1.763-1.866 2.145-.763.302-1.941.495-2.728.279-1.253-.336-1.422-.794-1.759-1.705-.285-.771-.675-1.827-1.847-2.635a1.25 1.25 0 1 0-1.42 2.058c.498.343.659.73.922 1.443.403 1.09.955 2.583 3.449 3.252.46.126.947.179 1.434.179.104 0 .207-.003.31-.008.075 1.394-.635 2.289-1.43 2.688-.744.374-1.901.443-2.714-.593a1.25 1.25 0 0 0-1.968 1.543c.701.893 1.628 1.47 2.635 1.699-.651 1.541-1.04 2.96-1.186 4.33H33.25V27.303c3.946-.067 5.023-2.037 5.81-3.483.396-.726.661-1.183 1.127-1.447a1.25 1.25 0 1 0-1.23-2.176c-1.112.629-1.633 1.584-2.092 2.427-.672 1.233-1.163 2.133-3.615 2.18V10.296c1.838.14 3.183.595 3.846 1.32.246.27.397.576.459.928-1.235.796-1.764 1.823-2.137 2.833a1.25 1.25 0 0 0 2.344.868c.274-.74.565-1.346 1.534-1.816 1.167-.4 2.523-.09 3.39.78.48.483 1.195 1.537.592 3.182a1.25 1.25 0 0 0 .729 1.598c1.461.558 2.743 2.58 2.743 4.329 0 1.586-.882 2.954-2.36 3.66ZM32 5.25c.69 0 1.25-.56 1.25-1.25V1.25a1.25 1.25 0 0 0-2.5 0V4c0 .69.56 1.25 1.25 1.25ZM20.417 7.439a1.25 1.25 0 1 0 2.165-1.25l-1.375-2.382a1.25 1.25 0 1 0-2.165 1.25l1.375 2.382ZM10.806 14.208l2.382 1.375a1.25 1.25 0 1 0 1.25-2.165l-2.382-1.375a1.25 1.25 0 1 0-1.25 2.165ZM12.25 25c0-.69-.56-1.25-1.25-1.25H8.25a1.25 1.25 0 1 0 0 2.5H11c.69 0 1.25-.56 1.25-1.25ZM13.188 34.418l-2.382 1.375a1.25 1.25 0 1 0 1.25 2.165l2.382-1.375a1.25 1.25 0 1 0-1.25-2.165ZM41.875 7.896a1.25 1.25 0 0 0 1.708-.457l1.375-2.382a1.25 1.25 0 1 0-2.165-1.25l-1.375 2.382a1.25 1.25 0 0 0 .457 1.707ZM50.188 15.75c.212 0 .427-.054.624-.167l2.382-1.375a1.25 1.25 0 1 0-1.25-2.165l-2.382 1.375a1.25 1.25 0 0 0 .626 2.333ZM55.75 23.75H53a1.25 1.25 0 0 0 0 2.5h2.75a1.25 1.25 0 0 0 0-2.5ZM53.194 35.793l-2.382-1.375a1.25 1.25 0 0 0-1.25 2.165l2.382 1.375a1.25 1.25 0 1 0 1.25-2.165Z"/><path d="M20.686 12.437a1.25 1.25 0 1 0-.002 2.499 1.25 1.25 0 0 0 .003-2.5h-.001Z"/></g><defs><clipPath id="clip0_520_13182"><path fill="#fff" d="M0 0h64v64H0z"/></clipPath></defs></svg>