<svg width="65" height="64" fill="none" xmlns="http://www.w3.org/2000/svg"><path d="M54.337 39.797c-2.029-2.028-4.483-2.714-7.1-1.98-2.29.641-4.086 2.192-4.954 3.06l-3.788 3.788-13.148 13.147c-2.713 2.714-8.809 3.173-12.308-.327-3.5-3.5-3.041-9.595-.328-12.308l.934-.934.233.233a6.014 6.014 0 0 0 4.284 1.766c1.61 0 3.192-.606 4.454-1.707l22.3-19.451a12.58 12.58 0 0 0 6.595-2.773c.23.187.51.28.79.28a1.25 1.25 0 0 0 .97-2.037c4.051-4.937 3.773-12.26-.836-16.87A12.499 12.499 0 0 0 43.54 0a12.484 12.484 0 0 0-7.974 2.849 1.25 1.25 0 0 0-1.756 1.76 12.579 12.579 0 0 0-2.772 6.595l-19.451 22.3c-2.306 2.643-2.28 6.4.058 8.738l.233.233-.933.934c-1.843 1.843-2.904 4.633-2.91 7.657-.008 3.184 1.142 6.092 3.237 8.187 2.088 2.088 4.985 3.237 8.158 3.237h.03c3.022-.006 5.813-1.067 7.656-2.91l13.147-13.147 3.789-3.789c.56-.559 2.055-1.914 3.861-2.42 1.743-.489 3.266-.05 4.657 1.34 2.745 2.746 1.345 5.674-.237 7.593l-.801-.8a1.25 1.25 0 0 0-1.768 0L41.24 56.88a1.25 1.25 0 0 0 0 1.768l.842.842-2.376 2.376a1.25 1.25 0 0 0 1.768 1.768l2.376-2.376.842.842a1.25 1.25 0 0 0 1.768 0l8.524-8.524a1.25 1.25 0 0 0 0-1.768l-.881-.881c.84-.999 1.81-2.426 2.266-4.087.704-2.574.002-5.01-2.031-7.043ZM43.539 2.5c2.693 0 5.225 1.049 7.129 2.953 3.63 3.63 3.905 9.364.827 13.316L37.35 4.624A10.003 10.003 0 0 1 43.54 2.5Zm-7.956 3.893 14.145 14.144a10.08 10.08 0 0 1-4.34 1.954L33.628 10.733c.295-1.582.967-3.07 1.955-4.34ZM13.47 35.148l19.118-21.92 10.305 10.304-2.605 2.272-3.06-3.061a1.25 1.25 0 0 0-1.768 1.767l2.94 2.94-17.427 15.2c-.807.705-1.806 1.092-2.811 1.092a3.49 3.49 0 0 1-2.516-1.033l-2.234-2.235c-1.397-1.396-1.372-3.687.058-5.326Zm32.105 24.3-1.684-1.684 6.756-6.756 1.684 1.684-6.756 6.757Z" fill="#42C79C"/><path d="m34.506 20.022-.022-.023a1.25 1.25 0 0 0-1.768 1.768l.023.023a1.246 1.246 0 0 0 1.767 0 1.25 1.25 0 0 0 0-1.768Z" fill="#42C79C"/></svg>