<svg width="64" height="64" fill="none" xmlns="http://www.w3.org/2000/svg"><g clip-path="url('#clip0_520_13225')" fill="#0F90D1"><path d="M51.48 7.973a1.25 1.25 0 0 0-.01-1.758L45.11-.144a1.25 1.25 0 0 0-1.768 0 3.763 3.763 0 0 1-5.315 0 1.25 1.25 0 0 0-1.768 0L14.384 21.733A1.25 1.25 0 0 0 16.15 23.5l6.18-6.18.047.047a1.25 1.25 0 1 0 1.768-1.768l-.047-.046L37.232 2.418a6.278 6.278 0 0 0 6.907 0l4.785 4.786c-1.377 2.217-1.102 5.188.814 7.104 1.916 1.916 4.886 2.19 7.104.814l4.786 4.785a6.278 6.278 0 0 0 0 6.907L48.42 40.022a1.25 1.25 0 0 0-1.62 1.62L26.816 61.627a6.278 6.278 0 0 0-6.907 0l-4.785-4.786c1.377-2.217 1.102-5.188-.814-7.104-1.916-1.916-4.886-2.19-7.104-.814L2.419 44.14a6.278 6.278 0 0 0 0-6.906l5.777-5.777a1.25 1.25 0 0 0-1.767-1.768L-.144 36.26a1.25 1.25 0 0 0 0 1.768 3.763 3.763 0 0 1 0 5.316 1.25 1.25 0 0 0 0 1.767l6.36 6.359a1.25 1.25 0 0 0 1.757.01 3.26 3.26 0 0 1 4.568.026 3.26 3.26 0 0 1 .026 4.569 1.25 1.25 0 0 0 .01 1.757l6.359 6.359a1.25 1.25 0 0 0 1.768 0 3.763 3.763 0 0 1 5.316 0 1.25 1.25 0 0 0 1.767 0l36.404-36.404a1.25 1.25 0 0 0 0-1.767 3.763 3.763 0 0 1 0-5.316 1.25 1.25 0 0 0 0-1.768l-6.359-6.359a1.25 1.25 0 0 0-1.758-.01 3.26 3.26 0 0 1-4.568-.026 3.26 3.26 0 0 1-.026-4.568Z"/><path d="M15.147 45.25a2.25 2.25 0 0 0 2.045 1.235l4.66-.06 2.691 3.806a2.25 2.25 0 0 0 2.202.928 2.255 2.255 0 0 0 1.808-1.564l1.383-4.45 4.45-1.383a2.25 2.25 0 0 0 1.564-1.807 2.25 2.25 0 0 0-.929-2.203l-3.805-2.69.06-4.66a2.25 2.25 0 0 0-1.236-2.046 2.25 2.25 0 0 0-2.381.203l-3.735 2.787-4.414-1.497a2.25 2.25 0 0 0-2.327.543 2.25 2.25 0 0 0-.543 2.328l1.497 4.413-2.788 3.735a2.25 2.25 0 0 0-.202 2.381Zm5.386-5.148c.246-.33.314-.76.182-1.15l-1.553-4.581 4.582 1.553c.39.132.819.064 1.148-.182l3.878-2.893-.062 4.838a1.25 1.25 0 0 0 .528 1.036l3.95 2.794-4.62 1.436c-.392.122-.7.43-.822.822l-1.436 4.62-2.794-3.95a1.25 1.25 0 0 0-1.036-.528l-4.838.062 2.893-3.877ZM32.67 27.66a1.25 1.25 0 0 0 1.768-1.768l-1.029-1.03a1.25 1.25 0 0 0-1.768 1.768l1.03 1.03ZM29.292 22.513a1.25 1.25 0 0 0 0-1.768l-1.029-1.029a1.25 1.25 0 0 0-1.768 1.768l1.03 1.03a1.25 1.25 0 0 0 1.767 0ZM37.817 32.806a1.25 1.25 0 1 0 1.768-1.768l-1.03-1.03a1.25 1.25 0 0 0-1.767 1.768l1.029 1.03ZM42.963 37.952a1.25 1.25 0 1 0 1.768-1.768l-1.03-1.03a1.25 1.25 0 0 0-1.767 1.768l1.029 1.03ZM45.316 30.398l7.07-7.07a1.25 1.25 0 0 0-1.767-1.768l-7.071 7.07a1.25 1.25 0 0 0 1.768 1.768ZM40.366 25.449l7.071-7.071a1.25 1.25 0 0 0-1.768-1.768l-7.07 7.071a1.25 1.25 0 0 0 1.767 1.768ZM35.416 20.5l7.071-7.072a1.25 1.25 0 0 0-1.767-1.768l-7.072 7.071a1.25 1.25 0 0 0 1.768 1.768ZM12.127 27.43a1.25 1.25 0 1 0-1.768-1.767 1.25 1.25 0 0 0 1.768 1.767Z"/></g><defs><clipPath id="clip0_520_13225"><path fill="#fff" d="M0 0h64v64H0z"/></clipPath></defs></svg>