<svg width="65" height="64" fill="none" xmlns="http://www.w3.org/2000/svg"><g clip-path="url('#clip0_520_13213')" fill="#FFA336"><path d="M41.416 22.002a1.25 1.25 0 1 0 0-2.5 1.25 1.25 0 0 0 0 2.5ZM37.459 32.945c.52.453 1.31.4 1.763-.12 1.493-1.713 2.681-4.27 3.178-6.842a1.25 1.25 0 0 0-2.455-.474c-.49 2.54-1.668 4.595-2.607 5.672-.454.52-.4 1.31.12 1.764Z"/><path d="M63.416 37.002H41.83c3.502-3.422 5.837-9.822 5.837-15 0-6.907-4.128-10-11.25-10-.805 0-1.598.103-2.372.305.428-2.016 1.91-3.666 4.018-4.368a1.25 1.25 0 1 0-.79-2.372c-2.11.703-3.776 2.087-4.784 3.858a9.267 9.267 0 0 0-1.545-2.073c-2.768-2.77-6.883-2.85-7.057-2.852a1.25 1.25 0 0 0-1.262 1.324c.01.159.251 3.77 2.692 6.487-5.118.971-7.65 4.345-7.65 9.692 0 5.196 2.35 11.592 5.838 15H11.916c-6.19 0-11.25 5.009-11.25 11.25 0 6.203 5.047 11.25 11.25 11.25h51.5c.69 0 1.25-.56 1.25-1.25v-5c0-.69-.56-1.25-1.25-1.25a3.754 3.754 0 0 1-3.75-3.75 3.754 3.754 0 0 1 3.75-3.75c.69 0 1.25-.56 1.25-1.25v-5c0-.69-.56-1.25-1.25-1.25ZM29.176 9.12c.927.927 1.482 2.11 1.811 3.117a9.367 9.367 0 0 0-2.07-.234h-.01a6.796 6.796 0 0 1-1.5-1.116c-1.134-1.134-1.713-2.591-2.004-3.675 1.123.244 2.637.772 3.772 1.908Zm-9.01 12.884c0-5.581 3.16-7.5 8.75-7.5a6.991 6.991 0 0 1 3.194.777c.392.195.862.166 1.224-.053a6.984 6.984 0 0 1 3.082-.725c6.052 0 8.75 2.313 8.75 7.5 0 6.55-4.243 15-8.75 15h-7.5c-4.506 0-8.75-8.45-8.75-15Zm42 35h-50.25c-4.824 0-8.75-3.926-8.75-8.75a8.747 8.747 0 0 1 8.75-8.75h50.25v2.5h-50.25a6.257 6.257 0 0 0-6.25 6.25 6.257 6.257 0 0 0 6.25 6.25h50.25v2.5Zm-3.746-5H11.916a3.754 3.754 0 0 1-3.75-3.75 3.755 3.755 0 0 1 3.75-3.751H58.42a6.219 6.219 0 0 0-1.254 3.75c0 1.406.467 2.705 1.254 3.75Z"/><path d="M50.916 47.002h-36.5a1.25 1.25 0 1 0 0 2.5h36.5a1.25 1.25 0 1 0 0-2.5Z"/></g><defs><clipPath id="clip0_520_13213"><path fill="#fff" transform="translate(.667)" d="M0 0h64v64H0z"/></clipPath></defs></svg>