<svg width="17" height="18" fill="none" xmlns="http://www.w3.org/2000/svg"><g clip-path="url('#clip0_901_2087')" fill-rule="evenodd" clip-rule="evenodd" fill="#FF4A35"><path d="M8.692 2.843a6.167 6.167 0 1 0-.61 12.318 6.167 6.167 0 0 0 .61-12.318ZM1.229 8.647a7.167 7.167 0 1 1 14.316.71 7.167 7.167 0 0 1-14.316-.71Z"/><path d="M8.411 8.502a.5.5 0 1 0-.05 1 .5.5 0 0 0 .05-1Zm-1.523.426a1.5 1.5 0 1 1 2.997.148 1.5 1.5 0 0 1-2.997-.148Z"/><path d="M8.61 4.507a.5.5 0 0 0-.525.475l-.148 2.996a.5.5 0 1 0 .998.05l.149-2.996a.5.5 0 0 0-.475-.525Z"/></g><defs><clipPath id="clip0_901_2087"><path fill="#fff" transform="rotate(2.836 -12.048 16.313)" d="M0 0h16v16H0z"/></clipPath></defs></svg>