<svg width="17" height="18" fill="none" xmlns="http://www.w3.org/2000/svg"><g clip-path="url('#clip0_901_2186')" fill-rule="evenodd" clip-rule="evenodd" fill="#EDE409"><path d="M8.69 2.84a6.167 6.167 0 1 0-.61 12.32 6.167 6.167 0 0 0 .61-12.32ZM1.229 8.646a7.167 7.167 0 1 1 14.316.71 7.167 7.167 0 0 1-14.316-.71Z"/><path d="M8.41 8.5a.5.5 0 1 0-.049 1 .5.5 0 0 0 .05-1Zm-1.522.426a1.5 1.5 0 1 1 2.996.148 1.5 1.5 0 0 1-2.996-.148Z"/><path d="M8.609 4.506a.5.5 0 0 0-.525.474l-.148 2.997a.5.5 0 0 0 .999.049l.148-2.996a.5.5 0 0 0-.474-.524Z"/></g><defs><clipPath id="clip0_901_2186"><path fill="#fff" transform="rotate(2.836 -12.009 16.297)" d="M0 0h16v16H0z"/></clipPath></defs></svg>