<svg width="100" height="32" fill="none" xmlns="http://www.w3.org/2000/svg"><g clip-path="url('#clip0_520_13520')"><path d="m35.564 14.969.468-1.49-1.548.049a3.66 3.66 0 0 1-2.003-.692c.07.007.138.016.208.016.949 0 1.867-.568 2.235-1.38l.666-1.468c-.835.01-1.598-.094-1.598-.094-.006-.001-.608-.078-1.303-.784-.499-.506-1.116-.775-1.785-.775-.292 0-.554.053-.779.124.035-.12.069-.24.088-.365.213-1.374-.677-2.422-.677-2.42l-1.163-1.433-.721 1.683c-.003.006-.185.4-.511.593-.098-.495-.34-1.051-.856-1.583-.973-1.003-2.158-1.152-2.778-1.152-.287 0-.492.031-.542.04l-1.404.274c.08-.312.253-.855.569-1.344l.775-1.201-1.95.22-.622-1.311-1.202.616L18.019 0l-1.11 1.092-1.206-.616-.62 1.312-1.95-.221.777 1.2c.316.49.488 1.031.568 1.344l-1.34-.263-.046-.008a3.556 3.556 0 0 0-.56-.042c-.62 0-1.804.15-2.775 1.152-.517.53-.759 1.088-.858 1.583-.324-.19-.504-.58-.504-.58l-.723-1.692L6.49 5.703c-.144.186-.857 1.171-.663 2.41.02.123.052.244.088.363a2.561 2.561 0 0 0-.778-.123c-.669 0-1.286.268-1.786.775-.693.703-1.291.782-1.286.782 0 0-.632.113-1.61.095l.661 1.468c.368.814 1.287 1.38 2.235 1.38.071 0 .14-.009.21-.015-.92.664-1.87.691-1.984.693L0 13.479l.477 1.488c.24.767 1.042 2.037 2.579 2.174-.167.697-.538 1.477-1.352 1.814l-1.174.48.64 1.11c.361.597 1.209 1.297 2.417 1.297.261-.002.513-.027.756-.078.062.273.14.547.232.818.36 1.064.05 1.806.046 1.814l-.58 1.208 1.294.34c.016.005.407.11.896.11a2.764 2.764 0 0 0 1.068-.207c.167.298.37.57.608.814.829.846 2.003 1.275 3.49 1.275h.006l1.062-.013-2.194.906 1.666.8c.605.293 1.324.64 2.054.906l-.207.566.574.26c.05.022 1.155.514 2.99.619 0 0 .444.02.688.02.244 0 .682-.021.682-.021 1.824-.108 2.92-.594 2.97-.618l.576-.262-.21-.567c.752-.273 1.496-.634 2.076-.915l1.635-.79-2.188-.907 1.066.013c1.49 0 2.665-.428 3.493-1.276a3.94 3.94 0 0 0 .608-.813 2.744 2.744 0 0 0 1.067.208c.481 0 .876-.106.887-.109l1.3-.342-.567-1.184c-.013-.031-.323-.773.037-1.838.091-.272.168-.546.23-.818.244.051.499.078.762.078a2.825 2.825 0 0 0 2.418-1.31l.633-1.096-1.174-.48c-.815-.336-1.184-1.117-1.35-1.813 1.515-.129 2.329-1.4 2.577-2.171ZM14.58 4.624l-.016.004.013-.017.003.013Z" fill="#fff"/><path d="M18.02 4.559c-1.243 0-2.174.406-2.378.881l2.378.933 2.378-.933c-.203-.475-1.134-.88-2.378-.881ZM18.044 29.253h-.047c-.754.006-1.79-.148-2.29-.293l-.602 1.618c.397.14 1.74.409 2.916.409 1.174 0 2.518-.27 2.913-.41l-.6-1.617c-.501.146-1.537.299-2.29.293ZM22.594 27.645c-.448.253-1.447.63-2.028.806l.488 1.336a12.22 12.22 0 0 0 2.254-.835l-1.012-.335.298-.972ZM13.448 27.645l.299.972-1.014.335c.612.306 1.358.591 2.253.835l.488-1.336c-.579-.176-1.579-.555-2.026-.806ZM18.02 3.012c.936 0 1.856.222 2.562.614.065-.216.155-.477.277-.75l-.266.031-.28.03-.12-.254-.357-.75-.65.338-.254.128-.202-.198-.708-.697-.706.697-.202.198-.254-.128-.655-.338-.353.75-.121.254-.28-.03-.267-.032a6.5 6.5 0 0 1 .277.75c.708-.39 1.624-.613 2.559-.613ZM32.322 11.686c.122.042.246.06.368.06.53 0 1.042-.34 1.219-.73 0 0-.972-.059-2.017-1.114-.332-.342-.684-.443-.986-.443-.47 0-.821.246-.821.246 1.262.668 1.519 1.74 2.237 1.981ZM3.35 11.746c.122 0 .246-.018.365-.06.72-.241.98-1.313 2.241-1.98 0 0-.353-.247-.82-.247-.303 0-.654.101-.989.443-1.043 1.055-2.015 1.114-2.015 1.114.174.39.688.73 1.217.73Z" fill="#fff"/><path d="M32.665 16.043c.021.002.04.002.063.002 1.322 0 1.771-1.409 1.771-1.409h-.025c-.243 0-2.21-.056-3.6-1.813-.915-1.156-1.664-2.172-3.145-2.571l-.146-.026-.032-.147c-.04-.225.114-.436.466-.664 2.044-1.33.657-3.027.657-3.027s-.584 1.357-1.89 1.357h-.097c-.148-.01-.291-.014-.436-.045l-.24-.047s.371-1.007-.526-1.932c-.677-.698-1.5-.816-1.976-.816-.24 0-.393.031-.393.031.452.587.778 1.56.256 2.16-.45.517-1.55.542-1.55 1.311 0 .326.306.707.856 1.049 1.654 1.036 3.296 2.41 3.978 4.251.853 2.297-.108 3.821-1.48 4.695 0 0 .43.394 1.054.444.127.012.25.017.366.017 1.317 0 1.998-.614 1.998-.614s-.112.849-.798 1.637c-.632.728-1.462 1.155-2.728 1.174 0 0-.04.584.52 1.09.359.319 1.188.423 1.188.423s-1.552.313-1.723 2.591c-.093 1.235-.41 1.663-.41 1.663h.029c3.6 0 3.507-3.07 3.507-3.07a1.742 1.742 0 0 0 1.63 1.19c.323 0 .603-.075.603-.075s-.525-1.103-.004-2.646c.433-1.28.363-2.229.363-2.229s.485.73 1.688.736h.012a1.693 1.693 0 0 0 1.438-.755c-2.4-.99-2.163-4.188-2.163-4.188s.31.23.919.253Zm-.723 3.34c-.976-.478-1.593-1.749-1.743-2.207-.161 2.52-1.399 4.269-2.845 5.952-.75.873-1.012 1.721-1.012 1.721s.144-.96.794-1.744c1.349-1.612 2.63-3.619 2.726-5.939.067-1.619-.353-2.932-1.006-4.014.365 1.127.314 2.508-.928 3.796 0 0 2.47-2.945-.984-5.963-1.383-1.149-2.895-1.858-3.674-2.36 2.814.912 4.188-.093 4.188-.093-.9.775-2.062.761-2.784.65.196.095.4.194.62.311 2.371 1.281 4.504 3.39 4.868 6.31v-.023c.552 2.867 1.78 3.603 1.78 3.603ZM9.264 22.573s.829-.103 1.187-.423c.56-.506.52-1.09.52-1.09-1.266-.017-2.095-.446-2.731-1.173a3.472 3.472 0 0 1-.794-1.636s.68.614 1.996.614c.119 0 .241-.006.368-.018.624-.05 1.055-.443 1.055-.443-1.372-.874-2.334-2.4-1.482-4.697.683-1.84 2.323-3.215 3.977-4.251.55-.342.856-.721.856-1.049 0-.769-1.098-.794-1.549-1.31-.521-.6-.194-1.575.257-2.161 0 0-.15-.03-.391-.03-.475 0-1.298.117-1.975.815-.9.925-.527 1.932-.527 1.932L9.79 7.7c-.145.03-.289.036-.436.044l-.095.001c-1.31 0-1.89-1.356-1.89-1.356s-1.387 1.697.655 3.028c.352.228.505.438.465.663l-.032.148-.149.025c-1.478.4-2.23 1.415-3.144 2.57-1.387 1.755-3.351 1.813-3.596 1.813H1.54s.448 1.409 1.77 1.409c.022 0 .041 0 .064-.002.608-.021.92-.253.92-.253s.235 3.197-2.163 4.188c0 0 .437.755 1.438.755h.013c1.203-.007 1.687-.736 1.687-.736s-.07.95.361 2.23c.522 1.542-.001 2.645-.001 2.645s.28.075.603.075a1.745 1.745 0 0 0 1.628-1.19s-.092 3.07 3.508 3.07h.026s-.315-.428-.407-1.663c-.173-2.278-1.724-2.59-1.724-2.59Zm-.578.555c-1.447-1.683-2.683-3.432-2.846-5.952-.15.457-.764 1.729-1.74 2.207 0 0 1.227-.736 1.778-3.602v.022c.365-2.919 2.496-5.029 4.87-6.31.217-.118.423-.217.617-.31-.72.11-1.884.124-2.783-.65 0 0 1.373 1.004 4.186.092-.779.502-2.29 1.211-3.673 2.36-3.456 3.018-.984 5.963-.984 5.963-1.242-1.29-1.292-2.669-.927-3.796-.655 1.083-1.073 2.395-1.005 4.014.094 2.32 1.376 4.327 2.722 5.94.651.78.798 1.743.798 1.743s-.264-.848-1.013-1.72ZM15.358 11.347a3.664 3.664 0 0 1 .366.464l.033.05c.06.09.118.184.174.28.519.892 1.35 1.424 2.088 1.425.739 0 1.568-.533 2.09-1.424.057-.1.115-.196.176-.286a3.753 3.753 0 0 1 .4-.51l.028-.028c.265-.27.58-.475.992-.589l-.183-.106h-.01l-.731-.422-.75-.428-2.007 1.086-.005-.004-.004.004-2.007-1.086-.75.427-.731.422h-.008l-.187.106c.414.114.728.316.994.585.012.011.02.023.032.034Zm1.85-.087h1.697v.579c-.2-.243-.588-.193-.588-.193v.835s.015.41.159.588h-.84c.147-.177.16-.588.16-.588v-.835s-.386-.05-.588.193v-.58Z" fill="#fff"/><path d="M17.846 10.136v-3.39l-2.17-.73.573 3.284 1.597.836ZM17.38 7.58v.544l-.105-.048c-.005-.004-.16-.039-.429-.25-.445-.344-.453-.66-.453-.66l.987.414ZM19.793 9.3l.57-3.285-2.169.732v3.39l1.599-.837ZM18.66 7.58l.986-.414s-.008.317-.454.66c-.268.212-.423.246-.428.25l-.106.049v-.546h.002ZM14.777 17.995c.212.077.468.093.599.093l.019-.06c.012-.04.023-.077.03-.12.037-.188.05-.4.053-.537a.748.748 0 0 1-.284-.3c-.081-.168-.196-.246-.364-.246-.219 0-.453.13-.553.192-.08.468.267.893.5.978ZM19.577 16.196c-.403.436-1.192 1.195-1.23 1.233l-.048.049-2.492-.04a2.504 2.504 0 0 1-.081.608l-.02.08 2.965.528c.309-.214 1.158-.83 1.487-1.072a1.428 1.428 0 0 1-.21-1.052 1.507 1.507 0 0 1-.371-.334Z" fill="#fff"/><path d="M19.915 13.216c-.574.566-1.125.776-1.617.824-.09.01-.18.015-.271.015h-.012a2.604 2.604 0 0 1-.54-.057c-.032.128-.072.394.044.646.103.23.315.4.624.512l.103.04.002.112c0 .033.024.754.815.954.13-.133.247-.252.333-.351-.162-.378-.077-.764.158-.953-.01.04-.113.986.65 1.338l.125.059-.038.132c-.012.04-.267.956.657 1.296l.163.062-.073.158c-.016.035-.379.866.474 1.338h1.851V17.88c-.658-.08-.937-.606-1.008-.979-.306-.052-.543-.183-.705-.398-.388-.508-.054-.973-.05-.998-.001.004 0 .5.307.805a.952.952 0 0 0 .607.287l.135.012.012.137c.002.03.077.7.703.805l-.001-2.983c0-.463.136-.928.3-1.357h-3.748v.005ZM14.935 14.582l-.05 1.9.217.033.531-1.823-.27-.56-.428.45ZM20.79 23.299c.016 0 .035.003.053.007.33.093.413 1.278.993 1.384a.74.74 0 0 0 .155.015c.167 0 .267-.071.375-.197 0 0-.291-.456-.51-.763-.29-.402-.515-.888-1.054-.888h-.042a.544.544 0 0 0-.287.096 1.12 1.12 0 0 0-.606-.183c-.339 0-.602.154-.732.154h-.006l-1.205-.118c-.188-.018-.337-.207-.39-.28-.014-.02-.02-.033-.02-.033 0-.032 0-.065-.003-.095-.04-.98-.804-1.399-1.075-1.406 0 0 .033-.186-.041-.257l-.266.32-.872-.435.621.722-.527.588c-.066.067-.058.159-.03.196l.227.2.288-.174c.015-.011.04-.014.073-.014.08 0 .2.02.308.02.117 0 .22-.025.231-.135-.036.363-.374.994-.152 1.49l.165.374-1.065-.152-.499.837c-.154.279-.178.58-.03.744l.186.232s.262-.276.321-.457l-.085-.093c-.071-.077-.067-.147-.024-.232l.313-.515 1.257.294.066-.112c.085-.141.208-.184.343-.184.055 0 .111.007.17.016.234.046.618.107 1.002.107.422 0 .84-.075 1.062-.323.456.672 1.38.78 1.307 1.12l-.243 1.15a4.96 4.96 0 0 0 .462-.038l.23-1.197c.026-.13.05-.305.05-.305-.088-.09-.304-.28-.425-.511-.163-.311-.074-.473-.227-.878.006.003.051-.091.158-.091Zm-4.704-1.68a.107.107 0 0 1-.104-.116.108.108 0 0 1 .116-.1.11.11 0 0 1 .104.115.11.11 0 0 1-.116.1Z" fill="#fff"/><path d="M14.37 24.387s.416-.17.453-.292l-.055-.138c-.04-.09-.034-.188.042-.242l.45-.31.752.144s-.136-.169-.123-.395l-.717-.152-.676.41a.651.651 0 0 0-.216.778l.09.197ZM19.685 26.336c.134-.005.283-.008.446-.008 0 0 .387-1.125.408-1.16a9.43 9.43 0 0 1-.841-.442c.115.17.394.366.338.516l-.351 1.094Z" fill="#fff"/><path d="M23.367 19.666H12.674v4c0 1.635 1.19 2.66 2.947 2.66 1.468 0 1.854.055 2.4.594.377-.372.688-.512 1.327-.564l.015-.062.337-1.036-.57-.646c-.219.073-.402.085-.71.085-.318 0-.675-.037-1.062-.109a.463.463 0 0 0-.112-.012c-.047 0-.05.004-.063.027l-.067.11-.123.2-.23-.051-1.026-.24-.14.23.021.024.125.137-.055.178c-.075.233-.32.506-.395.58l-.256.274-.233-.294-.175-.218c-.185-.205-.228-.52-.124-.85a.015.015 0 0 1-.011.004l-.29.12-.13-.282-.092-.2a.968.968 0 0 1 .325-1.174l.826-.463.786.154c.019-.075.047-.343.07-.412-.015-.001-.03-.005-.045-.005l-.453.167-.436-.3s-.171-.163-.016-.327l.423-.637-1.072-1.337 1.647.673.11-.136.222-.264.252.239a.476.476 0 0 1 .132.237c.454.176 1.267.694 1.338 1.537l-.254.102v.007c.058.068.106.096.121.1l1.175.114c.03-.005.068-.018.11-.03.145-.05.365-.121.625-.121.212 0 .416.048.613.14a.948.948 0 0 1 .264-.054l.057-.002c.63 0 .942.468 1.193.84.042.065.083.127.127.187.22.308.506.76.519.779l.129.2-.16.184c-.122.141-.305.306-.62.306a1.131 1.131 0 0 1-.4-.078c-.01.062-.022.136-.035.199l-.206 1.07c1.234-.302 2.017-1.228 2.017-2.553l.001-4ZM12.674 19.345h8.316c-.416-.426-.41-.966-.304-1.318a1.42 1.42 0 0 1-.31-.202c-.325.238-1.317.957-1.575 1.136l-.056.038-3.263-.587h-.066c-.078 0-.193-.003-.318-.017a.317.317 0 0 1-.569.112.308.308 0 0 1-.056-.238l.012-.07c-.337-.236-.647-.763-.51-1.318l.014-.059.047-.033c.007-.006.063-.043.147-.091l-.238-.037a.163.163 0 0 1-.134-.184.16.16 0 0 1 .186-.134l.565.088.05-1.978.842-.885.524 1.098-.554 1.903.499.078a.162.162 0 0 1 .135.185.16.16 0 0 1-.16.134c-.009 0-.018 0-.026-.002l-.406-.065c.005.012.013.018.019.032a.438.438 0 0 0 .195.18l2.489.038c.104-.102.366-.356.634-.626a1.337 1.337 0 0 1-.872-1.104c-.342-.145-.578-.362-.709-.645-.159-.35-.102-.7-.06-.87-.332-.12-.681-.34-1.037-.691h-3.747c.16.429.296.894.296 1.356v4.776Z" fill="#FFDD2D"/><path d="M16.1 21.402a.108.108 0 0 0-.117.1.106.106 0 0 0 .104.116.11.11 0 0 0 .117-.101c0-.059-.043-.114-.105-.115ZM23.353 28.655l-.616-.235.17-.633.187-.69s-1.092.588-2.63 1.03c-.437.125-.767.182-.767.182v.469s-.822.142-1.654.142h-.047c-.831 0-1.654-.142-1.654-.142v-.47s-.331-.056-.767-.18a14.613 14.613 0 0 1-2.628-1.03l.185.69.173.632-.617.235-.685.254c.786.377 1.874.926 2.87 1.197l-.234.638s1.263.573 3.367.578v.001h.029v-.001c2.107-.005 3.369-.578 3.369-.578l-.236-.638c.996-.27 2.086-.82 2.868-1.197l-.683-.254Zm-10.62.297 1.014-.335-.299-.972c.446.252 1.448.63 2.027.806l-.489 1.336c-.895-.245-1.64-.53-2.252-.835Zm5.289 2.035c-1.177 0-2.52-.27-2.916-.41l.601-1.617c.5.145 1.537.3 2.29.294h.048c.753.005 1.788-.15 2.29-.294l.6 1.618c-.395.14-1.738.409-2.913.409Zm3.032-1.2-.487-1.336c.58-.176 1.58-.554 2.027-.806l-.298.972 1.012.335c-.613.304-1.355.59-2.254.835ZM18.02 3.403c1.254 0 2.256.413 2.81.854 0 0 .165-.985.727-1.855l-1.01.114-.528-1.117-1.015.52-.984-.967-.981.967-1.017-.52-.527 1.117-1.01-.114c.563.87.727 1.855.727 1.855.556-.441 1.556-.854 2.808-.854Zm-2.57-.496.28.03.121-.254.353-.75.655.336.254.129.202-.199.706-.697.708.697.202.199.254-.129.65-.336.358.75.118.254.28-.03.268-.032a6.286 6.286 0 0 0-.278.75c-.706-.39-1.626-.613-2.562-.613-.933 0-1.851.222-2.56.614a6.412 6.412 0 0 0-.278-.751l.269.032ZM32.726 16.475c1.622 0 2.164-1.64 2.187-1.71l.18-.578-.608.019h-.002a4.36 4.36 0 0 1-3.272-1.65l-.12-.149c-.829-1.048-1.614-2.044-3.019-2.498.04-.036.098-.082.178-.133.745-.488 1.18-1.08 1.288-1.768.16-1.034-.504-1.859-.533-1.892l-.452-.555-.282.658c-.018.042-.493 1.095-1.49 1.095h-.074c-.07-.004-.134-.007-.198-.012.035-.47-.052-1.198-.715-1.88-.797-.822-1.775-.945-2.287-.945-.274 0-.456.033-.475.036l-.682.134.42.55c.331.426.63 1.21.276 1.62-.113.13-.347.236-.57.342-.46.21-1.087.502-1.087 1.247 0 .483.376.987 1.058 1.416 2.02 1.262 3.265 2.58 3.803 4.034.831 2.237-.254 3.513-1.308 4.185l-.473.302.414.378c.055.049.562.492 1.31.557.142.009.278.017.404.017.48 0 .889-.075 1.22-.175-.091.159-.203.321-.345.485-.602.694-1.344 1.01-2.41 1.026l-.396.007-.031.395c-.004.08-.034.813.664 1.436.107.096.236.176.371.241-.473.424-.954 1.16-1.047 2.425-.078 1.055-.332 1.445-.335 1.449l-.438.665.792.01c1.307 0 2.309-.359 3.003-1.07.41-.42.644-.895.783-1.316a2.128 2.128 0 0 0 1.38.504c.37 0 .678-.077.713-.085l.506-.134-.224-.47c-.016-.037-.438-.978.016-2.32.195-.581.295-1.101.344-1.506a2.79 2.79 0 0 0 1.295.303c1.25 0 1.802-.929 1.828-.968l.246-.426-.456-.188c-1.491-.615-1.822-2.267-1.888-3.163.135.026.289.05.463.055h.075Zm1.182 3.504s-.436.754-1.438.754h-.012c-1.202-.006-1.688-.736-1.688-.736s.07.95-.363 2.23c-.522 1.542.004 2.645.004 2.645s-.28.075-.604.075a1.741 1.741 0 0 1-1.63-1.19s.093 3.07-3.507 3.07h-.028s.316-.428.41-1.663c.172-2.278 1.723-2.59 1.723-2.59s-.827-.104-1.186-.424c-.56-.505-.521-1.09-.521-1.09 1.267-.017 2.096-.446 2.728-1.174.684-.788.798-1.636.798-1.636s-.681.613-1.998.613c-.116 0-.24-.005-.367-.017-.622-.05-1.054-.444-1.054-.444 1.371-.873 2.334-2.399 1.48-4.696-.683-1.84-2.325-3.215-3.977-4.251-.55-.342-.856-.722-.856-1.049 0-.769 1.1-.793 1.551-1.31.52-.6.194-1.575-.257-2.161 0 0 .152-.03.392-.03.476 0 1.3.118 1.976.815.9.925.526 1.932.526 1.932l.241.047c.144.03.287.036.435.043l.097.001c1.306 0 1.89-1.358 1.89-1.358s1.389 1.698-.655 3.028c-.352.228-.507.438-.466.663l.032.148.146.025c1.48.4 2.23 1.416 3.146 2.571 1.39 1.757 3.356 1.813 3.598 1.813h.026s-.449 1.41-1.771 1.41c-.022 0-.04 0-.063-.002-.608-.022-.92-.254-.92-.254s-.238 3.2 2.162 4.192Z" fill="#313552"/><path d="M29.879 10.086c.605.32.957.749 1.265 1.13.304.371.592.729 1.042.878.16.055.33.08.503.08.676 0 1.356-.412 1.613-.981l.26-.571-.628-.038c-.03-.001-.835-.073-1.733-.986-.37-.374-.816-.571-1.297-.571-.587 0-1.023.292-1.071.322l-.577.403.623.334Zm1.027-.627c.302 0 .653.101.986.443 1.045 1.055 2.017 1.114 2.017 1.114-.177.389-.689.73-1.219.73-.122 0-.245-.018-.368-.06-.718-.241-.976-1.313-2.239-1.98 0 0 .354-.247.823-.247ZM30.161 15.781v.021c-.364-2.919-2.496-5.027-4.868-6.31-.22-.116-.422-.216-.619-.31.723.11 1.886.124 2.783-.65 0 0-1.373 1.004-4.188.092.78.502 2.293 1.211 3.675 2.36 3.455 3.018.983 5.963.983 5.963 1.24-1.288 1.292-2.668.927-3.796.654 1.082 1.071 2.395 1.007 4.015-.096 2.32-1.378 4.326-2.727 5.939-.648.782-.794 1.743-.794 1.743s.262-.848 1.012-1.72c1.447-1.684 2.683-3.433 2.844-5.953.15.457.766 1.729 1.743 2.207.003.002-1.225-.734-1.778-3.601ZM11.751 26.582c-.001-.004-.252-.394-.333-1.449-.094-1.264-.574-2-1.048-2.424.137-.064.264-.144.37-.241.697-.624.667-1.357.663-1.436l-.027-.395-.399-.007c-1.063-.017-1.806-.334-2.408-1.027a3.183 3.183 0 0 1-.345-.485c.331.1.737.176 1.218.176.13 0 .263-.008.404-.018a2.396 2.396 0 0 0 1.312-.556l.414-.378-.473-.303c-1.059-.673-2.14-1.949-1.31-4.184.539-1.455 1.783-2.772 3.805-4.035.682-.429 1.055-.933 1.055-1.415 0-.745-.625-1.039-1.085-1.248-.224-.106-.457-.212-.57-.342-.356-.408-.056-1.194.273-1.619l.424-.55-.685-.135c-.02-.002-.2-.036-.475-.036-.512 0-1.488.123-2.286.945-.664.684-.752 1.411-.718 1.88-.065.006-.13.009-.197.013h-.073c-1 0-1.473-1.054-1.492-1.095l-.281-.659-.456.555c-.026.034-.691.86-.53 1.893.108.687.542 1.28 1.288 1.768.08.05.137.096.177.132-1.403.455-2.187 1.452-3.016 2.5l-.12.149a4.362 4.362 0 0 1-3.274 1.65l-.61-.019.185.578c.022.07.562 1.71 2.185 1.71l.078-.003c.172-.005.325-.028.463-.055-.068.894-.398 2.547-1.89 3.163l-.456.188.247.426c.024.04.577.968 1.83.968a2.792 2.792 0 0 0 1.293-.303c.049.405.148.925.344 1.505.454 1.343.03 2.284.015 2.322l-.224.469.507.134c.033.008.345.086.713.086a2.11 2.11 0 0 0 1.38-.504c.137.42.373.895.782 1.316.695.71 1.695 1.07 3.003 1.07l.792-.011-.439-.664Zm-.383.245c-3.6 0-3.508-3.07-3.508-3.07s-.251.909-1.255 1.146c-.12.032-.248.044-.374.044-.323 0-.602-.075-.602-.075s.523-1.103.001-2.646c-.431-1.28-.36-2.229-.36-2.229s-.485.73-1.688.736h-.013c-1.001 0-1.438-.755-1.438-.755 2.4-.99 2.164-4.188 2.164-4.188s-.312.23-.921.253c-.022.002-.042.002-.063.002-1.324 0-1.772-1.409-1.772-1.409h.027c.244 0 2.208-.056 3.598-1.813.915-1.156 1.666-2.17 3.145-2.571l.148-.026.032-.147c.04-.225-.113-.436-.465-.663-2.043-1.331-.655-3.028-.655-3.028s.581 1.356 1.89 1.356l.095-.001c.147-.008.293-.014.436-.044l.241-.047s-.373-1.007.527-1.932c.677-.698 1.5-.816 1.975-.816.241 0 .39.03.39.03-.45.588-.776 1.56-.255 2.161.45.516 1.548.542 1.548 1.311 0 .326-.306.707-.855 1.048-1.655 1.037-3.296 2.412-3.978 4.252-.852 2.297.109 3.821 1.483 4.696 0 0-.432.394-1.056.444a3.9 3.9 0 0 1-.368.017c-1.315 0-1.996-.613-1.996-.613s.113.848.794 1.636c.636.728 1.465 1.157 2.732 1.174 0 0 .04.585-.52 1.09-.36.319-1.188.423-1.188.423s1.553.313 1.723 2.591c.093 1.235.407 1.663.407 1.663h-.026Z" fill="#313552"/><path d="M3.35 12.175c.174 0 .344-.025.504-.08.453-.149.74-.507 1.043-.878.31-.38.66-.81 1.265-1.13l.622-.332-.578-.403c-.048-.031-.482-.322-1.069-.322-.482 0-.93.196-1.298.57-.897.912-1.702.986-1.732.987l-.627.037.258.572c.259.567.937.98 1.612.98Zm.798-2.271c.334-.342.686-.444.99-.444.466 0 .819.247.819.247-1.262.668-1.52 1.74-2.242 1.98-.118.042-.242.061-.365.061-.53 0-1.042-.34-1.217-.73 0-.002.97-.06 2.015-1.114ZM6.179 17.166c-.067-1.619.35-2.932 1.005-4.014-.365 1.128-.315 2.508.928 3.796 0 0-2.472-2.945.984-5.963 1.383-1.149 2.895-1.858 3.673-2.36-2.813.912-4.187-.093-4.187-.093.898.775 2.061.761 2.784.649-.196.095-.4.194-.618.31-2.375 1.284-4.506 3.392-4.871 6.311v-.023c-.551 2.867-1.778 3.603-1.778 3.603.976-.478 1.59-1.749 1.74-2.208.163 2.52 1.4 4.27 2.846 5.953.75.872 1.015 1.72 1.015 1.72s-.147-.96-.798-1.743c-1.347-1.61-2.629-3.617-2.723-5.938ZM17.207 11.26v.58c.2-.243.59-.194.59-.194v.835s-.014.41-.161.589h.84c-.145-.177-.16-.589-.16-.589v-.835s.389-.05.588.193v-.579h-1.697ZM16.846 7.826c.268.212.423.247.428.25l.106.049v-.546l-.987-.412s.01.316.453.659ZM19.192 7.826c.447-.343.455-.66.455-.66l-.987.413v.546l.104-.049c.007-.003.16-.038.428-.25Z" fill="#313552"/><path d="M20.97 5.605c0-.827-1.4-1.57-2.946-1.57H18.015c-1.547 0-2.947.743-2.947 1.57l.031.204.617 3.523-.62.358-1.604.932h.006s-.361.184-.529.297c-.61.423-.74 1.038-.385 1.292.088-.5.486-1.026 1.233-1.026.538 0 .948.276 1.28.69.084.105.165.216.24.336.094.152.187.285.28.413h-4.132c.304.607.592 1.25.592 1.95v9.092c0 2.2 1.702 3.251 3.544 3.251 1.423 0 1.614-.064 2.4.713.782-.778.973-.713 2.398-.713 1.843 0 3.542-1.05 3.542-3.251v-9.093c0-.698.289-1.342.593-1.949h-4.132a6.62 6.62 0 0 0 .277-.413c.077-.12.157-.231.24-.336.335-.415.743-.69 1.28-.69.748 0 1.145.524 1.234 1.026.355-.254.227-.87-.388-1.292a6.325 6.325 0 0 0-.526-.297h.006L20.94 9.69l-.618-.358.618-3.523.03-.204Zm-5.294.41 2.17.732v3.39l-1.597-.838-.573-3.284Zm.449 7.2c.356.353.705.571 1.036.692-.043.17-.1.521.06.871.132.282.369.499.71.643.038.349.259.873.872 1.105-.268.27-.53.523-.636.626l-2.487-.04a.44.44 0 0 1-.195-.18c-.006-.012-.014-.019-.018-.032l.406.066h.025a.16.16 0 0 0 .026-.318l-.499-.078.554-1.902-.524-1.098-.841.885-.052 1.978-.564-.088a.162.162 0 1 0-.051.319l.237.036c-.085.048-.14.086-.147.091l-.049.034-.013.059c-.138.555.174 1.081.51 1.317l-.013.07a.313.313 0 0 0 .057.239.312.312 0 0 0 .26.132.32.32 0 0 0 .309-.246c.125.014.24.017.318.017h.066l3.263.586.055-.036c.26-.181 1.251-.9 1.576-1.137.089.076.189.146.31.204-.105.35-.112.891.305 1.317h-8.317v-4.773c0-.462-.136-.927-.296-1.356h3.747v-.003Zm4.033 4.367c-.33.241-1.18.858-1.487 1.072l-2.965-.53.02-.078c.039-.153.078-.362.08-.607l2.493.04.047-.048c.038-.038.828-.797 1.23-1.233.096.119.216.233.373.333-.054.29-.031.703.209 1.051Zm-4.965-.51c.07.146.197.243.285.298-.003.137-.016.35-.053.538a1.08 1.08 0 0 1-.03.12l-.02.06c-.13 0-.388-.017-.598-.093-.233-.086-.581-.51-.5-.979.1-.061.334-.191.553-.191.168-.002.283.078.363.247Zm-.308-.589.05-1.9.428-.45.27.56-.531 1.822-.217-.032Zm5.246 9.846c-.162 0-.312.003-.447.008l.354-1.092c.055-.152-.224-.346-.339-.516.174.108.624.346.841.44-.023.035-.41 1.16-.41 1.16Zm1.108-1.241-.23 1.195c-.148.02-.304.031-.465.038l.243-1.15c.073-.342-.85-.448-1.306-1.12-.222.25-.642.324-1.062.324-.384 0-.768-.062-1.002-.107a1.098 1.098 0 0 0-.17-.017c-.136 0-.258.042-.343.184l-.068.113-1.257-.295-.313.514c-.044.084-.047.155.024.232l.085.093c-.058.182-.32.457-.32.457l-.186-.232c-.149-.165-.124-.465.03-.744l.5-.838 1.064.153-.166-.375c-.222-.496.116-1.127.153-1.49-.013.11-.114.134-.232.134-.108 0-.228-.02-.308-.02-.03 0-.058.002-.072.013l-.289.174-.228-.2c-.027-.038-.036-.128.031-.195l.527-.587-.622-.723.872.436.265-.32c.073.07.042.257.042.257.272.007 1.035.426 1.076 1.404.002.03.002.063.002.096l.02.032c.055.073.203.262.392.28l1.205.118h.005c.132 0 .395-.154.732-.154.183 0 .388.047.606.183 0 0 .11-.085.287-.095l.042-.001c.54 0 .764.485 1.054.889.219.306.51.762.51.762-.108.128-.208.197-.375.197a.84.84 0 0 1-.155-.015c-.58-.105-.663-1.29-.993-1.384a.181.181 0 0 0-.053-.007c-.106 0-.154.094-.154.094.151.404.064.567.226.878.12.23.337.42.425.51 0 .003-.024.177-.05.309Zm-6.472-1.131.056.138c-.037.12-.455.292-.455.292l-.09-.196a.65.65 0 0 1 .216-.777l.676-.41.717.151a.628.628 0 0 0 .123.395l-.752-.143-.45.31c-.076.052-.081.15-.04.24Zm6.585 2.26.206-1.069.034-.198a1.138 1.138 0 0 0 .4.078c.316 0 .499-.165.621-.306l.16-.184-.13-.2c-.012-.02-.298-.471-.519-.78a3.905 3.905 0 0 1-.127-.186c-.25-.372-.564-.84-1.194-.84l-.056.001a.925.925 0 0 0-.264.054 1.433 1.433 0 0 0-.614-.14c-.26 0-.48.072-.625.121-.042.012-.08.025-.11.03l-1.176-.114c-.015-.003-.063-.031-.121-.1v-.006l.254-.102c-.071-.843-.885-1.362-1.34-1.538a.477.477 0 0 0-.132-.237l-.253-.238-.222.265-.11.136-1.647-.673 1.072 1.337-.423.637c-.155.163.016.327.016.327l.437.299.452-.168c.017 0 .03.004.045.006-.022.068-.05.336-.069.411l-.786-.154-.826.464a.968.968 0 0 0-.325 1.174l.092.2.13.281.29-.12a.025.025 0 0 0 .01-.005c-.104.33-.062.644.124.85l.175.22.233.294.256-.274c.076-.075.32-.347.395-.58l.056-.178-.126-.137-.02-.024.14-.23 1.026.239.23.052.123-.2.067-.11c.013-.023.017-.027.064-.027.036 0 .073.004.112.012.387.072.744.108 1.06.108.308 0 .491-.012.71-.084 0 0 .552.622.57.646l-.336 1.034-.015.064c-.639.05-.95.19-1.326.564-.546-.54-.933-.595-2.4-.595-1.757 0-2.947-1.024-2.947-2.66v-3.998h10.691l.003 3.998c.001 1.327-.782 2.252-2.015 2.554Zm2.311-13.002c-.163.43-.299.894-.299 1.357l.002 2.983c-.627-.104-.701-.776-.704-.805l-.012-.137-.135-.012a.953.953 0 0 1-.605-.288c-.308-.306-.309-.802-.308-.806-.003.026-.338.49.05.999.163.214.4.346.705.398.072.372.35.898 1.009.978v1.461h-1.85c-.853-.471-.492-1.302-.474-1.337l.073-.159-.163-.061c-.924-.34-.67-1.257-.657-1.296l.038-.134-.125-.06c-.763-.35-.66-1.298-.65-1.337-.235.19-.32.575-.158.953-.087.1-.205.22-.333.351a1.03 1.03 0 0 1-.814-.955l-.001-.112-.104-.04c-.309-.114-.52-.284-.624-.513a.994.994 0 0 1-.043-.646 2.6 2.6 0 0 0 .54.056h.011c.092 0 .182-.005.27-.015.493-.048 1.044-.258 1.618-.824h3.743v.001ZM20.782 10.2l.73.422h.011l.183.106a2.156 2.156 0 0 0-.992.588c-.01.008-.018.019-.028.028-.06.065-.121.134-.178.205a3.33 3.33 0 0 0-.221.306 5.13 5.13 0 0 0-.177.285c-.52.892-1.35 1.424-2.089 1.425-.737-.001-1.567-.533-2.088-1.425a5.722 5.722 0 0 0-.174-.281l-.033-.05a5.69 5.69 0 0 0-.194-.264 5.148 5.148 0 0 0-.173-.2c-.012-.009-.02-.02-.032-.032a2.145 2.145 0 0 0-.994-.585l.186-.106h.008l.731-.422.75-.428 2.007 1.086.003-.004.006.004 2.005-1.086.753.428Zm-.99-.9-1.598.838V6.747l2.169-.732-.57 3.285ZM18.02 6.374l-2.378-.934c.202-.476 1.135-.88 2.378-.882 1.244.002 2.177.406 2.378.882l-2.378.934ZM47.464 20.56v-5.367h3.166V13.24h-8.637v1.953h3.166v5.367h2.305Zm6.393-7.32h-2.305v7.32h2.305v-7.32Zm1.687 0v7.32h2.12v-4.045l3.95 4.045h1.967v-7.32h-2.12v4.014l-3.858-4.014h-2.059Zm12.568 4.552 2.658 2.768h2.966l-3.703-3.814 3.565-3.506H70.8l-2.689 2.753h-.615V13.24H65.27v7.32h2.228v-2.768h.615Zm10.21-4.752c-2.997 0-4.796 1.692-4.796 3.875 0 2.184 1.799 3.875 4.795 3.875 2.982 0 4.78-1.691 4.78-3.875 0-2.183-1.798-3.875-4.78-3.875Zm0 5.967c-1.491 0-2.444-.892-2.444-2.092 0-1.2.953-2.076 2.443-2.076 1.476 0 2.444.877 2.444 2.076 0 1.2-.968 2.092-2.444 2.092Zm13.23-5.767h-7.393v7.32h2.228v-2.553h4.842v-1.615h-4.842v-1.291h5.164V13.24Zm8.388 0h-7.392v7.32h2.228v-2.553h4.842v-1.615h-4.842v-1.291h5.164V13.24Z" fill="#313552"/></g><defs><clipPath id="clip0_520_13520"><path fill="#fff" d="M0 0h100v32H0z"/></clipPath></defs></svg>