<svg width="406" height="1022" viewBox="0 0 406 1022" fill="none" xmlns="http://www.w3.org/2000/svg">
<g opacity="0.5" clip-path="url(#clip0_520_11266)">
<path fill-rule="evenodd" clip-rule="evenodd" d="M353.677 312.123L395.25 288.111L395.75 288.977L354.177 312.989L353.677 312.123Z" fill="#DDEBF6"/>
<path fill-rule="evenodd" clip-rule="evenodd" d="M395.75 288.111L437.565 312.253L437.557 360.551L436.557 360.55L436.565 312.83L395.25 288.977L395.75 288.111Z" fill="#DDEBF6"/>
<path fill-rule="evenodd" clip-rule="evenodd" d="M395.742 336.986L354.17 360.997L353.669 360.131L395.242 336.12L395.742 336.986Z" fill="#DDEBF6"/>
<path fill-rule="evenodd" clip-rule="evenodd" d="M396 288.544L395.992 336.553L394.992 336.553L395 288.544L396 288.544Z" fill="#DDEBF6"/>
<path fill-rule="evenodd" clip-rule="evenodd" d="M436.807 360.984L395.242 336.986L395.742 336.12L437.307 360.118L436.807 360.984Z" fill="#DDEBF6"/>
<path fill-rule="evenodd" clip-rule="evenodd" d="M437.102 504.04L395.788 480.187L395.288 481.053L437.103 505.194L478.925 481.039L478.425 480.173L437.102 504.04Z" fill="#DDEBF6"/>
<path fill-rule="evenodd" clip-rule="evenodd" d="M394.976 432.282L436.869 408.166L437.368 409.033L395.977 432.86L396.037 480.619L395.037 480.62L394.976 432.282Z" fill="#DDEBF6"/>
<path fill-rule="evenodd" clip-rule="evenodd" d="M437.361 457.041L395.788 481.053L395.288 480.187L436.86 456.175L437.361 457.041Z" fill="#DDEBF6"/>
<path fill-rule="evenodd" clip-rule="evenodd" d="M395.764 624.213L437.398 648.251L436.898 649.117L395.264 625.079L395.764 624.213Z" fill="#DDEBF6"/>
<path fill-rule="evenodd" clip-rule="evenodd" d="M395.755 673.088L354.222 697.03L353.723 696.164L395.256 672.222L395.755 673.088Z" fill="#DDEBF6"/>
<path fill-rule="evenodd" clip-rule="evenodd" d="M396.014 624.646L396.006 672.655L395.006 672.655L395.014 624.646L396.014 624.646Z" fill="#DDEBF6"/>
<path fill-rule="evenodd" clip-rule="evenodd" d="M395.607 720.058L354.223 696.164L353.723 697.03L395.607 721.212L438.14 696.693L395.756 672.222L395.256 673.088L436.139 696.692L395.607 720.058Z" fill="#DDEBF6"/>
<path fill-rule="evenodd" clip-rule="evenodd" d="M353.646 504.158L395.288 480.186L395.787 481.053L354.145 505.024L353.646 504.158Z" fill="#DDEBF6"/>
<path fill-rule="evenodd" clip-rule="evenodd" d="M395.78 529.061L354.207 553.073L353.706 552.207L395.279 528.196L395.78 529.061Z" fill="#DDEBF6"/>
<path fill-rule="evenodd" clip-rule="evenodd" d="M396.038 480.62L396.03 528.629L395.03 528.628L395.038 480.62L396.038 480.62Z" fill="#DDEBF6"/>
<path fill-rule="evenodd" clip-rule="evenodd" d="M436.095 552.626L395.28 529.061L395.78 528.195L438.094 552.626L395.772 577.07L395.272 576.204L436.095 552.626Z" fill="#DDEBF6"/>
<path fill-rule="evenodd" clip-rule="evenodd" d="M354.395 504.59L354.457 552.639L353.457 552.64L353.395 504.592L354.395 504.59Z" fill="#DDEBF6"/>
<path fill-rule="evenodd" clip-rule="evenodd" d="M312.572 529.035L271 553.047L270.499 552.181L312.072 528.169L312.572 529.035Z" fill="#DDEBF6"/>
<path fill-rule="evenodd" clip-rule="evenodd" d="M353.707 553.073L312.073 529.035L312.573 528.169L354.207 552.207L353.707 553.073Z" fill="#DDEBF6"/>
<path fill-rule="evenodd" clip-rule="evenodd" d="M187.362 792.169L229.005 768.198L229.503 769.065L187.861 793.036L187.362 792.169Z" fill="#DDEBF6"/>
<path fill-rule="evenodd" clip-rule="evenodd" d="M229.504 768.198L271.069 792.196L270.569 793.062L229.004 769.064L229.504 768.198Z" fill="#DDEBF6"/>
<path fill-rule="evenodd" clip-rule="evenodd" d="M229.496 817.073L187.923 841.084L187.423 840.218L228.996 816.207L229.496 817.073Z" fill="#DDEBF6"/>
<path fill-rule="evenodd" clip-rule="evenodd" d="M229.754 768.631L229.746 816.64L228.746 816.64L228.754 768.631L229.754 768.631Z" fill="#DDEBF6"/>
<path fill-rule="evenodd" clip-rule="evenodd" d="M228.996 817.073L229.496 816.207L270.311 839.772L270.319 792.629L271.319 792.629L271.311 841.503L228.996 817.073Z" fill="#DDEBF6"/>
<path fill-rule="evenodd" clip-rule="evenodd" d="M228.754 768.632L228.693 720.583L229.693 720.582L229.754 768.63L228.754 768.632Z" fill="#DDEBF6"/>
<path fill-rule="evenodd" clip-rule="evenodd" d="M271.085 696.178L312.65 720.175L312.15 721.041L270.585 697.044L271.085 696.178Z" fill="#DDEBF6"/>
<path fill-rule="evenodd" clip-rule="evenodd" d="M311.892 768.329L270.569 792.196L271.069 793.062L312.892 768.906L312.9 720.609L311.9 720.608L311.892 768.329Z" fill="#DDEBF6"/>
<path fill-rule="evenodd" clip-rule="evenodd" d="M271.077 745.053L229.504 769.064L229.004 768.198L270.577 744.187L271.077 745.053Z" fill="#DDEBF6"/>
<path fill-rule="evenodd" clip-rule="evenodd" d="M271.335 696.611L271.327 744.62L270.327 744.62L270.335 696.611L271.335 696.611Z" fill="#DDEBF6"/>
<path fill-rule="evenodd" clip-rule="evenodd" d="M312.142 769.05L270.577 745.053L271.077 744.187L312.642 768.184L312.142 769.05Z" fill="#DDEBF6"/>
<path fill-rule="evenodd" clip-rule="evenodd" d="M354.223 697.03L312.65 721.041L312.15 720.176L353.723 696.164L354.223 697.03Z" fill="#DDEBF6"/>
<path fill-rule="evenodd" clip-rule="evenodd" d="M270.524 648.129L312.127 624.227L312.625 625.094L271.023 648.996L270.524 648.129Z" fill="#DDEBF6"/>
<path fill-rule="evenodd" clip-rule="evenodd" d="M312.626 624.227L354.191 648.224L353.691 649.091L312.126 625.093L312.626 624.227Z" fill="#DDEBF6"/>
<path fill-rule="evenodd" clip-rule="evenodd" d="M354.441 648.657L354.473 696.597L353.473 696.597L353.441 648.658L354.441 648.657Z" fill="#DDEBF6"/>
<path fill-rule="evenodd" clip-rule="evenodd" d="M353.723 697.03L312.158 673.033L312.658 672.167L354.223 696.164L353.723 697.03Z" fill="#DDEBF6"/>
<path fill-rule="evenodd" clip-rule="evenodd" d="M395.764 625.079L354.191 649.091L353.691 648.225L395.264 624.213L395.764 625.079Z" fill="#DDEBF6"/>
<path fill-rule="evenodd" clip-rule="evenodd" d="M270.257 504.316L312.33 480.016L354.145 504.158L353.645 505.024L312.33 481.171L271.257 504.893L271.249 552.325L312.814 576.322L312.876 624.659L311.876 624.661L311.815 576.9L270.249 552.902L270.257 504.316Z" fill="#DDEBF6"/>
<path fill-rule="evenodd" clip-rule="evenodd" d="M354.207 552.207L395.771 576.204L395.271 577.07L353.707 553.073L354.207 552.207Z" fill="#DDEBF6"/>
<path fill-rule="evenodd" clip-rule="evenodd" d="M396.021 576.637L396.013 624.646L395.013 624.646L395.021 576.637L396.021 576.637Z" fill="#DDEBF6"/>
<path fill-rule="evenodd" clip-rule="evenodd" d="M354.199 601.082L312.626 625.093L312.126 624.227L353.699 600.216L354.199 601.082Z" fill="#DDEBF6"/>
<path fill-rule="evenodd" clip-rule="evenodd" d="M354.457 552.64L354.449 600.649L353.449 600.649L353.457 552.64L354.457 552.64Z" fill="#DDEBF6"/>
<path fill-rule="evenodd" clip-rule="evenodd" d="M395.264 625.079L353.699 601.082L354.199 600.216L395.764 624.213L395.264 625.079Z" fill="#DDEBF6"/>
<path fill-rule="evenodd" clip-rule="evenodd" d="M271.084 697.044L229.442 721.016L228.943 720.149L270.586 696.178L271.084 697.044Z" fill="#DDEBF6"/>
<path fill-rule="evenodd" clip-rule="evenodd" d="M187.136 648.287L229.208 623.987L271.023 648.129L270.523 648.995L229.209 625.142L188.136 648.865L188.128 696.296L229.443 720.149L228.943 721.015L187.128 696.874L187.136 648.287Z" fill="#DDEBF6"/>
<path fill-rule="evenodd" clip-rule="evenodd" d="M271.274 648.561L271.335 696.61L270.335 696.612L270.274 648.563L271.274 648.561Z" fill="#DDEBF6"/>
<path fill-rule="evenodd" clip-rule="evenodd" d="M229.451 673.006L187.878 697.018L187.378 696.152L228.951 672.14L229.451 673.006Z" fill="#DDEBF6"/>
<path fill-rule="evenodd" clip-rule="evenodd" d="M229.709 624.565L229.701 672.574L228.701 672.573L228.709 624.565L229.709 624.565Z" fill="#DDEBF6"/>
<path fill-rule="evenodd" clip-rule="evenodd" d="M270.585 697.044L228.951 673.007L229.451 672.141L271.085 696.178L270.585 697.044Z" fill="#DDEBF6"/>
<path fill-rule="evenodd" clip-rule="evenodd" d="M145.781 864.189L187.423 840.218L187.922 841.085L146.28 865.056L145.781 864.189Z" fill="#DDEBF6"/>
<path fill-rule="evenodd" clip-rule="evenodd" d="M187.923 840.218L229.488 864.216L228.988 865.082L187.423 841.084L187.923 840.218Z" fill="#DDEBF6"/>
<path fill-rule="evenodd" clip-rule="evenodd" d="M103.966 840.625L103.974 792.616L104.974 792.617L104.966 840.625L103.966 840.625Z" fill="#DDEBF6"/>
<path fill-rule="evenodd" clip-rule="evenodd" d="M146.297 768.172L187.862 792.17L187.362 793.036L145.797 769.038L146.297 768.172Z" fill="#DDEBF6"/>
<path fill-rule="evenodd" clip-rule="evenodd" d="M188.112 792.602L188.173 840.651L187.173 840.652L187.112 792.603L188.112 792.602Z" fill="#DDEBF6"/>
<path fill-rule="evenodd" clip-rule="evenodd" d="M187.423 841.084L145.789 817.047L146.289 816.181L187.923 840.218L187.423 841.084Z" fill="#DDEBF6"/>
<path fill-rule="evenodd" clip-rule="evenodd" d="M312.83 480.594L312.822 528.602L311.822 528.602L311.83 480.593L312.83 480.594Z" fill="#DDEBF6"/>
<path fill-rule="evenodd" clip-rule="evenodd" d="M311.876 624.661L311.815 576.612L312.815 576.61L312.876 624.659L311.876 624.661Z" fill="#AEC4E3"/>
<path fill-rule="evenodd" clip-rule="evenodd" d="M353.941 648.08L312.626 624.227L312.126 625.093L353.941 649.235L396.014 624.935L396.022 576.349L354.207 552.207L353.707 553.073L395.022 576.926L395.014 624.358L353.941 648.08Z" fill="#AEC4E3"/>
<path fill-rule="evenodd" clip-rule="evenodd" d="M354.199 601.082L312.626 625.093L312.126 624.227L353.699 600.216L354.199 601.082Z" fill="#AEC4E3"/>
<path fill-rule="evenodd" clip-rule="evenodd" d="M354.457 552.64L354.449 600.649L353.449 600.649L353.457 552.64L354.457 552.64Z" fill="#AEC4E3"/>
<path fill-rule="evenodd" clip-rule="evenodd" d="M395.264 625.079L353.699 601.082L354.199 600.216L395.764 624.213L395.264 625.079Z" fill="#AEC4E3"/>
<path fill-rule="evenodd" clip-rule="evenodd" d="M395.735 384.995L354.162 409.006L353.662 408.14L395.234 384.129L395.735 384.995Z" fill="#AEC4E3"/>
<path fill-rule="evenodd" clip-rule="evenodd" d="M395.993 336.553L395.985 384.562L394.985 384.562L394.993 336.553L395.993 336.553Z" fill="#AEC4E3"/>
<path fill-rule="evenodd" clip-rule="evenodd" d="M436.869 409.032L395.234 384.995L395.734 384.129L437.369 408.166L436.869 409.032Z" fill="#AEC4E3"/>
<path fill-rule="evenodd" clip-rule="evenodd" d="M395.25 288.111L436.823 264.1L437.323 264.966L395.751 288.977L395.25 288.111Z" fill="#AEC4E3"/>
<path fill-rule="evenodd" clip-rule="evenodd" d="M312.089 432.152L353.662 408.14L354.162 409.006L312.589 433.018L312.089 432.152Z" fill="#AEC4E3"/>
<path fill-rule="evenodd" clip-rule="evenodd" d="M353.662 409.006L354.162 408.14L395.477 431.994L436.869 408.166L437.368 409.033L395.476 433.148L353.662 409.006Z" fill="#AEC4E3"/>
<path fill-rule="evenodd" clip-rule="evenodd" d="M354.154 457.015L312.581 481.026L312.08 480.16L353.653 456.149L354.154 457.015Z" fill="#AEC4E3"/>
<path fill-rule="evenodd" clip-rule="evenodd" d="M354.412 408.573L354.404 456.582L353.404 456.582L353.412 408.573L354.412 408.573Z" fill="#AEC4E3"/>
<path fill-rule="evenodd" clip-rule="evenodd" d="M395.288 481.053L353.654 457.015L354.154 456.149L395.788 480.186L395.288 481.053Z" fill="#AEC4E3"/>
<path fill-rule="evenodd" clip-rule="evenodd" d="M270.508 505.038L228.943 481.04L229.443 480.174L271.008 504.172L270.508 505.038Z" fill="#AEC4E3"/>
<path fill-rule="evenodd" clip-rule="evenodd" d="M228.882 432.125L270.525 408.154L271.023 409.02L229.381 432.992L228.882 432.125Z" fill="#AEC4E3"/>
<path fill-rule="evenodd" clip-rule="evenodd" d="M228.693 480.608L228.632 432.559L229.632 432.558L229.693 480.607L228.693 480.608Z" fill="#AEC4E3"/>
<path fill-rule="evenodd" clip-rule="evenodd" d="M271.024 408.154L312.589 432.152L312.089 433.018L270.524 409.02L271.024 408.154Z" fill="#AEC4E3"/>
<path fill-rule="evenodd" clip-rule="evenodd" d="M312.839 432.585L312.831 480.593L311.831 480.593L311.839 432.584L312.839 432.585Z" fill="#AEC4E3"/>
<path fill-rule="evenodd" clip-rule="evenodd" d="M271.016 457.029L229.443 481.04L228.943 480.174L270.516 456.163L271.016 457.029Z" fill="#AEC4E3"/>
<path fill-rule="evenodd" clip-rule="evenodd" d="M271.274 408.587L271.266 456.596L270.266 456.596L270.274 408.587L271.274 408.587Z" fill="#AEC4E3"/>
<path fill-rule="evenodd" clip-rule="evenodd" d="M312.081 481.026L270.516 457.029L271.016 456.163L312.581 480.16L312.081 481.026Z" fill="#AEC4E3"/>
<path fill-rule="evenodd" clip-rule="evenodd" d="M187.362 793.035L145.797 769.038L146.297 768.172L187.862 792.169L187.362 793.035Z" fill="#AEC4E3"/>
<path fill-rule="evenodd" clip-rule="evenodd" d="M145.805 720.163L187.378 696.152L187.878 697.018L146.305 721.029L145.805 720.163Z" fill="#AEC4E3"/>
<path fill-rule="evenodd" clip-rule="evenodd" d="M145.547 768.605L145.555 720.596L146.555 720.596L146.547 768.605L145.547 768.605Z" fill="#AEC4E3"/>
<path fill-rule="evenodd" clip-rule="evenodd" d="M104.216 841.058L62.6514 817.061L63.1514 816.195L104.716 840.192L104.216 841.058Z" fill="#AEC4E3"/>
<path fill-rule="evenodd" clip-rule="evenodd" d="M62.6591 768.186L104.232 744.174L104.732 745.04L63.1593 769.052L62.6591 768.186Z" fill="#AEC4E3"/>
<path fill-rule="evenodd" clip-rule="evenodd" d="M62.4016 816.628L62.4096 768.619L63.4096 768.619L63.4016 816.628L62.4016 816.628Z" fill="#AEC4E3"/>
<path fill-rule="evenodd" clip-rule="evenodd" d="M104.732 744.175L146.297 768.172L145.797 769.038L104.232 745.041L104.732 744.175Z" fill="#AEC4E3"/>
<path fill-rule="evenodd" clip-rule="evenodd" d="M145.539 816.325L104.216 840.192L104.716 841.058L146.539 816.902L146.547 768.605L145.547 768.605L145.539 816.325Z" fill="#AEC4E3"/>
<path fill-rule="evenodd" clip-rule="evenodd" d="M104.724 793.049L63.1514 817.06L62.6513 816.195L104.224 792.183L104.724 793.049Z" fill="#AEC4E3"/>
<path fill-rule="evenodd" clip-rule="evenodd" d="M104.982 744.607L104.974 792.616L103.974 792.616L103.982 744.607L104.982 744.607Z" fill="#AEC4E3"/>
<path fill-rule="evenodd" clip-rule="evenodd" d="M145.789 817.047L104.224 793.049L104.724 792.183L146.289 816.181L145.789 817.047Z" fill="#AEC4E3"/>
<path fill-rule="evenodd" clip-rule="evenodd" d="M62.6435 864.204L104.216 840.192L104.717 841.058L63.1436 865.07L62.6435 864.204Z" fill="#AEC4E3"/>
<path fill-rule="evenodd" clip-rule="evenodd" d="M103.966 839.759L146.531 864.334L146.593 913.538L103.958 888.923L103.966 839.759ZM104.958 888.345L145.591 911.805L145.531 864.911L104.966 841.491L104.958 888.345Z" fill="#AEC4E3"/>
<path fill-rule="evenodd" clip-rule="evenodd" d="M187.878 696.152L229.693 720.293L229.754 768.63L228.754 768.632L228.693 720.871L187.378 697.018L187.878 696.152Z" fill="#AEC4E3"/>
<path fill-rule="evenodd" clip-rule="evenodd" d="M187.12 744.305L145.797 768.172L146.297 769.038L188.12 744.882L188.128 696.585L187.128 696.585L187.12 744.305Z" fill="#AEC4E3"/>
<path fill-rule="evenodd" clip-rule="evenodd" d="M187.386 648.143L228.959 624.132L229.459 624.998L187.886 649.009L187.386 648.143Z" fill="#AEC4E3"/>
<path fill-rule="evenodd" clip-rule="evenodd" d="M229.459 624.132L271.024 648.129L270.524 648.995L228.959 624.998L229.459 624.132Z" fill="#AEC4E3"/>
<path fill-rule="evenodd" clip-rule="evenodd" d="M229.451 673.006L187.878 697.018L187.378 696.152L228.951 672.14L229.451 673.006Z" fill="#AEC4E3"/>
<path fill-rule="evenodd" clip-rule="evenodd" d="M229.709 624.565L229.701 672.573L228.701 672.573L228.709 624.564L229.709 624.565Z" fill="#AEC4E3"/>
<path fill-rule="evenodd" clip-rule="evenodd" d="M228.951 673.006L229.451 672.14L270.334 695.744L270.274 648.563L271.274 648.561L271.336 697.478L228.951 673.006Z" fill="#AEC4E3"/>
<path fill-rule="evenodd" clip-rule="evenodd" d="M312.625 625.094L271.023 648.996L270.525 648.129L312.127 624.226L312.625 625.094Z" fill="#AEC4E3"/>
<path fill-rule="evenodd" clip-rule="evenodd" d="M271 552.181L312.565 576.178L312.065 577.044L270.5 553.047L271 552.181Z" fill="#AEC4E3"/>
<path fill-rule="evenodd" clip-rule="evenodd" d="M270.992 601.056L229.459 624.998L228.959 624.131L270.492 600.189L270.992 601.056Z" fill="#AEC4E3"/>
<path fill-rule="evenodd" clip-rule="evenodd" d="M271.25 552.614L271.242 600.623L270.242 600.622L270.25 552.614L271.25 552.614Z" fill="#AEC4E3"/>
<path fill-rule="evenodd" clip-rule="evenodd" d="M312.126 625.093L270.492 601.055L270.992 600.189L312.626 624.227L312.126 625.093Z" fill="#AEC4E3"/>
<path fill-rule="evenodd" clip-rule="evenodd" d="M270.25 552.613L270.258 504.605L271.258 504.605L271.25 552.614L270.25 552.613Z" fill="#AEC4E3"/>
<path fill-rule="evenodd" clip-rule="evenodd" d="M353.396 504.88L312.081 481.026L312.581 480.16L354.395 504.302L354.457 552.639L353.457 552.64L353.396 504.88Z" fill="#AEC4E3"/>
<path fill-rule="evenodd" clip-rule="evenodd" d="M312.573 529.035L271 553.047L270.5 552.181L312.073 528.169L312.573 529.035Z" fill="#AEC4E3"/>
<path fill-rule="evenodd" clip-rule="evenodd" d="M312.83 480.593L312.822 528.602L311.822 528.602L311.83 480.593L312.83 480.593Z" fill="#AEC4E3"/>
<path fill-rule="evenodd" clip-rule="evenodd" d="M353.707 553.073L312.073 529.035L312.573 528.169L354.207 552.207L353.707 553.073Z" fill="#AEC4E3"/>
<path fill-rule="evenodd" clip-rule="evenodd" d="M187.386 649.009L145.821 625.011L146.321 624.145L187.886 648.143L187.386 649.009Z" fill="#AEC4E3"/>
<path fill-rule="evenodd" clip-rule="evenodd" d="M145.761 576.096L187.363 552.194L187.861 553.061L146.259 576.963L145.761 576.096Z" fill="#AEC4E3"/>
<path fill-rule="evenodd" clip-rule="evenodd" d="M145.571 624.579L145.51 576.53L146.51 576.529L146.571 624.578L145.571 624.579Z" fill="#AEC4E3"/>
<path fill-rule="evenodd" clip-rule="evenodd" d="M187.862 552.194L229.427 576.192L228.927 577.058L187.362 553.06L187.862 552.194Z" fill="#AEC4E3"/>
<path fill-rule="evenodd" clip-rule="evenodd" d="M229.677 576.625L229.709 624.564L228.709 624.565L228.677 576.625L229.677 576.625Z" fill="#AEC4E3"/>
<path fill-rule="evenodd" clip-rule="evenodd" d="M187.894 601L146.321 625.011L145.821 624.145L187.394 600.134L187.894 601Z" fill="#AEC4E3"/>
<path fill-rule="evenodd" clip-rule="evenodd" d="M188.112 552.627L188.144 600.567L187.144 600.567L187.112 552.628L188.112 552.627Z" fill="#AEC4E3"/>
<path fill-rule="evenodd" clip-rule="evenodd" d="M228.959 624.998L187.394 601L187.894 600.134L229.459 624.131L228.959 624.998Z" fill="#AEC4E3"/>
<path fill-rule="evenodd" clip-rule="evenodd" d="M353.662 409.006L312.097 385.009L312.597 384.143L354.162 408.14L353.662 409.006Z" fill="#AEC4E3"/>
<path fill-rule="evenodd" clip-rule="evenodd" d="M353.411 408.573L353.419 360.564L354.419 360.564L354.411 408.573L353.411 408.573Z" fill="#AEC4E3"/>
</g>
<defs>
<clipPath id="clip0_520_11266">
<rect width="957" height="385" fill="white" transform="translate(0 828.786) rotate(-60)"/>
</clipPath>
</defs>
</svg>
