<svg width="25" height="25" viewBox="0 0 25 25" fill="none" xmlns="http://www.w3.org/2000/svg">
<path fill-rule="evenodd" clip-rule="evenodd" d="M2 5.00391C2 2.93284 3.67893 1.25391 5.75 1.25391H19.75C21.8211 1.25391 23.5 2.93284 23.5 5.00391V15.0039C23.5 17.075 21.8211 18.7539 19.75 18.7539H13.5V21.2539H15.75C16.1642 21.2539 16.5 21.5897 16.5 22.0039C16.5 22.4181 16.1642 22.7539 15.75 22.7539H9.75C9.33579 22.7539 9 22.4181 9 22.0039C9 21.5897 9.33579 21.2539 9.75 21.2539H12V18.7539H5.75C3.67893 18.7539 2 17.075 2 15.0039V5.00391ZM3.5 14.7539V15.0039C3.5 16.2465 4.50736 17.2539 5.75 17.2539H19.75C20.9926 17.2539 22 16.2465 22 15.0039V14.7539H3.5ZM22 13.2539H3.5V5.00391C3.5 3.76127 4.50736 2.75391 5.75 2.75391H19.75C20.9926 2.75391 22 3.76127 22 5.00391V13.2539Z" fill="#8A949F"/>
</svg>
