<svg width="813" height="889" viewBox="0 0 813 889" fill="none" xmlns="http://www.w3.org/2000/svg">
<g opacity="0.5" clip-path="url(#clip0_520_11729)">
<path opacity="0.5" fill-rule="evenodd" clip-rule="evenodd" d="M167.628 11.1882L209.193 -12.8093L209.693 -11.9433L168.128 12.0542L167.628 11.1882Z" fill="#DDEBF6"/>
<path fill-rule="evenodd" clip-rule="evenodd" d="M208.89 323.657L208.882 275.648L209.882 275.648L209.89 323.656L208.89 323.657Z" fill="#DDEBF6"/>
<path fill-rule="evenodd" clip-rule="evenodd" d="M209.132 275.215L250.947 251.073L292.77 275.228L292.27 276.094L250.947 252.227L209.632 276.081L209.132 275.215Z" fill="#DDEBF6"/>
<path fill-rule="evenodd" clip-rule="evenodd" d="M251.455 299.659L251.463 347.668L250.463 347.668L250.455 299.659L251.455 299.659Z" fill="#DDEBF6"/>
<path fill-rule="evenodd" clip-rule="evenodd" d="M209.632 275.215L251.205 299.226L250.705 300.092L209.132 276.081L209.632 275.215Z" fill="#DDEBF6"/>
<path fill-rule="evenodd" clip-rule="evenodd" d="M292.77 276.094L251.205 300.092L250.705 299.226L292.27 275.228L292.77 276.094Z" fill="#DDEBF6"/>
<path fill-rule="evenodd" clip-rule="evenodd" d="M416.808 347.367L375.493 371.22L375.993 372.086L417.808 347.944L417.8 299.647L416.8 299.647L416.808 347.367Z" fill="#DDEBF6"/>
<path fill-rule="evenodd" clip-rule="evenodd" d="M333.6 347.97L333.662 299.632L334.662 299.633L334.601 347.393L375.992 371.22L375.493 372.086L333.6 347.97Z" fill="#DDEBF6"/>
<path fill-rule="evenodd" clip-rule="evenodd" d="M376.235 323.644L376.243 371.653L375.243 371.653L375.235 323.644L376.235 323.644Z" fill="#DDEBF6"/>
<path fill-rule="evenodd" clip-rule="evenodd" d="M334.412 299.2L375.985 323.211L375.485 324.077L333.912 300.066L334.412 299.2Z" fill="#DDEBF6"/>
<path fill-rule="evenodd" clip-rule="evenodd" d="M417.55 300.08L375.985 324.077L375.485 323.211L417.05 299.214L417.55 300.08Z" fill="#DDEBF6"/>
<path fill-rule="evenodd" clip-rule="evenodd" d="M375.977 276.068L334.412 300.066L333.912 299.2L375.477 275.202L375.977 276.068Z" fill="#DDEBF6"/>
<path fill-rule="evenodd" clip-rule="evenodd" d="M292.02 275.661L292.081 227.612L293.081 227.613L293.02 275.662L292.02 275.661Z" fill="#DDEBF6"/>
<path fill-rule="evenodd" clip-rule="evenodd" d="M333.913 300.066L292.271 276.095L292.769 275.228L334.412 299.199L333.913 300.066Z" fill="#DDEBF6"/>
<path fill-rule="evenodd" clip-rule="evenodd" d="M334.654 251.624L334.662 299.633L333.662 299.633L333.654 251.624L334.654 251.624Z" fill="#DDEBF6"/>
<path fill-rule="evenodd" clip-rule="evenodd" d="M292.831 227.18L334.404 251.191L333.904 252.057L292.331 228.046L292.831 227.18Z" fill="#DDEBF6"/>
<path fill-rule="evenodd" clip-rule="evenodd" d="M375.969 228.059L334.404 252.057L333.904 251.191L375.469 227.193L375.969 228.059Z" fill="#DDEBF6"/>
<path fill-rule="evenodd" clip-rule="evenodd" d="M459.184 276.042L417.55 300.08L417.05 299.214L458.684 275.176L459.184 276.042Z" fill="#DDEBF6"/>
<path fill-rule="evenodd" clip-rule="evenodd" d="M375.227 275.635L375.219 227.626L376.219 227.626L376.227 275.635L375.227 275.635Z" fill="#DDEBF6"/>
<path fill-rule="evenodd" clip-rule="evenodd" d="M417.05 300.08L375.477 276.068L375.977 275.202L417.55 299.214L417.05 300.08Z" fill="#DDEBF6"/>
<path fill-rule="evenodd" clip-rule="evenodd" d="M416.792 251.926L416.8 299.647L417.8 299.647L417.792 251.349L375.969 227.193L375.469 228.059L416.792 251.926Z" fill="#DDEBF6"/>
<path fill-rule="evenodd" clip-rule="evenodd" d="M334.396 204.048L292.831 228.046L292.331 227.18L333.896 203.182L334.396 204.048Z" fill="#DDEBF6"/>
<path fill-rule="evenodd" clip-rule="evenodd" d="M250.439 203.93L250.5 155.592L251.5 155.593L251.44 203.352L292.831 227.179L292.332 228.046L250.439 203.93Z" fill="#DDEBF6"/>
<path fill-rule="evenodd" clip-rule="evenodd" d="M293.073 179.604L293.081 227.613L292.081 227.613L292.073 179.604L293.073 179.604Z" fill="#DDEBF6"/>
<path fill-rule="evenodd" clip-rule="evenodd" d="M251.25 155.159L292.823 179.171L292.323 180.037L250.75 156.025L251.25 155.159Z" fill="#DDEBF6"/>
<path fill-rule="evenodd" clip-rule="evenodd" d="M334.388 156.039L292.823 180.037L292.323 179.171L333.888 155.173L334.388 156.039Z" fill="#DDEBF6"/>
<path fill-rule="evenodd" clip-rule="evenodd" d="M416.853 203.3L375.469 227.193L375.969 228.059L417.853 203.878L417.845 155.58L416.845 155.58L416.853 203.3Z" fill="#DDEBF6"/>
<path fill-rule="evenodd" clip-rule="evenodd" d="M333.646 203.615L333.638 155.606L334.638 155.606L334.646 203.615L333.646 203.615Z" fill="#DDEBF6"/>
<path fill-rule="evenodd" clip-rule="evenodd" d="M375.469 228.059L333.896 204.048L334.396 203.182L375.969 227.193L375.469 228.059Z" fill="#DDEBF6"/>
<path fill-rule="evenodd" clip-rule="evenodd" d="M376.211 179.617L376.219 227.626L375.219 227.626L375.211 179.618L376.211 179.617Z" fill="#DDEBF6"/>
<path fill-rule="evenodd" clip-rule="evenodd" d="M334.388 155.173L375.961 179.185L375.461 180.051L333.888 156.039L334.388 155.173Z" fill="#DDEBF6"/>
<path fill-rule="evenodd" clip-rule="evenodd" d="M417.595 156.013L375.961 180.051L375.461 179.185L417.095 155.147L417.595 156.013Z" fill="#DDEBF6"/>
<path fill-rule="evenodd" clip-rule="evenodd" d="M292.815 132.028L251.25 156.025L250.75 155.159L292.315 131.162L292.815 132.028Z" fill="#DDEBF6"/>
<path fill-rule="evenodd" clip-rule="evenodd" d="M208.858 131.91L208.919 83.5715L209.919 83.5728L209.858 131.332L251.25 155.159L250.751 156.026L208.858 131.91Z" fill="#DDEBF6"/>
<path fill-rule="evenodd" clip-rule="evenodd" d="M209.169 83.1392L250.734 59.1417L251.234 60.0077L209.669 84.0052L209.169 83.1392Z" fill="#DDEBF6"/>
<path fill-rule="evenodd" clip-rule="evenodd" d="M251.234 59.1417L292.807 83.1531L292.307 84.019L250.734 60.0077L251.234 59.1417Z" fill="#DDEBF6"/>
<path fill-rule="evenodd" clip-rule="evenodd" d="M251.492 107.583L251.5 155.592L250.5 155.592L250.492 107.584L251.492 107.583Z" fill="#DDEBF6"/>
<path fill-rule="evenodd" clip-rule="evenodd" d="M209.67 83.1392L251.243 107.151L250.742 108.017L209.17 84.0052L209.67 83.1392Z" fill="#DDEBF6"/>
<path fill-rule="evenodd" clip-rule="evenodd" d="M292.807 84.019L251.242 108.017L250.742 107.151L292.307 83.153L292.807 84.019Z" fill="#DDEBF6"/>
<path fill-rule="evenodd" clip-rule="evenodd" d="M251.476 11.5658L251.484 59.5746L250.484 59.5748L250.476 11.5659L251.476 11.5658Z" fill="#DDEBF6"/>
<path fill-rule="evenodd" clip-rule="evenodd" d="M167.277 59.8896L167.378 11.6202L168.378 11.6223L168.278 59.3121L209.669 83.1389L209.17 84.0055L167.277 59.8896Z" fill="#DDEBF6"/>
<path fill-rule="evenodd" clip-rule="evenodd" d="M209.693 -12.8095L251.226 11.1327L250.727 11.999L209.194 -11.9431L209.693 -12.8095Z" fill="#DDEBF6"/>
<path fill-rule="evenodd" clip-rule="evenodd" d="M209.912 35.5633L209.92 83.5721L208.92 83.5723L208.912 35.5634L209.912 35.5633Z" fill="#DDEBF6"/>
<path fill-rule="evenodd" clip-rule="evenodd" d="M168.128 11.1881L209.661 35.1302L209.162 35.9965L167.629 12.0544L168.128 11.1881Z" fill="#DDEBF6"/>
<path fill-rule="evenodd" clip-rule="evenodd" d="M251.227 11.9989L209.662 35.9964L209.162 35.1303L250.727 11.1328L251.227 11.9989Z" fill="#DDEBF6"/>
<path fill-rule="evenodd" clip-rule="evenodd" d="M376.022 132.002L334.388 156.039L333.888 155.173L375.522 131.136L376.022 132.002Z" fill="#DDEBF6"/>
<path fill-rule="evenodd" clip-rule="evenodd" d="M292.065 131.595L292.057 83.5861L293.057 83.5859L293.065 131.595L292.065 131.595Z" fill="#DDEBF6"/>
<path fill-rule="evenodd" clip-rule="evenodd" d="M333.888 156.039L292.315 132.028L292.815 131.162L334.388 155.173L333.888 156.039Z" fill="#DDEBF6"/>
<path fill-rule="evenodd" clip-rule="evenodd" d="M334.63 107.597L334.638 155.606L333.638 155.606L333.63 107.597L334.63 107.597Z" fill="#DDEBF6"/>
<path fill-rule="evenodd" clip-rule="evenodd" d="M292.807 83.153L334.38 107.164L333.88 108.03L292.307 84.019L292.807 83.153Z" fill="#DDEBF6"/>
<path fill-rule="evenodd" clip-rule="evenodd" d="M376.014 83.9929L334.38 108.03L333.88 107.164L375.514 83.1268L376.014 83.9929Z" fill="#DDEBF6"/>
<path fill-rule="evenodd" clip-rule="evenodd" d="M334.441 59.9815L292.807 84.019L292.307 83.153L333.941 59.1155L334.441 59.9815Z" fill="#DDEBF6"/>
<path fill-rule="evenodd" clip-rule="evenodd" d="M250.726 11.1328L292.36 -12.9047L292.86 -12.0387L251.226 11.9988L250.726 11.1328Z" fill="#DDEBF6"/>
<path fill-rule="evenodd" clip-rule="evenodd" d="M293.049 35.5771L293.057 83.5859L292.057 83.5861L292.049 35.5772L293.049 35.5771Z" fill="#DDEBF6"/>
<path fill-rule="evenodd" clip-rule="evenodd" d="M251.226 11.1329L292.799 35.1442L292.299 36.0102L250.726 11.9988L251.226 11.1329Z" fill="#DDEBF6"/>
<path fill-rule="evenodd" clip-rule="evenodd" d="M333.691 59.5486L333.683 11.5397L334.683 11.5396L334.691 59.5484L333.691 59.5486Z" fill="#DDEBF6"/>
<path fill-rule="evenodd" clip-rule="evenodd" d="M375.514 83.9928L333.941 59.9815L334.442 59.1155L376.015 83.1269L375.514 83.9928Z" fill="#DDEBF6"/>
<path fill-rule="evenodd" clip-rule="evenodd" d="M416.829 59.2737L375.514 83.1268L376.014 83.9929L417.829 59.851L417.821 11.2648L375.998 -12.8908L375.498 -12.0249L416.821 11.8421L416.829 59.2737Z" fill="#DDEBF6"/>
<path fill-rule="evenodd" clip-rule="evenodd" d="M376.256 35.5509L376.264 83.5598L375.264 83.5599L375.256 35.5511L376.256 35.5509Z" fill="#DDEBF6"/>
<path fill-rule="evenodd" clip-rule="evenodd" d="M292.299 35.1442L334.183 10.9623L376.006 35.118L375.506 35.984L334.183 12.117L292.799 36.0102L292.299 35.1442Z" fill="#DDEBF6"/>
<path fill-rule="evenodd" clip-rule="evenodd" d="M417.571 11.9865L376.006 35.984L375.506 35.118L417.071 11.1205L417.571 11.9865Z" fill="#DDEBF6"/>
<path fill-rule="evenodd" clip-rule="evenodd" d="M459.16 132.016L417.595 156.013L417.095 155.147L458.66 131.15L459.16 132.016Z" fill="#DDEBF6"/>
<path fill-rule="evenodd" clip-rule="evenodd" d="M375.272 131.569L375.264 83.5599L376.264 83.5597L376.272 131.569L375.272 131.569Z" fill="#DDEBF6"/>
<path fill-rule="evenodd" clip-rule="evenodd" d="M376.014 83.1269L417.587 107.138L417.087 108.004L375.514 83.9928L376.014 83.1269Z" fill="#DDEBF6"/>
<path fill-rule="evenodd" clip-rule="evenodd" d="M500.211 443.254L541.846 419.217L542.346 420.083L500.711 444.12L500.211 443.254Z" fill="#DDEBF6"/>
<path fill-rule="evenodd" clip-rule="evenodd" d="M542.535 467.699L542.503 515.638L541.503 515.638L541.535 467.698L542.535 467.699Z" fill="#DDEBF6"/>
<path fill-rule="evenodd" clip-rule="evenodd" d="M500.712 443.254L542.285 467.265L541.784 468.131L500.212 444.12L500.712 443.254Z" fill="#DDEBF6"/>
<path fill-rule="evenodd" clip-rule="evenodd" d="M583.137 491.312L541.752 515.205L542.252 516.071L584.136 491.889L584.169 442.795L541.784 467.265L542.284 468.131L583.168 444.527L583.137 491.312Z" fill="#DDEBF6"/>
<path fill-rule="evenodd" clip-rule="evenodd" d="M375.182 419.701L375.243 371.652L376.243 371.654L376.182 419.702L375.182 419.701Z" fill="#DDEBF6"/>
<path fill-rule="evenodd" clip-rule="evenodd" d="M417.816 395.664L417.824 443.673L416.824 443.673L416.816 395.664L417.816 395.664Z" fill="#DDEBF6"/>
<path fill-rule="evenodd" clip-rule="evenodd" d="M375.993 371.22L417.566 395.231L417.066 396.097L375.493 372.086L375.993 371.22Z" fill="#DDEBF6"/>
<path fill-rule="evenodd" clip-rule="evenodd" d="M458.381 372.533L417.566 396.097L417.066 395.231L459.381 370.801L459.389 419.676L458.389 419.676L458.381 372.533Z" fill="#DDEBF6"/>
<path fill-rule="evenodd" clip-rule="evenodd" d="M375.931 419.269L417.573 443.24L417.074 444.107L375.432 420.135L375.931 419.269Z" fill="#DDEBF6"/>
<path fill-rule="evenodd" clip-rule="evenodd" d="M376.19 467.711L376.198 515.719L375.198 515.72L375.19 467.711L376.19 467.711Z" fill="#DDEBF6"/>
<path fill-rule="evenodd" clip-rule="evenodd" d="M417.574 444.106L375.939 468.144L375.439 467.278L417.074 443.24L417.574 444.106Z" fill="#DDEBF6"/>
<path fill-rule="evenodd" clip-rule="evenodd" d="M541.465 707.713L541.527 659.664L542.527 659.665L542.465 707.714L541.465 707.713Z" fill="#DDEBF6"/>
<path fill-rule="evenodd" clip-rule="evenodd" d="M541.776 659.232L583.341 635.234L583.841 636.1L542.276 660.098L541.776 659.232Z" fill="#DDEBF6"/>
<path fill-rule="evenodd" clip-rule="evenodd" d="M584.1 683.676L584.107 731.685L583.107 731.685L583.1 683.676L584.1 683.676Z" fill="#DDEBF6"/>
<path fill-rule="evenodd" clip-rule="evenodd" d="M542.277 659.232L583.849 683.243L583.349 684.109L541.776 660.098L542.277 659.232Z" fill="#DDEBF6"/>
<path fill-rule="evenodd" clip-rule="evenodd" d="M583.85 684.109L583.35 683.243L624.165 659.678L583.342 636.1L583.842 635.234L626.164 659.678L583.85 684.109Z" fill="#DDEBF6"/>
<path fill-rule="evenodd" clip-rule="evenodd" d="M541.777 660.098L500.135 636.126L500.634 635.26L542.276 659.231L541.777 660.098Z" fill="#DDEBF6"/>
<path fill-rule="evenodd" clip-rule="evenodd" d="M500.196 587.211L541.761 563.214L542.261 564.08L500.696 588.077L500.196 587.211Z" fill="#DDEBF6"/>
<path fill-rule="evenodd" clip-rule="evenodd" d="M583.083 587.947L583.091 635.667L584.091 635.667L584.083 587.37L542.261 563.214L541.76 564.08L583.083 587.947Z" fill="#DDEBF6"/>
<path fill-rule="evenodd" clip-rule="evenodd" d="M542.518 611.656L542.526 659.664L541.526 659.665L541.518 611.656L542.518 611.656Z" fill="#DDEBF6"/>
<path fill-rule="evenodd" clip-rule="evenodd" d="M500.696 587.211L542.268 611.223L541.768 612.089L500.195 588.077L500.696 587.211Z" fill="#DDEBF6"/>
<path fill-rule="evenodd" clip-rule="evenodd" d="M583.833 588.091L542.269 612.089L541.769 611.223L583.333 587.225L583.833 588.091Z" fill="#DDEBF6"/>
<path fill-rule="evenodd" clip-rule="evenodd" d="M542.502 515.638L542.51 563.647L541.51 563.647L541.502 515.638L542.502 515.638Z" fill="#DDEBF6"/>
<path fill-rule="evenodd" clip-rule="evenodd" d="M458.303 563.672L458.405 515.692L459.405 515.694L459.303 563.674L458.303 563.672Z" fill="#DDEBF6"/>
<path fill-rule="evenodd" clip-rule="evenodd" d="M458.655 515.26L500.22 491.263L500.72 492.129L459.155 516.126L458.655 515.26Z" fill="#DDEBF6"/>
<path fill-rule="evenodd" clip-rule="evenodd" d="M500.719 491.263L542.252 515.205L541.753 516.071L500.22 492.129L500.719 491.263Z" fill="#DDEBF6"/>
<path fill-rule="evenodd" clip-rule="evenodd" d="M542.252 516.071L500.688 540.068L500.187 539.202L541.752 515.205L542.252 516.071Z" fill="#DDEBF6"/>
<path fill-rule="evenodd" clip-rule="evenodd" d="M500.962 443.687L500.97 491.696L499.97 491.696L499.962 443.687L500.962 443.687Z" fill="#DDEBF6"/>
<path fill-rule="evenodd" clip-rule="evenodd" d="M333.625 491.997L333.617 443.411L375.432 419.269L375.932 420.135L334.617 443.988L334.625 491.42L375.698 515.142L417.262 491.145L459.154 515.26L458.655 516.127L417.263 492.299L375.698 516.297L333.625 491.997Z" fill="#DDEBF6"/>
<path fill-rule="evenodd" clip-rule="evenodd" d="M417.074 443.24L458.639 419.243L459.139 420.109L417.574 444.106L417.074 443.24Z" fill="#DDEBF6"/>
<path fill-rule="evenodd" clip-rule="evenodd" d="M459.139 419.243L500.712 443.254L500.212 444.12L458.639 420.109L459.139 419.243Z" fill="#DDEBF6"/>
<path fill-rule="evenodd" clip-rule="evenodd" d="M459.397 467.684L459.405 515.693L458.405 515.693L458.397 467.685L459.397 467.684Z" fill="#DDEBF6"/>
<path fill-rule="evenodd" clip-rule="evenodd" d="M417.574 443.24L459.147 467.252L458.647 468.118L417.074 444.106L417.574 443.24Z" fill="#DDEBF6"/>
<path fill-rule="evenodd" clip-rule="evenodd" d="M500.711 444.12L459.146 468.118L458.646 467.252L500.211 443.254L500.711 444.12Z" fill="#DDEBF6"/>
<path fill-rule="evenodd" clip-rule="evenodd" d="M500.945 587.645L500.884 635.694L499.884 635.693L499.946 587.644L500.945 587.645Z" fill="#DDEBF6"/>
<path fill-rule="evenodd" clip-rule="evenodd" d="M416.747 635.968L416.739 587.382L458.554 563.24L459.054 564.106L417.739 587.959L417.747 635.391L458.82 659.113L500.134 635.26L500.634 636.126L458.819 660.268L416.747 635.968Z" fill="#DDEBF6"/>
<path fill-rule="evenodd" clip-rule="evenodd" d="M459.053 563.24L500.695 587.211L500.196 588.078L458.554 564.106L459.053 563.24Z" fill="#DDEBF6"/>
<path fill-rule="evenodd" clip-rule="evenodd" d="M459.311 611.682L459.319 659.691L458.319 659.691L458.311 611.682L459.311 611.682Z" fill="#DDEBF6"/>
<path fill-rule="evenodd" clip-rule="evenodd" d="M417.489 587.238L459.061 611.249L458.561 612.115L416.988 588.103L417.489 587.238Z" fill="#DDEBF6"/>
<path fill-rule="evenodd" clip-rule="evenodd" d="M500.696 588.077L459.062 612.115L458.562 611.249L500.196 587.211L500.696 588.077Z" fill="#DDEBF6"/>
<path fill-rule="evenodd" clip-rule="evenodd" d="M583.046 779.733L583.107 731.684L584.107 731.685L584.046 779.734L583.046 779.733Z" fill="#DDEBF6"/>
<path fill-rule="evenodd" clip-rule="evenodd" d="M583.357 731.252L624.922 707.254L625.422 708.12L583.857 732.118L583.357 731.252Z" fill="#DDEBF6"/>
<path fill-rule="evenodd" clip-rule="evenodd" d="M541.731 804.164L500.158 780.153L500.658 779.287L542.231 803.298L541.731 804.164Z" fill="#DDEBF6"/>
<path fill-rule="evenodd" clip-rule="evenodd" d="M500.15 731.278L541.715 707.28L542.215 708.146L500.65 732.144L500.15 731.278Z" fill="#DDEBF6"/>
<path fill-rule="evenodd" clip-rule="evenodd" d="M542.215 707.28L583.857 731.251L583.358 732.118L541.716 708.147L542.215 707.28Z" fill="#DDEBF6"/>
<path fill-rule="evenodd" clip-rule="evenodd" d="M583.857 732.118L542.223 756.155L541.723 755.289L583.357 731.252L583.857 732.118Z" fill="#DDEBF6"/>
<path fill-rule="evenodd" clip-rule="evenodd" d="M334.367 443.266L375.94 467.278L375.44 468.144L333.867 444.132L334.367 443.266Z" fill="#DDEBF6"/>
<path fill-rule="evenodd" clip-rule="evenodd" d="M458.655 516.127L417.013 492.155L417.512 491.289L459.154 515.26L458.655 516.127Z" fill="#AEC4E3"/>
<path fill-rule="evenodd" clip-rule="evenodd" d="M499.97 491.407L458.655 515.26L459.155 516.126L500.97 491.984L500.962 443.398L458.889 419.098L417.074 443.24L417.574 444.106L458.889 420.253L499.962 443.976L499.97 491.407Z" fill="#AEC4E3"/>
<path fill-rule="evenodd" clip-rule="evenodd" d="M459.397 467.684L459.405 515.693L458.405 515.693L458.397 467.685L459.397 467.684Z" fill="#AEC4E3"/>
<path fill-rule="evenodd" clip-rule="evenodd" d="M417.574 443.24L459.147 467.252L458.647 468.118L417.074 444.106L417.574 443.24Z" fill="#AEC4E3"/>
<path fill-rule="evenodd" clip-rule="evenodd" d="M500.711 444.12L459.146 468.118L458.646 467.252L500.211 443.254L500.711 444.12Z" fill="#AEC4E3"/>
<path fill-rule="evenodd" clip-rule="evenodd" d="M293.028 323.67L293.036 371.679L292.036 371.679L292.028 323.67L293.028 323.67Z" fill="#AEC4E3"/>
<path fill-rule="evenodd" clip-rule="evenodd" d="M251.205 299.226L292.778 323.237L292.278 324.103L250.705 300.092L251.205 299.226Z" fill="#AEC4E3"/>
<path fill-rule="evenodd" clip-rule="evenodd" d="M334.412 300.066L292.778 324.103L292.278 323.237L333.912 299.2L334.412 300.066Z" fill="#AEC4E3"/>
<path fill-rule="evenodd" clip-rule="evenodd" d="M208.882 275.648L208.874 227.639L209.874 227.639L209.882 275.647L208.882 275.648Z" fill="#AEC4E3"/>
<path fill-rule="evenodd" clip-rule="evenodd" d="M250.947 251.073L209.624 227.206L209.124 228.072L250.947 252.227L292.831 228.046L292.331 227.18L250.947 251.073Z" fill="#AEC4E3"/>
<path fill-rule="evenodd" clip-rule="evenodd" d="M375.977 276.068L334.412 300.066L333.912 299.2L375.477 275.202L375.977 276.068Z" fill="#AEC4E3"/>
<path fill-rule="evenodd" clip-rule="evenodd" d="M334.654 251.624L334.662 299.633L333.662 299.633L333.654 251.624L334.654 251.624Z" fill="#AEC4E3"/>
<path fill-rule="evenodd" clip-rule="evenodd" d="M292.831 227.18L334.404 251.191L333.904 252.057L292.331 228.046L292.831 227.18Z" fill="#AEC4E3"/>
<path fill-rule="evenodd" clip-rule="evenodd" d="M334.404 252.057L333.904 251.191L374.719 227.626L333.896 204.048L334.396 203.182L376.719 227.627L334.404 252.057Z" fill="#AEC4E3"/>
<path fill-rule="evenodd" clip-rule="evenodd" d="M251.189 204.074L209.624 228.072L209.124 227.206L250.689 203.208L251.189 204.074Z" fill="#AEC4E3"/>
<path fill-rule="evenodd" clip-rule="evenodd" d="M209.124 228.072L167.551 204.06L168.051 203.194L209.624 227.206L209.124 228.072Z" fill="#AEC4E3"/>
<path fill-rule="evenodd" clip-rule="evenodd" d="M209.866 179.918L209.874 227.639L208.874 227.639L208.866 179.341L250.75 155.159L251.25 156.025L209.866 179.918Z" fill="#AEC4E3"/>
<path fill-rule="evenodd" clip-rule="evenodd" d="M334.396 204.048L292.831 228.046L292.331 227.18L333.896 203.182L334.396 204.048Z" fill="#AEC4E3"/>
<path fill-rule="evenodd" clip-rule="evenodd" d="M334.638 155.606L334.646 203.615L333.646 203.615L333.638 155.606L334.638 155.606Z" fill="#AEC4E3"/>
<path fill-rule="evenodd" clip-rule="evenodd" d="M250.439 203.641L250.5 155.592L251.5 155.593L251.439 203.642L250.439 203.641Z" fill="#AEC4E3"/>
<path fill-rule="evenodd" clip-rule="evenodd" d="M292.332 228.046L250.69 204.074L251.188 203.208L292.831 227.179L292.332 228.046Z" fill="#AEC4E3"/>
<path fill-rule="evenodd" clip-rule="evenodd" d="M293.073 179.604L293.081 227.612L292.081 227.613L292.073 179.604L293.073 179.604Z" fill="#AEC4E3"/>
<path fill-rule="evenodd" clip-rule="evenodd" d="M251.25 155.159L292.823 179.171L292.323 180.037L250.75 156.025L251.25 155.159Z" fill="#AEC4E3"/>
<path fill-rule="evenodd" clip-rule="evenodd" d="M334.388 156.039L292.823 180.037L292.323 179.171L333.888 155.173L334.388 156.039Z" fill="#AEC4E3"/>
<path fill-rule="evenodd" clip-rule="evenodd" d="M168.285 107.61L168.293 155.618L167.293 155.619L167.285 107.61L168.285 107.61Z" fill="#AEC4E3"/>
<path fill-rule="evenodd" clip-rule="evenodd" d="M126.462 83.1654L168.035 107.177L167.535 108.043L125.962 84.0313L126.462 83.1654Z" fill="#AEC4E3"/>
<path fill-rule="evenodd" clip-rule="evenodd" d="M209.669 84.0052L168.035 108.043L167.535 107.177L209.169 83.1392L209.669 84.0052Z" fill="#AEC4E3"/>
<path fill-rule="evenodd" clip-rule="evenodd" d="M168.027 60.0338L126.462 84.0313L125.962 83.1653L167.527 59.1678L168.027 60.0338Z" fill="#AEC4E3"/>
<path fill-rule="evenodd" clip-rule="evenodd" d="M84.1792 59.9452L84.1712 11.6475L85.1712 11.6473L85.1791 59.3673L126.462 83.1652L125.962 84.0315L84.1792 59.9452Z" fill="#AEC4E3"/>
<path fill-rule="evenodd" clip-rule="evenodd" d="M84.4214 11.2143L125.986 -12.7832L126.486 -11.9172L84.9214 12.0804L84.4214 11.2143Z" fill="#AEC4E3"/>
<path fill-rule="evenodd" clip-rule="evenodd" d="M126.486 -12.7835L168.128 11.1878L167.629 12.0545L125.987 -11.9168L126.486 -12.7835Z" fill="#AEC4E3"/>
<path fill-rule="evenodd" clip-rule="evenodd" d="M126.744 35.6591L126.712 83.5987L125.712 83.598L125.744 35.6584L126.744 35.6591Z" fill="#AEC4E3"/>
<path fill-rule="evenodd" clip-rule="evenodd" d="M84.9216 11.2144L126.495 35.2257L125.994 36.0917L84.4215 12.0803L84.9216 11.2144Z" fill="#AEC4E3"/>
<path fill-rule="evenodd" clip-rule="evenodd" d="M208.858 131.62L208.919 83.5715L209.919 83.5728L209.858 131.622L208.858 131.62Z" fill="#AEC4E3"/>
<path fill-rule="evenodd" clip-rule="evenodd" d="M250.751 156.026L209.108 132.054L209.607 131.188L251.25 155.159L250.751 156.026Z" fill="#AEC4E3"/>
<path fill-rule="evenodd" clip-rule="evenodd" d="M251.492 107.583L251.5 155.592L250.5 155.592L250.492 107.584L251.492 107.583Z" fill="#AEC4E3"/>
<path fill-rule="evenodd" clip-rule="evenodd" d="M209.669 83.1392L251.242 107.151L250.742 108.016L209.169 84.0051L209.669 83.1392Z" fill="#AEC4E3"/>
<path fill-rule="evenodd" clip-rule="evenodd" d="M292.807 84.019L251.242 108.017L250.742 107.15L292.307 83.153L292.807 84.019Z" fill="#AEC4E3"/>
<path fill-rule="evenodd" clip-rule="evenodd" d="M251.234 60.0077L209.669 84.0052L209.169 83.1392L250.734 59.1417L251.234 60.0077Z" fill="#AEC4E3"/>
<path fill-rule="evenodd" clip-rule="evenodd" d="M167.277 59.5998L167.378 11.6201L168.378 11.6223L168.277 59.6019L167.277 59.5998Z" fill="#AEC4E3"/>
<path fill-rule="evenodd" clip-rule="evenodd" d="M209.17 84.0055L167.528 60.0342L168.027 59.1675L209.669 83.1388L209.17 84.0055Z" fill="#AEC4E3"/>
<path fill-rule="evenodd" clip-rule="evenodd" d="M209.693 -12.8095L251.226 11.1327L250.726 11.999L209.193 -11.9431L209.693 -12.8095Z" fill="#AEC4E3"/>
<path fill-rule="evenodd" clip-rule="evenodd" d="M209.912 35.5633L209.92 83.5721L208.92 83.5723L208.912 35.5634L209.912 35.5633Z" fill="#AEC4E3"/>
<path fill-rule="evenodd" clip-rule="evenodd" d="M251.226 11.9988L209.661 35.9963L209.161 35.1303L250.726 11.1328L251.226 11.9988Z" fill="#AEC4E3"/>
<path fill-rule="evenodd" clip-rule="evenodd" d="M250.484 59.5747L250.476 11.5659L251.476 11.5657L251.484 59.5746L250.484 59.5747Z" fill="#AEC4E3"/>
<path fill-rule="evenodd" clip-rule="evenodd" d="M292.307 84.019L250.734 60.0076L251.234 59.1417L292.807 83.153L292.307 84.019Z" fill="#AEC4E3"/>
<path fill-rule="evenodd" clip-rule="evenodd" d="M293.049 35.5771L293.057 83.5859L292.057 83.5861L292.049 35.5772L293.049 35.5771Z" fill="#AEC4E3"/>
<path fill-rule="evenodd" clip-rule="evenodd" d="M251.226 11.1328L292.799 35.1442L292.299 36.0101L250.726 11.9988L251.226 11.1328Z" fill="#AEC4E3"/>
<path fill-rule="evenodd" clip-rule="evenodd" d="M292.807 84.019L292.307 83.153L333.691 59.2598L333.683 12.4056L292.799 36.0102L292.299 35.1441L334.683 10.6737L334.691 59.8371L292.807 84.019Z" fill="#AEC4E3"/>
<path fill-rule="evenodd" clip-rule="evenodd" d="M334.63 107.597L334.638 155.606L333.638 155.606L333.63 107.597L334.63 107.597Z" fill="#AEC4E3"/>
<path fill-rule="evenodd" clip-rule="evenodd" d="M292.807 83.153L334.38 107.164L333.88 108.03L292.307 84.019L292.807 83.153Z" fill="#AEC4E3"/>
<path fill-rule="evenodd" clip-rule="evenodd" d="M376.014 83.9928L334.38 108.03L333.88 107.164L375.514 83.1268L376.014 83.9928Z" fill="#AEC4E3"/>
<path fill-rule="evenodd" clip-rule="evenodd" d="M292.044 419.688L292.036 371.679L293.036 371.679L293.044 419.688L292.044 419.688Z" fill="#AEC4E3"/>
<path fill-rule="evenodd" clip-rule="evenodd" d="M292.786 372.112L292.286 371.246L333.601 347.393L333.662 299.632L334.662 299.633L334.6 347.97L292.786 372.112Z" fill="#AEC4E3"/>
<path fill-rule="evenodd" clip-rule="evenodd" d="M334.609 395.69L334.617 443.699L333.617 443.699L333.609 395.691L334.609 395.69Z" fill="#AEC4E3"/>
<path fill-rule="evenodd" clip-rule="evenodd" d="M292.786 371.246L334.359 395.257L333.859 396.123L292.286 372.112L292.786 371.246Z" fill="#AEC4E3"/>
<path fill-rule="evenodd" clip-rule="evenodd" d="M375.993 372.086L334.359 396.123L333.859 395.257L375.493 371.22L375.993 372.086Z" fill="#AEC4E3"/>
<path fill-rule="evenodd" clip-rule="evenodd" d="M334.374 492.141L292.81 516.139L292.31 515.273L333.874 491.275L334.374 492.141Z" fill="#AEC4E3"/>
<path fill-rule="evenodd" clip-rule="evenodd" d="M250.417 491.734L250.479 443.685L251.479 443.686L251.417 491.735L250.417 491.734Z" fill="#AEC4E3"/>
<path fill-rule="evenodd" clip-rule="evenodd" d="M292.31 516.139L250.668 492.168L251.167 491.301L292.809 515.272L292.31 516.139Z" fill="#AEC4E3"/>
<path fill-rule="evenodd" clip-rule="evenodd" d="M250.729 443.252L292.294 419.255L292.794 420.121L251.229 444.118L250.729 443.252Z" fill="#AEC4E3"/>
<path fill-rule="evenodd" clip-rule="evenodd" d="M292.794 419.255L334.367 443.266L333.866 444.132L292.294 420.121L292.794 419.255Z" fill="#AEC4E3"/>
<path fill-rule="evenodd" clip-rule="evenodd" d="M293.052 467.697L293.06 515.706L292.06 515.706L292.052 467.697L293.052 467.697Z" fill="#AEC4E3"/>
<path fill-rule="evenodd" clip-rule="evenodd" d="M251.229 443.253L292.802 467.264L292.301 468.13L250.729 444.118L251.229 443.253Z" fill="#AEC4E3"/>
<path fill-rule="evenodd" clip-rule="evenodd" d="M334.367 444.132L292.802 468.13L292.302 467.264L333.867 443.266L334.367 444.132Z" fill="#AEC4E3"/>
<path fill-rule="evenodd" clip-rule="evenodd" d="M542.215 708.146L500.65 732.144L500.15 731.278L541.715 707.28L542.215 708.146Z" fill="#AEC4E3"/>
<path fill-rule="evenodd" clip-rule="evenodd" d="M458.327 707.7L458.319 659.691L459.319 659.691L459.327 707.699L458.327 707.7Z" fill="#AEC4E3"/>
<path fill-rule="evenodd" clip-rule="evenodd" d="M500.15 732.144L458.577 708.132L459.077 707.267L500.65 731.278L500.15 732.144Z" fill="#AEC4E3"/>
<path fill-rule="evenodd" clip-rule="evenodd" d="M542.231 804.164L500.666 828.162L500.166 827.296L541.731 803.298L542.231 804.164Z" fill="#AEC4E3"/>
<path fill-rule="evenodd" clip-rule="evenodd" d="M458.343 803.717L458.335 755.708L459.335 755.708L459.343 803.717L458.343 803.717Z" fill="#AEC4E3"/>
<path fill-rule="evenodd" clip-rule="evenodd" d="M500.166 828.162L458.593 804.15L459.093 803.284L500.666 827.296L500.166 828.162Z" fill="#AEC4E3"/>
<path fill-rule="evenodd" clip-rule="evenodd" d="M458.585 755.275L500.15 731.278L500.65 732.144L459.085 756.141L458.585 755.275Z" fill="#AEC4E3"/>
<path fill-rule="evenodd" clip-rule="evenodd" d="M541.473 756.011L541.481 803.731L542.481 803.731L542.473 755.434L500.65 731.278L500.15 732.144L541.473 756.011Z" fill="#AEC4E3"/>
<path fill-rule="evenodd" clip-rule="evenodd" d="M500.908 779.72L500.916 827.728L499.916 827.729L499.908 779.72L500.908 779.72Z" fill="#AEC4E3"/>
<path fill-rule="evenodd" clip-rule="evenodd" d="M459.085 755.275L500.658 779.287L500.158 780.153L458.585 756.141L459.085 755.275Z" fill="#AEC4E3"/>
<path fill-rule="evenodd" clip-rule="evenodd" d="M542.223 756.155L500.658 780.153L500.158 779.287L541.723 755.289L542.223 756.155Z" fill="#AEC4E3"/>
<path fill-rule="evenodd" clip-rule="evenodd" d="M541.489 851.74L541.481 803.731L542.481 803.731L542.489 851.74L541.489 851.74Z" fill="#AEC4E3"/>
<path fill-rule="evenodd" clip-rule="evenodd" d="M540.981 803.731L583.545 779.156L626.189 803.704L583.554 828.32L540.981 803.731ZM583.554 827.165L624.187 803.705L583.546 780.311L542.981 803.731L583.554 827.165Z" fill="#AEC4E3"/>
<path fill-rule="evenodd" clip-rule="evenodd" d="M458.569 659.258L500.384 635.116L542.276 659.231L541.777 660.098L500.384 636.27L459.069 660.124L458.569 659.258Z" fill="#AEC4E3"/>
<path fill-rule="evenodd" clip-rule="evenodd" d="M499.893 683.991L499.9 731.711L500.9 731.711L500.892 683.413L459.07 659.258L458.57 660.124L499.893 683.991Z" fill="#AEC4E3"/>
<path fill-rule="evenodd" clip-rule="evenodd" d="M416.747 635.679L416.739 587.671L417.739 587.67L417.747 635.679L416.747 635.679Z" fill="#AEC4E3"/>
<path fill-rule="evenodd" clip-rule="evenodd" d="M416.988 587.237L458.553 563.24L459.053 564.106L417.488 588.103L416.988 587.237Z" fill="#AEC4E3"/>
<path fill-rule="evenodd" clip-rule="evenodd" d="M459.311 611.682L459.319 659.691L458.319 659.691L458.311 611.682L459.311 611.682Z" fill="#AEC4E3"/>
<path fill-rule="evenodd" clip-rule="evenodd" d="M417.489 587.237L459.061 611.249L458.561 612.115L416.988 588.103L417.489 587.237Z" fill="#AEC4E3"/>
<path fill-rule="evenodd" clip-rule="evenodd" d="M459.062 612.115L458.562 611.249L499.445 587.645L458.554 564.106L459.053 563.24L501.447 587.644L459.062 612.115Z" fill="#AEC4E3"/>
<path fill-rule="evenodd" clip-rule="evenodd" d="M459.405 515.694L459.303 563.674L458.303 563.672L458.405 515.692L459.405 515.694Z" fill="#AEC4E3"/>
<path fill-rule="evenodd" clip-rule="evenodd" d="M375.448 515.287L417.013 491.289L417.513 492.155L375.948 516.153L375.448 515.287Z" fill="#AEC4E3"/>
<path fill-rule="evenodd" clip-rule="evenodd" d="M417.77 539.731L417.738 587.671L416.738 587.67L416.77 539.731L417.77 539.731Z" fill="#AEC4E3"/>
<path fill-rule="evenodd" clip-rule="evenodd" d="M375.947 515.287L417.52 539.298L417.02 540.164L375.447 516.153L375.947 515.287Z" fill="#AEC4E3"/>
<path fill-rule="evenodd" clip-rule="evenodd" d="M459.155 516.126L417.521 540.164L417.021 539.298L458.655 515.26L459.155 516.126Z" fill="#AEC4E3"/>
<path fill-rule="evenodd" clip-rule="evenodd" d="M375.447 516.152L333.875 492.141L334.375 491.275L375.948 515.287L375.447 516.152Z" fill="#AEC4E3"/>
<path fill-rule="evenodd" clip-rule="evenodd" d="M375.682 420.279L334.367 444.132L333.867 443.266L375.681 419.125L417.573 443.24L417.074 444.106L375.682 420.279Z" fill="#AEC4E3"/>
<path fill-rule="evenodd" clip-rule="evenodd" d="M376.189 467.711L376.197 515.719L375.197 515.72L375.189 467.711L376.189 467.711Z" fill="#AEC4E3"/>
<path fill-rule="evenodd" clip-rule="evenodd" d="M334.367 443.266L375.94 467.278L375.44 468.144L333.867 444.132L334.367 443.266Z" fill="#AEC4E3"/>
<path fill-rule="evenodd" clip-rule="evenodd" d="M417.574 444.106L375.939 468.144L375.439 467.278L417.074 443.24L417.574 444.106Z" fill="#AEC4E3"/>
<path fill-rule="evenodd" clip-rule="evenodd" d="M417.497 636.112L375.932 660.11L375.432 659.244L416.997 635.246L417.497 636.112Z" fill="#AEC4E3"/>
<path fill-rule="evenodd" clip-rule="evenodd" d="M333.54 635.704L333.641 587.725L334.641 587.727L334.54 635.707L333.54 635.704Z" fill="#AEC4E3"/>
<path fill-rule="evenodd" clip-rule="evenodd" d="M375.432 660.11L333.79 636.139L334.289 635.272L375.931 659.244L375.432 660.11Z" fill="#AEC4E3"/>
<path fill-rule="evenodd" clip-rule="evenodd" d="M333.891 587.293L375.456 563.295L375.956 564.161L334.391 588.159L333.891 587.293Z" fill="#AEC4E3"/>
<path fill-rule="evenodd" clip-rule="evenodd" d="M375.955 563.295L417.488 587.237L416.989 588.104L375.456 564.162L375.955 563.295Z" fill="#AEC4E3"/>
<path fill-rule="evenodd" clip-rule="evenodd" d="M376.174 611.668L376.182 659.677L375.182 659.677L375.174 611.668L376.174 611.668Z" fill="#AEC4E3"/>
<path fill-rule="evenodd" clip-rule="evenodd" d="M334.391 587.293L375.923 611.235L375.424 612.101L333.891 588.159L334.391 587.293Z" fill="#AEC4E3"/>
<path fill-rule="evenodd" clip-rule="evenodd" d="M417.488 588.104L375.923 612.101L375.423 611.235L416.988 587.237L417.488 588.104Z" fill="#AEC4E3"/>
<path fill-rule="evenodd" clip-rule="evenodd" d="M292.786 372.112L251.221 396.11L250.721 395.244L292.286 371.246L292.786 372.112Z" fill="#AEC4E3"/>
<path fill-rule="evenodd" clip-rule="evenodd" d="M292.286 372.112L250.713 348.101L251.213 347.235L292.786 371.246L292.286 372.112Z" fill="#AEC4E3"/>
<path fill-rule="evenodd" clip-rule="evenodd" d="M292.065 131.883L292.057 83.5861L293.057 83.5859L293.065 131.306L334.388 155.173L333.888 156.039L292.065 131.883Z" fill="#AEC4E3"/>
<path fill-rule="evenodd" clip-rule="evenodd" d="M125.72 131.896L125.712 83.5984L126.712 83.5982L126.72 131.319L167.793 155.041L209.108 131.188L209.608 132.054L167.793 156.196L125.72 131.896Z" fill="#AEC4E3"/>
<path fill-rule="evenodd" clip-rule="evenodd" d="M292.019 275.95L292.081 227.612L293.081 227.613L293.02 275.373L334.411 299.199L333.912 300.066L292.019 275.95Z" fill="#AEC4E3"/>
</g>
<defs>
<clipPath id="clip0_520_11729">
<rect width="957" height="385" fill="white" transform="translate(479.495 888.282) rotate(-120)"/>
</clipPath>
</defs>
</svg>
