<svg width="297" height="910" viewBox="0 0 297 910" fill="none" xmlns="http://www.w3.org/2000/svg">
<g opacity="0.5" clip-path="url(#clip0_520_12209)">
<path opacity="0.5" fill-rule="evenodd" clip-rule="evenodd" d="M91.7112 39.4189L137.213 39.4189L137.213 40.4189L91.7112 40.4189L91.7112 39.4189Z" fill="white"/>
<path fill-rule="evenodd" clip-rule="evenodd" d="M-22.5525 316.365L0.198393 276.826L1.06515 277.325L-21.6857 316.864L-22.5525 316.365Z" fill="white"/>
<path fill-rule="evenodd" clip-rule="evenodd" d="M0.631834 276.576L46.4228 276.576L69.3179 316.365L68.4511 316.864L45.8444 277.576L0.631834 277.576L0.631834 276.576Z" fill="white"/>
<path fill-rule="evenodd" clip-rule="evenodd" d="M23.8161 316.864L1.06524 356.402L0.198486 355.904L22.9494 316.365L23.8161 316.864Z" fill="white"/>
<path fill-rule="evenodd" clip-rule="evenodd" d="M1.06524 276.826L23.8161 316.365L22.9494 316.864L0.198485 277.325L1.06524 276.826Z" fill="white"/>
<path fill-rule="evenodd" clip-rule="evenodd" d="M68.8843 317.114L23.3826 317.114L23.3826 316.114L68.8843 316.114L68.8843 317.114Z" fill="white"/>
<path fill-rule="evenodd" clip-rule="evenodd" d="M136.924 434.731L91.7112 434.731L91.7112 435.731L137.502 435.731L160.397 395.941L159.53 395.443L136.924 434.731Z" fill="white"/>
<path fill-rule="evenodd" clip-rule="evenodd" d="M68.3071 395.692L91.2782 355.903L92.1442 356.403L69.4618 395.692L92.1442 434.981L91.2782 435.481L68.3071 395.692Z" fill="white"/>
<path fill-rule="evenodd" clip-rule="evenodd" d="M114.895 395.941L92.1446 435.48L91.2778 434.981L114.029 395.442L114.895 395.941Z" fill="white"/>
<path fill-rule="evenodd" clip-rule="evenodd" d="M92.1446 355.904L114.895 395.442L114.029 395.941L91.2778 356.402L92.1446 355.904Z" fill="white"/>
<path fill-rule="evenodd" clip-rule="evenodd" d="M159.964 396.192L114.462 396.192L114.462 395.192L159.964 395.192L159.964 396.192Z" fill="white"/>
<path fill-rule="evenodd" clip-rule="evenodd" d="M137.213 356.653L91.7112 356.653L91.7112 355.653L137.213 355.653L137.213 356.653Z" fill="white"/>
<path fill-rule="evenodd" clip-rule="evenodd" d="M68.4514 316.364L91.2781 276.826L92.1442 277.325L69.3175 316.864L68.4514 316.364Z" fill="white"/>
<path fill-rule="evenodd" clip-rule="evenodd" d="M91.2781 356.403L68.4514 316.864L69.3174 316.364L92.1442 355.903L91.2781 356.403Z" fill="white"/>
<path fill-rule="evenodd" clip-rule="evenodd" d="M114.895 316.864L92.1446 356.402L91.2778 355.904L114.029 316.365L114.895 316.864Z" fill="white"/>
<path fill-rule="evenodd" clip-rule="evenodd" d="M92.1446 276.826L114.895 316.365L114.029 316.864L91.2778 277.325L92.1446 276.826Z" fill="white"/>
<path fill-rule="evenodd" clip-rule="evenodd" d="M159.964 317.114L114.462 317.114L114.462 316.114L159.964 316.114L159.964 317.114Z" fill="white"/>
<path fill-rule="evenodd" clip-rule="evenodd" d="M205.541 396.192L159.964 396.192L159.964 395.192L205.541 395.192L205.541 396.192Z" fill="white"/>
<path fill-rule="evenodd" clip-rule="evenodd" d="M136.78 355.904L159.53 316.365L160.397 316.864L137.646 356.402L136.78 355.904Z" fill="white"/>
<path fill-rule="evenodd" clip-rule="evenodd" d="M159.53 395.941L136.78 356.402L137.646 355.904L160.397 395.442L159.53 395.941Z" fill="white"/>
<path fill-rule="evenodd" clip-rule="evenodd" d="M182.138 356.153L159.531 395.442L160.397 395.941L183.292 356.153L160.397 316.365L159.531 316.864L182.138 356.153Z" fill="white"/>
<path fill-rule="evenodd" clip-rule="evenodd" d="M137.213 277.575L91.7112 277.575L91.7112 276.575L137.213 276.575L137.213 277.575Z" fill="white"/>
<path fill-rule="evenodd" clip-rule="evenodd" d="M68.3071 237.537L91.2782 197.748L92.1442 198.248L69.4618 237.537L92.1442 276.825L91.2782 277.325L68.3071 237.537Z" fill="white"/>
<path fill-rule="evenodd" clip-rule="evenodd" d="M114.895 237.786L92.1446 277.325L91.2778 276.826L114.029 237.287L114.895 237.786Z" fill="white"/>
<path fill-rule="evenodd" clip-rule="evenodd" d="M92.1446 197.749L114.895 237.287L114.029 237.786L91.2778 198.247L92.1446 197.749Z" fill="white"/>
<path fill-rule="evenodd" clip-rule="evenodd" d="M159.964 238.037L114.462 238.037L114.462 237.037L159.964 237.037L159.964 238.037Z" fill="white"/>
<path fill-rule="evenodd" clip-rule="evenodd" d="M205.252 316.114L159.964 316.114L159.964 317.114L205.831 317.114L228.726 277.325L227.859 276.826L205.252 316.114Z" fill="white"/>
<path fill-rule="evenodd" clip-rule="evenodd" d="M136.78 276.826L159.53 237.287L160.397 237.786L137.646 277.325L136.78 276.826Z" fill="white"/>
<path fill-rule="evenodd" clip-rule="evenodd" d="M159.53 316.864L136.78 277.325L137.646 276.826L160.397 316.365L159.53 316.864Z" fill="white"/>
<path fill-rule="evenodd" clip-rule="evenodd" d="M183.148 277.325L160.397 316.864L159.531 316.365L182.281 276.826L183.148 277.325Z" fill="white"/>
<path fill-rule="evenodd" clip-rule="evenodd" d="M160.397 237.287L183.148 276.826L182.281 277.325L159.531 237.786L160.397 237.287Z" fill="white"/>
<path fill-rule="evenodd" clip-rule="evenodd" d="M228.292 277.575L182.715 277.575L182.715 276.575L228.292 276.575L228.292 277.575Z" fill="white"/>
<path fill-rule="evenodd" clip-rule="evenodd" d="M137.213 198.498L91.7112 198.498L91.7112 197.498L137.213 197.498L137.213 198.498Z" fill="white"/>
<path fill-rule="evenodd" clip-rule="evenodd" d="M68.3071 158.459L91.2782 118.671L92.1442 119.171L69.4618 158.459L92.1442 197.748L91.2782 198.248L68.3071 158.459Z" fill="white"/>
<path fill-rule="evenodd" clip-rule="evenodd" d="M91.7112 118.42L137.213 118.42L137.213 119.42L91.7112 119.42L91.7112 118.42Z" fill="white"/>
<path fill-rule="evenodd" clip-rule="evenodd" d="M137.646 118.671L160.397 158.21L159.53 158.708L136.78 119.17L137.646 118.671Z" fill="white"/>
<path fill-rule="evenodd" clip-rule="evenodd" d="M114.895 158.709L92.1446 198.247L91.2778 197.749L114.029 158.21L114.895 158.709Z" fill="white"/>
<path fill-rule="evenodd" clip-rule="evenodd" d="M92.1446 118.671L114.895 158.21L114.029 158.708L91.2778 119.17L92.1446 118.671Z" fill="white"/>
<path fill-rule="evenodd" clip-rule="evenodd" d="M159.964 158.959L114.462 158.959L114.462 157.959L159.964 157.959L159.964 158.959Z" fill="white"/>
<path fill-rule="evenodd" clip-rule="evenodd" d="M160.397 79.6312L137.646 119.17L136.78 118.671L159.53 79.1324L160.397 79.6312Z" fill="white"/>
<path fill-rule="evenodd" clip-rule="evenodd" d="M68.3069 79.3814L91.2783 39.6685L92.1439 40.1693L69.4618 79.3819L92.1441 118.67L91.2781 119.17L68.3069 79.3814Z" fill="white"/>
<path fill-rule="evenodd" clip-rule="evenodd" d="M137.646 39.6691L160.397 79.1319L159.531 79.6313L136.78 40.1686L137.646 39.6691Z" fill="white"/>
<path fill-rule="evenodd" clip-rule="evenodd" d="M114.895 79.6312L92.1446 119.17L91.2778 118.671L114.029 79.1324L114.895 79.6312Z" fill="white"/>
<path fill-rule="evenodd" clip-rule="evenodd" d="M92.1444 39.6691L114.895 79.1319L114.029 79.6313L91.2781 40.1686L92.1444 39.6691Z" fill="white"/>
<path fill-rule="evenodd" clip-rule="evenodd" d="M159.964 79.8816L114.462 79.8816L114.462 78.8816L159.964 78.8816L159.964 79.8816Z" fill="white"/>
<path fill-rule="evenodd" clip-rule="evenodd" d="M205.541 238.037L159.964 238.037L159.964 237.037L205.541 237.037L205.541 238.037Z" fill="white"/>
<path fill-rule="evenodd" clip-rule="evenodd" d="M136.78 197.749L159.53 158.21L160.397 158.709L137.646 198.247L136.78 197.749Z" fill="white"/>
<path fill-rule="evenodd" clip-rule="evenodd" d="M159.53 237.786L136.78 198.247L137.646 197.749L160.397 237.287L159.53 237.786Z" fill="white"/>
<path fill-rule="evenodd" clip-rule="evenodd" d="M183.148 198.247L160.397 237.786L159.531 237.287L182.281 197.749L183.148 198.247Z" fill="white"/>
<path fill-rule="evenodd" clip-rule="evenodd" d="M160.397 158.21L183.148 197.749L182.281 198.247L159.531 158.709L160.397 158.21Z" fill="white"/>
<path fill-rule="evenodd" clip-rule="evenodd" d="M228.292 198.498L182.715 198.498L182.715 197.498L228.292 197.498L228.292 198.498Z" fill="white"/>
<path fill-rule="evenodd" clip-rule="evenodd" d="M205.541 158.959L159.964 158.959L159.964 157.959L205.541 157.959L205.541 158.959Z" fill="white"/>
<path fill-rule="evenodd" clip-rule="evenodd" d="M159.964 78.8816L205.541 78.8816L205.541 79.8816L159.964 79.8816L159.964 78.8816Z" fill="white"/>
<path fill-rule="evenodd" clip-rule="evenodd" d="M183.148 119.17L160.397 158.708L159.53 158.21L182.281 118.671L183.148 119.17Z" fill="white"/>
<path fill-rule="evenodd" clip-rule="evenodd" d="M160.397 79.1324L183.148 118.671L182.281 119.17L159.53 79.6312L160.397 79.1324Z" fill="white"/>
<path fill-rule="evenodd" clip-rule="evenodd" d="M205.108 158.21L227.859 118.671L228.726 119.17L205.975 158.708L205.108 158.21Z" fill="white"/>
<path fill-rule="evenodd" clip-rule="evenodd" d="M227.859 198.247L205.108 158.709L205.975 158.21L228.726 197.749L227.859 198.247Z" fill="white"/>
<path fill-rule="evenodd" clip-rule="evenodd" d="M273.505 197.498L228.292 197.498L228.292 198.498L274.083 198.498L297.122 158.459L274.227 118.671L273.361 119.17L295.968 158.459L273.505 197.498Z" fill="white"/>
<path fill-rule="evenodd" clip-rule="evenodd" d="M251.477 158.709L228.726 198.247L227.859 197.749L250.61 158.21L251.477 158.709Z" fill="white"/>
<path fill-rule="evenodd" clip-rule="evenodd" d="M182.715 118.42L228.581 118.42L251.476 158.21L250.61 158.708L228.003 119.42L182.715 119.42L182.715 118.42Z" fill="white"/>
<path fill-rule="evenodd" clip-rule="evenodd" d="M296.545 158.959L251.043 158.959L251.043 157.959L296.545 157.959L296.545 158.959Z" fill="white"/>
<path fill-rule="evenodd" clip-rule="evenodd" d="M273.794 277.575L228.292 277.575L228.292 276.575L273.794 276.575L273.794 277.575Z" fill="white"/>
<path fill-rule="evenodd" clip-rule="evenodd" d="M205.108 237.287L227.859 197.749L228.726 198.247L205.975 237.786L205.108 237.287Z" fill="white"/>
<path fill-rule="evenodd" clip-rule="evenodd" d="M228.726 197.749L251.477 237.287L250.61 237.786L227.859 198.247L228.726 197.749Z" fill="white"/>
<path fill-rule="evenodd" clip-rule="evenodd" d="M159.964 553.347L205.541 553.347L205.541 554.347L159.964 554.347L159.964 553.347Z" fill="white"/>
<path fill-rule="evenodd" clip-rule="evenodd" d="M183.148 593.635L160.397 633.098L159.531 632.599L182.281 593.136L183.148 593.635Z" fill="white"/>
<path fill-rule="evenodd" clip-rule="evenodd" d="M160.397 553.598L183.148 593.136L182.281 593.635L159.531 554.096L160.397 553.598Z" fill="white"/>
<path fill-rule="evenodd" clip-rule="evenodd" d="M205.253 632.348L159.964 632.348L159.964 633.348L205.83 633.348L229.158 592.886L182.715 592.886L182.715 593.886L227.427 593.886L205.253 632.348Z" fill="white"/>
<path fill-rule="evenodd" clip-rule="evenodd" d="M68.4514 474.519L91.2781 434.981L92.1442 435.481L69.3175 475.019L68.4514 474.519Z" fill="white"/>
<path fill-rule="evenodd" clip-rule="evenodd" d="M114.895 475.019L92.1446 514.557L91.2778 514.059L114.029 474.52L114.895 475.019Z" fill="white"/>
<path fill-rule="evenodd" clip-rule="evenodd" d="M92.1446 434.981L114.895 474.52L114.029 475.019L91.2778 435.48L92.1446 434.981Z" fill="white"/>
<path fill-rule="evenodd" clip-rule="evenodd" d="M159.099 475.269L114.462 475.269L114.462 474.269L160.828 474.269L137.646 514.557L136.779 514.059L159.099 475.269Z" fill="white"/>
<path fill-rule="evenodd" clip-rule="evenodd" d="M69.3174 474.519L92.1442 514.058L91.2781 514.558L68.4514 475.019L69.3174 474.519Z" fill="white"/>
<path fill-rule="evenodd" clip-rule="evenodd" d="M46.5669 514.557L23.816 554.096L22.9492 553.597L45.7001 514.059L46.5669 514.557Z" fill="white"/>
<path fill-rule="evenodd" clip-rule="evenodd" d="M91.7112 514.808L46.1335 514.808L46.1335 513.808L91.7112 513.808L91.7112 514.808Z" fill="white"/>
<path fill-rule="evenodd" clip-rule="evenodd" d="M68.4514 790.753L91.2781 751.215L92.1442 751.715L69.3175 791.253L68.4514 790.753Z" fill="white"/>
<path fill-rule="evenodd" clip-rule="evenodd" d="M91.7112 750.965L137.213 750.965L137.213 751.965L91.7112 751.965L91.7112 750.965Z" fill="white"/>
<path fill-rule="evenodd" clip-rule="evenodd" d="M114.895 791.253L92.1446 830.792L91.2778 830.293L114.029 790.754L114.895 791.253Z" fill="white"/>
<path fill-rule="evenodd" clip-rule="evenodd" d="M92.1446 751.215L114.895 790.754L114.029 791.253L91.2778 751.714L92.1446 751.215Z" fill="white"/>
<path fill-rule="evenodd" clip-rule="evenodd" d="M114.462 791.503L114.462 790.503L159.099 790.503L136.78 751.714L137.646 751.215L160.828 791.503L114.462 791.503Z" fill="white"/>
<path fill-rule="evenodd" clip-rule="evenodd" d="M91.2781 751.715L68.4514 712.176L69.3174 711.676L92.1442 751.215L91.2781 751.715Z" fill="white"/>
<path fill-rule="evenodd" clip-rule="evenodd" d="M91.7112 671.887L137.213 671.887L137.213 672.887L91.7112 672.887L91.7112 671.887Z" fill="white"/>
<path fill-rule="evenodd" clip-rule="evenodd" d="M159.387 711.926L136.78 751.215L137.646 751.714L160.541 711.926L137.646 672.138L136.78 672.637L159.387 711.926Z" fill="white"/>
<path fill-rule="evenodd" clip-rule="evenodd" d="M114.895 712.175L92.1446 751.714L91.2778 751.215L114.029 711.677L114.895 712.175Z" fill="white"/>
<path fill-rule="evenodd" clip-rule="evenodd" d="M92.1446 672.138L114.895 711.677L114.029 712.175L91.2778 672.637L92.1446 672.138Z" fill="white"/>
<path fill-rule="evenodd" clip-rule="evenodd" d="M159.964 712.426L114.462 712.426L114.462 711.426L159.964 711.426L159.964 712.426Z" fill="white"/>
<path fill-rule="evenodd" clip-rule="evenodd" d="M160.397 633.098L137.646 672.637L136.78 672.138L159.53 632.599L160.397 633.098Z" fill="white"/>
<path fill-rule="evenodd" clip-rule="evenodd" d="M68.4517 632.598L91.2784 593.135L92.144 593.636L69.3173 633.099L68.4517 632.598Z" fill="white"/>
<path fill-rule="evenodd" clip-rule="evenodd" d="M91.7112 592.886L137.213 592.886L137.213 593.886L91.7112 593.886L91.7112 592.886Z" fill="white"/>
<path fill-rule="evenodd" clip-rule="evenodd" d="M137.646 593.136L160.397 632.599L159.531 633.098L136.78 593.635L137.646 593.136Z" fill="white"/>
<path fill-rule="evenodd" clip-rule="evenodd" d="M159.964 633.348L114.462 633.348L114.462 632.348L159.964 632.348L159.964 633.348Z" fill="white"/>
<path fill-rule="evenodd" clip-rule="evenodd" d="M160.397 554.096L137.646 593.635L136.78 593.136L159.53 553.598L160.397 554.096Z" fill="white"/>
<path fill-rule="evenodd" clip-rule="evenodd" d="M0.0549282 514.308L23.0935 474.269L68.8844 474.269L68.8844 475.269L23.6718 475.269L1.20866 514.308L23.6718 553.347L69.1731 553.347L92.1442 593.136L91.2782 593.636L68.5958 554.347L23.0935 554.347L0.0549282 514.308Z" fill="white"/>
<path fill-rule="evenodd" clip-rule="evenodd" d="M91.7112 513.808L137.213 513.808L137.213 514.808L91.7112 514.808L91.7112 513.808Z" fill="white"/>
<path fill-rule="evenodd" clip-rule="evenodd" d="M137.646 514.059L160.397 553.597L159.53 554.096L136.78 514.557L137.646 514.059Z" fill="white"/>
<path fill-rule="evenodd" clip-rule="evenodd" d="M114.895 554.096L92.1446 593.635L91.2778 593.136L114.029 553.598L114.895 554.096Z" fill="white"/>
<path fill-rule="evenodd" clip-rule="evenodd" d="M92.1446 514.059L114.895 553.597L114.029 554.096L91.2778 514.557L92.1446 514.059Z" fill="white"/>
<path fill-rule="evenodd" clip-rule="evenodd" d="M159.964 554.347L114.462 554.347L114.462 553.347L159.964 553.347L159.964 554.347Z" fill="white"/>
<path fill-rule="evenodd" clip-rule="evenodd" d="M92.1442 672.637L69.3175 712.176L68.4514 711.676L91.2781 672.137L92.1442 672.637Z" fill="white"/>
<path fill-rule="evenodd" clip-rule="evenodd" d="M0.0549299 672.387L23.0935 632.348L68.8844 632.348L68.8844 633.348L23.6718 633.348L1.20866 672.387L23.6718 711.426L68.8844 711.426L68.8844 712.426L23.0935 712.426L0.0549299 672.387Z" fill="white"/>
<path fill-rule="evenodd" clip-rule="evenodd" d="M69.3174 632.598L92.1442 672.137L91.2781 672.637L68.4514 633.098L69.3174 632.598Z" fill="white"/>
<path fill-rule="evenodd" clip-rule="evenodd" d="M46.5669 672.637L23.816 712.175L22.9492 711.677L45.7001 672.138L46.5669 672.637Z" fill="white"/>
<path fill-rule="evenodd" clip-rule="evenodd" d="M23.816 632.599L46.5669 672.138L45.7001 672.637L22.9492 633.098L23.816 632.599Z" fill="white"/>
<path fill-rule="evenodd" clip-rule="evenodd" d="M91.7112 672.887L46.1335 672.887L46.1335 671.887L91.7112 671.887L91.7112 672.887Z" fill="white"/>
<path fill-rule="evenodd" clip-rule="evenodd" d="M68.4514 869.831L91.2781 830.292L92.1442 830.792L69.3175 870.331L68.4514 869.831Z" fill="white"/>
<path fill-rule="evenodd" clip-rule="evenodd" d="M91.7112 830.042L137.213 830.042L137.213 831.042L91.7112 831.042L91.7112 830.042Z" fill="white"/>
<path fill-rule="evenodd" clip-rule="evenodd" d="M22.9494 870.33L0.198485 830.792L1.06524 830.293L23.8161 869.832L22.9494 870.33Z" fill="white"/>
<path fill-rule="evenodd" clip-rule="evenodd" d="M23.3826 790.503L68.8843 790.503L68.8843 791.503L23.3826 791.503L23.3826 790.503Z" fill="white"/>
<path fill-rule="evenodd" clip-rule="evenodd" d="M69.3174 790.753L92.1442 830.292L91.2781 830.792L68.4514 791.253L69.3174 790.753Z" fill="white"/>
<path fill-rule="evenodd" clip-rule="evenodd" d="M91.7112 831.042L46.1335 831.042L46.1335 830.042L91.7112 830.042L91.7112 831.042Z" fill="white"/>
<path fill-rule="evenodd" clip-rule="evenodd" d="M23.816 474.52L46.5669 514.059L45.7001 514.557L22.9492 475.019L23.816 474.52Z" fill="white"/>
<path fill-rule="evenodd" clip-rule="evenodd" d="M91.2781 593.636L68.4514 554.097L69.3174 553.597L92.1442 593.136L91.2781 593.636Z" fill="#676C8F"/>
<path fill-rule="evenodd" clip-rule="evenodd" d="M136.924 592.886L91.7112 592.886L91.7112 593.886L137.502 593.886L160.541 553.847L137.502 513.808L91.7112 513.808L91.7112 514.808L136.924 514.808L159.387 553.847L136.924 592.886Z" fill="#676C8F"/>
<path fill-rule="evenodd" clip-rule="evenodd" d="M114.895 554.096L92.1446 593.635L91.2778 593.137L114.029 553.598L114.895 554.096Z" fill="#676C8F"/>
<path fill-rule="evenodd" clip-rule="evenodd" d="M92.1446 514.059L114.895 553.598L114.029 554.096L91.2778 514.558L92.1446 514.059Z" fill="#676C8F"/>
<path fill-rule="evenodd" clip-rule="evenodd" d="M159.964 554.347L114.462 554.347L114.462 553.347L159.964 553.347L159.964 554.347Z" fill="#676C8F"/>
<path fill-rule="evenodd" clip-rule="evenodd" d="M46.5671 356.402L23.8162 395.941L22.9495 395.442L45.7003 355.904L46.5671 356.402Z" fill="#676C8F"/>
<path fill-rule="evenodd" clip-rule="evenodd" d="M23.8162 316.365L46.5671 355.904L45.7003 356.403L22.9495 316.864L23.8162 316.365Z" fill="#676C8F"/>
<path fill-rule="evenodd" clip-rule="evenodd" d="M91.7112 356.653L46.1335 356.653L46.1335 355.653L91.7112 355.653L91.7112 356.653Z" fill="#676C8F"/>
<path fill-rule="evenodd" clip-rule="evenodd" d="M0.198486 276.826L22.9494 237.287L23.8161 237.786L1.06524 277.325L0.198486 276.826Z" fill="#676C8F"/>
<path fill-rule="evenodd" clip-rule="evenodd" d="M46.4229 276.575L23.8162 237.287L22.9495 237.786L45.8446 277.575L91.7113 277.575L91.7113 276.575L46.4229 276.575Z" fill="#676C8F"/>
<path fill-rule="evenodd" clip-rule="evenodd" d="M137.213 356.653L91.7112 356.653L91.7112 355.653L137.213 355.653L137.213 356.653Z" fill="#676C8F"/>
<path fill-rule="evenodd" clip-rule="evenodd" d="M114.895 316.864L92.1446 356.403L91.2778 355.904L114.029 316.365L114.895 316.864Z" fill="#676C8F"/>
<path fill-rule="evenodd" clip-rule="evenodd" d="M92.1446 276.826L114.895 316.365L114.029 316.864L91.2778 277.325L92.1446 276.826Z" fill="#676C8F"/>
<path fill-rule="evenodd" clip-rule="evenodd" d="M114.462 317.114L114.462 316.114L159.099 316.114L136.78 277.325L137.646 276.826L160.828 317.114L114.462 317.114Z" fill="#676C8F"/>
<path fill-rule="evenodd" clip-rule="evenodd" d="M68.8846 238.037L23.3828 238.037L23.3828 237.037L68.8846 237.037L68.8846 238.037Z" fill="#676C8F"/>
<path fill-rule="evenodd" clip-rule="evenodd" d="M22.9494 237.786L0.198485 198.247L1.06524 197.749L23.8161 237.287L22.9494 237.786Z" fill="#676C8F"/>
<path fill-rule="evenodd" clip-rule="evenodd" d="M46.4229 198.498L23.8162 237.786L22.9495 237.287L45.8446 197.498L91.7113 197.498L91.7113 198.498L46.4229 198.498Z" fill="#676C8F"/>
<path fill-rule="evenodd" clip-rule="evenodd" d="M137.213 277.575L91.7112 277.575L91.7112 276.575L137.213 276.575L137.213 277.575Z" fill="#676C8F"/>
<path fill-rule="evenodd" clip-rule="evenodd" d="M160.397 237.786L137.646 277.325L136.78 276.826L159.53 237.287L160.397 237.786Z" fill="#676C8F"/>
<path fill-rule="evenodd" clip-rule="evenodd" d="M68.4514 237.287L91.2781 197.748L92.1442 198.248L69.3175 237.787L68.4514 237.287Z" fill="#676C8F"/>
<path fill-rule="evenodd" clip-rule="evenodd" d="M91.2781 277.325L68.4514 237.787L69.3174 237.287L92.1442 276.825L91.2781 277.325Z" fill="#676C8F"/>
<path fill-rule="evenodd" clip-rule="evenodd" d="M114.895 237.786L92.1446 277.325L91.2778 276.826L114.029 237.287L114.895 237.786Z" fill="#676C8F"/>
<path fill-rule="evenodd" clip-rule="evenodd" d="M92.1446 197.749L114.895 237.287L114.029 237.786L91.2778 198.247L92.1446 197.749Z" fill="#676C8F"/>
<path fill-rule="evenodd" clip-rule="evenodd" d="M159.964 238.037L114.462 238.037L114.462 237.037L159.964 237.037L159.964 238.037Z" fill="#676C8F"/>
<path fill-rule="evenodd" clip-rule="evenodd" d="M46.5671 119.17L23.8162 158.709L22.9495 158.21L45.7003 118.671L46.5671 119.17Z" fill="#676C8F"/>
<path fill-rule="evenodd" clip-rule="evenodd" d="M23.8162 79.1324L46.5671 118.671L45.7003 119.17L22.9495 79.6312L23.8162 79.1324Z" fill="#676C8F"/>
<path fill-rule="evenodd" clip-rule="evenodd" d="M91.7112 119.42L46.1335 119.42L46.1335 118.42L91.7112 118.42L91.7112 119.42Z" fill="#676C8F"/>
<path fill-rule="evenodd" clip-rule="evenodd" d="M68.8846 79.8818L23.3828 79.8818L23.3828 78.8818L68.8846 78.8818L68.8846 79.8818Z" fill="#676C8F"/>
<path fill-rule="evenodd" clip-rule="evenodd" d="M0.0549299 39.9194L22.9494 0.13098L23.8162 0.629722L1.20894 39.9189L23.816 79.1321L22.9497 79.6316L0.0549299 39.9194Z" fill="#676C8F"/>
<path fill-rule="evenodd" clip-rule="evenodd" d="M23.3828 -0.119873L68.8846 -0.119875L68.8846 0.880125L23.3828 0.880127L23.3828 -0.119873Z" fill="#676C8F"/>
<path fill-rule="evenodd" clip-rule="evenodd" d="M69.3174 0.130199L92.1442 39.669L91.2781 40.1689L68.4514 0.63018L69.3174 0.130199Z" fill="#676C8F"/>
<path fill-rule="evenodd" clip-rule="evenodd" d="M46.5667 40.1688L23.8158 79.6316L22.9495 79.1321L45.7003 39.6694L46.5667 40.1688Z" fill="#676C8F"/>
<path fill-rule="evenodd" clip-rule="evenodd" d="M23.8162 0.130959L46.5671 39.6697L45.7003 40.1685L22.9495 0.629696L23.8162 0.130959Z" fill="#676C8F"/>
<path fill-rule="evenodd" clip-rule="evenodd" d="M68.4514 158.209L91.2781 118.67L92.1442 119.17L69.3175 158.709L68.4514 158.209Z" fill="#676C8F"/>
<path fill-rule="evenodd" clip-rule="evenodd" d="M91.2781 198.248L68.4514 158.709L69.3174 158.209L92.1442 197.748L91.2781 198.248Z" fill="#676C8F"/>
<path fill-rule="evenodd" clip-rule="evenodd" d="M114.895 158.709L92.1446 198.247L91.2778 197.749L114.029 158.21L114.895 158.709Z" fill="#676C8F"/>
<path fill-rule="evenodd" clip-rule="evenodd" d="M92.1446 118.671L114.895 158.21L114.029 158.709L91.2778 119.17L92.1446 118.671Z" fill="#676C8F"/>
<path fill-rule="evenodd" clip-rule="evenodd" d="M159.964 158.959L114.462 158.959L114.462 157.959L159.964 157.959L159.964 158.959Z" fill="#676C8F"/>
<path fill-rule="evenodd" clip-rule="evenodd" d="M137.213 119.42L91.7112 119.42L91.7112 118.42L137.213 118.42L137.213 119.42Z" fill="#676C8F"/>
<path fill-rule="evenodd" clip-rule="evenodd" d="M68.4517 79.1314L91.2784 39.6686L92.144 40.1693L69.3173 79.6321L68.4517 79.1314Z" fill="#676C8F"/>
<path fill-rule="evenodd" clip-rule="evenodd" d="M91.2781 119.17L68.4514 79.6316L69.3174 79.1317L92.1442 118.67L91.2781 119.17Z" fill="#676C8F"/>
<path fill-rule="evenodd" clip-rule="evenodd" d="M137.646 39.6694L160.397 79.1321L159.531 79.6316L136.78 40.1688L137.646 39.6694Z" fill="#676C8F"/>
<path fill-rule="evenodd" clip-rule="evenodd" d="M114.895 79.6312L92.1446 119.17L91.2778 118.671L114.029 79.1324L114.895 79.6312Z" fill="#676C8F"/>
<path fill-rule="evenodd" clip-rule="evenodd" d="M159.964 79.8818L114.462 79.8818L114.462 78.8818L159.964 78.8818L159.964 79.8818Z" fill="#676C8F"/>
<path fill-rule="evenodd" clip-rule="evenodd" d="M136.78 118.671L159.53 79.1324L160.397 79.6312L137.646 119.17L136.78 118.671Z" fill="#676C8F"/>
<path fill-rule="evenodd" clip-rule="evenodd" d="M159.53 158.709L136.78 119.17L137.646 118.671L160.397 158.21L159.53 158.709Z" fill="#676C8F"/>
<path fill-rule="evenodd" clip-rule="evenodd" d="M183.148 119.17L160.397 158.709L159.531 158.21L182.281 118.671L183.148 119.17Z" fill="#676C8F"/>
<path fill-rule="evenodd" clip-rule="evenodd" d="M160.397 79.1324L183.148 118.671L182.281 119.17L159.531 79.6312L160.397 79.1324Z" fill="#676C8F"/>
<path fill-rule="evenodd" clip-rule="evenodd" d="M159.964 158.959L159.964 157.959L205.252 157.959L227.428 119.42L182.715 119.42L182.715 118.42L229.157 118.42L205.831 158.959L159.964 158.959Z" fill="#676C8F"/>
<path fill-rule="evenodd" clip-rule="evenodd" d="M183.148 198.247L160.397 237.786L159.531 237.287L182.281 197.749L183.148 198.247Z" fill="#676C8F"/>
<path fill-rule="evenodd" clip-rule="evenodd" d="M160.397 158.21L183.148 197.749L182.281 198.247L159.531 158.709L160.397 158.21Z" fill="#676C8F"/>
<path fill-rule="evenodd" clip-rule="evenodd" d="M228.292 198.498L182.715 198.498L182.715 197.498L228.292 197.498L228.292 198.498Z" fill="#676C8F"/>
<path fill-rule="evenodd" clip-rule="evenodd" d="M0.198486 434.981L22.9494 395.442L23.8161 395.941L1.06524 435.48L0.198486 434.981Z" fill="#676C8F"/>
<path fill-rule="evenodd" clip-rule="evenodd" d="M23.3828 396.192L23.3828 395.192L68.5959 395.192L91.2783 355.903L92.1443 356.403L69.1733 396.192L23.3828 396.192Z" fill="#676C8F"/>
<path fill-rule="evenodd" clip-rule="evenodd" d="M46.5671 435.48L23.8162 475.019L22.9495 474.52L45.7003 434.981L46.5671 435.48Z" fill="#676C8F"/>
<path fill-rule="evenodd" clip-rule="evenodd" d="M23.8162 395.442L46.5671 434.981L45.7003 435.48L22.9495 395.941L23.8162 395.442Z" fill="#676C8F"/>
<path fill-rule="evenodd" clip-rule="evenodd" d="M91.7112 435.731L46.1335 435.731L46.1335 434.731L91.7112 434.731L91.7112 435.731Z" fill="#676C8F"/>
<path fill-rule="evenodd" clip-rule="evenodd" d="M0.631897 514.808L-44.8699 514.808L-44.8699 513.808L0.631897 513.808L0.631897 514.808Z" fill="#676C8F"/>
<path fill-rule="evenodd" clip-rule="evenodd" d="M-44.8699 434.731L0.631897 434.731L0.631897 435.731L-44.8699 435.731L-44.8699 434.731Z" fill="#676C8F"/>
<path fill-rule="evenodd" clip-rule="evenodd" d="M1.06524 434.981L23.8161 474.52L22.9494 475.019L0.198485 435.48L1.06524 434.981Z" fill="#676C8F"/>
<path fill-rule="evenodd" clip-rule="evenodd" d="M23.3826 475.27L-22.1191 475.27L-22.1191 474.27L23.3826 474.27L23.3826 475.27Z" fill="#676C8F"/>
<path fill-rule="evenodd" clip-rule="evenodd" d="M68.8846 791.504L23.3828 791.504L23.3828 790.504L68.8846 790.504L68.8846 791.504Z" fill="#676C8F"/>
<path fill-rule="evenodd" clip-rule="evenodd" d="M0.198486 751.215L22.9494 711.677L23.8161 712.175L1.06524 751.714L0.198486 751.215Z" fill="#676C8F"/>
<path fill-rule="evenodd" clip-rule="evenodd" d="M22.9494 791.253L0.198485 751.714L1.06524 751.215L23.8161 790.754L22.9494 791.253Z" fill="#676C8F"/>
<path fill-rule="evenodd" clip-rule="evenodd" d="M23.3829 870.581L-22.1189 870.581L-22.1189 869.581L23.3829 869.581L23.3829 870.581Z" fill="#676C8F"/>
<path fill-rule="evenodd" clip-rule="evenodd" d="M-22.1191 790.504L23.3826 790.504L23.3826 791.504L-22.1191 791.504L-22.1191 790.504Z" fill="#676C8F"/>
<path fill-rule="evenodd" clip-rule="evenodd" d="M45.5569 830.542L22.9495 869.832L23.8162 870.331L46.7106 830.542L23.8162 790.754L22.9495 791.253L45.5569 830.542Z" fill="#676C8F"/>
<path fill-rule="evenodd" clip-rule="evenodd" d="M1.06515 830.792L-21.6857 870.331L-22.5525 869.832L0.198393 830.293L1.06515 830.792Z" fill="#676C8F"/>
<path fill-rule="evenodd" clip-rule="evenodd" d="M-21.6857 790.754L1.06515 830.293L0.198395 830.792L-22.5525 791.253L-21.6857 790.754Z" fill="#676C8F"/>
<path fill-rule="evenodd" clip-rule="evenodd" d="M46.1336 831.042L0.631836 831.042L0.631836 830.042L46.1336 830.042L46.1336 831.042Z" fill="#676C8F"/>
<path fill-rule="evenodd" clip-rule="evenodd" d="M0.198486 909.37L22.9494 869.832L23.8161 870.33L1.06524 909.869L0.198486 909.37Z" fill="#676C8F"/>
<path fill-rule="evenodd" clip-rule="evenodd" d="M22.5181 869.581L69.1731 869.581L92.5771 910.12L45.8444 910.12L22.5181 869.581ZM46.4227 909.12L90.8451 909.12L68.5957 870.581L24.2472 870.581L46.4227 909.12Z" fill="#676C8F"/>
<path fill-rule="evenodd" clip-rule="evenodd" d="M23.3828 711.426L69.1733 711.426L92.1443 751.215L91.2783 751.715L68.5959 712.426L23.3828 712.426L23.3828 711.426Z" fill="#676C8F"/>
<path fill-rule="evenodd" clip-rule="evenodd" d="M45.5569 751.465L22.9495 790.754L23.8162 791.253L46.7106 751.465L23.8162 711.677L22.9495 712.175L45.5569 751.465Z" fill="#676C8F"/>
<path fill-rule="evenodd" clip-rule="evenodd" d="M0.198486 672.138L22.9494 632.599L23.8161 633.098L1.06524 672.637L0.198486 672.138Z" fill="#676C8F"/>
<path fill-rule="evenodd" clip-rule="evenodd" d="M23.3828 632.349L68.8846 632.349L68.8846 633.349L23.3828 633.349L23.3828 632.349Z" fill="#676C8F"/>
<path fill-rule="evenodd" clip-rule="evenodd" d="M46.5671 672.637L23.8162 712.175L22.9495 711.677L45.7003 672.138L46.5671 672.637Z" fill="#676C8F"/>
<path fill-rule="evenodd" clip-rule="evenodd" d="M23.8162 632.599L46.5671 672.138L45.7003 672.637L22.9495 633.098L23.8162 632.599Z" fill="#676C8F"/>
<path fill-rule="evenodd" clip-rule="evenodd" d="M46.1335 672.887L46.1335 671.887L90.8451 671.887L68.4514 633.098L69.3174 632.598L92.5772 672.887L46.1335 672.887Z" fill="#676C8F"/>
<path fill-rule="evenodd" clip-rule="evenodd" d="M92.144 593.636L69.3173 633.099L68.4517 632.598L91.2784 593.135L92.144 593.636Z" fill="#676C8F"/>
<path fill-rule="evenodd" clip-rule="evenodd" d="M23.3828 553.347L68.8846 553.347L68.8846 554.347L23.3828 554.347L23.3828 553.347Z" fill="#676C8F"/>
<path fill-rule="evenodd" clip-rule="evenodd" d="M46.5667 593.635L23.8158 633.098L22.9495 632.599L45.7003 593.136L46.5667 593.635Z" fill="#676C8F"/>
<path fill-rule="evenodd" clip-rule="evenodd" d="M23.8162 553.598L46.5671 593.137L45.7003 593.635L22.9495 554.096L23.8162 553.598Z" fill="#676C8F"/>
<path fill-rule="evenodd" clip-rule="evenodd" d="M91.7112 593.886L46.1335 593.886L46.1335 592.886L91.7112 592.886L91.7112 593.886Z" fill="#676C8F"/>
<path fill-rule="evenodd" clip-rule="evenodd" d="M22.9494 554.096L0.198485 514.558L1.06524 514.059L23.8161 553.598L22.9494 554.096Z" fill="#676C8F"/>
<path fill-rule="evenodd" clip-rule="evenodd" d="M68.5959 475.269L23.3828 475.269L23.3828 474.269L69.1733 474.269L92.1443 514.058L91.2783 514.558L68.5959 475.269Z" fill="#676C8F"/>
<path fill-rule="evenodd" clip-rule="evenodd" d="M46.5671 514.558L23.8162 554.096L22.9495 553.598L45.7003 514.059L46.5671 514.558Z" fill="#676C8F"/>
<path fill-rule="evenodd" clip-rule="evenodd" d="M23.8162 474.52L46.5671 514.059L45.7003 514.558L22.9495 475.019L23.8162 474.52Z" fill="#676C8F"/>
<path fill-rule="evenodd" clip-rule="evenodd" d="M91.7112 514.808L46.1335 514.808L46.1335 513.808L91.7112 513.808L91.7112 514.808Z" fill="#676C8F"/>
<path fill-rule="evenodd" clip-rule="evenodd" d="M0.631897 672.887L-44.8699 672.887L-44.8699 671.887L0.631897 671.887L0.631897 672.887Z" fill="#676C8F"/>
<path fill-rule="evenodd" clip-rule="evenodd" d="M-44.8699 592.886L0.631897 592.886L0.631897 593.886L-44.8699 593.886L-44.8699 592.886Z" fill="#676C8F"/>
<path fill-rule="evenodd" clip-rule="evenodd" d="M1.06507 593.136L23.816 632.599L22.9496 633.098L0.198729 593.635L1.06507 593.136Z" fill="#676C8F"/>
<path fill-rule="evenodd" clip-rule="evenodd" d="M23.3826 633.349L-22.1191 633.349L-22.1191 632.349L23.3826 632.349L23.3826 633.349Z" fill="#676C8F"/>
<path fill-rule="evenodd" clip-rule="evenodd" d="M23.3826 396.192L-22.1191 396.192L-22.1191 395.192L23.3826 395.192L23.3826 396.192Z" fill="#676C8F"/>
<path fill-rule="evenodd" clip-rule="evenodd" d="M22.9494 395.941L0.198485 356.402L1.06524 355.904L23.8161 395.442L22.9494 395.941Z" fill="#676C8F"/>
<path fill-rule="evenodd" clip-rule="evenodd" d="M136.636 197.998L159.531 158.21L160.397 158.709L137.79 197.998L160.397 237.287L159.531 237.786L136.636 197.998Z" fill="#676C8F"/>
<path fill-rule="evenodd" clip-rule="evenodd" d="M0.0549299 118.92L22.9493 79.1323L23.8161 79.6311L1.20866 118.92L23.6718 157.959L68.8844 157.959L68.8844 158.959L23.0935 158.959L0.0549299 118.92Z" fill="#676C8F"/>
<path fill-rule="evenodd" clip-rule="evenodd" d="M68.3071 316.614L91.2782 276.826L92.1442 277.326L69.4618 316.614L92.1442 355.903L91.2782 356.403L68.3071 316.614Z" fill="#676C8F"/>
</g>
<defs>
<clipPath id="clip0_520_12209">
<rect width="910" height="365" fill="white" transform="translate(-68 910) rotate(-90)"/>
</clipPath>
</defs>
</svg>
