<svg width="65" height="64" viewBox="0 0 65 64" fill="none" xmlns="http://www.w3.org/2000/svg">
<path d="M55.9488 41.5H42.1989V35.25C42.1989 33.1822 40.5167 31.5 38.449 31.5H25.9491C23.8813 31.5 22.1991 33.1822 22.1991 35.25V36.5001H8.44919C6.38146 36.5001 4.69922 38.1823 4.69922 40.2501V62.75C4.69922 63.4404 5.25884 64 5.94921 64H58.4488C59.1392 64 59.6988 63.4404 59.6988 62.75V45.25C59.6988 43.1823 58.0166 41.5 55.9488 41.5ZM39.6989 61.4999H24.6991V58.3745C24.6991 57.6842 24.1394 57.1245 23.4491 57.1245C22.7587 57.1245 22.1991 57.6842 22.1991 58.3745V61.4999H7.1992V40.2499C7.1992 39.5607 7.75994 38.9999 8.44919 38.9999H22.1991V47.1246C22.1991 47.815 22.7587 48.3746 23.4491 48.3746C24.1394 48.3746 24.6991 47.815 24.6991 47.1246V35.2498C24.6991 34.5606 25.2598 33.9999 25.9491 33.9999H38.449C39.1382 33.9999 39.6989 34.5606 39.6989 35.2498V61.4999ZM57.1988 61.5H42.1989V44H55.9488C56.6381 44 57.1988 44.5608 57.1988 45.25V61.5Z" fill="#0F90D1"/>
<path d="M52.8272 50.25C52.8272 48.1823 51.1501 46.5 49.0887 46.5C47.9955 46.5 46.9603 46.9781 46.2486 47.8116C45.8003 48.3366 45.8626 49.1256 46.3875 49.574C46.9126 50.0223 47.7015 49.9601 48.1498 49.4351C48.3858 49.1588 48.7281 49.0001 49.0887 49.0001C49.7716 49.0001 50.3272 49.5609 50.3272 50.2501C50.3272 50.5898 50.1943 50.9075 49.9533 51.1449C49.6867 51.4074 49.5517 51.7755 49.5855 52.1481C49.6192 52.5207 49.818 52.8588 50.1273 53.0691C50.6421 53.4193 50.9493 54.0009 50.9493 54.6251C50.9493 55.659 50.1147 56.5001 49.0888 56.5001C48.6773 56.5001 48.2876 56.3675 47.9616 56.1168C47.4145 55.6959 46.6297 55.7983 46.2086 56.3453C45.7876 56.8924 45.89 57.6773 46.4371 58.0983C47.2041 58.6884 48.121 59.0003 49.0888 59.0003C51.4932 59.0003 53.4493 57.0376 53.4493 54.6253C53.4493 53.6039 53.0952 52.6309 52.4678 51.8596C52.7032 51.3634 52.8272 50.8168 52.8272 50.25Z" fill="#0F90D1"/>
<path d="M17.1988 51.5002H14.1867C14.4621 51.2471 14.8071 50.9761 15.2097 50.6653C16.6393 49.5623 18.4183 48.1896 18.4487 45.6038C18.471 43.7047 17.2563 42.0647 15.495 41.6155C13.8111 41.1862 12.1692 41.9526 11.3122 43.5682C10.9887 44.1781 11.221 44.9347 11.8308 45.2582C12.4408 45.5817 13.1973 45.3495 13.5208 44.7396C13.9466 43.9368 14.5535 43.9556 14.8772 44.038C15.4181 44.176 15.9592 44.7046 15.949 45.5746C15.934 46.8573 15.0827 47.6058 13.6827 48.6861C12.4015 49.6747 10.9492 50.7952 10.9492 52.7502C10.9492 53.4406 11.5088 54.0002 12.1992 54.0002H17.1988C17.8892 54.0002 18.4488 53.4406 18.4488 52.7502C18.4488 52.0598 17.8892 51.5002 17.1988 51.5002Z" fill="#0F90D1"/>
<path d="M33.5845 46.5H33.4486V37.7501C33.4486 37.3035 33.2103 36.8909 32.8236 36.6676C32.437 36.4442 31.9605 36.4444 31.5736 36.6676L30.1877 37.4677C29.5898 37.8129 29.385 38.5774 29.7302 39.1752C29.9857 39.6177 30.4712 39.8446 30.9486 39.7931V46.5H30.8127C30.1223 46.5 29.5627 47.0596 29.5627 47.75C29.5627 48.4404 30.1223 49 30.8127 49H33.5845C34.2748 49 34.8345 48.4404 34.8345 47.75C34.8345 47.0596 34.2748 46.5 33.5845 46.5Z" fill="#0F90D1"/>
<path d="M23.7814 18.3885L23.1548 23.1662C23.0237 23.8558 23.1168 24.5533 23.4252 25.1865C23.9854 26.337 25.1413 27.0073 26.3424 27.0073C26.8175 27.0073 27.3 26.9023 27.755 26.6807L32.1489 24.5419L36.6635 26.6927C37.2322 26.9642 37.8674 27.0613 38.5004 26.9738C39.3567 26.8554 40.1154 26.4107 40.6372 25.7214C41.1588 25.0322 41.3808 24.1812 41.2622 23.3233L40.5851 18.478L43.9207 14.9597C44.422 14.4797 44.7498 13.8649 44.8694 13.179C45.0181 12.3268 44.8261 11.4676 44.3288 10.7598C43.8314 10.0519 43.088 9.58016 42.2389 9.43191L37.4238 8.57892L35.0367 4.18783C35.0367 4.18758 35.0366 4.18746 35.0365 4.18721C34.7337 3.63096 34.278 3.17934 33.7185 2.88084C32.9566 2.47459 32.0821 2.38922 31.256 2.64059C30.43 2.89197 29.7513 3.45009 29.3446 4.21246L27.0457 8.52805L22.2088 9.42679C21.5528 9.53041 20.9531 9.82866 20.4727 10.2907C19.85 10.8897 19.4978 11.6954 19.4811 12.5594C19.4643 13.4234 19.7851 14.2421 20.3851 14.8659L23.7814 18.3885ZM22.2059 12.0925C22.3456 11.9581 22.4998 11.9111 22.6044 11.8954C22.6187 11.8933 22.6328 11.8909 22.6469 11.8883L28.0943 10.876C28.4683 10.8065 28.7903 10.5705 28.9691 10.2348L31.5509 5.38845C31.6429 5.21582 31.7967 5.08932 31.984 5.03232C32.0545 5.01082 32.1266 5.0002 32.1982 5.0002C32.3169 5.0002 32.4345 5.02932 32.542 5.0867C32.6691 5.15445 32.7724 5.2567 32.8407 5.38232L35.5151 10.3017C35.6967 10.6359 36.0207 10.8692 36.3953 10.9355L41.8063 11.894C42.0007 11.9279 42.1702 12.0355 42.2837 12.197C42.3972 12.3585 42.4409 12.5545 42.407 12.7491C42.3718 12.9508 42.2664 13.0845 42.1843 13.1611C42.1657 13.1785 42.1475 13.1965 42.1299 13.215L38.3569 17.1946C38.0952 17.4706 37.9734 17.8508 38.0261 18.2276L38.7862 23.6673C38.8131 23.8621 38.7627 24.0555 38.6439 24.2123C38.5253 24.3689 38.3528 24.4702 38.1582 24.497C38.0113 24.5174 37.8666 24.4963 37.7396 24.4358L32.6807 22.0258C32.3372 21.8622 31.9381 21.8639 31.5961 22.0304L26.6609 24.4327C26.2945 24.6113 25.8513 24.4583 25.6729 24.0918C25.5819 23.9049 25.5903 23.7324 25.6133 23.6206C25.6194 23.5908 25.6244 23.5609 25.6284 23.5308L26.3385 18.1165C26.388 17.7393 26.263 17.3602 25.999 17.0864L22.1859 13.1315C22.0499 12.99 21.9771 12.804 21.9808 12.6076C21.9846 12.4116 22.0644 12.2285 22.2059 12.0925Z" fill="#0F90D1"/>
<path d="M12.6369 2.33272L17.5712 5.18147C17.7681 5.29522 17.9829 5.34922 18.1951 5.34922C18.6271 5.34922 19.0472 5.12497 19.2787 4.72397C19.6239 4.12609 19.4191 3.36159 18.8212 3.01647L13.8869 0.167719C13.2892 -0.177531 12.5246 0.027344 12.1794 0.625219C11.8342 1.22309 12.0391 1.98759 12.6369 2.33272Z" fill="#0F90D1"/>
<path d="M9.02981 17.3183C9.08968 17.3183 9.15031 17.314 9.21143 17.3052L14.8496 16.4848C15.5327 16.3855 16.0059 15.751 15.9066 15.0678C15.8071 14.3847 15.1731 13.9116 14.4896 14.0108L8.85143 14.8312C8.16831 14.9306 7.69506 15.5651 7.79443 16.2482C7.88506 16.8703 8.41918 17.3183 9.02981 17.3183Z" fill="#0F90D1"/>
<path d="M17.6175 24.9245L13.5888 28.9532C13.1006 29.4414 13.1006 30.2329 13.5888 30.7211C13.8329 30.9652 14.1527 31.0872 14.4726 31.0872C14.7925 31.0872 15.1125 30.9652 15.3565 30.7211L19.3853 26.6924C19.8734 26.2042 19.8734 25.4127 19.3853 24.9245C18.8971 24.4362 18.1056 24.4364 17.6175 24.9245Z" fill="#0F90D1"/>
<path d="M46.2045 5.34925C46.4165 5.34925 46.6315 5.29512 46.8283 5.1815L51.7626 2.33275C52.3605 1.98762 52.5653 1.22312 52.2201 0.625246C51.8748 0.0272463 51.1105 -0.177504 50.5126 0.167746L45.5783 3.0165C44.9805 3.36162 44.7756 4.12612 45.1208 4.724C45.3522 5.125 45.7725 5.34925 46.2045 5.34925Z" fill="#0F90D1"/>
<path d="M48.4937 15.0679C48.3943 15.751 48.8675 16.3855 49.5506 16.4849L55.1888 17.3053C55.2498 17.3142 55.3104 17.3184 55.3704 17.3184C55.981 17.3184 56.5153 16.8704 56.6058 16.2482C56.7052 15.565 56.2319 14.9305 55.5488 14.8312L49.9107 14.0108C49.228 13.9118 48.593 14.3848 48.4937 15.0679Z" fill="#0F90D1"/>
<path d="M45.0106 24.9244C44.5225 25.4126 44.5225 26.2041 45.0106 26.6923L49.0394 30.7211C49.2835 30.9652 49.6034 31.0872 49.9233 31.0872C50.2431 31.0872 50.5631 30.9652 50.8071 30.7211C51.2953 30.2329 51.2953 29.4414 50.8071 28.9532L46.7784 24.9244C46.2904 24.4363 45.4989 24.4363 45.0106 24.9244Z" fill="#0F90D1"/>
<path d="M23.4492 51.4996C22.7588 51.4996 22.1992 52.0596 22.1992 52.75C22.1992 53.4404 22.7588 54 23.4492 54C24.1396 54 24.6992 53.4404 24.6992 52.75V52.7491C24.6992 52.0589 24.1396 51.4996 23.4492 51.4996Z" fill="#0F90D1"/>
</svg>
