<svg width="65" height="64" viewBox="0 0 65 64" fill="none" xmlns="http://www.w3.org/2000/svg">
<g clip-path="url(#clip0_1675_9643)">
<path d="M50.0509 24.3178C50.0509 21.9166 48.6507 19.4262 46.7172 18.1742C47.0249 16.415 46.5115 14.704 45.2588 13.4457C44.0605 12.2425 42.398 11.6476 40.7449 11.7652C40.5686 11.0844 40.2316 10.4641 39.7419 9.92898C38.4194 8.48336 36.0841 7.75037 32.8008 7.75037C30.281 7.75037 27.8504 8.28286 25.5765 9.33299C24.9497 9.62236 24.6764 10.3651 24.9657 10.9919C25.2551 11.6186 25.9976 11.892 26.6246 11.6026C28.1891 10.8801 29.8412 10.4449 31.5508 10.3026V47.7502H27.9771C27.4644 43.1849 24.2839 38.6012 21.449 34.5185C21.1756 34.1249 20.9053 33.7355 20.6408 33.351C18.9464 30.8885 18.0508 28.001 18.0508 25.0005C18.0508 22.8448 18.5058 20.7666 19.4031 18.8238C19.6926 18.1971 19.4193 17.4543 18.7925 17.165C18.1658 16.8755 17.423 17.1488 17.1336 17.7756C16.0833 20.0492 15.5508 22.4801 15.5508 25.0004C15.5508 28.5092 16.5987 31.8868 18.5813 34.768C18.8479 35.1555 19.1203 35.5478 19.3955 35.9443C22.0508 39.7682 25.031 44.063 25.4884 47.9905C24.6404 48.3908 24.0507 49.2518 24.0507 50.2502V54.0002C24.0507 54.9232 24.5547 55.7289 25.3007 56.1619V60.25C25.3007 62.3178 26.983 64 29.0507 64H36.5507C38.6184 64 40.3007 62.3178 40.3007 60.25V56.1619C41.0467 55.7288 41.5507 54.9231 41.5507 54.0002V50.2502C41.5507 49.2502 40.9591 48.3878 40.1087 47.9883C40.2707 46.5223 40.7827 44.9503 41.6859 43.1387C41.7831 43.0972 41.8798 43.053 41.9758 43.0047C43.6492 42.1639 45.0335 40.2104 44.7479 37.5806C44.7795 37.5688 44.8114 37.5568 44.8419 37.5448C46.5632 36.8636 47.8285 35.3974 48.2269 33.6228C48.5458 32.2029 48.2963 30.7413 47.542 29.453C49.1349 28.2253 50.0509 26.3885 50.0509 24.3178ZM39.0508 50.2502V54.0002H26.5509V50.2502H39.0508ZM36.5508 61.5H29.0509C28.3616 61.5 27.8009 60.9393 27.8009 60.25V56.5002H37.8008V60.25C37.8008 60.9393 37.2401 61.5 36.5508 61.5ZM45.1902 27.9778C44.8305 28.1495 44.5744 28.4824 44.5004 28.8739C44.4265 29.2655 44.5439 29.6688 44.816 29.9598C45.6727 30.875 46.0268 32.0105 45.7877 33.0751C45.5673 34.0563 44.8873 34.8381 43.922 35.2201C43.159 35.522 41.9804 35.7153 41.1942 35.4989C39.9409 35.163 39.7718 34.7054 39.4348 33.7936C39.1499 33.0226 38.7597 31.9668 37.5878 31.1585C37.0196 30.7665 36.2412 30.9095 35.8491 31.4779C35.4571 32.0461 35.6002 32.8246 36.1684 33.2165C36.6658 33.5596 36.8266 33.9475 37.0899 34.6603C37.4928 35.7503 38.0446 37.243 40.5388 37.9114C40.9981 38.0379 41.4862 38.0907 41.9732 38.0907C42.0768 38.0907 42.1802 38.0876 42.2833 38.0831C42.3575 39.4772 41.6478 40.3717 40.8536 40.7709C40.1089 41.145 38.9513 41.214 38.1386 40.1776C37.7126 39.6344 36.9267 39.5395 36.3836 39.9655C35.8403 40.3915 35.7453 41.1772 36.1713 41.7205C36.8721 42.6139 37.7984 43.1907 38.8053 43.4198C38.1547 44.9608 37.7662 46.3803 37.6196 47.7501H34.0508V27.3027C37.9971 27.2363 39.0734 25.2658 39.8614 23.8194C40.2566 23.0943 40.5223 22.6364 40.9881 22.3732C41.5892 22.0336 41.8009 21.2709 41.4613 20.6699C41.1216 20.0689 40.3588 19.8571 39.7581 20.1968C38.6457 20.8254 38.1252 21.7807 37.6662 22.6236C36.9942 23.8569 36.5029 24.7568 34.0508 24.8037V10.2961C35.889 10.4351 37.2339 10.8912 37.8973 11.6165C38.1429 11.885 38.2939 12.1921 38.3557 12.544C37.1212 13.3402 36.5922 14.3672 36.2186 15.3768C35.9789 16.0243 36.3096 16.7435 36.9569 16.9831C37.1001 17.036 37.2464 17.0612 37.3907 17.0612C37.8987 17.0612 38.3764 16.7491 38.5631 16.2447C38.8371 15.5043 39.1274 14.8987 40.0969 14.4285C41.2638 14.0288 42.6197 14.3386 43.4872 15.2097C43.9669 15.6915 44.6817 16.7455 44.079 18.3913C43.8439 19.0334 44.1684 19.7452 44.8073 19.9889C46.2688 20.5466 47.5508 22.5694 47.5508 24.3178C47.5509 25.9035 46.6684 27.2718 45.1902 27.9778Z" fill="#42C79C"/>
<path d="M32.8008 5.25012C33.4912 5.25012 34.0508 4.6905 34.0508 4.00012V1.25C34.0508 0.559625 33.491 0 32.8008 0C32.1105 0 31.5508 0.559625 31.5508 1.25V4.00012C31.5508 4.6905 32.1104 5.25012 32.8008 5.25012Z" fill="#42C79C"/>
<path d="M21.2186 7.43876C21.4501 7.83976 21.8703 8.06401 22.3023 8.06401C22.5143 8.06401 22.7292 8.00988 22.9261 7.89626C23.524 7.55113 23.7289 6.78663 23.3836 6.18876L22.0085 3.80701C21.6634 3.20901 20.8987 3.00426 20.301 3.34951C19.7031 3.69463 19.4983 4.45913 19.8435 5.05701L21.2186 7.43876Z" fill="#42C79C"/>
<path d="M11.6057 14.2077L13.9874 15.5828C14.1843 15.6964 14.3992 15.7505 14.6113 15.7505C15.0433 15.7505 15.4634 15.5263 15.6949 15.1253C16.0402 14.5274 15.8353 13.7629 15.2374 13.4178L12.8557 12.0427C12.2581 11.6975 11.4934 11.9023 11.1482 12.5002C10.8029 13.098 11.0078 13.8625 11.6057 14.2077Z" fill="#42C79C"/>
<path d="M13.0509 25.0004C13.0509 24.31 12.4913 23.7504 11.8009 23.7504H9.05078C8.36041 23.7504 7.80078 24.31 7.80078 25.0004C7.80078 25.6907 8.36041 26.2504 9.05078 26.2504H11.8009C12.4913 26.2504 13.0509 25.6907 13.0509 25.0004Z" fill="#42C79C"/>
<path d="M13.9874 34.4181L11.6057 35.7931C11.0078 36.1383 10.8029 36.9028 11.1482 37.5006C11.3797 37.9016 11.7998 38.1259 12.2318 38.1259C12.4438 38.1259 12.6588 38.0718 12.8557 37.9581L15.2374 36.5831C15.8353 36.238 16.0402 35.4735 15.6949 34.8756C15.3498 34.2778 14.5852 34.0728 13.9874 34.4181Z" fill="#42C79C"/>
<path d="M42.676 7.8963C42.8729 8.01005 43.0877 8.06405 43.2997 8.06405C43.7317 8.06405 44.152 7.8398 44.3835 7.4388L45.7586 5.05705C46.1039 4.45917 45.899 3.69467 45.3011 3.34955C44.7031 3.00442 43.9387 3.20917 43.5936 3.80705L42.2185 6.1888C41.8733 6.78655 42.0781 7.55117 42.676 7.8963Z" fill="#42C79C"/>
<path d="M50.9898 15.7506C51.2018 15.7506 51.4166 15.6964 51.6135 15.5828L53.9954 14.2077C54.5932 13.8626 54.7981 13.0981 54.4529 12.5002C54.1076 11.9024 53.3436 11.6974 52.7454 12.0427L50.3635 13.4178C49.7656 13.7629 49.5608 14.5274 49.906 15.1253C50.1376 15.5263 50.5576 15.7506 50.9898 15.7506Z" fill="#42C79C"/>
<path d="M56.5509 23.7504H53.8008C53.1105 23.7504 52.5508 24.31 52.5508 25.0004C52.5508 25.6907 53.1105 26.2504 53.8008 26.2504H56.5509C57.2412 26.2504 57.8009 25.6907 57.8009 25.0004C57.8009 24.31 57.2413 23.7504 56.5509 23.7504Z" fill="#42C79C"/>
<path d="M53.9954 35.7931L51.6135 34.4181C51.0154 34.073 50.2511 34.2779 49.906 34.8757C49.5608 35.4736 49.7656 36.2381 50.3635 36.5834L52.7454 37.9584C52.9422 38.072 53.1571 38.126 53.3691 38.126C53.8011 38.126 54.2214 37.9017 54.4529 37.5007C54.7981 36.9027 54.5932 36.1382 53.9954 35.7931Z" fill="#42C79C"/>
<path d="M21.4878 12.4365C20.7974 12.4365 20.2383 12.9961 20.2383 13.6865C20.2383 14.3769 20.7983 14.9365 21.4887 14.9365C22.179 14.9365 22.7387 14.3769 22.7387 13.6865C22.7387 12.9961 22.179 12.4365 21.4887 12.4365H21.4878Z" fill="#42C79C"/>
</g>
<defs>
<clipPath id="clip0_1675_9643">
<rect width="64" height="64" fill="white" transform="translate(0.800781)"/>
</clipPath>
</defs>
</svg>
