<svg width="65" height="64" viewBox="0 0 65 64" fill="none" xmlns="http://www.w3.org/2000/svg">
<path d="M49.969 33.1674C48.4933 33.1674 47.0996 32.5179 46.1351 31.378C45.2501 30.3319 44.8222 28.9982 44.9246 27.6507H36.9648C36.2746 27.6507 35.7148 27.0911 35.7148 26.4007V17.971C35.7148 17.6 35.8796 17.2481 36.1647 17.0106C36.4497 16.7731 36.8261 16.6748 37.1905 16.7415L37.2653 16.7553C38.0172 16.893 38.7851 16.6908 39.3722 16.2013C39.9595 15.7116 40.2963 14.9924 40.2963 14.2277C40.2963 13.4633 39.9596 12.7441 39.3723 12.2546C38.7852 11.7653 38.0171 11.5635 37.2651 11.701L37.1903 11.7148C36.8252 11.7816 36.4496 11.683 36.1647 11.4455C35.8798 11.208 35.715 10.8563 35.715 10.4853V1.25C35.715 0.559625 36.2747 0 36.965 0H57.7016C60.8247 0 63.3657 2.54087 63.3657 5.66412V26.4007C63.3657 27.0911 62.8061 27.6507 62.1157 27.6507H55.0161C55.1337 28.9686 54.7325 30.2822 53.8841 31.3154C52.9356 32.4702 51.5355 33.145 50.0425 33.1669C50.018 33.1672 49.9935 33.1674 49.969 33.1674ZM38.215 25.1507H46.3948C46.7657 25.1507 47.1175 25.3155 47.3551 25.6004C47.5925 25.8853 47.6913 26.2609 47.6245 26.6257L47.4541 27.5569C47.3098 28.3455 47.5247 29.1496 48.0437 29.7631C48.5463 30.3571 49.2443 30.6766 50.006 30.667C50.762 30.656 51.4713 30.3139 51.9521 29.7286C52.4326 29.1435 52.63 28.3808 52.4936 27.6359L52.3088 26.6256C52.2421 26.2607 52.3408 25.8851 52.5783 25.6003C52.8158 25.3154 53.1676 25.1506 53.5385 25.1506H60.8656V5.66412C60.8656 3.91937 59.4462 2.5 57.7016 2.5H38.215V9.1815C39.2185 9.27763 40.1795 9.67288 40.973 10.3344C42.1317 11.3003 42.7962 12.7194 42.7962 14.2277C42.7962 15.7362 42.1317 17.1555 40.973 18.1214C40.1793 18.783 39.2185 19.1784 38.215 19.2746V25.1507Z" fill="#FFA336"/>
<path d="M52.9811 43.375C53.6714 43.375 54.2311 42.8154 54.2311 42.125V37.5992C54.2311 36.9089 53.6714 36.3492 52.9811 36.3492H44.4039C44.0331 36.3492 43.6813 36.514 43.4438 36.7989C43.2063 37.0837 43.1076 37.4594 43.1743 37.8242L43.3592 38.8345C43.4956 39.5794 43.2982 40.3421 42.8176 40.9272C42.3368 41.5126 41.6274 41.8546 40.8716 41.8656C40.1091 41.8741 39.4118 41.5557 38.9093 40.9617C38.3903 40.3482 38.1754 39.5441 38.3197 38.7556L38.4901 37.8244C38.5568 37.4595 38.4581 37.0839 38.2207 36.7989C37.9832 36.514 37.6313 36.3492 37.2604 36.3492H29.0804V30.4731C30.0841 30.3769 31.0449 29.9816 31.8386 29.32C32.9973 28.354 33.6617 26.9349 33.6617 25.4264C33.6617 23.9179 32.9972 22.4987 31.8384 21.5329C31.0448 20.8714 30.0839 20.4761 29.0804 20.38V12.4485C29.0804 11.7581 28.5208 11.1985 27.8304 11.1985H7.09381C3.97056 11.1985 1.42969 13.7394 1.42969 16.8626V58.3359C1.42969 61.4591 3.97056 64 7.09381 64H48.5671C51.6902 64 54.2312 61.4591 54.2312 58.3359V54.7082C54.2312 54.0179 53.6716 53.4582 52.9812 53.4582C52.2909 53.4582 51.7312 54.0179 51.7312 54.7082V58.3359C51.7312 60.0805 50.3118 61.5 48.5671 61.5H29.0804V53.4372C29.0804 53.0665 28.9158 52.7147 28.6311 52.4772C28.3463 52.2397 27.9706 52.1409 27.6059 52.2075L27.5303 52.2212C26.7783 52.3589 26.0102 52.1572 25.4232 51.6679C24.8359 51.1785 24.4991 50.4594 24.4991 49.6941C24.4991 48.9296 24.8358 48.2104 25.4232 47.7209C26.0104 47.2312 26.7783 47.0294 27.5311 47.1672L27.6059 47.1809C27.9703 47.2472 28.3462 47.1486 28.6311 46.9111C28.9158 46.6736 29.0804 46.322 29.0804 45.9511V38.849H35.7902C35.6877 40.1965 36.1156 41.53 37.0007 42.5761C37.9812 43.735 39.4097 44.3885 40.9079 44.3651C42.4008 44.3434 43.8011 43.6685 44.7496 42.5136C45.5979 41.4806 45.9992 40.1669 45.8816 38.849H51.7312V42.125C51.7311 42.8154 52.2908 43.375 52.9811 43.375ZM3.92969 16.8626C3.92969 15.118 5.34919 13.6985 7.09381 13.6985H26.5804V21.6836C26.5804 22.0545 26.7451 22.4061 27.0299 22.6436C27.3148 22.881 27.6904 22.9796 28.0552 22.9132L28.1301 22.8996C28.1301 22.8996 28.1303 22.8995 28.1304 22.8995C28.8823 22.762 29.6506 22.9636 30.2378 23.4531C30.8251 23.9427 31.1618 24.6619 31.1618 25.4264C31.1618 26.1909 30.8251 26.9102 30.2378 27.3997C29.6506 27.8892 28.8826 28.0911 28.1306 27.9536L28.0554 27.9399C27.6906 27.8731 27.3149 27.9719 27.0301 28.2094C26.7452 28.4469 26.5804 28.7986 26.5804 29.1695V36.3492H21.2169C20.6039 34.2307 18.6541 32.7032 16.3471 32.7032C14.0401 32.7032 12.0903 34.2307 11.4773 36.3492H3.92969V16.8626ZM23.8224 45.8006C22.6637 46.7665 21.9991 48.1857 21.9991 49.695C21.9991 51.2035 22.6637 52.6226 23.8224 53.5885C24.6161 54.25 25.5771 54.6451 26.5804 54.7411V61.5H7.09381C5.34919 61.5 3.92969 60.0806 3.92969 58.3359V38.8492H12.5308C13.2001 38.8492 13.7506 38.3221 13.7797 37.6536C13.8394 36.2796 14.9672 35.2034 16.3472 35.2034C17.7271 35.2034 18.8549 36.2796 18.9147 37.6536C18.9438 38.3222 19.4943 38.8492 20.1636 38.8492H26.5806V44.6477C25.5768 44.7439 24.6159 45.1391 23.8224 45.8006Z" fill="#FFA336"/>
<path d="M52.9822 49.6013C52.4587 49.6013 51.9833 49.2642 51.8063 48.7723C51.6324 48.2892 51.7812 47.7304 52.1735 47.3985C52.5837 47.0515 53.1853 47.0082 53.6418 47.2905C54.0795 47.5614 54.3094 48.0913 54.2084 48.5963C54.093 49.1735 53.5704 49.6013 52.9822 49.6013Z" fill="#FFA336"/>
</svg>
