<svg width="65" height="64" viewBox="0 0 65 64" fill="none" xmlns="http://www.w3.org/2000/svg">
<g clip-path="url(#clip0_1675_9678)">
<path d="M6.53689 41.4134C4.60328 42.8285 4.17261 45.5511 5.57985 47.4945C6.39773 48.6244 7.72 49.2987 9.1165 49.2987C10.0398 49.2987 10.9236 49.0121 11.6732 48.4691C11.6834 48.4618 11.6937 48.4545 11.7039 48.4467L21.8974 40.5799C22.3539 40.2459 22.7357 39.8328 23.0331 39.3519L29.4399 29.8567L31.6787 31.4338C31.7602 31.5447 31.7739 31.6619 31.7739 31.7278C31.7739 31.8045 31.7554 31.9529 31.6299 32.0784L25.1401 38.5677C24.3158 39.3919 23.8617 40.4876 23.8617 41.6536C23.8617 42.8192 24.3158 43.9149 25.1401 44.7391C25.9638 45.5633 27.06 46.017 28.2255 46.017C29.3911 46.017 30.4868 45.5633 31.311 44.7391L38.1236 37.9266C39.8628 36.1873 40.8209 33.8709 40.8209 31.405C40.8209 29.1667 40.0293 27.0534 38.5826 25.3811L45.6373 18.3263C45.9825 17.9811 46.2882 17.6027 46.5533 17.1979C46.5958 17.1979 46.6388 17.2003 46.6813 17.2003C48.6744 17.2003 50.6642 16.839 52.5329 16.1212C55.132 15.1232 57.4523 13.4576 59.2443 11.3058L62.8464 6.97906C63.5159 6.17437 63.8323 5.15727 63.7371 4.11478C63.6418 3.07229 63.1462 2.12941 62.342 1.45997C60.6814 0.0771502 58.2053 0.303714 56.8229 1.96437L54.1393 5.18803C54.0949 3.84134 53.5612 2.50832 52.5358 1.48292C50.3922 -0.661137 46.9039 -0.661137 44.7598 1.48292L43.8673 2.37551C42.8292 3.41409 42.2569 4.79496 42.2569 6.26323C42.2569 6.34575 42.2593 6.42779 42.2632 6.50933C41.7794 6.39702 41.2867 6.33696 40.7925 6.32818C40.7505 6.32378 40.7081 6.32183 40.6646 6.32183H34.6948C30.395 6.32183 26.0654 7.28814 22.1737 9.11628C16.9774 11.5572 11.199 12.8463 5.4568 12.8463C5.42457 12.8468 5.39186 12.8487 5.35963 12.8463C4.99928 12.8463 4.65601 13.0021 4.41871 13.2735C4.18042 13.5455 4.07202 13.9073 4.12085 14.2657L4.55103 17.4122C5.5193 24.4953 9.88652 30.551 16.2709 33.7107L16.0536 34.0462L6.53689 41.4134ZM20.9457 37.9764C20.9345 37.9925 20.9237 38.0091 20.9135 38.0257C20.7841 38.2386 20.6161 38.4207 20.4144 38.5672C20.4042 38.5745 20.3939 38.5823 20.3837 38.5897L10.1932 46.454C9.87578 46.6796 9.5042 46.7987 9.1165 46.7987C8.51933 46.7987 7.95389 46.5106 7.60477 46.0277C7.00222 45.1957 7.18875 44.0282 8.02127 43.4256C8.03202 43.4178 8.04276 43.41 8.05301 43.4017L17.7528 35.8924C17.8641 35.8064 17.9598 35.7019 18.0365 35.5833L24.5131 25.5808C24.9526 26.4128 25.5839 27.1404 26.374 27.6965L27.3959 28.4167L20.9457 37.9764ZM36.3555 36.1585L29.5434 42.971C29.1914 43.3226 28.7231 43.5165 28.2255 43.5165C27.728 43.5165 27.2597 43.3226 26.9077 42.971C26.5561 42.619 26.3622 42.1507 26.3622 41.6532C26.3622 41.1556 26.5561 40.6873 26.9077 40.3358L33.3975 33.846C33.9629 33.2805 34.2739 32.5281 34.2739 31.7273C34.2739 30.9265 33.9629 30.1741 33.3975 29.6091C33.3467 29.5583 33.292 29.5124 33.2334 29.4709L27.8134 25.6525C26.958 25.05 26.416 24.1066 26.3261 23.0641C26.2368 22.0217 26.6093 20.9997 27.3496 20.2599L28.6523 18.9567L35.9453 26.2497C35.9741 26.2785 36.0044 26.3054 36.0357 26.3308L36.3555 26.6511C37.6226 27.9182 38.3208 29.6067 38.3208 31.4045C38.3208 33.2029 37.6231 34.8909 36.3555 36.1585ZM36.834 23.5934L31.311 18.0705C31.2822 18.0416 31.2519 18.0148 31.2207 17.9889L30.4199 17.1886L37.4595 10.149C38.6455 8.96296 40.3306 8.57429 41.8448 8.98005C41.6124 9.05183 41.3843 9.14558 41.1641 9.26179C40.2383 9.75057 39.5586 10.5704 39.2496 11.5709C38.941 12.5709 39.0401 13.6315 39.5289 14.5572C40.0176 15.4825 40.8375 16.1627 41.8375 16.4713C42.3956 16.6437 42.962 16.7838 43.5323 16.8952L36.834 23.5934ZM55.1423 7.89069L58.7443 3.56351C59.2448 2.96194 60.1413 2.87991 60.7424 3.38089C61.0334 3.62308 61.2126 3.96488 61.2473 4.34232C61.282 4.71928 61.1672 5.08744 60.925 5.37895L57.3224 9.70564C55.8039 11.5304 53.8376 12.9415 51.6364 13.7872C48.7574 14.8932 45.5396 14.9977 42.5753 14.0821C42.2134 13.9703 41.9166 13.7242 41.7398 13.3893C41.5626 13.0543 41.5269 12.6705 41.6387 12.3082C41.7505 11.9464 41.9966 11.6495 42.3316 11.4723C42.5386 11.3629 42.7642 11.3077 42.9923 11.3077C43.1329 11.3077 43.2745 11.3287 43.4127 11.3717C44.088 11.5802 44.7716 11.7208 45.4557 11.7975C45.5655 11.8233 45.6788 11.8346 45.7926 11.8297C46.7623 11.9083 47.7301 11.8575 48.6715 11.6842C48.7906 11.6642 48.9083 11.6407 49.025 11.6134C49.0319 11.6119 49.0387 11.6104 49.045 11.609C49.0699 11.6031 49.0944 11.5977 49.1188 11.5914C51.4274 11.0655 53.5544 9.79744 55.1423 7.89069ZM44.7569 6.26275C44.7569 5.46196 45.0689 4.70902 45.6353 4.14261L46.5279 3.25003C47.1124 2.66555 47.88 2.37355 48.6481 2.37355C49.4156 2.37355 50.1832 2.66555 50.7677 3.25003C51.3341 3.81644 51.6461 4.56937 51.6461 5.37016C51.6461 6.17095 51.3341 6.92388 50.7677 7.48981L49.8751 8.38288C49.4532 8.80476 48.9352 9.07185 48.3907 9.18953C48.3536 9.19685 48.3165 9.20466 48.2794 9.21199C47.36 9.3741 46.3805 9.10652 45.6646 8.40973C45.6554 8.39997 45.6466 8.3902 45.6368 8.38093C45.6241 8.36774 45.6104 8.35602 45.5973 8.34333C45.0558 7.7818 44.7569 7.04547 44.7569 6.26275ZM7.0281 17.0734L6.78884 15.3243C12.4544 15.1403 18.1117 13.7862 23.2367 11.3785C26.7983 9.70564 30.7602 8.82136 34.6948 8.82136H35.2515L27.7685 16.3043C27.7666 16.3063 27.7651 16.3082 27.7631 16.3102L25.582 18.4918C24.6283 19.4455 24.0326 20.674 23.8632 21.9845L17.6395 31.5964C11.8592 28.8425 7.89627 23.4255 7.0281 17.0734Z" fill="#FFD530"/>
<path d="M14.8931 48.8134L5.30762 58.3989C4.81933 58.8872 4.81933 59.6787 5.30762 60.167C5.55176 60.4111 5.87159 60.5332 6.19142 60.5332C6.51124 60.5332 6.83156 60.4111 7.07521 60.167L16.6607 50.5814C17.149 50.0932 17.149 49.3016 16.6607 48.8134C16.1729 48.3256 15.3814 48.3256 14.8931 48.8134Z" fill="#FFD530"/>
<path d="M2.85206 61.375C2.52296 61.375 2.20069 61.5083 1.96826 61.7412C1.73535 61.9736 1.60156 62.2964 1.60156 62.625C1.60156 62.9536 1.73535 63.2764 1.96826 63.5088C2.20069 63.7412 2.52296 63.875 2.85206 63.875C3.18068 63.875 3.50294 63.7412 3.73586 63.5088C3.96828 63.2764 4.10207 62.9536 4.10207 62.625C4.10207 62.2964 3.96828 61.9736 3.73586 61.7412C3.50294 61.5088 3.18068 61.375 2.85206 61.375Z" fill="#FFD530"/>
<path d="M25.4674 48.8134C24.9796 48.3256 24.188 48.3256 23.6998 48.8134L17.4912 55.0219C17.0029 55.5102 17.0029 56.3017 17.4912 56.79C17.7354 57.0341 18.0552 57.1562 18.375 57.1562C18.6948 57.1562 19.0147 57.0341 19.2588 56.79L25.4674 50.5814C25.9556 50.0932 25.9556 49.3016 25.4674 48.8134Z" fill="#FFD530"/>
<path d="M62.2254 27.0133L50.9617 29.6022C50.5188 29.7038 50.1658 30.0383 50.0403 30.4753C49.9148 30.9123 50.0364 31.3825 50.3576 31.7043L51.2058 32.552L22.0264 61.7319C21.5381 62.2202 21.5381 63.0117 22.0264 63.5C22.27 63.7436 22.5903 63.8662 22.9102 63.8662C23.23 63.8662 23.5503 63.7436 23.794 63.5L53.8577 33.4362C54.346 32.948 54.346 32.1564 53.8577 31.6682L53.7224 31.5329L60.8402 29.8967L59.2044 37.0144L59.0691 36.8791C58.5809 36.3913 57.7893 36.3913 57.3011 36.8791L35.6861 58.4945C35.1979 58.9823 35.1979 59.7739 35.6861 60.2621C36.1739 60.7504 36.9655 60.7504 37.4537 60.2621L58.1849 39.531L59.033 40.3792C59.3543 40.7005 59.8245 40.8225 60.262 40.6966C60.699 40.5711 61.0335 40.2185 61.1351 39.7752L63.724 28.5114C63.8206 28.092 63.6942 27.652 63.3895 27.3473C63.0853 27.0431 62.6453 26.9167 62.2254 27.0133Z" fill="#FFD530"/>
<path d="M33.332 61.3662C33.002 61.3662 32.6807 61.4985 32.4468 61.731C32.2144 61.9648 32.082 62.2861 32.082 62.6162C32.082 62.9448 32.2144 63.2661 32.4468 63.5C32.6807 63.7324 33.0034 63.8662 33.332 63.8662C33.6607 63.8662 33.9819 63.7324 34.2158 63.5C34.4483 63.2661 34.5821 62.9448 34.5821 62.6162C34.5821 62.2861 34.4483 61.9648 34.2158 61.731C33.9834 61.4985 33.6607 61.3662 33.332 61.3662Z" fill="#FFD530"/>
</g>
<defs>
<clipPath id="clip0_1675_9678">
<rect width="64" height="64" fill="white" transform="translate(0.601562)"/>
</clipPath>
</defs>
</svg>
