<svg width="64" height="64" viewBox="0 0 64 64" fill="none" xmlns="http://www.w3.org/2000/svg">
<g clip-path="url(#clip0_1675_9610)">
<path d="M35.0284 30.796L36.2129 31.3267C36.3787 31.401 36.5524 31.4362 36.7231 31.4362C37.2007 31.4362 37.6567 31.1609 37.8646 30.6968C38.1469 30.0668 37.8649 29.3273 37.2349 29.045L36.0504 28.5144C35.4202 28.2317 34.6809 28.5142 34.3986 29.1442C34.1164 29.7743 34.3984 30.5138 35.0284 30.796Z" fill="#FF4A35"/>
<path d="M27.2784 31.4363C27.4491 31.4363 27.6228 31.401 27.7886 31.3268L28.9731 30.7961C29.6031 30.5139 29.8851 29.7744 29.6029 29.1444C29.3206 28.5143 28.581 28.2323 27.9511 28.5146L26.7666 29.0453C26.1366 29.3275 25.8546 30.067 26.1369 30.697C26.3448 31.161 26.8008 31.4363 27.2784 31.4363Z" fill="#FF4A35"/>
<path d="M60.9004 48.4247C60.5571 47.8257 59.7931 47.619 59.1943 47.9622C58.5955 48.3056 58.3885 49.0695 58.7318 49.6684L60.7651 53.2141C61.5443 54.5731 61.7128 56.1438 61.2396 57.6371C60.7663 59.1305 59.7238 60.3175 58.3041 60.9795C56.8847 61.6416 55.3049 61.6772 53.8569 61.0797C52.4087 60.4824 51.3137 59.3436 50.7735 57.8731L42.5779 35.5601L48.9404 32.5931L53.1356 39.9091C53.479 40.5079 54.2429 40.7153 54.8418 40.3716C55.4406 40.0282 55.6476 39.2643 55.3042 38.6655L50.5375 30.353C50.2766 29.8978 49.7692 29.6658 49.2733 29.738L49.6917 24.9561C49.8853 22.7422 49.0772 20.5896 47.4747 19.0503L46.7065 18.3123C45.1663 11.4847 39.0402 6.56702 32.0001 6.56702C24.9702 6.56702 18.8334 11.4886 17.2936 18.3123L16.5255 19.0501C14.923 20.5895 14.1149 22.7421 14.3085 24.9561L14.7269 29.738C14.2313 29.6659 13.7238 29.8979 13.4627 30.353L1.06665 51.9706C-0.0484615 53.9151 -0.299584 56.2558 0.377534 58.3925C1.05478 60.5292 2.60826 62.2981 4.63974 63.2453C5.71161 63.7452 6.87285 63.996 8.03533 63.996H8.03808L8.03533 63.9991H55.965L55.9631 63.996H55.965C57.1274 63.996 58.2888 63.7451 59.3606 63.2453C61.3921 62.2981 62.9455 60.5292 63.6228 58.3925C64.2999 56.2557 64.0488 53.9151 62.9337 51.9706L60.9004 48.4247ZM50.1482 61.4991H13.8522C14.6013 60.7115 15.1923 59.7732 15.5735 58.7353L19.3332 48.4992L22.9838 47.9295C23.4059 47.8636 23.8099 47.7525 24.1921 47.6024C26.2969 49.5796 29.0919 50.6976 32.0001 50.6976C34.9083 50.6976 37.7032 49.5796 39.8082 47.6024C40.1901 47.7526 40.5943 47.8637 41.0164 47.9295L44.667 48.4992L48.4267 58.7353C48.8081 59.7732 49.3991 60.7115 50.1482 61.4991ZM23.7106 28.7834L23.4817 26.1678L24.9672 22.2227C25.0842 21.912 25.1619 21.59 25.2037 21.2644C26.1815 20.642 27.2308 20.1596 28.3368 19.8271C31.7191 22.6935 35.7763 24.5317 40.1468 25.1801L40.5186 26.1678L40.2898 28.7834C40.1473 30.4124 40.3374 32.06 40.8395 33.6123L40.48 33.7799C39.8914 34.0544 39.611 34.734 39.835 35.3437L40.5311 37.2391C38.5783 40.0291 35.4284 41.6797 32.0002 41.6797C28.5711 41.6797 25.422 40.0293 23.4693 37.2392L24.1656 35.3439C24.3895 34.7342 24.1092 34.0545 23.5206 33.78L23.1611 33.6124C23.6629 32.06 23.8531 30.4124 23.7106 28.7834ZM38.7645 42.2755C39.784 41.6484 40.7175 40.8772 41.5366 39.9771L43.681 45.8151L41.4018 45.4595C40.9558 45.3899 40.5471 45.228 40.1899 44.9981C40.1881 44.997 40.1864 44.9959 40.1846 44.9949C39.3235 44.4379 38.7645 43.3654 38.7645 42.2755ZM27.6345 43.427C29.0114 43.9187 30.4835 44.1797 32.0001 44.1797C33.5166 44.1797 34.9888 43.9187 36.3657 43.4269C36.5558 44.4535 37.0236 45.3834 37.6949 46.1331C36.1056 47.4559 34.0908 48.1977 32.0001 48.1977C29.9094 48.1977 27.8946 47.4559 26.3052 46.1331C26.9766 45.3834 27.4443 44.4535 27.6345 43.427ZM25.2357 42.2758C25.2357 43.8193 24.1233 45.2214 22.5983 45.4594L20.3191 45.8151L22.4634 39.9771C23.2827 40.8773 24.2162 41.6487 25.2357 42.2758ZM47.2013 24.7382L46.6623 30.897L43.1261 32.546C42.7951 31.399 42.6757 30.1938 42.7801 29.0013L43.0337 26.1025C43.0501 25.916 43.0244 25.7282 42.9582 25.553L41.3728 21.3421C41.2019 20.8881 41.2251 20.3776 41.4366 19.9411C41.6875 19.4235 42.1561 19.0685 42.7224 18.9671C42.8295 18.948 42.9366 18.9385 43.0426 18.9385C43.4964 18.9385 43.9299 19.1116 44.2661 19.4348L45.7426 20.8531C46.7971 21.8657 47.3286 23.2819 47.2013 24.7382ZM32.0001 9.06699C37.0079 9.06699 41.46 12.0497 43.4597 16.4585C43.0735 16.4215 42.6784 16.4354 42.282 16.5064C40.919 16.7504 39.7909 17.605 39.187 18.8511C38.678 19.9015 38.6219 21.1304 39.0333 22.2231L39.1202 22.4537C35.5462 21.6774 32.2486 19.9916 29.4885 17.5148C29.1806 17.2385 28.7558 17.1323 28.3545 17.2314C27.0766 17.5464 25.8564 18.0228 24.7097 18.6521C24.0856 17.5145 23.0074 16.7372 21.7183 16.5063C21.3221 16.4354 20.9268 16.4215 20.5406 16.4585C22.5418 12.0516 26.9998 9.06699 32.0001 9.06699ZM18.2575 20.8531L19.734 19.4348C20.1487 19.0363 20.7115 18.866 21.2777 18.9671C21.8439 19.0685 22.3126 19.4235 22.5634 19.9411C22.7748 20.3775 22.7982 20.8881 22.6274 21.3419L21.0418 25.5528C20.9758 25.7281 20.9501 25.9158 20.9663 26.1023L21.22 29.0012C21.3243 30.1937 21.2051 31.3989 20.874 32.5459L17.3377 30.8969L16.7987 24.7381C16.6717 23.2819 17.2031 21.8657 18.2575 20.8531ZM5.69636 60.9796C4.27662 60.3176 3.23413 59.1306 2.76089 57.6373C2.28764 56.1439 2.45614 54.5732 3.23538 53.2142L15.0601 32.5933L21.4227 35.5602L13.227 57.8733C12.6869 59.3438 11.5919 60.4825 10.1437 61.0799C8.69558 61.6774 7.11609 61.6417 5.69636 60.9796Z" fill="#FF4A35"/>
<path d="M29.1239 36.7881C29.6121 37.2762 30.4036 37.2762 30.8918 36.7881C31.1873 36.4926 31.5801 36.3298 31.998 36.3298C32.416 36.3298 32.8088 36.4926 33.1044 36.7881C33.3485 37.0322 33.6684 37.1542 33.9883 37.1542C34.3081 37.1542 34.628 37.0321 34.8721 36.7881C35.3603 36.3 35.3603 35.5085 34.8721 35.0203C34.1044 34.2526 33.0838 33.8298 31.998 33.8298C30.9123 33.8298 29.8916 34.2526 29.124 35.0203C28.6358 35.5085 28.6358 36.2998 29.1239 36.7881Z" fill="#FF4A35"/>
<path d="M55.9216 17.2884L57.9458 18.4571L53.4091 21.0403C52.8092 21.3818 52.5997 22.145 52.9413 22.745C53.1718 23.1498 53.5942 23.3768 54.0287 23.3768C54.2384 23.3768 54.4509 23.3239 54.6461 23.2128L61.0773 19.551C61.4664 19.3294 61.7074 18.9164 61.7088 18.4685C61.7102 18.0206 61.4718 17.6063 61.0838 17.3823L59.2304 16.3121L63.2866 14.38C63.9098 14.0831 64.1746 13.3373 63.8777 12.7139C63.5808 12.0906 62.8347 11.8263 62.2117 12.1229L56.0091 15.0773C55.5898 15.2769 55.3158 15.6925 55.2976 16.1564C55.2793 16.6203 55.5196 17.0563 55.9216 17.2884Z" fill="#FF4A35"/>
<path d="M48.4563 13.7122C48.6863 13.8951 48.9608 13.9839 49.2335 13.9839C49.6014 13.9839 49.9659 13.8223 50.2127 13.5119L54.8192 7.71987C55.098 7.36925 55.168 6.89638 55.0026 6.48013C54.8372 6.06388 54.4616 5.76801 54.0182 5.70451L51.8998 5.40102L54.9456 2.0983C55.4136 1.5908 55.3815 0.80006 54.8741 0.332065C54.3665 -0.135931 53.5759 -0.103931 53.1078 0.403564L48.4502 5.45401C48.1354 5.79526 48.0359 6.28288 48.1914 6.72038C48.3471 7.15787 48.7323 7.473 49.1919 7.53874L51.5058 7.87012L48.2563 11.956C47.8263 12.4962 47.9161 13.2824 48.4563 13.7122Z" fill="#FF4A35"/>
<path d="M0.71289 14.38L4.76902 16.3121L2.91564 17.3822C2.52764 17.6062 2.28927 18.0206 2.29064 18.4685C2.29202 18.9164 2.53289 19.3294 2.92214 19.551L9.35339 23.2127C9.54864 23.324 9.76114 23.3767 9.97077 23.3767C10.4054 23.3767 10.8276 23.1497 11.0581 22.745C11.3996 22.1451 11.1903 21.3819 10.5904 21.0402L6.05364 18.4571L8.07789 17.2884C8.48002 17.0562 8.72027 16.6204 8.70189 16.1564C8.68364 15.6925 8.40952 15.2769 7.99039 15.0772L1.78777 12.1229C1.16464 11.826 0.41864 12.0906 0.121765 12.7139C-0.17511 13.3371 0.0895151 14.0831 0.71289 14.38Z" fill="#FF4A35"/>
<path d="M12.0997 5.40107L9.98124 5.70457C9.53787 5.76807 9.16224 6.06394 8.99687 6.48019C8.8315 6.89643 8.90137 7.36943 9.18024 7.71992L13.7868 13.512C14.0336 13.8222 14.3981 13.984 14.7659 13.984C15.0386 13.984 15.3132 13.8952 15.5432 13.7122C16.0834 13.2825 16.1732 12.4961 15.7434 11.9559L12.4937 7.87005L14.8076 7.53868C15.2672 7.4728 15.6524 7.15768 15.8081 6.72031C15.9636 6.28281 15.8639 5.79532 15.5493 5.45395L10.8916 0.403496C10.4237 -0.103874 9.63286 -0.136248 9.12524 0.331997C8.61775 0.799992 8.58575 1.59073 9.05374 2.09823L12.0997 5.40107Z" fill="#FF4A35"/>
<path d="M57.0312 45.4088C57.7216 45.4088 58.2812 44.8492 58.2812 44.1588C58.2812 43.4685 57.7216 42.9088 57.0312 42.9088C56.3409 42.9088 55.7812 43.4685 55.7812 44.1588C55.7812 44.8492 56.3409 45.4088 57.0312 45.4088Z" fill="#FF4A35"/>
</g>
<defs>
<clipPath id="clip0_1675_9610">
<rect width="64" height="64" fill="white"/>
</clipPath>
</defs>
</svg>
