<svg width="64" height="64" viewBox="0 0 64 64" fill="none" xmlns="http://www.w3.org/2000/svg">
<g clip-path="url(#clip0_1675_10444)">
<path d="M63.0515 35.3177L48.4633 26.8953V24.5012C48.4633 23.8108 47.9037 23.2512 47.2133 23.2512C46.523 23.2512 45.9633 23.8108 45.9633 24.5012V26.8779L41.2127 29.6208V26.3561C41.2127 23.7217 39.4672 21.4874 37.0718 20.7479C38.1902 19.5251 38.8736 17.8979 38.8736 16.1141C38.8736 12.3242 35.7902 9.24081 32.0003 9.24081C28.2105 9.24081 25.1271 12.3242 25.1271 16.1141C25.1271 17.8979 25.8106 19.5249 26.9288 20.7479C24.5335 21.4874 22.7878 23.7216 22.7878 26.3561V29.6207L18.0372 26.8779V10.7548L32.0003 2.69331L45.9633 10.7549V13.1113C45.9633 13.8017 46.523 14.3613 47.2133 14.3613C47.9037 14.3613 48.4633 13.8017 48.4633 13.1113V10.0332C48.4633 9.58656 48.2251 9.17394 47.8383 8.95069L32.6253 0.167437C32.2386 -0.0558125 31.7621 -0.0558125 31.3753 0.167437L16.1623 8.95069C15.7756 9.17394 15.5373 9.58656 15.5373 10.0332V26.8953L0.949219 35.3177C0.562469 35.5409 0.324219 35.9536 0.324219 36.4002V53.9667C0.324219 54.4133 0.562469 54.8259 0.949219 55.0492L16.1623 63.8324C16.3557 63.9441 16.5715 63.9999 16.7873 63.9999C17.0032 63.9999 17.219 63.9441 17.4123 63.8324L32.0003 55.4101L46.5883 63.8324C46.7817 63.9441 46.9975 63.9999 47.2133 63.9999C47.4292 63.9999 47.645 63.9441 47.8383 63.8324L63.0515 55.0492C63.4382 54.8259 63.6765 54.4133 63.6765 53.9667V36.4002C63.6765 35.9536 63.4382 35.5409 63.0515 35.3177ZM32.0003 11.7409C34.4117 11.7409 36.3736 13.7028 36.3736 16.1142C36.3736 18.5256 34.4117 20.4874 32.0003 20.4874C29.589 20.4874 27.6271 18.5256 27.6271 16.1142C27.6271 13.7028 29.589 11.7409 32.0003 11.7409ZM25.288 26.3561C25.288 24.4989 26.7995 22.9881 28.6573 22.9881H35.3433C37.2012 22.9881 38.7127 24.4989 38.7127 26.3561V31.0642L32.0003 34.9396L25.288 31.0642V26.3561ZM2.82422 37.1218L16.7873 29.0602L30.7503 37.1218V53.2449L25.9997 55.9878V52.7231C25.9997 50.0752 24.2361 47.8324 21.8218 47.1044C22.9617 45.8772 23.6606 44.2349 23.6606 42.4319C23.6606 38.6421 20.5772 35.5587 16.7873 35.5587C12.9975 35.5587 9.91409 38.6421 9.91409 42.4319C9.91409 44.2351 10.613 45.8772 11.7528 47.1044C9.33859 47.8323 7.57497 50.0752 7.57497 52.7231V55.9878L2.82422 53.2449V37.1218ZM16.7873 46.8052C14.3758 46.8052 12.4141 44.8434 12.4141 42.4319C12.4141 40.0204 14.376 38.0587 16.7873 38.0587C19.1987 38.0587 21.1606 40.0206 21.1606 42.4319C21.1606 44.8434 19.1987 46.8052 16.7873 46.8052ZM16.7873 61.3066L10.075 57.4312V52.7231C10.075 50.8659 11.5865 49.3551 13.4443 49.3551H20.1303C21.9882 49.3551 23.4997 50.8659 23.4997 52.7231V57.4312L16.7873 61.3066ZM47.2133 61.3066L40.501 57.4312V52.7231C40.501 50.8659 42.0125 49.3551 43.8703 49.3551H50.5563C52.4142 49.3551 53.9257 50.8659 53.9257 52.7231V57.4312L47.2133 61.3066ZM47.2133 46.8052C44.802 46.8052 42.8401 44.8434 42.8401 42.4319C42.8401 40.0204 44.802 38.0587 47.2133 38.0587C49.6248 38.0587 51.5866 40.0206 51.5866 42.4319C51.5866 44.8434 49.6248 46.8052 47.2133 46.8052ZM61.1765 53.2449L56.4258 55.9877V52.7229C56.4258 50.0751 54.6622 47.8323 52.248 47.1043C53.3878 45.8771 54.0867 44.2348 54.0867 42.4318C54.0867 38.6419 51.0033 35.5586 47.2135 35.5586C43.4236 35.5586 40.3402 38.6419 40.3402 42.4318C40.3402 44.2349 41.0391 45.8771 42.179 47.1043C39.7648 47.8322 38.0012 50.0751 38.0012 52.7229V55.9877L33.2503 53.2449V37.1218L47.2133 29.0602L61.1765 37.1218V53.2449Z" fill="#FF4A35"/>
<path d="M47.2109 20.0664C47.9013 20.0664 48.4609 19.5068 48.4609 18.8164C48.4609 18.1261 47.9013 17.5664 47.2109 17.5664C46.5206 17.5664 45.9609 18.1261 45.9609 18.8164C45.9609 19.5068 46.5206 20.0664 47.2109 20.0664Z" fill="#FF4A35"/>
</g>
<defs>
<clipPath id="clip0_1675_10444">
<rect width="64" height="64" fill="white"/>
</clipPath>
</defs>
</svg>
