<svg width="65" height="64" viewBox="0 0 65 64" fill="none" xmlns="http://www.w3.org/2000/svg">
<g clip-path="url(#clip0_1675_10497)">
<path d="M32.2869 63.9667C32.9765 63.9432 33.5166 63.3651 33.4931 62.6755C33.4697 61.9858 32.8915 61.4457 32.2019 61.4692C31.5122 61.4927 30.9722 62.0708 30.9956 62.7605C31.0191 63.4501 31.5972 63.9902 32.2869 63.9667Z" fill="#FFA336"/>
<path d="M39.9746 9.66309C39.2811 9.66309 38.7189 10.2253 38.7188 10.9188C38.7186 11.6123 39.2809 12.1746 39.9745 12.1747C40.668 12.1747 41.2304 11.6125 41.2304 10.919C41.2304 10.2253 40.6682 9.66309 39.9746 9.66309Z" fill="#FFA336"/>
<path d="M20.5889 4.99619C21.2207 4.71046 21.5012 3.96664 21.2155 3.33484C20.9298 2.70303 20.186 2.42248 19.5541 2.70822C18.9223 2.99395 18.6418 3.73777 18.9275 4.36957C19.2133 5.00138 19.9571 5.28193 20.5889 4.99619Z" fill="#FFA336"/>
<path d="M39.424 42.5029C39.91 42.1889 40.3768 41.842 40.8208 41.4633C42.9 39.6891 44.374 37.3143 45.0422 34.6915H45.1972C47.2963 34.6915 49.0042 32.9836 49.0042 30.8845C49.0042 28.7854 47.2963 27.0776 45.1972 27.0776H19.3059C17.2068 27.0776 15.499 28.7854 15.499 30.8845C15.499 32.9836 17.2068 34.6915 19.3059 34.6915H19.5083C20.1764 37.3143 21.6504 39.6891 23.7297 41.4633C24.1685 41.8378 24.63 42.1806 25.11 42.4918C21.9495 43.174 19.0463 44.7474 16.7054 47.088C13.4924 50.3008 11.7229 54.5725 11.7228 59.1161L11.7227 62.7463C11.7227 63.0785 11.8547 63.397 12.0895 63.6319C12.3244 63.8668 12.643 63.9988 12.9752 63.9988L26.6223 63.9991C27.314 63.9991 27.8748 63.4384 27.8748 62.7466C27.8748 62.0549 27.314 61.494 26.6223 61.494L23.0809 61.4939L23.0812 56.3418C23.0812 55.65 22.5204 55.0891 21.8287 55.0891C21.1369 55.0891 20.5762 55.6499 20.5762 56.3416L20.5759 61.4939L14.2277 61.4936L14.2278 59.116C14.2279 55.2414 15.7368 51.5989 18.4767 48.8593C20.4485 46.8875 22.8883 45.5534 25.5454 44.9605C26.4553 47.8836 29.1447 49.8853 32.252 49.8854H32.2522C35.3578 49.8854 38.0464 47.8856 38.9578 44.9649C45.4279 46.4215 50.2759 52.2135 50.2757 59.1171L50.2755 61.4946L43.9273 61.4944L43.9274 56.3421C43.9274 55.6504 43.3667 55.0896 42.6749 55.0896C41.9832 55.0896 41.4224 55.6505 41.4224 56.3421L41.4223 61.4943L37.8808 61.4941C37.189 61.4941 36.6283 62.0549 36.6283 62.7466C36.6283 63.4384 37.189 63.9993 37.8808 63.9993L51.5279 64C52.2197 64 52.7804 63.4393 52.7804 62.7475L52.7805 59.1175C52.7808 50.9918 47.0535 44.1795 39.424 42.5029ZM21.7575 33.2301C21.6557 32.6275 21.1338 32.1864 20.5225 32.1864H19.3059C18.588 32.1864 18.004 31.6024 18.004 30.8844C18.004 30.1665 18.588 29.5825 19.3059 29.5825H45.197C45.915 29.5825 46.499 30.1665 46.499 30.8844C46.499 31.6023 45.915 32.1864 45.197 32.1864H44.0278C43.4165 32.1864 42.8947 32.6275 42.7928 33.2301C41.9235 38.3733 37.5003 42.1063 32.2752 42.1063C27.05 42.1063 22.6269 38.3734 21.7575 33.2301ZM32.2519 47.3806C30.4019 47.3805 28.7818 46.2793 28.0859 44.626C28.3012 44.6166 36.2034 44.6171 36.4182 44.6266C35.722 46.2796 34.1019 47.3806 32.2519 47.3806Z" fill="#FFA336"/>
<path d="M29.2903 14.0125C29.5252 14.2474 29.8438 14.3794 30.176 14.3794C30.5081 14.3794 30.8267 14.2474 31.0616 14.0125L35.1825 9.8918C35.9695 9.10492 36.403 8.05867 36.403 6.9458C36.403 5.83292 35.9696 4.78667 35.1827 3.99967C34.3958 3.21267 33.3496 2.7793 32.2366 2.7793H32.2365C31.5017 2.7793 30.7961 2.96817 30.1748 3.32305C28.5852 2.41992 26.5236 2.64555 25.1697 3.99942C24.3827 4.7863 23.9492 5.83255 23.9492 6.94542C23.9492 8.0583 24.3826 9.10455 25.1695 9.89155L29.2903 14.0125ZM26.9411 5.7708C27.2651 5.44692 27.6905 5.28505 28.116 5.28505C28.5415 5.28505 28.967 5.44705 29.2908 5.77092C29.5257 6.0058 29.8443 6.1378 30.1765 6.1378C30.5086 6.1378 30.8272 6.0058 31.0621 5.77092C31.3758 5.45717 31.7931 5.2843 32.2368 5.2843C32.6806 5.2843 33.0978 5.45717 33.4116 5.77092C33.7253 6.08467 33.8982 6.50205 33.8982 6.9458C33.8982 7.38955 33.7253 7.80667 33.4115 8.12055L30.1762 11.3557L26.9411 8.12042C26.6273 7.80667 26.4545 7.3893 26.4545 6.94555C26.4545 6.5018 26.6273 6.08455 26.9411 5.7708Z" fill="#FFA336"/>
<path d="M23.233 21.0142H23.5311V21.3125C23.5311 22.0042 24.0918 22.5651 24.7836 22.5651C25.4753 22.5651 26.0361 22.0044 26.0361 21.3126V21.0144H26.3343C27.0261 21.0144 27.5868 20.4536 27.5868 19.7619C27.5868 19.0701 27.0261 18.5094 26.3343 18.5094H26.0361V18.2111C26.0361 17.5194 25.4753 16.9585 24.7836 16.9585C24.0918 16.9585 23.5311 17.5192 23.5311 18.211V18.5092H23.233C22.5412 18.5092 21.9805 19.0701 21.9805 19.7617C21.9805 20.4534 22.5411 21.0142 23.233 21.0142Z" fill="#FFA336"/>
<path d="M39.5727 4.01176H39.8721V4.35364C39.8721 5.04539 40.4328 5.60626 41.1246 5.60626C41.8163 5.60626 42.3771 5.04551 42.3771 4.35376V4.01176H42.6764C43.3682 4.01176 43.9289 3.45101 43.9289 2.75926C43.9289 2.06751 43.3682 1.50664 42.6764 1.50664H42.3772V1.25214C42.3772 0.560387 41.8164 -0.000488281 41.1247 -0.000488281C40.4329 -0.000488281 39.8722 0.560262 39.8722 1.25201V1.50651H39.5728C38.8811 1.50651 38.3203 2.06726 38.3203 2.75901C38.3202 3.45101 38.8809 4.01176 39.5727 4.01176Z" fill="#FFA336"/>
<path d="M35.1557 15.3337L31.6129 18.8762C31.1238 19.3653 31.1238 20.1583 31.6129 20.6474L35.1554 24.1902C35.3903 24.425 35.7089 24.557 36.0411 24.557C36.3732 24.557 36.6918 24.425 36.9267 24.1902L40.4694 20.6477C40.9586 20.1585 40.9586 19.3655 40.4694 18.8764L36.9269 15.3337C36.6921 15.0988 36.3734 14.9668 36.0413 14.9668C35.7092 14.9669 35.3907 15.0989 35.1557 15.3337ZM37.8127 19.762L36.0412 21.5333L34.2699 19.7619L36.0414 17.9907L37.8127 19.762Z" fill="#FFA336"/>
<path d="M17.0341 23.1082C17.2064 23.6366 17.6971 23.9726 18.2246 23.9726C18.3524 23.9726 18.4824 23.9528 18.6106 23.9113C19.2686 23.6983 19.6294 22.9921 19.4163 22.334C19.3259 22.0547 17.1313 15.4768 10.9472 13.8672C10.2786 13.6933 9.59405 14.0945 9.41955 14.7638C9.24543 15.4332 9.6468 16.1172 10.3163 16.2915C15.1549 17.5508 17.0158 23.0528 17.0341 23.1082Z" fill="#FFA336"/>
<path d="M15.5135 10.8447C17.5028 11.5436 18.792 13.675 18.8123 13.7089C19.0458 14.1049 19.4634 14.3254 19.8924 14.3254C20.1074 14.3254 20.3253 14.27 20.5243 14.1534C21.1212 13.8037 21.3215 13.0365 20.9719 12.4395C20.9015 12.3196 19.2184 9.49111 16.3438 8.48123C15.691 8.25211 14.9763 8.59523 14.7469 9.24773C14.5177 9.90048 14.8609 10.6155 15.5135 10.8447Z" fill="#FFA336"/>
<path d="M55.9173 14.7639C55.7431 14.0945 55.0587 13.6933 54.3897 13.8673C48.2056 15.4769 46.0111 22.0548 45.9206 22.334C45.7078 22.991 46.0676 23.6949 46.7241 23.9091C46.8528 23.9511 46.9834 23.9711 47.1121 23.9711C47.6389 23.9711 48.1294 23.6356 48.3029 23.1084C48.3212 23.053 50.1821 17.551 55.0206 16.2916C55.6901 16.1173 56.0914 15.4333 55.9173 14.7639Z" fill="#FFA336"/>
<path d="M44.8123 14.1497C45.0117 14.2673 45.2304 14.3232 45.4464 14.3232C45.8747 14.3232 46.2922 14.1034 46.5266 13.709C46.5393 13.6874 47.8303 11.5455 49.8254 10.8447C50.4781 10.6154 50.8213 9.90041 50.5919 9.24778C50.3627 8.59528 49.6481 8.25203 48.9951 8.48128C46.1204 9.49116 44.4372 12.3195 44.3669 12.4395C44.0182 13.035 44.2179 13.7989 44.8123 14.1497Z" fill="#FFA336"/>
<path d="M27.8619 32.5836C28.5536 32.5836 29.1144 32.0228 29.1144 31.3311C29.1144 30.6394 28.5536 30.0786 27.8619 30.0786C27.1701 30.0786 26.6094 30.6394 26.6094 31.3311C26.6094 32.0228 27.1701 32.5836 27.8619 32.5836Z" fill="#FFA336"/>
<path d="M36.4009 32.5836C37.0927 32.5836 37.6534 32.0228 37.6534 31.3311C37.6534 30.6394 37.0927 30.0786 36.4009 30.0786C35.7092 30.0786 35.1484 30.6394 35.1484 31.3311C35.1484 32.0228 35.7092 32.5836 36.4009 32.5836Z" fill="#FFA336"/>
<path d="M36.4552 36.529C35.9661 36.0398 35.1732 36.0398 34.6838 36.529C33.2756 37.9373 30.984 37.9372 29.5757 36.529C29.0865 36.0398 28.2936 36.0398 27.8043 36.529C27.3152 37.0181 27.3152 37.8112 27.8043 38.3003C28.9971 39.493 30.5631 40.089 32.1297 40.089C33.696 40.089 35.2627 39.4926 36.4551 38.3003C36.9443 37.8111 36.9443 37.0181 36.4552 36.529Z" fill="#FFA336"/>
</g>
<defs>
<clipPath id="clip0_1675_10497">
<rect width="64" height="64" fill="white" transform="translate(0.667969)"/>
</clipPath>
</defs>
</svg>
