<svg width="65" height="64" viewBox="0 0 65 64" fill="none" xmlns="http://www.w3.org/2000/svg">
<mask id="mask0_1675_10454" style="mask-type:luminance" maskUnits="userSpaceOnUse" x="0" y="0" width="65" height="64">
<path d="M0.332031 3.8147e-06H64.332V64H0.332031V3.8147e-06Z" fill="white"/>
</mask>
<g mask="url(#mask0_1675_10454)">
<path d="M28.5859 51.4478C29.2759 51.4478 29.8359 52.0078 29.8359 52.6978C29.8359 53.389 29.2759 53.9478 28.5859 53.9478C27.8947 53.9478 27.3359 53.389 27.3359 52.6978C27.3359 52.0078 27.8947 51.4478 28.5859 51.4478Z" fill="#42C79C"/>
<path fill-rule="evenodd" clip-rule="evenodd" d="M46.0877 58.9478C46.778 58.9478 47.3377 58.3881 47.3377 57.6978C47.3377 57.5821 47.3377 57.466 47.3377 57.3496C47.3385 54.2613 47.3393 50.939 46.8102 47.805C46.2578 44.5325 45.1131 41.3593 42.7071 38.7632M42.7069 38.7631L36.4841 32.0461L42.8329 25.0985L42.833 25.0984C43.9529 23.8727 44.7954 22.516 45.4269 21.0798M34.8314 32.1015L34.8314 32.1015L34.8314 32.1015C45.3973 58.9478 44.8377 58.3881 44.8377 57.6978ZM44.8377 57.6978C44.8377 57.609 44.8377 57.5203 44.8377 57.4316L44.8377 57.6978ZM44.8377 57.4316C44.8381 54.2794 44.8385 51.1437 44.3451 48.2211L44.8377 57.4316ZM44.3451 48.2211C43.8413 45.2369 42.8373 42.5814 40.8734 40.4625L44.3451 48.2211ZM40.8734 40.4625L40.8732 40.4623L40.8734 40.4625ZM40.8732 40.4623L33.9144 32.951L40.8732 40.4623ZM33.9144 32.951L33.9138 32.9503L33.9144 32.951ZM33.9138 32.9503L33.8675 32.9003L33.9138 32.9503ZM33.9099 31.157L33.8684 31.2018C33.4244 31.6808 33.424 32.4209 33.8675 32.9003M33.9099 31.157L33.9159 31.1506L33.9099 31.157ZM33.9159 31.1506L40.9873 23.4121C41.9049 22.4079 42.6048 21.2872 43.1384 20.0734L43.1384 20.0732C44.84 16.2047 44.8389 11.4869 44.8377 6.67545C44.8377 6.55003 44.8377 6.42455 44.8377 6.29901C44.8377 5.60865 45.3973 5.04901 46.0877 5.04901C46.778 5.04901 47.3377 5.60865 47.3377 6.29901C47.3377 6.49648 47.3378 6.69512 47.338 6.89482C47.3416 11.5225 47.3456 16.7172 45.427 21.0796" fill="#42C79C"/>
<path fill-rule="evenodd" clip-rule="evenodd" d="M18.4809 58.8462C19.1712 58.8462 19.7309 58.2865 19.7309 57.5962C19.7309 57.4416 19.7308 57.287 19.7308 57.1325C19.7296 54.0733 19.7284 51.0356 20.1926 48.1948C20.6769 45.2317 21.6531 42.5937 23.5811 40.4832M23.5812 40.4831L30.6478 32.7504L30.6498 32.7482L30.704 32.6892C31.1446 32.2094 31.1429 31.4718 30.7002 30.994L23.6942 23.4343C22.3527 21.9858 21.4612 20.292 20.8707 18.4159L20.8706 18.4154C19.7305 14.7985 19.7307 10.6295 19.7309 6.41102L19.7309 6.19745C19.7309 5.50709 19.1712 4.94745 18.4809 4.94745C17.7905 4.94745 17.2309 5.50709 17.2309 6.19745V6.24995C17.2309 6.36424 17.2308 6.4789 17.2308 6.5939C17.2298 10.6734 17.2287 15.1774 18.4862 19.167C19.1657 21.3257 20.2217 23.3642 21.86 25.1331L21.8603 25.1334L28.0845 31.8495L21.7355 38.7968C19.3686 41.3876 18.2561 44.5439 17.7254 47.7916C17.2271 50.8405 17.229 54.0673 17.2307 57.0727C17.2308 57.2479 17.2309 57.4225 17.2309 57.5962C17.2309 58.2865 17.7905 58.8462 18.4809 58.8462" fill="#42C79C"/>
<path fill-rule="evenodd" clip-rule="evenodd" d="M46.5996 58.8881C47.228 58.6025 47.5059 57.8614 47.2203 57.2329C47.2051 57.1995 47.1912 57.1723 47.1851 57.1604C47.1827 57.1557 47.1793 57.1492 47.1786 57.1478C44.7042 52.222 41.1781 49.0024 38.2445 46.9949L38.2442 46.9947C36.772 45.9877 35.4444 45.2828 34.4646 44.8177C33.9743 44.5849 33.5716 44.4125 33.2837 44.2931C33.1829 44.2514 33.0922 44.2145 33.0225 44.1862C32.9954 44.1751 32.9714 44.1654 32.9513 44.1572C32.9248 44.1463 32.9065 44.1387 32.8941 44.1335C32.506 43.9382 32.0406 43.9575 31.6678 44.1914C31.5318 44.2768 31.2687 44.3992 30.9034 44.5692C28.4895 45.6924 21.6133 48.8919 17.4642 57.1912C17.1555 57.8087 17.4059 58.5595 18.0233 58.8682C18.6408 59.1769 19.3917 58.9266 19.7004 58.3091C23.3769 50.9551 29.1777 48.1756 31.8552 46.8927C32.0531 46.7979 32.234 46.7112 32.3958 46.6315C32.6498 46.7377 32.9877 46.8839 33.3925 47.0761C34.279 47.497 35.4889 48.1389 36.8329 49.0582C39.5139 50.8929 42.7073 53.8154 44.9453 58.2712L46.0623 57.7102L44.9823 58.2502M44.9554 58.2912L44.9538 58.2879L44.9511 58.2828C44.9495 58.2795 44.9475 58.2756 44.9453 58.2712M46.5996 58.8881C45.979 59.1702 45.2488 58.9029 44.9554 58.2912L46.5996 58.8881ZM32.8798 44.1274C32.8804 44.1277 32.8812 44.128 32.882 44.1284C32.8651 44.1204 32.8616 44.1195 32.8798 44.1274Z" fill="#42C79C"/>
<path fill-rule="evenodd" clip-rule="evenodd" d="M32.332 52.75C32.332 53.4404 32.8917 54 33.582 54H36.082C36.7724 54 37.332 53.4404 37.332 52.75C37.332 52.0596 36.7724 51.5 36.082 51.5H33.582C32.8917 51.5 32.332 52.0596 32.332 52.75Z" fill="#42C79C"/>
<path fill-rule="evenodd" clip-rule="evenodd" d="M33.3347 40.2465L32.332 39.5L31.3294 40.2465C31.5653 40.5633 31.9371 40.75 32.3321 40.75C32.7271 40.75 33.0988 40.5633 33.3347 40.2465ZM36.0806 32.1281C36.0554 34.4077 35.3632 36.432 34.7006 37.8622C34.3662 38.5841 34.0325 39.1692 33.7799 39.5776C33.6533 39.7822 33.5465 39.9434 33.4692 40.0563C33.4305 40.1128 33.3991 40.1573 33.3763 40.1892C33.3649 40.2051 33.3556 40.2179 33.3486 40.2275C33.3451 40.2323 33.3422 40.2363 33.3399 40.2394L33.3368 40.2436L33.3351 40.2459C33.3349 40.2462 33.3347 40.2465 32.332 39.5C31.3294 40.2465 31.3292 40.2462 31.329 40.2459L31.3273 40.2436L31.3242 40.2394C31.3218 40.2362 31.3188 40.2322 31.3153 40.2273C31.3082 40.2176 31.2988 40.2046 31.2872 40.1884C31.2641 40.1561 31.2323 40.1109 31.193 40.0536C31.1146 39.9389 31.0062 39.7752 30.8779 39.5675C30.6218 39.1528 30.284 38.5588 29.9466 37.8263C29.277 36.3722 28.582 34.3134 28.582 32C28.582 31.3096 29.1417 30.75 29.832 30.75C30.5224 30.75 31.082 31.3096 31.082 32C31.082 33.8291 31.637 35.5203 32.2174 36.7806C32.2557 36.8636 32.2939 36.9445 32.3319 37.0232C32.3652 36.9542 32.3987 36.8836 32.4322 36.8113C33.0076 35.5692 33.5632 33.8997 33.5808 32.089C33.581 32.0777 33.5812 32.0663 33.5816 32.055C33.5819 32.0482 33.582 32.0376 33.582 32C33.582 31.3096 34.1417 30.75 34.832 30.75C35.5224 30.75 36.082 31.3096 36.082 32L36.082 32.0051C36.082 32.0325 36.0821 32.0781 36.0806 32.1281Z" fill="#42C79C"/>
<path fill-rule="evenodd" clip-rule="evenodd" d="M43.7406 19.4507C40.325 21.0994 36.2169 20.7786 33.0692 18.4893L33.0691 18.4893C28.9246 15.4753 23.4413 15.2157 19.0636 17.7048C19.0567 17.7088 19.0498 17.7128 19.0429 17.7168C19.0418 17.7175 19.0399 17.7186 19.037 17.7202L19.0354 17.7211C19.0268 17.726 19.0053 17.7381 18.9821 17.7521C18.3901 18.1073 18.1981 18.8751 18.5533 19.4671C18.9076 20.0575 19.6724 20.25 20.2637 19.8986C20.2649 19.8979 20.2667 19.8968 20.2696 19.8952C20.2701 19.895 20.2706 19.8947 20.2712 19.8943C20.2778 19.8906 20.2918 19.8827 20.3084 19.8729C23.8391 17.8701 28.2586 18.0822 31.5988 20.5112L32.3339 19.5002L31.5988 20.5112C35.4956 23.3454 40.5787 23.7449 44.8096 21.7107C44.8423 21.696 44.8743 21.6807 44.9042 21.6657C45.5217 21.357 45.772 20.6062 45.4632 19.9887C45.1545 19.3712 44.4036 19.1209 43.7862 19.4297L43.7847 19.4304L43.7831 19.4311L43.7829 19.4313L43.7823 19.4315C43.7683 19.4377 43.7544 19.4441 43.7406 19.4507Z" fill="#42C79C"/>
<path fill-rule="evenodd" clip-rule="evenodd" d="M13.582 30.75C14.2724 30.75 14.832 30.1904 14.832 29.5V6.19875C14.832 5.50839 14.2724 4.94875 13.582 4.94875C12.8917 4.94875 12.332 5.50839 12.332 6.19875V29.5C12.332 30.1904 12.8917 30.75 13.582 30.75Z" fill="#42C79C"/>
<path fill-rule="evenodd" clip-rule="evenodd" d="M13.582 58.9463C14.2724 58.9463 14.832 58.3866 14.832 57.6963V34.5C14.832 33.8097 14.2724 33.25 13.582 33.25C12.8917 33.25 12.332 33.8097 12.332 34.5V57.6963C12.332 58.3866 12.8917 58.9463 13.582 58.9463Z" fill="#42C79C"/>
<path fill-rule="evenodd" clip-rule="evenodd" d="M9.83203 32C9.83203 34.0716 11.5104 35.75 13.582 35.75C15.6536 35.75 17.332 34.0716 17.332 32C17.332 29.9284 15.6536 28.25 13.582 28.25C11.5104 28.25 9.83203 29.9284 9.83203 32ZM13.582 33.25C12.8911 33.25 12.332 32.6909 12.332 32C12.332 31.3091 12.8911 30.75 13.582 30.75C14.2729 30.75 14.832 31.3091 14.832 32C14.832 32.6909 14.2729 33.25 13.582 33.25Z" fill="#42C79C"/>
<path fill-rule="evenodd" clip-rule="evenodd" d="M51.082 30.75C51.7724 30.75 52.332 30.1904 52.332 29.5V6.19875C52.332 5.50839 51.7724 4.94875 51.082 4.94875C50.3917 4.94875 49.832 5.50839 49.832 6.19875V29.5C49.832 30.1904 50.3917 30.75 51.082 30.75Z" fill="#42C79C"/>
<path fill-rule="evenodd" clip-rule="evenodd" d="M51.082 58.9463C51.7724 58.9463 52.332 58.3866 52.332 57.6963V34.5C52.332 33.8097 51.7724 33.25 51.082 33.25C50.3917 33.25 49.832 33.8097 49.832 34.5V57.6963C49.832 58.3866 50.3917 58.9463 51.082 58.9463Z" fill="#42C79C"/>
<path fill-rule="evenodd" clip-rule="evenodd" d="M47.332 32C47.332 34.0716 49.0104 35.75 51.082 35.75C53.1536 35.75 54.832 34.0716 54.832 32C54.832 29.9284 53.1536 28.25 51.082 28.25C49.0104 28.25 47.332 29.9284 47.332 32ZM51.082 33.25C50.3911 33.25 49.832 32.6909 49.832 32C49.832 31.3091 50.3911 30.75 51.082 30.75C51.7729 30.75 52.332 31.3091 52.332 32C52.332 32.6909 51.7729 33.25 51.082 33.25Z" fill="#42C79C"/>
<path fill-rule="evenodd" clip-rule="evenodd" d="M9.83203 62.75C9.83203 63.4404 10.3917 64 11.082 64H53.582C54.2724 64 54.832 63.4404 54.832 62.75V60.25C54.832 58.1784 53.1536 56.5 51.082 56.5H13.582C11.5104 56.5 9.83203 58.1784 9.83203 60.25V62.75ZM12.332 61.5V60.25C12.332 59.5591 12.8911 59 13.582 59H51.082C51.7729 59 52.332 59.5591 52.332 60.25V61.5H12.332Z" fill="#42C79C"/>
<path fill-rule="evenodd" clip-rule="evenodd" d="M9.83203 3.75C9.83203 5.82161 11.5104 7.5 13.582 7.5H51.082C53.1536 7.5 54.832 5.82161 54.832 3.75V1.25C54.832 0.559645 54.2724 0 53.582 0H11.082C10.3917 0 9.83203 0.559645 9.83203 1.25V3.75ZM13.582 5C12.8911 5 12.332 4.44089 12.332 3.75V2.5H52.332V3.75C52.332 4.44089 51.7729 5 51.082 5H13.582Z" fill="#42C79C"/>
</g>
</svg>
