<svg width="16" height="16" viewBox="0 0 16 16" fill="none" xmlns="http://www.w3.org/2000/svg">
<path fill-rule="evenodd" clip-rule="evenodd" d="M4.41042 1.3335C2.71108 1.3335 1.3335 2.71108 1.3335 4.41042V11.5899C1.3335 13.2892 2.71108 14.6668 4.41042 14.6668H11.5899C13.2892 14.6668 14.6668 13.2892 14.6668 11.5899V4.41042C14.6668 2.71108 13.2892 1.3335 11.5899 1.3335H4.41042ZM12.0002 4.66683C12.3684 4.66683 12.6668 4.36835 12.6668 4.00016C12.6668 3.63197 12.3684 3.3335 12.0002 3.3335C11.632 3.3335 11.3335 3.63197 11.3335 4.00016C11.3335 4.36835 11.632 4.66683 12.0002 4.66683ZM11.3335 8.00016C11.3335 9.84111 9.84111 11.3335 8.00016 11.3335C6.15921 11.3335 4.66683 9.84111 4.66683 8.00016C4.66683 6.15921 6.15921 4.66683 8.00016 4.66683C9.84111 4.66683 11.3335 6.15921 11.3335 8.00016ZM8.00016 10.0002C9.10473 10.0002 10.0002 9.10473 10.0002 8.00016C10.0002 6.89559 9.10473 6.00016 8.00016 6.00016C6.89559 6.00016 6.00016 6.89559 6.00016 8.00016C6.00016 9.10473 6.89559 10.0002 8.00016 10.0002Z" fill="#8A949F"/>
</svg>
