<svg width="64" height="64" viewBox="0 0 64 64" fill="none" xmlns="http://www.w3.org/2000/svg">
<g clip-path="url(#clip0_2102_9814)">
<path d="M59.304 55.331L55.0592 47.9788C54.7142 47.381 53.9496 47.1761 53.3519 47.5213C52.7541 47.8665 52.5493 48.6308 52.8945 49.2286L55.8766 54.3938L50.5128 53.7034L47.9338 49.326C47.5835 48.7312 46.8172 48.5333 46.2225 48.8836C45.6278 49.234 45.4297 50.0002 45.78 50.5949L48.352 54.9604L46.2732 59.9382L39.2507 47.7748C41.1868 47.2741 42.9084 45.9885 43.9243 44.0739C44.6367 42.7313 45.9038 41.8107 47.4007 41.548C51.3505 40.8553 54.0045 37.2024 53.4428 33.2318C53.2299 31.7269 53.714 30.2373 54.7708 29.145C57.5588 26.2629 57.5588 21.7476 54.7708 18.8656C53.714 17.7733 53.2301 16.2838 53.4428 14.7788C54.0044 10.8084 51.3504 7.15553 47.4007 6.46261C45.9037 6.19989 44.6365 5.27937 43.9243 3.93677C42.0447 0.394674 37.7505 -1.00042 34.148 0.760383C32.7825 1.42806 31.2163 1.42806 29.8508 0.760383C26.2484 -1.00054 21.954 0.394675 20.0746 3.9369C19.3622 5.2795 18.0951 6.20002 16.5981 6.46274C12.6484 7.15566 9.99447 10.8086 10.556 14.7789C10.7689 16.2839 10.2848 17.7735 9.22806 18.8657C6.44 21.7479 6.44 26.2631 9.22806 29.1452C10.2848 30.2374 10.7688 31.727 10.556 33.232C10.1635 36.0074 11.3433 38.6261 13.4373 40.1887L4.69482 55.331C4.45722 55.7425 4.47347 56.2532 4.73694 56.6488C5.00041 57.0443 5.46498 57.257 5.93681 57.1955L13.4666 56.2262L16.3921 63.2318C16.5752 63.6704 16.9912 63.9671 17.4655 63.9975C17.4924 63.9992 17.5191 64.0001 17.5457 64.0001C17.9901 64.0001 18.4038 63.7634 18.6279 63.3752L27.5352 47.9472C28.3184 47.8453 29.0997 47.6178 29.8508 47.2506C31.2164 46.5831 32.7828 46.5832 34.1481 47.2506C34.8994 47.6178 35.6808 47.8458 36.4641 47.9477L45.3712 63.3752C45.5953 63.7634 46.009 64.0001 46.4533 64.0001C46.48 64.0001 46.5067 63.9992 46.5336 63.9975C47.0078 63.9671 47.4239 63.6704 47.607 63.2318L50.5325 56.2262L58.0623 57.1955C58.5336 57.2569 58.9985 57.0443 59.2621 56.6488C59.5252 56.2532 59.5416 55.7425 59.304 55.331ZM17.7256 59.9383L15.6373 54.9377L17.3244 51.8546C17.6557 51.249 17.4335 50.4895 16.8279 50.1583C16.2223 49.8267 15.4629 50.0493 15.1315 50.6549L13.4617 53.7068L8.12231 54.3939L15.6693 41.3223C15.9702 41.4154 16.2794 41.4925 16.5981 41.5484C18.0952 41.8111 19.3623 42.7316 20.0746 44.0742C21.0903 45.9886 22.8116 47.2751 24.7477 47.7759L17.7256 59.9383ZM28.753 45.0047C26.3685 46.1704 23.5266 45.247 22.2826 42.9026C21.2063 40.8741 19.2918 39.483 17.0298 39.0862C16.5787 39.0071 16.1539 38.8684 15.7604 38.6816C15.7579 38.6801 15.7557 38.6783 15.7532 38.677C15.7057 38.6496 15.657 38.6268 15.6077 38.6063C13.8119 37.6756 12.7317 35.6974 13.0309 33.5823C13.3525 31.3085 12.6212 29.0578 11.0245 27.4074C9.17919 25.4998 9.17919 22.5115 11.0245 20.604C12.6212 18.9536 13.3525 16.7028 13.0309 14.4291C12.6592 11.8014 14.4157 9.38366 17.0298 8.92508C19.2917 8.52825 21.2063 7.13716 22.2825 5.10864C23.1624 3.45033 24.8418 2.50306 26.5932 2.50306C27.3179 2.50306 28.0549 2.66529 28.7528 3.00638C30.8159 4.01476 33.1825 4.01476 35.2455 3.00638C37.6301 1.84051 40.4719 2.76416 41.7159 5.10877C42.7921 7.13716 44.7068 8.52813 46.9685 8.92496C49.5826 9.38353 51.3392 11.8013 50.9675 14.429C50.6459 16.7027 51.3772 18.9534 52.9739 20.6039C54.8191 22.5114 54.8191 25.4997 52.9739 27.4072C51.3772 29.0577 50.6459 31.3084 50.9675 33.5822C51.3392 36.21 49.5826 38.6277 46.9685 39.0862C44.7067 39.483 42.792 40.8741 41.7159 42.9026C40.472 45.2468 37.6301 46.1705 35.2454 45.0047C33.1827 43.9962 30.8162 43.9962 28.753 45.0047Z" fill="#0F90D1"/>
<path d="M50.5928 43.3894C50.3603 43.6231 50.2266 43.9456 50.2266 44.2743C50.2266 44.603 50.3603 44.9242 50.5928 45.1579C50.8252 45.3903 51.1477 45.5241 51.4764 45.5241C51.8064 45.5241 52.1276 45.3904 52.3601 45.1579C52.5938 44.9242 52.7263 44.603 52.7263 44.2743C52.7263 43.9456 52.5938 43.6231 52.3601 43.3894C52.1276 43.1569 51.8064 43.0244 51.4764 43.0244C51.1477 43.0244 50.8252 43.1569 50.5928 43.3894Z" fill="#0F90D1"/>
<path d="M48.7462 24.0059C48.7462 14.771 41.2331 7.25781 31.9981 7.25781C22.7631 7.25781 15.25 14.771 15.25 24.0059C15.25 33.2342 22.7525 40.7431 31.9785 40.7538C31.9806 40.7538 31.9827 40.754 31.985 40.754C31.9861 40.754 31.9871 40.7539 31.9882 40.7539C31.9915 40.7539 31.9949 40.754 31.9981 40.754C41.2331 40.754 48.7462 33.2409 48.7462 24.0059ZM17.7497 24.0059C17.7497 16.1494 24.1415 9.75753 31.9981 9.75753C39.8547 9.75753 46.2465 16.1494 46.2465 24.0059C46.2465 27.1614 45.2147 30.0801 43.4718 32.4437C43.0562 30.7057 41.6695 29.2907 39.8718 28.8976L36.203 28.0955C37.1976 27.0519 37.8103 25.6412 37.8103 24.0893V20.4081C38.2534 19.7548 38.5126 18.9671 38.5126 18.12V15.0995C38.5126 14.4094 37.9531 13.8497 37.2628 13.8497H31.1764C28.4246 13.8497 26.1859 16.0884 26.1859 18.8402V20.9568C26.1859 21.0074 26.1898 21.0569 26.1956 21.1059C26.1898 21.1549 26.1859 21.2045 26.1859 21.255V24.0893C26.1859 25.6394 26.7971 27.0486 27.7896 28.0917L24.1211 28.8965C22.3247 29.2907 20.939 30.7059 20.524 32.4433C18.7813 30.0797 17.7497 27.1612 17.7497 24.0059ZM34.4262 22.2066C34.7299 22.2066 35.0256 22.1722 35.3106 22.1091V24.0894C35.3106 25.9158 33.8246 27.4019 31.9981 27.4019C30.1716 27.4019 28.6856 25.9158 28.6856 24.0894V22.2066H34.4262ZM30.2399 29.629C30.7949 29.8055 31.3854 29.9015 31.9981 29.9015C32.6034 29.9015 33.1872 29.8083 33.7363 29.6358C33.895 29.8143 34.0787 29.9704 34.2841 30.0966L31.985 36.0399L29.686 30.097C29.8941 29.9691 30.0799 29.8105 30.2399 29.629ZM36.0129 18.12C36.0129 18.995 35.3011 19.7068 34.4262 19.7068H28.6856V18.8401C28.6856 17.4668 29.803 16.3493 31.1764 16.3493H36.0129V18.12ZM27.2645 30.766L30.1129 38.1294C27.3907 37.768 24.9089 36.6354 22.8949 34.9585V33.5285C22.8949 32.4833 23.6359 31.5622 24.6568 31.3382L27.2645 30.766ZM36.7061 30.7644L39.3379 31.3398C40.3597 31.5632 41.1013 32.4845 41.1013 33.5303V34.9584C39.0804 36.641 36.5886 37.7759 33.8555 38.1332L36.7061 30.7644Z" fill="#0F90D1"/>
</g>
<defs>
<clipPath id="clip0_2102_9814">
<rect width="64" height="64" fill="white"/>
</clipPath>
</defs>
</svg>
