<svg width="65" height="64" viewBox="0 0 65 64" fill="none" xmlns="http://www.w3.org/2000/svg">
<path d="M62.82 19.6912C62.6783 19.0142 62.0143 18.5796 61.3375 18.7221C60.6604 18.8638 60.2265 19.5276 60.3684 20.2046C62.4675 30.2257 60.2479 40.578 54.2793 48.7901C53.6699 48.5145 52.9946 48.3597 52.2835 48.3597C49.6033 48.3597 47.4226 50.5403 47.4226 53.2206C47.4226 54.0202 47.618 54.7746 47.9615 55.4407C43.3704 59.0412 37.8773 61.1138 32.0039 61.4497C26.2144 61.7815 20.3803 60.3153 15.4633 57.3141C15.5074 57.0843 15.5313 56.8473 15.5313 56.6048C15.5313 54.533 13.8456 52.8473 11.7739 52.8473C11.2165 52.8473 10.6875 52.9702 10.2114 53.189C10.1891 53.1668 10.1661 53.145 10.1439 53.1228C6.60239 49.5813 4.38039 45.0928 3.71839 40.1426C3.12701 35.7203 3.87251 31.1596 5.81851 27.1761C6.22914 27.2891 6.66076 27.3507 7.10676 27.3507C9.78701 27.3507 11.9675 25.1701 11.9675 22.4898C11.9675 21.6051 11.7288 20.7756 11.314 20.0601C14.5231 17.368 18.5393 15.9027 22.7601 15.9027C22.8334 15.9027 22.9073 15.9031 22.9806 15.9041C27.6653 15.9606 32.07 17.8168 35.3838 21.131C38.0335 23.7802 39.4929 27.3027 39.4929 31.0492C39.4929 34.7957 38.0336 38.3181 35.3835 40.9675C33.3115 43.0401 30.5566 44.1813 27.626 44.1813C24.6953 44.1813 21.9403 43.0401 19.8683 40.9673C19.4311 40.5303 19.047 40.0538 18.719 39.5438C19.5019 38.8547 19.9971 37.8465 19.9971 36.724C19.9971 35.1126 18.9774 33.7353 17.5495 33.2025C17.8859 31.5852 18.6879 30.0903 19.8683 28.9097C21.1091 27.6685 22.7591 26.9847 24.5143 26.9847C26.2694 26.9847 27.9196 27.6685 29.1611 28.91C30.1065 29.8552 30.627 31.1122 30.627 32.4493C30.627 33.7865 30.1065 35.0435 29.1611 35.9887C28.672 36.4778 28.672 37.271 29.1611 37.7601C29.4058 38.0046 29.7263 38.127 30.0468 38.127C30.3673 38.127 30.6878 38.0047 30.9324 37.7601C32.3509 36.3417 33.1319 34.4557 33.1319 32.4495C33.1319 30.4432 32.3508 28.5571 30.9324 27.1388C29.2178 25.4242 26.9384 24.48 24.5141 24.48C22.0896 24.48 19.8106 25.4243 18.0966 27.1388C16.453 28.7825 15.3764 30.898 15.0076 33.1751C13.5391 33.6862 12.482 35.0836 12.482 36.7241C12.482 38.796 14.1676 40.4816 16.2394 40.4816C16.278 40.4816 16.3161 40.4798 16.3545 40.4787C16.831 41.2992 17.4144 42.0567 18.0965 42.7388C20.6418 45.2846 24.0259 46.6866 27.6258 46.6866C31.1845 46.6936 34.5853 45.2862 37.1214 42.7767C46.9825 32.9156 46.9825 16.8703 37.1214 7.00933C36.6321 6.52033 35.8393 6.52033 35.35 7.00933C34.8609 7.49845 34.8609 8.29158 35.35 8.7807C40.6495 14.0801 42.787 21.362 41.7641 28.2613C41.1974 24.9058 39.6099 21.8148 37.1546 19.36C33.376 15.5807 28.3529 13.4638 23.0105 13.3995C22.9266 13.3985 22.8429 13.398 22.759 13.398C17.8716 13.398 13.2235 15.121 9.53614 18.2827C8.82076 17.868 7.99126 17.6292 7.10651 17.6292C4.42627 17.6292 2.24564 19.8097 2.24564 22.49C2.24564 23.82 2.78301 25.0265 3.65139 25.905C1.42751 30.37 0.57014 35.502 1.23514 40.4746C1.97076 45.9743 4.43864 50.9607 8.37201 54.894C8.38464 54.9066 8.39776 54.9191 8.41039 54.9317C8.15851 55.436 8.01589 56.004 8.01589 56.6048C8.01589 58.6767 9.70151 60.3622 11.7733 60.3622C12.6949 60.3622 13.5396 60.0281 14.194 59.4753C19.0386 62.4226 24.6969 64.0003 30.3939 64.0003C30.9774 64.0003 31.5626 63.9838 32.1463 63.9505C38.5953 63.5817 44.6228 61.2865 49.646 57.3006C50.4061 57.7936 51.3114 58.0812 52.2829 58.0812C54.9631 58.0812 57.1438 55.9007 57.1438 53.2205C57.1438 52.1598 56.8014 51.1783 56.2226 50.3783C62.6706 41.5761 65.0745 30.4538 62.82 19.6912ZM14.9871 36.7242C14.9871 36.0336 15.549 35.4717 16.2396 35.4717C16.9303 35.4717 17.4921 36.0336 17.4921 36.7242C17.4921 37.4148 16.9303 37.9767 16.2396 37.9767C15.549 37.9767 14.9871 37.4147 14.9871 36.7242ZM7.10676 20.1341C8.40576 20.1341 9.46251 21.1908 9.46251 22.4898C9.46251 23.789 8.40576 24.8457 7.10676 24.8457C5.80764 24.8457 4.75089 23.789 4.75089 22.4898C4.75089 21.1908 5.80764 20.1341 7.10676 20.1341ZM11.7738 57.8573C11.0831 57.8573 10.5213 57.2955 10.5213 56.6048C10.5213 55.9142 11.0831 55.3523 11.7738 55.3523C12.4644 55.3523 13.0263 55.9142 13.0263 56.6048C13.0263 57.2955 12.4644 57.8573 11.7738 57.8573ZM52.2834 55.5763C50.9843 55.5763 49.9275 54.5196 49.9275 53.2206C49.9275 51.9215 50.9843 50.8647 52.2834 50.8647C53.5825 50.8647 54.6393 51.9215 54.6393 53.2206C54.6393 54.5196 53.5825 55.5763 52.2834 55.5763Z" fill="#FFA336"/>
<path d="M56.5498 10.0118C56.7795 10.4214 57.205 10.6519 57.6434 10.6519C57.8509 10.6519 58.0612 10.6003 58.2549 10.4916C58.8583 10.1532 59.0732 9.39 58.7349 8.78662C57.012 5.714 54.8637 2.88112 52.3492 0.36675C51.8599 -0.12225 51.0668 -0.12225 50.5778 0.36675C50.0887 0.855875 50.0887 1.649 50.5778 2.13812C52.93 4.49012 54.9392 7.13925 56.5498 10.0118Z" fill="#FFA336"/>
<path d="M56.5929 26.3931C56.5929 24.3212 54.9072 22.6357 52.8355 22.6357C50.7637 22.6357 49.0781 24.3214 49.0781 26.3931C49.0781 28.4649 50.7637 30.1505 52.8355 30.1505C54.9072 30.1505 56.5929 28.465 56.5929 26.3931ZM51.5829 26.3931C51.5829 25.7025 52.1448 25.1406 52.8354 25.1406C53.526 25.1406 54.0879 25.7025 54.0879 26.3931C54.0879 27.0837 53.526 27.6456 52.8354 27.6456C52.1448 27.6456 51.5829 27.0837 51.5829 26.3931Z" fill="#FFA336"/>
<path d="M27.3633 53.796C27.3633 56.3524 29.4429 58.432 31.9993 58.432C34.5555 58.432 36.6352 56.3524 36.6352 53.796C36.6352 51.2398 34.5555 49.1602 31.9993 49.1602C29.4429 49.1602 27.3633 51.2398 27.3633 53.796ZM34.1302 53.796C34.1302 54.971 33.1743 55.927 31.9993 55.927C30.8243 55.927 29.8683 54.971 29.8683 53.796C29.8683 52.621 30.8243 51.6652 31.9993 51.6652C33.1743 51.665 34.1302 52.6209 34.1302 53.796Z" fill="#FFA336"/>
<path d="M16.35 10.918C18.8672 10.918 20.915 8.87021 20.915 6.35309C20.915 3.83596 18.8672 1.78809 16.35 1.78809C13.8329 1.78809 11.7852 3.83596 11.7852 6.35309C11.7852 8.87021 13.8329 10.918 16.35 10.918ZM16.35 4.29321C17.4859 4.29321 18.41 5.21734 18.41 6.35321C18.41 7.48896 17.4859 8.41309 16.35 8.41309C15.2143 8.41309 14.2902 7.48896 14.2902 6.35321C14.2902 5.21721 15.2143 4.29321 16.35 4.29321Z" fill="#FFA336"/>
<path d="M40.9283 55.0489C41.62 55.0489 42.1808 54.4882 42.1808 53.7964C42.1808 53.1047 41.62 52.5439 40.9283 52.5439C40.2365 52.5439 39.6758 53.1047 39.6758 53.7964C39.6758 54.4882 40.2365 55.0489 40.9283 55.0489Z" fill="#FFA336"/>
<path d="M50.0338 40.0568C50.7255 40.0568 51.2863 39.496 51.2863 38.8043C51.2863 38.1125 50.7255 37.5518 50.0338 37.5518C49.342 37.5518 48.7812 38.1125 48.7812 38.8043C48.7812 39.496 49.342 40.0568 50.0338 40.0568Z" fill="#FFA336"/>
<path d="M49.2564 16.9435C49.9481 16.9435 50.5089 16.3827 50.5089 15.691C50.5089 14.9992 49.9481 14.4385 49.2564 14.4385C48.5647 14.4385 48.0039 14.9992 48.0039 15.691C48.0039 16.3827 48.5647 16.9435 49.2564 16.9435Z" fill="#FFA336"/>
<path d="M60.0416 15.7882C60.7333 15.7882 61.2941 15.2274 61.2941 14.5357C61.2941 13.844 60.7333 13.2832 60.0416 13.2832C59.3498 13.2832 58.7891 13.844 58.7891 14.5357C58.7891 15.2274 59.3498 15.7882 60.0416 15.7882Z" fill="#FFA336"/>
<path d="M24.1197 10.6398C24.8114 10.6398 25.3722 10.079 25.3722 9.38727C25.3722 8.69553 24.8114 8.13477 24.1197 8.13477C23.428 8.13477 22.8672 8.69553 22.8672 9.38727C22.8672 10.079 23.428 10.6398 24.1197 10.6398Z" fill="#FFA336"/>
<path d="M24.2056 33.5773C24.8974 33.5773 25.4581 33.0165 25.4581 32.3248C25.4581 31.633 24.8974 31.0723 24.2056 31.0723C23.5139 31.0723 22.9531 31.633 22.9531 32.3248C22.9531 33.0165 23.5139 33.5773 24.2056 33.5773Z" fill="#FFA336"/>
<path d="M9.14703 46.7111C9.83877 46.7111 10.3995 46.1503 10.3995 45.4586C10.3995 44.7668 9.83877 44.2061 9.14703 44.2061C8.45529 44.2061 7.89453 44.7668 7.89453 45.4586C7.89453 46.1503 8.45529 46.7111 9.14703 46.7111Z" fill="#FFA336"/>
</svg>
