<svg width="65" height="64" viewBox="0 0 65 64" fill="none" xmlns="http://www.w3.org/2000/svg">
<g clip-path="url(#clip0_2102_9826)">
<path d="M61.418 37.9749C61.418 34.2979 59.6361 30.959 56.6757 28.9236C58.0196 27.2294 58.768 25.1169 58.768 22.9251C58.768 19.5429 56.9747 16.4089 54.1218 14.6734C54.219 14.182 54.268 13.6811 54.268 13.175C54.268 8.92925 50.8138 5.475 46.568 5.475C46.0387 5.475 45.5182 5.52762 45.0096 5.63237C44.4335 2.434 41.6297 0 38.268 0C35.9566 0 33.9091 1.1505 32.668 2.909C31.4268 1.1505 29.3793 0 27.068 0C23.7061 0 20.9021 2.43462 20.3262 5.63312C20.1083 5.58837 19.8882 5.55275 19.6662 5.527C18.9801 5.44712 18.3598 5.93825 18.28 6.624C18.2001 7.30963 18.6913 7.93025 19.377 8.01013C19.9151 8.07288 20.4372 8.219 20.9291 8.44425C20.9343 8.44675 20.9391 8.44975 20.9443 8.45225C21.9261 8.90475 22.7308 9.63863 23.2712 10.5747C23.5028 10.9757 23.923 11.2 24.355 11.2C24.567 11.2 24.782 11.1459 24.9788 11.0323C25.5767 10.6871 25.7816 9.92262 25.4365 9.32475C24.776 8.18087 23.8487 7.2415 22.7278 6.57137C22.872 4.30237 24.763 2.5 27.068 2.5C29.4666 2.5 31.418 4.45138 31.418 6.85V32.3669C29.3152 32.0964 27.3708 31.1478 25.8471 29.624C25.359 29.1361 24.5675 29.136 24.0793 29.624C23.5911 30.1121 23.5911 30.9036 24.0793 31.3919C26.0762 33.3887 28.646 34.6042 31.418 34.8857V55.425C31.418 58.7747 28.6927 61.5 25.343 61.5C23.033 61.5 20.9688 60.1865 19.9462 58.2142C20.6452 58.1831 21.3395 58.0774 22.0156 57.8961C22.6823 57.7174 23.0781 57.0319 22.8993 56.3651C22.7205 55.6982 22.0351 55.3022 21.3682 55.4814C20.3921 55.743 19.3575 55.7943 18.3621 55.631C18.3588 55.6305 18.3557 55.6304 18.3525 55.6299C14.9173 55.0675 12.4175 52.1525 12.3701 48.6753C13.2016 48.8735 14.0536 48.975 14.9178 48.975C15.8783 48.975 16.8362 48.8489 17.7647 48.6001C18.4316 48.4215 18.8273 47.7361 18.6487 47.0694C18.4701 46.4025 17.785 46.0065 17.1178 46.1854C16.4001 46.3775 15.66 46.475 14.9177 46.475C13.8208 46.475 12.749 46.2665 11.7318 45.8554C11.7235 45.852 11.7148 45.8498 11.7065 45.8466C8.49322 44.5343 6.41797 41.4478 6.41797 37.9749C6.41797 34.7079 8.23884 31.7862 11.1715 30.3436C11.1787 30.3403 11.1861 30.338 11.1933 30.3345C11.6813 30.0966 12.1942 29.9047 12.7178 29.7645C13.3847 29.5859 13.7805 28.9006 13.602 28.2337C13.4235 27.5669 12.7377 27.1707 12.0711 27.3498C11.6826 27.4539 11.2995 27.5821 10.9236 27.7286C9.73659 26.4195 9.06797 24.7076 9.06797 22.925C9.06797 20.5756 10.2363 18.388 12.1243 17.0639C12.7952 18.2095 13.7543 19.1715 14.9181 19.8433C15.115 19.9569 15.3298 20.011 15.542 20.011C15.974 20.011 16.3941 19.7867 16.6256 19.3857C16.9708 18.7879 16.766 18.0235 16.1681 17.6782C15.0905 17.056 14.2707 16.0666 13.8598 14.8923C13.8581 14.8871 13.8556 14.8825 13.8538 14.8774C13.7313 14.5236 13.6468 14.156 13.6035 13.7843C13.5235 13.0986 12.9025 12.6084 12.2171 12.6876C11.5313 12.7676 11.0403 13.3883 11.1203 14.0741C11.1438 14.2748 11.1752 14.4749 11.2145 14.6733C8.36147 16.4088 6.56797 19.5429 6.56797 22.925C6.56797 25.1167 7.31622 27.2294 8.66022 28.9235C5.69984 30.959 3.91797 34.2979 3.91797 37.9749C3.91797 42.1513 6.23647 45.8961 9.90172 47.7675C9.87922 48.0363 9.86797 48.3061 9.86797 48.5751C9.86797 50.8798 10.6936 53.1106 12.193 54.8573C13.4925 56.3709 15.226 57.4422 17.1398 57.9285C18.2262 61.4923 21.551 64 25.343 64C28.4413 64 31.161 62.3484 32.668 59.8792C34.175 62.3484 36.8947 64 39.993 64C43.7851 64 47.1098 61.4923 48.1961 57.9285C50.11 57.4421 51.8435 56.3709 53.143 54.8573C54.6423 53.1106 55.468 50.8798 55.468 48.5751C55.468 48.3061 55.4567 48.0363 55.4342 47.7675C59.0993 45.8961 61.418 42.1513 61.418 37.9749ZM53.604 45.8573C53.0523 46.0804 52.7346 46.6616 52.8443 47.2464C52.9263 47.6835 52.968 48.1305 52.968 48.575C52.968 52.0991 50.4477 55.0667 46.9756 55.6312C46.4608 55.7149 46.0522 56.1092 45.9502 56.6206C45.3865 59.448 42.8811 61.5 39.993 61.5C36.6432 61.5 33.918 58.7747 33.918 55.425V50.254H35.5316L36.7846 51.5071C36.1207 52.9007 36.3642 54.6223 37.5165 55.7745C38.2476 56.5056 39.2078 56.871 40.1681 56.871C41.1283 56.871 42.0887 56.5055 42.8197 55.7745C44.2818 54.3124 44.2818 51.9334 42.8197 50.4711C41.6675 49.3189 39.946 49.0754 38.5523 49.7393L36.9332 48.12C36.6988 47.8856 36.3808 47.7539 36.0493 47.7539H33.918V43.6994H38.0275C38.2077 44.2115 38.502 44.6921 38.9108 45.101C39.642 45.8321 40.6022 46.1975 41.5625 46.1975C42.5227 46.1975 43.4831 45.8319 44.2141 45.101C45.6761 43.6389 45.6761 41.2599 44.2141 39.7976C42.752 38.3356 40.3728 38.3356 38.9107 39.7976C38.5018 40.2065 38.2075 40.6871 38.0273 41.1994H33.918V34.9491H46.3015L47.5528 36.2006C47.3142 36.6993 47.188 37.2487 47.188 37.8179C47.188 38.8196 47.5781 39.7614 48.2863 40.4696C49.0175 41.2006 49.9777 41.566 50.938 41.566C51.8982 41.566 52.8586 41.2005 53.5897 40.4696C54.298 39.7612 54.688 38.8196 54.688 37.8179C54.688 36.8161 54.298 35.8745 53.5897 35.1662C52.4375 34.014 50.716 33.7706 49.3223 34.4344L47.7032 32.8151C47.4688 32.5807 47.1508 32.449 46.8193 32.449H33.918V28.5443H43.7656C44.0971 28.5443 44.4151 28.4125 44.6495 28.1781L46.267 26.5606C46.7656 26.7992 47.3152 26.9256 47.8843 26.9256C48.8861 26.9256 49.8277 26.5355 50.536 25.8272C51.2442 25.119 51.6343 24.1772 51.6343 23.1755C51.6343 22.1738 51.2442 21.2321 50.536 20.5239C49.8277 19.8156 48.886 19.4255 47.8843 19.4255C46.8827 19.4255 45.941 19.8156 45.2327 20.5239C44.5243 21.2321 44.1343 22.1738 44.1343 23.1755C44.1343 23.7446 44.2606 24.2943 44.4992 24.7929L43.2478 26.0444H33.918V20.2006H37.5781C37.9096 20.2006 38.2276 20.0689 38.462 19.8345L40.0795 18.2169C40.5781 18.4555 41.1276 18.5818 41.6967 18.5818C42.6985 18.5818 43.6401 18.1916 44.3483 17.4834C45.0567 16.7751 45.4467 15.8335 45.4467 14.8317C45.4467 13.83 45.0566 12.8883 44.3483 12.18C43.6401 11.4718 42.6983 11.0816 41.6967 11.0816C40.6951 11.0816 39.7533 11.4718 39.0451 12.18C38.3368 12.8883 37.9467 13.83 37.9467 14.8317C37.9467 15.4009 38.073 15.9505 38.3116 16.449L37.0602 17.7005H33.918V6.85C33.918 4.4515 35.8693 2.5 38.268 2.5C40.6666 2.5 42.618 4.45138 42.618 6.85V7.31612C42.618 7.74237 42.8352 8.13938 43.1943 8.36913C43.5532 8.59888 44.0047 8.62963 44.3918 8.451C45.0761 8.13525 45.8083 7.975 46.568 7.975C49.4352 7.975 51.768 10.3076 51.768 13.175C51.768 13.7638 51.6702 14.3418 51.4775 14.8929C51.2653 15.4994 51.5475 16.1679 52.13 16.4389C54.6437 17.6085 56.268 20.1546 56.268 22.9251C56.268 24.9674 55.3907 26.9171 53.8613 28.2744C53.5495 28.5513 53.3961 28.9653 53.4525 29.3785C53.509 29.7917 53.7677 30.1495 54.1425 30.3325C57.0881 31.7712 58.918 34.6997 58.918 37.975C58.918 41.4569 56.8321 44.5509 53.604 45.8573ZM40.1681 51.8734C40.4882 51.8734 40.8083 51.9954 41.052 52.239C41.5393 52.7262 41.5393 53.5194 41.052 54.0067C40.5647 54.494 39.7716 54.494 39.2842 54.0067C38.7968 53.5195 38.7968 52.7264 39.2842 52.239C39.528 51.9954 39.8481 51.8734 40.1681 51.8734ZM40.6786 41.5656C41.1661 41.0781 41.9591 41.0784 42.4465 41.5656C42.9338 42.0529 42.9338 42.846 42.4465 43.3334C41.9592 43.8207 41.166 43.8206 40.6787 43.3334C40.1913 42.8461 40.1913 42.053 40.6786 41.5656ZM50.0541 36.9344C50.2977 36.6906 50.6178 36.5687 50.938 36.5687C51.2581 36.5687 51.5782 36.6908 51.822 36.9344C52.058 37.1705 52.188 37.4843 52.188 37.8181C52.188 38.1521 52.058 38.466 51.822 38.702C51.3347 39.1891 50.5416 39.1894 50.0541 38.702C49.818 38.4659 49.688 38.1521 49.688 37.8181C49.688 37.4843 49.818 37.1704 50.0541 36.9344ZM47.0005 24.0597C46.7643 23.8236 46.6343 23.5099 46.6343 23.1759C46.6343 22.842 46.7643 22.5281 47.0005 22.2921C47.2366 22.056 47.5505 21.926 47.8843 21.926C48.2182 21.926 48.5321 22.056 48.7682 22.2921C49.0043 22.5283 49.1343 22.842 49.1343 23.1759C49.1343 23.5099 49.0043 23.8237 48.7682 24.0597C48.5321 24.2959 48.2183 24.4259 47.8843 24.4259C47.5505 24.4257 47.2366 24.2957 47.0005 24.0597ZM40.813 15.7159C40.8128 15.7159 40.8128 15.7159 40.813 15.7159C40.5768 15.4797 40.4468 15.166 40.4468 14.8321C40.4468 14.4981 40.5768 14.1842 40.813 13.9482C41.0491 13.7121 41.363 13.5821 41.6968 13.5821C42.0307 13.5821 42.3446 13.7121 42.5807 13.9482C42.8168 14.1844 42.9468 14.4981 42.9468 14.8321C42.9468 15.166 42.8168 15.4799 42.5807 15.7159C42.3446 15.952 42.0308 16.082 41.6968 16.082C41.363 16.0819 41.0491 15.9519 40.813 15.7159Z" fill="#FFD530"/>
<path d="M17.8673 28.2242C17.8673 29.9691 16.6901 31.503 15.0049 31.9547C14.3381 32.1335 13.9424 32.8189 14.121 33.4857C14.2706 34.0442 14.7756 34.4125 15.3276 34.4125C15.4346 34.4125 15.5436 34.3986 15.652 34.3695C18.4283 33.6255 20.3674 31.0985 20.3674 28.2242C20.3674 27.109 20.0726 26.009 19.515 25.0432C19.1698 24.4454 18.4054 24.2404 17.8075 24.5857C17.2096 24.931 17.0048 25.6954 17.35 26.2932C17.6883 26.8795 17.8673 27.5472 17.8673 28.2242Z" fill="#FFD530"/>
<path d="M24.3173 49.5105C24.4258 49.5395 24.5346 49.5535 24.6418 49.5535C25.1935 49.5535 25.6986 49.1853 25.8483 48.6269C25.9921 48.0903 26.0651 47.5362 26.0651 46.9802C26.0651 43.4722 23.2111 40.6182 19.7031 40.6182C19.0128 40.6182 18.4531 41.1779 18.4531 41.8682C18.4531 42.5584 19.0128 43.1182 19.7031 43.1182C21.8326 43.1182 23.5651 44.8507 23.5651 46.9802C23.5651 47.3177 23.5209 47.6539 23.4335 47.9794C23.2549 48.6463 23.6505 49.3317 24.3173 49.5105Z" fill="#FFD530"/>
<path d="M29.1017 16.5587C29.5898 16.0704 29.5898 15.2791 29.1017 14.7908C28.6135 14.3028 27.822 14.3028 27.3339 14.7908C26.6045 15.5203 25.6347 15.9221 24.603 15.9221C23.5714 15.9221 22.6017 15.5203 21.8722 14.7908C21.3842 14.3029 20.5925 14.3029 20.1044 14.7908C19.6163 15.2789 19.6162 16.0703 20.1044 16.5587C21.306 17.7603 22.9037 18.4221 24.603 18.4221C26.3024 18.4221 27.9 17.7603 29.1017 16.5587Z" fill="#FFD530"/>
<path d="M14.2074 9.86426C14.8978 9.86426 15.4574 9.30451 15.4574 8.61426C15.4574 7.92401 14.8978 7.36426 14.2074 7.36426H14.2065C13.5162 7.36426 12.957 7.92401 12.957 8.61426C12.957 9.30451 13.517 9.86426 14.2074 9.86426Z" fill="#FFD530"/>
</g>
<defs>
<clipPath id="clip0_2102_9826">
<rect width="64" height="64" fill="white" transform="translate(0.667969)"/>
</clipPath>
</defs>
</svg>
