<svg width="64" height="64" viewBox="0 0 64 64" fill="none" xmlns="http://www.w3.org/2000/svg">
<g clip-path="url(#clip0_2102_9761)">
<path d="M31.6189 63.9667C32.3086 63.9432 32.8486 63.3651 32.8252 62.6755C32.8017 61.9858 32.2236 61.4457 31.5339 61.4692C30.8442 61.4927 30.3042 62.0708 30.3277 62.7605C30.3511 63.4501 30.9292 63.9902 31.6189 63.9667Z" fill="#FF4A35"/>
<path d="M39.3067 9.66309C38.6132 9.66309 38.0509 10.2253 38.0508 10.9188C38.0507 11.6123 38.6129 12.1746 39.3065 12.1747C40 12.1747 40.5624 11.6125 40.5624 10.919C40.5624 10.2253 40.0003 9.66309 39.3067 9.66309Z" fill="#FF4A35"/>
<path d="M19.9209 4.99717C20.5527 4.71143 20.8333 3.96762 20.5475 3.33581C20.2618 2.70401 19.518 2.42346 18.8862 2.70919C18.2544 2.99493 17.9738 3.73874 18.2596 4.37055C18.5453 5.00236 19.2891 5.2829 19.9209 4.99717Z" fill="#FF4A35"/>
<path d="M38.7561 42.5034C39.2421 42.1894 39.7088 41.8425 40.1528 41.4637C42.2321 39.6896 43.7061 37.3148 44.3742 34.692H44.5292C46.6283 34.692 48.3362 32.9841 48.3362 30.885C48.3362 28.7859 46.6283 27.0781 44.5292 27.0781H18.6379C16.5388 27.0781 14.8311 28.7859 14.8311 30.885C14.8311 32.9841 16.5388 34.692 18.6379 34.692H18.8403C19.5084 37.3148 20.9824 39.6896 23.0617 41.4637C23.5006 41.8382 23.9621 42.1811 24.4421 42.4922C21.2816 43.1745 18.3783 44.7479 16.0374 47.0885C12.8244 50.3013 11.0549 54.573 11.0548 59.1166L11.0547 62.7467C11.0547 63.079 11.1867 63.3975 11.4216 63.6324C11.6564 63.8672 11.9751 63.9992 12.3072 63.9992L25.9543 63.9996C26.6461 63.9996 27.2068 63.4389 27.2068 62.7471C27.2068 62.0554 26.6461 61.4945 25.9543 61.4945L22.4129 61.4944L22.4132 56.3423C22.4132 55.6505 21.8524 55.0896 21.1607 55.0896C20.4689 55.0896 19.9082 55.6504 19.9082 56.3421L19.9079 61.4944L13.5597 61.4941L13.5598 59.1165C13.5599 55.2419 15.0688 51.5994 17.8087 48.8597C19.7806 46.888 22.2203 45.5539 24.8774 44.961C25.7873 47.8841 28.4767 49.8857 31.5841 49.8859H31.5842C34.6898 49.8859 37.3784 47.8861 38.2898 44.9654C44.7599 46.422 49.6079 52.214 49.6077 59.1176L49.6076 61.4951L43.2593 61.4949L43.2594 56.3426C43.2594 55.6509 42.6987 55.0901 42.0069 55.0901C41.3152 55.0901 40.7544 55.651 40.7544 56.3426L40.7543 61.4948L37.2128 61.4946C36.5211 61.4946 35.9603 62.0554 35.9603 62.7471C35.9603 63.4389 36.5211 63.9997 37.2128 63.9997L50.8599 64.0005C51.5517 64.0005 52.1124 63.4398 52.1124 62.748L52.1126 59.118C52.1128 50.9923 46.3856 44.18 38.7561 42.5034ZM21.0896 33.2306C20.9877 32.628 20.4658 32.1869 19.8546 32.1869H18.6379C17.9201 32.1869 17.3361 31.6029 17.3361 30.8849C17.3361 30.167 17.9201 29.583 18.6379 29.583H44.5291C45.2471 29.583 45.8311 30.167 45.8311 30.8849C45.8311 31.6027 45.2471 32.1869 44.5291 32.1869H43.3598C42.7486 32.1869 42.2267 32.628 42.1248 33.2306C41.2556 38.3738 36.8323 42.1068 31.6072 42.1068C26.3821 42.1068 21.9589 38.3739 21.0896 33.2306ZM31.5839 47.3811C29.7339 47.381 28.1138 46.2797 27.4179 44.6265C27.6332 44.6171 35.5354 44.6176 35.7502 44.6271C35.0541 46.2801 33.4339 47.3811 31.5839 47.3811Z" fill="#FF4A35"/>
<path d="M28.6224 14.0125C28.8573 14.2474 29.1759 14.3794 29.508 14.3794C29.8401 14.3794 30.1588 14.2474 30.3936 14.0125L34.5145 9.8918C35.3015 9.10492 35.735 8.05867 35.735 6.9458C35.735 5.83292 35.3016 4.78667 34.5148 3.99967C33.7279 3.21267 32.6816 2.7793 31.5686 2.7793H31.5685C30.8338 2.7793 30.1281 2.96817 29.5069 3.32305C27.9173 2.41992 25.8556 2.64555 24.5018 3.99942C23.7148 4.7863 23.2812 5.83255 23.2812 6.94542C23.2812 8.0583 23.7146 9.10455 24.5015 9.89155L28.6224 14.0125ZM26.2731 5.7708C26.5971 5.44692 27.0225 5.28505 27.448 5.28505C27.8735 5.28505 28.299 5.44705 28.6229 5.77092C28.8578 6.0058 29.1764 6.1378 29.5085 6.1378C29.8406 6.1378 30.1592 6.0058 30.3941 5.77092C30.7079 5.45717 31.1251 5.2843 31.5689 5.2843C32.0126 5.2843 32.4299 5.45717 32.7436 5.77092C33.0574 6.08467 33.2303 6.50205 33.2303 6.9458C33.2303 7.38955 33.0574 7.80667 32.7435 8.12055L29.5083 11.3557L26.2731 8.12042C25.9594 7.80667 25.7865 7.3893 25.7865 6.94555C25.7865 6.5018 25.9594 6.08455 26.2731 5.7708Z" fill="#FF4A35"/>
<path d="M22.565 21.0147H22.8631V21.313C22.8631 22.0047 23.4239 22.5656 24.1156 22.5656C24.8074 22.5656 25.3681 22.0049 25.3681 21.3131V21.0149H25.6664C26.3581 21.0149 26.9189 20.4541 26.9189 19.7624C26.9189 19.0706 26.3581 18.5099 25.6664 18.5099H25.3681V18.2116C25.3681 17.5199 24.8074 16.959 24.1156 16.959C23.4239 16.959 22.8631 17.5197 22.8631 18.2115V18.5097H22.565C21.8733 18.5097 21.3125 19.0706 21.3125 19.7622C21.3125 20.4539 21.8731 21.0147 22.565 21.0147Z" fill="#FF4A35"/>
<path d="M38.9047 4.01225H39.2041V4.35413C39.2041 5.04588 39.7648 5.60675 40.4566 5.60675C41.1483 5.60675 41.7091 5.046 41.7091 4.35425V4.01225H42.0085C42.7002 4.01225 43.261 3.4515 43.261 2.75975C43.261 2.068 42.7002 1.50713 42.0085 1.50713H41.7092V1.25262C41.7092 0.560875 41.1485 0 40.4567 0C39.765 0 39.2042 0.56075 39.2042 1.2525V1.507H38.9048C38.2131 1.507 37.6523 2.06775 37.6523 2.7595C37.6522 3.4515 38.213 4.01225 38.9047 4.01225Z" fill="#FF4A35"/>
<path d="M34.4877 15.3346L30.945 18.8771C30.4558 19.3663 30.4558 20.1593 30.945 20.6484L34.4875 24.1911C34.7223 24.426 35.041 24.558 35.3731 24.558C35.7052 24.558 36.0238 24.426 36.2587 24.1911L39.8015 20.6486C40.2906 20.1595 40.2906 19.3665 39.8015 18.8774L36.259 15.3346C36.0241 15.0998 35.7055 14.9678 35.3733 14.9678C35.0412 14.9679 34.7227 15.0999 34.4877 15.3346ZM37.1447 19.763L35.3732 21.5343L33.602 19.7629L35.3735 17.9916L37.1447 19.763Z" fill="#FF4A35"/>
<path d="M16.3661 23.1087C16.5385 23.6371 17.0291 23.9731 17.5566 23.9731C17.6845 23.9731 17.8145 23.9533 17.9426 23.9118C18.6006 23.6988 18.9615 22.9926 18.7483 22.3345C18.658 22.0552 16.4633 15.4773 10.2792 13.8677C9.61058 13.6938 8.92608 14.095 8.75158 14.7643C8.57746 15.4337 8.97883 16.1177 9.64833 16.292C14.487 17.5513 16.3478 23.0533 16.3661 23.1087Z" fill="#FF4A35"/>
<path d="M14.8456 10.8447C16.8348 11.5436 18.1241 13.675 18.1443 13.7089C18.3778 14.1049 18.7954 14.3254 19.2244 14.3254C19.4394 14.3254 19.6573 14.27 19.8563 14.1534C20.4532 13.8037 20.6536 13.0365 20.3039 12.4395C20.2336 12.3196 18.5504 9.49111 15.6758 8.48123C15.0231 8.25211 14.3083 8.59523 14.0789 9.24773C13.8497 9.90048 14.1929 10.6155 14.8456 10.8447Z" fill="#FF4A35"/>
<path d="M55.2494 14.7644C55.0751 14.095 54.3907 13.6938 53.7217 13.8678C47.5376 15.4774 45.3431 22.0553 45.2526 22.3345C45.0399 22.9915 45.3996 23.6954 46.0561 23.9096C46.1849 23.9516 46.3155 23.9716 46.4441 23.9716C46.971 23.9716 47.4615 23.6361 47.635 23.1089C47.6532 23.0535 49.5141 17.5515 54.3526 16.2921C55.0221 16.1178 55.4235 15.4338 55.2494 14.7644Z" fill="#FF4A35"/>
<path d="M44.1443 14.1497C44.3437 14.2673 44.5625 14.3232 44.7785 14.3232C45.2067 14.3232 45.6242 14.1034 45.8586 13.709C45.8713 13.6874 47.1623 11.5455 49.1575 10.8447C49.8101 10.6154 50.1533 9.90041 49.924 9.24778C49.6947 8.59528 48.9801 8.25203 48.3271 8.48128C45.4525 9.49116 43.7692 12.3195 43.699 12.4395C43.3502 13.035 43.55 13.7989 44.1443 14.1497Z" fill="#FF4A35"/>
<path d="M27.1939 32.5841C27.8856 32.5841 28.4464 32.0233 28.4464 31.3316C28.4464 30.6399 27.8856 30.0791 27.1939 30.0791C26.5022 30.0791 25.9414 30.6399 25.9414 31.3316C25.9414 32.0233 26.5022 32.5841 27.1939 32.5841Z" fill="#FF4A35"/>
<path d="M35.733 32.5841C36.4247 32.5841 36.9855 32.0233 36.9855 31.3316C36.9855 30.6399 36.4247 30.0791 35.733 30.0791C35.0412 30.0791 34.4805 30.6399 34.4805 31.3316C34.4805 32.0233 35.0412 32.5841 35.733 32.5841Z" fill="#FF4A35"/>
<path d="M35.7873 36.529C35.2981 36.0398 34.5052 36.0398 34.0159 36.529C32.6076 37.9373 30.316 37.9372 28.9078 36.529C28.4185 36.0398 27.6256 36.0398 27.1364 36.529C26.6472 37.0181 26.6472 37.8112 27.1364 38.3003C28.3291 39.493 29.8951 40.089 31.4618 40.089C33.028 40.089 34.5948 39.4926 35.7871 38.3003C36.2764 37.8111 36.2764 37.0181 35.7873 36.529Z" fill="#FF4A35"/>
</g>
<defs>
<clipPath id="clip0_2102_9761">
<rect width="64" height="64" fill="white"/>
</clipPath>
</defs>
</svg>
