<svg width="65" height="64" viewBox="0 0 65 64" fill="none" xmlns="http://www.w3.org/2000/svg">
<g clip-path="url(#clip0_2102_9840)">
<path d="M58.6998 9.02024C58.5924 8.57509 58.2502 8.22432 57.808 8.10594C56.0941 7.64679 54.3159 7.70492 52.6625 8.2537C53.5776 7.67316 54.2862 6.76199 54.5881 5.63529C54.8977 4.48035 54.7388 3.27403 54.141 2.2386C53.5432 1.20316 52.578 0.462366 51.423 0.152973C49.0388 -0.485689 46.5797 0.934144 45.9408 3.31816C45.6387 4.44535 45.7975 5.58892 46.3 6.54935C45.1425 5.24702 43.6311 4.30709 41.9169 3.84781C41.4746 3.72906 41.003 3.86207 40.6876 4.19384C40.3721 4.5256 40.2631 5.00338 40.4037 5.43903C41.4201 8.58984 41.6048 11.9228 40.9551 15.1502L40.5116 15.0313C39.8445 14.8527 39.1594 15.2485 38.9806 15.9153C38.811 16.5482 39.1594 17.1971 39.7654 17.4144L38.3554 22.6765C36.8653 28.2374 32.5132 32.7158 26.9971 34.364C26.5814 34.4882 26.2599 34.8191 26.1476 35.2382L25.201 38.7706C24.9128 38.0859 24.6685 37.3794 24.4741 36.6539L23.0682 31.4066L23.5873 31.2674C24.2541 31.0888 24.6499 30.4032 24.4712 29.7363C24.2925 29.0695 23.6074 28.6734 22.9402 28.8524L22.2422 29.0394L22.153 23.2083C22.1365 22.1304 21.6336 21.1396 20.7733 20.4899C20.0466 19.9411 19.1557 19.7056 18.269 19.8135C18.2964 19.7497 18.3265 19.6867 18.3618 19.6256C18.5958 19.2202 18.9738 18.9302 19.426 18.8091C19.7462 18.7233 20.0192 18.5138 20.185 18.2267C20.3508 17.9395 20.3958 17.5984 20.3099 17.2781L19.0154 12.4471C18.9296 12.1268 18.72 11.8538 18.4329 11.688C18.1459 11.5223 17.8049 11.4774 17.4843 11.5631C17.0319 11.6844 16.5598 11.622 16.1545 11.3881C15.749 11.154 15.4591 10.7761 15.3378 10.3238C15.252 10.0036 15.0426 9.73053 14.7554 9.56477C14.4684 9.39902 14.1274 9.35414 13.8069 9.43989L8.97584 10.7343C8.65557 10.8202 8.38256 11.0296 8.2168 11.3168C8.05104 11.6039 8.00603 11.945 8.09191 12.2653C8.21305 12.7175 8.15092 13.1899 7.91678 13.5953C7.68276 14.0007 7.30474 14.2907 6.85259 14.4118C6.1858 14.5904 5.79003 15.276 5.96866 15.9429L7.26311 20.7739C7.44188 21.4407 8.12729 21.8366 8.79408 21.6579C9.33136 21.514 9.87777 21.6381 10.293 21.9466C9.45912 22.294 8.79558 22.9483 8.43693 23.7956C8.01678 24.7884 8.07679 25.8979 8.60132 26.8395L11.4396 31.9341L10.7417 32.1211C10.0749 32.2997 9.67913 32.9853 9.85777 33.6522C10.0074 34.2107 10.5124 34.579 11.0645 34.579C11.1715 34.579 11.2805 34.5651 11.3889 34.5361L11.908 34.397L13.3141 39.6443C14.8017 45.1962 13.2741 51.2408 9.32761 55.4195C9.02972 55.7349 8.91659 56.1823 9.02897 56.6013L10.7632 63.0734C10.8491 63.3937 11.0585 63.6667 11.3456 63.8325C11.5374 63.9431 11.7531 64 11.9706 64C12.079 64 12.1878 63.9858 12.2942 63.9573L37.5139 57.1997C37.8343 57.1138 38.1072 56.9044 38.2729 56.6173C38.4387 56.3301 38.4837 55.989 38.3978 55.6687L36.6636 49.1966C36.5513 48.7775 36.2297 48.4466 35.814 48.3224C33.1829 47.5363 30.8181 46.1038 28.9023 44.2179L33.4477 45.4359C34.1151 45.6148 34.8 45.2187 34.9786 44.552C35.1574 43.885 34.7616 43.1996 34.0947 43.0209L27.1493 41.1599L28.2391 37.0929L53.031 43.7359L51.9414 47.8029L44.9673 45.9343C44.3 45.7556 43.6151 46.1514 43.4364 46.8182C43.2576 47.4851 43.6534 48.1705 44.3203 48.3493L52.5018 50.5416C52.6083 50.5701 52.7169 50.5842 52.8253 50.5842C53.0428 50.5842 53.2587 50.5273 53.4503 50.4167C53.7375 50.2509 53.947 49.9779 54.0327 49.6576L55.7696 43.1756C55.8818 42.7565 55.7688 42.3092 55.4709 41.9937C51.518 37.8082 49.9879 31.7537 51.478 26.193L52.8883 20.9292C52.9627 20.9427 53.0369 20.9518 53.1104 20.9518C53.6623 20.9518 54.1675 20.5834 54.3171 20.025C54.4959 19.3581 54.1001 18.6727 53.4332 18.4939L52.9897 18.375C54.041 15.2546 55.8673 12.4608 58.3229 10.2407C58.6625 9.93355 58.8071 9.46527 58.6998 9.02024ZM48.3556 3.9652C48.592 3.08327 49.3925 2.50024 50.2649 2.50024C50.4338 2.50024 50.6053 2.52211 50.7759 2.56786C51.2857 2.7045 51.7118 3.03139 51.9759 3.48854C52.2399 3.9457 52.3099 4.47823 52.1732 4.98801C51.8911 6.04044 50.8055 6.66698 49.753 6.38534C48.7005 6.10345 48.0736 5.01763 48.3556 3.9652ZM8.6587 16.3222C9.84752 15.5758 10.5973 14.2771 10.6493 12.8742L13.4259 12.1303C13.7899 12.7125 14.293 13.2002 14.9044 13.5533C15.5158 13.9062 16.1899 14.098 16.8759 14.1222L17.6195 16.8971C17.0373 17.261 16.5495 17.7643 16.1965 18.3757C15.8435 18.9871 15.6517 19.6611 15.6275 20.3472L12.8509 21.0911C12.1045 19.9023 10.8058 19.1525 9.40299 19.1005L8.6587 16.3222ZM10.7856 25.6227C10.6386 25.3588 10.6218 25.0481 10.7394 24.7699C10.8571 24.4918 11.092 24.2874 11.3836 24.2093L18.4283 22.3216C18.72 22.2438 19.0254 22.303 19.2664 22.485C19.5075 22.667 19.6483 22.9446 19.653 23.2466L19.7518 29.7067L13.9299 31.2667L10.7856 25.6227ZM15.7291 38.9971L14.323 33.7498L20.6532 32.0537L22.0592 37.3012C22.9049 40.4571 24.5554 43.3636 26.8325 45.7066C28.2202 47.1346 29.8247 48.334 31.574 49.2662L13.4714 54.1168C14.5203 52.4347 15.3102 50.5936 15.798 48.6633C16.5985 45.4956 16.5747 42.1531 15.7291 38.9971ZM12.8547 61.2188L11.7675 57.1616L34.5722 51.0511L35.6594 55.1083L12.8547 61.2188ZM51.3265 40.6907L31.238 35.308C32.9916 34.3741 34.6 33.1722 35.9907 31.7412C38.2709 29.3948 39.9238 26.4841 40.7706 23.3238L42.1793 18.0668L50.4718 20.2888L49.0631 25.5458C48.2163 28.7061 48.1923 32.0533 48.9939 35.2255C49.4828 37.16 50.2748 39.0051 51.3265 40.6907ZM50.5685 17.7263L43.3766 15.7991C43.9623 12.9956 43.9881 10.1192 43.4579 7.31764C44.132 7.8178 44.7082 8.45008 45.1526 9.189C45.4994 9.76541 46.2398 9.96417 46.8288 9.63853C47.5266 9.25263 48.2984 8.99562 49.0832 8.88561C49.7079 9.37326 50.2476 9.98167 50.6592 10.665C51.0062 11.2412 51.747 11.4394 52.3355 11.1136C53.0898 10.696 53.905 10.4365 54.7388 10.3403C52.8794 12.5008 51.4638 15.0043 50.5685 17.7263Z" fill="#313552"/>
<path d="M39.2084 44.4355C38.8783 44.4355 38.5558 44.5693 38.3233 44.8018C38.0909 45.0343 37.957 45.3569 37.957 45.6856C37.957 46.0144 38.0908 46.3369 38.3233 46.5694C38.5558 46.8019 38.8783 46.9357 39.2084 46.9357C39.5371 46.9357 39.8584 46.8019 40.0922 46.5694C40.3247 46.3369 40.4584 46.0144 40.4584 45.6856C40.4584 45.3569 40.3248 45.0343 40.0922 44.8018C39.8585 44.5693 39.5371 44.4355 39.2084 44.4355Z" fill="#313552"/>
</g>
<defs>
<clipPath id="clip0_2102_9840">
<rect width="64" height="64" fill="white" transform="translate(0.332031)"/>
</clipPath>
</defs>
</svg>
