<svg width="65" height="64" viewBox="0 0 65 64" fill="none" xmlns="http://www.w3.org/2000/svg">
<g clip-path="url(#clip0_2102_9784)">
<path d="M63.5661 38.0523C62.1456 36.6349 59.8971 36.6065 58.4327 37.9815L56.1378 39.9742L58.7775 34.2638C59.2047 33.3219 59.2335 32.273 58.8595 31.3111C58.4899 30.3619 57.7736 29.6207 56.8429 29.2242C55.108 28.4849 53.088 29.172 52.1407 30.8253L49.0006 36.3487L49.7286 27.2633C49.7296 27.2535 49.7301 27.2437 49.7306 27.234C49.8356 25.3795 48.5509 23.7286 46.7428 23.3941C45.776 23.2149 44.7975 23.4283 43.9879 23.9942C43.1861 24.5548 42.6451 25.3951 42.4644 26.3614L40.6588 35.5406L38.4913 28.2598C39.9049 26.5655 41.3297 24.858 42.1866 23.8331C43.0562 22.793 42.9976 21.2735 42.0504 20.2984C40.1651 18.357 37.1549 18.0005 34.8926 19.4507L31.6856 21.5064C32.2798 17.9595 33.2984 11.8755 33.8712 8.46927C34.2174 6.41213 32.9664 4.44094 30.9625 3.88429L30.899 3.86672C29.8931 3.58791 28.8399 3.71828 27.9336 4.23537C27.0201 4.75686 26.3653 5.60744 26.0899 6.63088L24.5289 12.4366L22.4712 3.30519C22.2637 2.34425 21.7002 1.51905 20.8833 0.980967C20.0581 0.437021 19.0738 0.250985 18.1128 0.456552C16.3145 0.840342 15.0757 2.52589 15.231 4.37648C15.232 4.38625 15.2329 4.39601 15.2339 4.40578L16.211 13.4678L12.919 8.02932C11.9282 6.40627 9.89014 5.77492 8.17627 6.56106C7.25684 6.98293 6.56103 7.74368 6.21777 8.70267C5.87012 9.67484 5.92773 10.7222 6.38477 11.6607L9.17628 17.2881L6.82764 15.3589C5.32568 14.0245 3.0786 14.1148 1.69823 15.5704C0.372055 16.9683 0.320297 19.1329 1.57714 20.6045C1.58886 20.6182 1.60057 20.6314 1.61278 20.6441L7.51514 26.9874C7.90235 27.4796 8.2793 28.0045 8.63672 28.5479C9.01563 29.1246 9.79053 29.2852 10.3677 28.9058C10.9443 28.5269 11.1045 27.752 10.7256 27.1754C10.3189 26.5562 9.88819 25.9586 9.44532 25.3985C9.42481 25.3721 9.40284 25.3467 9.38038 25.3223L3.46386 18.9644C3.06151 18.4756 3.08056 17.7452 3.51171 17.2906C3.95849 16.8199 4.68945 16.7955 5.17578 17.2354C5.19043 17.2481 5.20556 17.2613 5.22021 17.2735L10.8018 21.8575C11.3921 22.3423 12.2217 22.3497 12.8194 21.8751C13.4199 21.3975 13.6006 20.5826 13.2588 19.8936L8.62793 10.5581C8.47217 10.2378 8.45215 9.87845 8.57129 9.54544C8.68604 9.22513 8.91602 8.97171 9.21924 8.83304C9.78077 8.57474 10.4541 8.78909 10.7827 9.32718L16.064 18.0508C16.4644 18.7071 17.2534 18.9996 17.982 18.7618C18.7119 18.523 19.1763 17.8204 19.1118 17.0523C19.1109 17.0425 19.1099 17.0328 19.1089 17.023L17.7212 4.1548C17.6768 3.55959 18.0679 3.0215 18.6353 2.90041C18.9366 2.83644 19.2466 2.89552 19.5078 3.06789C19.7754 3.24416 19.9605 3.51662 20.0284 3.83449C20.0293 3.83937 20.0303 3.84377 20.0313 3.84816L22.8453 16.337C23.0083 17.0835 23.6529 17.6182 24.4146 17.6382C25.1797 17.6578 25.8477 17.1568 26.0464 16.4185L28.504 7.27981C28.605 6.9053 28.8423 6.59475 29.1729 6.40627C29.4957 6.22219 29.8711 6.17532 30.23 6.27541L30.2935 6.29299C31.0611 6.50588 31.5396 7.2637 31.4063 8.05471C30.7105 12.1939 29.356 20.2847 28.9053 22.9771C28.7969 23.6231 29.0796 24.2735 29.6255 24.6334C30.168 24.9918 30.8726 24.9967 31.4195 24.6461L36.2418 21.5552C37.5284 20.7305 39.1793 20.9297 40.2574 22.0396C40.3077 22.0919 40.3131 22.1768 40.2691 22.2296C39.3243 23.3599 37.6885 25.3199 36.1392 27.1773C36.1378 27.1788 36.1368 27.1807 36.1353 27.1822C35.4737 27.9757 34.8277 28.7501 34.2584 29.4327C33.3262 30.5514 32.4942 31.7515 31.7671 33.0152C31.7549 33.0362 31.7427 33.0567 31.732 33.0777C31.377 33.6988 31.0455 34.3336 30.7437 34.984C30.0811 36.4132 28.7037 37.3541 27.1495 37.4391C27.1167 37.441 27.084 37.4439 27.0518 37.4483L19.9888 38.3951C17.8677 38.6793 15.7534 37.67 14.6035 35.8233C14.2388 35.2374 13.4683 35.0582 12.8823 35.4229C12.2964 35.7877 12.1167 36.5587 12.4815 37.1441C13.9624 39.5221 16.5518 40.9425 19.2783 40.9425C19.6241 40.9425 19.9727 40.9195 20.3213 40.8727L27.3379 39.9317C29.315 39.8082 31.1055 38.8204 32.275 37.2657C32.7803 39.8453 33.3653 42.8321 33.7525 44.8087L30.4903 42.8414C28.189 41.4542 25.19 41.8932 23.3584 43.8854C22.4385 44.8863 22.4214 46.4069 23.3194 47.4225C24.712 48.9982 27.5586 52.2272 29.5225 54.4552C30.8296 55.9381 31.941 57.5919 32.8257 59.3693C33.9327 61.5929 36.1436 63.0216 38.6041 63.1081L45.6441 63.8556C45.9254 63.8854 46.2042 63.9001 46.482 63.9001C49.9835 63.9001 53.1344 61.571 54.1612 58.1085C54.1686 58.0841 54.1749 58.0592 54.1808 58.0338C54.8868 54.9689 56.1935 52.1403 58.0641 49.6251L63.7902 43.1222C63.8019 43.109 63.8136 43.0953 63.8244 43.0817C65.0412 41.5753 64.9298 39.4132 63.5661 38.0523ZM61.8942 41.4938L56.1544 48.0114C56.1324 48.0363 56.1114 48.0626 56.0914 48.0895C54.004 50.8829 52.545 54.0265 51.7545 57.4328C50.9772 59.9938 48.5235 61.6466 45.9083 61.3698L38.8219 60.6173C38.7896 60.6139 38.7569 60.6115 38.7242 60.6105C37.168 60.568 35.7657 59.6657 35.0635 58.2555C34.0821 56.2833 32.8487 54.4489 31.398 52.8024C29.4332 50.5734 26.5855 47.3434 25.1924 45.7672C25.1465 45.7154 25.1495 45.6305 25.1988 45.5768C26.229 44.4562 27.9117 44.2057 29.1993 44.982L34.1046 47.9401C34.6612 48.2755 35.3648 48.2511 35.8975 47.8785C36.4332 47.5035 36.6983 46.8458 36.5723 46.2028C36.2667 44.6407 34.8799 37.5611 34.1583 33.8795C34.7589 32.8805 35.4327 31.9278 36.1788 31.0333C36.3052 30.8814 36.4361 30.7247 36.5694 30.5645L39.2501 39.5689C39.4693 40.3009 40.1544 40.7843 40.9146 40.7428C41.6754 40.7013 42.3043 40.15 42.4473 39.4005L44.9181 26.8375C44.919 26.8331 44.92 26.8287 44.921 26.8238C44.9801 26.504 45.1573 26.2266 45.42 26.043C45.6764 25.8634 45.985 25.796 46.2877 25.8521C46.858 25.9576 47.2638 26.4844 47.2359 27.0806L46.2018 39.9825C46.2008 39.9923 46.2003 40.0021 46.1998 40.0118C46.1563 40.7809 46.6402 41.4708 47.3761 41.6891C48.1105 41.9068 48.8912 41.5934 49.2755 40.9225L54.3116 32.0645C54.6271 31.5138 55.2945 31.2813 55.8629 31.524C56.1696 31.6544 56.4069 31.901 56.5299 32.2183C56.6583 32.5479 56.6481 32.9078 56.505 33.2237L52.128 42.691C51.8053 43.3893 52.0084 44.1988 52.6217 44.6598C53.232 45.1178 54.0607 45.0885 54.6378 44.587L60.0919 39.8517C60.1066 39.839 60.1212 39.8258 60.1354 39.8121C60.61 39.359 61.341 39.3639 61.8004 39.8219C62.2438 40.2643 62.2828 40.9942 61.8942 41.4938Z" fill="#42C79C"/>
<path d="M13.0938 32.2632C13.1954 31.7593 12.9654 31.229 12.5289 30.958C12.0714 30.6739 11.4718 30.7207 11.0606 31.0664C10.6681 31.3965 10.5186 31.9585 10.6935 32.44C10.8717 32.9307 11.3453 33.2696 11.8692 33.2696C12.4586 33.2696 12.9781 32.8399 13.0938 32.2632Z" fill="#42C79C"/>
</g>
<defs>
<clipPath id="clip0_2102_9784">
<rect width="64" height="64" fill="white" transform="translate(0.667969)"/>
</clipPath>
</defs>
</svg>
