<svg width="20" height="20" viewBox="0 0 20 20" fill="none" xmlns="http://www.w3.org/2000/svg">
<path d="M18.3332 9.99999C18.3332 14.6024 14.6022 18.3333 9.99984 18.3333M18.3332 9.99999C18.3332 5.39762 14.6022 1.66666 9.99984 1.66666M18.3332 9.99999C18.3332 8.61928 14.6022 7.49999 9.99984 7.49999C5.39746 7.49999 1.6665 8.61928 1.6665 9.99999M18.3332 9.99999C18.3332 11.3807 14.6022 12.5 9.99984 12.5C5.39746 12.5 1.6665 11.3807 1.6665 9.99999M9.99984 18.3333C5.39746 18.3333 1.6665 14.6024 1.6665 9.99999M9.99984 18.3333C11.8408 18.3333 13.3332 14.6024 13.3332 9.99999C13.3332 5.39762 11.8408 1.66666 9.99984 1.66666M9.99984 18.3333C8.15889 18.3333 6.6665 14.6024 6.6665 9.99999C6.6665 5.39762 8.15889 1.66666 9.99984 1.66666M1.6665 9.99999C1.6665 5.39762 5.39746 1.66666 9.99984 1.66666" stroke="#313552"/>
</svg>
