<svg width="16" height="17" viewBox="0 0 16 17" fill="none" xmlns="http://www.w3.org/2000/svg">
<g clip-path="url(#clip0_901_2132)">
<path fill-rule="evenodd" clip-rule="evenodd" d="M2.22038 4.44496C2.34387 4.19797 2.64421 4.09786 2.8912 4.22135L8.00092 6.77622L13.1107 4.22135C13.3576 4.09786 13.658 4.19797 13.7815 4.44496C13.905 4.69195 13.8049 4.99229 13.5579 5.11578L8.22453 7.78245C8.08377 7.85283 7.91808 7.85283 7.77732 7.78245L2.44398 5.11578C2.19699 4.99229 2.09688 4.69195 2.22038 4.44496Z" fill="#42C79C"/>
<path fill-rule="evenodd" clip-rule="evenodd" d="M6.70829 1.12013C7.53081 0.740231 8.47114 0.74023 9.29367 1.12013L12.627 2.65969C13.7743 3.18959 14.501 4.36399 14.501 5.64598V10.3578C14.501 11.6397 13.7743 12.8141 12.627 13.344L9.29367 14.8836C8.47114 15.2635 7.53081 15.2635 6.70829 14.8836L3.37496 13.344C2.22767 12.8141 1.50098 11.6397 1.50098 10.3578V5.64598C1.50098 4.36399 2.22767 3.18959 3.37495 2.65969L6.70829 1.12013ZM8.87436 2.02797C8.31787 1.77095 7.68408 1.77095 7.12759 2.02797L3.79426 3.56754C3.01553 3.92721 2.50098 4.73767 2.50098 5.64598V10.3578C2.50098 11.2661 3.01553 12.0765 3.79426 12.4362L7.12759 13.9758C7.68408 14.2328 8.31787 14.2328 8.87436 13.9758L12.2077 12.4362C12.9864 12.0765 13.501 11.2661 13.501 10.3578V5.64598C13.501 4.73767 12.9864 3.92721 12.2077 3.56754L8.87436 2.02797Z" fill="#42C79C"/>
<path fill-rule="evenodd" clip-rule="evenodd" d="M8.00098 6.83521C8.27712 6.83521 8.50098 7.05906 8.50098 7.33521V14.6685C8.50098 14.9447 8.27712 15.1685 8.00098 15.1685C7.72483 15.1685 7.50098 14.9447 7.50098 14.6685V7.33521C7.50098 7.05906 7.72483 6.83521 8.00098 6.83521Z" fill="#42C79C"/>
</g>
<defs>
<clipPath id="clip0_901_2132">
<rect width="16" height="16" fill="white" transform="translate(0.000976562 0.00195312)"/>
</clipPath>
</defs>
</svg>
