<svg width="16" height="17" viewBox="0 0 16 17" fill="none" xmlns="http://www.w3.org/2000/svg">
<g clip-path="url(#clip0_901_2081)">
<path fill-rule="evenodd" clip-rule="evenodd" d="M2.22013 4.44496C2.34363 4.19797 2.64396 4.09786 2.89095 4.22135L8.00068 6.77622L13.1104 4.22135C13.3574 4.09786 13.6577 4.19797 13.7812 4.44496C13.9047 4.69195 13.8046 4.99229 13.5576 5.11578L8.22429 7.78245C8.08352 7.85283 7.91784 7.85283 7.77707 7.78245L2.44374 5.11578C2.19675 4.99229 2.09664 4.69195 2.22013 4.44496Z" fill="#FF4A35"/>
<path fill-rule="evenodd" clip-rule="evenodd" d="M6.70804 1.12013C7.53057 0.740231 8.4709 0.74023 9.29342 1.12013L12.6268 2.65969C13.774 3.18959 14.5007 4.36399 14.5007 5.64598V10.3578C14.5007 11.6397 13.774 12.8141 12.6268 13.344L9.29342 14.8836C8.4709 15.2635 7.53057 15.2635 6.70804 14.8836L3.37471 13.344C2.22742 12.8141 1.50073 11.6397 1.50073 10.3578V5.64598C1.50073 4.36399 2.22742 3.18959 3.37471 2.65969L6.70804 1.12013ZM8.87411 2.02797C8.31763 1.77095 7.68384 1.77095 7.12735 2.02797L3.79402 3.56754C3.01529 3.92721 2.50073 4.73767 2.50073 5.64598V10.3578C2.50073 11.2661 3.01529 12.0765 3.79402 12.4362L7.12735 13.9758C7.68384 14.2328 8.31763 14.2328 8.87412 13.9758L12.2074 12.4362C12.9862 12.0765 13.5007 11.2661 13.5007 10.3578V5.64598C13.5007 4.73767 12.9862 3.92721 12.2074 3.56754L8.87411 2.02797Z" fill="#FF4A35"/>
<path fill-rule="evenodd" clip-rule="evenodd" d="M8.00073 6.83521C8.27687 6.83521 8.50073 7.05906 8.50073 7.33521V14.6685C8.50073 14.9447 8.27687 15.1685 8.00073 15.1685C7.72459 15.1685 7.50073 14.9447 7.50073 14.6685V7.33521C7.50073 7.05906 7.72459 6.83521 8.00073 6.83521Z" fill="#FF4A35"/>
</g>
<defs>
<clipPath id="clip0_901_2081">
<rect width="16" height="16" fill="white" transform="translate(0.000732422 0.00195312)"/>
</clipPath>
</defs>
</svg>
