<svg width="16" height="16" viewBox="0 0 16 16" fill="none" xmlns="http://www.w3.org/2000/svg">
<path fill-rule="evenodd" clip-rule="evenodd" d="M2.2194 4.44301C2.34289 4.19602 2.64323 4.09591 2.89022 4.2194L7.99995 6.77426L13.1097 4.2194C13.3567 4.09591 13.657 4.19602 13.7805 4.44301C13.904 4.69 13.8039 4.99033 13.5569 5.11383L8.22355 7.78049C8.08279 7.85088 7.9171 7.85088 7.77634 7.78049L2.44301 5.11383C2.19602 4.99033 2.09591 4.69 2.2194 4.44301Z" fill="#313552"/>
<path fill-rule="evenodd" clip-rule="evenodd" d="M6.70731 1.11818C7.52983 0.738278 8.47016 0.738277 9.29269 1.11818L12.626 2.65774C13.7733 3.18764 14.5 4.36204 14.5 5.64403V10.3558C14.5 11.6378 13.7733 12.8122 12.626 13.3421L9.29269 14.8817C8.47017 15.2616 7.52984 15.2616 6.70731 14.8817L3.37398 13.3421C2.22669 12.8122 1.5 11.6378 1.5 10.3558V5.64403C1.5 4.36204 2.22669 3.18764 3.37398 2.65774L6.70731 1.11818ZM8.87338 2.02602C8.31689 1.769 7.68311 1.769 7.12662 2.02602L3.79328 3.56559C3.01456 3.92526 2.5 4.73572 2.5 5.64403V10.3558C2.5 11.2641 3.01456 12.0746 3.79329 12.4342L7.12662 13.9738C7.68311 14.2308 8.31689 14.2308 8.87338 13.9738L12.2067 12.4342C12.9854 12.0746 13.5 11.2641 13.5 10.3558V5.64403C13.5 4.73572 12.9854 3.92526 12.2067 3.56558L8.87338 2.02602Z" fill="#313552"/>
<path fill-rule="evenodd" clip-rule="evenodd" d="M8 6.83325C8.27614 6.83325 8.5 7.05711 8.5 7.33325V14.6666C8.5 14.9427 8.27614 15.1666 8 15.1666C7.72386 15.1666 7.5 14.9427 7.5 14.6666V7.33325C7.5 7.05711 7.72386 6.83325 8 6.83325Z" fill="#313552"/>
</svg>
