<svg width="16" height="16" viewBox="0 0 16 16" fill="none" xmlns="http://www.w3.org/2000/svg">
<path fill-rule="evenodd" clip-rule="evenodd" d="M4.00016 2.66683C4.00016 3.40321 3.40321 4.00016 2.66683 4.00016C1.93045 4.00016 1.3335 3.40321 1.3335 2.66683C1.3335 1.93045 1.93045 1.3335 2.66683 1.3335C3.40321 1.3335 4.00016 1.93045 4.00016 2.66683ZM4.00016 5.66683V14.6668H1.3335V5.66683H4.00016ZM6.00016 5.66683H8.66683V6.22777C9.08387 6.08037 9.53265 6.00016 10.0002 6.00016C12.2093 6.00016 14.0002 7.79102 14.0002 10.0002V14.6668H11.3335V10.0002C11.3335 9.26378 10.7365 8.66683 10.0002 8.66683C9.26378 8.66683 8.66683 9.26378 8.66683 10.0002V14.6668H6.00016V10.0002V5.66683Z" fill="#8A949F"/>
</svg>
