<svg width="32" height="38" viewBox="0 0 32 38" fill="none" xmlns="http://www.w3.org/2000/svg">
<g filter="url(#filter0_d_520_13611)">
<path d="M24.0002 4.05078C22.8195 2.97492 21.436 2.14559 19.9307 1.6114C18.4254 1.07721 16.8286 0.848911 15.2339 0.939894C13.6393 1.03088 12.0788 1.43931 10.644 2.14124C9.20923 2.84317 7.92903 3.82448 6.87845 5.02764C5.82787 6.23079 5.02806 7.63157 4.52591 9.14787C4.02376 10.6642 3.82938 12.2654 3.95415 13.8578C4.07893 15.4502 4.52036 17.0017 5.25256 18.4213C5.98476 19.8408 6.99299 21.0999 8.21815 22.1248C11.0191 24.4535 13.3594 27.2859 15.1182 30.4758C15.2041 30.6346 15.3315 30.7672 15.4868 30.8595C15.6421 30.9518 15.8195 31.0002 16.0002 30.9998C16.1807 30.9997 16.3578 30.9507 16.5127 30.8581C16.6676 30.7655 16.7946 30.6327 16.8802 30.4738L16.9622 30.3198C18.7335 27.1685 21.069 24.3697 23.8522 22.0628C25.1419 20.9482 26.1792 19.5713 26.8947 18.0241C27.6102 16.4769 27.9876 14.7949 28.0016 13.0903C28.0156 11.3857 27.6659 9.69767 26.9759 8.13891C26.2859 6.58014 25.2714 5.18644 24.0002 4.05078ZM16.0002 17.9998C15.0112 17.9998 14.0445 17.7065 13.2223 17.1571C12.4001 16.6077 11.7592 15.8268 11.3808 14.9132C11.0023 13.9996 10.9033 12.9942 11.0962 12.0243C11.2892 11.0544 11.7654 10.1635 12.4646 9.46424C13.1639 8.76498 14.0548 8.28878 15.0247 8.09585C15.9946 7.90292 16.9999 8.00194 17.9136 8.38038C18.8272 8.75882 19.6081 9.39968 20.1575 10.2219C20.7069 11.0442 21.0002 12.0109 21.0002 12.9998C20.9986 14.3254 20.4713 15.5962 19.5339 16.5336C18.5966 17.4709 17.3257 17.9982 16.0002 17.9998Z" fill="#FF4A35"/>
</g>
<defs>
<filter id="filter0_d_520_13611" x="-3" y="0" width="38" height="39" filterUnits="userSpaceOnUse" color-interpolation-filters="sRGB">
<feFlood flood-opacity="0" result="BackgroundImageFix"/>
<feColorMatrix in="SourceAlpha" type="matrix" values="0 0 0 0 0 0 0 0 0 0 0 0 0 0 0 0 0 0 127 0" result="hardAlpha"/>
<feOffset dy="4"/>
<feGaussianBlur stdDeviation="1.5"/>
<feComposite in2="hardAlpha" operator="out"/>
<feColorMatrix type="matrix" values="0 0 0 0 1 0 0 0 0 0.290196 0 0 0 0 0.207843 0 0 0 0.5 0"/>
<feBlend mode="normal" in2="BackgroundImageFix" result="effect1_dropShadow_520_13611"/>
<feBlend mode="normal" in="SourceGraphic" in2="effect1_dropShadow_520_13611" result="shape"/>
</filter>
</defs>
</svg>
