<svg width="16" height="16" viewBox="0 0 16 16" fill="none" xmlns="http://www.w3.org/2000/svg">
<path fill-rule="evenodd" clip-rule="evenodd" d="M4.1665 4.66658C4.1665 2.54949 5.88275 0.833252 7.99984 0.833252C10.1169 0.833252 11.8332 2.54949 11.8332 4.66658V9.33325C11.8332 11.4503 10.1169 13.1666 7.99984 13.1666C5.88275 13.1666 4.1665 11.4503 4.1665 9.33325V4.66658ZM7.99984 1.83325C6.43503 1.83325 5.1665 3.10178 5.1665 4.66658V9.33325C5.1665 10.8981 6.43503 12.1666 7.99984 12.1666C9.56464 12.1666 10.8332 10.8981 10.8332 9.33325V9.16658H8.6665C8.39036 9.16658 8.1665 8.94273 8.1665 8.66658C8.1665 8.39044 8.39036 8.16658 8.6665 8.16658H10.8332V5.83325H8.6665C8.39036 5.83325 8.1665 5.60939 8.1665 5.33325C8.1665 5.05711 8.39036 4.83325 8.6665 4.83325H10.8332V4.66658C10.8332 3.10178 9.56464 1.83325 7.99984 1.83325ZM2.6665 7.49992C2.94265 7.49992 3.1665 7.72377 3.1665 7.99992V9.33325C3.1665 12.0026 5.33046 14.1666 7.99984 14.1666C10.6692 14.1666 12.8332 12.0026 12.8332 9.33325V7.99992C12.8332 7.72377 13.057 7.49992 13.3332 7.49992C13.6093 7.49992 13.8332 7.72377 13.8332 7.99992V9.33325C13.8332 12.5549 11.2215 15.1666 7.99984 15.1666C4.77818 15.1666 2.1665 12.5549 2.1665 9.33325V7.99992C2.1665 7.72377 2.39036 7.49992 2.6665 7.49992Z" fill="#42C79C"/>
</svg>
