<svg width="16" height="17" viewBox="0 0 16 17" fill="none" xmlns="http://www.w3.org/2000/svg">
<g clip-path="url(#clip0_901_2093)">
<path fill-rule="evenodd" clip-rule="evenodd" d="M4.16748 4.66854C4.16748 2.55145 5.88372 0.835205 8.00081 0.835205C10.1179 0.835205 11.8341 2.55145 11.8341 4.66854V9.3352C11.8341 11.4523 10.1179 13.1685 8.00081 13.1685C5.88372 13.1685 4.16748 11.4523 4.16748 9.3352V4.66854ZM8.00081 1.8352C6.43601 1.8352 5.16748 3.10373 5.16748 4.66854V9.3352C5.16748 10.9 6.43601 12.1685 8.00081 12.1685C9.56562 12.1685 10.8341 10.9 10.8341 9.3352V9.16854H8.66748C8.39134 9.16854 8.16748 8.94468 8.16748 8.66854C8.16748 8.39239 8.39134 8.16854 8.66748 8.16854H10.8341V5.8352H8.66748C8.39134 5.8352 8.16748 5.61135 8.16748 5.3352C8.16748 5.05906 8.39134 4.8352 8.66748 4.8352H10.8341V4.66854C10.8341 3.10373 9.56562 1.8352 8.00081 1.8352ZM2.66748 7.50187C2.94362 7.50187 3.16748 7.72573 3.16748 8.00187V9.3352C3.16748 12.0046 5.33144 14.1685 8.00081 14.1685C10.6702 14.1685 12.8341 12.0046 12.8341 9.3352V8.00187C12.8341 7.72573 13.058 7.50187 13.3341 7.50187C13.6103 7.50187 13.8341 7.72573 13.8341 8.00187V9.3352C13.8341 12.5569 11.2225 15.1685 8.00081 15.1685C4.77915 15.1685 2.16748 12.5569 2.16748 9.3352V8.00187C2.16748 7.72573 2.39134 7.50187 2.66748 7.50187Z" fill="#FF4A35"/>
</g>
<defs>
<clipPath id="clip0_901_2093">
<rect width="16" height="16" fill="white" transform="translate(0.000732422 0.00195312)"/>
</clipPath>
</defs>
</svg>
