<svg width="16" height="16" viewBox="0 0 16 16" fill="none" xmlns="http://www.w3.org/2000/svg">
<path fill-rule="evenodd" clip-rule="evenodd" d="M4.16675 4.66658C4.16675 2.54949 5.88299 0.833252 8.00008 0.833252C10.1172 0.833252 11.8334 2.54949 11.8334 4.66658V9.33325C11.8334 11.4503 10.1172 13.1666 8.00008 13.1666C5.88299 13.1666 4.16675 11.4503 4.16675 9.33325V4.66658ZM8.00008 1.83325C6.43527 1.83325 5.16675 3.10178 5.16675 4.66658V9.33325C5.16675 10.8981 6.43527 12.1666 8.00008 12.1666C9.56489 12.1666 10.8334 10.8981 10.8334 9.33325V9.16658H8.66675C8.39061 9.16658 8.16675 8.94273 8.16675 8.66658C8.16675 8.39044 8.39061 8.16658 8.66675 8.16658H10.8334V5.83325H8.66675C8.39061 5.83325 8.16675 5.60939 8.16675 5.33325C8.16675 5.05711 8.39061 4.83325 8.66675 4.83325H10.8334V4.66658C10.8334 3.10178 9.56489 1.83325 8.00008 1.83325ZM2.66675 7.49992C2.94289 7.49992 3.16675 7.72377 3.16675 7.99992V9.33325C3.16675 12.0026 5.33071 14.1666 8.00008 14.1666C10.6695 14.1666 12.8334 12.0026 12.8334 9.33325V7.99992C12.8334 7.72377 13.0573 7.49992 13.3334 7.49992C13.6096 7.49992 13.8334 7.72377 13.8334 7.99992V9.33325C13.8334 12.5549 11.2217 15.1666 8.00008 15.1666C4.77842 15.1666 2.16675 12.5549 2.16675 9.33325V7.99992C2.16675 7.72377 2.39061 7.49992 2.66675 7.49992Z" fill="#FFA336"/>
</svg>
