<svg width="957" height="385" viewBox="0 0 957 385" fill="none" xmlns="http://www.w3.org/2000/svg">
<g opacity="0.5" clip-path="url(#clip0_520_12951)">
<path opacity="0.5" fill-rule="evenodd" clip-rule="evenodd" d="M41.48 216.538L41.48 168.543L42.48 168.543L42.48 216.538L41.48 216.538Z" fill="#DDEBF6"/>
<path fill-rule="evenodd" clip-rule="evenodd" d="M332.716 337.038L291.135 313.041L291.635 312.174L333.216 336.172L332.716 337.038Z" fill="#DDEBF6"/>
<path fill-rule="evenodd" clip-rule="evenodd" d="M290.885 312.607L290.885 264.324L332.716 240.182L333.216 241.048L291.885 264.901L291.885 312.607L290.885 312.607Z" fill="#DDEBF6"/>
<path fill-rule="evenodd" clip-rule="evenodd" d="M333.216 288.177L374.797 312.174L374.297 313.041L332.716 289.043L333.216 288.177Z" fill="#DDEBF6"/>
<path fill-rule="evenodd" clip-rule="evenodd" d="M291.135 312.174L332.716 288.177L333.216 289.043L291.635 313.041L291.135 312.174Z" fill="#DDEBF6"/>
<path fill-rule="evenodd" clip-rule="evenodd" d="M333.466 240.615L333.466 288.61L332.466 288.61L332.466 240.615L333.466 240.615Z" fill="#DDEBF6"/>
<path fill-rule="evenodd" clip-rule="evenodd" d="M457.208 168.831L457.208 216.538L458.208 216.538L458.208 168.254L416.378 144.112L415.878 144.978L457.208 168.831Z" fill="#DDEBF6"/>
<path fill-rule="evenodd" clip-rule="evenodd" d="M416.128 241.193L374.297 216.97L374.798 216.105L416.128 240.037L457.458 216.105L457.959 216.97L416.128 241.193Z" fill="#DDEBF6"/>
<path fill-rule="evenodd" clip-rule="evenodd" d="M416.378 192.107L457.958 216.105L457.459 216.971L415.878 192.973L416.378 192.107Z" fill="#DDEBF6"/>
<path fill-rule="evenodd" clip-rule="evenodd" d="M374.297 216.105L415.878 192.107L416.378 192.973L374.797 216.971L374.297 216.105Z" fill="#DDEBF6"/>
<path fill-rule="evenodd" clip-rule="evenodd" d="M416.628 144.545L416.628 192.54L415.628 192.54L415.628 144.545L416.628 144.545Z" fill="#DDEBF6"/>
<path fill-rule="evenodd" clip-rule="evenodd" d="M375.047 168.543L375.047 216.538L374.047 216.538L374.047 168.543L375.047 168.543Z" fill="#DDEBF6"/>
<path fill-rule="evenodd" clip-rule="evenodd" d="M332.716 241.048L291.135 216.97L291.636 216.105L333.217 240.182L332.716 241.048Z" fill="#DDEBF6"/>
<path fill-rule="evenodd" clip-rule="evenodd" d="M374.797 216.97L333.216 241.048L332.715 240.182L374.296 216.105L374.797 216.97Z" fill="#DDEBF6"/>
<path fill-rule="evenodd" clip-rule="evenodd" d="M333.216 192.107L374.797 216.105L374.297 216.971L332.716 192.973L333.216 192.107Z" fill="#DDEBF6"/>
<path fill-rule="evenodd" clip-rule="evenodd" d="M291.135 216.105L332.716 192.107L333.216 192.973L291.635 216.971L291.135 216.105Z" fill="#DDEBF6"/>
<path fill-rule="evenodd" clip-rule="evenodd" d="M333.466 144.545L333.466 192.54L332.466 192.54L332.466 144.545L333.466 144.545Z" fill="#DDEBF6"/>
<path fill-rule="evenodd" clip-rule="evenodd" d="M416.628 96.4699L416.628 144.545L415.628 144.545L415.628 96.4699L416.628 96.4699Z" fill="#DDEBF6"/>
<path fill-rule="evenodd" clip-rule="evenodd" d="M374.297 168.976L332.716 144.978L333.216 144.112L374.797 168.109L374.297 168.976Z" fill="#DDEBF6"/>
<path fill-rule="evenodd" clip-rule="evenodd" d="M416.378 144.978L374.797 168.976L374.297 168.109L415.878 144.112L416.378 144.978Z" fill="#DDEBF6"/>
<path fill-rule="evenodd" clip-rule="evenodd" d="M374.547 121.125L415.878 144.978L416.378 144.112L374.547 119.97L332.716 144.112L333.216 144.978L374.547 121.125Z" fill="#DDEBF6"/>
<path fill-rule="evenodd" clip-rule="evenodd" d="M291.885 168.543L291.885 216.538L290.885 216.538L290.885 168.543L291.885 168.543Z" fill="#DDEBF6"/>
<path fill-rule="evenodd" clip-rule="evenodd" d="M249.804 241.193L207.973 216.97L208.474 216.105L249.804 240.037L291.135 216.105L291.636 216.97L249.804 241.193Z" fill="#DDEBF6"/>
<path fill-rule="evenodd" clip-rule="evenodd" d="M250.054 192.107L291.635 216.105L291.135 216.971L249.555 192.973L250.054 192.107Z" fill="#DDEBF6"/>
<path fill-rule="evenodd" clip-rule="evenodd" d="M207.973 216.105L249.554 192.107L250.054 192.973L208.473 216.971L207.973 216.105Z" fill="#DDEBF6"/>
<path fill-rule="evenodd" clip-rule="evenodd" d="M250.304 144.545L250.304 192.54L249.304 192.54L249.304 144.545L250.304 144.545Z" fill="#DDEBF6"/>
<path fill-rule="evenodd" clip-rule="evenodd" d="M332.466 96.7586L332.466 144.545L333.466 144.545L333.466 96.1812L291.635 72.0393L291.135 72.9055L332.466 96.7586Z" fill="#DDEBF6"/>
<path fill-rule="evenodd" clip-rule="evenodd" d="M291.135 168.976L249.555 144.978L250.054 144.112L291.635 168.109L291.135 168.976Z" fill="#DDEBF6"/>
<path fill-rule="evenodd" clip-rule="evenodd" d="M333.216 144.978L291.635 168.976L291.135 168.109L332.716 144.112L333.216 144.978Z" fill="#DDEBF6"/>
<path fill-rule="evenodd" clip-rule="evenodd" d="M291.635 120.114L333.216 144.112L332.716 144.978L291.135 120.981L291.635 120.114Z" fill="#DDEBF6"/>
<path fill-rule="evenodd" clip-rule="evenodd" d="M249.555 144.112L291.135 120.114L291.635 120.981L250.054 144.978L249.555 144.112Z" fill="#DDEBF6"/>
<path fill-rule="evenodd" clip-rule="evenodd" d="M291.885 72.4723L291.885 120.547L290.885 120.547L290.885 72.4723L291.885 72.4723Z" fill="#DDEBF6"/>
<path fill-rule="evenodd" clip-rule="evenodd" d="M208.724 168.543L208.724 216.538L207.724 216.538L207.724 168.543L208.724 168.543Z" fill="#DDEBF6"/>
<path fill-rule="evenodd" clip-rule="evenodd" d="M166.643 241.193L124.811 216.97L125.312 216.105L166.643 240.037L207.973 216.105L208.474 216.97L166.643 241.193Z" fill="#DDEBF6"/>
<path fill-rule="evenodd" clip-rule="evenodd" d="M124.562 216.538L124.562 168.543L125.562 168.543L125.562 216.538L124.562 216.538Z" fill="#DDEBF6"/>
<path fill-rule="evenodd" clip-rule="evenodd" d="M124.812 168.109L166.393 144.112L166.893 144.978L125.312 168.976L124.812 168.109Z" fill="#DDEBF6"/>
<path fill-rule="evenodd" clip-rule="evenodd" d="M166.892 192.107L208.473 216.105L207.973 216.971L166.392 192.973L166.892 192.107Z" fill="#DDEBF6"/>
<path fill-rule="evenodd" clip-rule="evenodd" d="M124.812 216.105L166.393 192.107L166.893 192.973L125.312 216.971L124.812 216.105Z" fill="#DDEBF6"/>
<path fill-rule="evenodd" clip-rule="evenodd" d="M167.143 144.545L167.143 192.54L166.143 192.54L166.143 144.545L167.143 144.545Z" fill="#DDEBF6"/>
<path fill-rule="evenodd" clip-rule="evenodd" d="M83.7306 144.112L125.312 168.109L124.812 168.976L83.2308 144.978L83.7306 144.112Z" fill="#DDEBF6"/>
<path fill-rule="evenodd" clip-rule="evenodd" d="M83.4803 241.193L41.7287 216.97L42.2306 216.105L83.4808 240.037L124.811 216.105L125.312 216.97L83.4803 241.193Z" fill="#DDEBF6"/>
<path fill-rule="evenodd" clip-rule="evenodd" d="M41.7294 168.11L83.2304 144.112L83.731 144.978L42.23 168.976L41.7294 168.11Z" fill="#DDEBF6"/>
<path fill-rule="evenodd" clip-rule="evenodd" d="M83.7306 192.107L125.312 216.105L124.812 216.971L83.2308 192.973L83.7306 192.107Z" fill="#DDEBF6"/>
<path fill-rule="evenodd" clip-rule="evenodd" d="M41.7294 216.105L83.2304 192.107L83.731 192.973L42.23 216.97L41.7294 216.105Z" fill="#DDEBF6"/>
<path fill-rule="evenodd" clip-rule="evenodd" d="M83.981 144.545L83.981 192.54L82.981 192.54L82.981 144.545L83.981 144.545Z" fill="#DDEBF6"/>
<path fill-rule="evenodd" clip-rule="evenodd" d="M250.304 96.4699L250.304 144.545L249.304 144.545L249.304 96.4699L250.304 96.4699Z" fill="#DDEBF6"/>
<path fill-rule="evenodd" clip-rule="evenodd" d="M207.973 168.976L166.392 144.978L166.892 144.112L208.473 168.109L207.973 168.976Z" fill="#DDEBF6"/>
<path fill-rule="evenodd" clip-rule="evenodd" d="M250.054 144.978L208.473 168.976L207.973 168.109L249.554 144.112L250.054 144.978Z" fill="#DDEBF6"/>
<path fill-rule="evenodd" clip-rule="evenodd" d="M208.473 120.114L250.054 144.112L249.554 144.978L207.973 120.981L208.473 120.114Z" fill="#DDEBF6"/>
<path fill-rule="evenodd" clip-rule="evenodd" d="M166.392 144.112L207.973 120.114L208.473 120.981L166.892 144.978L166.392 144.112Z" fill="#DDEBF6"/>
<path fill-rule="evenodd" clip-rule="evenodd" d="M208.724 72.4723L208.724 120.547L207.724 120.547L207.724 72.4723L208.724 72.4723Z" fill="#DDEBF6"/>
<path fill-rule="evenodd" clip-rule="evenodd" d="M167.143 96.4699L167.143 144.545L166.143 144.545L166.143 96.4699L167.143 96.4699Z" fill="#DDEBF6"/>
<path fill-rule="evenodd" clip-rule="evenodd" d="M82.981 144.545L82.981 96.4699L83.981 96.4699L83.981 144.545L82.981 144.545Z" fill="#DDEBF6"/>
<path fill-rule="evenodd" clip-rule="evenodd" d="M125.312 120.114L166.893 144.112L166.393 144.978L124.812 120.981L125.312 120.114Z" fill="#DDEBF6"/>
<path fill-rule="evenodd" clip-rule="evenodd" d="M83.2308 144.112L124.812 120.114L125.312 120.981L83.7306 144.978L83.2308 144.112Z" fill="#DDEBF6"/>
<path fill-rule="evenodd" clip-rule="evenodd" d="M166.393 96.9028L124.812 72.9053L125.312 72.0392L166.893 96.0367L166.393 96.9028Z" fill="#DDEBF6"/>
<path fill-rule="evenodd" clip-rule="evenodd" d="M208.473 72.9053L166.892 96.9028L166.392 96.0367L207.973 72.0392L208.473 72.9053Z" fill="#DDEBF6"/>
<path fill-rule="evenodd" clip-rule="evenodd" d="M207.724 24.7664L207.724 72.4727L208.724 72.4727L208.724 24.1889L166.643 -0.0971643L124.812 24.0446L125.312 24.9107L166.643 1.05743L207.724 24.7664Z" fill="#DDEBF6"/>
<path fill-rule="evenodd" clip-rule="evenodd" d="M166.892 48.0421L208.473 72.0397L207.973 72.9058L166.392 48.9083L166.892 48.0421Z" fill="#DDEBF6"/>
<path fill-rule="evenodd" clip-rule="evenodd" d="M124.562 120.547L124.562 72.1836L166.393 48.0418L166.893 48.9079L125.562 72.7611L125.562 120.547L124.562 120.547Z" fill="#DDEBF6"/>
<path fill-rule="evenodd" clip-rule="evenodd" d="M167.143 0.48008L167.143 48.4751L166.143 48.4751L166.143 0.48008L167.143 0.48008Z" fill="#DDEBF6"/>
<path fill-rule="evenodd" clip-rule="evenodd" d="M291.885 24.4776L291.885 72.4727L290.885 72.4727L290.885 24.4776L291.885 24.4776Z" fill="#DDEBF6"/>
<path fill-rule="evenodd" clip-rule="evenodd" d="M249.554 96.9028L207.973 72.9053L208.473 72.0392L250.054 96.0367L249.554 96.9028Z" fill="#DDEBF6"/>
<path fill-rule="evenodd" clip-rule="evenodd" d="M207.973 72.0397L249.554 48.0421L250.054 48.9083L208.473 72.9058L207.973 72.0397Z" fill="#DDEBF6"/>
<path fill-rule="evenodd" clip-rule="evenodd" d="M581.951 144.545L581.951 96.4699L582.951 96.4699L582.951 144.545L581.951 144.545Z" fill="#DDEBF6"/>
<path fill-rule="evenodd" clip-rule="evenodd" d="M624.283 120.115L665.784 144.112L665.283 144.978L623.782 120.981L624.283 120.115Z" fill="#DDEBF6"/>
<path fill-rule="evenodd" clip-rule="evenodd" d="M582.201 144.112L623.782 120.114L624.282 120.981L582.701 144.978L582.201 144.112Z" fill="#DDEBF6"/>
<path fill-rule="evenodd" clip-rule="evenodd" d="M665.033 96.7584L665.033 144.545L666.033 144.545L666.033 96.1815L623.532 71.6057L623.532 120.547L624.532 120.547L624.532 73.3391L665.033 96.7584Z" fill="#DDEBF6"/>
<path fill-rule="evenodd" clip-rule="evenodd" d="M499.039 241.048L457.458 216.97L457.959 216.105L499.54 240.182L499.039 241.048Z" fill="#DDEBF6"/>
<path fill-rule="evenodd" clip-rule="evenodd" d="M499.54 192.107L541.121 216.105L540.621 216.971L499.04 192.973L499.54 192.107Z" fill="#DDEBF6"/>
<path fill-rule="evenodd" clip-rule="evenodd" d="M457.459 216.105L499.04 192.107L499.54 192.973L457.959 216.971L457.459 216.105Z" fill="#DDEBF6"/>
<path fill-rule="evenodd" clip-rule="evenodd" d="M499.79 145.411L499.79 192.54L498.79 192.54L498.79 143.679L541.121 168.109L540.621 168.976L499.79 145.411Z" fill="#DDEBF6"/>
<path fill-rule="evenodd" clip-rule="evenodd" d="M499.039 240.182L540.62 216.105L541.121 216.97L499.54 241.048L499.039 240.182Z" fill="#DDEBF6"/>
<path fill-rule="evenodd" clip-rule="evenodd" d="M541.12 264.179L582.701 288.177L582.201 289.043L540.62 265.045L541.12 264.179Z" fill="#DDEBF6"/>
<path fill-rule="evenodd" clip-rule="evenodd" d="M541.371 216.537L541.371 264.612L540.371 264.612L540.371 216.537L541.371 216.537Z" fill="#DDEBF6"/>
<path fill-rule="evenodd" clip-rule="evenodd" d="M831.606 241.048L790.025 216.97L790.527 216.105L832.107 240.182L831.606 241.048Z" fill="#DDEBF6"/>
<path fill-rule="evenodd" clip-rule="evenodd" d="M789.776 216.538L789.776 168.543L790.776 168.543L790.776 216.538L789.776 216.538Z" fill="#DDEBF6"/>
<path fill-rule="evenodd" clip-rule="evenodd" d="M832.107 192.107L873.687 216.105L873.188 216.971L831.607 192.973L832.107 192.107Z" fill="#DDEBF6"/>
<path fill-rule="evenodd" clip-rule="evenodd" d="M790.026 216.105L831.607 192.107L832.106 192.973L790.526 216.971L790.026 216.105Z" fill="#DDEBF6"/>
<path fill-rule="evenodd" clip-rule="evenodd" d="M832.357 192.54L831.357 192.54L831.357 145.411L790.526 168.976L790.026 168.109L832.357 143.679L832.357 192.54Z" fill="#DDEBF6"/>
<path fill-rule="evenodd" clip-rule="evenodd" d="M790.526 216.97L748.945 241.048L748.444 240.182L790.025 216.105L790.526 216.97Z" fill="#DDEBF6"/>
<path fill-rule="evenodd" clip-rule="evenodd" d="M706.614 216.538L706.614 168.543L707.614 168.543L707.614 216.538L706.614 216.538Z" fill="#DDEBF6"/>
<path fill-rule="evenodd" clip-rule="evenodd" d="M748.695 145.122L790.026 168.976L790.526 168.109L748.695 143.968L706.864 168.109L707.364 168.976L748.695 145.122Z" fill="#DDEBF6"/>
<path fill-rule="evenodd" clip-rule="evenodd" d="M748.945 192.107L790.526 216.105L790.026 216.971L748.445 192.973L748.945 192.107Z" fill="#DDEBF6"/>
<path fill-rule="evenodd" clip-rule="evenodd" d="M706.864 216.105L748.445 192.107L748.945 192.973L707.364 216.971L706.864 216.105Z" fill="#DDEBF6"/>
<path fill-rule="evenodd" clip-rule="evenodd" d="M749.195 144.545L749.195 192.54L748.195 192.54L748.195 144.545L749.195 144.545Z" fill="#DDEBF6"/>
<path fill-rule="evenodd" clip-rule="evenodd" d="M665.783 144.112L707.364 168.109L706.864 168.976L665.283 144.978L665.783 144.112Z" fill="#DDEBF6"/>
<path fill-rule="evenodd" clip-rule="evenodd" d="M665.282 241.047L623.781 216.97L624.283 216.105L665.784 240.182L665.282 241.047Z" fill="#DDEBF6"/>
<path fill-rule="evenodd" clip-rule="evenodd" d="M623.532 216.538L623.532 168.543L624.532 168.543L624.532 216.538L623.532 216.538Z" fill="#DDEBF6"/>
<path fill-rule="evenodd" clip-rule="evenodd" d="M623.782 168.109L665.283 144.112L665.784 144.978L624.283 168.975L623.782 168.109Z" fill="#DDEBF6"/>
<path fill-rule="evenodd" clip-rule="evenodd" d="M666.033 144.545L666.033 192.54L665.033 192.54L665.033 144.545L666.033 144.545Z" fill="#DDEBF6"/>
<path fill-rule="evenodd" clip-rule="evenodd" d="M582.701 144.112L624.282 168.109L623.782 168.976L582.201 144.978L582.701 144.112Z" fill="#DDEBF6"/>
<path fill-rule="evenodd" clip-rule="evenodd" d="M540.87 313.185L498.789 288.899L498.789 240.615L499.789 240.615L499.789 288.322L540.87 312.03L581.951 288.322L581.951 240.327L623.782 216.105L624.283 216.97L582.951 240.903L582.951 288.899L540.87 313.185Z" fill="#DDEBF6"/>
<path fill-rule="evenodd" clip-rule="evenodd" d="M540.371 216.538L540.371 168.543L541.371 168.543L541.371 216.538L540.371 216.538Z" fill="#DDEBF6"/>
<path fill-rule="evenodd" clip-rule="evenodd" d="M540.62 168.109L582.201 144.112L582.701 144.978L541.12 168.976L540.62 168.109Z" fill="#DDEBF6"/>
<path fill-rule="evenodd" clip-rule="evenodd" d="M582.701 192.107L624.282 216.105L623.782 216.971L582.201 192.973L582.701 192.107Z" fill="#DDEBF6"/>
<path fill-rule="evenodd" clip-rule="evenodd" d="M540.62 216.105L582.201 192.107L582.701 192.973L541.12 216.971L540.62 216.105Z" fill="#DDEBF6"/>
<path fill-rule="evenodd" clip-rule="evenodd" d="M582.951 144.545L582.951 192.54L581.951 192.54L581.951 144.545L582.951 144.545Z" fill="#DDEBF6"/>
<path fill-rule="evenodd" clip-rule="evenodd" d="M707.364 216.105L748.945 240.182L748.444 241.048L706.863 216.97L707.364 216.105Z" fill="#DDEBF6"/>
<path fill-rule="evenodd" clip-rule="evenodd" d="M707.114 313.185L665.033 288.899L665.033 240.615L666.033 240.615L666.033 288.322L707.114 312.03L748.195 288.322L748.195 240.615L749.195 240.615L749.195 288.899L707.114 313.185Z" fill="#DDEBF6"/>
<path fill-rule="evenodd" clip-rule="evenodd" d="M665.283 240.182L706.864 216.105L707.365 216.97L665.784 241.048L665.283 240.182Z" fill="#DDEBF6"/>
<path fill-rule="evenodd" clip-rule="evenodd" d="M707.364 264.179L748.945 288.177L748.445 289.043L706.864 265.045L707.364 264.179Z" fill="#DDEBF6"/>
<path fill-rule="evenodd" clip-rule="evenodd" d="M665.283 288.177L706.864 264.179L707.364 265.045L665.783 289.043L665.283 288.177Z" fill="#DDEBF6"/>
<path fill-rule="evenodd" clip-rule="evenodd" d="M707.614 216.537L707.614 264.612L706.614 264.612L706.614 216.537L707.614 216.537Z" fill="#DDEBF6"/>
<path fill-rule="evenodd" clip-rule="evenodd" d="M914.768 241.048L873.187 216.97L873.688 216.105L915.269 240.182L914.768 241.048Z" fill="#DDEBF6"/>
<path fill-rule="evenodd" clip-rule="evenodd" d="M872.938 216.538L872.937 168.543L873.937 168.543L873.938 216.538L872.938 216.538Z" fill="#DDEBF6"/>
<path fill-rule="evenodd" clip-rule="evenodd" d="M915.269 289.043L873.688 313.041L873.188 312.174L914.769 288.177L915.269 289.043Z" fill="#DDEBF6"/>
<path fill-rule="evenodd" clip-rule="evenodd" d="M831.357 288.61L831.357 240.615L832.357 240.615L832.357 288.61L831.357 288.61Z" fill="#DDEBF6"/>
<path fill-rule="evenodd" clip-rule="evenodd" d="M831.606 240.182L873.187 216.105L873.688 216.97L832.107 241.048L831.606 240.182Z" fill="#DDEBF6"/>
<path fill-rule="evenodd" clip-rule="evenodd" d="M873.937 216.537L873.938 264.612L872.938 264.612L872.937 216.537L873.937 216.537Z" fill="#DDEBF6"/>
<path fill-rule="evenodd" clip-rule="evenodd" d="M499.04 288.177L540.621 264.179L541.121 265.045L499.54 289.043L499.04 288.177Z" fill="#DDEBF6"/>
<path fill-rule="evenodd" clip-rule="evenodd" d="M624.283 216.97L582.702 241.048L582.201 240.182L623.782 216.105L624.283 216.97Z" fill="#AEC4E3"/>
<path fill-rule="evenodd" clip-rule="evenodd" d="M623.533 168.831L623.533 216.538L624.533 216.538L624.533 168.254L582.452 143.968L540.371 168.254L540.371 216.538L541.371 216.538L541.371 168.831L582.452 145.122L623.533 168.831Z" fill="#AEC4E3"/>
<path fill-rule="evenodd" clip-rule="evenodd" d="M582.701 192.107L624.282 216.105L623.782 216.971L582.201 192.973L582.701 192.107Z" fill="#AEC4E3"/>
<path fill-rule="evenodd" clip-rule="evenodd" d="M540.621 216.105L582.202 192.107L582.702 192.973L541.121 216.971L540.621 216.105Z" fill="#AEC4E3"/>
<path fill-rule="evenodd" clip-rule="evenodd" d="M582.952 144.545L582.952 192.54L581.952 192.54L581.952 144.545L582.952 144.545Z" fill="#AEC4E3"/>
<path fill-rule="evenodd" clip-rule="evenodd" d="M374.797 264.179L416.378 288.177L415.878 289.043L374.297 265.045L374.797 264.179Z" fill="#AEC4E3"/>
<path fill-rule="evenodd" clip-rule="evenodd" d="M332.717 288.177L374.298 264.179L374.797 265.045L333.216 289.043L332.717 288.177Z" fill="#AEC4E3"/>
<path fill-rule="evenodd" clip-rule="evenodd" d="M375.047 216.538L375.047 264.613L374.047 264.613L374.047 216.538L375.047 216.538Z" fill="#AEC4E3"/>
<path fill-rule="evenodd" clip-rule="evenodd" d="M291.135 313.041L249.555 289.043L250.054 288.177L291.635 312.174L291.135 313.041Z" fill="#AEC4E3"/>
<path fill-rule="evenodd" clip-rule="evenodd" d="M290.885 264.324L249.554 288.177L250.054 289.043L291.885 264.901L291.885 216.537L290.885 216.537L290.885 264.324Z" fill="#AEC4E3"/>
<path fill-rule="evenodd" clip-rule="evenodd" d="M375.047 168.543L375.047 216.538L374.047 216.538L374.047 168.543L375.047 168.543Z" fill="#AEC4E3"/>
<path fill-rule="evenodd" clip-rule="evenodd" d="M333.216 192.107L374.797 216.105L374.298 216.971L332.717 192.973L333.216 192.107Z" fill="#AEC4E3"/>
<path fill-rule="evenodd" clip-rule="evenodd" d="M291.136 216.105L332.716 192.107L333.216 192.973L291.635 216.971L291.136 216.105Z" fill="#AEC4E3"/>
<path fill-rule="evenodd" clip-rule="evenodd" d="M333.466 192.54L332.466 192.54L332.466 145.411L291.635 168.976L291.135 168.109L333.466 143.679L333.466 192.54Z" fill="#AEC4E3"/>
<path fill-rule="evenodd" clip-rule="evenodd" d="M250.305 240.615L250.305 288.61L249.305 288.61L249.305 240.615L250.305 240.615Z" fill="#AEC4E3"/>
<path fill-rule="evenodd" clip-rule="evenodd" d="M250.055 289.043L208.474 313.041L207.974 312.174L249.555 288.177L250.055 289.043Z" fill="#AEC4E3"/>
<path fill-rule="evenodd" clip-rule="evenodd" d="M208.724 264.324L250.055 288.177L249.555 289.043L207.724 264.901L207.724 216.537L208.724 216.537L208.724 264.324Z" fill="#AEC4E3"/>
<path fill-rule="evenodd" clip-rule="evenodd" d="M291.885 168.543L291.885 216.538L290.885 216.538L290.885 168.543L291.885 168.543Z" fill="#AEC4E3"/>
<path fill-rule="evenodd" clip-rule="evenodd" d="M250.054 144.112L291.635 168.109L291.135 168.976L249.555 144.978L250.054 144.112Z" fill="#AEC4E3"/>
<path fill-rule="evenodd" clip-rule="evenodd" d="M249.554 241.048L207.973 216.97L208.474 216.105L250.055 240.182L249.554 241.048Z" fill="#AEC4E3"/>
<path fill-rule="evenodd" clip-rule="evenodd" d="M291.636 216.97L250.055 241.048L249.554 240.182L291.135 216.105L291.636 216.97Z" fill="#AEC4E3"/>
<path fill-rule="evenodd" clip-rule="evenodd" d="M250.054 192.107L291.635 216.105L291.135 216.971L249.555 192.973L250.054 192.107Z" fill="#AEC4E3"/>
<path fill-rule="evenodd" clip-rule="evenodd" d="M207.974 216.105L249.555 192.107L250.055 192.973L208.474 216.971L207.974 216.105Z" fill="#AEC4E3"/>
<path fill-rule="evenodd" clip-rule="evenodd" d="M250.305 144.545L250.305 192.54L249.305 192.54L249.305 144.545L250.305 144.545Z" fill="#AEC4E3"/>
<path fill-rule="evenodd" clip-rule="evenodd" d="M125.312 264.179L166.893 288.177L166.393 289.043L124.812 265.045L125.312 264.179Z" fill="#AEC4E3"/>
<path fill-rule="evenodd" clip-rule="evenodd" d="M83.2313 288.177L124.812 264.179L125.312 265.045L83.7311 289.043L83.2313 288.177Z" fill="#AEC4E3"/>
<path fill-rule="evenodd" clip-rule="evenodd" d="M125.562 216.538L125.562 264.613L124.562 264.613L124.562 216.538L125.562 216.538Z" fill="#AEC4E3"/>
<path fill-rule="evenodd" clip-rule="evenodd" d="M83.981 240.615L83.981 288.61L82.981 288.61L82.981 240.615L83.981 240.615Z" fill="#AEC4E3"/>
<path fill-rule="evenodd" clip-rule="evenodd" d="M41.9805 313.185L0.149412 289.043L0.649267 288.177L41.98 312.03L83.2309 288.177L83.7314 289.043L41.9805 313.185Z" fill="#AEC4E3"/>
<path fill-rule="evenodd" clip-rule="evenodd" d="M-0.100586 288.61L-0.10059 240.615L0.89941 240.615L0.899414 288.61L-0.100586 288.61Z" fill="#AEC4E3"/>
<path fill-rule="evenodd" clip-rule="evenodd" d="M0.148483 240.182L41.7294 216.105L42.2305 216.97L0.649586 241.048L0.148483 240.182Z" fill="#AEC4E3"/>
<path fill-rule="evenodd" clip-rule="evenodd" d="M42.2305 264.18L83.7314 288.177L83.2309 289.043L41.7299 265.045L42.2305 264.18Z" fill="#AEC4E3"/>
<path fill-rule="evenodd" clip-rule="evenodd" d="M0.149246 288.177L41.7301 264.179L42.23 265.045L0.649101 289.043L0.149246 288.177Z" fill="#AEC4E3"/>
<path fill-rule="evenodd" clip-rule="evenodd" d="M166.392 241.048L124.812 216.97L125.313 216.105L166.894 240.182L166.392 241.048Z" fill="#AEC4E3"/>
<path fill-rule="evenodd" clip-rule="evenodd" d="M208.474 216.97L166.893 241.048L166.392 240.182L207.973 216.105L208.474 216.97Z" fill="#AEC4E3"/>
<path fill-rule="evenodd" clip-rule="evenodd" d="M166.893 192.107L208.474 216.105L207.974 216.971L166.393 192.973L166.893 192.107Z" fill="#AEC4E3"/>
<path fill-rule="evenodd" clip-rule="evenodd" d="M124.812 216.105L166.393 192.107L166.893 192.973L125.312 216.971L124.812 216.105Z" fill="#AEC4E3"/>
<path fill-rule="evenodd" clip-rule="evenodd" d="M167.143 144.545L167.143 192.54L166.143 192.54L166.143 144.545L167.143 144.545Z" fill="#AEC4E3"/>
<path fill-rule="evenodd" clip-rule="evenodd" d="M125.562 168.543L125.562 216.538L124.562 216.538L124.562 168.543L125.562 168.543Z" fill="#AEC4E3"/>
<path fill-rule="evenodd" clip-rule="evenodd" d="M83.2301 241.048L41.7292 216.97L42.231 216.105L83.7319 240.183L83.2301 241.048Z" fill="#AEC4E3"/>
<path fill-rule="evenodd" clip-rule="evenodd" d="M125.312 216.97L83.7316 241.048L83.2305 240.182L124.811 216.105L125.312 216.97Z" fill="#AEC4E3"/>
<path fill-rule="evenodd" clip-rule="evenodd" d="M41.7299 168.11L83.2309 144.112L83.7314 144.978L42.2305 168.976L41.7299 168.11Z" fill="#AEC4E3"/>
<path fill-rule="evenodd" clip-rule="evenodd" d="M83.7311 192.107L125.312 216.105L124.812 216.971L83.2313 192.973L83.7311 192.107Z" fill="#AEC4E3"/>
<path fill-rule="evenodd" clip-rule="evenodd" d="M83.981 144.545L83.981 192.54L82.981 192.54L82.981 144.545L83.981 144.545Z" fill="#AEC4E3"/>
<path fill-rule="evenodd" clip-rule="evenodd" d="M124.812 168.976L83.2313 144.978L83.7311 144.112L125.312 168.109L124.812 168.976Z" fill="#AEC4E3"/>
<path fill-rule="evenodd" clip-rule="evenodd" d="M166.893 144.978L125.312 168.976L124.812 168.109L166.393 144.112L166.893 144.978Z" fill="#AEC4E3"/>
<path fill-rule="evenodd" clip-rule="evenodd" d="M125.312 120.114L166.893 144.112L166.393 144.978L124.812 120.981L125.312 120.114Z" fill="#AEC4E3"/>
<path fill-rule="evenodd" clip-rule="evenodd" d="M83.2313 144.112L124.812 120.114L125.312 120.981L83.7311 144.978L83.2313 144.112Z" fill="#AEC4E3"/>
<path fill-rule="evenodd" clip-rule="evenodd" d="M167.143 144.545L166.143 144.545L166.143 96.7586L125.562 73.3383L125.562 120.547L124.562 120.547L124.562 71.6065L167.143 96.1812L167.143 144.545Z" fill="#AEC4E3"/>
<path fill-rule="evenodd" clip-rule="evenodd" d="M208.474 120.114L250.055 144.112L249.555 144.978L207.974 120.981L208.474 120.114Z" fill="#AEC4E3"/>
<path fill-rule="evenodd" clip-rule="evenodd" d="M166.393 144.112L207.974 120.114L208.474 120.981L166.893 144.978L166.393 144.112Z" fill="#AEC4E3"/>
<path fill-rule="evenodd" clip-rule="evenodd" d="M208.724 72.4723L208.724 120.547L207.724 120.547L207.724 72.4723L208.724 72.4723Z" fill="#AEC4E3"/>
<path fill-rule="evenodd" clip-rule="evenodd" d="M457.459 313.041L415.878 289.043L416.378 288.177L457.959 312.174L457.459 313.041Z" fill="#AEC4E3"/>
<path fill-rule="evenodd" clip-rule="evenodd" d="M416.628 288.61L415.628 288.61L415.628 240.904L374.296 216.971L374.798 216.105L416.628 240.327L416.628 288.61Z" fill="#AEC4E3"/>
<path fill-rule="evenodd" clip-rule="evenodd" d="M457.959 264.179L499.54 288.177L499.04 289.043L457.459 265.045L457.959 264.179Z" fill="#AEC4E3"/>
<path fill-rule="evenodd" clip-rule="evenodd" d="M415.878 288.177L457.459 264.179L457.959 265.045L416.378 289.043L415.878 288.177Z" fill="#AEC4E3"/>
<path fill-rule="evenodd" clip-rule="evenodd" d="M458.209 216.538L458.209 264.613L457.209 264.613L457.209 216.538L458.209 216.538Z" fill="#AEC4E3"/>
<path fill-rule="evenodd" clip-rule="evenodd" d="M541.371 312.608L541.371 360.603L540.371 360.603L540.371 312.608L541.371 312.608Z" fill="#AEC4E3"/>
<path fill-rule="evenodd" clip-rule="evenodd" d="M499.039 385.113L457.459 361.035L457.96 360.17L499.541 384.247L499.039 385.113Z" fill="#AEC4E3"/>
<path fill-rule="evenodd" clip-rule="evenodd" d="M541.121 361.035L499.54 385.113L499.039 384.247L540.62 360.17L541.121 361.035Z" fill="#AEC4E3"/>
<path fill-rule="evenodd" clip-rule="evenodd" d="M457.209 360.603L457.209 312.608L458.209 312.608L458.209 360.603L457.209 360.603Z" fill="#AEC4E3"/>
<path fill-rule="evenodd" clip-rule="evenodd" d="M457.459 312.174L499.04 288.177L499.54 289.043L457.959 313.041L457.459 312.174Z" fill="#AEC4E3"/>
<path fill-rule="evenodd" clip-rule="evenodd" d="M499.54 336.172L541.121 360.17L540.621 361.036L499.04 337.038L499.54 336.172Z" fill="#AEC4E3"/>
<path fill-rule="evenodd" clip-rule="evenodd" d="M457.459 360.17L499.04 336.172L499.54 337.038L457.959 361.036L457.459 360.17Z" fill="#AEC4E3"/>
<path fill-rule="evenodd" clip-rule="evenodd" d="M499.79 288.61L499.79 336.605L498.79 336.605L498.79 288.61L499.79 288.61Z" fill="#AEC4E3"/>
<path fill-rule="evenodd" clip-rule="evenodd" d="M832.357 240.615L832.357 288.61L831.357 288.61L831.357 240.615L832.357 240.615Z" fill="#AEC4E3"/>
<path fill-rule="evenodd" clip-rule="evenodd" d="M790.026 313.041L748.445 289.043L748.945 288.177L790.526 312.174L790.026 313.041Z" fill="#AEC4E3"/>
<path fill-rule="evenodd" clip-rule="evenodd" d="M832.107 289.043L790.526 313.041L790.026 312.174L831.607 288.177L832.107 289.043Z" fill="#AEC4E3"/>
<path fill-rule="evenodd" clip-rule="evenodd" d="M915.519 288.61L915.519 336.605L914.519 336.605L914.519 288.61L915.519 288.61Z" fill="#AEC4E3"/>
<path fill-rule="evenodd" clip-rule="evenodd" d="M873.188 361.036L831.607 337.038L832.107 336.172L873.688 360.17L873.188 361.036Z" fill="#AEC4E3"/>
<path fill-rule="evenodd" clip-rule="evenodd" d="M915.269 337.038L873.688 361.036L873.188 360.17L914.769 336.172L915.269 337.038Z" fill="#AEC4E3"/>
<path fill-rule="evenodd" clip-rule="evenodd" d="M831.357 336.605L831.357 288.61L832.357 288.61L832.357 336.605L831.357 336.605Z" fill="#AEC4E3"/>
<path fill-rule="evenodd" clip-rule="evenodd" d="M873.438 265.19L914.769 289.043L915.269 288.177L873.438 264.035L831.607 288.177L832.107 289.043L873.438 265.19Z" fill="#AEC4E3"/>
<path fill-rule="evenodd" clip-rule="evenodd" d="M873.688 312.174L915.269 336.172L914.769 337.038L873.188 313.041L873.688 312.174Z" fill="#AEC4E3"/>
<path fill-rule="evenodd" clip-rule="evenodd" d="M831.607 336.172L873.188 312.174L873.688 313.041L832.107 337.038L831.607 336.172Z" fill="#AEC4E3"/>
<path fill-rule="evenodd" clip-rule="evenodd" d="M873.938 264.612L873.938 312.607L872.938 312.607L872.938 264.612L873.938 264.612Z" fill="#AEC4E3"/>
<path fill-rule="evenodd" clip-rule="evenodd" d="M956.35 313.041L914.769 289.043L915.269 288.177L956.85 312.174L956.35 313.041Z" fill="#AEC4E3"/>
<path fill-rule="evenodd" clip-rule="evenodd" d="M914.519 289.476L914.519 240.327L957.1 215.67L957.1 264.901L914.519 289.476ZM956.1 264.324L956.1 217.405L915.519 240.903L915.519 287.744L956.1 264.324Z" fill="#AEC4E3"/>
<path fill-rule="evenodd" clip-rule="evenodd" d="M748.195 288.61L748.195 240.327L790.026 216.105L790.527 216.97L749.195 240.903L749.195 288.61L748.195 288.61Z" fill="#AEC4E3"/>
<path fill-rule="evenodd" clip-rule="evenodd" d="M790.276 265.19L831.607 289.043L832.107 288.177L790.276 264.035L748.445 288.177L748.945 289.043L790.276 265.19Z" fill="#AEC4E3"/>
<path fill-rule="evenodd" clip-rule="evenodd" d="M706.864 313.041L665.284 289.043L665.783 288.177L707.364 312.174L706.864 313.041Z" fill="#AEC4E3"/>
<path fill-rule="evenodd" clip-rule="evenodd" d="M665.033 288.61L665.033 240.615L666.033 240.615L666.033 288.61L665.033 288.61Z" fill="#AEC4E3"/>
<path fill-rule="evenodd" clip-rule="evenodd" d="M707.364 264.179L748.945 288.177L748.445 289.043L706.865 265.045L707.364 264.179Z" fill="#AEC4E3"/>
<path fill-rule="evenodd" clip-rule="evenodd" d="M665.284 288.177L706.864 264.179L707.364 265.045L665.783 289.043L665.284 288.177Z" fill="#AEC4E3"/>
<path fill-rule="evenodd" clip-rule="evenodd" d="M707.614 264.613L706.614 264.613L706.614 217.405L665.784 241.048L665.283 240.183L707.614 215.67L707.614 264.613Z" fill="#AEC4E3"/>
<path fill-rule="evenodd" clip-rule="evenodd" d="M624.283 216.105L665.784 240.182L665.282 241.047L623.781 216.97L624.283 216.105Z" fill="#AEC4E3"/>
<path fill-rule="evenodd" clip-rule="evenodd" d="M581.952 288.61L581.952 240.615L582.952 240.615L582.952 288.61L581.952 288.61Z" fill="#AEC4E3"/>
<path fill-rule="evenodd" clip-rule="evenodd" d="M624.283 264.18L665.784 288.177L665.283 289.043L623.782 265.045L624.283 264.18Z" fill="#AEC4E3"/>
<path fill-rule="evenodd" clip-rule="evenodd" d="M582.201 288.177L623.782 264.179L624.282 265.045L582.701 289.043L582.201 288.177Z" fill="#AEC4E3"/>
<path fill-rule="evenodd" clip-rule="evenodd" d="M624.533 216.538L624.533 264.613L623.533 264.613L623.533 216.538L624.533 216.538Z" fill="#AEC4E3"/>
<path fill-rule="evenodd" clip-rule="evenodd" d="M582.702 289.043L541.121 313.041L540.621 312.174L582.202 288.177L582.702 289.043Z" fill="#AEC4E3"/>
<path fill-rule="evenodd" clip-rule="evenodd" d="M499.79 240.903L499.79 288.61L498.79 288.61L498.79 240.327L540.62 216.105L541.121 216.97L499.79 240.903Z" fill="#AEC4E3"/>
<path fill-rule="evenodd" clip-rule="evenodd" d="M541.121 264.179L582.702 288.177L582.202 289.043L540.621 265.045L541.121 264.179Z" fill="#AEC4E3"/>
<path fill-rule="evenodd" clip-rule="evenodd" d="M499.04 288.177L540.621 264.179L541.121 265.045L499.54 289.043L499.04 288.177Z" fill="#AEC4E3"/>
<path fill-rule="evenodd" clip-rule="evenodd" d="M541.371 216.538L541.371 264.613L540.371 264.613L540.371 216.538L541.371 216.538Z" fill="#AEC4E3"/>
<path fill-rule="evenodd" clip-rule="evenodd" d="M707.614 312.608L707.614 360.603L706.614 360.603L706.614 312.608L707.614 312.608Z" fill="#AEC4E3"/>
<path fill-rule="evenodd" clip-rule="evenodd" d="M665.282 385.113L623.781 361.035L624.283 360.17L665.784 384.248L665.282 385.113Z" fill="#AEC4E3"/>
<path fill-rule="evenodd" clip-rule="evenodd" d="M707.365 361.035L665.784 385.113L665.283 384.247L706.864 360.17L707.365 361.035Z" fill="#AEC4E3"/>
<path fill-rule="evenodd" clip-rule="evenodd" d="M623.533 360.603L623.533 312.608L624.533 312.608L624.533 360.603L623.533 360.603Z" fill="#AEC4E3"/>
<path fill-rule="evenodd" clip-rule="evenodd" d="M623.782 312.175L665.283 288.177L665.784 289.043L624.283 313.041L623.782 312.175Z" fill="#AEC4E3"/>
<path fill-rule="evenodd" clip-rule="evenodd" d="M665.783 336.172L707.364 360.17L706.864 361.036L665.284 337.038L665.783 336.172Z" fill="#AEC4E3"/>
<path fill-rule="evenodd" clip-rule="evenodd" d="M623.782 360.17L665.283 336.172L665.784 337.038L624.283 361.036L623.782 360.17Z" fill="#AEC4E3"/>
<path fill-rule="evenodd" clip-rule="evenodd" d="M666.033 288.61L666.033 336.605L665.033 336.605L665.033 288.61L666.033 288.61Z" fill="#AEC4E3"/>
<path fill-rule="evenodd" clip-rule="evenodd" d="M416.628 288.61L416.628 336.605L415.628 336.605L415.628 288.61L416.628 288.61Z" fill="#AEC4E3"/>
<path fill-rule="evenodd" clip-rule="evenodd" d="M416.378 289.043L374.797 313.041L374.297 312.174L415.878 288.177L416.378 289.043Z" fill="#AEC4E3"/>
<path fill-rule="evenodd" clip-rule="evenodd" d="M208.224 169.12L166.393 144.978L166.893 144.112L208.224 167.966L249.555 144.112L250.055 144.978L208.224 169.12Z" fill="#AEC4E3"/>
<path fill-rule="evenodd" clip-rule="evenodd" d="M125.062 313.185L83.2309 289.043L83.7307 288.177L125.062 312.03L166.143 288.322L166.143 240.615L167.143 240.615L167.143 288.899L125.062 313.185Z" fill="#AEC4E3"/>
<path fill-rule="evenodd" clip-rule="evenodd" d="M332.966 241.193L291.135 216.97L291.636 216.105L332.966 240.037L374.297 216.105L374.798 216.97L332.966 241.193Z" fill="#AEC4E3"/>
</g>
<defs>
<clipPath id="clip0_520_12951">
<rect width="957" height="385" fill="white" transform="translate(957 385) rotate(180)"/>
</clipPath>
</defs>
</svg>
