<svg width="279" height="63" viewBox="0 0 279 63" fill="none" xmlns="http://www.w3.org/2000/svg">
<path d="M170.976 45.192C170.976 45.3413 170.912 45.5227 170.784 45.736C169.334 48.1467 167.83 49.352 166.272 49.352C165.056 49.352 164.448 48.584 164.448 47.048C164.448 45.6827 164.758 44.4773 165.376 43.432C163.883 44.776 162.358 46.632 160.8 49C160.672 49.192 160.576 49.288 160.512 49.288C160.32 49.288 160.224 49.096 160.224 48.712C160.224 48.6053 160.246 48.52 160.288 48.456C160.736 47.368 161.206 45.8213 161.696 43.816C161.76 43.4747 161.867 42.9733 162.016 42.312C162.08 42.1627 162.23 42.0133 162.464 41.864C162.699 41.7147 162.912 41.64 163.104 41.64C163.254 41.64 163.328 41.704 163.328 41.832C163.328 42.0453 162.827 43.6667 161.824 46.696C162.08 46.3547 162.88 45.448 164.224 43.976C164.672 43.464 165.334 42.7387 166.208 41.8C166.379 41.6507 166.55 41.576 166.72 41.576C167.211 41.576 167.456 41.8213 167.456 42.312C167.456 42.4187 167.414 42.5467 167.328 42.696C166.134 44.6587 165.536 46.216 165.536 47.368C165.536 48.1787 165.92 48.584 166.688 48.584C167.286 48.584 167.926 48.2747 168.608 47.656C169.056 47.272 169.558 46.696 170.112 45.928C170.56 45.3093 170.816 45 170.88 45C170.944 45 170.976 45.064 170.976 45.192ZM178.219 45.544C178.219 45.5867 178.197 45.6293 178.155 45.672C177.856 46.184 177.397 46.6213 176.779 46.984C176.181 47.3467 175.595 47.528 175.019 47.528C174.592 47.528 174.197 47.4213 173.835 47.208C172.853 48.7653 171.84 49.544 170.795 49.544C170.048 49.544 169.675 49.1067 169.675 48.232C169.675 47.016 170.208 45.5867 171.275 43.944C171.232 43.7093 171.211 43.4747 171.211 43.24C171.211 42.472 171.467 41.7253 171.979 41C172.491 40.2747 173.12 39.912 173.867 39.912C174.357 39.912 174.752 40.2 175.051 40.776C175.285 41.2667 175.403 41.7787 175.403 42.312C175.403 43.464 174.955 44.9253 174.059 46.696C174.379 46.888 174.741 46.984 175.147 46.984C175.851 46.984 176.512 46.7067 177.131 46.152C177.749 45.5973 178.037 45.32 177.995 45.32C178.144 45.32 178.219 45.3947 178.219 45.544ZM174.443 43.112C174.443 42.6427 174.368 42.1627 174.219 41.672C174.005 40.9893 173.728 40.648 173.387 40.648C172.896 40.648 172.512 40.9467 172.235 41.544C172.021 42.0133 171.925 42.5253 171.947 43.08C172.288 42.6747 172.629 42.472 172.971 42.472C173.291 42.472 173.525 42.5787 173.675 42.792C173.675 42.8133 173.675 42.8667 173.675 42.952C173.696 43.016 173.707 43.0693 173.707 43.112C173.707 43.176 173.6 43.208 173.387 43.208C173.003 43.208 172.597 43.6133 172.171 44.424C172.448 45.2347 172.939 45.896 173.643 46.408C174.176 45.064 174.443 43.9653 174.443 43.112ZM173.387 46.856C172.683 46.3867 172.149 45.8427 171.787 45.224C171.147 46.568 170.827 47.5387 170.827 48.136C170.827 48.5627 170.987 48.776 171.307 48.776C171.605 48.776 172 48.52 172.491 48.008C172.917 47.6027 173.216 47.2187 173.387 46.856ZM191.259 31.528C191.259 33.064 189.915 35.208 187.227 37.96C185.499 39.7093 183.451 41.48 181.083 43.272C180.657 44.168 180.305 45.032 180.027 45.864C181.094 44.7973 182.15 43.7413 183.195 42.696C184.774 41.2027 185.937 40.456 186.683 40.456C187.238 40.456 187.515 40.8613 187.515 41.672C187.515 42.504 186.939 43.3147 185.787 44.104C184.721 44.8507 183.761 45.2027 182.907 45.16C183.355 47.208 184.209 48.232 185.467 48.232C186.705 48.232 188.059 47.2613 189.531 45.32C189.659 45.128 189.787 45.032 189.915 45.032C190.022 45.032 190.075 45.0853 190.075 45.192C190.075 45.2773 190.033 45.384 189.947 45.512C189.435 46.2587 188.71 47.048 187.771 47.88C186.641 48.904 185.755 49.416 185.115 49.416C184.326 49.416 183.537 48.872 182.747 47.784C182.022 46.8027 181.606 45.8853 181.499 45.032C180.987 45.6293 180.486 46.216 179.995 46.792C179.505 47.432 179.185 48.168 179.035 49C178.801 49.1067 178.555 49.16 178.299 49.16C177.83 49.16 177.595 49.0533 177.595 48.84C177.595 48.3493 178.043 47.08 178.939 45.032C180.262 42.0027 181.766 39.144 183.451 36.456C186.054 32.296 188.177 30.216 189.819 30.216C190.779 30.216 191.259 30.6533 191.259 31.528ZM190.523 31.976C190.523 31.528 190.342 31.304 189.979 31.304C189.425 31.304 188.571 31.7947 187.419 32.776C185.393 34.4613 183.675 37.0213 182.267 40.456C181.947 41.2453 181.787 41.704 181.787 41.832C183.302 40.8933 185.041 39.4 187.003 37.352C189.35 34.9627 190.523 33.1707 190.523 31.976ZM186.139 42.152C186.139 41.7253 186.001 41.512 185.723 41.512C185.297 41.512 184.134 42.504 182.235 44.488C182.321 44.6587 182.513 44.744 182.811 44.744C183.451 44.744 184.166 44.4667 184.955 43.912C185.745 43.336 186.139 42.7493 186.139 42.152ZM200.419 45.192C200.419 45.3413 200.355 45.5227 200.227 45.736C199.673 46.6533 198.755 47.5707 197.475 48.488C196.11 49.512 194.958 50.024 194.019 50.024C193.827 50.024 193.539 50.0133 193.155 49.992C192.793 49.992 192.515 49.992 192.323 49.992C192.238 49.992 191.918 49.9173 191.363 49.768C190.702 51.4747 189.806 53.2667 188.675 55.144C187.075 57.7467 185.774 59.048 184.771 59.048C184.238 59.048 183.971 58.6533 183.971 57.864C183.971 56.8187 184.931 54.8773 186.851 52.04C188.217 50.1627 189.593 48.2747 190.979 46.376V46.184C190.979 45.416 190.969 44.744 190.947 44.168C190.137 45.4907 189.625 46.152 189.411 46.152C189.283 46.152 189.219 46.0773 189.219 45.928C189.219 45.8427 189.251 45.7573 189.315 45.672C190.254 44.3493 190.723 43.1653 190.723 42.12C190.723 41.9067 190.659 41.736 190.531 41.608C190.425 41.4587 190.371 41.3413 190.371 41.256C190.371 41.1707 190.702 41.128 191.363 41.128C192.089 41.128 192.451 41.8533 192.451 43.304C192.451 43.5173 192.43 43.8373 192.387 44.264C192.366 44.6693 192.355 44.968 192.355 45.16C192.953 44.072 193.614 43.0693 194.339 42.152C195.449 40.7867 196.377 40.104 197.123 40.104C197.806 40.104 198.147 40.6053 198.147 41.608C198.147 42.8667 197.699 44.328 196.803 45.992C195.929 47.656 194.969 48.8187 193.923 49.48C195.779 49.4373 197.838 47.9973 200.099 45.16C200.185 45.0533 200.249 45 200.291 45C200.377 45 200.419 45.064 200.419 45.192ZM196.739 42.28C196.739 41.6187 196.558 41.288 196.195 41.288C196.089 41.288 195.982 41.3093 195.875 41.352C195.107 41.6933 194.297 42.6853 193.443 44.328C192.803 45.544 192.291 46.792 191.907 48.072C192.121 48.392 192.494 48.7973 193.027 49.288C193.966 48.8827 194.83 47.8693 195.619 46.248C196.366 44.712 196.739 43.3893 196.739 42.28ZM190.691 48.104C190.67 48.0827 190.649 48.072 190.627 48.072C190.542 48.072 190.425 48.1787 190.275 48.392C189.763 49.16 188.995 50.2907 187.971 51.784C187.523 52.424 186.958 53.3947 186.275 54.696C185.486 56.2107 185.091 57.192 185.091 57.64C185.091 57.832 185.155 57.928 185.283 57.928C186.222 57.928 187.513 56.392 189.155 53.32C189.582 52.5093 190.041 51.112 190.531 49.128C190.51 49.0213 190.499 48.9147 190.499 48.808C190.499 48.552 190.563 48.3173 190.691 48.104ZM206.792 49.736C206.792 49.864 206.76 49.928 206.696 49.928C206.675 49.928 206.579 49.8747 206.408 49.768C206.238 49.6613 205.928 49.608 205.48 49.608C205.267 49.608 205.064 49.6187 204.872 49.64C204.062 52.84 203.048 55.3253 201.832 57.096C199.528 60.4667 197.064 62.152 194.44 62.152C193.416 62.152 192.563 61.8533 191.88 61.256C191.176 60.6587 190.824 59.8587 190.824 58.856C190.824 56.5733 192.456 54.3867 195.72 52.296C198.451 50.5253 201.107 49.4373 203.688 49.032C203.987 47.7093 204.328 45.7467 204.712 43.144C204.456 43.7627 203.998 44.584 203.336 45.608C202.675 46.6107 202.11 47.3573 201.64 47.848C201.086 48.424 200.563 48.712 200.072 48.712C199.39 48.712 199.048 48.1147 199.048 46.92C199.048 46.2373 199.262 45.416 199.688 44.456C200.179 43.3467 200.723 42.792 201.32 42.792C201.619 42.792 201.768 42.8773 201.768 43.048C201.768 43.0693 201.502 43.56 200.968 44.52C200.435 45.4587 200.168 46.184 200.168 46.696C200.168 47.3787 200.36 47.72 200.744 47.72C201.406 47.72 202.846 45.576 205.064 41.288C205.107 40.968 205.374 40.808 205.864 40.808C206.248 40.808 206.44 40.8933 206.44 41.064C206.44 41.3413 206.302 42.248 206.024 43.784C205.704 45.5973 205.352 47.336 204.968 49H205.096C206.227 48.9573 206.792 49.2027 206.792 49.736ZM203.656 49.608C202.248 49.8427 200.574 50.4507 198.632 51.432C196.691 52.4133 195.208 53.3947 194.184 54.376C192.563 55.912 191.752 57.4373 191.752 58.952C191.752 59.784 192.019 60.4453 192.552 60.936C193.064 61.448 193.747 61.704 194.6 61.704C195.902 61.704 197.192 61.1493 198.472 60.04C199.496 59.1653 200.403 58.0453 201.192 56.68C202.323 54.76 203.144 52.4027 203.656 49.608ZM221.397 45.48C221.397 45.5653 221.376 45.6293 221.333 45.672C220.8 46.4187 220.203 47.112 219.541 47.752C218.624 48.6053 217.856 49.032 217.237 49.032C216.235 49.032 215.733 47.9227 215.733 45.704C215.733 45.3627 215.744 44.9787 215.765 44.552C214.997 45.2347 214.133 46.4613 213.173 48.232C212.853 48.8293 212.501 49.128 212.117 49.128C211.989 49.128 211.893 49.0853 211.829 49C211.765 48.7653 211.733 48.4667 211.733 48.104C211.733 47.4853 211.872 46.3547 212.149 44.712C212.299 43.88 212.373 43.3467 212.373 43.112C212.373 42.9413 212.341 42.856 212.277 42.856C211.915 43.176 211.328 43.8693 210.517 44.936C209.643 46.088 208.704 47.4427 207.701 49C207.573 49.192 207.467 49.288 207.381 49.288C207.211 49.288 207.125 49.096 207.125 48.712C207.125 48.6053 207.136 48.52 207.157 48.456C207.648 47.304 208.149 45.6827 208.661 43.592C208.704 43.2933 208.789 42.8667 208.917 42.312C208.96 42.1627 209.099 42.0133 209.333 41.864C209.589 41.7147 209.803 41.64 209.973 41.64C210.123 41.64 210.197 41.704 210.197 41.832C210.197 42.0453 209.696 43.6667 208.693 46.696C209.461 45.672 210.251 44.616 211.061 43.528C211.317 43.1867 211.701 42.6747 212.213 41.992C212.533 41.608 212.864 41.416 213.205 41.416C213.547 41.416 213.717 41.608 213.717 41.992C213.717 42.2693 213.643 42.824 213.493 43.656C213.344 44.4667 213.173 45.6613 212.981 47.24C213.579 46.3867 214.507 45.1387 215.765 43.496C216.107 43.0907 216.448 42.888 216.789 42.888C217.109 42.888 217.269 43.0907 217.269 43.496C217.269 43.8373 217.216 44.3493 217.109 45.032C217.003 45.6933 216.949 46.1947 216.949 46.536C216.949 47.6453 217.237 48.2 217.813 48.2C218.624 48.2 219.659 47.304 220.917 45.512C221.045 45.2987 221.152 45.192 221.237 45.192C221.344 45.192 221.397 45.288 221.397 45.48ZM218.165 39.528C215.477 38.888 213.504 38.92 212.245 39.624C212.011 39.752 211.819 39.9547 211.669 40.232C211.605 40.3813 211.573 40.584 211.573 40.84C211.573 41.096 211.541 41.288 211.477 41.416L211.349 41.512C211.136 41.6613 211.04 41.512 211.061 41.064C211.104 40.5947 211.211 40.2 211.381 39.88C211.595 39.3893 211.957 39.016 212.469 38.76C213.408 38.2053 214.645 37.992 216.181 38.12C216.565 38.12 217.856 38.3013 220.053 38.664C221.397 38.8987 222.283 38.8987 222.709 38.664C222.965 38.5147 223.147 38.3227 223.253 38.088C223.381 37.8107 223.403 37.5547 223.317 37.32C223.253 37.0853 223.264 36.8827 223.349 36.712C223.392 36.6907 223.413 36.68 223.413 36.68C223.584 36.5733 223.659 36.7867 223.637 37.32C223.637 37.8533 223.573 38.248 223.445 38.504C223.125 39.1227 222.784 39.5493 222.421 39.784C221.888 40.0827 221.045 40.136 219.893 39.944C219.765 39.88 219.509 39.8267 219.125 39.784C218.955 39.784 218.635 39.6987 218.165 39.528ZM230.832 45.192C230.832 45.3413 230.768 45.5227 230.64 45.736C230.043 46.7173 229.35 47.5707 228.56 48.296C227.536 49.2347 226.576 49.704 225.68 49.704C224.486 49.704 223.888 48.9573 223.888 47.464C223.888 47.1227 224.048 46.4507 224.368 45.448C223.622 46.536 223.142 47.208 222.928 47.464C222.224 48.296 221.595 48.712 221.04 48.712C220.336 48.712 219.984 48.1147 219.984 46.92C219.984 46.2373 220.208 45.416 220.656 44.456C221.147 43.3467 221.68 42.792 222.256 42.792C222.576 42.792 222.736 42.8773 222.736 43.048C222.736 43.0693 222.459 43.56 221.904 44.52C221.371 45.4587 221.104 46.184 221.104 46.696C221.104 47.3787 221.307 47.72 221.712 47.72C222.395 47.72 223.622 46.1627 225.392 43.048C225.542 42.7493 225.766 42.3333 226.064 41.8C226.214 41.6293 226.374 41.544 226.544 41.544C226.736 41.544 226.907 41.6293 227.056 41.8C227.227 41.9493 227.312 42.1307 227.312 42.344C227.312 42.3227 226.928 43.0373 226.16 44.488C225.414 45.9387 225.04 47.0587 225.04 47.848C225.04 48.5947 225.392 48.968 226.096 48.968C226.694 48.968 227.376 48.6267 228.144 47.944C228.656 47.496 229.232 46.856 229.872 46.024C230.406 45.3413 230.694 45 230.736 45C230.8 45 230.832 45.064 230.832 45.192ZM241.055 43.368C240.629 44.264 240.17 45.16 239.679 46.056C239.189 46.9307 238.73 47.5813 238.303 48.008C237.706 48.584 237.141 48.9573 236.607 49.128C236.074 49.2987 235.626 49.288 235.263 49.096C234.901 48.9253 234.634 48.584 234.463 48.072C234.314 47.5387 234.314 46.856 234.463 46.024C234.527 45.6187 234.645 45.3413 234.815 45.192C234.986 45.0427 235.167 44.968 235.359 44.968C235.551 44.968 235.722 45.032 235.871 45.16C236.021 45.2667 236.117 45.3947 236.159 45.544C235.818 46.4187 235.647 47.1227 235.647 47.656C235.669 48.1893 235.818 48.5093 236.095 48.616C236.394 48.7227 236.799 48.6053 237.311 48.264C237.823 47.9013 238.399 47.272 239.039 46.376C239.274 46.056 239.541 45.608 239.839 45.032C240.159 44.456 240.479 43.624 240.799 42.536C241.589 42.1307 242.154 41.9387 242.495 41.96C242.837 41.96 243.018 42.0987 243.039 42.376C243.082 42.632 243.007 42.9947 242.815 43.464C242.623 43.912 242.41 44.392 242.175 44.904C241.941 45.3947 241.717 45.8747 241.503 46.344C241.311 46.792 241.215 47.1547 241.215 47.432C241.279 47.3467 241.397 47.1973 241.567 46.984C241.738 46.7493 241.951 46.4827 242.207 46.184C242.463 45.864 242.741 45.5227 243.039 45.16C243.359 44.7973 243.69 44.4347 244.031 44.072C244.458 43.5813 245.119 42.856 246.015 41.896C246.101 41.8107 246.197 41.736 246.303 41.672C246.41 41.608 246.506 41.576 246.591 41.576C247.082 41.576 247.327 41.8213 247.327 42.312C247.327 42.4187 247.285 42.5467 247.199 42.696C246.005 44.6587 245.407 46.216 245.407 47.368C245.407 48.1787 245.791 48.584 246.559 48.584C247.157 48.584 247.797 48.2747 248.479 47.656C248.949 47.2507 249.45 46.6747 249.983 45.928C250.431 45.3093 250.687 45 250.751 45C250.815 45 250.847 45.064 250.847 45.192C250.847 45.3413 250.783 45.5227 250.655 45.736C249.205 48.1467 247.701 49.352 246.143 49.352C244.927 49.352 244.319 48.584 244.319 47.048C244.319 46.3653 244.383 45.7467 244.511 45.192C244.661 44.616 244.885 44.0613 245.183 43.528C244.757 43.9333 244.362 44.3387 243.999 44.744C243.658 45.1493 243.263 45.6293 242.815 46.184C242.623 46.44 242.431 46.7067 242.239 46.984C242.047 47.2613 241.855 47.5067 241.663 47.72C241.471 47.9333 241.279 48.0933 241.087 48.2C240.895 48.3067 240.693 48.296 240.479 48.168C240.245 48.0187 240.17 47.6987 240.255 47.208C240.362 46.7173 240.511 46.1947 240.703 45.64C240.917 45.0853 241.119 44.584 241.311 44.136C241.503 43.688 241.567 43.432 241.503 43.368C241.503 43.2613 241.429 43.208 241.279 43.208C241.13 43.208 241.055 43.2613 241.055 43.368ZM257.104 45.544C257.104 45.5867 257.083 45.6507 257.04 45.736C256.507 46.568 255.707 47.336 254.64 48.04C253.509 48.7867 252.475 49.16 251.536 49.16C250.192 49.16 249.52 48.3173 249.52 46.632C249.52 45.5227 250 44.3067 250.96 42.984C251.984 41.576 253.04 40.872 254.128 40.872C254.341 40.872 254.523 40.968 254.672 41.16C254.843 41.352 254.928 41.5547 254.928 41.768C254.928 42.4293 254.427 43.2293 253.424 44.168C252.528 45 251.707 45.5547 250.96 45.832C250.811 46.3653 250.736 46.8133 250.736 47.176C250.736 48.0507 251.131 48.488 251.92 48.488C252.667 48.488 253.509 48.1787 254.448 47.56C255.259 47.0267 255.952 46.4187 256.528 45.736C256.677 45.5227 256.827 45.416 256.976 45.416C257.061 45.416 257.104 45.4587 257.104 45.544ZM253.968 42.152C253.968 41.896 253.84 41.768 253.584 41.768C253.264 41.768 252.795 42.2587 252.176 43.24C251.643 44.072 251.312 44.7227 251.184 45.192C251.739 44.9573 252.315 44.5413 252.912 43.944C253.616 43.2613 253.968 42.664 253.968 42.152ZM261.108 43.432C261.172 43.368 261.236 43.2613 261.3 43.112C261.364 42.9627 261.428 42.8027 261.492 42.632C261.577 42.4613 261.652 42.3013 261.716 42.152C261.801 41.9813 261.876 41.864 261.94 41.8C262.089 41.6507 262.26 41.576 262.452 41.576C262.943 41.576 263.188 41.8213 263.188 42.312C263.188 42.4187 263.145 42.5467 263.06 42.696C261.865 44.6587 261.268 46.216 261.268 47.368C261.268 48.1787 261.652 48.584 262.42 48.584C263.017 48.584 263.657 48.2747 264.34 47.656C264.809 47.2507 265.311 46.6747 265.844 45.928C266.292 45.3093 266.548 45 266.612 45C266.676 45 266.708 45.064 266.708 45.192C266.708 45.3413 266.644 45.5227 266.516 45.736C265.065 48.1467 263.561 49.352 262.004 49.352C260.788 49.352 260.18 48.584 260.18 47.048C260.18 46.1947 260.308 45.3947 260.564 44.648C260.052 44.776 259.529 44.9253 258.996 45.096C258.463 45.2667 257.908 45.4693 257.332 45.704C257.289 45.8747 257.236 46.0453 257.172 46.216C257.108 46.3653 257.055 46.5253 257.012 46.696C256.841 47.6987 256.649 48.3813 256.436 48.744C256.223 49.1067 255.977 49.288 255.7 49.288C255.508 49.288 255.412 49.096 255.412 48.712C255.412 48.6267 255.433 48.5413 255.476 48.456C255.711 47.9013 255.945 47.2507 256.18 46.504C256.415 45.736 256.649 44.84 256.884 43.816C256.927 43.6453 256.969 43.4427 257.012 43.208C257.055 42.952 257.119 42.6533 257.204 42.312C257.268 42.1627 257.417 42.0133 257.652 41.864C257.887 41.7147 258.1 41.64 258.292 41.64C258.441 41.64 258.516 41.704 258.516 41.832C258.516 41.9387 258.431 42.2693 258.26 42.824C258.089 43.3573 257.844 44.136 257.524 45.16C257.823 45.0533 258.185 44.936 258.612 44.808C259.039 44.6587 259.54 44.4987 260.116 44.328C260.265 44.3067 260.479 44.2427 260.756 44.136C260.863 43.9013 260.98 43.6667 261.108 43.432ZM273.848 43.944C274.318 43.9867 274.552 44.232 274.552 44.68C274.552 44.7227 274.51 44.8507 274.424 45.064C274.19 45.5547 273.966 45.9813 273.752 46.344C273.56 46.7067 273.464 47.0907 273.464 47.496C273.464 48.3067 273.848 48.712 274.616 48.712C275.214 48.712 275.854 48.4027 276.536 47.784C277.006 47.3787 277.507 46.8027 278.04 46.056C278.488 45.4373 278.744 45.128 278.808 45.128C278.872 45.128 278.904 45.192 278.904 45.32C278.904 45.4693 278.84 45.6507 278.712 45.864C277.262 48.2747 275.758 49.48 274.2 49.48C272.984 49.48 272.376 48.712 272.376 47.176C272.376 47.0267 272.376 46.888 272.376 46.76C272.376 46.6107 272.387 46.472 272.408 46.344C272.494 46.0453 272.611 45.7253 272.76 45.384C272.632 45.4267 272.504 45.4587 272.376 45.48C272.248 45.5013 272.131 45.512 272.024 45.512C271.662 46.0027 271.299 46.472 270.936 46.92C270.574 47.3467 270.339 47.6133 270.232 47.72C269.635 48.296 269.048 48.6907 268.472 48.904C267.896 49.096 267.395 49.1173 266.968 48.968C266.542 48.8187 266.222 48.4987 266.008 48.008C265.816 47.5173 265.795 46.856 265.944 46.024C266.008 45.6187 266.126 45.3413 266.296 45.192C266.467 45.0427 266.648 44.968 266.84 44.968C267.032 44.968 267.203 45.032 267.352 45.16C267.502 45.2667 267.598 45.3947 267.64 45.544C267.299 46.4187 267.128 47.1227 267.128 47.656C267.15 48.1893 267.299 48.5093 267.576 48.616C267.875 48.7227 268.28 48.6053 268.792 48.264C269.304 47.9013 269.88 47.272 270.52 46.376C270.648 46.2053 270.84 45.928 271.096 45.544C270.456 45.5227 269.88 45.3733 269.368 45.096C268.878 44.8187 268.547 44.4667 268.376 44.04C268.206 43.592 268.238 43.1227 268.472 42.632C268.707 42.12 269.23 41.6293 270.04 41.16C270.616 40.84 271.107 40.68 271.512 40.68C271.918 40.6587 272.238 40.7547 272.472 40.968C272.728 41.16 272.899 41.4373 272.984 41.8C273.091 42.1413 273.134 42.5147 273.112 42.92C273.091 43.3253 273.016 43.72 272.888 44.104C272.76 44.4667 272.579 44.776 272.344 45.032C272.451 45.032 272.558 45.032 272.664 45.032C272.771 45.032 272.878 45.0107 272.984 44.968C273.283 44.4347 273.496 44.136 273.624 44.072C273.752 43.9867 273.827 43.944 273.848 43.944ZM272.248 42.056C271.352 41.7573 270.702 41.7147 270.296 41.928C269.912 42.12 269.71 42.4187 269.688 42.824C269.667 43.208 269.816 43.624 270.136 44.072C270.478 44.4987 270.936 44.7867 271.512 44.936C271.704 44.6373 271.875 44.328 272.024 44.008C272.195 43.688 272.312 43.4 272.376 43.144C272.462 42.8667 272.494 42.632 272.472 42.44C272.472 42.2267 272.398 42.0987 272.248 42.056Z" fill="#0F90D1"/>
<path d="M120 36L120.449 36.22L120 36ZM0.501452 49.7084C0.522485 49.9837 0.762743 50.1899 1.03808 50.1689L5.52501 49.8261C5.80035 49.8051 6.00651 49.5648 5.98548 49.2895C5.96444 49.0141 5.72419 48.808 5.44885 48.829L1.46046 49.1337L1.1558 45.1453C1.13477 44.87 0.894512 44.6638 0.619172 44.6848C0.343832 44.7059 0.137675 44.9461 0.158707 45.2215L0.501452 49.7084ZM1.37945 49.9959C1.99927 49.2736 2.62947 48.5621 3.26957 47.8616L2.53134 47.187C1.88428 47.8952 1.24719 48.6144 0.620545 49.3447L1.37945 49.9959ZM5.89033 45.1088C7.23187 43.7559 8.61114 42.4472 10.0244 41.1823L9.35748 40.4372C7.92973 41.715 6.53604 43.0375 5.18025 44.4047L5.89033 45.1088ZM12.9061 38.7021C14.3736 37.4873 15.873 36.317 17.4004 35.191L16.807 34.3861C15.2648 35.523 13.7507 36.7048 12.2684 37.9317L12.9061 38.7021ZM20.5027 32.9905C22.077 31.9162 23.677 30.8868 25.2989 29.9022L24.7799 29.0474C23.1432 30.0411 21.5282 31.0801 19.939 32.1645L20.5027 32.9905ZM28.585 27.9843C30.249 27.0512 31.9324 26.1635 33.6313 25.3212L33.187 24.4253C31.4733 25.275 29.7749 26.1706 28.0959 27.1121L28.585 27.9843ZM37.0684 23.6875C38.8072 22.8962 40.559 22.1511 42.3194 21.4522L41.9504 20.5227C40.1749 21.2277 38.4081 21.9791 36.6542 22.7774L37.0684 23.6875ZM45.879 20.1055C47.6798 19.4575 49.4866 18.8571 51.2949 18.3042L51.0025 17.3479C49.1787 17.9055 47.3565 18.511 45.5404 19.1646L45.879 20.1055ZM54.9512 17.2509C56.8026 16.7502 58.6524 16.2991 60.4958 15.8974L60.2828 14.9203C58.4232 15.3256 56.5574 15.7806 54.6901 16.2856L54.9512 17.2509ZM64.2236 15.1504C66.1146 14.8047 67.9953 14.5114 69.8605 14.2703L69.7323 13.2785C67.8497 13.5219 65.9517 13.8179 64.0437 14.1667L64.2236 15.1504ZM73.6441 13.8507C75.5643 13.6733 77.4636 13.5525 79.3359 13.4879L79.3015 12.4885C77.4095 12.5537 75.491 12.6758 73.5521 12.8549L73.6441 13.8507ZM83.1332 13.4345C84.091 13.4409 85.0404 13.4626 85.9803 13.4996L86.0197 12.5004C85.0686 12.4629 84.1084 12.441 83.1399 12.4345L83.1332 13.4345ZM85.9803 13.4996C87.0173 13.5404 88.0355 13.5877 89.0344 13.6417L89.0884 12.6431C88.0843 12.5889 87.0612 12.5414 86.0197 12.5004L85.9803 13.4996ZM93.0892 13.9068C95.2152 14.072 97.2396 14.2735 99.1569 14.5152L99.282 13.5231C97.3466 13.2791 95.3062 13.076 93.1667 12.9099L93.0892 13.9068ZM103.169 15.1078C105.312 15.4759 107.287 15.9071 109.085 16.4076L109.353 15.4442C107.516 14.933 105.507 14.4949 103.338 14.1223L103.169 15.1078ZM112.905 17.6841C114.989 18.5205 116.714 19.4911 118.066 20.6063L118.702 19.8348C117.25 18.6372 115.428 17.6194 113.277 16.756L112.905 17.6841ZM120.581 23.5494C121.475 25.1591 121.846 27.0167 121.63 29.1723L122.625 29.272C122.859 26.9364 122.459 24.8708 121.455 23.0637L120.581 23.5494ZM120.725 33.0153C120.413 33.8969 120.022 34.8179 119.551 35.78L120.449 36.22C120.935 35.2276 121.341 34.2712 121.668 33.3495L120.725 33.0153ZM119.551 35.78C119.114 36.6717 118.605 37.4591 118.036 38.1495L118.807 38.7855C119.428 38.0328 119.979 37.1791 120.449 36.22L119.551 35.78ZM115.219 40.5673C113.621 41.516 111.799 42.0454 109.882 42.2087L109.967 43.2051C112.012 43.0309 113.984 42.4637 115.729 41.4271L115.219 40.5673ZM106.099 42.083C104.239 41.8146 102.381 41.2553 100.639 40.4564L100.222 41.3654C102.047 42.2022 103.997 42.79 105.956 43.0728L106.099 42.083ZM97.3425 38.5527C95.7484 37.415 94.3722 36.0624 93.3361 34.5585L92.5126 35.1258C93.6232 36.738 95.0862 38.1709 96.7616 39.3667L97.3425 38.5527ZM91.7028 31.2027C91.1868 29.4692 91.1166 27.6139 91.6307 25.6931L90.6646 25.4346C90.1009 27.541 90.1778 29.5847 90.7443 31.488L91.7028 31.2027ZM93.1484 22.2852C93.6222 21.5298 94.1944 20.7676 94.8739 20.0024L94.1261 19.3384C93.4128 20.1417 92.8068 20.9479 92.3013 21.7538L93.1484 22.2852ZM94.8739 20.0024C95.5378 19.2547 96.21 18.5261 96.8903 17.8174L96.1688 17.1249C95.4793 17.8432 94.7984 18.5813 94.1261 19.3384L94.8739 20.0024ZM99.7085 15.0385C101.182 13.6662 102.689 12.385 104.229 11.2009L103.62 10.4082C102.054 11.6125 100.522 12.9142 99.0269 14.3068L99.7085 15.0385ZM107.442 8.90395C109.113 7.79805 110.819 6.80485 112.556 5.93121L112.107 5.03776C110.332 5.93009 108.593 6.94342 106.891 8.07006L107.442 8.90395ZM116.152 4.31469C117.994 3.58263 119.87 2.98347 121.777 2.52487L121.543 1.55259C119.589 2.02265 117.668 2.6364 115.782 3.38535L116.152 4.31469ZM125.644 1.79575C127.577 1.53054 129.54 1.40873 131.531 1.43813L131.546 0.438242C129.504 0.408092 127.491 0.533006 125.508 0.805027L125.644 1.79575ZM135.457 1.69033C137.369 1.90707 139.305 2.263 141.263 2.76497L141.512 1.79628C139.51 1.28316 137.528 0.918743 135.57 0.696692L135.457 1.69033ZM145.038 3.90537C145.957 4.22508 146.88 4.57702 147.808 4.96187L148.192 4.03813C147.246 3.64599 146.304 3.28711 145.366 2.96088L145.038 3.90537ZM147.808 4.96187C148.742 5.34902 149.65 5.7571 150.531 6.18339L150.967 5.28308C150.068 4.84862 149.143 4.4327 148.192 4.03813L147.808 4.96187ZM154.039 8.04666C155.816 9.07884 157.473 10.1802 159.014 11.3221L159.609 10.5187C158.04 9.35579 156.352 8.23372 154.541 7.18194L154.039 8.04666ZM162.116 13.7996C163.701 15.1611 165.137 16.5491 166.431 17.9198L167.158 17.2333C165.842 15.8391 164.381 14.4269 162.768 13.0411L162.116 13.7996ZM169.062 20.9032C170.472 22.6144 171.651 24.242 172.616 25.6906L173.448 25.1365C172.467 23.6626 171.267 22.0074 169.834 20.2674L169.062 20.9032ZM174.697 29.079C175.157 29.8984 175.495 30.5566 175.716 31.0084C175.827 31.2343 175.909 31.4085 175.963 31.5254C175.99 31.5839 176.01 31.628 176.023 31.6571C176.029 31.6716 176.034 31.6824 176.037 31.6893C176.039 31.6928 176.04 31.6953 176.04 31.6968C176.041 31.6976 176.041 31.6981 176.041 31.6984C176.041 31.6985 176.041 31.6986 176.041 31.6986C176.041 31.6986 176.041 31.6986 176.041 31.6986C176.041 31.6986 176.041 31.6986 176.041 31.6986C176.041 31.6985 176.041 31.6985 176.5 31.5C176.959 31.3016 176.959 31.3015 176.959 31.3015C176.959 31.3015 176.959 31.3014 176.959 31.3014C176.959 31.3013 176.959 31.3012 176.959 31.3011C176.959 31.3008 176.958 31.3005 176.958 31.3002C176.958 31.2995 176.958 31.2985 176.957 31.2973C176.956 31.2949 176.955 31.2916 176.953 31.2872C176.949 31.2786 176.943 31.266 176.936 31.2497C176.922 31.2171 176.9 31.1694 176.871 31.1073C176.814 30.9831 176.729 30.8014 176.614 30.5678C176.385 30.1006 176.039 29.4258 175.568 28.5891L174.697 29.079Z" fill="#0F90D1"/>
</svg>
