<svg width="122" height="55" viewBox="0 0 122 55" fill="none" xmlns="http://www.w3.org/2000/svg">
<path fill-rule="evenodd" clip-rule="evenodd" d="M25.1156 45.5452C24.7289 45.1837 24.4122 44.7627 24.1624 44.286L23.7128 44.6845C23.969 45.1735 24.2938 45.6053 24.6904 45.976L25.1156 45.5452ZM27.5123 46.8061C26.9294 46.6529 26.4133 46.4415 25.9613 46.1751L25.5572 46.6216C26.0202 46.8945 26.5485 47.1108 27.1443 47.2674L27.5123 46.8061ZM23.748 43.2473C23.586 42.6927 23.4899 42.0837 23.4571 41.4241L22.9899 41.7526C23.0235 42.4274 23.1218 43.051 23.2879 43.6196L23.748 43.2473ZM29.6825 47.0956C29.3434 47.0859 29.0192 47.063 28.7096 47.0271L28.3671 47.4931C28.6829 47.5297 29.0135 47.5531 29.3591 47.5629C29.7068 47.5729 30.0586 47.5686 30.4135 47.5515L30.7171 47.0844C30.3689 47.1012 30.0237 47.1053 29.6825 47.0956ZM23.4734 40.0566C23.5209 39.3561 23.6256 38.6106 23.785 37.8232L23.3243 38.0765C23.1619 38.8786 23.055 39.6392 23.0066 40.3547L23.4734 40.0566ZM34.5105 46.4786C33.7322 46.6779 32.9495 46.838 32.1737 46.9459L31.8979 47.4104C32.6884 47.3005 33.4859 47.1373 34.2785 46.9344L34.5105 46.4786ZM24.1644 36.2363C24.3819 35.44 24.647 34.6084 24.9576 33.7441L24.6054 33.8919L24.63 33.8645C24.1662 33.6076 23.6995 33.3135 23.2294 32.9847L22.8172 33.426C23.2903 33.7569 23.7607 34.0534 24.2288 34.3126L24.4792 34.0328C24.18 34.8729 23.923 35.6832 23.7105 36.4611L24.1644 36.2363ZM21.7193 31.8232C21.5268 31.6625 21.3391 31.4934 21.1564 31.3162L20.7296 31.7454C20.9144 31.9247 21.1042 32.0957 21.299 32.2584C21.5122 32.4365 21.7248 32.6084 21.9367 32.7739L22.354 32.3363C22.1431 32.1717 21.9316 32.0006 21.7193 31.8232ZM20.4658 30.5797C20.1416 30.2003 19.8364 29.7917 19.5515 29.3549L19.108 29.7639C19.3957 30.2049 19.7039 30.6176 20.0315 31.001L20.4658 30.5797ZM38.7283 45.0482C37.8984 45.3918 37.0345 45.7161 36.1539 46.001L35.9517 46.4482C36.848 46.1581 37.727 45.8281 38.5711 45.4787L38.7283 45.0482ZM19.0202 28.4644C18.7729 28.0107 18.545 27.5318 18.3377 27.0284L17.8828 27.4157C18.092 27.9236 18.322 28.4069 18.5716 28.8648L19.0202 28.4644ZM27.3055 34.92C26.7533 34.7963 26.1976 34.6098 25.6375 34.3647L25.2474 34.8183C25.8145 35.0665 26.3795 35.2564 26.9435 35.3827L27.3055 34.92ZM17.957 26.0082C17.7825 25.4899 17.6281 24.9492 17.4945 24.387L17.0322 24.7511C17.1669 25.3182 17.3228 25.8636 17.4987 26.3865L17.957 26.0082ZM30.7904 34.8104C30.0589 35.0336 29.3192 35.1249 28.5696 35.0913L28.2423 35.5585C29.0161 35.5932 29.7942 35.4999 30.5797 35.2602L30.7904 34.8104ZM25.6175 32.0251C25.7931 31.5939 25.9786 31.1557 26.1739 30.7109C26.3737 30.2557 26.5925 29.8219 26.8268 29.4096L26.4402 29.4778C26.1902 29.9178 25.959 30.3768 25.7492 30.8546C25.5514 31.305 25.3635 31.7489 25.1855 32.1859L25.6175 32.0251ZM17.2583 23.2491C17.1552 22.6727 17.0727 22.0762 17.0117 21.4604L16.5453 21.7995C16.6068 22.4205 16.69 23.0221 16.794 23.6035L17.2583 23.2491ZM43.2167 42.8841C42.4155 43.323 41.4971 43.798 40.4998 44.2656L40.3727 44.6828C41.3868 44.2073 42.3207 43.7243 43.136 43.2777L43.2167 42.8841ZM16.9192 20.2151C16.8876 19.5851 16.8774 18.9371 16.8894 18.2716L16.422 18.5834C16.4099 19.2546 16.4202 19.9082 16.4521 20.5436L16.9192 20.2151ZM35.1266 31.8134C34.2445 32.7767 33.3797 33.5021 32.5226 34.0231L32.4789 34.3952C33.4411 33.8104 34.4005 33.0014 35.3563 31.9576L35.1266 31.8134ZM16.9428 16.9265C16.9842 16.2467 17.0478 15.5504 17.1345 14.8383L16.6693 15.1198C16.5818 15.8383 16.5176 16.5407 16.4758 17.2265L16.9428 16.9265ZM28.0004 27.6656C28.7259 26.7468 29.5333 25.9659 30.3723 25.3208L30.3143 25.0186C29.3931 25.7268 28.5039 26.5872 27.7082 27.5947L28.0004 27.6656ZM46.0756 41.1905C45.8406 41.3423 45.4954 41.5606 45.0582 41.8248L45.0123 42.1983C45.4588 41.9285 45.8127 41.7047 46.0557 41.5478C46.1773 41.4694 46.2711 41.4076 46.335 41.3652C46.3534 41.353 46.3694 41.3424 46.3827 41.3334C46.3926 41.3268 46.401 41.3212 46.4081 41.3164L46.4273 41.3035L46.4324 41.3L46.4339 41.299L46.4345 41.2986C46.4345 41.2986 46.4346 41.2985 46.4341 41.2381L46.4321 40.9561L46.4312 40.9567L46.4274 40.9593L46.4109 40.9704C46.396 40.9804 46.3734 40.9956 46.3433 41.0156C46.2831 41.0555 46.1932 41.1147 46.0756 41.1905ZM17.338 13.3999C17.4547 12.6737 17.5947 11.9324 17.7587 11.1767L17.2992 11.4244C17.1337 12.1872 16.9924 12.9354 16.8746 13.6683L17.338 13.3999ZM37.5644 28.5943C37.2411 29.0947 36.9202 29.5623 36.6016 29.9984L36.9217 30.0325C37.2549 29.5765 37.588 29.0909 37.9214 28.5747C38.2437 28.0759 38.5055 27.6069 38.7111 27.1681L38.2939 27.2953C38.1053 27.6978 37.864 28.1306 37.5644 28.5943ZM18.1177 9.65187C18.3126 8.88291 18.5318 8.10024 18.7761 7.3045L18.3265 7.51442C18.0798 8.31813 17.8585 9.10852 17.6617 9.88492L18.1177 9.65187ZM32.1156 24.1913C32.954 23.7422 33.7916 23.4219 34.5781 23.2344L34.8174 22.7768C33.9907 22.9739 33.1025 23.3123 32.2037 23.7937L32.1156 24.1913ZM19.2962 5.70135C19.5721 4.89439 19.8731 4.075 20.2002 3.24382L19.7653 3.41179C19.4348 4.2518 19.1307 5.07975 18.852 5.89499L19.2962 5.70135ZM36.0125 23.039C36.6818 23.0244 37.2703 23.1341 37.7346 23.3686L38.1314 22.9181C37.6423 22.6711 37.0242 22.5563 36.3232 22.5716L36.0125 23.039ZM38.4993 24.0257C38.7897 24.4559 38.9053 25.0248 38.7995 25.7311L39.2634 25.459C39.3791 24.6873 39.2515 24.0741 38.9418 23.6152L38.4993 24.0257ZM21.4543 0.166148C21.4116 0.105407 21.2782 0.148507 21.1564 0.262412L19.1714 2.11861C19.0496 2.23252 18.9855 2.3741 19.0282 2.43484C19.0709 2.49558 19.2043 2.45248 19.3261 2.33858L20.7835 0.975726C20.6729 1.22581 20.5646 1.47494 20.4586 1.72309L20.886 1.57307C20.9891 1.33186 21.0944 1.08972 21.2018 0.846679L21.7096 1.56846C21.7523 1.6292 21.8857 1.5861 22.0075 1.4722C22.1293 1.35829 22.1935 1.21671 22.1507 1.15597L21.4543 0.166148Z" fill="#0F90D1"/>
<path d="M53.86 31.62C53.86 31.7133 53.82 31.8267 53.74 31.96C52.8333 33.4667 51.8933 34.22 50.92 34.22C50.16 34.22 49.78 33.74 49.78 32.78C49.78 31.9267 49.9733 31.1733 50.36 30.52C49.4267 31.36 48.4733 32.52 47.5 34C47.42 34.12 47.36 34.18 47.32 34.18C47.2 34.18 47.14 34.06 47.14 33.82C47.14 33.7533 47.1533 33.7 47.18 33.66C47.46 32.98 47.7533 32.0133 48.06 30.76C48.1 30.5467 48.1667 30.2333 48.26 29.82C48.3 29.7267 48.3933 29.6333 48.54 29.54C48.6867 29.4467 48.82 29.4 48.94 29.4C49.0333 29.4 49.08 29.44 49.08 29.52C49.08 29.6533 48.7667 30.6667 48.14 32.56C48.3 32.3467 48.8 31.78 49.64 30.86C49.92 30.54 50.3333 30.0867 50.88 29.5C50.9867 29.4067 51.0933 29.36 51.2 29.36C51.5067 29.36 51.66 29.5133 51.66 29.82C51.66 29.8867 51.6333 29.9667 51.58 30.06C50.8333 31.2867 50.46 32.26 50.46 32.98C50.46 33.4867 50.7 33.74 51.18 33.74C51.5533 33.74 51.9533 33.5467 52.38 33.16C52.66 32.92 52.9733 32.56 53.32 32.08C53.6 31.6933 53.76 31.5 53.8 31.5C53.84 31.5 53.86 31.54 53.86 31.62ZM58.3864 31.84C58.3864 31.8667 58.3731 31.8933 58.3464 31.92C58.1597 32.24 57.8731 32.5133 57.4864 32.74C57.1131 32.9667 56.7464 33.08 56.3864 33.08C56.1197 33.08 55.8731 33.0133 55.6464 32.88C55.0331 33.8533 54.3997 34.34 53.7464 34.34C53.2797 34.34 53.0464 34.0667 53.0464 33.52C53.0464 32.76 53.3797 31.8667 54.0464 30.84C54.0197 30.6933 54.0064 30.5467 54.0064 30.4C54.0064 29.92 54.1664 29.4533 54.4864 29C54.8064 28.5467 55.1997 28.32 55.6664 28.32C55.9731 28.32 56.2197 28.5 56.4064 28.86C56.5531 29.1667 56.6264 29.4867 56.6264 29.82C56.6264 30.54 56.3464 31.4533 55.7864 32.56C55.9864 32.68 56.2131 32.74 56.4664 32.74C56.9064 32.74 57.3197 32.5667 57.7064 32.22C58.0931 31.8733 58.2731 31.7 58.2464 31.7C58.3397 31.7 58.3864 31.7467 58.3864 31.84ZM56.0264 30.32C56.0264 30.0267 55.9797 29.7267 55.8864 29.42C55.7531 28.9933 55.5797 28.78 55.3664 28.78C55.0597 28.78 54.8197 28.9667 54.6464 29.34C54.5131 29.6333 54.4531 29.9533 54.4664 30.3C54.6797 30.0467 54.8931 29.92 55.1064 29.92C55.3064 29.92 55.4531 29.9867 55.5464 30.12C55.5464 30.1333 55.5464 30.1667 55.5464 30.22C55.5597 30.26 55.5664 30.2933 55.5664 30.32C55.5664 30.36 55.4997 30.38 55.3664 30.38C55.1264 30.38 54.8731 30.6333 54.6064 31.14C54.7797 31.6467 55.0864 32.06 55.5264 32.38C55.8597 31.54 56.0264 30.8533 56.0264 30.32ZM55.3664 32.66C54.9264 32.3667 54.5931 32.0267 54.3664 31.64C53.9664 32.48 53.7664 33.0867 53.7664 33.46C53.7664 33.7267 53.8664 33.86 54.0664 33.86C54.2531 33.86 54.4997 33.7 54.8064 33.38C55.0731 33.1267 55.2597 32.8867 55.3664 32.66ZM66.5367 23.08C66.5367 24.04 65.6967 25.38 64.0167 27.1C62.9367 28.1933 61.6567 29.3 60.1767 30.42C59.9101 30.98 59.6901 31.52 59.5167 32.04C60.1834 31.3733 60.8434 30.7133 61.4967 30.06C62.4834 29.1267 63.2101 28.66 63.6767 28.66C64.0234 28.66 64.1967 28.9133 64.1967 29.42C64.1967 29.94 63.8367 30.4467 63.1167 30.94C62.4501 31.4067 61.8501 31.6267 61.3167 31.6C61.5967 32.88 62.1301 33.52 62.9167 33.52C63.6901 33.52 64.5367 32.9133 65.4567 31.7C65.5367 31.58 65.6167 31.52 65.6967 31.52C65.7634 31.52 65.7967 31.5533 65.7967 31.62C65.7967 31.6733 65.7701 31.74 65.7167 31.82C65.3967 32.2867 64.9434 32.78 64.3567 33.3C63.6501 33.94 63.0967 34.26 62.6967 34.26C62.2034 34.26 61.7101 33.92 61.2167 33.24C60.7634 32.6267 60.5034 32.0533 60.4367 31.52C60.1167 31.8933 59.8034 32.26 59.4967 32.62C59.1901 33.02 58.9901 33.48 58.8967 34C58.7501 34.0667 58.5967 34.1 58.4367 34.1C58.1434 34.1 57.9967 34.0333 57.9967 33.9C57.9967 33.5933 58.2767 32.8 58.8367 31.52C59.6634 29.6267 60.6034 27.84 61.6567 26.16C63.2834 23.56 64.6101 22.26 65.6367 22.26C66.2367 22.26 66.5367 22.5333 66.5367 23.08ZM66.0767 23.36C66.0767 23.08 65.9634 22.94 65.7367 22.94C65.3901 22.94 64.8567 23.2467 64.1367 23.86C62.8701 24.9133 61.7967 26.5133 60.9167 28.66C60.7167 29.1533 60.6167 29.44 60.6167 29.52C61.5634 28.9333 62.6501 28 63.8767 26.72C65.3434 25.2267 66.0767 24.1067 66.0767 23.36ZM63.3367 29.72C63.3367 29.4533 63.2501 29.32 63.0767 29.32C62.8101 29.32 62.0834 29.94 60.8967 31.18C60.9501 31.2867 61.0701 31.34 61.2567 31.34C61.6567 31.34 62.1034 31.1667 62.5967 30.82C63.0901 30.46 63.3367 30.0933 63.3367 29.72ZM72.2619 31.62C72.2619 31.7133 72.2219 31.8267 72.1419 31.96C71.7952 32.5333 71.2219 33.1067 70.4219 33.68C69.5685 34.32 68.8485 34.64 68.2619 34.64C68.1419 34.64 67.9619 34.6333 67.7219 34.62C67.4952 34.62 67.3219 34.62 67.2019 34.62C67.1485 34.62 66.9485 34.5733 66.6019 34.48C66.1885 35.5467 65.6285 36.6667 64.9219 37.84C63.9219 39.4667 63.1085 40.28 62.4819 40.28C62.1485 40.28 61.9819 40.0333 61.9819 39.54C61.9819 38.8867 62.5819 37.6733 63.7819 35.9C64.6352 34.7267 65.4952 33.5467 66.3619 32.36V32.24C66.3619 31.76 66.3552 31.34 66.3419 30.98C65.8352 31.8067 65.5152 32.22 65.3819 32.22C65.3019 32.22 65.2619 32.1733 65.2619 32.08C65.2619 32.0267 65.2819 31.9733 65.3219 31.92C65.9085 31.0933 66.2019 30.3533 66.2019 29.7C66.2019 29.5667 66.1619 29.46 66.0819 29.38C66.0152 29.2867 65.9819 29.2133 65.9819 29.16C65.9819 29.1067 66.1885 29.08 66.6019 29.08C67.0552 29.08 67.2819 29.5333 67.2819 30.44C67.2819 30.5733 67.2685 30.7733 67.2419 31.04C67.2285 31.2933 67.2219 31.48 67.2219 31.6C67.5952 30.92 68.0085 30.2933 68.4619 29.72C69.1552 28.8667 69.7352 28.44 70.2019 28.44C70.6285 28.44 70.8419 28.7533 70.8419 29.38C70.8419 30.1667 70.5619 31.08 70.0019 32.12C69.4552 33.16 68.8552 33.8867 68.2019 34.3C69.3619 34.2733 70.6485 33.3733 72.0619 31.6C72.1152 31.5333 72.1552 31.5 72.1819 31.5C72.2352 31.5 72.2619 31.54 72.2619 31.62ZM69.9619 29.8C69.9619 29.3867 69.8485 29.18 69.6219 29.18C69.5552 29.18 69.4885 29.1933 69.4219 29.22C68.9419 29.4333 68.4352 30.0533 67.9019 31.08C67.5019 31.84 67.1819 32.62 66.9419 33.42C67.0752 33.62 67.3085 33.8733 67.6419 34.18C68.2285 33.9267 68.7685 33.2933 69.2619 32.28C69.7285 31.32 69.9619 30.4933 69.9619 29.8ZM66.1819 33.44C66.1685 33.4267 66.1552 33.42 66.1419 33.42C66.0885 33.42 66.0152 33.4867 65.9219 33.62C65.6019 34.1 65.1219 34.8067 64.4819 35.74C64.2019 36.14 63.8485 36.7467 63.4219 37.56C62.9285 38.5067 62.6819 39.12 62.6819 39.4C62.6819 39.52 62.7219 39.58 62.8019 39.58C63.3885 39.58 64.1952 38.62 65.2219 36.7C65.4885 36.1933 65.7752 35.32 66.0819 34.08C66.0685 34.0133 66.0619 33.9467 66.0619 33.88C66.0619 33.72 66.1019 33.5733 66.1819 33.44ZM76.2448 34.46C76.2448 34.54 76.2248 34.58 76.1848 34.58C76.1715 34.58 76.1115 34.5467 76.0048 34.48C75.8982 34.4133 75.7048 34.38 75.4248 34.38C75.2915 34.38 75.1648 34.3867 75.0448 34.4C74.5382 36.4 73.9048 37.9533 73.1448 39.06C71.7048 41.1667 70.1648 42.22 68.5248 42.22C67.8848 42.22 67.3515 42.0333 66.9248 41.66C66.4848 41.2867 66.2648 40.7867 66.2648 40.16C66.2648 38.7333 67.2848 37.3667 69.3248 36.06C71.0315 34.9533 72.6915 34.2733 74.3048 34.02C74.4915 33.1933 74.7048 31.9667 74.9448 30.34C74.7848 30.7267 74.4982 31.24 74.0848 31.88C73.6715 32.5067 73.3182 32.9733 73.0248 33.28C72.6782 33.64 72.3515 33.82 72.0448 33.82C71.6182 33.82 71.4048 33.4467 71.4048 32.7C71.4048 32.2733 71.5382 31.76 71.8048 31.16C72.1115 30.4667 72.4515 30.12 72.8248 30.12C73.0115 30.12 73.1048 30.1733 73.1048 30.28C73.1048 30.2933 72.9382 30.6 72.6048 31.2C72.2715 31.7867 72.1048 32.24 72.1048 32.56C72.1048 32.9867 72.2248 33.2 72.4648 33.2C72.8782 33.2 73.7782 31.86 75.1648 29.18C75.1915 28.98 75.3582 28.88 75.6648 28.88C75.9048 28.88 76.0248 28.9333 76.0248 29.04C76.0248 29.2133 75.9382 29.78 75.7648 30.74C75.5648 31.8733 75.3448 32.96 75.1048 34H75.1848C75.8915 33.9733 76.2448 34.1267 76.2448 34.46ZM74.2848 34.38C73.4048 34.5267 72.3582 34.9067 71.1448 35.52C69.9315 36.1333 69.0048 36.7467 68.3648 37.36C67.3515 38.32 66.8448 39.2733 66.8448 40.22C66.8448 40.74 67.0115 41.1533 67.3448 41.46C67.6648 41.78 68.0915 41.94 68.6248 41.94C69.4382 41.94 70.2448 41.5933 71.0448 40.9C71.6848 40.3533 72.2515 39.6533 72.7448 38.8C73.4515 37.6 73.9648 36.1267 74.2848 34.38ZM85.3731 31.8C85.3731 31.8533 85.3598 31.8933 85.3331 31.92C84.9998 32.3867 84.6265 32.82 84.2131 33.22C83.6398 33.7533 83.1598 34.02 82.7731 34.02C82.1465 34.02 81.8331 33.3267 81.8331 31.94C81.8331 31.7267 81.8398 31.4867 81.8531 31.22C81.3731 31.6467 80.8331 32.4133 80.2331 33.52C80.0331 33.8933 79.8131 34.08 79.5731 34.08C79.4931 34.08 79.4331 34.0533 79.3931 34C79.3531 33.8533 79.3331 33.6667 79.3331 33.44C79.3331 33.0533 79.4198 32.3467 79.5931 31.32C79.6865 30.8 79.7331 30.4667 79.7331 30.32C79.7331 30.2133 79.7131 30.16 79.6731 30.16C79.4465 30.36 79.0798 30.7933 78.5731 31.46C78.0265 32.18 77.4398 33.0267 76.8131 34C76.7331 34.12 76.6665 34.18 76.6131 34.18C76.5065 34.18 76.4531 34.06 76.4531 33.82C76.4531 33.7533 76.4598 33.7 76.4731 33.66C76.7798 32.94 77.0931 31.9267 77.4131 30.62C77.4398 30.4333 77.4931 30.1667 77.5731 29.82C77.5998 29.7267 77.6865 29.6333 77.8331 29.54C77.9931 29.4467 78.1265 29.4 78.2331 29.4C78.3265 29.4 78.3731 29.44 78.3731 29.52C78.3731 29.6533 78.0598 30.6667 77.4331 32.56C77.9131 31.92 78.4065 31.26 78.9131 30.58C79.0731 30.3667 79.3131 30.0467 79.6331 29.62C79.8331 29.38 80.0398 29.26 80.2531 29.26C80.4665 29.26 80.5731 29.38 80.5731 29.62C80.5731 29.7933 80.5265 30.14 80.4331 30.66C80.3398 31.1667 80.2331 31.9133 80.1131 32.9C80.4865 32.3667 81.0665 31.5867 81.8531 30.56C82.0665 30.3067 82.2798 30.18 82.4931 30.18C82.6931 30.18 82.7931 30.3067 82.7931 30.56C82.7931 30.7733 82.7598 31.0933 82.6931 31.52C82.6265 31.9333 82.5931 32.2467 82.5931 32.46C82.5931 33.1533 82.7731 33.5 83.1331 33.5C83.6398 33.5 84.2865 32.94 85.0731 31.82C85.1531 31.6867 85.2198 31.62 85.2731 31.62C85.3398 31.62 85.3731 31.68 85.3731 31.8ZM83.3531 28.08C81.6731 27.68 80.4398 27.7 79.6531 28.14C79.5065 28.22 79.3865 28.3467 79.2931 28.52C79.2531 28.6133 79.2331 28.74 79.2331 28.9C79.2331 29.06 79.2131 29.18 79.1731 29.26L79.0931 29.32C78.9598 29.4133 78.8998 29.32 78.9131 29.04C78.9398 28.7467 79.0065 28.5 79.1131 28.3C79.2465 27.9933 79.4731 27.76 79.7931 27.6C80.3798 27.2533 81.1531 27.12 82.1131 27.2C82.3531 27.2 83.1598 27.3133 84.5331 27.54C85.3731 27.6867 85.9265 27.6867 86.1931 27.54C86.3531 27.4467 86.4665 27.3267 86.5331 27.18C86.6131 27.0067 86.6265 26.8467 86.5731 26.7C86.5331 26.5533 86.5398 26.4267 86.5931 26.32C86.6198 26.3067 86.6331 26.3 86.6331 26.3C86.7398 26.2333 86.7865 26.3667 86.7731 26.7C86.7731 27.0333 86.7331 27.28 86.6531 27.44C86.4531 27.8267 86.2398 28.0933 86.0131 28.24C85.6798 28.4267 85.1531 28.46 84.4331 28.34C84.3531 28.3 84.1931 28.2667 83.9531 28.24C83.8465 28.24 83.6465 28.1867 83.3531 28.08ZM91.2698 31.62C91.2698 31.7133 91.2298 31.8267 91.1498 31.96C90.7765 32.5733 90.3432 33.1067 89.8498 33.56C89.2098 34.1467 88.6098 34.44 88.0498 34.44C87.3032 34.44 86.9298 33.9733 86.9298 33.04C86.9298 32.8267 87.0298 32.4067 87.2298 31.78C86.7632 32.46 86.4632 32.88 86.3298 33.04C85.8898 33.56 85.4965 33.82 85.1498 33.82C84.7098 33.82 84.4898 33.4467 84.4898 32.7C84.4898 32.2733 84.6298 31.76 84.9098 31.16C85.2165 30.4667 85.5498 30.12 85.9098 30.12C86.1098 30.12 86.2098 30.1733 86.2098 30.28C86.2098 30.2933 86.0365 30.6 85.6898 31.2C85.3565 31.7867 85.1898 32.24 85.1898 32.56C85.1898 32.9867 85.3165 33.2 85.5698 33.2C85.9965 33.2 86.7632 32.2267 87.8698 30.28C87.9632 30.0933 88.1032 29.8333 88.2898 29.5C88.3832 29.3933 88.4832 29.34 88.5898 29.34C88.7098 29.34 88.8165 29.3933 88.9098 29.5C89.0165 29.5933 89.0698 29.7067 89.0698 29.84C89.0698 29.8267 88.8298 30.2733 88.3498 31.18C87.8832 32.0867 87.6498 32.7867 87.6498 33.28C87.6498 33.7467 87.8698 33.98 88.3098 33.98C88.6832 33.98 89.1098 33.7667 89.5898 33.34C89.9098 33.06 90.2698 32.66 90.6698 32.14C91.0032 31.7133 91.1832 31.5 91.2098 31.5C91.2498 31.5 91.2698 31.54 91.2698 31.62ZM97.6594 30.48C97.3927 31.04 97.106 31.6 96.7994 32.16C96.4927 32.7067 96.206 33.1133 95.9394 33.38C95.566 33.74 95.2127 33.9733 94.8794 34.08C94.546 34.1867 94.266 34.18 94.0394 34.06C93.8127 33.9533 93.646 33.74 93.5394 33.42C93.446 33.0867 93.446 32.66 93.5394 32.14C93.5794 31.8867 93.6527 31.7133 93.7594 31.62C93.866 31.5267 93.9794 31.48 94.0994 31.48C94.2194 31.48 94.326 31.52 94.4194 31.6C94.5127 31.6667 94.5727 31.7467 94.5994 31.84C94.386 32.3867 94.2794 32.8267 94.2794 33.16C94.2927 33.4933 94.386 33.6933 94.5594 33.76C94.746 33.8267 94.9994 33.7533 95.3194 33.54C95.6394 33.3133 95.9994 32.92 96.3994 32.36C96.546 32.16 96.7127 31.88 96.8994 31.52C97.0994 31.16 97.2994 30.64 97.4994 29.96C97.9927 29.7067 98.346 29.5867 98.5594 29.6C98.7727 29.6 98.886 29.6867 98.8994 29.86C98.926 30.02 98.8794 30.2467 98.7594 30.54C98.6394 30.82 98.506 31.12 98.3594 31.44C98.2127 31.7467 98.0727 32.0467 97.9394 32.34C97.8194 32.62 97.7594 32.8467 97.7594 33.02C97.7994 32.9667 97.8727 32.8733 97.9794 32.74C98.086 32.5933 98.2194 32.4267 98.3794 32.24C98.5394 32.04 98.7127 31.8267 98.8994 31.6C99.0994 31.3733 99.306 31.1467 99.5194 30.92C99.786 30.6133 100.199 30.16 100.759 29.56C100.813 29.5067 100.873 29.46 100.939 29.42C101.006 29.38 101.066 29.36 101.119 29.36C101.426 29.36 101.579 29.5133 101.579 29.82C101.579 29.8867 101.553 29.9667 101.499 30.06C100.753 31.2867 100.379 32.26 100.379 32.98C100.379 33.4867 100.619 33.74 101.099 33.74C101.473 33.74 101.873 33.5467 102.299 33.16C102.593 32.9067 102.906 32.5467 103.239 32.08C103.519 31.6933 103.679 31.5 103.719 31.5C103.759 31.5 103.779 31.54 103.779 31.62C103.779 31.7133 103.739 31.8267 103.659 31.96C102.753 33.4667 101.813 34.22 100.839 34.22C100.079 34.22 99.6994 33.74 99.6994 32.78C99.6994 32.3533 99.7394 31.9667 99.8194 31.62C99.9127 31.26 100.053 30.9133 100.239 30.58C99.9727 30.8333 99.726 31.0867 99.4994 31.34C99.286 31.5933 99.0394 31.8933 98.7594 32.24C98.6394 32.4 98.5194 32.5667 98.3994 32.74C98.2794 32.9133 98.1594 33.0667 98.0394 33.2C97.9194 33.3333 97.7994 33.4333 97.6794 33.5C97.5594 33.5667 97.4327 33.56 97.2994 33.48C97.1527 33.3867 97.106 33.1867 97.1594 32.88C97.226 32.5733 97.3194 32.2467 97.4394 31.9C97.5727 31.5533 97.6994 31.24 97.8194 30.96C97.9394 30.68 97.9794 30.52 97.9394 30.48C97.9394 30.4133 97.8927 30.38 97.7994 30.38C97.706 30.38 97.6594 30.4133 97.6594 30.48ZM107.69 31.84C107.69 31.8667 107.676 31.9067 107.65 31.96C107.316 32.48 106.816 32.96 106.15 33.4C105.443 33.8667 104.796 34.1 104.21 34.1C103.37 34.1 102.95 33.5733 102.95 32.52C102.95 31.8267 103.25 31.0667 103.85 30.24C104.49 29.36 105.15 28.92 105.83 28.92C105.963 28.92 106.076 28.98 106.17 29.1C106.276 29.22 106.33 29.3467 106.33 29.48C106.33 29.8933 106.016 30.3933 105.39 30.98C104.83 31.5 104.316 31.8467 103.85 32.02C103.756 32.3533 103.71 32.6333 103.71 32.86C103.71 33.4067 103.956 33.68 104.45 33.68C104.916 33.68 105.443 33.4867 106.03 33.1C106.536 32.7667 106.97 32.3867 107.33 31.96C107.423 31.8267 107.516 31.76 107.61 31.76C107.663 31.76 107.69 31.7867 107.69 31.84ZM105.73 29.72C105.73 29.56 105.65 29.48 105.49 29.48C105.29 29.48 104.996 29.7867 104.61 30.4C104.276 30.92 104.07 31.3267 103.99 31.62C104.336 31.4733 104.696 31.2133 105.07 30.84C105.51 30.4133 105.73 30.04 105.73 29.72ZM110.192 30.52C110.232 30.48 110.272 30.4133 110.312 30.32C110.352 30.2267 110.392 30.1267 110.432 30.02C110.486 29.9133 110.532 29.8133 110.572 29.72C110.626 29.6133 110.672 29.54 110.712 29.5C110.806 29.4067 110.912 29.36 111.032 29.36C111.339 29.36 111.492 29.5133 111.492 29.82C111.492 29.8867 111.466 29.9667 111.412 30.06C110.666 31.2867 110.292 32.26 110.292 32.98C110.292 33.4867 110.532 33.74 111.012 33.74C111.386 33.74 111.786 33.5467 112.212 33.16C112.506 32.9067 112.819 32.5467 113.152 32.08C113.432 31.6933 113.592 31.5 113.632 31.5C113.672 31.5 113.692 31.54 113.692 31.62C113.692 31.7133 113.652 31.8267 113.572 31.96C112.666 33.4667 111.726 34.22 110.752 34.22C109.992 34.22 109.612 33.74 109.612 32.78C109.612 32.2467 109.692 31.7467 109.852 31.28C109.532 31.36 109.206 31.4533 108.872 31.56C108.539 31.6667 108.192 31.7933 107.832 31.94C107.806 32.0467 107.772 32.1533 107.732 32.26C107.692 32.3533 107.659 32.4533 107.632 32.56C107.526 33.1867 107.406 33.6133 107.272 33.84C107.139 34.0667 106.986 34.18 106.812 34.18C106.692 34.18 106.632 34.06 106.632 33.82C106.632 33.7667 106.646 33.7133 106.672 33.66C106.819 33.3133 106.966 32.9067 107.112 32.44C107.259 31.96 107.406 31.4 107.552 30.76C107.579 30.6533 107.606 30.5267 107.632 30.38C107.659 30.22 107.699 30.0333 107.752 29.82C107.792 29.7267 107.886 29.6333 108.032 29.54C108.179 29.4467 108.312 29.4 108.432 29.4C108.526 29.4 108.572 29.44 108.572 29.52C108.572 29.5867 108.519 29.7933 108.412 30.14C108.306 30.4733 108.152 30.96 107.952 31.6C108.139 31.5333 108.366 31.46 108.632 31.38C108.899 31.2867 109.212 31.1867 109.572 31.08C109.666 31.0667 109.799 31.0267 109.972 30.96C110.039 30.8133 110.112 30.6667 110.192 30.52ZM118.155 30.84C118.448 30.8667 118.595 31.02 118.595 31.3C118.595 31.3267 118.568 31.4067 118.515 31.54C118.368 31.8467 118.228 32.1133 118.095 32.34C117.975 32.5667 117.915 32.8067 117.915 33.06C117.915 33.5667 118.155 33.82 118.635 33.82C119.008 33.82 119.408 33.6267 119.835 33.24C120.128 32.9867 120.442 32.6267 120.775 32.16C121.055 31.7733 121.215 31.58 121.255 31.58C121.295 31.58 121.315 31.62 121.315 31.7C121.315 31.7933 121.275 31.9067 121.195 32.04C120.288 33.5467 119.348 34.3 118.375 34.3C117.615 34.3 117.235 33.82 117.235 32.86C117.235 32.7667 117.235 32.68 117.235 32.6C117.235 32.5067 117.242 32.42 117.255 32.34C117.308 32.1533 117.382 31.9533 117.475 31.74C117.395 31.7667 117.315 31.7867 117.235 31.8C117.155 31.8133 117.082 31.82 117.015 31.82C116.788 32.1267 116.562 32.42 116.335 32.7C116.108 32.9667 115.962 33.1333 115.895 33.2C115.522 33.56 115.155 33.8067 114.795 33.94C114.435 34.06 114.122 34.0733 113.855 33.98C113.588 33.8867 113.388 33.6867 113.255 33.38C113.135 33.0733 113.122 32.66 113.215 32.14C113.255 31.8867 113.328 31.7133 113.435 31.62C113.542 31.5267 113.655 31.48 113.775 31.48C113.895 31.48 114.002 31.52 114.095 31.6C114.188 31.6667 114.248 31.7467 114.275 31.84C114.062 32.3867 113.955 32.8267 113.955 33.16C113.968 33.4933 114.062 33.6933 114.235 33.76C114.422 33.8267 114.675 33.7533 114.995 33.54C115.315 33.3133 115.675 32.92 116.075 32.36C116.155 32.2533 116.275 32.08 116.435 31.84C116.035 31.8267 115.675 31.7333 115.355 31.56C115.048 31.3867 114.842 31.1667 114.735 30.9C114.628 30.62 114.648 30.3267 114.795 30.02C114.942 29.7 115.268 29.3933 115.775 29.1C116.135 28.9 116.442 28.8 116.695 28.8C116.948 28.7867 117.148 28.8467 117.295 28.98C117.455 29.1 117.562 29.2733 117.615 29.5C117.682 29.7133 117.708 29.9467 117.695 30.2C117.682 30.4533 117.635 30.7 117.555 30.94C117.475 31.1667 117.362 31.36 117.215 31.52C117.282 31.52 117.348 31.52 117.415 31.52C117.482 31.52 117.548 31.5067 117.615 31.48C117.802 31.1467 117.935 30.96 118.015 30.92C118.095 30.8667 118.142 30.84 118.155 30.84ZM117.155 29.66C116.595 29.4733 116.188 29.4467 115.935 29.58C115.695 29.7 115.568 29.8867 115.555 30.14C115.542 30.38 115.635 30.64 115.835 30.92C116.048 31.1867 116.335 31.3667 116.695 31.46C116.815 31.2733 116.922 31.08 117.015 30.88C117.122 30.68 117.195 30.5 117.235 30.34C117.288 30.1667 117.308 30.02 117.295 29.9C117.295 29.7667 117.248 29.6867 117.155 29.66Z" fill="#0F90D1"/>
</svg>
