<svg width="96" height="96" viewBox="0 0 96 96" fill="none" xmlns="http://www.w3.org/2000/svg">
<path d="M31.3287 45.5003C35.0583 47.1414 37.9674 49.6029 40.0559 52.885C42.1445 56.167 43.1888 60.0458 43.1888 64.5213C43.1888 70.9362 41.1748 76.1577 37.1469 80.1856C33.1189 84.0644 27.972 86.0038 21.7063 86.0038C15.4406 86.0038 10.2191 83.9898 6.04196 79.9619C2.01399 75.9339 0 70.7871 0 64.5213C0 61.5376 0.37296 58.554 1.11888 55.5703C1.8648 52.5866 3.50583 48.1111 6.04196 42.1437L19.021 9.91992H41.1748L31.3287 45.5003ZM84.1399 45.5003C87.8695 47.1414 90.7786 49.6029 92.8671 52.885C94.9557 56.167 96 60.0458 96 64.5213C96 70.9362 93.986 76.1577 89.958 80.1856C85.9301 84.0644 80.7832 86.0038 74.5175 86.0038C68.2518 86.0038 63.0303 83.9898 58.8531 79.9619C54.8252 75.9339 52.8112 70.7871 52.8112 64.5213C52.8112 61.5376 53.1842 58.554 53.9301 55.5703C54.676 52.5866 56.317 48.1111 58.8531 42.1437L71.8322 9.91992H93.986L84.1399 45.5003Z" fill="#18263A"/>
</svg>
