<svg width="64" height="64" viewBox="0 0 64 64" fill="none" xmlns="http://www.w3.org/2000/svg">
<path d="M37 56.5C36.31 56.5 35.75 57.06 35.75 57.75C35.75 58.44 36.31 59 37 59C37.69 59 38.25 58.44 38.25 57.75C38.25 57.06 37.69 56.5 37 56.5Z" fill="#42C79C"/>
<path d="M54.5 5.75H50.75V3.75C50.75 1.68225 49.0677 0 47 0H17C14.9323 0 13.25 1.68225 13.25 3.75V5.75H9.5C7.43225 5.75 5.75 7.43225 5.75 9.5C5.75 17.6321 9.55525 23.6084 15.7285 25.2722C17.8448 29.9304 21.1908 33.8903 25.4377 36.7516C26.416 37.4108 27 38.5391 27 39.77V46.6574C26.1431 46.8771 25.357 47.3226 24.7149 47.9649C23.7702 48.9096 23.25 50.165 23.25 51.5H22C19.9323 51.5 18.25 53.1823 18.25 55.25V62.75C18.25 63.4404 18.8097 64 19.5 64H44.5C45.1903 64 45.75 63.4404 45.75 62.75V55.25C45.75 53.1823 44.0677 51.5 42 51.5H40.75C40.75 49.1745 39.1541 47.2146 37 46.6582V39.7762C37 38.5414 37.5844 37.4109 38.5635 36.7518C42.8109 33.8901 46.1569 29.9301 48.273 25.2719C54.4454 23.6074 58.25 17.6315 58.25 9.5C58.25 7.43225 56.5677 5.75 54.5 5.75ZM8.25 9.5C8.25 8.81075 8.81075 8.25 9.5 8.25H13.25V13.8375C13.25 16.6869 13.6816 19.4771 14.5337 22.1642C10.5559 20.1939 8.25 15.6432 8.25 9.5ZM42 54C42.6893 54 43.25 54.5607 43.25 55.25V61.5H20.75V55.25C20.75 54.5607 21.3108 54 22 54H42ZM48.25 13.8375C48.25 17.252 47.5703 20.5745 46.2293 23.7125C44.3218 28.1771 41.188 31.969 37.167 34.6781C35.497 35.8022 34.5 37.7081 34.5 39.7762V47.75C34.5 48.4404 35.0597 49 35.75 49C37.1285 49 38.25 50.1215 38.25 51.5H25.75C25.75 50.8327 26.0102 50.2051 26.4826 49.7326C26.9319 49.2834 27.5215 49.0261 28.152 49.0019C28.1844 49.0044 28.217 49.0056 28.2499 49.0056C28.9401 49.0056 29.4999 48.4404 29.4999 47.75V39.77C29.4999 37.7062 28.5035 35.8029 26.8346 34.6784C22.8132 31.9691 19.6795 28.1772 17.7717 23.7122C16.4302 20.5754 15.75 17.253 15.75 13.8375V3.75C15.75 3.06075 16.3108 2.5 17 2.5H47C47.6893 2.5 48.25 3.06075 48.25 3.75V13.8375ZM49.4668 22.164C50.3185 19.4762 50.75 16.6861 50.75 13.8375V8.25H54.5C55.1893 8.25 55.75 8.81075 55.75 9.5C55.75 15.6429 53.4444 20.1934 49.4668 22.164Z" fill="#42C79C"/>
<path d="M41.8932 14.7698C41.7464 14.3172 41.3551 13.9873 40.8841 13.9191L35.4896 13.1361L33.0767 8.24668C32.8661 7.81993 32.4316 7.5498 31.9557 7.5498C31.4799 7.5498 31.0454 7.81993 30.8347 8.24668L28.4218 13.1361L23.0275 13.9191C22.5565 13.9874 22.1654 14.3173 22.0182 14.7698C21.8712 15.2224 21.9939 15.7192 22.3346 16.0513L26.2389 19.8563L25.3173 25.2297C25.237 25.6987 25.4297 26.1726 25.8147 26.4523C26.1997 26.7319 26.7101 26.7688 27.1311 26.5474L31.9559 24.0108L36.7817 26.5474C37.2055 26.7702 37.7156 26.7302 38.0981 26.4522C38.483 26.1724 38.6757 25.6984 38.5952 25.2294L37.6727 19.8562L41.5769 16.0513C41.9177 15.7192 42.0402 15.2224 41.8932 14.7698ZM35.4571 18.5246C35.1625 18.8118 35.0278 19.2257 35.0976 19.6313L35.7027 23.1559L32.5373 21.4921C32.173 21.3007 31.738 21.3007 31.3741 21.4922L28.2097 23.1559L28.8142 19.6311C28.8837 19.2254 28.7492 18.8117 28.4546 18.5246L25.8941 16.0291L29.4317 15.5156C29.839 15.4564 30.191 15.2007 30.3731 14.8317L31.9559 11.6243L33.5386 14.8317C33.7207 15.2007 34.0727 15.4564 34.48 15.5156L38.0177 16.0291L35.4571 18.5246Z" fill="#42C79C"/>
<path d="M32 56.5H27C26.3098 56.5 25.75 57.0596 25.75 57.75C25.75 58.4404 26.3098 59 27 59H32C32.6902 59 33.25 58.4404 33.25 57.75C33.25 57.0596 32.6902 56.5 32 56.5Z" fill="#42C79C"/>
<path d="M51.25 60.2498H51.9469C51.5919 60.1794 51.3531 60.1724 51.25 60.2498Z" fill="#42C79C"/>
</svg>
