<svg width="64" height="64" viewBox="0 0 64 64" fill="none" xmlns="http://www.w3.org/2000/svg">
<g clip-path="url(#clip0_2102_9186)">
<path d="M61 39.9378L60.9992 22.9887C60.9951 22.5242 60.7343 22.0997 60.3203 21.8875L31.0703 6.88733C30.7123 6.70357 30.2875 6.70357 29.9295 6.88733L21.9396 10.9847C21.3252 11.2997 21.0827 12.0531 21.3977 12.6674C21.7127 13.2816 22.4657 13.5243 23.0804 13.2093L30.4999 9.40435L54.573 21.7497H34.035C33.519 20.2948 32.1296 19.2497 30.4999 19.2497C28.4322 19.2497 26.7499 20.932 26.7499 22.9997C26.7499 25.0675 28.4322 26.7498 30.4999 26.7498C32.1294 26.7498 33.519 25.7046 34.035 24.2497H54.573L30.4999 36.5951L3.98941 22.9999L13.07 18.3431C13.6844 18.0281 13.9269 17.2747 13.6119 16.6604C13.2969 16.046 12.5435 15.8035 11.9292 16.1185L0.679632 21.8876C0.262378 22.1015 0 22.531 0 22.9999C0 23.4687 0.262378 23.8982 0.679632 24.1121L10.8646 29.3352V40.0858C10.8646 41.499 11.6459 42.7777 12.9034 43.4226L28.7889 51.5691C29.3247 51.8439 29.9124 51.9811 30.5 51.9811C31.0877 51.9811 31.6756 51.8438 32.2112 51.569L48.0967 43.4226C49.3544 42.7777 50.1355 41.499 50.1355 40.0858V29.3352L58.5001 25.0456V39.9379C56.7648 40.473 55.5 42.0915 55.5 44.0001V56.0002C55.5 56.6906 56.0597 57.2502 56.7501 57.2502H62.7501C63.4405 57.2502 64.0001 56.6906 64.0001 56.0002V44.0001C64 42.0914 62.7352 40.4729 61 39.9378ZM30.5 24.2499C29.8108 24.2499 29.25 23.6891 29.25 22.9999C29.25 22.3106 29.8108 21.7498 30.5 21.7498C31.1893 21.7498 31.7501 22.3106 31.7501 22.9999C31.7501 23.6891 31.1893 24.2499 30.5 24.2499ZM47.6355 40.0858C47.6355 40.5569 47.3751 40.983 46.9558 41.198L31.0704 49.3445C30.7133 49.5277 30.2867 49.5276 29.9295 49.3445L14.0441 41.198C13.6249 40.983 13.3645 40.5569 13.3645 40.0858V30.6173L29.9295 39.1123C30.1085 39.2041 30.3043 39.25 30.4999 39.25C30.6955 39.25 30.8913 39.2041 31.0703 39.1123L47.6353 30.6173L47.6355 40.0858ZM61.5 54.7502H57.9999V44.0001C57.9999 43.0351 58.785 42.25 59.75 42.25C60.715 42.25 61.5 43.0351 61.5 44.0001V54.7502Z" fill="#0F90D1"/>
<path d="M17.5039 15.9136C17.8327 15.9136 18.1552 15.7811 18.3877 15.5486C18.6202 15.3148 18.7539 14.9936 18.7539 14.6636C18.7539 14.3348 18.6202 14.0123 18.3877 13.7798C18.1552 13.5473 17.8327 13.4136 17.5039 13.4136C17.1752 13.4136 16.8527 13.5473 16.6202 13.7798C16.3877 14.0123 16.2539 14.3348 16.2539 14.6636C16.2539 14.9936 16.3877 15.3148 16.6202 15.5486C16.8525 15.7811 17.175 15.9136 17.5039 15.9136Z" fill="#0F90D1"/>
</g>
<defs>
<clipPath id="clip0_2102_9186">
<rect width="64" height="64" fill="white"/>
</clipPath>
</defs>
</svg>
