<svg width="64" height="64" viewBox="0 0 64 64" fill="none" xmlns="http://www.w3.org/2000/svg">
<g clip-path="url(#clip0_2102_9146)">
<path d="M47.8902 17.3722C48.222 17.3722 48.5474 17.2373 48.782 17.0027C49.0165 16.7681 49.1515 16.4427 49.1515 16.1109C49.1515 15.7792 49.0166 15.4538 48.782 15.2192C48.5474 14.9846 48.2231 14.8496 47.8902 14.8496C47.5585 14.8496 47.2331 14.9846 46.9985 15.2192C46.764 15.4538 46.6289 15.7779 46.6289 16.1109C46.6289 16.4427 46.7639 16.7681 46.9985 17.0027C47.2331 17.2374 47.5585 17.3722 47.8902 17.3722Z" fill="#FFA336"/>
<path d="M62.8933 29.3243L55.8657 22.2967C55.18 21.6109 54.2944 21.2445 53.3947 21.1962C53.3656 20.6416 53.218 20.0894 52.9399 19.5831C52.6044 18.9726 51.8375 18.7496 51.227 19.0853C50.6165 19.4208 50.3936 20.1876 50.7291 20.7981C50.9972 21.286 50.909 21.9022 50.5145 22.2967L43.4869 29.3243C42.9954 29.8161 42.1951 29.8162 41.7031 29.3243L34.6756 22.2967C34.1838 21.8049 34.1838 21.0047 34.6756 20.5129L41.7031 13.4854C42.0977 13.091 42.714 13.0028 43.2016 13.2707C43.8119 13.6062 44.579 13.3833 44.9145 12.7728C45.25 12.1624 45.0271 11.3955 44.4166 11.0599C43.9104 10.7816 43.3582 10.634 42.8036 10.6049C42.7553 9.70519 42.3888 8.81962 41.7031 8.13397L34.6757 1.10652C33.2003 -0.368841 30.7997 -0.368841 29.3242 1.10652L22.2966 8.13409C21.6118 8.81886 21.2455 9.70305 21.1964 10.6015C20.298 10.6506 19.4139 11.017 18.7291 11.7016L11.7015 18.7292C11.0167 19.414 10.6503 20.2981 10.6011 21.1966C9.70283 21.2456 8.81877 21.6121 8.13387 22.2967L1.10643 29.3243C-0.36881 30.7996 -0.36881 33.2002 1.10643 34.6757L8.134 41.7032C8.81877 42.388 9.70296 42.7543 10.6013 42.8035C10.6503 43.7019 11.0167 44.586 11.7016 45.2709L18.7292 52.2985C19.414 52.9832 20.2982 53.3496 21.1966 53.3987C21.2457 54.2971 21.6121 55.1812 22.2969 55.866L29.3244 62.8935C30.0622 63.6313 31.0311 64.0001 32.0002 64.0001C32.9693 64.0001 33.9382 63.6313 34.676 62.8935L41.7035 55.866C42.3883 55.1812 42.7546 54.2971 42.8038 53.3987C43.7021 53.3496 44.5863 52.9832 45.2712 52.2985L52.2987 45.2709C52.9835 44.5861 53.3499 43.7019 53.3991 42.8035C54.2974 42.7543 55.1815 42.388 55.8664 41.7032L62.8939 34.6757C64.3687 33.2003 64.3687 30.7998 62.8933 29.3243ZM39.9194 31.1082C40.4112 31.5999 40.4112 32.4001 39.9194 32.8919L32.8918 39.9195C32.6535 40.1577 32.3368 40.2889 31.9999 40.2889C31.663 40.2889 31.3462 40.1577 31.1081 39.9195L24.0805 32.8919C23.5887 32.4001 23.5887 31.5999 24.0805 31.1082L31.1081 24.0806C31.3463 23.8423 31.663 23.7111 31.9999 23.7111C32.3368 23.7111 32.6537 23.8423 32.8918 24.0806L39.9194 31.1082ZM24.0805 9.91785L31.1081 2.89028C31.3463 2.65202 31.663 2.52084 31.9999 2.52084C32.3368 2.52084 32.6537 2.65202 32.8918 2.89028L39.9194 9.91785C40.4112 10.4096 40.4112 11.2098 39.9194 11.7016L32.8918 18.7292C32.6535 18.9674 32.3368 19.0986 31.9999 19.0986C31.663 19.0986 31.3462 18.9674 31.1081 18.7292L24.0805 11.7016C23.5886 11.2098 23.5886 10.4096 24.0805 9.91785ZM13.4854 20.5129L20.513 13.4854C20.7588 13.2394 21.0818 13.1166 21.4047 13.1166C21.7279 13.1166 22.0508 13.2395 22.2966 13.4854L29.3242 20.5129C29.816 21.0047 29.816 21.8049 29.3242 22.2967L22.2966 29.3243C22.0583 29.5625 21.7417 29.6937 21.4047 29.6937C21.0678 29.6937 20.7511 29.5625 20.513 29.3243L13.4854 22.2967C12.9935 21.805 12.9935 21.0047 13.4854 20.5129ZM2.89031 32.8918C2.39853 32.4 2.39853 31.5998 2.89031 31.108L9.91788 24.0805C10.1561 23.8422 10.4727 23.711 10.8096 23.711C11.1467 23.711 11.4634 23.8422 11.7015 24.0805L18.7291 31.108C19.2209 31.5998 19.2209 32.4 18.7291 32.8918L11.7015 39.9194C11.4633 40.1576 11.1467 40.2888 10.8096 40.2888C10.4727 40.2888 10.156 40.1576 9.91788 39.9194L2.89031 32.8918ZM13.4854 43.487C12.9936 42.9952 12.9936 42.195 13.4854 41.7032L20.513 34.6757C20.7512 34.4374 21.0678 34.3062 21.4047 34.3062C21.7417 34.3062 22.0585 34.4374 22.2966 34.6757L29.3242 41.7032C29.816 42.195 29.816 42.9952 29.3242 43.487L22.2966 50.5146C21.8051 51.0064 21.0048 51.0065 20.5128 50.5146L13.4854 43.487ZM39.9194 54.0821L32.8918 61.1097C32.6535 61.3479 32.3368 61.4791 31.9999 61.4791C31.663 61.4791 31.3462 61.3479 31.1081 61.1097L24.0805 54.0821C23.5887 53.5903 23.5887 52.7901 24.0805 52.2983L31.1081 45.2708C31.3463 45.0325 31.663 44.9013 31.9999 44.9013C32.3368 44.9013 32.6537 45.0325 32.8918 45.2708L39.9194 52.2983C40.4112 52.7901 40.4112 53.5903 39.9194 54.0821ZM50.5145 43.487L43.4869 50.5146C42.9952 51.0065 42.1949 51.0064 41.7031 50.5146L34.6756 43.487C34.1838 42.9952 34.1838 42.195 34.6756 41.7032L41.7031 34.6757C41.9414 34.4374 42.258 34.3062 42.595 34.3062C42.9319 34.3062 43.2486 34.4374 43.4868 34.6757L50.5143 41.7032C51.0063 42.195 51.0063 42.9952 50.5145 43.487ZM61.1096 32.8918L54.082 39.9194C53.8437 40.1576 53.5271 40.2888 53.1902 40.2888C52.8532 40.2888 52.5365 40.1576 52.2984 39.9194L45.2708 32.8918C44.779 32.4 44.779 31.5998 45.2708 31.108L52.2984 24.0805C52.5366 23.8422 52.8532 23.711 53.1902 23.711C53.5271 23.711 53.8438 23.8422 54.082 24.0805L61.1096 31.108C61.6013 31.5999 61.6013 32.4001 61.1096 32.8918Z" fill="#FFA336"/>
</g>
<defs>
<clipPath id="clip0_2102_9146">
<rect width="64" height="64" fill="white"/>
</clipPath>
</defs>
</svg>
