<svg width="32" height="32" viewBox="0 0 32 32" fill="none" xmlns="http://www.w3.org/2000/svg">
<g clip-path="url(#clip0_2102_9194)">
<path d="M24.6251 12.1587C24.6251 10.9581 23.9249 9.71291 22.9582 9.08692C23.1121 8.2073 22.8554 7.3518 22.229 6.72268C21.6299 6.12105 20.7986 5.82362 19.9721 5.88243C19.8839 5.54199 19.7154 5.23187 19.4706 4.96431C18.8093 4.2415 17.6416 3.875 16 3.875C14.7401 3.875 13.5248 4.14125 12.3879 4.66631C12.0745 4.811 11.9378 5.18237 12.0825 5.49574C12.2272 5.80912 12.5984 5.9458 12.9119 5.80112C13.6942 5.43987 14.5202 5.22224 15.375 5.15112V23.8749H13.5882C13.3318 21.5922 11.7415 19.3004 10.3241 17.2591C10.1874 17.0623 10.0522 16.8676 9.91999 16.6753C9.07281 15.4441 8.62499 14.0003 8.62499 12.5001C8.62499 11.4222 8.85249 10.3831 9.30118 9.41173C9.44593 9.09835 9.30924 8.72698 8.99587 8.58229C8.6825 8.43755 8.31112 8.57423 8.16643 8.88761C7.64125 10.0244 7.375 11.2398 7.375 12.5C7.375 14.2544 7.89894 15.9432 8.89024 17.3838C9.02356 17.5776 9.15974 17.7737 9.29737 17.9719C10.625 19.8839 12.1151 22.0313 12.3438 23.995C11.9198 24.1952 11.625 24.6257 11.625 25.1249V26.9999C11.625 27.4614 11.877 27.8643 12.25 28.0808V30.1248C12.25 31.1587 13.0911 31.9998 14.125 31.9998H17.875C18.9088 31.9998 19.75 31.1587 19.75 30.1248V28.0808C20.1229 27.8642 20.3749 27.4613 20.3749 26.9999V25.1249C20.3749 24.6249 20.0791 24.1937 19.654 23.994C19.735 23.261 19.9909 22.475 20.4426 21.5692C20.4911 21.5484 20.5395 21.5263 20.5875 21.5022C21.4242 21.0817 22.1164 20.105 21.9736 18.7901C21.9894 18.7842 22.0053 18.7782 22.0206 18.7722C22.8812 18.4316 23.5139 17.6985 23.7131 16.8112C23.8725 16.1013 23.7477 15.3705 23.3706 14.7263C24.1671 14.1125 24.6251 13.1941 24.6251 12.1587ZM19.125 25.1249V26.9999H12.875V25.1249H19.125ZM17.875 30.7498H14.125C13.7804 30.7498 13.5 30.4695 13.5 30.1248V28.2499H18.5V30.1248C18.5 30.4695 18.2196 30.7498 17.875 30.7498ZM22.1947 13.9887C22.0149 14.0746 21.8868 14.241 21.8498 14.4368C21.8129 14.6326 21.8716 14.8342 22.0076 14.9797C22.4359 15.4373 22.613 16.0051 22.4934 16.5374C22.3833 17.0279 22.0433 17.4189 21.5606 17.6099C21.1791 17.7608 20.5898 17.8574 20.1967 17.7493C19.5701 17.5813 19.4855 17.3525 19.317 16.8966C19.1746 16.5111 18.9795 15.9832 18.3935 15.5791C18.1094 15.3831 17.7202 15.4546 17.5241 15.7388C17.3281 16.0229 17.3997 16.4121 17.6838 16.6081C17.9325 16.7796 18.0129 16.9736 18.1446 17.3299C18.346 17.8749 18.6219 18.6213 19.869 18.9555C20.0986 19.0188 20.3427 19.0452 20.5862 19.0452C20.638 19.0452 20.6897 19.0436 20.7413 19.0414C20.7784 19.7384 20.4235 20.1857 20.0264 20.3852C19.6541 20.5723 19.0753 20.6068 18.6689 20.0886C18.4559 19.817 18.063 19.7696 17.7914 19.9826C17.5198 20.1956 17.4723 20.5884 17.6853 20.8601C18.0356 21.3067 18.4988 21.5952 19.0023 21.7097C18.677 22.4802 18.4827 23.19 18.4094 23.8749H16.625V13.6511C18.5981 13.618 19.1363 12.6327 19.5303 11.9095C19.7279 11.547 19.8608 11.318 20.0936 11.1864C20.3942 11.0166 20.5001 10.6353 20.3303 10.3348C20.1604 10.0343 19.779 9.92835 19.4786 10.0982C18.9225 10.4125 18.6622 10.8902 18.4327 11.3116C18.0967 11.9283 17.8511 12.3782 16.625 12.4017V5.14787C17.5441 5.21737 18.2166 5.44543 18.5483 5.80805C18.6711 5.9423 18.7466 6.09587 18.7775 6.2718C18.1602 6.66993 17.8957 7.18342 17.7089 7.68824C17.5891 8.01198 17.7544 8.37155 18.0781 8.49136C18.1496 8.51779 18.2228 8.53042 18.295 8.53042C18.549 8.53042 18.7878 8.37436 18.8811 8.12217C19.0181 7.75198 19.1633 7.44917 19.6481 7.21405C20.2315 7.01424 20.9094 7.16911 21.3432 7.60467C21.5831 7.84555 21.9404 8.37254 21.6391 9.19548C21.5216 9.51654 21.6838 9.87241 22.0033 9.99429C22.734 10.2731 23.375 11.2845 23.375 12.1587C23.3751 12.9516 22.9338 13.6357 22.1947 13.9887Z" fill="#0F90D1"/>
<path d="M16 2.62506C16.3452 2.62506 16.625 2.34525 16.625 2.00006V0.625C16.625 0.279813 16.3451 0 16 0C15.6549 0 15.375 0.279813 15.375 0.625V2.00006C15.375 2.34525 15.6548 2.62506 16 2.62506Z" fill="#0F90D1"/>
<path d="M10.2089 3.71932C10.3247 3.91982 10.5347 4.03194 10.7507 4.03194C10.8567 4.03194 10.9642 4.00488 11.0627 3.94807C11.3616 3.77551 11.464 3.39326 11.2914 3.09432L10.6039 1.90344C10.4313 1.60444 10.049 1.50207 9.75011 1.67469C9.45117 1.84726 9.34873 2.22951 9.52136 2.52844L10.2089 3.71932Z" fill="#0F90D1"/>
<path d="M5.40245 7.10383L6.59333 7.79139C6.69177 7.84821 6.7992 7.87527 6.90527 7.87527C7.12127 7.87527 7.33133 7.76314 7.44708 7.56264C7.6197 7.26371 7.51727 6.88146 7.21833 6.70889L6.02745 6.02133C5.72864 5.84877 5.34633 5.95114 5.1737 6.25008C5.00108 6.54902 5.10352 6.93127 5.40245 7.10383Z" fill="#0F90D1"/>
<path d="M6.12506 12.5C6.12506 12.1548 5.84525 11.875 5.50006 11.875H4.125C3.77981 11.875 3.5 12.1548 3.5 12.5C3.5 12.8452 3.77981 13.125 4.125 13.125H5.50006C5.84525 13.125 6.12506 12.8452 6.12506 12.5Z" fill="#0F90D1"/>
<path d="M6.59333 17.2089L5.40245 17.8964C5.10352 18.0689 5.00108 18.4512 5.1737 18.7501C5.28945 18.9506 5.49952 19.0628 5.71552 19.0628C5.82152 19.0628 5.92902 19.0357 6.02745 18.9789L7.21833 18.2914C7.51727 18.1188 7.6197 17.7366 7.44708 17.4376C7.27452 17.1387 6.8922 17.0362 6.59333 17.2089Z" fill="#0F90D1"/>
<path d="M20.9376 3.94803C21.036 4.0049 21.1435 4.0319 21.2495 4.0319C21.4655 4.0319 21.6756 3.91978 21.7914 3.71928L22.4789 2.5284C22.6515 2.22946 22.5491 1.84721 22.2502 1.67465C21.9512 1.50209 21.569 1.60446 21.3964 1.9034L20.7089 3.09428C20.5362 3.39315 20.6387 3.77546 20.9376 3.94803Z" fill="#0F90D1"/>
<path d="M25.0945 7.87528C25.2005 7.87528 25.3079 7.84822 25.4064 7.79141L26.5973 7.10385C26.8962 6.93128 26.9987 6.54903 26.826 6.2501C26.6534 5.95122 26.2714 5.84872 25.9723 6.02135L24.7814 6.70891C24.4824 6.88147 24.38 7.26372 24.5526 7.56266C24.6684 7.76316 24.8784 7.87528 25.0945 7.87528Z" fill="#0F90D1"/>
<path d="M27.8751 11.875H26.5C26.1549 11.875 25.875 12.1548 25.875 12.5C25.875 12.8452 26.1549 13.125 26.5 13.125H27.8751C28.2202 13.125 28.5001 12.8452 28.5001 12.5C28.5001 12.1548 28.2203 11.875 27.8751 11.875Z" fill="#0F90D1"/>
<path d="M26.5973 17.8963L25.4064 17.2088C25.1073 17.0363 24.7252 17.1387 24.5526 17.4376C24.38 17.7366 24.4824 18.1188 24.7814 18.2914L25.9723 18.9789C26.0707 19.0358 26.1782 19.0628 26.2842 19.0628C26.5002 19.0628 26.7103 18.9506 26.826 18.7501C26.9987 18.4511 26.8962 18.0689 26.5973 17.8963Z" fill="#0F90D1"/>
<path d="M10.3435 6.21826C9.99831 6.21826 9.71875 6.49807 9.71875 6.84326C9.71875 7.18845 9.99875 7.46826 10.3439 7.46826C10.6891 7.46826 10.9689 7.18845 10.9689 6.84326C10.9689 6.49807 10.6891 6.21826 10.3439 6.21826H10.3435Z" fill="#0F90D1"/>
</g>
<defs>
<clipPath id="clip0_2102_9194">
<rect width="32" height="32" fill="white"/>
</clipPath>
</defs>
</svg>
