<svg width="64" height="64" viewBox="0 0 64 64" fill="none" xmlns="http://www.w3.org/2000/svg">
<g clip-path="url(#clip0_2102_9175)">
<path d="M55.717 12.9617C56.5685 11.8686 57.0764 10.4953 57.0764 9.00559V6.40665C56.7511 -2.1388 44.501 -2.1323 44.1789 6.40665V9.00559C44.1789 10.4952 44.6866 11.8686 45.5382 12.9615C42.4563 14.7566 40.4883 18.0778 40.4883 21.7245V22.0216C40.5498 23.6794 42.929 23.6782 42.9899 22.0216V21.7245C42.9899 18.6665 44.8292 15.9117 47.6192 14.7084C49.391 15.6935 51.8642 15.6935 53.6361 14.7084C56.4254 15.9117 58.2655 18.6685 58.2655 21.7244V33.5759C58.2655 34.5199 57.4975 35.2879 56.5535 35.2879C55.8936 35.2879 55.3472 35.8006 55.3052 36.4591L53.8247 59.6928C53.7457 60.5917 53.1328 61.498 52.1092 61.498H49.1463C48.1188 61.498 47.5051 60.5845 47.4299 59.6822C46.9325 53.6842 46.4474 42.4362 45.9485 36.4349C45.8944 35.7866 45.3525 35.288 44.702 35.288C43.758 35.288 42.9899 34.52 42.9899 33.576V33.2789C42.9284 31.6211 40.5492 31.6224 40.4883 33.2789V33.576C40.4883 35.4943 41.7766 37.1172 43.5335 37.6249C43.9966 43.6825 44.4561 54.0705 44.9369 59.8899C45.1321 62.2328 46.9416 63.9997 49.1462 63.9997H52.1091C54.3137 63.9997 56.1234 62.2329 56.3185 59.8899C56.3192 59.8818 56.3197 59.8738 56.3204 59.8657L57.7379 37.6203C59.4864 37.1072 60.7671 35.4884 60.7671 33.576V21.7245C60.767 18.0803 58.7984 14.7572 55.717 12.9617ZM50.6275 12.9527C48.4511 12.9527 46.6804 11.182 46.6804 9.00559V6.40665C46.6804 4.23023 48.4511 2.45957 50.6275 2.45957C52.8039 2.45957 54.5746 4.23023 54.5746 6.40665V9.00559C54.5746 11.182 52.8039 12.9527 50.6275 12.9527Z" fill="#FF4A35"/>
<path d="M34.65 22.8439C35.3407 21.8951 35.7485 20.7277 35.7485 19.4669V17.2166C35.4584 9.59555 24.5334 9.60117 24.2461 17.2166V19.4669C24.2461 20.7277 24.6539 21.8949 25.3446 22.8438C22.7192 24.449 21.0508 27.3286 21.0508 30.4789V39.657C21.0508 41.3538 22.1639 42.7955 23.6984 43.2901C24.0981 48.3607 24.4929 55.3435 24.903 60.2876C25.0793 62.4039 26.718 63.9998 28.7148 63.9998H31.2801C33.2769 63.9998 34.9156 62.4039 35.0918 60.2876C35.0922 60.2826 35.0926 60.2777 35.0929 60.2729L36.3059 43.287C37.8355 42.7894 38.944 41.3503 38.944 39.657V30.4789C38.944 27.3292 37.2754 24.4492 34.65 22.8439ZM26.7477 17.2166C26.7477 15.4248 28.2054 13.9671 29.9972 13.9671C31.789 13.9671 33.2467 15.4248 33.2467 17.2166V19.4669C33.0829 23.7729 26.9099 23.7698 26.7476 19.4669L26.7477 17.2166ZM36.4423 39.657C36.4423 40.3818 35.8527 40.9714 35.1278 40.9714C34.4715 40.9714 33.9269 41.4786 33.8801 42.1331L32.5981 60.0862C32.537 60.7889 32.0657 61.4982 31.2798 61.4982H28.7145C27.9263 61.4982 27.4545 60.7847 27.3958 60.0801C26.9651 54.8959 26.5447 47.3045 26.1132 42.1184C26.0592 41.4701 25.5173 40.9715 24.8668 40.9715C24.142 40.9715 23.5524 40.3819 23.5524 39.6572V30.479C23.5524 27.9279 25.0735 25.6224 27.3864 24.5907C28.9327 25.4197 31.0621 25.4197 32.6082 24.5907C34.9211 25.6226 36.4423 27.9285 36.4423 30.4792V39.657Z" fill="#FF4A35"/>
<path d="M15.7094 33.2926C16.2927 32.4442 16.6346 31.4173 16.6346 30.312V28.3005C16.3687 21.3119 6.35038 21.3172 6.08696 28.3005V30.312C6.08696 31.4173 6.42881 32.4442 7.01219 33.2926C4.69592 34.765 3.23047 37.3421 3.23047 40.1561V47.1099C3.23047 48.6565 4.22637 49.9749 5.61052 50.4576C5.77638 52.2905 5.94324 53.7019 6.10547 55.0733C6.29222 56.6532 6.48547 58.2868 6.67459 60.5598C6.83795 62.5209 8.35969 63.9999 10.2143 63.9999H12.5074C14.3576 63.9999 15.8765 62.5279 16.0458 60.5735L17.0946 50.4632C18.4873 49.9853 19.4911 48.6625 19.4911 47.1099V40.156C19.4911 37.3426 18.0255 34.7651 15.7094 33.2926ZM8.58859 28.3005C8.72843 24.627 13.9945 24.6297 14.133 28.3005V30.312C13.9931 33.9856 8.72705 33.9827 8.58859 30.312V28.3005ZM16.9894 47.1098C16.9894 47.6845 16.5219 48.1521 15.9471 48.1521C15.3062 48.1521 14.7691 48.6364 14.703 49.2738L13.5563 60.3268C13.5555 60.3351 13.5547 60.3435 13.554 60.3519C13.5064 60.9214 13.1317 61.498 12.5073 61.498H10.2141C9.58974 61.498 9.215 60.9215 9.16759 60.352C8.97472 58.0359 8.77909 56.3804 8.58972 54.7794C8.40309 53.2011 8.21009 51.569 8.02097 49.2989C7.96693 48.6506 7.42495 48.1521 6.77453 48.1521C6.19978 48.1521 5.73223 47.6845 5.73223 47.1098V40.156C5.73223 37.9494 7.03595 35.9526 9.024 35.0391C10.4144 35.7614 12.3074 35.7614 13.6978 35.0391C15.6857 35.9526 16.9897 37.9498 16.9897 40.156V47.1098H16.9894Z" fill="#FF4A35"/>
<path d="M41.7394 28.901C43.3972 28.8395 43.396 26.4603 41.7394 26.3994H41.7385C40.0807 26.4611 40.0829 28.8404 41.7394 28.901Z" fill="#FF4A35"/>
</g>
<defs>
<clipPath id="clip0_2102_9175">
<rect width="64" height="64" fill="white"/>
</clipPath>
</defs>
</svg>
