<svg width="32" height="32" viewBox="0 0 32 32" fill="none" xmlns="http://www.w3.org/2000/svg">
<path d="M14.1289 25.7236C13.7834 25.7236 13.5039 26.0037 13.5039 26.3486C13.5039 26.6943 13.7834 26.9736 14.1289 26.9736C14.4739 26.9736 14.7539 26.6943 14.7539 26.3486C14.7539 26.0037 14.4739 25.7236 14.1289 25.7236Z" fill="#FFA336"/>
<path d="M17.875 25.75H16.625C16.2798 25.75 16 26.0298 16 26.375C16 26.7202 16.2798 27 16.625 27H17.875C18.2202 27 18.5 26.7202 18.5 26.375C18.5 26.0298 18.2202 25.75 17.875 25.75Z" fill="#FFA336"/>
<path d="M4.75 30.125V31.375C4.75 31.7202 5.02979 32 5.375 32H26.625C26.9702 32 27.25 31.7202 27.25 31.375V30.125C27.25 29.3103 26.7275 28.6155 26 28.3574V17.7676C26.7275 17.5095 27.25 16.8147 27.25 16C27.25 15.1853 26.7275 14.4905 26 14.2324V3.64258C26.7275 3.38452 27.25 2.6897 27.25 1.875V0.625C27.25 0.279785 26.9702 0 26.625 0H5.375C5.02979 0 4.75 0.279785 4.75 0.625V1.875C4.75 2.6897 5.27246 3.38452 6 3.64258V14.2324C5.27246 14.4905 4.75 15.1853 4.75 16C4.75 16.8147 5.27246 17.5095 6 17.7676V28.3574C5.27246 28.6155 4.75 29.3103 4.75 30.125ZM8.5 16C8.5 15.1853 7.97754 14.4905 7.25 14.2324V3.75H8.4502C8.45337 5.65991 8.49512 7.61035 9.02173 9.39966C9.01904 9.53516 9.05884 9.66748 9.14258 9.78149C9.51343 10.877 10.0452 11.7898 10.7646 12.5667L13.8767 15.9248L10.7021 19.3984C8.51855 21.7888 8.45044 25.1929 8.44971 28.25H7.25V17.7676C7.97754 17.5095 8.5 16.8147 8.5 16ZM23.5 16C23.5 16.8147 24.0225 17.5095 24.75 17.7676V28.25H23.5022C23.4983 25.1692 23.397 21.7659 21.1873 19.3816L18.0757 16.0229L21.2502 12.5491C21.7468 12.0054 22.1609 11.375 22.4841 10.6755C22.5605 10.5842 22.6091 10.4734 22.6248 10.3567C23.4612 8.32666 23.5015 6.01172 23.5024 3.75H24.75V14.2324C24.0225 14.4905 23.5 15.1853 23.5 16ZM16.7915 15.5752L16.7678 15.6008C16.6196 15.761 16.571 15.9788 16.6206 16.1775C16.585 17.0947 16.2815 17.9263 15.9988 18.5112C15.6985 17.8911 15.375 16.9924 15.375 16C15.375 15.8635 15.3137 15.6362 15.1846 15.4971L11.6816 11.7173C11.156 11.1497 10.749 10.488 10.4451 9.70654C12.1335 8.95776 14.1187 9.15454 15.6323 10.2554C16.7603 11.0759 18.094 11.4949 19.4365 11.4949C19.8237 11.4949 20.2117 11.4592 20.5955 11.3892C20.5098 11.4976 20.4211 11.6033 20.3274 11.7058L16.7915 15.5752ZM14.2749 17.342C14.6216 18.9282 15.4543 20.0637 15.4988 20.1233C15.6167 20.2817 15.8025 20.375 16 20.375C16.1975 20.375 16.3833 20.2817 16.5012 20.1233C16.5442 20.0657 17.3389 18.9827 17.6992 17.4561L20.2703 20.2312C21.8167 21.8997 22.157 24.2212 22.2317 26.6365C20.6458 24.4922 18.6379 23.0649 16.2815 22.0671C16.0874 21.969 15.8542 21.9785 15.6677 22.0957C15.199 22.3899 12.0881 23.4563 9.71509 26.7061C9.77637 24.2764 10.0852 21.9272 11.6252 20.2417L14.2749 17.342ZM15.7905 23.4299C15.8794 23.3879 15.9592 23.3503 16.031 23.3154C18.2859 24.2583 20.417 25.969 21.8127 28.25H10.1853C12.0398 25.2053 14.6282 23.9797 15.7905 23.4299ZM22.2527 3.75C22.2517 5.86499 22.2144 8.02295 21.4934 9.82031C19.8069 10.5449 17.863 10.332 16.3677 9.24463C14.5332 7.91064 12.1406 7.64771 10.0789 8.50391C9.73486 7.01538 9.70312 5.37036 9.70044 3.75H22.2527ZM26 30.75H6V30.125C6 29.7803 6.28027 29.5 6.625 29.5H25.375C25.7197 29.5 26 29.7803 26 30.125V30.75ZM25.375 16.625C25.0303 16.625 24.75 16.3447 24.75 16C24.75 15.6553 25.0303 15.375 25.375 15.375C25.7197 15.375 26 15.6553 26 16C26 16.3447 25.7197 16.625 25.375 16.625ZM6 1.25H26V1.875C26 2.17627 25.7856 2.42847 25.5012 2.48706C25.4604 2.47876 25.2546 2.48364 25.1987 2.5H6.80127C6.74536 2.48364 6.53955 2.47876 6.49878 2.48706C6.21436 2.42847 6 2.17627 6 1.875V1.25ZM6.625 15.375C6.96973 15.375 7.25 15.6553 7.25 16C7.25 16.3447 6.96973 16.625 6.625 16.625C6.28027 16.625 6 16.3447 6 16C6 15.6553 6.28027 15.375 6.625 15.375Z" fill="#FFA336"/>
</svg>
