<svg width="195" height="62" viewBox="0 0 195 62" fill="none" xmlns="http://www.w3.org/2000/svg">
<path d="M30.576 6.09899C29.68 6.84566 28.56 8.05099 27.216 9.71499C26.32 10.8457 25.488 11.9337 24.72 12.979C23.9733 14.0243 23.3013 15.0377 22.704 16.019C22.5333 16.339 22.3627 16.6377 22.192 16.915C22.0427 17.171 21.904 17.4163 21.776 17.651C21.7333 17.7577 21.6693 17.875 21.584 18.003C21.52 18.131 21.4347 18.2697 21.328 18.419C21.264 18.4403 21.1787 18.451 21.072 18.451C20.4747 18.451 20.1653 18.195 20.144 17.683C20.144 17.5763 20.176 17.4697 20.24 17.363C20.2613 17.3417 20.3467 17.1603 20.496 16.819C20.6667 16.4777 20.848 16.0723 21.04 15.603C21.2533 15.1123 21.4667 14.611 21.68 14.099C21.9147 13.587 22.1173 13.139 22.288 12.755C22.48 11.923 22.6933 11.1123 22.928 10.323C23.184 9.53366 23.4293 8.79766 23.664 8.115C23.8987 7.43233 24.112 6.81366 24.304 6.25899C24.496 5.68299 24.6453 5.21366 24.752 4.85099C24.88 4.38166 24.912 4.09366 24.848 3.98699C24.784 3.88033 24.56 4.00833 24.176 4.37099C24.0907 4.52033 23.4293 5.40566 22.192 7.02699C21.8507 7.49633 21.52 7.94433 21.2 8.37099C20.9013 8.79766 20.6027 9.19233 20.304 9.55499C20.0053 9.91766 19.5253 10.515 18.864 11.347C18.224 12.179 17.392 13.235 16.368 14.515C14.6613 16.3923 12.784 17.907 10.736 19.059C8.21867 20.4243 5.91467 20.883 3.824 20.435C2.864 20.2217 2.10667 19.8377 1.552 19.283C0.890667 18.6217 0.666667 17.8323 0.88 16.915C1.15733 15.443 2.49067 14.035 4.88 12.691C7.14133 11.3897 8.99733 10.8777 10.448 11.155C10.6187 11.1977 10.6933 11.2937 10.672 11.443C10.6293 11.5923 10.4587 11.6777 10.16 11.699C7.62133 12.083 5.46667 13.0003 3.696 14.451C2.62933 15.347 1.98933 16.307 1.776 17.331C1.47733 18.6537 2.096 19.475 3.632 19.795C5.72267 20.2217 7.984 19.6563 10.416 18.099C12.272 16.9257 14.096 15.3257 15.888 13.299C17.68 11.2937 18.928 9.85366 19.632 8.97899C19.9947 8.55233 20.3467 8.12566 20.688 7.69899C21.0293 7.25099 21.3813 6.79233 21.744 6.32299C21.936 6.04566 22.1813 5.71499 22.48 5.33099C22.7787 4.92566 23.1307 4.45633 23.536 3.92299C23.7493 3.47499 24.0693 3.16566 24.496 2.995C24.9227 2.803 25.328 2.69633 25.712 2.67499C26.096 2.65366 26.4053 2.67499 26.64 2.73899C26.8747 2.78166 26.9067 2.80299 26.736 2.80299C26.928 2.80299 27.024 2.89899 27.024 3.09099C27.024 3.15499 26.9707 3.27233 26.864 3.44299C26.736 3.65633 26.608 3.86966 26.48 4.08299C26.3733 4.27499 26.2667 4.47766 26.16 4.69099C25.84 5.30966 25.5627 5.91766 25.328 6.51499C25.0933 7.11233 24.8693 7.74166 24.656 8.40299C24.464 9.04299 24.2613 9.74699 24.048 10.515C23.856 11.2617 23.632 12.115 23.376 13.075C24.656 11.4537 26.0533 9.83233 27.568 8.21099C28.0373 7.69899 28.528 7.21899 29.04 6.77099C29.552 6.30166 30.064 5.89633 30.576 5.55499C31.088 5.19233 31.5787 4.91499 32.048 4.72299C32.5387 4.50966 32.976 4.40299 33.36 4.40299C33.552 4.40299 33.648 4.49899 33.648 4.69099C33.648 4.90433 33.584 5.16033 33.456 5.45899C33.3493 5.73633 33.2213 6.03499 33.072 6.35499C32.9227 6.67499 32.7627 6.99499 32.592 7.31499C32.4427 7.61366 32.336 7.86966 32.272 8.08299C31.9733 8.89366 31.6853 9.715 31.408 10.547C31.152 11.3577 30.8747 12.179 30.576 13.011C29.872 15.315 29.5307 16.9577 29.552 17.939C29.5733 18.7283 29.8613 19.123 30.416 19.123C30.7147 19.123 31.088 18.931 31.536 18.547C32.0267 18.1843 32.304 18.003 32.368 18.003C32.4533 18.003 32.496 18.0563 32.496 18.163C32.5387 18.611 32.2613 18.995 31.664 19.315C31.152 19.635 30.6827 19.795 30.256 19.795C29.1253 19.795 28.528 19.0697 28.464 17.619C28.4213 16.6803 28.6133 15.411 29.04 13.811C29.2107 13.235 29.4133 12.5843 29.648 11.859C29.904 11.1123 30.192 10.291 30.512 9.39499C30.64 9.09633 30.7893 8.73366 30.96 8.30699C31.1307 7.88033 31.312 7.35766 31.504 6.73899C31.632 6.26966 31.6 5.96033 31.408 5.81099C31.2373 5.64033 30.96 5.73633 30.576 6.09899ZM41.3223 15.539C41.3223 15.5817 41.3009 15.6457 41.2583 15.731C40.7249 16.563 39.9249 17.331 38.8583 18.035C37.7276 18.7817 36.6929 19.155 35.7543 19.155C34.4103 19.155 33.7383 18.3123 33.7383 16.627C33.7383 15.5177 34.2183 14.3017 35.1783 12.979C36.2023 11.571 37.2583 10.867 38.3463 10.867C38.5596 10.867 38.7409 10.963 38.8903 11.155C39.0609 11.347 39.1463 11.5497 39.1463 11.763C39.1463 12.4243 38.6449 13.2243 37.6423 14.163C36.7463 14.995 35.9249 15.5497 35.1783 15.827C35.0289 16.3603 34.9543 16.8083 34.9543 17.171C34.9543 18.0457 35.3489 18.483 36.1383 18.483C36.8849 18.483 37.7276 18.1737 38.6663 17.555C39.4769 17.0217 40.1703 16.4137 40.7463 15.731C40.8956 15.5177 41.0449 15.411 41.1943 15.411C41.2796 15.411 41.3223 15.4537 41.3223 15.539ZM38.1863 12.147C38.1863 11.891 38.0583 11.763 37.8023 11.763C37.4823 11.763 37.0129 12.2537 36.3943 13.235C35.8609 14.067 35.5303 14.7177 35.4023 15.187C35.9569 14.9523 36.5329 14.5363 37.1302 13.939C37.8343 13.2563 38.1863 12.659 38.1863 12.147ZM45.3263 13.427C45.3903 13.363 45.4543 13.2563 45.5183 13.107C45.5823 12.9577 45.6463 12.7977 45.7103 12.627C45.7956 12.4563 45.8703 12.2963 45.9343 12.147C46.0196 11.9763 46.0943 11.859 46.1583 11.795C46.3076 11.6457 46.4783 11.571 46.6703 11.571C47.1609 11.571 47.4062 11.8163 47.4062 12.307C47.4062 12.4137 47.3636 12.5417 47.2783 12.691C46.0836 14.6537 45.4863 16.211 45.4863 17.363C45.4863 18.1737 45.8703 18.579 46.6383 18.579C47.2356 18.579 47.8756 18.2697 48.5583 17.651C49.0276 17.2457 49.5289 16.6697 50.0623 15.923C50.5103 15.3043 50.7663 14.995 50.8303 14.995C50.8943 14.995 50.9263 15.059 50.9263 15.187C50.9263 15.3363 50.8623 15.5177 50.7343 15.731C49.2836 18.1417 47.7796 19.347 46.2223 19.347C45.0063 19.347 44.3983 18.579 44.3983 17.043C44.3983 16.1897 44.5263 15.3897 44.7823 14.643C44.2703 14.771 43.7476 14.9203 43.2143 15.091C42.6809 15.2617 42.1263 15.4643 41.5503 15.699C41.5076 15.8697 41.4543 16.0403 41.3903 16.211C41.3263 16.3603 41.2729 16.5203 41.2303 16.691C41.0596 17.6937 40.8676 18.3763 40.6543 18.739C40.4409 19.1017 40.1956 19.283 39.9183 19.283C39.7263 19.283 39.6303 19.091 39.6303 18.707C39.6303 18.6217 39.6516 18.5363 39.6943 18.451C39.9289 17.8963 40.1636 17.2457 40.3983 16.499C40.6329 15.731 40.8676 14.835 41.1023 13.811C41.1449 13.6403 41.1876 13.4377 41.2303 13.203C41.2729 12.947 41.3369 12.6483 41.4223 12.307C41.4863 12.1577 41.6356 12.0083 41.8703 11.859C42.1049 11.7097 42.3183 11.635 42.5103 11.635C42.6596 11.635 42.7343 11.699 42.7343 11.827C42.7343 11.9337 42.6489 12.2643 42.4783 12.819C42.3076 13.3523 42.0623 14.131 41.7423 15.155C42.0409 15.0483 42.4036 14.931 42.8303 14.803C43.2569 14.6537 43.7583 14.4937 44.3343 14.323C44.4836 14.3017 44.6969 14.2377 44.9743 14.131C45.0809 13.8963 45.1983 13.6617 45.3263 13.427ZM58.0665 13.939C58.5358 13.9817 58.7705 14.227 58.7705 14.675C58.7705 14.7177 58.7278 14.8457 58.6425 15.059C58.4078 15.5497 58.1838 15.9763 57.9705 16.339C57.7785 16.7017 57.6825 17.0857 57.6825 17.491C57.6825 18.3017 58.0665 18.707 58.8345 18.707C59.4318 18.707 60.0718 18.3977 60.7545 17.779C61.2238 17.3737 61.7252 16.7977 62.2585 16.051C62.7065 15.4323 62.9625 15.123 63.0265 15.123C63.0905 15.123 63.1225 15.187 63.1225 15.315C63.1225 15.4643 63.0585 15.6457 62.9305 15.859C61.4798 18.2697 59.9758 19.475 58.4185 19.475C57.2025 19.475 56.5945 18.707 56.5945 17.171C56.5945 17.0217 56.5945 16.883 56.5945 16.755C56.5945 16.6057 56.6052 16.467 56.6265 16.339C56.7118 16.0403 56.8292 15.7203 56.9785 15.379C56.8505 15.4217 56.7225 15.4537 56.5945 15.475C56.4665 15.4963 56.3492 15.507 56.2425 15.507C55.8798 15.9977 55.5172 16.467 55.1545 16.915C54.7918 17.3417 54.5572 17.6083 54.4505 17.715C53.8532 18.291 53.2665 18.6857 52.6905 18.899C52.1145 19.091 51.6132 19.1123 51.1865 18.963C50.7598 18.8137 50.4398 18.4937 50.2265 18.003C50.0345 17.5123 50.0132 16.851 50.1625 16.019C50.2265 15.6137 50.3438 15.3363 50.5145 15.187C50.6852 15.0377 50.8665 14.963 51.0585 14.963C51.2505 14.963 51.4212 15.027 51.5705 15.155C51.7198 15.2617 51.8158 15.3897 51.8585 15.539C51.5172 16.4137 51.3465 17.1177 51.3465 17.651C51.3678 18.1843 51.5172 18.5043 51.7945 18.611C52.0932 18.7177 52.4985 18.6003 53.0105 18.259C53.5225 17.8963 54.0985 17.267 54.7385 16.371C54.8665 16.2003 55.0585 15.923 55.3145 15.539C54.6745 15.5177 54.0985 15.3683 53.5865 15.091C53.0958 14.8137 52.7652 14.4617 52.5945 14.035C52.4238 13.587 52.4558 13.1177 52.6905 12.627C52.9252 12.115 53.4478 11.6243 54.2585 11.155C54.8345 10.835 55.3252 10.675 55.7305 10.675C56.1358 10.6537 56.4558 10.7497 56.6905 10.963C56.9465 11.155 57.1172 11.4323 57.2025 11.795C57.3092 12.1363 57.3518 12.5097 57.3305 12.915C57.3092 13.3203 57.2345 13.715 57.1065 14.099C56.9785 14.4617 56.7972 14.771 56.5625 15.027C56.6692 15.027 56.7758 15.027 56.8825 15.027C56.9892 15.027 57.0958 15.0057 57.2025 14.963C57.5012 14.4297 57.7145 14.131 57.8425 14.067C57.9705 13.9817 58.0452 13.939 58.0665 13.939ZM56.4665 12.051C55.5705 11.7523 54.9198 11.7097 54.5145 11.923C54.1305 12.115 53.9278 12.4137 53.9065 12.819C53.8852 13.203 54.0345 13.619 54.3545 14.067C54.6958 14.4937 55.1545 14.7817 55.7305 14.931C55.9225 14.6323 56.0932 14.323 56.2425 14.003C56.4132 13.683 56.5305 13.395 56.5945 13.139C56.6798 12.8617 56.7118 12.627 56.6905 12.435C56.6905 12.2217 56.6158 12.0937 56.4665 12.051ZM69.541 15.539C69.541 15.5817 69.5197 15.6457 69.477 15.731C68.9437 16.563 68.1437 17.331 67.077 18.035C65.9463 18.7817 64.9117 19.155 63.973 19.155C62.629 19.155 61.957 18.3123 61.957 16.627C61.957 15.5177 62.437 14.3017 63.397 12.979C64.421 11.571 65.477 10.867 66.565 10.867C66.7783 10.867 66.9597 10.963 67.109 11.155C67.2797 11.347 67.365 11.5497 67.365 11.763C67.365 12.4243 66.8637 13.2243 65.861 14.163C64.965 14.995 64.1437 15.5497 63.397 15.827C63.2477 16.3603 63.173 16.8083 63.173 17.171C63.173 18.0457 63.5677 18.483 64.357 18.483C65.1037 18.483 65.9463 18.1737 66.885 17.555C67.6957 17.0217 68.389 16.4137 68.965 15.731C69.1143 15.5177 69.2637 15.411 69.413 15.411C69.4983 15.411 69.541 15.4537 69.541 15.539ZM66.405 12.147C66.405 11.891 66.277 11.763 66.021 11.763C65.701 11.763 65.2317 12.2537 64.613 13.235C64.0797 14.067 63.749 14.7177 63.621 15.187C64.1757 14.9523 64.7517 14.5363 65.349 13.939C66.053 13.2563 66.405 12.659 66.405 12.147ZM75.305 13.363C74.8783 14.259 74.4197 15.155 73.929 16.051C73.4383 16.9257 72.9797 17.5763 72.553 18.003C71.9557 18.579 71.3903 18.9523 70.857 19.123C70.3237 19.2937 69.8757 19.283 69.513 19.091C69.1503 18.9203 68.8837 18.579 68.713 18.067C68.5637 17.5337 68.5637 16.851 68.713 16.019C68.777 15.6137 68.8943 15.3363 69.065 15.187C69.2357 15.0377 69.417 14.963 69.609 14.963C69.801 14.963 69.9717 15.027 70.121 15.155C70.2703 15.2617 70.3663 15.3897 70.409 15.539C70.0677 16.4137 69.897 17.1177 69.897 17.651C69.9183 18.1843 70.0677 18.5043 70.345 18.611C70.6437 18.7177 71.049 18.6003 71.561 18.259C72.073 17.8963 72.649 17.267 73.289 16.371C73.5237 16.051 73.7903 15.603 74.089 15.027C74.409 14.451 74.729 13.619 75.049 12.531C75.8383 12.1257 76.4037 11.9337 76.745 11.955C77.0863 11.955 77.2677 12.0937 77.289 12.371C77.3317 12.627 77.257 12.9897 77.065 13.459C76.873 13.907 76.6597 14.387 76.425 14.899C76.1903 15.3897 75.9663 15.8697 75.753 16.339C75.561 16.787 75.465 17.1497 75.465 17.427C75.529 17.3417 75.6463 17.1923 75.817 16.979C75.9877 16.7443 76.201 16.4777 76.457 16.179C76.713 15.859 76.9903 15.5177 77.289 15.155C77.609 14.7923 77.9397 14.4297 78.281 14.067C78.7077 13.5763 79.369 12.851 80.265 11.891C80.3503 11.8057 80.4463 11.731 80.553 11.667C80.6597 11.603 80.7557 11.571 80.841 11.571C81.3317 11.571 81.577 11.8163 81.577 12.307C81.577 12.4137 81.5343 12.5417 81.449 12.691C80.2543 14.6537 79.657 16.211 79.657 17.363C79.657 18.1737 80.041 18.579 80.809 18.579C81.4063 18.579 82.0463 18.2697 82.729 17.651C83.1983 17.2457 83.6997 16.6697 84.233 15.923C84.681 15.3043 84.937 14.995 85.001 14.995C85.065 14.995 85.097 15.059 85.097 15.187C85.097 15.3363 85.033 15.5177 84.905 15.731C83.4543 18.1417 81.9503 19.347 80.393 19.347C79.177 19.347 78.569 18.579 78.569 17.043C78.569 16.3603 78.633 15.7417 78.761 15.187C78.9103 14.611 79.1343 14.0563 79.433 13.523C79.0063 13.9283 78.6117 14.3337 78.249 14.739C77.9077 15.1443 77.513 15.6243 77.065 16.179C76.873 16.435 76.681 16.7017 76.489 16.979C76.297 17.2563 76.105 17.5017 75.913 17.715C75.721 17.9283 75.529 18.0883 75.337 18.195C75.145 18.3017 74.9423 18.291 74.729 18.163C74.4943 18.0137 74.4197 17.6937 74.505 17.203C74.6117 16.7123 74.761 16.1897 74.953 15.635C75.1663 15.0803 75.369 14.579 75.561 14.131C75.753 13.683 75.817 13.427 75.753 13.363C75.753 13.2563 75.6783 13.203 75.529 13.203C75.3797 13.203 75.305 13.2563 75.305 13.363ZM96.9043 15.219C96.9043 15.3043 96.8403 15.4217 96.7123 15.571C95.9656 16.659 94.9309 17.651 93.6083 18.547C92.8403 19.0377 92.0296 19.283 91.1763 19.283C89.5976 19.283 88.8083 18.4403 88.8083 16.755C88.8083 15.7097 89.3843 14.5577 90.5363 13.299C91.7096 12.0403 92.8083 11.411 93.8323 11.411C94.5149 11.411 94.8563 11.6777 94.8563 12.211C94.8563 12.4243 94.6963 12.7977 94.3763 13.331C94.0776 13.843 93.8323 14.099 93.6403 14.099C93.5549 14.099 93.5123 14.0457 93.5123 13.939C93.5123 13.8537 93.5443 13.715 93.6083 13.523C93.6936 13.331 93.7363 13.1817 93.7363 13.075C93.7363 12.627 93.4589 12.403 92.9043 12.403C92.1363 12.403 91.4429 12.9043 90.8243 13.907C90.2483 14.8243 89.9603 15.6883 89.9603 16.499C89.9603 17.8217 90.5363 18.483 91.6883 18.483C93.1389 18.483 94.6536 17.491 96.2323 15.507C96.4456 15.251 96.6269 15.123 96.7763 15.123C96.8616 15.123 96.9043 15.155 96.9043 15.219ZM103.104 15.539C103.104 15.5817 103.082 15.6457 103.04 15.731C102.506 16.563 101.706 17.331 100.64 18.035C99.5088 18.7817 98.4742 19.155 97.5355 19.155C96.1915 19.155 95.5195 18.3123 95.5195 16.627C95.5195 15.5177 95.9995 14.3017 96.9595 12.979C97.9835 11.571 99.0395 10.867 100.128 10.867C100.341 10.867 100.522 10.963 100.672 11.155C100.842 11.347 100.928 11.5497 100.928 11.763C100.928 12.4243 100.426 13.2243 99.4235 14.163C98.5275 14.995 97.7062 15.5497 96.9595 15.827C96.8102 16.3603 96.7355 16.8083 96.7355 17.171C96.7355 18.0457 97.1302 18.483 97.9195 18.483C98.6662 18.483 99.5088 18.1737 100.448 17.555C101.258 17.0217 101.952 16.4137 102.528 15.731C102.677 15.5177 102.826 15.411 102.976 15.411C103.061 15.411 103.104 15.4537 103.104 15.539ZM99.9675 12.147C99.9675 11.891 99.8395 11.763 99.5835 11.763C99.2635 11.763 98.7942 12.2537 98.1755 13.235C97.6422 14.067 97.3115 14.7177 97.1835 15.187C97.7382 14.9523 98.3142 14.5363 98.9115 13.939C99.6155 13.2563 99.9675 12.659 99.9675 12.147ZM115.876 4.81899C115.577 5.22433 115.054 5.57633 114.308 5.87499C113.561 6.17366 112.42 6.37633 110.884 6.48299C110.009 6.52566 109.188 6.83499 108.42 7.41099C107.652 7.96566 106.894 8.88299 106.148 10.163C105.785 10.7817 105.486 11.2937 105.252 11.699C105.038 12.083 104.857 12.435 104.708 12.755C104.558 13.0537 104.43 13.3417 104.324 13.619C104.217 13.8963 104.11 14.227 104.004 14.611C104.537 13.651 105.188 12.7337 105.956 11.859C106.98 10.6857 107.886 10.099 108.676 10.099C109.316 10.099 109.635 10.5577 109.635 11.475C109.635 12.7977 109.22 14.3017 108.388 15.987C107.833 17.139 107.108 18.1417 106.212 18.995C105.145 19.9977 104.057 20.499 102.948 20.499C102.094 20.499 101.668 20.339 101.668 20.019C101.668 19.891 101.732 19.827 101.86 19.827C101.924 19.827 102.073 19.859 102.308 19.923C102.564 20.0083 102.777 20.051 102.948 20.051C103.908 20.051 104.857 19.507 105.796 18.419C106.5 17.587 107.076 16.6163 107.524 15.507C107.929 14.547 108.132 13.491 108.132 12.339C108.132 11.635 107.972 11.283 107.652 11.283C106.948 11.283 106.009 12.2537 104.836 14.195C103.726 16.0083 103.172 17.363 103.172 18.259C103.172 18.4937 103.246 18.675 103.396 18.803C103.566 18.931 103.652 19.0377 103.652 19.123C103.652 19.2083 103.598 19.251 103.492 19.251C102.702 19.251 102.308 18.675 102.308 17.523C102.308 16.691 102.521 15.6883 102.948 14.515C103.374 13.3203 103.95 12.1363 104.676 10.963C105.401 9.76833 106.222 8.68033 107.14 7.69899C108.057 6.69633 109.017 5.97099 110.02 5.52299C110.532 5.30966 111.012 5.13899 111.46 5.01099C111.908 4.88299 112.313 4.78699 112.676 4.72299C113.06 4.63766 113.401 4.56299 113.7 4.49899C113.998 4.43499 114.265 4.34966 114.5 4.24299C114.82 4.11499 115.086 3.98699 115.3 3.85899C115.534 3.70966 115.716 3.62433 115.844 3.60299C115.972 3.58166 116.036 3.66699 116.036 3.85899C116.057 4.02966 116.004 4.34966 115.876 4.81899ZM118.473 13.939C118.942 13.9817 119.177 14.227 119.177 14.675C119.177 14.7177 119.134 14.8457 119.049 15.059C118.814 15.5497 118.59 15.9763 118.377 16.339C118.185 16.7017 118.089 17.0857 118.089 17.491C118.089 18.3017 118.473 18.707 119.241 18.707C119.838 18.707 120.478 18.3977 121.161 17.779C121.63 17.3737 122.131 16.7977 122.665 16.051C123.113 15.4323 123.369 15.123 123.433 15.123C123.497 15.123 123.529 15.187 123.529 15.315C123.529 15.4643 123.465 15.6457 123.337 15.859C121.886 18.2697 120.382 19.475 118.825 19.475C117.609 19.475 117.001 18.707 117.001 17.171C117.001 17.0217 117.001 16.883 117.001 16.755C117.001 16.6057 117.011 16.467 117.033 16.339C117.118 16.0403 117.235 15.7203 117.385 15.379C117.257 15.4217 117.129 15.4537 117.001 15.475C116.873 15.4963 116.755 15.507 116.649 15.507C116.286 15.9977 115.923 16.467 115.561 16.915C115.198 17.3417 114.963 17.6083 114.857 17.715C114.259 18.291 113.673 18.6857 113.097 18.899C112.521 19.091 112.019 19.1123 111.593 18.963C111.166 18.8137 110.846 18.4937 110.633 18.003C110.441 17.5123 110.419 16.851 110.569 16.019C110.633 15.6137 110.75 15.3363 110.921 15.187C111.091 15.0377 111.273 14.963 111.465 14.963C111.657 14.963 111.827 15.027 111.977 15.155C112.126 15.2617 112.222 15.3897 112.265 15.539C111.923 16.4137 111.753 17.1177 111.753 17.651C111.774 18.1843 111.923 18.5043 112.201 18.611C112.499 18.7177 112.905 18.6003 113.417 18.259C113.929 17.8963 114.505 17.267 115.145 16.371C115.273 16.2003 115.465 15.923 115.721 15.539C115.081 15.5177 114.505 15.3683 113.993 15.091C113.502 14.8137 113.171 14.4617 113.001 14.035C112.83 13.587 112.862 13.1177 113.097 12.627C113.331 12.115 113.854 11.6243 114.665 11.155C115.241 10.835 115.731 10.675 116.137 10.675C116.542 10.6537 116.862 10.7497 117.097 10.963C117.353 11.155 117.523 11.4323 117.609 11.795C117.715 12.1363 117.758 12.5097 117.737 12.915C117.715 13.3203 117.641 13.715 117.513 14.099C117.385 14.4617 117.203 14.771 116.969 15.027C117.075 15.027 117.182 15.027 117.289 15.027C117.395 15.027 117.502 15.0057 117.609 14.963C117.907 14.4297 118.121 14.131 118.249 14.067C118.377 13.9817 118.451 13.939 118.473 13.939ZM116.873 12.051C115.977 11.7523 115.326 11.7097 114.921 11.923C114.537 12.115 114.334 12.4137 114.313 12.819C114.291 13.203 114.441 13.619 114.761 14.067C115.102 14.4937 115.561 14.7817 116.137 14.931C116.329 14.6323 116.499 14.323 116.649 14.003C116.819 13.683 116.937 13.395 117.001 13.139C117.086 12.8617 117.118 12.627 117.097 12.435C117.097 12.2217 117.022 12.0937 116.873 12.051ZM130.427 15.123C130.427 15.2723 130.15 15.3577 129.595 15.379C128.123 15.4857 125.905 15.6137 122.939 15.763H122.779C122.353 15.7843 122.139 15.7097 122.139 15.539C122.139 15.2617 122.513 14.995 123.259 14.739C123.601 14.611 124.273 14.547 125.275 14.547C126.939 14.547 128.379 14.6323 129.595 14.803C130.15 14.8883 130.427 14.995 130.427 15.123Z" fill="#0F90D1"/>
<path d="M85.68 39.363C85.2533 40.259 84.7947 41.155 84.304 42.051C83.8133 42.9257 83.3547 43.5763 82.928 44.003C82.3307 44.579 81.7653 44.9523 81.232 45.123C80.6987 45.2937 80.2507 45.283 79.888 45.091C79.5253 44.9203 79.2587 44.579 79.088 44.067C78.9387 43.5337 78.9387 42.851 79.088 42.019C79.152 41.6137 79.2693 41.3363 79.44 41.187C79.6107 41.0377 79.792 40.963 79.984 40.963C80.176 40.963 80.3467 41.027 80.496 41.155C80.6453 41.2617 80.7413 41.3897 80.784 41.539C80.4427 42.4137 80.272 43.1177 80.272 43.651C80.2933 44.1843 80.4427 44.5043 80.72 44.611C81.0187 44.7177 81.424 44.6003 81.936 44.259C82.448 43.8963 83.024 43.267 83.664 42.371C83.8987 42.051 84.1653 41.603 84.464 41.027C84.784 40.451 85.104 39.619 85.424 38.531C86.2133 38.1257 86.7787 37.9337 87.12 37.955C87.4613 37.955 87.6427 38.0937 87.664 38.371C87.7067 38.627 87.632 38.9897 87.44 39.459C87.248 39.907 87.0347 40.387 86.8 40.899C86.5653 41.3897 86.3413 41.8697 86.128 42.339C85.936 42.787 85.84 43.1497 85.84 43.427C85.904 43.3417 86.0213 43.1923 86.192 42.979C86.3627 42.7443 86.576 42.4777 86.832 42.179C87.088 41.859 87.3653 41.5177 87.664 41.155C87.984 40.7923 88.3147 40.4297 88.656 40.067C89.0827 39.5763 89.744 38.851 90.64 37.891C90.7253 37.8057 90.8213 37.731 90.928 37.667C91.0347 37.603 91.1307 37.571 91.216 37.571C91.7067 37.571 91.952 37.8163 91.952 38.307C91.952 38.4137 91.9093 38.5417 91.824 38.691C90.6293 40.6537 90.032 42.211 90.032 43.363C90.032 44.1737 90.416 44.579 91.184 44.579C91.7813 44.579 92.4213 44.2697 93.104 43.651C93.5733 43.2457 94.0747 42.6697 94.608 41.923C95.056 41.3043 95.312 40.995 95.376 40.995C95.44 40.995 95.472 41.059 95.472 41.187C95.472 41.3363 95.408 41.5177 95.28 41.731C93.8293 44.1417 92.3253 45.347 90.768 45.347C89.552 45.347 88.944 44.579 88.944 43.043C88.944 42.3603 89.008 41.7417 89.136 41.187C89.2853 40.611 89.5093 40.0563 89.808 39.523C89.3813 39.9283 88.9867 40.3337 88.624 40.739C88.2827 41.1443 87.888 41.6243 87.44 42.179C87.248 42.435 87.056 42.7017 86.864 42.979C86.672 43.2563 86.48 43.5017 86.288 43.715C86.096 43.9283 85.904 44.0883 85.712 44.195C85.52 44.3017 85.3173 44.291 85.104 44.163C84.8693 44.0137 84.7947 43.6937 84.88 43.203C84.9867 42.7123 85.136 42.1897 85.328 41.635C85.5413 41.0803 85.744 40.579 85.936 40.131C86.128 39.683 86.192 39.427 86.128 39.363C86.128 39.2563 86.0533 39.203 85.904 39.203C85.7547 39.203 85.68 39.2563 85.68 39.363ZM101.729 41.539C101.729 41.5817 101.707 41.6457 101.665 41.731C101.131 42.563 100.331 43.331 99.2645 44.035C98.1338 44.7817 97.0992 45.155 96.1605 45.155C94.8165 45.155 94.1445 44.3123 94.1445 42.627C94.1445 41.5177 94.6245 40.3017 95.5845 38.979C96.6085 37.571 97.6645 36.867 98.7525 36.867C98.9658 36.867 99.1472 36.963 99.2965 37.155C99.4672 37.347 99.5525 37.5497 99.5525 37.763C99.5525 38.4243 99.0512 39.2243 98.0485 40.163C97.1525 40.995 96.3312 41.5497 95.5845 41.827C95.4352 42.3603 95.3605 42.8083 95.3605 43.171C95.3605 44.0457 95.7552 44.483 96.5445 44.483C97.2912 44.483 98.1338 44.1737 99.0725 43.555C99.8832 43.0217 100.577 42.4137 101.153 41.731C101.302 41.5177 101.451 41.411 101.601 41.411C101.686 41.411 101.729 41.4537 101.729 41.539ZM98.5925 38.147C98.5925 37.891 98.4645 37.763 98.2085 37.763C97.8885 37.763 97.4192 38.2537 96.8005 39.235C96.2672 40.067 95.9365 40.7177 95.8085 41.187C96.3632 40.9523 96.9392 40.5363 97.5365 39.939C98.2405 39.2563 98.5925 38.659 98.5925 38.147ZM105.733 39.427C105.797 39.363 105.861 39.2563 105.925 39.107C105.989 38.9577 106.053 38.7977 106.117 38.627C106.202 38.4563 106.277 38.2963 106.341 38.147C106.426 37.9763 106.501 37.859 106.565 37.795C106.714 37.6457 106.885 37.571 107.077 37.571C107.567 37.571 107.812 37.8163 107.812 38.307C107.812 38.4137 107.77 38.5417 107.685 38.691C106.49 40.6537 105.893 42.211 105.893 43.363C105.893 44.1737 106.277 44.579 107.045 44.579C107.642 44.579 108.282 44.2697 108.965 43.651C109.434 43.2457 109.935 42.6697 110.469 41.923C110.917 41.3043 111.173 40.995 111.237 40.995C111.301 40.995 111.333 41.059 111.333 41.187C111.333 41.3363 111.269 41.5177 111.141 41.731C109.69 44.1417 108.186 45.347 106.629 45.347C105.413 45.347 104.805 44.579 104.805 43.043C104.805 42.1897 104.933 41.3897 105.189 40.643C104.677 40.771 104.154 40.9203 103.621 41.091C103.087 41.2617 102.533 41.4643 101.957 41.699C101.914 41.8697 101.861 42.0403 101.797 42.211C101.733 42.3603 101.679 42.5203 101.637 42.691C101.466 43.6937 101.274 44.3763 101.061 44.739C100.847 45.1017 100.602 45.283 100.325 45.283C100.133 45.283 100.037 45.091 100.037 44.707C100.037 44.6217 100.058 44.5363 100.101 44.451C100.335 43.8963 100.57 43.2457 100.805 42.499C101.039 41.731 101.274 40.835 101.509 39.811C101.551 39.6403 101.594 39.4377 101.637 39.203C101.679 38.947 101.743 38.6483 101.829 38.307C101.893 38.1577 102.042 38.0083 102.277 37.859C102.511 37.7097 102.725 37.635 102.917 37.635C103.066 37.635 103.141 37.699 103.141 37.827C103.141 37.9337 103.055 38.2643 102.885 38.819C102.714 39.3523 102.469 40.131 102.149 41.155C102.447 41.0483 102.81 40.931 103.237 40.803C103.663 40.6537 104.165 40.4937 104.741 40.323C104.89 40.3017 105.103 40.2377 105.381 40.131C105.487 39.8963 105.605 39.6617 105.733 39.427ZM118.473 39.939C118.942 39.9817 119.177 40.227 119.177 40.675C119.177 40.7177 119.134 40.8457 119.049 41.059C118.814 41.5497 118.59 41.9763 118.377 42.339C118.185 42.7017 118.089 43.0857 118.089 43.491C118.089 44.3017 118.473 44.707 119.241 44.707C119.838 44.707 120.478 44.3977 121.161 43.779C121.63 43.3737 122.131 42.7977 122.665 42.051C123.113 41.4323 123.369 41.123 123.433 41.123C123.497 41.123 123.529 41.187 123.529 41.315C123.529 41.4643 123.465 41.6457 123.337 41.859C121.886 44.2697 120.382 45.475 118.825 45.475C117.609 45.475 117.001 44.707 117.001 43.171C117.001 43.0217 117.001 42.883 117.001 42.755C117.001 42.6057 117.011 42.467 117.033 42.339C117.118 42.0403 117.235 41.7203 117.385 41.379C117.257 41.4217 117.129 41.4537 117.001 41.475C116.873 41.4963 116.755 41.507 116.649 41.507C116.286 41.9977 115.923 42.467 115.561 42.915C115.198 43.3417 114.963 43.6083 114.857 43.715C114.259 44.291 113.673 44.6857 113.097 44.899C112.521 45.091 112.019 45.1123 111.593 44.963C111.166 44.8137 110.846 44.4937 110.633 44.003C110.441 43.5123 110.419 42.851 110.569 42.019C110.633 41.6137 110.75 41.3363 110.921 41.187C111.091 41.0377 111.273 40.963 111.465 40.963C111.657 40.963 111.827 41.027 111.977 41.155C112.126 41.2617 112.222 41.3897 112.265 41.539C111.923 42.4137 111.753 43.1177 111.753 43.651C111.774 44.1843 111.923 44.5043 112.201 44.611C112.499 44.7177 112.905 44.6003 113.417 44.259C113.929 43.8963 114.505 43.267 115.145 42.371C115.273 42.2003 115.465 41.923 115.721 41.539C115.081 41.5177 114.505 41.3683 113.993 41.091C113.502 40.8137 113.171 40.4617 113.001 40.035C112.83 39.587 112.862 39.1177 113.097 38.627C113.331 38.115 113.854 37.6243 114.665 37.155C115.241 36.835 115.731 36.675 116.137 36.675C116.542 36.6537 116.862 36.7497 117.097 36.963C117.353 37.155 117.523 37.4323 117.609 37.795C117.715 38.1363 117.758 38.5097 117.737 38.915C117.715 39.3203 117.641 39.715 117.513 40.099C117.385 40.4617 117.203 40.771 116.969 41.027C117.075 41.027 117.182 41.027 117.289 41.027C117.395 41.027 117.502 41.0057 117.609 40.963C117.907 40.4297 118.121 40.131 118.249 40.067C118.377 39.9817 118.451 39.939 118.473 39.939ZM116.873 38.051C115.977 37.7523 115.326 37.7097 114.921 37.923C114.537 38.115 114.334 38.4137 114.313 38.819C114.291 39.203 114.441 39.619 114.761 40.067C115.102 40.4937 115.561 40.7817 116.137 40.931C116.329 40.6323 116.499 40.323 116.649 40.003C116.819 39.683 116.937 39.395 117.001 39.139C117.086 38.8617 117.118 38.627 117.097 38.435C117.097 38.2217 117.022 38.0937 116.873 38.051ZM129.947 41.539C129.947 41.5817 129.926 41.6457 129.883 41.731C129.35 42.563 128.55 43.331 127.483 44.035C126.353 44.7817 125.318 45.155 124.379 45.155C123.035 45.155 122.363 44.3123 122.363 42.627C122.363 41.5177 122.843 40.3017 123.803 38.979C124.827 37.571 125.883 36.867 126.971 36.867C127.185 36.867 127.366 36.963 127.515 37.155C127.686 37.347 127.771 37.5497 127.771 37.763C127.771 38.4243 127.27 39.2243 126.267 40.163C125.371 40.995 124.55 41.5497 123.803 41.827C123.654 42.3603 123.579 42.8083 123.579 43.171C123.579 44.0457 123.974 44.483 124.763 44.483C125.51 44.483 126.353 44.1737 127.291 43.555C128.102 43.0217 128.795 42.4137 129.371 41.731C129.521 41.5177 129.67 41.411 129.819 41.411C129.905 41.411 129.947 41.4537 129.947 41.539ZM126.811 38.147C126.811 37.891 126.683 37.763 126.427 37.763C126.107 37.763 125.638 38.2537 125.019 39.235C124.486 40.067 124.155 40.7177 124.027 41.187C124.582 40.9523 125.158 40.5363 125.755 39.939C126.459 39.2563 126.811 38.659 126.811 38.147ZM135.711 39.363C135.285 40.259 134.826 41.155 134.335 42.051C133.845 42.9257 133.386 43.5763 132.959 44.003C132.362 44.579 131.797 44.9523 131.263 45.123C130.73 45.2937 130.282 45.283 129.919 45.091C129.557 44.9203 129.29 44.579 129.119 44.067C128.97 43.5337 128.97 42.851 129.119 42.019C129.183 41.6137 129.301 41.3363 129.471 41.187C129.642 41.0377 129.823 40.963 130.015 40.963C130.207 40.963 130.378 41.027 130.527 41.155C130.677 41.2617 130.773 41.3897 130.815 41.539C130.474 42.4137 130.303 43.1177 130.303 43.651C130.325 44.1843 130.474 44.5043 130.751 44.611C131.05 44.7177 131.455 44.6003 131.967 44.259C132.479 43.8963 133.055 43.267 133.695 42.371C133.93 42.051 134.197 41.603 134.495 41.027C134.815 40.451 135.135 39.619 135.455 38.531C136.245 38.1257 136.81 37.9337 137.151 37.955C137.493 37.955 137.674 38.0937 137.695 38.371C137.738 38.627 137.663 38.9897 137.471 39.459C137.279 39.907 137.066 40.387 136.831 40.899C136.597 41.3897 136.373 41.8697 136.159 42.339C135.967 42.787 135.871 43.1497 135.871 43.427C135.935 43.3417 136.053 43.1923 136.223 42.979C136.394 42.7443 136.607 42.4777 136.863 42.179C137.119 41.859 137.397 41.5177 137.695 41.155C138.015 40.7923 138.346 40.4297 138.687 40.067C139.114 39.5763 139.775 38.851 140.671 37.891C140.757 37.8057 140.853 37.731 140.959 37.667C141.066 37.603 141.162 37.571 141.247 37.571C141.738 37.571 141.983 37.8163 141.983 38.307C141.983 38.4137 141.941 38.5417 141.855 38.691C140.661 40.6537 140.063 42.211 140.063 43.363C140.063 44.1737 140.447 44.579 141.215 44.579C141.813 44.579 142.453 44.2697 143.135 43.651C143.605 43.2457 144.106 42.6697 144.639 41.923C145.087 41.3043 145.343 40.995 145.407 40.995C145.471 40.995 145.503 41.059 145.503 41.187C145.503 41.3363 145.439 41.5177 145.311 41.731C143.861 44.1417 142.357 45.347 140.799 45.347C139.583 45.347 138.975 44.579 138.975 43.043C138.975 42.3603 139.039 41.7417 139.167 41.187C139.317 40.611 139.541 40.0563 139.839 39.523C139.413 39.9283 139.018 40.3337 138.655 40.739C138.314 41.1443 137.919 41.6243 137.471 42.179C137.279 42.435 137.087 42.7017 136.895 42.979C136.703 43.2563 136.511 43.5017 136.319 43.715C136.127 43.9283 135.935 44.0883 135.743 44.195C135.551 44.3017 135.349 44.291 135.135 44.163C134.901 44.0137 134.826 43.6937 134.911 43.203C135.018 42.7123 135.167 42.1897 135.359 41.635C135.573 41.0803 135.775 40.579 135.967 40.131C136.159 39.683 136.223 39.427 136.159 39.363C136.159 39.2563 136.085 39.203 135.935 39.203C135.786 39.203 135.711 39.2563 135.711 39.363ZM155.743 39.363C155.316 40.259 154.857 41.155 154.367 42.051C153.876 42.9257 153.417 43.5763 152.991 44.003C152.393 44.579 151.828 44.9523 151.295 45.123C150.761 45.2937 150.313 45.283 149.951 45.091C149.588 44.9203 149.321 44.579 149.151 44.067C149.001 43.5337 149.001 42.851 149.151 42.019C149.215 41.6137 149.332 41.3363 149.503 41.187C149.673 41.0377 149.855 40.963 150.047 40.963C150.239 40.963 150.409 41.027 150.559 41.155C150.708 41.2617 150.804 41.3897 150.847 41.539C150.505 42.4137 150.335 43.1177 150.335 43.651C150.356 44.1843 150.505 44.5043 150.783 44.611C151.081 44.7177 151.487 44.6003 151.999 44.259C152.511 43.8963 153.087 43.267 153.727 42.371C153.961 42.051 154.228 41.603 154.527 41.027C154.847 40.451 155.167 39.619 155.487 38.531C156.276 38.1257 156.841 37.9337 157.183 37.955C157.524 37.955 157.705 38.0937 157.727 38.371C157.769 38.627 157.695 38.9897 157.503 39.459C157.311 39.907 157.097 40.387 156.863 40.899C156.628 41.3897 156.404 41.8697 156.191 42.339C155.999 42.787 155.903 43.1497 155.903 43.427C155.967 43.3417 156.084 43.1923 156.255 42.979C156.425 42.7443 156.639 42.4777 156.895 42.179C157.151 41.859 157.428 41.5177 157.727 41.155C158.047 40.7923 158.377 40.4297 158.719 40.067C159.145 39.5763 159.807 38.851 160.703 37.891C160.788 37.8057 160.884 37.731 160.991 37.667C161.097 37.603 161.193 37.571 161.279 37.571C161.769 37.571 162.015 37.8163 162.015 38.307C162.015 38.4137 161.972 38.5417 161.887 38.691C160.692 40.6537 160.095 42.211 160.095 43.363C160.095 44.1737 160.479 44.579 161.247 44.579C161.844 44.579 162.484 44.2697 163.167 43.651C163.636 43.2457 164.137 42.6697 164.671 41.923C165.119 41.3043 165.375 40.995 165.439 40.995C165.503 40.995 165.535 41.059 165.535 41.187C165.535 41.3363 165.471 41.5177 165.343 41.731C163.892 44.1417 162.388 45.347 160.831 45.347C159.615 45.347 159.007 44.579 159.007 43.043C159.007 42.3603 159.071 41.7417 159.199 41.187C159.348 40.611 159.572 40.0563 159.871 39.523C159.444 39.9283 159.049 40.3337 158.687 40.739C158.345 41.1443 157.951 41.6243 157.503 42.179C157.311 42.435 157.119 42.7017 156.927 42.979C156.735 43.2563 156.543 43.5017 156.351 43.715C156.159 43.9283 155.967 44.0883 155.775 44.195C155.583 44.3017 155.38 44.291 155.167 44.163C154.932 44.0137 154.857 43.6937 154.943 43.203C155.049 42.7123 155.199 42.1897 155.391 41.635C155.604 41.0803 155.807 40.579 155.999 40.131C156.191 39.683 156.255 39.427 156.191 39.363C156.191 39.2563 156.116 39.203 155.967 39.203C155.817 39.203 155.743 39.2563 155.743 39.363ZM174.863 41.187C174.863 41.3363 174.799 41.5177 174.671 41.731C174.074 42.7123 173.38 43.5657 172.591 44.291C171.567 45.2297 170.607 45.699 169.711 45.699C168.516 45.699 167.919 44.9523 167.919 43.459C167.919 43.1177 168.079 42.4457 168.399 41.443C167.652 42.531 167.172 43.203 166.959 43.459C166.255 44.291 165.626 44.707 165.071 44.707C164.367 44.707 164.015 44.1097 164.015 42.915C164.015 42.2323 164.239 41.411 164.687 40.451C165.178 39.3417 165.711 38.787 166.287 38.787C166.607 38.787 166.767 38.8723 166.767 39.043C166.767 39.0643 166.49 39.555 165.935 40.515C165.402 41.4537 165.135 42.179 165.135 42.691C165.135 43.3737 165.338 43.715 165.743 43.715C166.426 43.715 167.652 42.1577 169.423 39.043C169.572 38.7443 169.796 38.3283 170.095 37.795C170.244 37.6243 170.404 37.539 170.575 37.539C170.767 37.539 170.938 37.6243 171.087 37.795C171.258 37.9443 171.343 38.1257 171.343 38.339C171.343 38.3177 170.959 39.0323 170.191 40.483C169.444 41.9337 169.071 43.0537 169.071 43.843C169.071 44.5897 169.423 44.963 170.127 44.963C170.724 44.963 171.407 44.6217 172.175 43.939C172.687 43.491 173.263 42.851 173.903 42.019C174.436 41.3363 174.724 40.995 174.767 40.995C174.831 40.995 174.863 41.059 174.863 41.187ZM185.232 41.187C185.232 41.3363 185.168 41.5177 185.04 41.731C184.485 42.6483 183.568 43.5657 182.288 44.483C180.922 45.507 179.77 46.019 178.832 46.019C178.64 46.019 178.352 46.0083 177.968 45.987C177.605 45.987 177.328 45.987 177.136 45.987C177.05 45.987 176.73 45.9123 176.176 45.763C175.514 47.4697 174.618 49.2617 173.488 51.139C171.887 53.7417 170.586 55.043 169.583 55.043C169.05 55.043 168.783 54.6483 168.783 53.859C168.783 52.8137 169.743 50.8723 171.663 48.035C173.029 46.1577 174.405 44.2697 175.792 42.371V42.179C175.792 41.411 175.781 40.739 175.76 40.163C174.949 41.4857 174.437 42.147 174.224 42.147C174.096 42.147 174.032 42.0723 174.032 41.923C174.032 41.8377 174.064 41.7523 174.128 41.667C175.066 40.3443 175.536 39.1603 175.536 38.115C175.536 37.9017 175.472 37.731 175.344 37.603C175.237 37.4537 175.184 37.3363 175.184 37.251C175.184 37.1657 175.514 37.123 176.176 37.123C176.901 37.123 177.264 37.8483 177.264 39.299C177.264 39.5123 177.242 39.8323 177.2 40.259C177.178 40.6643 177.168 40.963 177.168 41.155C177.765 40.067 178.426 39.0643 179.152 38.147C180.261 36.7817 181.189 36.099 181.936 36.099C182.618 36.099 182.96 36.6003 182.96 37.603C182.96 38.8617 182.512 40.323 181.616 41.987C180.741 43.651 179.781 44.8137 178.736 45.475C180.592 45.4323 182.65 43.9923 184.912 41.155C184.997 41.0483 185.061 40.995 185.104 40.995C185.189 40.995 185.232 41.059 185.232 41.187ZM181.552 38.275C181.552 37.6137 181.37 37.283 181.008 37.283C180.901 37.283 180.794 37.3043 180.688 37.347C179.92 37.6883 179.109 38.6803 178.256 40.323C177.616 41.539 177.104 42.787 176.72 44.067C176.933 44.387 177.306 44.7923 177.84 45.283C178.778 44.8777 179.642 43.8643 180.432 42.243C181.178 40.707 181.552 39.3843 181.552 38.275ZM175.504 44.099C175.482 44.0777 175.461 44.067 175.44 44.067C175.354 44.067 175.237 44.1737 175.088 44.387C174.576 45.155 173.808 46.2857 172.784 47.779C172.335 48.419 171.77 49.3897 171.087 50.691C170.298 52.2057 169.903 53.187 169.903 53.635C169.903 53.827 169.967 53.923 170.095 53.923C171.034 53.923 172.325 52.387 173.968 49.315C174.394 48.5043 174.853 47.107 175.344 45.123C175.322 45.0163 175.312 44.9097 175.312 44.803C175.312 44.547 175.376 44.3123 175.504 44.099ZM194.292 30.147C194.292 30.147 194.228 30.243 194.1 30.435L193.236 31.779C190.932 35.4057 189.268 38.211 188.244 40.195C188.116 40.4723 187.914 40.899 187.636 41.475C187.508 41.7523 187.348 41.891 187.156 41.891C187.007 41.891 186.932 41.8163 186.932 41.667C186.932 41.3043 187.86 39.3203 189.716 35.715C191.444 32.3657 192.575 30.2643 193.108 29.411C193.13 29.3683 193.162 29.347 193.204 29.347C193.332 29.347 193.546 29.4537 193.844 29.667C194.143 29.8803 194.292 30.0403 194.292 30.147ZM186.644 44.739C186.644 45.251 186.378 45.507 185.844 45.507C185.29 45.507 185.012 45.251 185.012 44.739C185.012 44.227 185.29 43.971 185.844 43.971C186.378 43.971 186.644 44.227 186.644 44.739Z" fill="#0F90D1"/>
<path d="M49 60.995L129 60.995" stroke="#0F90D1" stroke-linecap="round"/>
</svg>
