<svg width="65" height="64" viewBox="0 0 65 64" fill="none" xmlns="http://www.w3.org/2000/svg">
<g clip-path="url(#clip0_520_13244)">
<path d="M49.9585 10H53.7085C54.3989 10 54.9585 9.44025 54.9585 8.75C54.9585 8.05975 54.3989 7.5 53.7085 7.5H49.9585C49.2681 7.5 48.7085 8.05975 48.7085 8.75C48.7085 9.44025 49.2681 10 49.9585 10Z" fill="#E3DA00"/>
<path d="M59.3335 0H44.3335C41.5765 0 39.3335 2.243 39.3335 5V11.25H4.0835C2.01575 11.25 0.333496 12.9323 0.333496 15V52C0.333496 54.0677 2.01575 55.75 4.0835 55.75H19.8335V61.5H13.5835C12.8931 61.5 12.3335 62.0597 12.3335 62.75C12.3335 63.4403 12.8931 64 13.5835 64H43.5835C44.2739 64 44.8335 63.4403 44.8335 62.75C44.8335 62.0597 44.2739 61.5 43.5835 61.5H37.3335V55.75H53.0835C55.1512 55.75 56.8335 54.0677 56.8335 52V40.75H59.3335C62.0905 40.75 64.3335 38.507 64.3335 35.75V5C64.3335 2.243 62.0905 0 59.3335 0ZM41.8335 5C41.8335 3.6215 42.955 2.5 44.3335 2.5H59.3335C60.712 2.5 61.8335 3.6215 61.8335 5V30.75H41.8335V5ZM34.8335 61.5H22.3335V55.75H34.8335V61.5ZM54.3335 45.75H34.2085C33.5181 45.75 32.9585 46.3097 32.9585 47C32.9585 47.6903 33.5181 48.25 34.2085 48.25H54.3335V52C54.3335 52.6893 53.7727 53.25 53.0835 53.25H4.0835C3.39425 53.25 2.8335 52.6893 2.8335 52V48.25H22.9585C23.6489 48.25 24.2085 47.6903 24.2085 47C24.2085 46.3097 23.6489 45.75 22.9585 45.75H2.8335V15C2.8335 14.3108 3.39425 13.75 4.0835 13.75H39.3335V35.75C39.3335 38.507 41.5765 40.75 44.3335 40.75H54.3335V45.75ZM59.3335 38.25H44.3335C42.955 38.25 41.8335 37.1285 41.8335 35.75V33.25H61.8335V35.75C61.8335 37.1285 60.712 38.25 59.3335 38.25Z" fill="#E3DA00"/>
<path d="M28.5835 48.25C29.2739 48.25 29.8335 47.6904 29.8335 47C29.8335 46.3096 29.2739 45.75 28.5835 45.75C27.8931 45.75 27.3335 46.3096 27.3335 47C27.3335 47.6904 27.8931 48.25 28.5835 48.25Z" fill="#E3DA00"/>
</g>
<defs>
<clipPath id="clip0_520_13244">
<rect width="64" height="64" fill="white" transform="translate(0.333496)"/>
</clipPath>
</defs>
</svg>
