<svg width="65" height="64" viewBox="0 0 65 64" fill="none" xmlns="http://www.w3.org/2000/svg">
<path d="M54.3366 39.7968C52.3082 37.7685 49.8538 37.0833 47.2376 37.8165C44.9478 38.4581 43.1507 40.0092 42.2831 40.8766L38.4945 44.6651L25.3471 57.8124C22.6338 60.5259 16.5381 60.9849 13.0386 57.4852C9.53886 53.9856 9.99799 47.8901 12.7115 45.1767L13.645 44.2432L13.8781 44.4765C15.0167 45.6152 16.5381 46.2423 18.1618 46.2423C19.7716 46.2423 21.3535 45.6358 22.6161 44.5346L44.9169 25.0838C47.3408 24.8174 49.6317 23.8507 51.5112 22.3112C51.7403 22.4983 52.0203 22.5918 52.3004 22.5918C52.6204 22.5918 52.9402 22.4698 53.1843 22.2257C53.6414 21.7684 53.6705 21.0453 53.2712 20.5543C57.3223 15.6172 57.0441 8.29339 52.4354 3.68463C50.0593 1.30863 46.8999 0 43.5394 0C40.5968 0 37.8084 1.00338 35.5652 2.84851C35.074 2.45001 34.3517 2.47913 33.8947 2.93613C33.4369 3.39388 33.4084 4.11838 33.8092 4.60938C32.2697 6.48889 31.3029 8.77964 31.0365 11.2035L11.5857 33.5043C9.28049 36.1474 9.30549 39.9038 11.6439 42.2422L11.8771 42.4755L10.9436 43.4088C9.10074 45.2517 8.03999 48.0425 8.03324 51.0655C8.02611 54.2505 9.17599 57.1582 11.2707 59.253C13.3592 61.3414 16.2555 62.4905 19.4291 62.4905C19.4389 62.4905 19.4488 62.4905 19.4585 62.4905C22.4814 62.4838 25.272 61.4229 27.1149 59.5801L40.2624 46.4327L44.0509 42.6442C44.6102 42.085 46.1057 40.7297 47.9121 40.2236C49.6554 39.7352 51.1782 40.1738 52.5688 41.5645C55.3143 44.3098 53.9138 47.238 52.3317 49.1571L51.5308 48.3562C51.0426 47.8681 50.2513 47.8681 49.7631 48.3562L41.2391 56.8802C40.7509 57.3684 40.7509 58.1599 41.2391 58.648L42.0813 59.4902L39.7054 61.866C39.2173 62.3541 39.2173 63.1456 39.7054 63.6339C39.9495 63.878 40.2694 64 40.5893 64C40.9093 64 41.2291 63.878 41.4732 63.6339L43.8489 61.2581L44.6911 62.1003C44.9254 62.3346 45.2434 62.4664 45.5749 62.4664C45.9064 62.4664 46.2244 62.3346 46.4588 62.1003L54.9828 53.5761C55.471 53.088 55.471 52.2965 54.9828 51.8082L54.1016 50.927C54.9412 49.9284 55.9127 48.5011 56.3676 46.8396C57.0723 44.2656 56.3701 41.8302 54.3366 39.7968ZM43.5394 2.50001C46.2322 2.50001 48.7637 3.54863 50.6678 5.45264C54.2988 9.08377 54.5726 14.8169 51.4949 18.7685L37.3512 4.62476C39.1133 3.24863 41.2683 2.50001 43.5394 2.50001ZM35.5835 6.39264L49.7278 20.5369C48.4578 21.5247 46.9692 22.1963 45.3874 22.491L33.6293 10.7328C33.924 9.15139 34.5958 7.66264 35.5835 6.39264ZM13.4699 35.1477L32.5884 13.2277L42.8928 23.532L40.2884 25.8036L37.2275 22.7425C36.7394 22.2545 35.948 22.2544 35.4598 22.7425C34.9715 23.2307 34.9715 24.0222 35.4597 24.5103L38.3999 27.4507L20.9728 42.6506C20.1655 43.3546 19.1673 43.7423 18.1618 43.7423C17.4856 43.7423 16.5003 43.563 15.646 42.7086L13.4117 40.4743C12.0146 39.0775 12.0396 36.7873 13.4699 35.1477ZM45.5749 59.4487L43.8906 57.7642L50.6468 51.008L52.3312 52.6924L45.5749 59.4487Z" fill="#42C79C"/>
<path d="M34.5063 20.0218L34.4839 19.9994C33.9957 19.5113 33.2044 19.5113 32.7162 19.9994C32.2281 20.4875 32.2281 21.279 32.7162 21.7671L32.7386 21.7895C32.9827 22.0336 33.3026 22.1556 33.6224 22.1556C33.9423 22.1556 34.2622 22.0335 34.5063 21.7895C34.9944 21.3014 34.9944 20.5099 34.5063 20.0218Z" fill="#42C79C"/>
</svg>
