<svg width="64" height="64" viewBox="0 0 64 64" fill="none" xmlns="http://www.w3.org/2000/svg">
<g clip-path="url(#clip0_520_13225)">
<path d="M51.48 7.97267C51.9586 7.48291 51.9541 6.69934 51.4698 6.21506L45.1112 -0.143594C44.623 -0.631762 43.8315 -0.631674 43.3434 -0.143594C41.8779 1.32197 39.4932 1.32189 38.0277 -0.143681C37.5395 -0.63185 36.748 -0.631762 36.2599 -0.143681L14.3836 21.7326C13.8955 22.2207 13.8954 23.0122 14.3836 23.5004C14.8718 23.9885 15.6633 23.9885 16.1514 23.5004L22.3315 17.3203L22.3781 17.3668C22.8662 17.855 23.6577 17.8549 24.1458 17.3668C24.6339 16.8788 24.634 16.0872 24.1458 15.5991L24.0992 15.5525L37.2324 2.41931C39.3175 3.79923 42.0537 3.79924 44.1387 2.4194L48.924 7.20475C47.5475 9.4225 47.8224 12.3929 49.7382 14.3087C51.6541 16.2246 54.6245 16.4995 56.8423 15.123L61.6276 19.9084C60.2477 21.9934 60.2478 24.7295 61.6277 26.8146L48.4205 40.0218C47.9719 39.8462 47.4426 39.939 47.0803 40.3013C46.718 40.6636 46.6251 41.193 46.8008 41.6415L26.8145 61.6278C24.7295 60.2478 21.9934 60.2477 19.9083 61.6277L15.1231 56.8424C16.4995 54.6247 16.2246 51.6543 14.3087 49.7384C12.3928 47.8225 9.42254 47.5477 7.20479 48.9241L2.41944 44.1388C3.79936 42.0537 3.79927 39.3176 2.41935 37.2326L8.19642 31.4555C8.6845 30.9674 8.68459 30.1759 8.19642 29.6877C7.70825 29.1996 6.91673 29.1997 6.42865 29.6877L-0.143643 36.26C-0.631724 36.7481 -0.631812 37.5396 -0.143643 38.0278C1.32192 39.4934 1.32201 41.878 -0.143554 43.3436C-0.631635 43.8316 -0.631723 44.6232 -0.143554 45.1113L6.2151 51.47C6.69929 51.9542 7.48286 51.9587 7.97271 51.4802C9.23949 50.2422 11.2888 50.2539 12.5411 51.5062C13.7933 52.7585 13.8051 54.8078 12.5671 56.0746C12.0885 56.5643 12.093 57.3479 12.5773 57.8322L18.936 64.1908C19.4241 64.679 20.2156 64.6789 20.7037 64.1908C22.1693 62.7253 24.5539 62.7254 26.0195 64.1909C26.5077 64.6791 27.2992 64.679 27.7873 64.1909L64.1909 27.7873C64.679 27.2992 64.679 26.5077 64.1909 26.0195C62.7253 24.554 62.7252 22.1693 64.1908 20.7038C64.6789 20.2157 64.679 19.4242 64.1908 18.936L57.8321 12.5773C57.3479 12.0932 56.5643 12.0886 56.0745 12.5672C54.8077 13.8052 52.7585 13.7934 51.5062 12.5411C50.2539 11.2888 50.242 9.23945 51.48 7.97267Z" fill="#0F90D1"/>
<path d="M15.1467 45.2493C15.5408 46.0227 16.3247 46.4962 17.1925 46.4851L21.8523 46.4255L24.5431 50.2306C25.0444 50.9392 25.8882 51.2949 26.7454 51.1592C27.2298 51.0824 27.6616 50.8578 27.9919 50.5273C28.2463 50.2729 28.4407 49.9558 28.5526 49.5954L29.9359 45.1451L34.3862 43.7618C35.2149 43.5042 35.8141 42.8117 35.95 41.9546C36.0857 41.0974 35.7299 40.2534 35.0213 39.7522L31.2162 37.0614L31.2758 32.4016C31.2869 31.5337 30.8134 30.7498 30.0401 30.3558C29.2668 29.9619 28.3542 30.0395 27.6587 30.5586L23.9238 33.3458L19.5104 31.8491C19.5104 31.8491 19.5104 31.8491 19.5104 31.8492C18.6884 31.5704 17.7966 31.7786 17.1829 32.3923C16.5692 33.006 16.3611 33.8979 16.6398 34.7198L18.1365 39.1331L15.3492 42.8681C14.8304 43.5635 14.7526 44.476 15.1467 45.2493ZM20.5333 40.1016C20.7794 39.7718 20.8474 39.3422 20.7154 38.9525L19.1615 34.3705L23.7435 35.9244C24.1332 36.0564 24.5628 35.9884 24.8925 35.7424L28.7702 32.8486L28.7083 37.6867C28.7031 38.0979 28.9006 38.4856 29.2364 38.7232L33.1868 41.5167L28.5665 42.9529C28.1737 43.075 27.8659 43.3828 27.7438 43.7755L26.3078 48.3959L23.5142 44.4454C23.2766 44.1096 22.8889 43.9121 22.4776 43.9173L17.6396 43.9792L20.5333 40.1016Z" fill="#0F90D1"/>
<path d="M32.6705 27.6593C33.1587 28.1474 33.9502 28.1473 34.4383 27.6593C34.9263 27.1712 34.9264 26.3797 34.4383 25.8915L33.409 24.8622C32.9208 24.374 32.1293 24.3741 31.6412 24.8622C31.1531 25.3503 31.153 26.1418 31.6412 26.63L32.6705 27.6593Z" fill="#0F90D1"/>
<path d="M29.2923 22.5133C29.7803 22.0252 29.7804 21.2337 29.2923 20.7455L28.263 19.7162C27.7748 19.228 26.9833 19.2281 26.4952 19.7162C26.0071 20.2043 26.007 20.9958 26.4952 21.484L27.5245 22.5133C28.0127 23.0014 28.8041 23.0014 29.2923 22.5133Z" fill="#0F90D1"/>
<path d="M37.817 32.8057C38.3051 33.2939 39.0967 33.2938 39.5847 32.8057C40.0728 32.3177 40.0729 31.5261 39.5847 31.038L38.5555 30.0087C38.0673 29.5205 37.2758 29.5206 36.7877 30.0087C36.2996 30.4968 36.2995 31.2883 36.7877 31.7765L37.817 32.8057Z" fill="#0F90D1"/>
<path d="M42.963 37.9517C43.4511 38.4399 44.2427 38.4398 44.7307 37.9517C45.2188 37.4637 45.2189 36.6721 44.7307 36.184L43.7015 35.1547C43.2133 34.6665 42.4218 34.6666 41.9337 35.1547C41.4456 35.6428 41.4455 36.4343 41.9337 36.9225L42.963 37.9517Z" fill="#0F90D1"/>
<path d="M45.3157 30.3985L52.3868 23.3275C52.8749 22.8394 52.8749 22.0479 52.3868 21.5597C51.8986 21.0715 51.1071 21.0716 50.619 21.5597L43.5479 28.6308C43.0599 29.1188 43.0598 29.9104 43.5479 30.3985C44.0361 30.8867 44.8275 30.8867 45.3157 30.3985Z" fill="#0F90D1"/>
<path d="M40.366 25.4488L47.4371 18.3778C47.9252 17.8897 47.9252 17.0982 47.4371 16.61C46.9489 16.1218 46.1574 16.1219 45.6693 16.61L38.5982 23.6811C38.1102 24.1691 38.1101 24.9607 38.5982 25.4488C39.0864 25.937 39.8778 25.937 40.366 25.4488Z" fill="#0F90D1"/>
<path d="M35.4163 20.4991L42.4874 13.4281C42.9754 12.94 42.9755 12.1485 42.4874 11.6603C41.9992 11.1721 41.2077 11.1722 40.7196 11.6603L33.6485 18.7314C33.1605 19.2194 33.1604 20.0109 33.6485 20.4991C34.1367 20.9873 34.9281 20.9873 35.4163 20.4991Z" fill="#0F90D1"/>
<path d="M12.1267 27.4303C12.6149 26.9421 12.6149 26.1507 12.1267 25.6625C11.6386 25.1743 10.8471 25.1743 10.359 25.6625C9.87083 26.1507 9.87083 26.9421 10.359 27.4303C10.8471 27.9184 11.6386 27.9184 12.1267 27.4303Z" fill="#0F90D1"/>
</g>
<defs>
<clipPath id="clip0_520_13225">
<rect width="64" height="64" fill="white"/>
</clipPath>
</defs>
</svg>
