<svg width="64" height="64" viewBox="0 0 64 64" fill="none" xmlns="http://www.w3.org/2000/svg">
<g clip-path="url(#clip0_520_13182)">
<path d="M49.2501 24.3179C49.2501 21.9167 47.8499 19.4263 45.9164 18.1743C46.2241 16.4151 45.7108 14.7041 44.458 13.4458C43.2598 12.2426 41.5973 11.6477 39.9441 11.7653C39.7678 11.0845 39.4308 10.4642 38.9412 9.9291C37.6187 8.48349 35.2833 7.75049 32.0001 7.75049C29.4802 7.75049 27.0496 8.28299 24.7757 9.33311C24.149 9.62248 23.8756 10.3652 24.165 10.992C24.4543 11.6187 25.1968 11.8921 25.8238 11.6027C27.3883 10.8802 29.0404 10.445 30.7501 10.3027V47.7503H27.1763C26.6636 43.185 23.4831 38.6014 20.6482 34.5186C20.3749 34.125 20.1045 33.7356 19.84 33.3511C18.1456 30.8886 17.25 28.0012 17.25 25.0007C17.25 22.8449 17.705 20.7667 18.6024 18.8239C18.8919 18.1972 18.6185 17.4545 17.9917 17.1651C17.365 16.8756 16.6222 17.149 16.3329 17.7757C15.2825 20.0493 14.75 22.4802 14.75 25.0005C14.75 28.5093 15.7979 31.8869 17.7805 34.7681C18.0471 35.1556 18.3195 35.5479 18.5947 35.9444C21.25 39.7684 24.2302 44.0631 24.6876 47.9906C23.8396 48.391 23.25 49.2519 23.25 50.2503V54.0003C23.25 54.9233 23.754 55.729 24.5 56.162V60.2502C24.5 62.3179 26.1822 64.0001 28.2499 64.0001H35.7499C37.8177 64.0001 39.4999 62.3179 39.4999 60.2502V56.162C40.2459 55.7289 40.7499 54.9232 40.7499 54.0003V50.2503C40.7499 49.2503 40.1583 48.388 39.3079 47.9885C39.4699 46.5225 39.9819 44.9505 40.8851 43.1389C40.9823 43.0974 41.079 43.0531 41.175 43.0049C42.8484 42.164 44.2328 40.2105 43.9471 37.5807C43.9788 37.5689 44.0106 37.5569 44.0411 37.5449C45.7624 36.8638 47.0277 35.3975 47.4261 33.6229C47.745 32.203 47.4955 30.7414 46.7412 29.4532C48.3341 28.2254 49.2501 26.3887 49.2501 24.3179ZM38.25 50.2503V54.0003H25.7501V50.2503H38.25ZM35.75 61.5002H28.2501C27.5608 61.5002 27.0001 60.9394 27.0001 60.2502V56.5003H37V60.2502C37 60.9394 36.4393 61.5002 35.75 61.5002ZM44.3894 27.9779C44.0298 28.1497 43.7736 28.4825 43.6996 28.874C43.6258 29.2657 43.7431 29.6689 44.0153 29.9599C44.8719 30.8751 45.226 32.0106 44.9869 33.0753C44.7665 34.0564 44.0865 34.8383 43.1213 35.2203C42.3583 35.5221 41.1796 35.7154 40.3934 35.499C39.1402 35.1631 38.971 34.7055 38.634 33.7938C38.3492 33.0228 37.9589 31.9669 36.787 31.1586C36.2188 30.7666 35.4404 30.9096 35.0483 31.478C34.6563 32.0463 34.7994 32.8248 35.3677 33.2166C35.865 33.5598 36.0258 33.9476 36.2892 34.6604C36.692 35.7504 37.2438 37.2431 39.738 37.9115C40.1973 38.038 40.6854 38.0909 41.1724 38.0909C41.276 38.0909 41.3794 38.0877 41.4825 38.0832C41.5568 39.4774 40.847 40.3719 40.0528 40.771C39.3082 41.1451 38.1505 41.2141 37.3378 40.1777C36.9118 39.6345 36.1259 39.5396 35.5828 39.9656C35.0395 40.3916 34.9445 41.1774 35.3705 41.7206C36.0713 42.614 36.9977 43.1908 38.0045 43.42C37.3539 44.961 36.9654 46.3805 36.8188 47.7502H33.2501V27.3028C37.1963 27.2364 38.2727 25.2659 39.0607 23.8196C39.4558 23.0944 39.7215 22.6366 40.1873 22.3733C40.7884 22.0337 41.0001 21.2711 40.6605 20.6701C40.3208 20.0691 39.558 19.8572 38.9573 20.1969C37.8449 20.8256 37.3244 21.7808 36.8654 22.6237C36.1934 23.857 35.7022 24.7569 33.2501 24.8038V10.2962C35.0882 10.4352 36.4332 10.8914 37.0965 11.6166C37.3422 11.8851 37.4932 12.1922 37.5549 12.5441C36.3204 13.3403 35.7914 14.3673 35.4178 15.377C35.1782 16.0245 35.5088 16.7436 36.1562 16.9832C36.2993 17.0361 36.4457 17.0613 36.5899 17.0613C37.0979 17.0613 37.5757 16.7492 37.7623 16.2448C38.0363 15.5045 38.3267 14.8988 39.2962 14.4286C40.463 14.029 41.8189 14.3387 42.6864 15.2098C43.1661 15.6916 43.8809 16.7456 43.2783 18.3914C43.0431 19.0336 43.3676 19.7453 44.0065 19.9891C45.468 20.5467 46.75 22.5696 46.75 24.3179C46.7501 25.9037 45.8676 27.2719 44.3894 27.9779Z" fill="#FF4A35"/>
<path d="M32 5.25012C32.6904 5.25012 33.25 4.6905 33.25 4.00012V1.25C33.25 0.559625 32.6902 0 32 0C31.3098 0 30.75 0.559625 30.75 1.25V4.00012C30.75 4.6905 31.3096 5.25012 32 5.25012Z" fill="#FF4A35"/>
<path d="M20.4174 7.43864C20.6489 7.83964 21.069 8.06389 21.501 8.06389C21.713 8.06389 21.928 8.00976 22.1249 7.89614C22.7227 7.55101 22.9276 6.78651 22.5824 6.18864L21.2072 3.80689C20.8621 3.20889 20.0975 3.00414 19.4997 3.34939C18.9019 3.69451 18.697 4.45901 19.0422 5.05689L20.4174 7.43864Z" fill="#FF4A35"/>
<path d="M10.8064 14.2077L13.1881 15.5828C13.385 15.6964 13.5999 15.7505 13.812 15.7505C14.244 15.7505 14.6641 15.5263 14.8956 15.1253C15.2409 14.5274 15.036 13.7629 14.4381 13.4178L12.0564 12.0427C11.4587 11.6975 10.6941 11.9023 10.3489 12.5002C10.0036 13.098 10.2085 13.8625 10.8064 14.2077Z" fill="#FF4A35"/>
<path d="M12.2496 25.0005C12.2496 24.3101 11.69 23.7505 10.9996 23.7505H8.24951C7.55914 23.7505 6.99951 24.3101 6.99951 25.0005C6.99951 25.6909 7.55914 26.2505 8.24951 26.2505H10.9996C11.69 26.2505 12.2496 25.6909 12.2496 25.0005Z" fill="#FF4A35"/>
<path d="M13.1881 34.4183L10.8064 35.7933C10.2085 36.1384 10.0036 36.9029 10.3489 37.5008C10.5804 37.9018 11.0005 38.126 11.4325 38.126C11.6445 38.126 11.8595 38.0719 12.0564 37.9583L14.4381 36.5833C15.036 36.2381 15.2409 35.4736 14.8956 34.8758C14.5505 34.2779 13.7859 34.0729 13.1881 34.4183Z" fill="#FF4A35"/>
<path d="M41.8752 7.89605C42.0721 8.0098 42.287 8.0638 42.499 8.0638C42.931 8.0638 43.3512 7.83955 43.5827 7.43855L44.9578 5.0568C45.3031 4.45893 45.0982 3.69443 44.5003 3.3493C43.9023 3.00418 43.138 3.20893 42.7928 3.8068L41.4177 6.18855C41.0725 6.7863 41.2773 7.55093 41.8752 7.89605Z" fill="#FF4A35"/>
<path d="M50.188 15.7506C50.4 15.7506 50.6149 15.6964 50.8117 15.5828L53.1936 14.2077C53.7915 13.8626 53.9964 13.0981 53.6511 12.5002C53.3059 11.9024 52.5419 11.6974 51.9436 12.0427L49.5617 13.4178C48.9639 13.7629 48.759 14.5274 49.1042 15.1253C49.3359 15.5263 49.7559 15.7506 50.188 15.7506Z" fill="#FF4A35"/>
<path d="M55.7506 23.7505H53.0005C52.3102 23.7505 51.7505 24.3101 51.7505 25.0005C51.7505 25.6909 52.3102 26.2505 53.0005 26.2505H55.7506C56.4409 26.2505 57.0006 25.6909 57.0006 25.0005C57.0006 24.3101 56.441 23.7505 55.7506 23.7505Z" fill="#FF4A35"/>
<path d="M53.1936 35.7931L50.8117 34.4181C50.2136 34.073 49.4494 34.2779 49.1042 34.8757C48.759 35.4736 48.9639 36.2381 49.5617 36.5834L51.9436 37.9584C52.1405 38.072 52.3554 38.126 52.5674 38.126C52.9994 38.126 53.4196 37.9017 53.6511 37.5007C53.9964 36.9027 53.7915 36.1382 53.1936 35.7931Z" fill="#FF4A35"/>
<path d="M20.686 12.4365C19.9956 12.4365 19.4365 12.9961 19.4365 13.6865C19.4365 14.3769 19.9965 14.9365 20.6869 14.9365C21.3773 14.9365 21.9369 14.3769 21.9369 13.6865C21.9369 12.9961 21.3773 12.4365 20.6869 12.4365H20.686Z" fill="#FF4A35"/>
</g>
<defs>
<clipPath id="clip0_520_13182">
<rect width="64" height="64" fill="white"/>
</clipPath>
</defs>
</svg>
