<svg width="65" height="64" viewBox="0 0 65 64" fill="none" xmlns="http://www.w3.org/2000/svg">
<g clip-path="url(#clip0_520_13213)">
<path d="M41.4165 22.0024C42.1064 22.0024 42.6665 21.4424 42.6665 20.7524C42.6665 20.0625 42.1064 19.5024 41.4165 19.5024C40.7266 19.5024 40.1665 20.0625 40.1665 20.7524C40.1665 21.4424 40.7266 22.0024 41.4165 22.0024Z" fill="#FFA336"/>
<path d="M37.4586 32.9448C37.9791 33.3984 38.7687 33.3442 39.2223 32.8242C40.7155 31.1118 41.9035 28.5546 42.4 25.9833C42.5309 25.3056 42.0875 24.6498 41.4098 24.519C40.7326 24.3881 40.0763 24.8315 39.9454 25.5092C39.4552 28.0493 38.277 30.1044 37.338 31.1811C36.8844 31.7011 36.9386 32.4907 37.4586 32.9448Z" fill="#FFA336"/>
<path d="M63.4165 37.0025H41.8291C45.3315 33.5802 47.6665 27.1803 47.6665 22.0025C47.6665 15.0948 43.5381 12.0025 36.4165 12.0025C35.6108 12.0025 34.8179 12.1046 34.0439 12.3067C34.4717 10.2906 35.9541 8.64073 38.0615 7.93858C38.7168 7.72031 39.0708 7.01231 38.8525 6.35752C38.6343 5.70274 37.9263 5.34873 37.2715 5.56651C35.1621 6.26963 33.4956 7.65391 32.4883 9.4249C32.0898 8.70567 31.5845 7.99229 30.9434 7.35166C28.1748 4.58164 24.0601 4.50254 23.8862 4.5001C23.5391 4.49571 23.2065 4.63633 22.9668 4.88731C22.7275 5.13828 22.603 5.47764 22.6235 5.82383C22.6333 5.98252 22.875 9.59434 25.3164 12.3106C20.1982 13.2823 17.6665 16.6559 17.6665 22.0025C17.6665 27.1988 20.0166 33.5953 23.5039 37.0025H11.9165C5.7251 37.0025 0.666504 42.0118 0.666504 48.2525C0.666504 54.4557 5.71338 59.5025 11.9165 59.5025H63.4165C64.1069 59.5025 64.6665 58.943 64.6665 58.2525V53.2525C64.6665 52.5621 64.1069 52.0025 63.4165 52.0025C61.3486 52.0025 59.6665 50.3204 59.6665 48.2525C59.6665 46.1847 61.3486 44.5025 63.4165 44.5025C64.1069 44.5025 64.6665 43.943 64.6665 43.2525V38.2525C64.6665 37.5621 64.1069 37.0025 63.4165 37.0025ZM29.1753 9.11924C30.1025 10.0455 30.6577 11.2281 30.9873 12.2359C30.3096 12.0826 29.6182 12.0025 28.9165 12.0025C28.9131 12.0025 28.9097 12.0025 28.9067 12.0025C28.3315 11.6813 27.8281 11.3067 27.4077 10.8863C26.2729 9.75205 25.6943 8.29502 25.4033 7.21055C26.5264 7.45518 28.0396 7.98301 29.1753 9.11924ZM20.1665 22.0025C20.1665 16.4215 23.3262 14.5025 28.9165 14.5025C30.0161 14.5025 31.0879 14.7628 32.1016 15.2765C32.1045 15.2779 32.1074 15.2789 32.1104 15.2799C32.502 15.4747 32.9717 15.4464 33.3335 15.2272C34.3169 14.7477 35.3535 14.5025 36.4165 14.5025C42.4678 14.5025 45.1665 16.8155 45.1665 22.0025C45.1665 28.5523 40.9233 37.0025 36.4165 37.0025H28.9165C24.4097 37.0025 20.1665 28.5523 20.1665 22.0025ZM62.1665 57.0025H11.9165C7.0918 57.0025 3.1665 53.0772 3.1665 48.2525C3.1665 43.4264 7.07227 39.5025 11.9165 39.5025H62.1665V42.0025H11.9165C8.47021 42.0025 5.6665 44.8063 5.6665 48.2525C5.6665 51.6988 8.47021 54.5025 11.9165 54.5025H62.1665V57.0025ZM58.4199 52.0025H11.9165C9.84863 52.0025 8.1665 50.3204 8.1665 48.2525C8.1665 46.1847 9.84863 44.5016 11.9165 44.5016H58.4199C57.6333 45.5465 57.1665 46.8468 57.1665 48.2525C57.1665 49.6583 57.6333 50.9571 58.4199 52.0025Z" fill="#FFA336"/>
<path d="M50.9165 47.0024H14.4165C13.7261 47.0024 13.1665 47.562 13.1665 48.2524C13.1665 48.9429 13.7261 49.5024 14.4165 49.5024H50.9165C51.6069 49.5024 52.1665 48.9429 52.1665 48.2524C52.1665 47.562 51.6069 47.0024 50.9165 47.0024Z" fill="#FFA336"/>
</g>
<defs>
<clipPath id="clip0_520_13213">
<rect width="64" height="64" fill="white" transform="translate(0.666504)"/>
</clipPath>
</defs>
</svg>
