<svg width="65" height="64" viewBox="0 0 65 64" fill="none" xmlns="http://www.w3.org/2000/svg">
<g clip-path="url(#clip0_520_13254)">
<path d="M9.59897 11.6616H7.6001C6.90972 11.6616 6.3501 11.1019 6.3501 10.4116C6.3501 9.72137 6.90972 9.16162 7.6001 9.16162H9.5991C10.2895 9.16162 10.8491 9.72137 10.8491 10.4116C10.849 11.102 10.2893 11.6616 9.59897 11.6616Z" fill="#313552"/>
<path d="M16.9614 11.6616H14.9624C14.272 11.6616 13.7124 11.1019 13.7124 10.4116C13.7124 9.72137 14.272 9.16162 14.9624 9.16162H16.9614C17.6518 9.16162 18.2114 9.72137 18.2114 10.4116C18.2114 11.102 17.6518 11.6616 16.9614 11.6616Z" fill="#313552"/>
<path d="M24.3242 11.6616H22.3252C21.6348 11.6616 21.0752 11.1019 21.0752 10.4116C21.0752 9.72137 21.6348 9.16162 22.3252 9.16162H24.3242C25.0146 9.16162 25.5742 9.72137 25.5742 10.4116C25.5742 11.102 25.0146 11.6616 24.3242 11.6616Z" fill="#313552"/>
<path d="M57.7332 11.6616H55.7344C55.0441 11.6616 54.4844 11.1019 54.4844 10.4116C54.4844 9.72137 55.0441 9.16162 55.7344 9.16162H57.7332C58.4235 9.16162 58.9832 9.72137 58.9832 10.4116C58.9832 11.102 58.4236 11.6616 57.7332 11.6616Z" fill="#313552"/>
<path d="M32.6889 59.9948C32.1661 59.9948 31.6894 59.6559 31.5133 59.1653C31.3396 58.6815 31.4878 58.1243 31.8806 57.7919C32.2906 57.4451 32.8915 57.3985 33.3484 57.6826C33.7855 57.9546 34.016 58.4831 33.9151 58.9885C33.8 59.5653 33.2774 59.9948 32.6889 59.9948Z" fill="#313552"/>
<path d="M58.8508 4.00537H6.48225C3.2755 4.00537 0.666504 6.61437 0.666504 9.82112V54.1787C0.666504 57.3855 3.2755 59.9945 6.48225 59.9945H27.0158C27.7061 59.9945 28.2658 59.4347 28.2658 58.7445C28.2658 58.0542 27.7061 57.4945 27.0158 57.4945H6.48225C4.65388 57.4946 3.1665 56.0071 3.1665 54.1787V16.8184H62.1665V54.1787C62.1665 56.0071 60.6791 57.4945 58.8508 57.4945H38.3173C37.6269 57.4945 37.0673 58.0542 37.0673 58.7445C37.0673 59.4347 37.6269 59.9945 38.3173 59.9945H58.8508C62.0575 59.9945 64.6665 57.3855 64.6665 54.1787V9.82112C64.6665 6.61437 62.0575 4.00537 58.8508 4.00537ZM3.1665 14.3184V9.82112C3.1665 7.99275 4.65388 6.50537 6.48225 6.50537H58.8506C60.679 6.50537 62.1664 7.99275 62.1664 9.82112V14.3185H3.1665V14.3184Z" fill="#313552"/>
<path d="M56.6617 23.3379H45.3774C44.6871 23.3379 44.1274 22.7781 44.1274 22.0879C44.1274 21.3976 44.6871 20.8379 45.3774 20.8379H56.6617C57.3521 20.8379 57.9117 21.3976 57.9117 22.0879C57.9117 22.7781 57.3519 23.3379 56.6617 23.3379Z" fill="#313552"/>
<path d="M56.6617 28.9844H45.3774C44.6871 28.9844 44.1274 28.4246 44.1274 27.7344C44.1274 27.0441 44.6871 26.4844 45.3774 26.4844H56.6617C57.3521 26.4844 57.9117 27.0441 57.9117 27.7344C57.9117 28.4247 57.3519 28.9844 56.6617 28.9844Z" fill="#313552"/>
<path d="M56.6617 34.6309H45.3774C44.6871 34.6309 44.1274 34.0711 44.1274 33.3809C44.1274 32.6906 44.6871 32.1309 45.3774 32.1309H56.6617C57.3521 32.1309 57.9117 32.6906 57.9117 33.3809C57.9117 34.0712 57.3519 34.6309 56.6617 34.6309Z" fill="#313552"/>
<path d="M37.1445 34.5547H8.6709C7.98052 34.5547 7.4209 33.9949 7.4209 33.3047V22.1641C7.4209 21.4738 7.98052 20.9141 8.6709 20.9141H37.1445C37.8348 20.9141 38.3945 21.4738 38.3945 22.1641V33.3047C38.3945 33.9949 37.8349 34.5547 37.1445 34.5547ZM9.9209 32.0547H35.8945V23.4141H9.9209V32.0547Z" fill="#313552"/>
<path d="M29.9956 40.9644H8.6709C7.98052 40.9644 7.4209 40.4047 7.4209 39.7144C7.4209 39.0241 7.98052 38.4644 8.6709 38.4644H29.9956C30.686 38.4644 31.2456 39.0241 31.2456 39.7144C31.2456 40.4047 30.686 40.9644 29.9956 40.9644Z" fill="#313552"/>
<path d="M29.9956 46.6108H8.6709C7.98052 46.6108 7.4209 46.0512 7.4209 45.3608C7.4209 44.6706 7.98052 44.1108 8.6709 44.1108H29.9956C30.686 44.1108 31.2456 44.6706 31.2456 45.3608C31.2456 46.0512 30.686 46.6108 29.9956 46.6108Z" fill="#313552"/>
<path d="M29.9956 52.2573H8.6709C7.98052 52.2573 7.4209 51.6976 7.4209 51.0073C7.4209 50.3171 7.98052 49.7573 8.6709 49.7573H29.9956C30.686 49.7573 31.2456 50.3171 31.2456 51.0073C31.2456 51.6976 30.686 52.2573 29.9956 52.2573Z" fill="#313552"/>
<path d="M56.6617 52.105H37.1445C36.4543 52.105 35.8945 51.5454 35.8945 50.855V39.7144C35.8945 39.0241 36.4543 38.4644 37.1445 38.4644H56.6617C57.352 38.4644 57.9117 39.0241 57.9117 39.7144V50.855C57.9117 51.5454 57.3519 52.105 56.6617 52.105ZM38.3945 49.605H55.4117V40.9644H38.3945V49.605Z" fill="#313552"/>
</g>
<defs>
<clipPath id="clip0_520_13254">
<rect width="64" height="64" fill="white" transform="translate(0.666504)"/>
</clipPath>
</defs>
</svg>
