<svg width="17" height="18" viewBox="0 0 17 18" fill="none" xmlns="http://www.w3.org/2000/svg">
<g clip-path="url(#clip0_901_1031)">
<path fill-rule="evenodd" clip-rule="evenodd" d="M8.69192 2.8428C5.29033 2.67433 2.39622 5.29528 2.22774 8.69686C2.05927 12.0984 4.68022 14.9926 8.0818 15.161C11.4834 15.3295 14.3775 12.7086 14.546 9.30698C14.7145 5.90539 12.0935 3.01128 8.69192 2.8428ZM1.22897 8.64739C1.42477 4.6942 4.78819 1.64823 8.74139 1.84403C12.6946 2.03983 15.7406 5.40325 15.5448 9.35645C15.349 13.3096 11.9855 16.3556 8.03233 16.1598C4.07914 15.964 1.03317 12.6006 1.22897 8.64739Z" fill="#FFA336"/>
<path fill-rule="evenodd" clip-rule="evenodd" d="M8.41159 8.50242C8.13578 8.48876 7.90112 8.70127 7.88746 8.97708C7.8738 9.25288 8.08631 9.48754 8.36212 9.5012C8.63792 9.51486 8.87258 9.30235 8.88624 9.02654C8.8999 8.75074 8.68739 8.51608 8.41159 8.50242ZM6.88869 8.92761C6.92967 8.10019 7.63364 7.46267 8.46105 7.50365C9.28847 7.54463 9.926 8.2486 9.88501 9.07601C9.84403 9.90343 9.14006 10.541 8.31265 10.5C7.48523 10.459 6.84771 9.75502 6.88869 8.92761Z" fill="#FFA336"/>
<path fill-rule="evenodd" clip-rule="evenodd" d="M8.6095 4.50749C8.33369 4.49383 8.09904 4.70634 8.08538 4.98215L7.93697 7.97847C7.92331 8.25428 8.13582 8.48893 8.41162 8.50259C8.68743 8.51626 8.92209 8.30375 8.93575 8.02794L9.08415 5.03161C9.09781 4.75581 8.8853 4.52115 8.6095 4.50749Z" fill="#FFA336"/>
</g>
<defs>
<clipPath id="clip0_901_1031">
<rect width="16" height="16" fill="white" transform="translate(0.79248 0.615967) rotate(2.83552)"/>
</clipPath>
</defs>
</svg>
