<svg width="17" height="18" viewBox="0 0 17 18" fill="none" xmlns="http://www.w3.org/2000/svg">
<g clip-path="url(#clip0_901_1323)">
<path fill-rule="evenodd" clip-rule="evenodd" d="M8.69094 2.84085C5.28936 2.67237 2.39525 5.29332 2.22677 8.69491C2.05829 12.0965 4.67924 14.9906 8.08083 15.1591C11.4824 15.3276 14.3765 12.7066 14.545 9.30503C14.7135 5.90344 12.0925 3.00933 8.69094 2.84085ZM1.22799 8.64544C1.42379 4.69225 4.78722 1.64628 8.74041 1.84208C12.6936 2.03788 15.7396 5.4013 15.5438 9.3545C15.348 13.3077 11.9846 16.3537 8.03136 16.1579C4.07816 15.9621 1.03219 12.5986 1.22799 8.64544Z" fill="#313552"/>
<path fill-rule="evenodd" clip-rule="evenodd" d="M8.41061 8.50047C8.1348 8.48681 7.90015 8.69932 7.88649 8.97512C7.87283 9.25093 8.08534 9.48558 8.36114 9.49924C8.63694 9.51291 8.8716 9.3004 8.88526 9.02459C8.89892 8.74879 8.68641 8.51413 8.41061 8.50047ZM6.88771 8.92565C6.92869 8.09824 7.63266 7.46071 8.46008 7.50169C9.28749 7.54267 9.92502 8.24665 9.88404 9.07406C9.84306 9.90147 9.13908 10.539 8.31167 10.498C7.48426 10.457 6.84673 9.75307 6.88771 8.92565Z" fill="#313552"/>
<path fill-rule="evenodd" clip-rule="evenodd" d="M8.60852 4.50554C8.33272 4.49188 8.09806 4.70439 8.0844 4.98019L7.93599 7.97652C7.92233 8.25232 8.13484 8.48698 8.41065 8.50064C8.68645 8.5143 8.92111 8.30179 8.93477 8.02599L9.08318 5.02966C9.09684 4.75386 8.88433 4.5192 8.60852 4.50554Z" fill="#313552"/>
</g>
<defs>
<clipPath id="clip0_901_1323">
<rect width="16" height="16" fill="white" transform="translate(0.791504 0.614014) rotate(2.83552)"/>
</clipPath>
</defs>
</svg>
