<svg width="17" height="18" viewBox="0 0 17 18" fill="none" xmlns="http://www.w3.org/2000/svg">
<g clip-path="url(#clip0_901_2087)">
<path fill-rule="evenodd" clip-rule="evenodd" d="M8.69168 2.8428C5.29009 2.67433 2.39598 5.29528 2.2275 8.69686C2.05902 12.0984 4.67997 14.9926 8.08156 15.161C11.4831 15.3295 14.3773 12.7086 14.5457 9.30698C14.7142 5.90539 12.0933 3.01128 8.69168 2.8428ZM1.22872 8.64739C1.42452 4.6942 4.78795 1.64823 8.74114 1.84403C12.6943 2.03983 15.7403 5.40325 15.5445 9.35645C15.3487 13.3096 11.9853 16.3556 8.03209 16.1598C4.0789 15.964 1.03293 12.6006 1.22872 8.64739Z" fill="#FF4A35"/>
<path fill-rule="evenodd" clip-rule="evenodd" d="M8.41134 8.50242C8.13554 8.48876 7.90088 8.70127 7.88722 8.97708C7.87356 9.25288 8.08607 9.48754 8.36187 9.5012C8.63768 9.51486 8.87233 9.30235 8.88599 9.02654C8.89965 8.75074 8.68715 8.51608 8.41134 8.50242ZM6.88844 8.92761C6.92942 8.10019 7.6334 7.46267 8.46081 7.50365C9.28822 7.54463 9.92575 8.2486 9.88477 9.07601C9.84379 9.90343 9.13982 10.541 8.3124 10.5C7.48499 10.459 6.84746 9.75502 6.88844 8.92761Z" fill="#FF4A35"/>
<path fill-rule="evenodd" clip-rule="evenodd" d="M8.60925 4.50749C8.33345 4.49383 8.09879 4.70634 8.08513 4.98215L7.93673 7.97847C7.92307 8.25428 8.13557 8.48893 8.41138 8.50259C8.68718 8.51626 8.92184 8.30375 8.9355 8.02794L9.08391 5.03161C9.09757 4.75581 8.88506 4.52115 8.60925 4.50749Z" fill="#FF4A35"/>
</g>
<defs>
<clipPath id="clip0_901_2087">
<rect width="16" height="16" fill="white" transform="translate(0.792236 0.615967) rotate(2.83552)"/>
</clipPath>
</defs>
</svg>
