<svg width="100" height="32" viewBox="0 0 100 32" fill="none" xmlns="http://www.w3.org/2000/svg">
<g clip-path="url(#clip0_520_13520)">
<path d="M35.564 14.9686L36.0317 13.4795L34.4843 13.5278C34.3536 13.5278 33.4033 13.501 32.4814 12.8362C32.5501 12.8429 32.6188 12.8523 32.6889 12.8523C33.6378 12.8523 34.5557 12.284 34.9237 11.4717L35.5896 10.0041C34.7552 10.0148 33.9923 9.91027 33.9923 9.91027C33.9855 9.90893 33.3844 9.83247 32.6889 9.1262C32.1901 8.61953 31.5729 8.35147 30.9043 8.35147C30.6119 8.35147 30.3503 8.40373 30.1253 8.4748C30.1603 8.35553 30.1939 8.23487 30.2129 8.1102C30.4258 6.7364 29.5362 5.68826 29.5362 5.68959L28.373 4.25679L27.6519 5.94027C27.6492 5.94565 27.4672 6.33965 27.141 6.53269C27.0426 6.03811 26.8014 5.48183 26.2851 4.94979C25.3119 3.94722 24.1272 3.79843 23.5071 3.79843C23.22 3.79843 23.0152 3.82929 22.9652 3.83731L21.5608 4.11205C21.6416 3.79975 21.8142 3.25696 22.1296 2.76775L22.9047 1.56678L20.9542 1.78793L20.3328 0.475807L19.1306 1.09238L18.0186 0L16.9092 1.09238L15.7029 0.475807L15.0828 1.78793L13.1338 1.56678L13.9101 2.76775C14.2256 3.25696 14.3981 3.79843 14.4777 4.11073L13.1378 3.84806L13.092 3.83995C13.0246 3.82929 12.8211 3.79843 12.5326 3.79843C11.9126 3.79843 10.7278 3.94855 9.7573 4.94979C9.23971 5.48051 8.99847 6.03811 8.89874 6.53269C8.57528 6.34239 8.3946 5.95367 8.3946 5.95367L7.67215 4.26084L6.49011 5.70299C6.34582 5.88932 5.63285 6.8744 5.82691 8.11287C5.84717 8.2362 5.87949 8.35687 5.91456 8.47613C5.69081 8.40507 5.42929 8.3528 5.13684 8.3528C4.46827 8.3528 3.85096 8.62087 3.35089 9.12753C2.658 9.8312 2.05955 9.91027 2.065 9.91027C2.065 9.91027 1.43281 10.0229 0.454261 10.0054L1.11606 11.4731C1.48408 12.2866 2.40326 12.8536 3.35089 12.8536C3.42233 12.8536 3.49103 12.8442 3.56115 12.8375C2.64189 13.5023 1.69161 13.5291 1.57701 13.5305L0 13.4795L0.477163 14.9673C0.717109 15.7339 1.51905 17.0045 3.05572 17.1412C2.88853 17.8382 2.51786 18.6183 1.70376 18.9547L0.52975 19.4359L1.16996 20.5443C1.53121 21.1421 2.37903 21.8417 3.5867 21.8417C3.84823 21.8404 4.10024 21.8149 4.34292 21.764C4.40493 22.0374 4.48306 22.3108 4.57476 22.5816C4.9346 23.6458 4.62462 24.3883 4.62057 24.3963L4.04096 25.604L5.33495 25.9431C5.35115 25.9485 5.74199 26.0543 6.23131 26.0543C6.45373 26.0543 6.66529 26.0315 6.86482 25.9846C7.01572 25.9498 7.16003 25.9029 7.2988 25.8466C7.46596 26.1455 7.66949 26.4176 7.90673 26.6615C8.73571 27.5073 9.90973 27.9361 11.3977 27.9361H11.4031L12.4653 27.9227L10.2709 28.8288L11.9369 29.629C12.5421 29.9225 13.2605 30.2696 13.9911 30.535L13.7835 31.1007L14.3577 31.3607C14.4089 31.3834 15.5128 31.8753 17.3487 31.9799C17.3487 31.9799 17.7921 32 18.036 32C18.28 32 18.7181 31.9785 18.7181 31.9785C20.5418 31.8713 21.6376 31.3847 21.6889 31.3607L22.2644 31.0993L22.0541 30.5323C22.8063 30.2589 23.5502 29.8983 24.1298 29.6169L25.7648 28.8275L23.5772 27.92L24.6434 27.9334C26.1328 27.9334 27.3082 27.5046 28.1357 26.6575C28.3716 26.4149 28.5752 26.1427 28.7437 25.8439C28.8825 25.9002 29.028 25.9471 29.179 25.982C29.3771 26.0289 29.5888 26.0516 29.8112 26.0516C30.2923 26.0516 30.6873 25.9457 30.6981 25.9431L31.9975 25.6013L31.4313 24.4165C31.4179 24.3857 31.1079 23.6445 31.4678 22.5789C31.5594 22.3069 31.6362 22.0335 31.6982 21.7613C31.9422 21.8123 32.1969 21.8391 32.4598 21.8391C33.9977 21.8391 34.735 20.7627 34.8779 20.5296L35.5114 19.4331L34.3374 18.9534C33.5219 18.6169 33.1526 17.8355 32.9868 17.1399C34.5018 17.0113 35.3159 15.7406 35.564 14.9686ZM14.58 4.62409L14.564 4.62805L14.5774 4.61069L14.58 4.62409Z" fill="white"/>
<path d="M18.0198 4.55859C16.777 4.55991 15.8457 4.96468 15.6421 5.44049L18.0198 6.37332L20.3975 5.44049C20.1953 4.96468 19.2639 4.55991 18.0198 4.55859Z" fill="white"/>
<path d="M18.044 29.2535H18.0412H18.021H17.9981H17.9967C17.2432 29.2589 16.2067 29.1047 15.7067 28.96L15.1055 30.5777C15.5018 30.7184 16.8443 30.9865 18.021 30.9865C19.195 30.9865 20.5388 30.7172 20.9338 30.5777L20.3339 28.96C19.8326 29.1061 18.7973 29.2589 18.044 29.2535Z" fill="white"/>
<path d="M22.5937 27.6455C22.1462 27.8975 21.1474 28.2754 20.5664 28.451L21.0543 29.7873C21.9533 29.5433 22.6947 29.2579 23.308 28.9523L22.2957 28.6172L22.5937 27.6455Z" fill="white"/>
<path d="M13.4478 27.6455L13.747 28.6172L12.7334 28.9523C13.3453 29.2579 14.0907 29.5433 14.9857 29.7873L15.4736 28.451C14.8954 28.2754 13.8952 27.8962 13.4478 27.6455Z" fill="white"/>
<path d="M18.0196 3.0118C18.9563 3.0118 19.8756 3.23428 20.5819 3.62565C20.6466 3.40987 20.7369 3.14851 20.8595 2.87509L20.5927 2.90726L20.3124 2.93671L20.1937 2.68337L19.8365 1.93282L19.1855 2.27059L18.9321 2.39929L18.7299 2.20087L18.0223 1.50391L17.316 2.20087L17.1138 2.39929L16.8604 2.27059L16.2053 1.93282L15.8522 2.68337L15.7309 2.93671L15.4505 2.90726L15.1836 2.87509C15.3063 3.14984 15.3953 3.40987 15.4613 3.62565C16.1689 3.23428 17.0855 3.0118 18.0196 3.0118Z" fill="white"/>
<path d="M32.3225 11.6861C32.4439 11.7277 32.5678 11.7465 32.6905 11.7465C33.2201 11.7465 33.7324 11.406 33.9089 11.016C33.9089 11.016 32.9371 10.957 31.8925 9.90223C31.5596 9.56036 31.2078 9.4585 30.9059 9.4585C30.4368 9.4585 30.085 9.7051 30.085 9.7051C31.3467 10.3726 31.604 11.4448 32.3225 11.6861Z" fill="white"/>
<path d="M3.3495 11.7465C3.47212 11.7465 3.59614 11.7277 3.71479 11.6861C4.43587 11.4448 4.69466 10.3726 5.95632 9.7051C5.95632 9.7051 5.60309 9.4585 5.13677 9.4585C4.83349 9.4585 4.48167 9.56036 4.14738 9.90223C3.10418 10.957 2.13232 11.016 2.13232 11.016C2.3062 11.406 2.81975 11.7465 3.3495 11.7465Z" fill="white"/>
<path d="M32.6647 16.0433C32.6863 16.0446 32.7051 16.0446 32.7281 16.0446C34.0503 16.0446 34.4992 14.636 34.4992 14.636H34.4736C34.231 14.636 32.2644 14.5796 30.8747 12.8225C29.9595 11.6672 29.21 10.6512 27.7287 10.2518L27.5832 10.2264L27.5508 10.0789C27.5103 9.85362 27.6654 9.64322 28.0172 9.41542C30.0606 8.08449 28.6736 6.38761 28.6736 6.38761C28.6736 6.38761 28.09 7.74542 26.7839 7.74542C26.7528 7.74542 26.7191 7.74409 26.6868 7.74409C26.5386 7.73595 26.3957 7.73055 26.2514 7.69982L26.0101 7.65295C26.0101 7.65295 26.3822 6.64631 25.4845 5.72149C24.8078 5.02321 23.9843 4.90527 23.5085 4.90527C23.2685 4.90527 23.1162 4.93603 23.1162 4.93603C23.5678 5.52317 23.894 6.4962 23.3724 7.09662C22.9222 7.61262 21.8223 7.63815 21.8223 8.40742C21.8223 8.73316 22.1283 9.11382 22.6782 9.45556C24.3321 10.4916 25.9738 11.8655 26.6558 13.7071C27.509 16.0044 26.548 17.5284 25.1759 18.4022C25.1759 18.4022 25.6058 18.7962 26.2299 18.8458C26.3566 18.858 26.4806 18.8633 26.5965 18.8633C27.9134 18.8633 28.5941 18.2494 28.5941 18.2494C28.5941 18.2494 28.4822 19.0979 27.7961 19.886C27.164 20.6137 26.3337 21.0413 25.068 21.06C25.068 21.06 25.0275 21.6444 25.5883 22.1497C25.9468 22.4687 26.7758 22.5732 26.7758 22.5732C26.7758 22.5732 25.2243 22.8856 25.0532 25.1641C24.9602 26.3986 24.6434 26.8274 24.6434 26.8274H24.6718C28.2719 26.8274 28.1789 23.7568 28.1789 23.7568C28.1789 23.7568 28.4296 24.6654 29.4338 24.9028C29.555 24.9349 29.6845 24.947 29.8085 24.947C30.1321 24.947 30.4123 24.8719 30.4123 24.8719C30.4123 24.8719 29.8867 23.7688 30.4083 22.2262C30.841 20.9461 30.7709 19.9972 30.7709 19.9972C30.7709 19.9972 31.2561 20.7264 32.4585 20.733H32.4706C33.4721 20.733 33.9087 19.9784 33.9087 19.9784C31.5082 18.988 31.7455 15.79 31.7455 15.79C31.7455 15.79 32.0568 16.0204 32.6647 16.0433ZM31.9422 19.3833C30.9663 18.9048 30.349 17.6342 30.1994 17.1758C30.0376 19.6956 28.8003 21.4447 27.354 23.1281C26.6032 24.0007 26.3418 24.8492 26.3418 24.8492C26.3418 24.8492 26.486 23.8881 27.1356 23.1054C28.4849 21.493 29.7668 19.4865 29.8624 17.1664C29.9285 15.5474 29.5093 14.2338 28.8556 13.1522C29.2208 14.2794 29.1696 15.66 27.9282 16.948C27.9282 16.948 30.3989 14.0032 26.9443 10.9849C25.5613 9.83629 24.049 9.12722 23.27 8.62462C26.0843 9.53736 27.4578 8.53209 27.4578 8.53209C26.5587 9.30682 25.3956 9.29342 24.6744 9.18216C24.8698 9.27736 25.0734 9.37649 25.2931 9.49316C27.6654 10.7745 29.7978 12.8828 30.1616 15.8034V15.7805C30.7143 18.6474 31.9422 19.3833 31.9422 19.3833Z" fill="white"/>
<path d="M9.26391 22.5732C9.26391 22.5732 10.0929 22.47 10.4514 22.1497C11.0107 21.6444 10.9718 21.06 10.9718 21.06C9.70474 21.0426 8.87576 20.6137 8.23959 19.8873C7.55884 19.0992 7.44565 18.2508 7.44565 18.2508C7.44565 18.2508 8.12626 18.8646 9.44185 18.8646C9.56051 18.8646 9.68316 18.8592 9.80981 18.8472C10.4339 18.7976 10.8652 18.4036 10.8652 18.4036C9.49302 17.5297 8.53073 16.0044 9.38256 13.7071C10.066 11.8668 11.7063 10.4916 13.3602 9.45556C13.9101 9.11382 14.2161 8.73456 14.2161 8.40742C14.2161 7.63815 13.1175 7.61262 12.6673 7.09662C12.1458 6.4962 12.4733 5.52176 12.9235 4.93603C12.9235 4.93603 12.7738 4.90527 12.5325 4.90527C12.0581 4.90527 11.2345 5.02321 10.5579 5.72149C9.65751 6.64631 10.0309 7.65295 10.0309 7.65295L9.78962 7.69982C9.64545 7.73055 9.50115 7.73595 9.35424 7.74409C9.3206 7.74409 9.29089 7.74542 9.25857 7.74542C7.94978 7.74542 7.36884 6.38893 7.36884 6.38893C7.36884 6.38893 5.98184 8.08582 8.02387 9.41669C8.3757 9.64456 8.5294 9.85509 8.48896 10.0802L8.45651 10.2276L8.30828 10.2531C6.82966 10.6525 6.07891 11.6685 5.1637 12.8238C3.77669 14.5783 1.81281 14.636 1.56758 14.636H1.54053C1.54053 14.636 1.98942 16.0446 3.31168 16.0446C3.33326 16.0446 3.35211 16.0446 3.37502 16.0433C3.9829 16.0218 4.2956 15.79 4.2956 15.79C4.2956 15.79 4.53018 18.9866 2.13229 19.9784C2.13229 19.9784 2.56903 20.733 3.57048 20.733H3.58263C4.78624 20.7264 5.27019 19.9972 5.27019 19.9972C5.27019 19.9972 5.20007 20.9461 5.63143 22.2262C6.15299 23.7688 5.63002 24.8719 5.63002 24.8719C5.63002 24.8719 5.9104 24.947 6.23254 24.947C6.35788 24.947 6.48596 24.9349 6.60593 24.9028C7.60868 24.6654 7.86077 23.7568 7.86077 23.7568C7.86077 23.7568 7.7691 26.8274 11.3694 26.8274H11.3949C11.3949 26.8274 11.0796 26.3986 10.9879 25.1641C10.8154 22.8856 9.26391 22.5732 9.26391 22.5732ZM8.68576 23.1281C7.23946 21.4447 6.00342 19.6956 5.84028 17.1758C5.69072 17.6329 5.07605 18.9048 4.10023 19.3833C4.10023 19.3833 5.32674 18.6474 5.87807 15.7805V15.8034C6.24337 12.8842 8.37437 10.7745 10.7479 9.49316C10.965 9.37522 11.1712 9.27602 11.3653 9.18216C10.6442 9.29342 9.48096 9.30682 8.58189 8.53209C8.58189 8.53209 9.95538 9.53736 12.7684 8.62462C11.9894 9.12722 10.4784 9.83629 9.09542 10.9849C5.63944 14.0032 8.11147 16.948 8.11147 16.948C6.86877 15.6586 6.81894 14.2794 7.18416 13.1522C6.52912 14.2352 6.11124 15.5474 6.17862 17.1664C6.27296 19.4865 7.55478 21.493 8.90135 23.1054C9.55245 23.8868 9.69935 24.8492 9.69935 24.8492C9.69935 24.8492 9.43506 24.0007 8.68576 23.1281Z" fill="white"/>
<path d="M15.3583 11.3469C15.4175 11.41 15.4755 11.4782 15.5309 11.5466C15.5443 11.5627 15.5564 11.5775 15.5698 11.5963C15.6211 11.6646 15.6737 11.737 15.7236 11.8106C15.7343 11.8254 15.7452 11.8428 15.7572 11.8603C15.8179 11.9514 15.8746 12.0452 15.9311 12.1417C16.45 13.033 17.2818 13.5652 18.019 13.5665C18.7576 13.5652 19.5866 13.033 20.1083 12.1417C20.1662 12.0426 20.2242 11.946 20.2848 11.8562C20.2942 11.8428 20.3037 11.8308 20.3117 11.8174C20.363 11.741 20.4169 11.6659 20.4736 11.5936C20.4856 11.5775 20.4964 11.5641 20.5072 11.5507C20.5652 11.4796 20.6245 11.41 20.6852 11.3456C20.6959 11.3348 20.7039 11.3255 20.7134 11.3175C20.9776 11.048 21.293 10.843 21.7054 10.729L21.5221 10.6232H21.5114L20.7808 10.201L20.0301 9.77344L18.0244 10.859L18.019 10.855L18.0149 10.859L16.0079 9.77344L15.2586 10.1996L14.5267 10.6218H14.5185L14.3325 10.7277C14.7463 10.8416 15.0604 11.044 15.3259 11.3134C15.338 11.3242 15.3461 11.3362 15.3583 11.3469ZM17.2075 11.2598H18.0567H18.9045V11.8388C18.7051 11.5963 18.3169 11.6458 18.3169 11.6458V12.4808C18.3169 12.4808 18.3317 12.891 18.4759 13.0693H18.0567H17.6362C17.7831 12.8924 17.7966 12.4808 17.7966 12.4808V11.6458C17.7966 11.6458 17.4097 11.5963 17.2075 11.8388V11.2598Z" fill="white"/>
<path d="M17.8464 10.1365V6.7469L15.6763 6.01514L16.2491 9.30024L17.8464 10.1365ZM17.38 7.57924V8.12337L17.2749 8.07517C17.2695 8.0711 17.1158 8.0363 16.8462 7.8245C16.4015 7.48144 16.3934 7.1651 16.3934 7.1651L17.38 7.57924Z" fill="white"/>
<path d="M19.7929 9.30024L20.3631 6.01514L18.1943 6.7469V10.1365L19.7929 9.30024ZM18.6608 7.57924L19.6473 7.16637C19.6473 7.16637 19.6393 7.48277 19.1931 7.8259C18.9249 8.03764 18.7699 8.07244 18.7645 8.0765L18.6594 8.1247V7.57924H18.6608Z" fill="white"/>
<path d="M14.7773 17.9952C14.9889 18.0717 15.245 18.0878 15.3758 18.0878C15.3812 18.0717 15.3879 18.0515 15.3947 18.0274C15.4067 17.9885 15.4176 17.9511 15.4257 17.9081C15.4621 17.7205 15.4756 17.5073 15.4782 17.3706C15.3892 17.3157 15.2639 17.2179 15.1939 17.0718C15.113 16.9029 14.9984 16.8252 14.8298 16.8252C14.6115 16.8252 14.377 16.9552 14.2772 17.0168C14.1978 17.4846 14.5441 17.9095 14.7773 17.9952Z" fill="white"/>
<path d="M19.5767 16.1963C19.1737 16.632 18.3852 17.3906 18.3461 17.4295L18.2989 17.4777L15.8067 17.4388C15.8053 17.6841 15.7649 17.8932 15.7258 18.046C15.7191 18.0714 15.7124 18.0982 15.7056 18.1251L18.6709 18.6545C18.9796 18.44 19.8287 17.8235 20.1577 17.5822C19.9177 17.2338 19.8948 16.8209 19.9487 16.5301C19.7924 16.4296 19.6724 16.317 19.5767 16.1963Z" fill="white"/>
<path d="M19.9152 13.2155C19.3409 13.7824 18.7897 13.9915 18.2977 14.0398C18.2087 14.0492 18.1184 14.0546 18.0268 14.0546H18.02H18.0146C17.923 14.0546 17.8313 14.0492 17.7423 14.0398C17.6561 14.0317 17.5658 14.0183 17.4755 13.9982C17.4431 14.1255 17.4026 14.3922 17.5186 14.6442C17.6224 14.8734 17.834 15.0436 18.1427 15.1563L18.2464 15.1964L18.2478 15.3077C18.2478 15.3412 18.2721 16.0623 19.0633 16.262C19.1927 16.1293 19.3099 16.01 19.3962 15.9109C19.2344 15.5329 19.3193 15.1468 19.5539 14.9578C19.5432 14.998 19.4407 15.9444 20.2036 16.2956L20.329 16.3545L20.2912 16.4872C20.279 16.5274 20.0243 17.4428 20.9476 17.7832L21.1107 17.8449L21.0379 18.0031C21.0218 18.0379 20.6592 18.869 21.5124 19.3407H23.363V17.8798C22.7053 17.7993 22.4262 17.274 22.3548 16.9014C22.0489 16.8491 21.8116 16.7177 21.6498 16.5033C21.2616 15.9953 21.5959 15.5302 21.6 15.5047C21.5986 15.5088 21.6 16.0046 21.9073 16.3102C22.0596 16.4577 22.2403 16.5716 22.5138 16.5971L22.6486 16.6092L22.6608 16.7459C22.6634 16.7753 22.7376 17.4455 23.3643 17.5514L23.363 14.5678C23.363 14.1054 23.4992 13.6404 23.6623 13.2114H19.9152V13.2155Z" fill="white"/>
<path d="M14.9351 14.5823L14.8853 16.4828L15.1022 16.515L15.6333 14.6921L15.3637 14.1318L14.9351 14.5823Z" fill="white"/>
<path d="M20.7899 23.2989C20.8062 23.2989 20.825 23.3016 20.8425 23.3056C21.1728 23.3994 21.2563 24.5842 21.8359 24.6902C21.8925 24.7022 21.9451 24.7049 21.9909 24.7049C22.1581 24.7049 22.2578 24.6338 22.3656 24.5079C22.3656 24.5079 22.0745 24.0522 21.8561 23.7452C21.5663 23.3432 21.3413 22.8566 20.8021 22.8566C20.7899 22.8566 20.7738 22.8566 20.7603 22.8579C20.5824 22.8674 20.4732 22.9531 20.4732 22.9531C20.2548 22.8164 20.0513 22.7695 19.8666 22.7695C19.5284 22.7695 19.2655 22.9236 19.1347 22.9236H19.1294L17.9243 22.8056C17.7356 22.7883 17.5874 22.5993 17.5335 22.5255C17.52 22.5054 17.5132 22.4934 17.5132 22.4934C17.5132 22.4612 17.5132 22.4277 17.5106 22.3982C17.4701 21.4184 16.7072 20.999 16.4363 20.9922C16.4363 20.9922 16.4686 20.8059 16.3945 20.7348L16.129 21.0552L15.2569 20.6196L15.8783 21.3421L15.3512 21.9304C15.2852 21.9974 15.2932 22.0886 15.3202 22.1262L15.548 22.3259L15.8365 22.1516C15.8513 22.1408 15.8769 22.1382 15.9092 22.1382C15.9888 22.1382 16.1088 22.1583 16.2166 22.1583C16.3338 22.1583 16.4363 22.1328 16.4484 22.0229C16.412 22.3862 16.0737 23.0174 16.2961 23.5134L16.4606 23.8873L15.3957 23.7345L14.897 24.5722C14.7433 24.851 14.7191 25.1526 14.8674 25.3161L15.0533 25.5479C15.0533 25.5479 15.3148 25.2718 15.3741 25.0909L15.2892 24.9984C15.2178 24.9207 15.2218 24.851 15.265 24.7665L15.5777 24.2505L16.8352 24.5454L16.9013 24.4328C16.9862 24.292 17.1089 24.2492 17.2437 24.2492C17.2989 24.2492 17.3555 24.2559 17.4148 24.2652C17.6481 24.3108 18.0322 24.3725 18.4164 24.3725C18.8382 24.3725 19.2561 24.2974 19.4784 24.0494C19.934 24.721 20.8573 24.8282 20.7846 25.1686L20.5419 26.3187C20.7024 26.312 20.8573 26.3012 21.0042 26.2811L21.2348 25.0842C21.2604 24.9542 21.2847 24.7786 21.2847 24.7786C21.1956 24.6888 20.9801 24.4985 20.8587 24.268C20.6956 23.957 20.7846 23.7948 20.6323 23.39C20.6376 23.3927 20.6835 23.2989 20.7899 23.2989ZM16.0859 21.6182C16.0238 21.6168 15.9794 21.5646 15.982 21.5028C15.9874 21.4439 16.0373 21.397 16.0979 21.4024C16.1599 21.405 16.2044 21.4586 16.2018 21.5176C16.1963 21.5766 16.1451 21.6222 16.0859 21.6182Z" fill="white"/>
<path d="M14.3691 24.387C14.3691 24.387 14.7855 24.2168 14.8232 24.0948L14.768 23.9568C14.7289 23.867 14.7343 23.7691 14.8098 23.7155L15.2599 23.4059L16.0121 23.5493C16.0121 23.5493 15.8759 23.3804 15.8894 23.154L15.1724 23.0024L14.4957 23.4126C14.2059 23.6284 14.1843 23.9809 14.28 24.19L14.3691 24.387Z" fill="white"/>
<path d="M19.6846 26.3359C19.8193 26.3305 19.9676 26.3277 20.1307 26.3277C20.1307 26.3277 20.5176 25.2033 20.5391 25.1671C20.3221 25.0719 19.8719 24.8347 19.698 24.7261C19.8126 24.8964 20.0916 25.0921 20.0364 25.2421L19.6846 26.3359Z" fill="white"/>
<path d="M23.3671 19.6665H12.6743V23.666C12.6743 25.3012 13.8646 26.3251 15.6208 26.3251C17.0887 26.3251 17.4754 26.3814 18.0214 26.9203C18.3975 26.5476 18.7089 26.4082 19.3477 26.356L19.3625 26.2944L19.6995 25.2583C19.6806 25.2355 19.1294 24.6122 19.1294 24.6122C18.911 24.6846 18.7277 24.6966 18.4191 24.6966C18.1023 24.6966 17.7451 24.6605 17.3583 24.5882C17.3192 24.5787 17.2828 24.576 17.2463 24.576C17.1992 24.576 17.1952 24.58 17.183 24.6028L17.1156 24.7128L16.993 24.9138L16.7625 24.8616L15.7367 24.6216L15.5965 24.8521L15.6181 24.8763L15.7435 25.013L15.6882 25.1912C15.6127 25.4244 15.3674 25.6966 15.2933 25.7716L15.0371 26.045L14.804 25.7515L14.6288 25.533C14.4441 25.328 14.401 25.013 14.5048 24.6832C14.502 24.686 14.498 24.6873 14.494 24.6873L14.2042 24.8066L14.0734 24.5251L13.9818 24.3254C13.8241 23.9742 13.882 23.461 14.3067 23.1513L15.1329 22.6876L15.9188 22.8417C15.9376 22.7666 15.9659 22.4986 15.9888 22.4302C15.974 22.4288 15.9592 22.4249 15.9443 22.4249L15.4914 22.5924L15.0547 22.2922C15.0547 22.2922 14.8835 22.1286 15.0385 21.9651L15.4617 21.3284L14.3902 19.9908L16.0373 20.6636L16.1465 20.5282L16.3689 20.2643L16.6209 20.5028C16.6924 20.5712 16.7328 20.6556 16.753 20.7401C17.2072 20.9156 18.02 21.4343 18.0914 22.2774L17.8367 22.3793V22.386C17.8947 22.4543 17.9432 22.4824 17.958 22.4852L19.1334 22.6004C19.1631 22.5951 19.2008 22.5817 19.2426 22.5696C19.3882 22.52 19.6079 22.449 19.868 22.449C20.0796 22.449 20.2844 22.4972 20.4812 22.5884C20.5541 22.5616 20.6431 22.5414 20.7455 22.5347L20.802 22.5334C21.4315 22.5334 21.7442 23.0012 21.995 23.3738C22.0367 23.4381 22.0785 23.4998 22.1217 23.5601C22.3413 23.8684 22.6284 24.3201 22.6406 24.3388L22.77 24.5398L22.6109 24.7234C22.4883 24.8642 22.305 25.029 21.9896 25.029C21.9249 25.029 21.8535 25.0224 21.7766 25.0076C21.7093 24.9956 21.6486 24.9754 21.5893 24.9513C21.5798 25.013 21.5677 25.0867 21.5555 25.1497L21.3493 26.2192C22.5826 25.9177 23.3658 24.9916 23.3658 23.6673L23.3671 19.6665Z" fill="#FFDD2D"/>
<path d="M12.6744 19.3448H20.9895C20.5743 18.9186 20.5798 18.3785 20.6863 18.0273C20.5649 17.9696 20.4652 17.8999 20.3763 17.8249C20.0514 18.0634 19.0593 18.7819 18.8006 18.9614L18.7454 18.999L15.4821 18.412H15.416C15.3379 18.412 15.2233 18.4093 15.0979 18.3945C15.0629 18.5406 14.9362 18.6412 14.7906 18.6412C14.7744 18.6412 14.7555 18.6398 14.738 18.6358C14.6531 18.621 14.5791 18.5781 14.5292 18.5072C14.4779 18.4374 14.4577 18.3543 14.4725 18.2686L14.4847 18.1988C14.1477 17.963 13.8377 17.4362 13.9751 16.8813L13.9886 16.8224L14.0358 16.7888C14.0426 16.7835 14.0991 16.746 14.1827 16.6977L13.9455 16.6615C13.8565 16.6454 13.7972 16.5636 13.8108 16.4766C13.8256 16.3881 13.9091 16.3251 13.9967 16.3425L14.5615 16.431L14.6127 14.4526L15.4538 13.568L15.9781 14.6658L15.4241 16.569L15.9229 16.6468C16.0104 16.6602 16.0711 16.742 16.0577 16.8317C16.0442 16.9108 15.9768 16.9658 15.8973 16.9658C15.8891 16.9658 15.8797 16.9658 15.8716 16.9644L15.4659 16.8988C15.4713 16.9108 15.4793 16.9175 15.4848 16.931C15.5279 17.0194 15.6236 17.0837 15.6802 17.1105L18.1685 17.1494C18.2735 17.0475 18.5351 16.7928 18.8033 16.5234C18.1914 16.293 17.9689 15.7675 17.9312 15.419C17.5889 15.2742 17.3529 15.0572 17.2222 14.7743C17.0631 14.4246 17.1198 14.0747 17.1615 13.9045C16.83 13.7838 16.4809 13.5641 16.125 13.2129H12.3779C12.5384 13.6418 12.6744 14.1069 12.6744 14.5693V19.3448Z" fill="#FFDD2D"/>
<path d="M16.0991 21.4018C16.0384 21.3964 15.9872 21.4433 15.9832 21.5023C15.9791 21.5639 16.0249 21.6161 16.087 21.6175C16.1462 21.6229 16.1988 21.5773 16.2041 21.517C16.2041 21.458 16.1611 21.4031 16.0991 21.4018Z" fill="#313552"/>
<path d="M23.3526 28.6546L22.7367 28.42L22.9065 27.7874L23.0938 27.0972C23.0938 27.0972 22.002 27.6855 20.4641 28.1278C20.0274 28.2524 19.6972 28.3088 19.6972 28.3088V28.7779C19.6972 28.7779 18.875 28.92 18.0433 28.92H18.0338H18.0217H18.0055H17.9961C17.1645 28.92 16.3423 28.7779 16.3423 28.7779V28.3088C16.3423 28.3088 16.0106 28.2524 15.5753 28.1278C14.0373 27.6855 12.9469 27.0972 12.9469 27.0972L13.1315 27.7874L13.3054 28.42L12.6881 28.6546L12.0034 28.9092C12.7892 29.2859 13.8769 29.8354 14.8731 30.1062L14.6385 30.7442C14.6385 30.7442 15.9015 31.3165 18.0055 31.3218V31.3232H18.0123H18.0217H18.0299H18.0352V31.3218C20.142 31.3165 21.4035 30.7442 21.4035 30.7442L21.1676 30.1062C22.1637 29.8354 23.2542 29.2859 24.036 28.9092L23.3526 28.6546ZM12.7339 28.9522L13.7475 28.617L13.4483 27.6453C13.8944 27.8973 14.896 28.2753 15.4755 28.4509L14.9863 29.7872C14.0912 29.5418 13.3459 29.2564 12.7339 28.9522ZM18.0217 30.9867C16.845 30.9867 15.5012 30.7174 15.1063 30.5779L15.7073 28.9602C16.2061 29.1049 17.244 29.2591 17.9974 29.2537H17.9988H18.0217H18.0419H18.0447C18.7982 29.2591 19.8333 29.1049 20.3347 28.9602L20.9345 30.5779C20.5396 30.7187 19.1971 30.9867 18.0217 30.9867ZM21.0544 29.7872L20.5666 28.4509C21.1475 28.2753 22.1462 27.8973 22.5938 27.6453L22.2959 28.617L23.3081 28.9522C22.6948 29.2564 21.9534 29.5418 21.0544 29.7872Z" fill="#313552"/>
<path d="M18.02 3.40307C19.2736 3.40307 20.2763 3.81585 20.8303 4.25684C20.8303 4.25684 20.9948 3.27173 21.5569 2.40183L20.5473 2.5158L20.019 1.39926L19.004 1.91932L18.02 0.95166L17.0387 1.91932L16.0225 1.39926L15.4954 2.5158L14.4858 2.40183C15.0479 3.27173 15.2124 4.25684 15.2124 4.25684C15.7677 3.81585 16.7678 3.40307 18.02 3.40307ZM15.4495 2.90716L15.7299 2.9366L15.8513 2.68336L16.2044 1.93272L16.8595 2.26917L17.1129 2.39786L17.3151 2.19945L18.0214 1.50248L18.729 2.19945L18.9312 2.39786L19.1846 2.26917L19.8357 1.93272L20.1928 2.68336L20.3114 2.9366L20.5918 2.90716L20.8587 2.87499C20.736 3.14974 20.6457 3.40977 20.5809 3.62554C19.8746 3.23418 18.9554 3.0117 18.0187 3.0117C17.086 3.0117 16.168 3.23418 15.459 3.62554C15.393 3.40977 15.304 3.14842 15.1813 2.87499L15.4495 2.90716Z" fill="#313552"/>
<path d="M32.7262 16.4751C34.3478 16.4751 34.8896 14.8346 34.9125 14.7648L35.0931 14.1872L34.4852 14.2059H34.4826C34.2682 14.2059 32.4796 14.159 31.2112 12.556L31.0912 12.4072C30.2623 11.3591 29.4765 10.3632 28.072 9.90885C28.1124 9.87272 28.1704 9.82712 28.2499 9.77618C28.9953 9.28832 29.4293 8.69592 29.5385 8.00838C29.6976 6.97365 29.0344 6.1493 29.0048 6.1158L28.5532 5.56092L28.2715 6.21902C28.2527 6.26053 27.7781 7.31405 26.7807 7.31405H26.7066C26.6379 7.30998 26.5731 7.30732 26.5085 7.30198C26.5435 6.83152 26.4572 6.10372 25.7941 5.42157C24.9974 4.59988 24.0189 4.47656 23.5067 4.47656C23.2331 4.47656 23.0512 4.51015 23.0322 4.51279L22.3503 4.64686L22.7708 5.19768C23.101 5.62254 23.4002 6.40668 23.0457 6.81678C22.9325 6.94685 22.6994 7.05272 22.4756 7.15858C22.0159 7.36905 21.3892 7.66118 21.3892 8.40645C21.3892 8.88892 21.7652 9.39285 22.4473 9.82178C24.4664 11.0844 25.7118 12.4018 26.2497 13.856C27.0813 16.0931 25.9962 17.3691 24.9422 18.0406L24.4691 18.3434L24.8829 18.7214C24.9381 18.7697 25.445 19.2134 26.193 19.2777C26.3346 19.287 26.4706 19.2952 26.5974 19.2952C27.0772 19.2952 27.4857 19.22 27.8172 19.1196C27.7255 19.279 27.6137 19.4412 27.4722 19.6047C26.8697 20.299 26.1283 20.6153 25.0622 20.6314L24.6658 20.6381L24.6349 21.0334C24.6308 21.1126 24.6012 21.8457 25.2994 22.469C25.4059 22.5655 25.5353 22.6446 25.67 22.7102C25.197 23.1338 24.7157 23.8709 24.6228 25.1348C24.5446 26.1897 24.2912 26.5797 24.2885 26.5838L23.8505 27.2486L24.6417 27.2592C25.9491 27.2592 26.9506 26.9 27.6447 26.1897C28.0545 25.7688 28.289 25.2944 28.4279 24.8735C28.6556 25.0665 28.9495 25.2354 29.3323 25.3252C29.4778 25.3586 29.6369 25.3774 29.8081 25.3774C30.1774 25.3774 30.4861 25.2997 30.5211 25.2916L31.0266 25.1577L30.8028 24.6886C30.7866 24.651 30.3648 23.71 30.8189 22.3671C31.0144 21.7868 31.1141 21.2667 31.1626 20.8619C31.4808 21.0268 31.9067 21.1634 32.458 21.1649C33.7088 21.1649 34.2601 20.236 34.2858 20.1971L34.5324 19.771L34.0755 19.5833C32.5848 18.968 32.2545 17.3155 32.1884 16.4201C32.3232 16.4456 32.4769 16.4698 32.6507 16.4751H32.7262ZM33.9083 19.9786C33.9083 19.9786 33.4716 20.7332 32.4701 20.7332H32.458C31.2557 20.7265 30.7704 19.9974 30.7704 19.9974C30.7704 19.9974 30.8405 20.9464 30.4065 22.2264C29.8849 23.769 30.4106 24.8722 30.4106 24.8722C30.4106 24.8722 30.1302 24.9472 29.8067 24.9472C29.6828 24.9472 29.5533 24.9351 29.4321 24.9029C28.4279 24.6657 28.1772 23.757 28.1772 23.757C28.1772 23.757 28.2701 26.8276 24.6699 26.8276H24.6417C24.6417 26.8276 24.9584 26.3988 25.0527 25.1644C25.2239 22.8858 26.7754 22.5735 26.7754 22.5735C26.7754 22.5735 25.9477 22.4703 25.5892 22.15C25.0284 21.6446 25.0675 21.0603 25.0675 21.0603C26.3346 21.0429 27.1636 20.614 27.7957 19.8862C28.4804 19.098 28.5936 18.2496 28.5936 18.2496C28.5936 18.2496 27.9129 18.8635 26.5961 18.8635C26.4802 18.8635 26.3562 18.8581 26.2294 18.8461C25.6067 18.7965 25.1754 18.4024 25.1754 18.4024C26.5461 17.5286 27.5086 16.0033 26.6554 13.706C25.972 11.8658 24.3303 10.4906 22.6778 9.45458C22.1278 9.11272 21.8218 8.73345 21.8218 8.40645C21.8218 7.63712 22.9217 7.61292 23.3733 7.09565C23.8935 6.49508 23.5673 5.52073 23.1158 4.93501C23.1158 4.93501 23.2681 4.90416 23.5081 4.90416C23.9838 4.90416 24.8074 5.02342 25.484 5.72038C26.3831 6.6452 26.0097 7.65178 26.0097 7.65178L26.251 7.69872C26.3953 7.72958 26.5381 7.73492 26.6864 7.74165C26.7187 7.74165 26.7511 7.74298 26.7834 7.74298C28.0895 7.74298 28.6732 6.38517 28.6732 6.38517C28.6732 6.38517 30.0615 8.08338 28.0181 9.41298C27.6662 9.64078 27.5112 9.85132 27.5517 10.0764L27.5841 10.2239L27.7296 10.2494C29.2109 10.6487 29.9604 11.6647 30.8756 12.82C32.2652 14.5772 34.2319 14.6335 34.4744 14.6335H34.5001C34.5001 14.6335 34.0512 16.0422 32.7289 16.0422C32.7073 16.0422 32.6885 16.0422 32.6656 16.0408C32.0577 16.0194 31.7463 15.7875 31.7463 15.7875C31.7463 15.7875 31.5078 18.9868 33.9083 19.9786Z" fill="#313552"/>
<path d="M29.8786 10.0858C30.4838 10.4061 30.8356 10.835 31.1443 11.2157C31.4475 11.587 31.736 11.9447 32.1861 12.0935C32.3465 12.1485 32.5164 12.174 32.6889 12.174C33.3655 12.174 34.0449 11.7625 34.3023 11.1929L34.5611 10.6219L33.9344 10.5844C33.9047 10.583 33.0987 10.5106 32.201 9.59786C31.8317 9.22399 31.3855 9.02686 30.9043 9.02686C30.3167 9.02686 29.8812 9.31906 29.8327 9.34859L29.2559 9.75206L29.8786 10.0858ZM30.9057 9.45852C31.2076 9.45852 31.5594 9.56032 31.8924 9.90212C32.9369 10.957 33.9088 11.0159 33.9088 11.0159C33.7322 11.4047 33.22 11.7464 32.6902 11.7464C32.5677 11.7464 32.4449 11.7277 32.3223 11.6861C31.6039 11.4449 31.3464 10.3726 30.0834 9.70512C30.0834 9.70512 30.4367 9.45852 30.9057 9.45852Z" fill="#313552"/>
<path d="M30.1613 15.781V15.8025C29.7974 12.8833 27.665 10.7749 25.2927 9.49218C25.0731 9.37558 24.8709 9.27645 24.6741 9.18125C25.3965 9.29245 26.5597 9.30585 27.4574 8.53125C27.4574 8.53125 26.0839 9.53645 23.2695 8.62372C24.0487 9.12632 25.5623 9.83538 26.9439 10.984C30.3986 14.0023 27.9265 16.9471 27.9265 16.9471C29.1679 15.659 29.2191 14.2785 28.8539 13.1513C29.5076 14.2329 29.9254 15.5464 29.8607 17.1655C29.7651 19.4856 28.4832 21.492 27.1339 23.1045C26.4856 23.8872 26.3401 24.8483 26.3401 24.8483C26.3401 24.8483 26.6015 23.9997 27.3523 23.1272C28.7986 21.4438 30.0346 19.6947 30.1963 17.1749C30.346 17.632 30.9619 18.9039 31.9392 19.3823C31.9418 19.3838 30.7139 18.6479 30.1613 15.781Z" fill="#313552"/>
<path d="M11.751 26.5823C11.7497 26.5783 11.499 26.1883 11.4182 25.1334C11.3238 23.8695 10.8439 23.1323 10.3695 22.7088C10.507 22.6445 10.6336 22.5654 10.7401 22.4675C11.437 21.8443 11.4073 21.1111 11.4032 21.032L11.3763 20.6366L10.9773 20.6299C9.9139 20.6125 9.17113 20.2962 8.56866 19.6033C8.42849 19.4397 8.3153 19.2776 8.22362 19.1181C8.55514 19.2186 8.96087 19.2936 9.44208 19.2936C9.57153 19.2936 9.70497 19.2856 9.84648 19.2763C10.5945 19.2119 11.1014 18.7696 11.1579 18.72L11.5717 18.342L11.0986 18.0391C10.0405 17.3663 8.95953 16.0903 9.78985 13.8546C10.3276 12.4004 11.5717 11.0829 13.5936 9.82032C14.2757 9.39139 14.6489 8.88745 14.6489 8.40499C14.6489 7.65972 14.0236 7.36619 13.5639 7.15712C13.3401 7.05125 13.107 6.94539 12.9938 6.81532C12.6379 6.40653 12.9385 5.62107 13.2674 5.19621L13.6906 4.6453L13.0059 4.51132C12.9857 4.50859 12.8064 4.4751 12.5315 4.4751C12.0192 4.4751 11.0434 4.59841 10.2454 5.42001C9.58092 6.10358 9.49338 6.83139 9.52702 7.30052C9.46233 7.30585 9.39764 7.30852 9.33022 7.31259H9.25747C8.25733 7.31259 7.78425 6.25906 7.7654 6.21755L7.48358 5.55946L7.02802 6.11433C7.00244 6.14782 6.33661 6.97345 6.49834 8.00692C6.60615 8.69445 7.04015 9.28685 7.78552 9.77472C7.86639 9.82565 7.92302 9.87125 7.96346 9.90739C6.56035 10.3618 5.77585 11.359 4.94687 12.4071L4.8269 12.5559C3.55995 14.1589 1.76722 14.2058 1.55291 14.2058L0.942383 14.187L1.12833 14.7647C1.14991 14.8345 1.69041 16.475 3.31322 16.475L3.39144 16.4723C3.5626 16.4669 3.71631 16.4441 3.85381 16.4173C3.78633 17.3113 3.4561 18.9639 1.96401 19.5805L1.50843 19.7681L1.75515 20.1944C1.77938 20.2333 2.33203 21.162 3.5855 21.162C4.13278 21.1607 4.55868 21.024 4.87817 20.8591C4.9267 21.2639 5.02641 21.784 5.22188 22.3643C5.67614 23.7073 5.25288 24.6482 5.23667 24.6857L5.01294 25.1548L5.51979 25.2889C5.55344 25.2969 5.86482 25.3747 6.23276 25.3747C6.40532 25.3747 6.5644 25.3559 6.7073 25.3224C7.09144 25.2326 7.38791 25.0637 7.61296 24.8707C7.75047 25.2915 7.98638 25.766 8.39484 26.1869C9.09025 26.8973 10.0904 27.2565 11.3979 27.2565L12.1904 27.2457L11.751 26.5823ZM11.3682 26.8275C7.76799 26.8275 7.85973 23.7569 7.85973 23.7569C7.85973 23.7569 7.60903 24.6656 6.60484 24.9028C6.48486 24.935 6.35678 24.9471 6.23144 24.9471C5.90798 24.9471 5.62893 24.8721 5.62893 24.8721C5.62893 24.8721 6.1519 23.7689 5.63025 22.2263C5.19898 20.9463 5.26909 19.9973 5.26909 19.9973C5.26909 19.9973 4.78515 20.7264 3.58154 20.7331H3.56938C2.56793 20.7331 2.1312 19.9785 2.1312 19.9785C4.5304 18.988 4.29451 15.79 4.29451 15.79C4.29451 15.79 3.98321 16.0206 3.37392 16.0433C3.35234 16.0448 3.33216 16.0448 3.31058 16.0448C1.98691 16.0448 1.53943 14.6361 1.53943 14.6361H1.56639C1.81038 14.6361 3.77427 14.5798 5.16392 12.8226C6.07913 11.6673 6.82989 10.6527 8.3085 10.2519L8.45673 10.2264L8.48918 10.079C8.52962 9.85379 8.37592 9.64339 8.02416 9.41552C5.98074 8.08452 7.36906 6.38776 7.36906 6.38776C7.36906 6.38776 7.95001 7.74412 9.2588 7.74412C9.29111 7.74412 9.32083 7.74278 9.35447 7.74278C9.50137 7.73479 9.64701 7.72938 9.78985 7.69858L10.0312 7.65165C10.0312 7.65165 9.65773 6.64506 10.5581 5.72032C11.2348 5.02195 12.0583 4.90401 12.5328 4.90401C12.7741 4.90401 12.9237 4.93486 12.9237 4.93486C12.4735 5.52191 12.1473 6.49494 12.6675 7.09545C13.1178 7.61145 14.2163 7.63692 14.2163 8.40625C14.2163 8.73199 13.9104 9.11259 13.3605 9.45439C11.7065 10.4905 10.0649 11.8657 9.38278 13.7059C8.53095 16.0031 9.49198 17.5271 10.8655 18.4023C10.8655 18.4023 10.4341 18.7964 9.8101 18.846C9.68338 18.858 9.56073 18.8634 9.44208 18.8634C8.12655 18.8634 7.44588 18.2495 7.44588 18.2495C7.44588 18.2495 7.55907 19.0979 8.23981 19.8861C8.87599 20.6139 9.70497 21.0428 10.972 21.0602C10.972 21.0602 11.0124 21.6445 10.4517 22.1499C10.0918 22.4689 9.26413 22.5734 9.26413 22.5734C9.26413 22.5734 10.817 22.8857 10.9868 25.1643C11.0798 26.3987 11.3938 26.8275 11.3938 26.8275H11.3682Z" fill="#313552"/>
<path d="M3.35001 12.1755C3.52389 12.1755 3.69372 12.1501 3.85404 12.0951C4.30698 11.9463 4.59405 11.5885 4.89733 11.2172C5.2074 10.8366 5.55648 10.4077 6.16163 10.0874L6.78441 9.75498L6.20612 9.35152C6.15758 9.32065 5.72358 9.02979 5.13728 9.02979C4.65475 9.02979 4.20726 9.22552 3.83924 9.60078C2.94155 10.5123 2.13688 10.5859 2.1072 10.5873L1.48047 10.6235L1.73794 11.1958C1.99665 11.7627 2.67465 12.1755 3.35001 12.1755ZM4.1479 9.90365C4.48218 9.56192 4.834 9.46005 5.13728 9.46005C5.60361 9.46005 5.95675 9.70665 5.95675 9.70665C4.69517 10.3755 4.43638 11.4464 3.71522 11.6877C3.59665 11.7293 3.47263 11.7481 3.35001 11.7481C2.82026 11.7481 2.30804 11.4075 2.13283 11.0175C2.13283 11.0162 3.10328 10.9572 4.1479 9.90365Z" fill="#313552"/>
<path d="M6.17893 17.1665C6.11155 15.5474 6.52943 14.2339 7.18444 13.1523C6.81915 14.2795 6.86905 15.66 8.11182 16.9481C8.11182 16.9481 5.63975 14.0034 9.0957 10.985C10.4787 9.83636 11.991 9.12729 12.7688 8.62469C9.95573 9.53743 8.58218 8.53223 8.58218 8.53223C9.47984 9.30696 10.6431 9.29349 11.3657 9.18089C11.1702 9.27609 10.9653 9.37529 10.7482 9.49189C8.37332 10.7746 6.24226 12.8829 5.87697 15.8021V15.7793C5.32573 18.6462 4.09912 19.382 4.09912 19.382C5.07503 18.9036 5.6897 17.633 5.83927 17.1745C6.0024 19.6943 7.23834 21.4435 8.68464 23.1268C9.43541 23.9994 9.69963 24.8478 9.69963 24.8478C9.69963 24.8478 9.55273 23.8868 8.9017 23.1041C7.55513 21.4944 6.27327 19.4866 6.17893 17.1665Z" fill="#313552"/>
<path d="M17.207 11.2603V11.8393C17.4079 11.5967 17.7961 11.6462 17.7961 11.6462V12.4812C17.7961 12.4812 17.7826 12.8913 17.6357 13.0697H18.0562H18.4754C18.3312 12.8928 18.3163 12.4812 18.3163 12.4812V11.6462C18.3163 11.6462 18.7045 11.5967 18.904 11.8393V11.2603H18.0562H17.207Z" fill="#313552"/>
<path d="M16.8459 7.8259C17.1141 8.03764 17.2691 8.07257 17.2745 8.0765L17.3797 8.12484V7.5793L16.3931 7.1665C16.3931 7.16784 16.4025 7.48277 16.8459 7.8259Z" fill="#313552"/>
<path d="M19.1925 7.8259C19.6387 7.48277 19.6468 7.1665 19.6468 7.1665L18.6602 7.5793V8.12484L18.7639 8.0765C18.7707 8.07257 18.9243 8.03764 19.1925 7.8259Z" fill="#313552"/>
<path d="M20.9704 5.6051C20.9704 4.77813 19.5699 4.03418 18.0239 4.03418H18.0225H18.0185H18.0145C16.4684 4.03418 15.068 4.77813 15.068 5.6051L15.099 5.80881L15.7163 9.33248L15.0963 9.69034L13.4923 10.6219H13.4977C13.4977 10.6219 13.1365 10.8055 12.9693 10.9193C12.3588 11.3416 12.2294 11.9568 12.5838 12.2115C12.6715 11.7102 13.0704 11.1847 13.8171 11.1847C14.355 11.1847 14.7647 11.4609 15.0963 11.875C15.1812 11.9796 15.2621 12.0908 15.3376 12.2115C15.4305 12.3629 15.5235 12.4956 15.6166 12.6243H11.4854C11.7886 13.2314 12.077 13.8748 12.077 14.5731V23.6657C12.077 25.8665 13.7794 26.9174 15.6206 26.9174C17.044 26.9174 17.2354 26.8531 18.0213 27.6304C18.803 26.8517 18.9944 26.9174 20.4191 26.9174C22.2616 26.9174 23.9614 25.8665 23.9614 23.6657V14.5731C23.9614 13.8748 24.2498 13.2314 24.5544 12.6243H20.4218C20.5135 12.497 20.6065 12.3629 20.6994 12.2115C20.7763 12.0908 20.8558 11.9796 20.9394 11.875C21.2736 11.4595 21.682 11.1847 22.2199 11.1847C22.9666 11.1847 23.3642 11.7089 23.4532 12.2115C23.8077 11.9568 23.6796 11.3416 23.065 10.9193C22.9005 10.8055 22.5392 10.6219 22.5392 10.6219H22.5447L20.9407 9.69034L20.3234 9.33248L20.9407 5.80881L20.9704 5.6051ZM15.6758 6.01524L17.846 6.74701V10.1366L16.2488 9.29901L15.6758 6.01524ZM16.1247 13.2153C16.4806 13.5679 16.8297 13.7864 17.1612 13.9069C17.1181 14.0771 17.0616 14.4283 17.2219 14.7782C17.3526 15.0596 17.5899 15.2767 17.9309 15.4215C17.9686 15.77 18.1897 16.2941 18.803 16.5259C18.5348 16.7954 18.2732 17.0486 18.1668 17.1518L15.6799 17.1129C15.6233 17.0849 15.5276 17.0218 15.4846 16.9321C15.4791 16.92 15.471 16.9133 15.467 16.8999L15.8726 16.9656C15.8822 16.9669 15.8901 16.9669 15.8983 16.9669C15.9765 16.9669 16.0452 16.9133 16.0587 16.8329C16.0722 16.7431 16.0115 16.6613 15.9239 16.6479L15.4252 16.5701L15.9792 14.6683L15.4548 13.5705L14.6138 14.4551L14.5625 16.4335L13.9978 16.3449C13.9101 16.3276 13.8266 16.3919 13.8118 16.479C13.7983 16.5661 13.8576 16.6479 13.9465 16.6639L14.1838 16.7002C14.0989 16.7484 14.0436 16.7859 14.0368 16.7913L13.9883 16.8248L13.9748 16.8838C13.8374 17.4387 14.1487 17.9654 14.4844 18.2013L14.4722 18.271C14.4588 18.3568 14.4776 18.4399 14.5289 18.5096C14.5774 18.5807 14.6528 18.6235 14.7364 18.6383C14.754 18.6409 14.7728 18.6423 14.789 18.6423C14.9345 18.6423 15.0613 18.5418 15.0977 18.3957C15.223 18.4105 15.3376 18.4131 15.4157 18.4131H15.4818L18.745 18.9988L18.8003 18.9626C19.0604 18.7817 20.0511 18.0633 20.376 17.8261C20.4649 17.9025 20.5646 17.9721 20.6859 18.0297C20.5808 18.3809 20.5741 18.9211 20.9906 19.3473H12.6742V14.5745C12.6742 14.1121 12.538 13.6469 12.3776 13.218H16.1247V13.2153ZM20.1576 17.5821C19.8274 17.8233 18.9782 18.4399 18.6709 18.6543L15.7055 18.1249C15.7123 18.0981 15.719 18.0727 15.7258 18.0459C15.7648 17.8931 15.8039 17.6839 15.8067 17.4387L18.2989 17.4789L18.346 17.4307C18.3838 17.3931 19.1737 16.6345 19.5767 16.1976C19.6724 16.3169 19.7923 16.4308 19.9486 16.5313C19.8947 16.8207 19.9177 17.2336 20.1576 17.5821ZM15.1933 17.0715C15.2634 17.2175 15.3901 17.3153 15.4778 17.3703C15.475 17.5071 15.4616 17.7202 15.4252 17.9077C15.4171 17.9494 15.4063 17.9883 15.3941 18.0271C15.3875 18.0512 15.3807 18.0713 15.3753 18.0874C15.2446 18.0874 14.9871 18.0713 14.7768 17.9949C14.5437 17.9092 14.1959 17.4842 14.2768 17.0165C14.3779 16.9548 14.6111 16.8248 14.8295 16.8248C14.9979 16.8235 15.1125 16.9025 15.1933 17.0715ZM14.8847 16.4831L14.9345 14.5838L15.3632 14.1321L15.6328 14.6924L15.1017 16.5153L14.8847 16.4831ZM20.1307 26.3289C19.9689 26.3289 19.8193 26.3317 19.6845 26.337L20.0376 25.2447C20.0929 25.0933 19.8139 24.8989 19.6993 24.7287C19.8732 24.8372 20.3234 25.0745 20.5404 25.1696C20.5175 25.2045 20.1307 26.3289 20.1307 26.3289ZM21.2386 25.0879L21.0081 26.2834C20.8612 26.3035 20.7049 26.3143 20.5444 26.3209L20.7871 25.1709C20.8598 24.8292 19.9366 24.7233 19.481 24.0518C19.2586 24.3011 18.8394 24.3748 18.4189 24.3748C18.0347 24.3748 17.6506 24.3132 17.4173 24.2676C17.358 24.2582 17.3014 24.2515 17.2462 24.2515C17.1114 24.2515 16.9887 24.2931 16.9038 24.4351L16.8364 24.5477L15.5789 24.2529L15.2662 24.7675C15.2217 24.8506 15.2189 24.9217 15.2904 24.9994L15.3753 25.0919C15.3173 25.2741 15.0559 25.5489 15.0559 25.5489L14.8686 25.3171C14.7202 25.1522 14.7445 24.8519 14.8995 24.5732L15.3982 23.7355L16.4631 23.8883L16.2973 23.513C16.0749 23.0171 16.4132 22.3858 16.4496 22.0225C16.4374 22.1325 16.3363 22.1566 16.2177 22.1566C16.1099 22.1566 15.9899 22.1365 15.9104 22.1365C15.8794 22.1365 15.8524 22.1392 15.8376 22.1499L15.5492 22.3241L15.3214 22.1245C15.2944 22.0856 15.285 21.9957 15.3524 21.9287L15.8794 21.3417L15.2568 20.6193L16.1288 21.0549L16.3943 20.7345C16.4672 20.8055 16.4361 20.9919 16.4361 20.9919C16.7084 20.9986 17.4712 21.4181 17.5117 22.3965C17.5144 22.426 17.5144 22.4595 17.5144 22.4917C17.5144 22.4917 17.5212 22.5037 17.5346 22.5238C17.5885 22.5975 17.7368 22.7865 17.9255 22.8039L19.1305 22.9219H19.1358C19.268 22.9219 19.5309 22.7678 19.8678 22.7678C20.0511 22.7678 20.256 22.8147 20.4744 22.9514C20.4744 22.9514 20.5835 22.8657 20.7614 22.8562C20.7749 22.8549 20.7898 22.8549 20.8033 22.8549C21.3438 22.8549 21.5675 23.3401 21.8573 23.7435C22.0757 24.0504 22.3668 24.5061 22.3668 24.5061C22.259 24.6335 22.1592 24.7032 21.9921 24.7032C21.9463 24.7032 21.8937 24.6991 21.837 24.6884C21.2574 24.5825 21.174 23.3977 20.8437 23.3039C20.8262 23.2985 20.8073 23.2972 20.7911 23.2972C20.6846 23.2972 20.6375 23.391 20.6375 23.391C20.7883 23.7945 20.7008 23.9579 20.8626 24.2689C20.9838 24.4994 21.1995 24.6898 21.2884 24.7795C21.2884 24.7823 21.2642 24.9565 21.2386 25.0879ZM14.7674 23.9566L14.8227 24.0947C14.7863 24.2153 14.3685 24.3869 14.3685 24.3869L14.2781 24.1912C14.1824 23.9821 14.2026 23.6296 14.4938 23.4138L15.1704 23.0037L15.8875 23.1551C15.874 23.3817 16.0101 23.5505 16.0101 23.5505L15.258 23.4071L14.8079 23.7167C14.7324 23.769 14.727 23.8668 14.7674 23.9566ZM21.3518 26.2177L21.5581 25.1482C21.5688 25.0851 21.5823 25.0115 21.5917 24.9499C21.6497 24.9739 21.7117 24.994 21.7791 25.0061C21.8559 25.0208 21.9273 25.0275 21.9921 25.0275C22.3075 25.0275 22.4908 24.8627 22.6135 24.722L22.7725 24.5383L22.6431 24.3373C22.631 24.3171 22.3452 23.8668 22.1242 23.5585C22.081 23.4983 22.0392 23.4379 21.9975 23.3722C21.7468 22.9997 21.4327 22.5319 20.8033 22.5319L20.7466 22.5332C20.6428 22.5399 20.5539 22.5601 20.4825 22.5869C20.2843 22.4944 20.0808 22.4474 19.8691 22.4474C19.609 22.4474 19.3893 22.5185 19.2437 22.5681C19.2019 22.5801 19.1642 22.5935 19.1346 22.5989L17.9578 22.4837C17.943 22.4809 17.8945 22.4528 17.8365 22.3831V22.3778L18.0913 22.2759C18.0198 21.4329 17.2057 20.9141 16.7515 20.7385C16.7313 20.6541 16.6909 20.5697 16.6195 20.5013L16.366 20.2627L16.1436 20.5281L16.0345 20.6635L14.3873 19.9906L15.4589 21.3283L15.0356 21.9649C14.8806 22.1284 15.0518 22.2919 15.0518 22.2919L15.4885 22.5908L15.9414 22.4233C15.9576 22.4233 15.9711 22.4273 15.9859 22.4287C15.9644 22.4971 15.936 22.7651 15.9171 22.8402L15.1313 22.686L14.3051 23.1497C13.8805 23.4594 13.8225 23.9727 13.9803 24.3239L14.0719 24.5236L14.2026 24.805L14.4911 24.6857C14.4951 24.6845 14.4992 24.6831 14.5018 24.6804C14.3981 25.0101 14.4399 25.3237 14.6259 25.5302L14.8011 25.7499L15.0343 26.0435L15.2904 25.7701C15.3659 25.695 15.6099 25.4229 15.6853 25.1897L15.7406 25.0115L15.6153 24.8747L15.595 24.8506L15.7352 24.6201L16.7609 24.86L16.9914 24.9123L17.1141 24.7113L17.1815 24.6013C17.1936 24.5786 17.1976 24.5745 17.2448 24.5745C17.2812 24.5745 17.3176 24.5786 17.3567 24.5866C17.7435 24.659 18.1007 24.6951 18.4175 24.6951C18.7248 24.6951 18.9081 24.6831 19.1278 24.6107C19.1278 24.6107 19.6791 25.2326 19.6979 25.2568L19.361 26.2914L19.3461 26.3545C18.7073 26.4054 18.3959 26.5447 18.0199 26.9187C17.474 26.3799 17.0871 26.3236 15.6193 26.3236C13.863 26.3236 12.6728 25.2996 12.6728 23.6644V19.6663H23.3642L23.367 23.6644C23.3682 24.9913 22.5851 25.9162 21.3518 26.2177ZM23.6634 13.2153C23.5004 13.6443 23.3642 14.1093 23.3642 14.5717L23.3656 17.5553C22.7388 17.4507 22.6647 16.7793 22.662 16.7498L22.6498 16.6131L22.5151 16.601C22.2428 16.5755 22.0622 16.4603 21.9099 16.3128C21.6025 16.0073 21.6011 15.5113 21.6025 15.5073C21.5985 15.5328 21.2642 15.9979 21.6524 16.5058C21.8155 16.7203 22.0514 16.8516 22.3574 16.9039C22.4288 17.2765 22.7078 17.8019 23.3656 17.8823V19.3433H21.5163C20.663 18.8715 21.0243 18.0405 21.0418 18.0056L21.1146 17.8475L20.9515 17.7859C20.0282 17.4453 20.2816 16.5287 20.2951 16.4898L20.3328 16.3557L20.2075 16.2967C19.4445 15.9456 19.5484 14.998 19.5578 14.9591C19.3233 15.1481 19.2383 15.5341 19.4001 15.9121C19.3125 16.0113 19.1953 16.1319 19.0672 16.2633C18.2773 16.0635 18.2531 15.3411 18.2531 15.3076L18.2516 15.1963L18.1479 15.1561C17.8392 15.0422 17.6276 14.8719 17.5238 14.6428C17.4066 14.3895 17.4483 14.1241 17.4808 13.9968C17.571 14.0169 17.6613 14.0316 17.7476 14.0383C17.8365 14.0477 17.9282 14.0531 18.0199 14.0531H18.0253H18.032C18.1237 14.0531 18.214 14.0477 18.3029 14.0383C18.7949 13.9901 19.3462 13.7797 19.9204 13.2141H23.6634V13.2153ZM20.7817 10.1997L21.5122 10.6219H21.523L21.7063 10.7277C21.2939 10.8417 20.9785 11.0467 20.7143 11.3161C20.7049 11.3242 20.6955 11.3349 20.6859 11.3443C20.6253 11.4087 20.5646 11.4783 20.5081 11.5493C20.4973 11.5627 20.4865 11.5775 20.4744 11.5923C20.4177 11.6646 20.3652 11.7383 20.3139 11.8161C20.3059 11.8295 20.2964 11.8429 20.287 11.8549C20.2263 11.9447 20.1684 12.0413 20.1105 12.1405C19.5901 13.0317 18.7598 13.5638 18.0213 13.5652C17.284 13.5638 16.4536 13.0317 15.9333 12.1405C15.8767 12.0439 15.8201 11.9501 15.7594 11.859C15.7473 11.8415 15.7365 11.8241 15.7258 11.8093C15.6746 11.7357 15.6233 11.6633 15.5708 11.5949C15.5573 11.5761 15.5451 11.5614 15.5317 11.5454C15.475 11.4769 15.4171 11.4087 15.3591 11.3456C15.347 11.3362 15.3389 11.3242 15.3268 11.3135C15.0613 11.0441 14.7472 10.8403 14.3334 10.7277L14.5194 10.6219H14.5275L15.258 10.1997L16.0088 9.77208L18.0145 10.8577L18.0185 10.8537L18.0239 10.8577L20.0295 9.77208L20.7817 10.1997ZM19.7923 9.30034L18.1937 10.1379V6.74701L20.3625 6.01524L19.7923 9.30034ZM18.0199 6.37443L15.6422 5.44019C15.8444 4.96437 16.7771 4.55961 18.0199 4.55829C19.264 4.55961 20.1967 4.96437 20.3975 5.44019L18.0199 6.37443Z" fill="#313552"/>
<path d="M47.464 20.5597V15.1929H50.6297V13.24H41.9932V15.1929H45.1589V20.5597H47.464ZM53.8574 13.24H51.5523V20.5597H53.8574V13.24ZM55.5441 13.24V20.5597H57.6649V16.5154L61.6143 20.5597H63.5814V13.24H61.4606V17.2536L57.6034 13.24H55.5441ZM68.1122 17.7918L70.7704 20.5597H73.7364L70.0329 16.746L73.5978 13.24H70.801L68.1122 15.9926H67.4972V13.24H65.2688V20.5597H67.4972V17.7918H68.1122ZM78.3213 13.04C75.3247 13.04 73.5265 14.7316 73.5265 16.9152C73.5265 19.0988 75.3247 20.7904 78.3213 20.7904C81.3034 20.7904 83.1008 19.0988 83.1008 16.9152C83.1008 14.7316 81.3034 13.04 78.3213 13.04ZM78.3213 19.0066C76.831 19.0066 75.8776 18.1146 75.8776 16.9152C75.8776 15.7158 76.831 14.8392 78.3213 14.8392C79.797 14.8392 80.7651 15.7158 80.7651 16.9152C80.7651 18.1146 79.797 19.0066 78.3213 19.0066ZM91.5512 13.24H84.1595V20.5597H86.3873V18.007H91.2287V16.3924H86.3873V15.1006H91.5512V13.24ZM99.9403 13.24H92.5479V20.5597H94.7764V18.007H99.6178V16.3924H94.7764V15.1006H99.9403V13.24Z" fill="#313552"/>
</g>
<defs>
<clipPath id="clip0_520_13520">
<rect width="100" height="32" fill="white"/>
</clipPath>
</defs>
</svg>
