<svg width="957" height="385" viewBox="0 0 957 385" fill="none" xmlns="http://www.w3.org/2000/svg">
<g opacity="0.5" clip-path="url(#clip0_520_12451)">
<path opacity="0.5" fill-rule="evenodd" clip-rule="evenodd" d="M41.4802 216.538L41.4802 168.543L42.4802 168.543L42.4802 216.538L41.4802 216.538Z" fill="#DDEBF6"/>
<path fill-rule="evenodd" clip-rule="evenodd" d="M332.717 337.038L291.136 313.041L291.636 312.174L333.217 336.172L332.717 337.038Z" fill="#DDEBF6"/>
<path fill-rule="evenodd" clip-rule="evenodd" d="M290.886 312.608L290.886 264.324L332.717 240.182L333.217 241.048L291.886 264.901L291.886 312.608L290.886 312.608Z" fill="#DDEBF6"/>
<path fill-rule="evenodd" clip-rule="evenodd" d="M333.216 288.177L374.797 312.174L374.298 313.041L332.717 289.043L333.216 288.177Z" fill="#DDEBF6"/>
<path fill-rule="evenodd" clip-rule="evenodd" d="M291.136 312.174L332.717 288.177L333.217 289.043L291.636 313.041L291.136 312.174Z" fill="#DDEBF6"/>
<path fill-rule="evenodd" clip-rule="evenodd" d="M333.467 240.615L333.467 288.61L332.467 288.61L332.467 240.615L333.467 240.615Z" fill="#DDEBF6"/>
<path fill-rule="evenodd" clip-rule="evenodd" d="M457.209 168.831L457.209 216.538L458.209 216.538L458.209 168.254L416.378 144.112L415.878 144.978L457.209 168.831Z" fill="#DDEBF6"/>
<path fill-rule="evenodd" clip-rule="evenodd" d="M416.128 241.193L374.297 216.97L374.798 216.105L416.128 240.037L457.459 216.105L457.96 216.97L416.128 241.193Z" fill="#DDEBF6"/>
<path fill-rule="evenodd" clip-rule="evenodd" d="M416.378 192.107L457.959 216.105L457.459 216.971L415.878 192.973L416.378 192.107Z" fill="#DDEBF6"/>
<path fill-rule="evenodd" clip-rule="evenodd" d="M374.297 216.105L415.878 192.107L416.378 192.973L374.797 216.971L374.297 216.105Z" fill="#DDEBF6"/>
<path fill-rule="evenodd" clip-rule="evenodd" d="M416.628 144.545L416.628 192.54L415.628 192.54L415.628 144.545L416.628 144.545Z" fill="#DDEBF6"/>
<path fill-rule="evenodd" clip-rule="evenodd" d="M375.047 168.543L375.047 216.538L374.047 216.538L374.047 168.543L375.047 168.543Z" fill="#DDEBF6"/>
<path fill-rule="evenodd" clip-rule="evenodd" d="M332.716 241.048L291.135 216.97L291.636 216.105L333.217 240.182L332.716 241.048Z" fill="#DDEBF6"/>
<path fill-rule="evenodd" clip-rule="evenodd" d="M374.798 216.97L333.217 241.048L332.716 240.182L374.297 216.105L374.798 216.97Z" fill="#DDEBF6"/>
<path fill-rule="evenodd" clip-rule="evenodd" d="M333.216 192.107L374.797 216.105L374.298 216.971L332.717 192.973L333.216 192.107Z" fill="#DDEBF6"/>
<path fill-rule="evenodd" clip-rule="evenodd" d="M291.136 216.105L332.717 192.107L333.217 192.973L291.636 216.971L291.136 216.105Z" fill="#DDEBF6"/>
<path fill-rule="evenodd" clip-rule="evenodd" d="M333.467 144.545L333.467 192.54L332.467 192.54L332.467 144.545L333.467 144.545Z" fill="#DDEBF6"/>
<path fill-rule="evenodd" clip-rule="evenodd" d="M416.628 96.4699L416.628 144.545L415.628 144.545L415.628 96.4699L416.628 96.4699Z" fill="#DDEBF6"/>
<path fill-rule="evenodd" clip-rule="evenodd" d="M374.298 168.976L332.717 144.978L333.216 144.112L374.797 168.109L374.298 168.976Z" fill="#DDEBF6"/>
<path fill-rule="evenodd" clip-rule="evenodd" d="M416.378 144.978L374.797 168.976L374.297 168.109L415.878 144.112L416.378 144.978Z" fill="#DDEBF6"/>
<path fill-rule="evenodd" clip-rule="evenodd" d="M374.547 121.125L415.878 144.978L416.378 144.112L374.547 119.97L332.717 144.112L333.216 144.978L374.547 121.125Z" fill="#DDEBF6"/>
<path fill-rule="evenodd" clip-rule="evenodd" d="M291.886 168.543L291.886 216.538L290.886 216.538L290.886 168.543L291.886 168.543Z" fill="#DDEBF6"/>
<path fill-rule="evenodd" clip-rule="evenodd" d="M249.805 241.193L207.973 216.97L208.474 216.105L249.805 240.037L291.135 216.105L291.636 216.97L249.805 241.193Z" fill="#DDEBF6"/>
<path fill-rule="evenodd" clip-rule="evenodd" d="M250.055 192.107L291.636 216.105L291.136 216.971L249.555 192.973L250.055 192.107Z" fill="#DDEBF6"/>
<path fill-rule="evenodd" clip-rule="evenodd" d="M207.974 216.105L249.555 192.107L250.055 192.973L208.474 216.971L207.974 216.105Z" fill="#DDEBF6"/>
<path fill-rule="evenodd" clip-rule="evenodd" d="M250.305 144.545L250.305 192.54L249.305 192.54L249.305 144.545L250.305 144.545Z" fill="#DDEBF6"/>
<path fill-rule="evenodd" clip-rule="evenodd" d="M332.467 96.7586L332.467 144.545L333.467 144.545L333.467 96.1812L291.636 72.0393L291.136 72.9055L332.467 96.7586Z" fill="#DDEBF6"/>
<path fill-rule="evenodd" clip-rule="evenodd" d="M291.136 168.976L249.555 144.978L250.055 144.112L291.636 168.109L291.136 168.976Z" fill="#DDEBF6"/>
<path fill-rule="evenodd" clip-rule="evenodd" d="M333.217 144.978L291.636 168.976L291.136 168.109L332.717 144.112L333.217 144.978Z" fill="#DDEBF6"/>
<path fill-rule="evenodd" clip-rule="evenodd" d="M291.636 120.114L333.217 144.112L332.717 144.978L291.136 120.981L291.636 120.114Z" fill="#DDEBF6"/>
<path fill-rule="evenodd" clip-rule="evenodd" d="M249.555 144.112L291.136 120.114L291.636 120.981L250.055 144.978L249.555 144.112Z" fill="#DDEBF6"/>
<path fill-rule="evenodd" clip-rule="evenodd" d="M291.886 72.4726L291.886 120.548L290.886 120.548L290.886 72.4726L291.886 72.4726Z" fill="#DDEBF6"/>
<path fill-rule="evenodd" clip-rule="evenodd" d="M208.724 168.543L208.724 216.538L207.724 216.538L207.724 168.543L208.724 168.543Z" fill="#DDEBF6"/>
<path fill-rule="evenodd" clip-rule="evenodd" d="M166.643 241.193L124.811 216.97L125.313 216.105L166.643 240.037L207.973 216.105L208.474 216.97L166.643 241.193Z" fill="#DDEBF6"/>
<path fill-rule="evenodd" clip-rule="evenodd" d="M124.562 216.538L124.562 168.543L125.562 168.543L125.562 216.538L124.562 216.538Z" fill="#DDEBF6"/>
<path fill-rule="evenodd" clip-rule="evenodd" d="M124.812 168.109L166.393 144.112L166.893 144.978L125.312 168.976L124.812 168.109Z" fill="#DDEBF6"/>
<path fill-rule="evenodd" clip-rule="evenodd" d="M166.893 192.107L208.474 216.105L207.974 216.971L166.393 192.973L166.893 192.107Z" fill="#DDEBF6"/>
<path fill-rule="evenodd" clip-rule="evenodd" d="M124.812 216.105L166.393 192.107L166.893 192.973L125.312 216.971L124.812 216.105Z" fill="#DDEBF6"/>
<path fill-rule="evenodd" clip-rule="evenodd" d="M167.143 144.545L167.143 192.54L166.143 192.54L166.143 144.545L167.143 144.545Z" fill="#DDEBF6"/>
<path fill-rule="evenodd" clip-rule="evenodd" d="M83.7311 144.112L125.312 168.109L124.812 168.976L83.2313 144.978L83.7311 144.112Z" fill="#DDEBF6"/>
<path fill-rule="evenodd" clip-rule="evenodd" d="M83.4811 241.193L41.7295 216.97L42.2313 216.105L83.4816 240.037L124.812 216.105L125.313 216.97L83.4811 241.193Z" fill="#DDEBF6"/>
<path fill-rule="evenodd" clip-rule="evenodd" d="M41.7302 168.11L83.2311 144.112L83.7317 144.978L42.2307 168.975L41.7302 168.11Z" fill="#DDEBF6"/>
<path fill-rule="evenodd" clip-rule="evenodd" d="M83.7311 192.107L125.312 216.105L124.812 216.971L83.2313 192.973L83.7311 192.107Z" fill="#DDEBF6"/>
<path fill-rule="evenodd" clip-rule="evenodd" d="M41.7302 216.105L83.2311 192.107L83.7317 192.973L42.2307 216.97L41.7302 216.105Z" fill="#DDEBF6"/>
<path fill-rule="evenodd" clip-rule="evenodd" d="M83.9812 144.545L83.9812 192.54L82.9812 192.54L82.9812 144.545L83.9812 144.545Z" fill="#DDEBF6"/>
<path fill-rule="evenodd" clip-rule="evenodd" d="M250.305 96.4699L250.305 144.545L249.305 144.545L249.305 96.4699L250.305 96.4699Z" fill="#DDEBF6"/>
<path fill-rule="evenodd" clip-rule="evenodd" d="M207.974 168.976L166.393 144.978L166.893 144.112L208.474 168.109L207.974 168.976Z" fill="#DDEBF6"/>
<path fill-rule="evenodd" clip-rule="evenodd" d="M250.055 144.978L208.474 168.976L207.974 168.109L249.555 144.112L250.055 144.978Z" fill="#DDEBF6"/>
<path fill-rule="evenodd" clip-rule="evenodd" d="M208.474 120.114L250.055 144.112L249.555 144.978L207.974 120.981L208.474 120.114Z" fill="#DDEBF6"/>
<path fill-rule="evenodd" clip-rule="evenodd" d="M166.393 144.112L207.974 120.114L208.474 120.981L166.893 144.978L166.393 144.112Z" fill="#DDEBF6"/>
<path fill-rule="evenodd" clip-rule="evenodd" d="M208.724 72.4726L208.724 120.548L207.724 120.548L207.724 72.4726L208.724 72.4726Z" fill="#DDEBF6"/>
<path fill-rule="evenodd" clip-rule="evenodd" d="M167.143 96.4699L167.143 144.545L166.143 144.545L166.143 96.4699L167.143 96.4699Z" fill="#DDEBF6"/>
<path fill-rule="evenodd" clip-rule="evenodd" d="M82.9812 144.545L82.9812 96.4699L83.9812 96.4699L83.9812 144.545L82.9812 144.545Z" fill="#DDEBF6"/>
<path fill-rule="evenodd" clip-rule="evenodd" d="M125.312 120.114L166.893 144.112L166.393 144.978L124.812 120.981L125.312 120.114Z" fill="#DDEBF6"/>
<path fill-rule="evenodd" clip-rule="evenodd" d="M83.2313 144.112L124.812 120.114L125.312 120.981L83.7311 144.978L83.2313 144.112Z" fill="#DDEBF6"/>
<path fill-rule="evenodd" clip-rule="evenodd" d="M166.393 96.9031L124.812 72.9056L125.312 72.0395L166.893 96.037L166.393 96.9031Z" fill="#DDEBF6"/>
<path fill-rule="evenodd" clip-rule="evenodd" d="M208.474 72.9056L166.893 96.9031L166.393 96.037L207.974 72.0395L208.474 72.9056Z" fill="#DDEBF6"/>
<path fill-rule="evenodd" clip-rule="evenodd" d="M207.724 24.7661L207.724 72.4724L208.724 72.4724L208.724 24.1887L166.643 -0.0974084L124.812 24.0443L125.312 24.9105L166.643 1.05719L207.724 24.7661Z" fill="#DDEBF6"/>
<path fill-rule="evenodd" clip-rule="evenodd" d="M166.893 48.0419L208.474 72.0394L207.974 72.9055L166.393 48.908L166.893 48.0419Z" fill="#DDEBF6"/>
<path fill-rule="evenodd" clip-rule="evenodd" d="M124.562 120.548L124.562 72.1839L166.393 48.042L166.893 48.9081L125.562 72.7613L125.562 120.548L124.562 120.548Z" fill="#DDEBF6"/>
<path fill-rule="evenodd" clip-rule="evenodd" d="M167.143 0.48008L167.143 48.4751L166.143 48.4751L166.143 0.48008L167.143 0.48008Z" fill="#DDEBF6"/>
<path fill-rule="evenodd" clip-rule="evenodd" d="M291.886 24.4774L291.886 72.4724L290.886 72.4724L290.886 24.4774L291.886 24.4774Z" fill="#DDEBF6"/>
<path fill-rule="evenodd" clip-rule="evenodd" d="M249.555 96.9031L207.974 72.9056L208.474 72.0395L250.055 96.037L249.555 96.9031Z" fill="#DDEBF6"/>
<path fill-rule="evenodd" clip-rule="evenodd" d="M207.974 72.0394L249.555 48.0419L250.055 48.908L208.474 72.9055L207.974 72.0394Z" fill="#DDEBF6"/>
<path fill-rule="evenodd" clip-rule="evenodd" d="M581.952 144.545L581.952 96.4699L582.952 96.4699L582.952 144.545L581.952 144.545Z" fill="#DDEBF6"/>
<path fill-rule="evenodd" clip-rule="evenodd" d="M624.283 120.115L665.784 144.112L665.284 144.978L623.783 120.98L624.283 120.115Z" fill="#DDEBF6"/>
<path fill-rule="evenodd" clip-rule="evenodd" d="M582.202 144.112L623.783 120.114L624.283 120.981L582.702 144.978L582.202 144.112Z" fill="#DDEBF6"/>
<path fill-rule="evenodd" clip-rule="evenodd" d="M665.034 96.7584L665.034 144.545L666.034 144.545L666.034 96.1815L623.533 71.6057L623.533 120.547L624.533 120.547L624.533 73.3391L665.034 96.7584Z" fill="#DDEBF6"/>
<path fill-rule="evenodd" clip-rule="evenodd" d="M499.04 241.048L457.459 216.97L457.96 216.105L499.541 240.182L499.04 241.048Z" fill="#DDEBF6"/>
<path fill-rule="evenodd" clip-rule="evenodd" d="M499.54 192.107L541.121 216.104L540.621 216.97L499.04 192.973L499.54 192.107Z" fill="#DDEBF6"/>
<path fill-rule="evenodd" clip-rule="evenodd" d="M457.459 216.104L499.04 192.107L499.54 192.973L457.959 216.97L457.459 216.104Z" fill="#DDEBF6"/>
<path fill-rule="evenodd" clip-rule="evenodd" d="M499.79 145.411L499.79 192.54L498.79 192.54L498.79 143.679L541.121 168.109L540.621 168.976L499.79 145.411Z" fill="#DDEBF6"/>
<path fill-rule="evenodd" clip-rule="evenodd" d="M499.04 240.182L540.62 216.105L541.122 216.97L499.541 241.048L499.04 240.182Z" fill="#DDEBF6"/>
<path fill-rule="evenodd" clip-rule="evenodd" d="M541.121 264.18L582.702 288.177L582.202 289.043L540.621 265.046L541.121 264.18Z" fill="#DDEBF6"/>
<path fill-rule="evenodd" clip-rule="evenodd" d="M541.371 216.538L541.371 264.613L540.371 264.613L540.371 216.538L541.371 216.538Z" fill="#DDEBF6"/>
<path fill-rule="evenodd" clip-rule="evenodd" d="M831.607 241.048L790.026 216.97L790.527 216.105L832.108 240.182L831.607 241.048Z" fill="#DDEBF6"/>
<path fill-rule="evenodd" clip-rule="evenodd" d="M789.776 216.538L789.776 168.543L790.776 168.543L790.776 216.538L789.776 216.538Z" fill="#DDEBF6"/>
<path fill-rule="evenodd" clip-rule="evenodd" d="M832.107 192.107L873.688 216.104L873.188 216.97L831.607 192.973L832.107 192.107Z" fill="#DDEBF6"/>
<path fill-rule="evenodd" clip-rule="evenodd" d="M790.026 216.104L831.607 192.107L832.107 192.973L790.526 216.97L790.026 216.104Z" fill="#DDEBF6"/>
<path fill-rule="evenodd" clip-rule="evenodd" d="M832.357 192.54L831.357 192.54L831.357 145.411L790.526 168.976L790.027 168.109L832.357 143.679L832.357 192.54Z" fill="#DDEBF6"/>
<path fill-rule="evenodd" clip-rule="evenodd" d="M790.527 216.97L748.946 241.048L748.445 240.182L790.026 216.105L790.527 216.97Z" fill="#DDEBF6"/>
<path fill-rule="evenodd" clip-rule="evenodd" d="M706.615 216.538L706.615 168.543L707.615 168.543L707.615 216.538L706.615 216.538Z" fill="#DDEBF6"/>
<path fill-rule="evenodd" clip-rule="evenodd" d="M748.696 145.122L790.027 168.976L790.526 168.109L748.696 143.968L706.865 168.109L707.365 168.976L748.696 145.122Z" fill="#DDEBF6"/>
<path fill-rule="evenodd" clip-rule="evenodd" d="M748.945 192.107L790.526 216.104L790.027 216.97L748.446 192.973L748.945 192.107Z" fill="#DDEBF6"/>
<path fill-rule="evenodd" clip-rule="evenodd" d="M706.865 216.104L748.445 192.107L748.945 192.973L707.364 216.97L706.865 216.104Z" fill="#DDEBF6"/>
<path fill-rule="evenodd" clip-rule="evenodd" d="M749.195 144.545L749.195 192.54L748.195 192.54L748.195 144.545L749.195 144.545Z" fill="#DDEBF6"/>
<path fill-rule="evenodd" clip-rule="evenodd" d="M665.783 144.112L707.364 168.109L706.864 168.976L665.284 144.978L665.783 144.112Z" fill="#DDEBF6"/>
<path fill-rule="evenodd" clip-rule="evenodd" d="M665.283 241.048L623.782 216.97L624.284 216.105L665.785 240.183L665.283 241.048Z" fill="#DDEBF6"/>
<path fill-rule="evenodd" clip-rule="evenodd" d="M623.533 216.538L623.533 168.543L624.533 168.543L624.533 216.538L623.533 216.538Z" fill="#DDEBF6"/>
<path fill-rule="evenodd" clip-rule="evenodd" d="M623.783 168.11L665.284 144.112L665.784 144.978L624.283 168.975L623.783 168.11Z" fill="#DDEBF6"/>
<path fill-rule="evenodd" clip-rule="evenodd" d="M666.034 144.545L666.034 192.54L665.034 192.54L665.034 144.545L666.034 144.545Z" fill="#DDEBF6"/>
<path fill-rule="evenodd" clip-rule="evenodd" d="M582.702 144.112L624.283 168.109L623.783 168.976L582.202 144.978L582.702 144.112Z" fill="#DDEBF6"/>
<path fill-rule="evenodd" clip-rule="evenodd" d="M540.871 313.185L498.79 288.899L498.79 240.615L499.79 240.615L499.79 288.321L540.871 312.03L581.952 288.321L581.952 240.327L623.782 216.105L624.283 216.97L582.952 240.903L582.952 288.899L540.871 313.185Z" fill="#DDEBF6"/>
<path fill-rule="evenodd" clip-rule="evenodd" d="M540.371 216.538L540.371 168.543L541.371 168.543L541.371 216.538L540.371 216.538Z" fill="#DDEBF6"/>
<path fill-rule="evenodd" clip-rule="evenodd" d="M540.621 168.109L582.202 144.112L582.702 144.978L541.121 168.976L540.621 168.109Z" fill="#DDEBF6"/>
<path fill-rule="evenodd" clip-rule="evenodd" d="M582.702 192.107L624.283 216.104L623.783 216.97L582.202 192.973L582.702 192.107Z" fill="#DDEBF6"/>
<path fill-rule="evenodd" clip-rule="evenodd" d="M540.621 216.104L582.202 192.107L582.702 192.973L541.121 216.97L540.621 216.104Z" fill="#DDEBF6"/>
<path fill-rule="evenodd" clip-rule="evenodd" d="M582.952 144.545L582.952 192.54L581.952 192.54L581.952 144.545L582.952 144.545Z" fill="#DDEBF6"/>
<path fill-rule="evenodd" clip-rule="evenodd" d="M707.365 216.105L748.946 240.182L748.445 241.048L706.864 216.97L707.365 216.105Z" fill="#DDEBF6"/>
<path fill-rule="evenodd" clip-rule="evenodd" d="M707.114 313.185L665.034 288.899L665.034 240.615L666.034 240.615L666.034 288.321L707.114 312.03L748.195 288.321L748.195 240.615L749.195 240.615L749.195 288.899L707.114 313.185Z" fill="#DDEBF6"/>
<path fill-rule="evenodd" clip-rule="evenodd" d="M665.283 240.182L706.864 216.105L707.365 216.97L665.784 241.048L665.283 240.182Z" fill="#DDEBF6"/>
<path fill-rule="evenodd" clip-rule="evenodd" d="M707.364 264.179L748.945 288.177L748.445 289.043L706.865 265.045L707.364 264.179Z" fill="#DDEBF6"/>
<path fill-rule="evenodd" clip-rule="evenodd" d="M665.284 288.177L706.864 264.179L707.364 265.045L665.783 289.043L665.284 288.177Z" fill="#DDEBF6"/>
<path fill-rule="evenodd" clip-rule="evenodd" d="M707.615 216.538L707.615 264.613L706.615 264.613L706.615 216.538L707.615 216.538Z" fill="#DDEBF6"/>
<path fill-rule="evenodd" clip-rule="evenodd" d="M914.768 241.048L873.188 216.97L873.689 216.105L915.27 240.182L914.768 241.048Z" fill="#DDEBF6"/>
<path fill-rule="evenodd" clip-rule="evenodd" d="M872.938 216.538L872.938 168.543L873.938 168.543L873.938 216.538L872.938 216.538Z" fill="#DDEBF6"/>
<path fill-rule="evenodd" clip-rule="evenodd" d="M915.269 289.043L873.688 313.041L873.188 312.174L914.769 288.177L915.269 289.043Z" fill="#DDEBF6"/>
<path fill-rule="evenodd" clip-rule="evenodd" d="M831.357 288.61L831.357 240.615L832.357 240.615L832.357 288.61L831.357 288.61Z" fill="#DDEBF6"/>
<path fill-rule="evenodd" clip-rule="evenodd" d="M831.606 240.182L873.187 216.105L873.688 216.97L832.108 241.048L831.606 240.182Z" fill="#DDEBF6"/>
<path fill-rule="evenodd" clip-rule="evenodd" d="M873.938 216.538L873.938 264.613L872.938 264.613L872.938 216.538L873.938 216.538Z" fill="#DDEBF6"/>
<path fill-rule="evenodd" clip-rule="evenodd" d="M499.04 288.177L540.621 264.18L541.121 265.046L499.54 289.043L499.04 288.177Z" fill="#DDEBF6"/>
<path fill-rule="evenodd" clip-rule="evenodd" d="M624.284 216.97L582.703 241.048L582.202 240.182L623.783 216.105L624.284 216.97Z" fill="#AEC4E3"/>
<path fill-rule="evenodd" clip-rule="evenodd" d="M623.533 168.831L623.533 216.538L624.533 216.538L624.533 168.254L582.452 143.968L540.371 168.254L540.371 216.538L541.371 216.538L541.371 168.831L582.452 145.122L623.533 168.831Z" fill="#AEC4E3"/>
<path fill-rule="evenodd" clip-rule="evenodd" d="M582.702 192.107L624.283 216.105L623.783 216.971L582.202 192.973L582.702 192.107Z" fill="#AEC4E3"/>
<path fill-rule="evenodd" clip-rule="evenodd" d="M540.621 216.105L582.202 192.107L582.702 192.973L541.121 216.971L540.621 216.105Z" fill="#AEC4E3"/>
<path fill-rule="evenodd" clip-rule="evenodd" d="M582.952 144.545L582.952 192.54L581.952 192.54L581.952 144.545L582.952 144.545Z" fill="#AEC4E3"/>
<path fill-rule="evenodd" clip-rule="evenodd" d="M374.798 264.18L416.378 288.177L415.879 289.043L374.298 265.046L374.798 264.18Z" fill="#AEC4E3"/>
<path fill-rule="evenodd" clip-rule="evenodd" d="M332.717 288.177L374.298 264.18L374.798 265.046L333.217 289.043L332.717 288.177Z" fill="#AEC4E3"/>
<path fill-rule="evenodd" clip-rule="evenodd" d="M375.048 216.538L375.048 264.613L374.048 264.613L374.048 216.538L375.048 216.538Z" fill="#AEC4E3"/>
<path fill-rule="evenodd" clip-rule="evenodd" d="M291.136 313.041L249.555 289.043L250.055 288.177L291.636 312.175L291.136 313.041Z" fill="#AEC4E3"/>
<path fill-rule="evenodd" clip-rule="evenodd" d="M290.886 264.324L249.555 288.177L250.055 289.043L291.886 264.901L291.886 216.538L290.886 216.538L290.886 264.324Z" fill="#AEC4E3"/>
<path fill-rule="evenodd" clip-rule="evenodd" d="M375.048 168.543L375.048 216.538L374.048 216.538L374.048 168.543L375.048 168.543Z" fill="#AEC4E3"/>
<path fill-rule="evenodd" clip-rule="evenodd" d="M333.217 192.107L374.798 216.105L374.298 216.971L332.717 192.973L333.217 192.107Z" fill="#AEC4E3"/>
<path fill-rule="evenodd" clip-rule="evenodd" d="M291.136 216.105L332.717 192.107L333.217 192.973L291.636 216.971L291.136 216.105Z" fill="#AEC4E3"/>
<path fill-rule="evenodd" clip-rule="evenodd" d="M333.467 192.54L332.467 192.54L332.467 145.411L291.636 168.976L291.136 168.109L333.467 143.679L333.467 192.54Z" fill="#AEC4E3"/>
<path fill-rule="evenodd" clip-rule="evenodd" d="M250.305 240.615L250.305 288.61L249.305 288.61L249.305 240.615L250.305 240.615Z" fill="#AEC4E3"/>
<path fill-rule="evenodd" clip-rule="evenodd" d="M250.055 289.043L208.474 313.041L207.974 312.175L249.555 288.177L250.055 289.043Z" fill="#AEC4E3"/>
<path fill-rule="evenodd" clip-rule="evenodd" d="M208.724 264.324L250.055 288.177L249.555 289.043L207.724 264.901L207.724 216.538L208.724 216.538L208.724 264.324Z" fill="#AEC4E3"/>
<path fill-rule="evenodd" clip-rule="evenodd" d="M291.886 168.543L291.886 216.538L290.886 216.538L290.886 168.543L291.886 168.543Z" fill="#AEC4E3"/>
<path fill-rule="evenodd" clip-rule="evenodd" d="M250.055 144.112L291.636 168.109L291.136 168.976L249.555 144.978L250.055 144.112Z" fill="#AEC4E3"/>
<path fill-rule="evenodd" clip-rule="evenodd" d="M249.555 241.048L207.974 216.97L208.475 216.105L250.056 240.182L249.555 241.048Z" fill="#AEC4E3"/>
<path fill-rule="evenodd" clip-rule="evenodd" d="M291.636 216.97L250.056 241.048L249.554 240.182L291.135 216.105L291.636 216.97Z" fill="#AEC4E3"/>
<path fill-rule="evenodd" clip-rule="evenodd" d="M250.055 192.107L291.636 216.105L291.136 216.971L249.555 192.973L250.055 192.107Z" fill="#AEC4E3"/>
<path fill-rule="evenodd" clip-rule="evenodd" d="M207.974 216.105L249.555 192.107L250.055 192.973L208.474 216.971L207.974 216.105Z" fill="#AEC4E3"/>
<path fill-rule="evenodd" clip-rule="evenodd" d="M250.305 144.545L250.305 192.54L249.305 192.54L249.305 144.545L250.305 144.545Z" fill="#AEC4E3"/>
<path fill-rule="evenodd" clip-rule="evenodd" d="M125.312 264.18L166.893 288.177L166.393 289.043L124.813 265.046L125.312 264.18Z" fill="#AEC4E3"/>
<path fill-rule="evenodd" clip-rule="evenodd" d="M83.2315 288.177L124.812 264.18L125.312 265.046L83.7314 289.043L83.2315 288.177Z" fill="#AEC4E3"/>
<path fill-rule="evenodd" clip-rule="evenodd" d="M125.562 216.538L125.562 264.613L124.562 264.613L124.562 216.538L125.562 216.538Z" fill="#AEC4E3"/>
<path fill-rule="evenodd" clip-rule="evenodd" d="M83.9814 240.615L83.9814 288.61L82.9814 288.61L82.9814 240.615L83.9814 240.615Z" fill="#AEC4E3"/>
<path fill-rule="evenodd" clip-rule="evenodd" d="M41.9809 313.185L0.1499 289.043L0.649755 288.177L41.9805 312.03L83.2314 288.177L83.7319 289.043L41.9809 313.185Z" fill="#AEC4E3"/>
<path fill-rule="evenodd" clip-rule="evenodd" d="M-0.100342 288.61L-0.100346 240.615L0.899654 240.615L0.899658 288.61L-0.100342 288.61Z" fill="#AEC4E3"/>
<path fill-rule="evenodd" clip-rule="evenodd" d="M0.149216 240.182L41.7301 216.105L42.2312 216.97L0.650318 241.048L0.149216 240.182Z" fill="#AEC4E3"/>
<path fill-rule="evenodd" clip-rule="evenodd" d="M42.231 264.18L83.7319 288.177L83.2314 289.043L41.7304 265.045L42.231 264.18Z" fill="#AEC4E3"/>
<path fill-rule="evenodd" clip-rule="evenodd" d="M0.149734 288.177L41.7306 264.18L42.2305 265.046L0.64959 289.043L0.149734 288.177Z" fill="#AEC4E3"/>
<path fill-rule="evenodd" clip-rule="evenodd" d="M166.393 241.048L124.812 216.97L125.313 216.105L166.894 240.182L166.393 241.048Z" fill="#AEC4E3"/>
<path fill-rule="evenodd" clip-rule="evenodd" d="M208.475 216.97L166.894 241.048L166.393 240.182L207.974 216.105L208.475 216.97Z" fill="#AEC4E3"/>
<path fill-rule="evenodd" clip-rule="evenodd" d="M166.893 192.107L208.474 216.105L207.974 216.971L166.393 192.973L166.893 192.107Z" fill="#AEC4E3"/>
<path fill-rule="evenodd" clip-rule="evenodd" d="M124.813 216.105L166.393 192.107L166.893 192.973L125.312 216.971L124.813 216.105Z" fill="#AEC4E3"/>
<path fill-rule="evenodd" clip-rule="evenodd" d="M167.143 144.545L167.143 192.54L166.143 192.54L166.143 144.545L167.143 144.545Z" fill="#AEC4E3"/>
<path fill-rule="evenodd" clip-rule="evenodd" d="M125.562 168.543L125.562 216.538L124.562 216.538L124.562 168.543L125.562 168.543Z" fill="#AEC4E3"/>
<path fill-rule="evenodd" clip-rule="evenodd" d="M83.2306 241.048L41.7297 216.97L42.2315 216.105L83.7324 240.183L83.2306 241.048Z" fill="#AEC4E3"/>
<path fill-rule="evenodd" clip-rule="evenodd" d="M125.313 216.97L83.7321 241.048L83.231 240.182L124.812 216.105L125.313 216.97Z" fill="#AEC4E3"/>
<path fill-rule="evenodd" clip-rule="evenodd" d="M41.7304 168.11L83.2314 144.112L83.7319 144.978L42.231 168.975L41.7304 168.11Z" fill="#AEC4E3"/>
<path fill-rule="evenodd" clip-rule="evenodd" d="M83.7314 192.107L125.312 216.105L124.812 216.971L83.2315 192.973L83.7314 192.107Z" fill="#AEC4E3"/>
<path fill-rule="evenodd" clip-rule="evenodd" d="M83.9814 144.545L83.9814 192.54L82.9814 192.54L82.9814 144.545L83.9814 144.545Z" fill="#AEC4E3"/>
<path fill-rule="evenodd" clip-rule="evenodd" d="M124.812 168.976L83.2315 144.978L83.7314 144.112L125.312 168.109L124.812 168.976Z" fill="#AEC4E3"/>
<path fill-rule="evenodd" clip-rule="evenodd" d="M166.893 144.978L125.312 168.976L124.813 168.109L166.393 144.112L166.893 144.978Z" fill="#AEC4E3"/>
<path fill-rule="evenodd" clip-rule="evenodd" d="M125.312 120.114L166.893 144.112L166.393 144.978L124.813 120.981L125.312 120.114Z" fill="#AEC4E3"/>
<path fill-rule="evenodd" clip-rule="evenodd" d="M83.2315 144.112L124.812 120.114L125.312 120.981L83.7314 144.978L83.2315 144.112Z" fill="#AEC4E3"/>
<path fill-rule="evenodd" clip-rule="evenodd" d="M167.143 144.545L166.143 144.545L166.143 96.7589L125.562 73.3385L125.562 120.548L124.562 120.548L124.562 71.6068L167.143 96.1814L167.143 144.545Z" fill="#AEC4E3"/>
<path fill-rule="evenodd" clip-rule="evenodd" d="M208.474 120.114L250.055 144.112L249.555 144.978L207.974 120.981L208.474 120.114Z" fill="#AEC4E3"/>
<path fill-rule="evenodd" clip-rule="evenodd" d="M166.393 144.112L207.974 120.114L208.474 120.981L166.893 144.978L166.393 144.112Z" fill="#AEC4E3"/>
<path fill-rule="evenodd" clip-rule="evenodd" d="M208.724 72.4726L208.724 120.548L207.724 120.548L207.724 72.4726L208.724 72.4726Z" fill="#AEC4E3"/>
<path fill-rule="evenodd" clip-rule="evenodd" d="M457.46 313.041L415.879 289.043L416.379 288.177L457.959 312.175L457.46 313.041Z" fill="#AEC4E3"/>
<path fill-rule="evenodd" clip-rule="evenodd" d="M416.629 288.61L415.629 288.61L415.629 240.903L374.297 216.97L374.798 216.105L416.629 240.327L416.629 288.61Z" fill="#AEC4E3"/>
<path fill-rule="evenodd" clip-rule="evenodd" d="M457.959 264.18L499.54 288.177L499.04 289.043L457.46 265.046L457.959 264.18Z" fill="#AEC4E3"/>
<path fill-rule="evenodd" clip-rule="evenodd" d="M415.879 288.177L457.46 264.18L457.959 265.046L416.379 289.043L415.879 288.177Z" fill="#AEC4E3"/>
<path fill-rule="evenodd" clip-rule="evenodd" d="M458.209 216.538L458.209 264.613L457.209 264.613L457.209 216.538L458.209 216.538Z" fill="#AEC4E3"/>
<path fill-rule="evenodd" clip-rule="evenodd" d="M541.371 312.608L541.371 360.603L540.371 360.603L540.371 312.608L541.371 312.608Z" fill="#AEC4E3"/>
<path fill-rule="evenodd" clip-rule="evenodd" d="M499.04 385.113L457.459 361.035L457.96 360.17L499.541 384.247L499.04 385.113Z" fill="#AEC4E3"/>
<path fill-rule="evenodd" clip-rule="evenodd" d="M541.122 361.035L499.541 385.113L499.04 384.247L540.62 360.17L541.122 361.035Z" fill="#AEC4E3"/>
<path fill-rule="evenodd" clip-rule="evenodd" d="M457.209 360.603L457.209 312.608L458.209 312.608L458.209 360.603L457.209 360.603Z" fill="#AEC4E3"/>
<path fill-rule="evenodd" clip-rule="evenodd" d="M457.46 312.175L499.04 288.177L499.54 289.043L457.959 313.041L457.46 312.175Z" fill="#AEC4E3"/>
<path fill-rule="evenodd" clip-rule="evenodd" d="M499.54 336.172L541.121 360.17L540.621 361.036L499.04 337.038L499.54 336.172Z" fill="#AEC4E3"/>
<path fill-rule="evenodd" clip-rule="evenodd" d="M457.46 360.17L499.04 336.172L499.54 337.038L457.959 361.036L457.46 360.17Z" fill="#AEC4E3"/>
<path fill-rule="evenodd" clip-rule="evenodd" d="M499.79 288.61L499.79 336.605L498.79 336.605L498.79 288.61L499.79 288.61Z" fill="#AEC4E3"/>
<path fill-rule="evenodd" clip-rule="evenodd" d="M832.357 240.615L832.357 288.61L831.357 288.61L831.357 240.615L832.357 240.615Z" fill="#AEC4E3"/>
<path fill-rule="evenodd" clip-rule="evenodd" d="M790.027 313.041L748.446 289.043L748.945 288.177L790.526 312.174L790.027 313.041Z" fill="#AEC4E3"/>
<path fill-rule="evenodd" clip-rule="evenodd" d="M832.107 289.043L790.527 313.041L790.027 312.174L831.608 288.177L832.107 289.043Z" fill="#AEC4E3"/>
<path fill-rule="evenodd" clip-rule="evenodd" d="M915.519 288.61L915.519 336.605L914.519 336.605L914.519 288.61L915.519 288.61Z" fill="#AEC4E3"/>
<path fill-rule="evenodd" clip-rule="evenodd" d="M873.189 361.036L831.608 337.038L832.108 336.172L873.688 360.17L873.189 361.036Z" fill="#AEC4E3"/>
<path fill-rule="evenodd" clip-rule="evenodd" d="M915.269 337.038L873.688 361.036L873.188 360.17L914.769 336.172L915.269 337.038Z" fill="#AEC4E3"/>
<path fill-rule="evenodd" clip-rule="evenodd" d="M831.357 336.605L831.357 288.61L832.357 288.61L832.357 336.605L831.357 336.605Z" fill="#AEC4E3"/>
<path fill-rule="evenodd" clip-rule="evenodd" d="M873.438 265.19L914.769 289.043L915.269 288.177L873.438 264.035L831.607 288.177L832.107 289.043L873.438 265.19Z" fill="#AEC4E3"/>
<path fill-rule="evenodd" clip-rule="evenodd" d="M873.688 312.174L915.269 336.172L914.769 337.038L873.188 313.041L873.688 312.174Z" fill="#AEC4E3"/>
<path fill-rule="evenodd" clip-rule="evenodd" d="M831.608 336.172L873.189 312.174L873.688 313.041L832.108 337.038L831.608 336.172Z" fill="#AEC4E3"/>
<path fill-rule="evenodd" clip-rule="evenodd" d="M873.938 264.613L873.938 312.608L872.938 312.608L872.938 264.613L873.938 264.613Z" fill="#AEC4E3"/>
<path fill-rule="evenodd" clip-rule="evenodd" d="M956.35 313.041L914.769 289.043L915.269 288.177L956.85 312.174L956.35 313.041Z" fill="#AEC4E3"/>
<path fill-rule="evenodd" clip-rule="evenodd" d="M914.519 289.476L914.519 240.327L957.1 215.67L957.1 264.901L914.519 289.476ZM956.1 264.324L956.1 217.405L915.519 240.903L915.519 287.744L956.1 264.324Z" fill="#AEC4E3"/>
<path fill-rule="evenodd" clip-rule="evenodd" d="M748.196 288.61L748.196 240.327L790.026 216.105L790.527 216.97L749.196 240.903L749.196 288.61L748.196 288.61Z" fill="#AEC4E3"/>
<path fill-rule="evenodd" clip-rule="evenodd" d="M790.277 265.19L831.608 289.043L832.107 288.177L790.277 264.035L748.446 288.177L748.946 289.043L790.277 265.19Z" fill="#AEC4E3"/>
<path fill-rule="evenodd" clip-rule="evenodd" d="M706.865 313.041L665.284 289.043L665.784 288.177L707.365 312.175L706.865 313.041Z" fill="#AEC4E3"/>
<path fill-rule="evenodd" clip-rule="evenodd" d="M665.034 288.61L665.034 240.615L666.034 240.615L666.034 288.61L665.034 288.61Z" fill="#AEC4E3"/>
<path fill-rule="evenodd" clip-rule="evenodd" d="M707.365 264.18L748.946 288.177L748.446 289.043L706.865 265.046L707.365 264.18Z" fill="#AEC4E3"/>
<path fill-rule="evenodd" clip-rule="evenodd" d="M665.284 288.177L706.865 264.18L707.365 265.046L665.784 289.043L665.284 288.177Z" fill="#AEC4E3"/>
<path fill-rule="evenodd" clip-rule="evenodd" d="M707.615 264.613L706.615 264.613L706.615 217.405L665.784 241.048L665.283 240.182L707.615 215.67L707.615 264.613Z" fill="#AEC4E3"/>
<path fill-rule="evenodd" clip-rule="evenodd" d="M624.284 216.105L665.785 240.183L665.283 241.048L623.782 216.97L624.284 216.105Z" fill="#AEC4E3"/>
<path fill-rule="evenodd" clip-rule="evenodd" d="M581.952 288.61L581.952 240.615L582.952 240.615L582.952 288.61L581.952 288.61Z" fill="#AEC4E3"/>
<path fill-rule="evenodd" clip-rule="evenodd" d="M624.283 264.18L665.784 288.177L665.284 289.043L623.783 265.045L624.283 264.18Z" fill="#AEC4E3"/>
<path fill-rule="evenodd" clip-rule="evenodd" d="M582.202 288.177L623.783 264.18L624.283 265.046L582.702 289.043L582.202 288.177Z" fill="#AEC4E3"/>
<path fill-rule="evenodd" clip-rule="evenodd" d="M624.533 216.538L624.533 264.613L623.533 264.613L623.533 216.538L624.533 216.538Z" fill="#AEC4E3"/>
<path fill-rule="evenodd" clip-rule="evenodd" d="M582.702 289.043L541.121 313.041L540.621 312.175L582.202 288.177L582.702 289.043Z" fill="#AEC4E3"/>
<path fill-rule="evenodd" clip-rule="evenodd" d="M499.79 240.903L499.79 288.61L498.79 288.61L498.79 240.327L540.62 216.105L541.122 216.97L499.79 240.903Z" fill="#AEC4E3"/>
<path fill-rule="evenodd" clip-rule="evenodd" d="M541.121 264.18L582.702 288.177L582.202 289.043L540.621 265.046L541.121 264.18Z" fill="#AEC4E3"/>
<path fill-rule="evenodd" clip-rule="evenodd" d="M499.04 288.177L540.621 264.18L541.121 265.046L499.54 289.043L499.04 288.177Z" fill="#AEC4E3"/>
<path fill-rule="evenodd" clip-rule="evenodd" d="M541.371 216.538L541.371 264.613L540.371 264.613L540.371 216.538L541.371 216.538Z" fill="#AEC4E3"/>
<path fill-rule="evenodd" clip-rule="evenodd" d="M707.615 312.608L707.615 360.603L706.615 360.603L706.615 312.608L707.615 312.608Z" fill="#AEC4E3"/>
<path fill-rule="evenodd" clip-rule="evenodd" d="M665.283 385.113L623.782 361.035L624.284 360.17L665.785 384.248L665.283 385.113Z" fill="#AEC4E3"/>
<path fill-rule="evenodd" clip-rule="evenodd" d="M707.365 361.035L665.784 385.113L665.283 384.247L706.864 360.17L707.365 361.035Z" fill="#AEC4E3"/>
<path fill-rule="evenodd" clip-rule="evenodd" d="M623.533 360.603L623.533 312.608L624.533 312.608L624.533 360.603L623.533 360.603Z" fill="#AEC4E3"/>
<path fill-rule="evenodd" clip-rule="evenodd" d="M623.783 312.175L665.284 288.177L665.784 289.043L624.283 313.041L623.783 312.175Z" fill="#AEC4E3"/>
<path fill-rule="evenodd" clip-rule="evenodd" d="M665.784 336.172L707.365 360.17L706.865 361.036L665.284 337.038L665.784 336.172Z" fill="#AEC4E3"/>
<path fill-rule="evenodd" clip-rule="evenodd" d="M623.783 360.17L665.284 336.172L665.784 337.038L624.283 361.035L623.783 360.17Z" fill="#AEC4E3"/>
<path fill-rule="evenodd" clip-rule="evenodd" d="M666.034 288.61L666.034 336.605L665.034 336.605L665.034 288.61L666.034 288.61Z" fill="#AEC4E3"/>
<path fill-rule="evenodd" clip-rule="evenodd" d="M416.629 288.61L416.629 336.605L415.629 336.605L415.629 288.61L416.629 288.61Z" fill="#AEC4E3"/>
<path fill-rule="evenodd" clip-rule="evenodd" d="M416.378 289.043L374.798 313.041L374.298 312.175L415.879 288.177L416.378 289.043Z" fill="#AEC4E3"/>
<path fill-rule="evenodd" clip-rule="evenodd" d="M208.224 169.12L166.393 144.978L166.893 144.112L208.224 167.965L249.555 144.112L250.055 144.978L208.224 169.12Z" fill="#AEC4E3"/>
<path fill-rule="evenodd" clip-rule="evenodd" d="M125.062 313.185L83.2316 289.043L83.7315 288.177L125.062 312.03L166.143 288.322L166.143 240.615L167.143 240.615L167.143 288.899L125.062 313.185Z" fill="#AEC4E3"/>
<path fill-rule="evenodd" clip-rule="evenodd" d="M332.967 241.193L291.135 216.97L291.637 216.105L332.967 240.037L374.297 216.105L374.798 216.97L332.967 241.193Z" fill="#AEC4E3"/>
</g>
<defs>
<clipPath id="clip0_520_12451">
<rect width="957" height="385" fill="white" transform="translate(957 385) rotate(180)"/>
</clipPath>
</defs>
</svg>
